<svg xmlns="http://www.w3.org/2000/svg">
  <symbol id="mobile-menu-arrow" viewBox="0 0 6 7">
    <path d="M3 6.16064L4.5897e-07 0.910644L6 0.910645L3 6.16064Z"/>
	</symbol>
  <symbol id="arrow-left-prev" viewBox="0 0 12 20">
    <path d="M9.8957 0.893934L1.81917 8.97046L1.81815 8.96944L1.71207 9.07552L0.893934 9.89366L0.787868 9.99973L0.893934 10.1058L9.89345 19.1053L9.99951 19.2114L10.1056 19.1053L10.9237 18.2872L11.0298 18.1811L10.9237 18.075L2.84943 10.0007L10.926 1.9242L11.032 1.81814L10.926 1.71207L10.1078 0.893934L10.0018 0.787868L9.8957 0.893934Z" stroke-width="0.3"/>
	</symbol>
  <symbol id="arrow-right-prev" viewBox="0 0 12 20">
    <path d="M10.0007 11.0288L10.0018 11.0298L10.1078 10.9237L10.926 10.1056L11.032 9.99951L10.926 9.89344L1.92646 0.893934L1.8204 0.787868L1.71433 0.893934L0.896193 1.71207L0.790127 1.81814L0.896193 1.9242L8.97048 9.99849L0.893934 18.075L0.787868 18.1811L0.893934 18.2872L1.71207 19.1053L1.81814 19.2114L1.9242 19.1053L10.0007 11.0288Z" stroke-width="0.3"/>
	</symbol>
  <symbol id="arrow-left-rev" viewBox="0 0 13 21" xmlns="http://www.w3.org/2000/svg">
    <svg width="18" height="16" viewBox="0 0 18 16" fill="none" xmlns="http://www.w3.org/2000/svg">
      <path d="M3.936 8.90059L18 8.90059L18 6.78859L3.936 6.78859L9.024 1.72459L7.68 0.380594L0.215999 7.84459L7.68 15.3086L9.024 13.9886L3.936 8.90059Z" fill="white"/>
    </svg>
  </symbol>
  <symbol id="arrow-right-rev" viewBox="0 0 13 21" xmlns="http://www.w3.org/2000/svg">
    <svg width="18" height="16" viewBox="0 0 18 16" fill="none" xmlns="http://www.w3.org/2000/svg">
      <path d="M14.064 6.71659H0V8.8286H14.064L8.976 13.8926L10.32 15.2366L17.784 7.77259L10.32 0.308594L8.976 1.62859L14.064 6.71659Z" fill="white"/>
    </svg>
  </symbol>
  <symbol id="arrow-left" viewBox="0 0 13 21" xmlns="http://www.w3.org/2000/svg">
    <rect width="14.34" height="2.76214" transform="matrix(0.707107 0.707107 0.707107 -0.707107 0 10.1401)"/>
    <rect y="10.1401" width="14.34" height="2.76214" transform="rotate(-45 0 10.1401)"/>
  </symbol>
  <symbol id="arrow-right" viewBox="0 0 13 21" xmlns="http://www.w3.org/2000/svg">
    <rect x="13.0464" y="11.0469" width="14.34" height="2.76214" transform="rotate(135 13.0464 11.0469)"/>
    <rect width="14.34" height="2.76214" transform="matrix(-0.707107 -0.707107 -0.707107 0.707107 13.0464 11.0469)"/>
  </symbol>
  <symbol id="cross" viewBox="0 0 26 26">
    <path fill-rule="evenodd" clip-rule="evenodd" d="M10.8708 13L0 23.8708L2.12132 25.9921L12.9921 15.1213L23.8708 26L25.9921 23.8787L15.1135 13L25.9921 2.12132L23.8708 0L12.9921 10.8787L2.12132 0.0078541L0 2.12917L10.8708 13Z"/>
  </symbol>
  <symbol id="burger0" viewBox="0 0 34 21">
    <rect width="34" height="3"/>
    <rect y="9" width="34" height="3"/>
    <rect y="18" width="34" height="3"/>
  </symbol>
  <symbol id="burger" viewBox="0 0 40 17">
    <rect y="15" width="40" height="2"/>
    <rect width="40" height="2"/>
  </symbol>
  <symbol id="filter" viewBox="0 0 512 512">
    <path d="m187.304 252.717c8.045 11.642 5.64 1.941 5.64 233.997 0 20.766 23.692 32.651 40.39 20.23 71.353-53.797 85.609-58.456 85.609-83.619 0-169.104-1.971-159.594 5.64-170.608l115.869-157.718h-369.016z"/>
    <path d="m484.221 12.86c-4.14-7.93-12.26-12.86-21.199-12.86h-414.156c-19.305 0-30.664 21.777-19.59 37.6.091.152-1.257-1.693 20.12 27.4h413.095c18.217-24.793 30.394-35.505 21.73-52.14z"/>
  </symbol>
  <symbol id="full-arrow-left" viewBox="0 0 29 24">
    <path d="M6.06613 13.6978L29 13.6978L29 10.3023L6.06613 10.3023L14.363 2.16077L12.1714 -4.36145e-07L-1.04907e-06 12L12.1714 24L14.363 21.8778L6.06613 13.6978Z" fill="#F2F2F2"/>
  </symbol>
  <symbol id="full-arrow-right" viewBox="0 0 29 24">
    <path d="M22.9339 10.3023L-1.8013e-06 10.3022L-2.39499e-06 13.6977L22.9339 13.6978L14.637 21.8392L16.8286 24L29 12L16.8286 2.94241e-06L14.637 2.12219L22.9339 10.3023Z" fill="#F2F2F2"/>
  </symbol>
  <symbol id="attach" viewBox="0 0 22 22">
    <path d="M12.9404 0L1.82295 11.435C-0.607654 13.9351 -0.607646 17.9987 1.82295 20.4988C4.25355 22.9989 8.20432 22.9992 10.6349 20.4988L20.7046 10.1414C22.432 8.36467 22.4317 5.46547 20.7046 3.6887C18.9771 1.9119 16.1585 1.91193 14.4311 3.6887L4.15319 14.2602C3.12891 15.3137 3.12693 17.0484 4.1515 18.102C5.17579 19.1555 6.86388 19.1552 7.88816 18.102L15.8292 9.93404L14.6327 8.7033L6.69163 16.8712C6.3096 17.2642 5.7317 17.2645 5.34968 16.8712C4.96764 16.4783 4.96796 15.8839 5.34968 15.4909L15.6276 4.91933C16.7127 3.80315 18.4228 3.80315 19.508 4.91933C20.5932 6.03551 20.5935 7.79449 19.508 8.9107L9.43835 19.2681C7.65001 21.1075 4.80779 21.1072 3.01943 19.2681C1.23108 17.4286 1.23108 14.5052 3.01943 12.6658L14.1369 1.23064L12.9404 0Z"/>
  </symbol>
  <symbol id="reset" viewBox="0 0 26 26" fill="none">
    <path d="M23.8 7.4C21.76 3.72 17.48 1 13 1C6.36 1 1 6.36 1 13C1 19.64 6.36 25 13 25C19.48 25 24.76 19.84 25 13.44" stroke="black" stroke-width="2" stroke-miterlimit="10" stroke-linecap="round"/>
    <path d="M17.4004 7.4H23.8004V1" stroke="black" stroke-width="2" stroke-miterlimit="10" stroke-linecap="round" stroke-linejoin="round"/>
  </symbol>
  <symbol id="check" viewBox="0 0 36 34">
    <path d="M35.0649 0.00838111C34.8784 0.0351242 34.7068 0.125434 34.5792 0.264055C30.1447 4.90369 19.81 15.9877 15.0713 20.9609L8.71776 15.3488C8.63725 15.277 8.54336 15.2219 8.44148 15.1865C8.3396 15.151 8.23173 15.1361 8.12406 15.1424C8.01639 15.1488 7.91103 15.1764 7.81403 15.2235C7.71702 15.2707 7.63029 15.3365 7.55878 15.4173C7.48728 15.498 7.43242 15.5921 7.39735 15.6941C7.36228 15.7961 7.34769 15.904 7.35441 16.0117C7.36114 16.1193 7.38904 16.2246 7.43653 16.3214C7.48402 16.4183 7.55016 16.5048 7.63115 16.576L14.5855 22.7123C14.7446 22.8532 14.9523 22.9267 15.1647 22.9171C15.3771 22.9076 15.5774 22.8158 15.7232 22.6611C20.2805 17.8932 31.2346 6.13215 35.768 1.38902C35.8872 1.26657 35.9651 1.10988 35.9908 0.940916C36.0164 0.771953 35.9884 0.599206 35.9109 0.446921C35.8333 0.294637 35.7101 0.170475 35.5583 0.0918246C35.4066 0.0131746 35.2341 -0.016019 35.0649 0.00838111ZM16.5414 0.839345C14.5295 0.816028 12.5079 1.16787 10.5714 1.90037C2.12975 5.09346 -2.13274 14.5518 1.06033 22.9935C4.25345 31.4351 13.7118 35.6976 22.1534 32.5045C30.5951 29.3114 34.8448 19.8531 31.6517 11.4114C31.6197 11.3029 31.5656 11.2023 31.4927 11.1158C31.4198 11.0292 31.3298 10.9588 31.2284 10.9088C31.1269 10.8588 31.0162 10.8304 30.9032 10.8254C30.7902 10.8204 30.6773 10.8389 30.5718 10.8797C30.4663 10.9204 30.3704 10.9827 30.2902 11.0624C30.21 11.1421 30.1471 11.2376 30.1056 11.3428C30.0641 11.448 30.0449 11.5607 30.0492 11.6737C30.0535 11.7868 30.0811 11.8977 30.1304 11.9995C33.0106 19.614 29.1799 28.0903 21.5654 30.9705C13.9509 33.8507 5.4618 30.0199 2.58159 22.4054C-0.298609 14.7909 3.53215 6.31464 11.1467 3.43441C15.796 1.67582 21.0138 2.37154 25.0297 5.30083C25.205 5.41362 25.4166 5.45546 25.6215 5.41783C25.8265 5.38019 26.0094 5.26592 26.1332 5.09823C26.2569 4.93055 26.3121 4.72205 26.2876 4.5151C26.2631 4.30816 26.1608 4.1183 26.0013 3.98413C23.2134 1.95065 19.8945 0.878126 16.5414 0.839345Z"/>
  </symbol>
  <symbol id="phone" viewBox="0 0 16 23">
    <path fill-rule="evenodd" clip-rule="evenodd" d="M15.8512 19.5554L13.6603 15.7605C13.3266 15.1828 12.5343 15.01 11.8995 15.3765L9.95905 16.497C7.56855 14.912 5.12803 10.686 4.95118 7.82341L6.89167 6.70293C7.52667 6.33641 7.77363 5.5644 7.4397 4.98612L5.24875 1.19123C4.91482 0.612955 4.12274 0.440751 3.48803 0.807556L1.45998 1.97837C-1.88811 3.9113 1.35613 12.0546 2.92662 14.7747C4.4974 17.4953 9.92734 24.3759 13.2751 22.443L15.3032 21.2722C15.9382 20.9054 16.1849 20.1331 15.8512 19.5554H15.8512Z"/>
  </symbol>
  <symbol id="mail" viewBox="0 0 22 15">
    <path d="M10.9697 9.75139L21.939 2.29199V14.48H0V2.29199L10.9697 9.75139Z"/>
    <path d="M21.9394 0H0L10.9697 7.45939L21.9394 0Z"/>
  </symbol>
  <symbol id="telegram" viewBox="0 0 20 17">
    <path fill-rule="evenodd" clip-rule="evenodd" d="M15.32 16.4823C15.5883 16.6722 15.9341 16.7197 16.2425 16.6031C16.5508 16.4856 16.7775 16.2223 16.8458 15.9031C17.5699 12.4998 19.3266 3.88587 19.9857 0.790106C20.0357 0.556778 19.9524 0.314283 19.7691 0.158453C19.5857 0.00262351 19.3316 -0.0423756 19.1049 0.0417892C15.6108 1.33509 4.85022 5.3725 0.451988 6.99996C0.172828 7.10329 -0.00883492 7.37162 0.000331537 7.66578C0.0103313 7.96078 0.20866 8.2166 0.494487 8.30243C2.46694 8.89242 5.05605 9.71324 5.05605 9.71324C5.05605 9.71324 6.26602 13.3673 6.89684 15.2256C6.97601 15.4589 7.1585 15.6423 7.39933 15.7056C7.63932 15.7681 7.89599 15.7023 8.07515 15.5331C9.08846 14.5765 10.6551 13.0973 10.6551 13.0973C10.6551 13.0973 13.6317 15.2798 15.32 16.4823ZM6.14519 9.25158L7.54433 13.8665L7.85515 10.944C7.85515 10.944 13.2609 6.06832 16.3425 3.28922C16.4325 3.20755 16.445 3.07089 16.37 2.97506C16.2958 2.87923 16.1591 2.85673 16.0566 2.92172C12.485 5.20251 6.14519 9.25158 6.14519 9.25158Z"/>
  </symbol>
  <symbol id="facebook" viewBox="0 0 39 39">
    <path fill-rule="evenodd" clip-rule="evenodd" d="M0.140015 19.037C0.140015 8.52303 8.64938 0 19.1465 0C29.6436 0 38.153 8.52303 38.153 19.037C38.153 29.551 29.6436 38.074 19.1465 38.074C8.64938 38.074 0.140015 29.551 0.140015 19.037ZM20.7937 13.1559H23.6506L23.6506 10.0208H20.7937C18.4297 10.0208 16.7073 12.0415 16.7073 14.5282V16.2613H13.6484L13.6484 19.2081H16.7073V28.0544H20.079V19.2081H23.1121L23.6526 16.2613H20.079V14.195C20.079 13.6021 20.4551 13.1559 20.7937 13.1559Z"/>
  </symbol>
  <symbol id="instagram" viewBox="0 0 39 39">
    <path d="M19.8101 22.6446C21.8193 22.6446 23.448 21.0158 23.448 19.0066C23.448 16.9974 21.8193 15.3687 19.8101 15.3687C17.8009 15.3687 16.1721 16.9974 16.1721 19.0066C16.1721 21.0158 17.8009 22.6446 19.8101 22.6446Z"/>
    <path d="M28.3156 12.5696C28.1374 12.0944 27.8627 11.6638 27.4989 11.3149C27.15 10.9511 26.7194 10.6764 26.2442 10.4982C25.8581 10.3497 25.279 10.1715 24.2173 10.1196C23.0666 10.0676 22.7176 10.0527 19.8072 10.0527C16.8894 10.0527 16.5479 10.0602 15.3971 10.1196C14.3354 10.1715 13.7563 10.3497 13.3703 10.4982C12.8951 10.6764 12.4645 10.9511 12.1155 11.3149C11.7517 11.6638 11.477 12.0944 11.2989 12.5696C11.1504 12.9557 10.9722 13.5348 10.9202 14.5965C10.8682 15.7473 10.8534 16.0888 10.8534 19.0066C10.8534 21.9169 10.8682 22.2659 10.9202 23.4167C10.9722 24.4784 11.1429 25.0575 11.2989 25.4435C11.477 25.9187 11.7517 26.3493 12.1155 26.6983C12.4645 27.0621 12.8951 27.3368 13.3703 27.515C13.7563 27.6634 14.3354 27.8416 15.3971 27.8936C16.5479 27.9456 16.8894 27.9604 19.8072 27.9604C22.725 27.9604 23.0666 27.953 24.2173 27.8936C25.279 27.8416 25.8581 27.6709 26.2442 27.515C27.1945 27.1512 27.9518 26.3939 28.3156 25.4435C28.4641 25.0575 28.6423 24.4784 28.6943 23.4167C28.7462 22.2659 28.7611 21.9169 28.7611 19.0066C28.7611 16.0888 28.7537 15.7473 28.6943 14.5965C28.6423 13.5348 28.4641 12.9557 28.3156 12.5696ZM19.8072 24.612C16.7113 24.612 14.2018 22.1026 14.2018 19.0066C14.2018 15.9106 16.7113 13.4011 19.8072 13.4011C22.9032 13.4011 25.4127 15.9106 25.4127 19.0066C25.4127 22.1026 22.9032 24.612 19.8072 24.612ZM25.6354 14.4925C24.9152 14.4925 24.3287 13.906 24.3287 13.1858C24.3287 12.4657 24.9152 11.8791 25.6354 11.8791C26.3556 11.8791 26.9421 12.4657 26.9421 13.1858C26.9421 13.906 26.3556 14.4925 25.6354 14.4925Z"/>
    <path d="M19.808 0C9.30989 0 0.801514 8.50838 0.801514 19.0065C0.801514 29.5046 9.30989 38.013 19.808 38.013C30.3061 38.013 38.8145 29.5046 38.8145 19.0065C38.8145 8.50838 30.3061 0 19.808 0ZM30.6551 23.5057C30.6031 24.6639 30.4175 25.4583 30.1502 26.1562C29.586 27.6188 28.4278 28.7844 26.9577 29.3487C26.2672 29.616 25.4728 29.8016 24.3072 29.8536C23.1416 29.9055 22.7704 29.9204 19.808 29.9204C16.8457 29.9204 16.4744 29.9055 15.3088 29.8536C14.1506 29.8016 13.3562 29.616 12.6583 29.3487C11.9307 29.074 11.2699 28.6434 10.728 28.0866C10.1711 27.5446 9.74051 26.8838 9.4658 26.1562C9.19852 25.4657 9.01291 24.6713 8.96094 23.5057C8.90897 22.3401 8.89412 21.9688 8.89412 19.0065C8.89412 16.0442 8.90897 15.6729 8.96094 14.5073C9.01291 13.3491 9.19852 12.5547 9.4658 11.8568C9.74051 11.1292 10.1711 10.4684 10.728 9.92644C11.2699 9.36961 11.9307 8.93899 12.6583 8.66429C13.3562 8.39701 14.1432 8.2114 15.3088 8.15943C16.4744 8.10746 16.8457 8.09261 19.808 8.09261C22.7704 8.09261 23.1416 8.10746 24.3072 8.15943C25.4654 8.2114 26.2598 8.39701 26.9577 8.66429C27.6853 8.93899 28.3461 9.36961 28.8881 9.92644C29.4449 10.4684 29.8755 11.1292 30.1502 11.8568C30.4175 12.5547 30.6031 13.3417 30.6551 14.5073C30.707 15.6729 30.7219 16.0442 30.7219 19.0065C30.7219 21.9688 30.707 22.3401 30.6551 23.5057Z"/>
  </symbol>
  <symbol id="linkedin-new" viewBox="0 0 39 39">
    <path fill-rule="evenodd" clip-rule="evenodd" d="M0.478516 19.0065C0.478516 8.50937 8.98788 0 19.485 0C29.9821 0 38.4915 8.50937 38.4915 19.0065C38.4915 29.5036 29.9821 38.013 19.485 38.013C8.98788 38.013 0.478516 29.5036 0.478516 19.0065ZM10.9821 26.8838H14.831V14.4979H10.9821V26.8838ZM12.8843 12.9772C11.6687 12.9772 10.8827 12.116 10.8827 11.0508C10.8827 9.96387 11.6925 9.12837 12.9338 9.12837C14.1752 9.12837 14.9354 9.96387 14.9592 11.0508C14.9592 12.116 14.1752 12.9772 12.8843 12.9772ZM25.0421 26.8849H28.8909V19.5614C28.8909 15.9146 26.9922 14.2178 24.46 14.2178C22.3831 14.2178 21.1418 15.4097 20.6349 16.2175H20.5577L20.3815 14.497H17.0376C17.089 15.6097 17.1385 16.9025 17.1385 18.4488V26.8829H20.9893V19.7416C20.9893 19.3872 21.0151 19.0308 21.118 18.7794C21.3972 18.0726 22.0287 17.3381 23.0919 17.3381C24.4837 17.3381 25.0421 18.423 25.0421 20.0208V26.8849Z"/>
  </symbol>
  <symbol id="linkedin" viewBox="0 0 20 20">
    <path d="M15.8333 0H4.16667C1.86583 0 0 1.86583 0 4.16667V15.8333C0 18.1342 1.86583 20 4.16667 20H15.8333C18.135 20 20 18.1342 20 15.8333V4.16667C20 1.86583 18.135 0 15.8333 0ZM6.66667 15.8333H4.16667V6.66667H6.66667V15.8333ZM5.41667 5.61C4.61167 5.61 3.95833 4.95167 3.95833 4.14C3.95833 3.32833 4.61167 2.67 5.41667 2.67C6.22167 2.67 6.875 3.32833 6.875 4.14C6.875 4.95167 6.2225 5.61 5.41667 5.61ZM16.6667 15.8333H14.1667V11.1633C14.1667 8.35667 10.8333 8.56917 10.8333 11.1633V15.8333H8.33333V6.66667H10.8333V8.1375C11.9967 5.9825 16.6667 5.82333 16.6667 10.2008V15.8333Z"/>
  </symbol>
  <symbol id="youtube" viewBox="0 0 39 39">
    <path fill-rule="evenodd" clip-rule="evenodd" d="M19.4716 0C8.97445 0 0.465088 8.52303 0.465088 19.037C0.465088 29.551 8.97445 38.074 19.4716 38.074C29.9687 38.074 38.4781 29.551 38.4781 19.037C38.4781 8.52303 29.9687 0 19.4716 0ZM22.6466 18.7044L18.1999 16.6262C17.8119 16.4457 17.4931 16.648 17.4931 17.0783V20.9928C17.4931 21.4231 17.8119 21.6254 18.1999 21.4449L22.6447 19.3667C23.0347 19.1843 23.0347 18.8868 22.6466 18.7044ZM9.57075 19.0386C9.57075 25.8939 9.74102 26.7724 19.47 26.7724C29.1989 26.7724 29.3692 25.8939 29.3692 19.0386C29.3692 12.1833 29.1989 11.3048 19.47 11.3048C9.74102 11.3048 9.57075 12.1833 9.57075 19.0386Z"/>
  </symbol>
  <symbol id="rex" viewBox="0 0 866 611">
    <path d="M0 611H207.733V407.288V203.576L0 407.288V611Z" fill="white" fill-opacity="0.2"/>
    <path d="M865.73 0H415.598L207.866 203.58H398.265H415.598H657.998V407.291L865.73 203.58V0Z" fill="white" fill-opacity="0.2"/>
    <path d="M268.469 407.293L476.201 610.872H658.001H865.733L658.001 407.293H484.801H268.469Z" fill="white" fill-opacity="0.2"/>
    <path d="M331.083 262.18H268.064V323.938H331.083V262.18Z" fill="white" fill-opacity="0.2"/>
  </symbol>
  <symbol id="bag" viewBox="0 0 35 43">
    <path d="M26.8991 14.3678V9.19952C26.8991 3.61779 23.0564 0 17.4481 0C11.8398 0 8.10089 3.61779 8.10089 9.19952V14.3678H0L3.11573 43H31.8843L35 14.3678H26.8991ZM17.5519 3.20433C20.8754 3.20433 23.5757 5.89183 23.5757 9.19952V14.3678H15.3709V22.637H11.632V9.19952C11.5282 5.89183 14.2285 3.20433 17.5519 3.20433Z" fill="#FFDB3B"/>
	</symbol>
  <symbol id="finance" viewBox="0 0 34 39">
    <path d="M22.4073 35.2068H11.5935V38.811H22.4073V35.2068Z" fill="#FFDB3B"/>
    <path d="M16.9513 0C7.59885 0 0 7.39808 0 16.5034C0 22.5736 3.40974 27.9799 8.47564 30.8253V35.6625H25.5244V30.8253C30.5903 27.9799 34 22.6685 34 16.5034C34 7.39808 26.4011 0 16.9513 0ZM15.1977 15.2704H18.8023C21.7249 15.2704 24.1605 17.6416 24.1605 20.487C24.1605 23.3324 21.7249 25.7036 18.8023 25.7036V28.4542H15.1977V25.7036C12.2751 25.7036 9.83954 23.3324 9.83954 20.487H13.4441C13.4441 21.4355 14.2235 22.1942 15.1977 22.1942H18.8023C19.7765 22.1942 20.5559 21.4355 20.5559 20.487C20.5559 19.5385 19.7765 18.7797 18.8023 18.7797H15.1977C12.2751 18.7797 9.83954 16.4086 9.83954 13.5632C9.83954 10.7177 12.2751 8.34655 15.1977 8.34655V5.59599H18.8023V8.34655C21.7249 8.34655 24.1605 10.7177 24.1605 13.5632H20.5559C20.5559 12.6147 19.7765 11.8559 18.8023 11.8559H15.1977C14.2235 11.8559 13.4441 12.6147 13.4441 13.5632C13.4441 14.5116 14.2235 15.2704 15.1977 15.2704Z" fill="#FFDB3B"/>
	</symbol>
  <symbol id="heart" viewBox="0 0 38 32">
    <path d="M32.3189 0H24.4507L18.9514 5.5288L13.3675 0H5.58389L0 5.5288V13.2356L18.9514 32L37.8182 13.2356V5.5288L32.3189 0Z" fill="#FFDB3B"/>
	</symbol>
  <symbol id="home" viewBox="0 0 44 36">
    <path d="M22 0L0 19.924H5.88372V36H16.6279V21.2066H26.8605V24.114H19.6124V36H38.1163V19.924H44L22 0Z"/>
	</symbol>
  <symbol id="media" viewBox="0 0 36 44">
    <path d="M19.2891 12.9914L29.8886 2.37069L27.5968 0L18.0477 9.48276L8.40318 0L6.11141 2.37069L16.9019 12.9914H0V44H36V12.9914H19.2891ZM20.5305 33.2845L15.374 28.1638L8.40318 35.0862L6.2069 32.9052L15.4695 23.7069L20.626 28.8276L27.6923 21.8103L29.8886 23.9914L20.5305 33.2845Z" fill="#FFDB3B"/>
	</symbol>
  <symbol id="truk" viewBox="0 0 47 29">
    <path d="M42.8848 4.95477L34.9432 5.02764V15.9573H32.1997V0H5.92012V3.49749H10.6851V5.97487H5.92012H0V8.45226H5.92012V10.6382H16.3886V13.1156H5.92012H0V15.593H5.92012V24.1181H10.3963C10.7573 26.8869 13.0676 29 15.8111 29C18.6267 29 20.937 26.8869 21.2258 24.1181H30.3226C30.6836 26.8869 32.9939 29 35.7373 29C38.4808 29 40.8633 26.8869 41.1521 24.1181H47V15.9573L42.8848 4.95477ZM15.8111 26.5955C14.1505 26.5955 12.7788 25.2111 12.7788 23.5352C12.7788 21.8593 14.1505 20.4749 15.8111 20.4749C17.4716 20.4749 18.8433 21.8593 18.8433 23.5352C18.8433 25.2111 17.4716 26.5955 15.8111 26.5955ZM35.7373 26.5955C34.0768 26.5955 32.7051 25.2111 32.7051 23.5352C32.7051 21.8593 34.0768 20.4749 35.7373 20.4749C37.3979 20.4749 38.7696 21.8593 38.7696 23.5352C38.7696 25.2111 37.3979 26.5955 35.7373 26.5955Z" fill="#FFDB3B"/>
	</symbol>
  <symbol id="AI" viewBox="0 0 44 43">
    <path d="M18.3521 2.93519V7.39579L21.1119 8.98949V34.7149L18.3521 36.3086V40.7691L22.2152 43L26.0784 40.7691V36.3086L23.3185 34.7149V8.98949L26.0784 7.39579V2.93519L22.2152 0.704346L18.3521 2.93519Z" fill="#FFDB3B"/>
    <path d="M12.3729 12.1086L15.1333 10.5149V6.05427L11.2696 3.82397L7.40641 6.05427V10.5149L10.1663 12.1086V16.4903H14.9126V20.6679H9.02328V20.7765L7.39042 17.9483H2.92982L0.698975 21.8114L2.92982 25.6751H7.39042L9.02328 22.8469V22.8745H14.9126V27.2148H10.1663V31.5959L7.40641 33.1896V37.6502L11.2696 39.8805L15.1333 37.6502V33.1896L12.3729 31.5959V29.4214H17.1192V14.2837H12.3729V12.1086Z" fill="#FFDB3B"/>
    <path d="M41.5037 17.9483H37.0425L35.4096 20.7765V20.749H29.5203V16.4903H34.2666V12.1086L37.0265 10.5149V6.05427L33.1634 3.82397L29.2996 6.05427V10.5149L32.0601 12.1086V14.2837H27.3137V29.4214H32.0601V31.5959L29.2996 33.1896V37.6502L33.1634 39.8805L37.0265 37.6502V33.1896L34.2666 31.5959V27.2148H29.5203V22.9555H35.4096V22.8469L37.0425 25.6751H41.5037L43.734 21.8114L41.5037 17.9483Z" fill="#FFDB3B"/>
  </symbol>
  <symbol id="bigdata" viewBox="0 0 35 40">
    <path d="M11.5455 16.6656V9.99986L5.77276 6.66675L0 9.99986V16.6656L5.77276 19.9987L11.5455 16.6656Z" fill="#FFDB3B"/>
    <path d="M0 23.3343V30.0001L5.77276 33.3326L11.5455 30.0001V23.3343L5.77276 20.0012L0 23.3343Z" fill="#FFDB3B"/>
    <path d="M28.8638 6.66675L23.0911 9.99986V16.6656L28.8638 19.9987L34.6366 16.6656V9.99986L28.8638 6.66675Z" fill="#FFDB3B"/>
    <path d="M23.0911 23.3343V30.0001L28.8638 33.3326L34.6366 30.0001V23.3343L28.8638 20.0012L23.0911 23.3343Z" fill="#FFDB3B"/>
    <path d="M23.0909 23.3328V16.6671L17.3182 13.334L11.5454 16.6671V23.3328L17.3182 26.6659L23.0909 23.3328Z" fill="#FFDB3B"/>
    <path d="M23.0909 9.99831V3.3326L17.3182 0L11.5454 3.3326V9.99831L17.3182 13.3314L23.0909 9.99831Z" fill="#FFDB3B"/>
    <path d="M11.5454 30.0011V36.6673L17.3182 39.9999L23.0909 36.6673V30.0011L17.3182 26.6685L11.5454 30.0011Z" fill="#FFDB3B"/>
  </symbol>
  <symbol id="catalog" viewBox="0 0 42 36">
    <path d="M13.2751 15.7234H2.62929C1.18038 15.7234 0 14.5615 0 13.1231V2.60028C0 1.16183 1.17479 0 2.62929 0H13.2751C14.724 0 15.9044 1.16183 15.9044 2.60028V13.1286C15.8988 14.5615 14.724 15.7234 13.2751 15.7234ZM15.8988 33.3997V22.8714C15.8988 21.4384 14.724 20.2711 13.2695 20.2711H2.62929C1.18038 20.2711 0 21.4329 0 22.8714V33.3997C0 34.8326 1.17479 36 2.62929 36H13.2751C14.724 35.9945 15.8988 34.8326 15.8988 33.3997ZM42 3.1148H19.9546V6.69433H42V3.1148ZM33.894 9.02905H19.9546V12.6086H33.894V9.02905ZM42 23.3859H19.9546V26.9654H42V23.3859ZM33.894 29.3001H19.9546V32.8797H33.894V29.3001Z" fill="#FFDB3B"/>
  </symbol>
  <symbol id="chatbots" viewBox="0 0 37 36">
    <path d="M26.8876 9.17822C28.7017 9.17822 30.1694 10.6536 30.1694 12.4771C30.1694 14.3006 28.7017 15.7759 26.8876 15.7759C25.0735 15.7759 23.6057 14.3006 23.6057 12.4771C23.6057 10.6536 25.0735 9.17822 26.8876 9.17822Z" fill="#FFDB3B"/>
    <path d="M8.7562 15.6585C7.00439 15.1908 5.96146 13.3842 6.42673 11.6234C6.89201 9.8625 8.68931 8.81417 10.4411 9.28185C12.1929 9.74953 13.2359 11.5561 12.7706 13.317C12.3053 15.0779 10.508 16.1262 8.7562 15.6585Z" fill="#FFDB3B"/>
    <path d="M3.68328 0H32.8023L36.48 3.6967V25.783L32.8023 29.4797H23.6768L18.24 36L12.8032 29.4797H3.67778L0.000110626 25.783V3.6967C0.0056076 3.6967 3.68328 0 3.68328 0ZM18.24 23.755C20.2246 23.755 22.2091 22.998 23.7153 21.4784L21.8847 19.6384C20.9117 20.6164 19.6144 21.1579 18.2345 21.1579C16.8547 21.1579 15.5629 20.6164 14.5844 19.6384L12.7538 21.4784C14.2765 22.998 16.261 23.755 18.24 23.755ZM3.81521 12.4715C3.81521 15.4665 6.2505 17.9144 9.23002 17.9144H27.2556C30.2351 17.9144 32.6704 15.4665 32.6704 12.4715C32.6704 9.47659 30.2351 7.0287 27.2556 7.0287H9.23002C6.2505 7.0287 3.81521 9.47659 3.81521 12.4715Z" fill="#FFDB3B"/>
  </symbol>
  <symbol id="cloud" viewBox="0 0 39 41">
    <path d="M33.8057 29.9993C33.8061 29.8438 33.7757 29.6898 33.7162 29.5461C33.6567 29.4025 33.5693 29.2719 33.459 29.162C33.3487 29.0521 33.2177 28.965 33.0735 28.9057C32.9292 28.8464 32.7747 28.8161 32.6187 28.8166H20.687V24.6045H31.6488C35.6986 24.6045 39 21.3149 39 17.2797C39 13.2445 35.6986 9.95827 31.6488 9.95827C31.2053 9.95652 30.7628 10.0005 30.3284 10.0895C29.9763 4.4289 25.2652 0 19.5441 0C14.4379 0 10.1683 3.55315 9.02369 8.28955C8.75974 8.28955 8.5393 8.24562 8.27535 8.24562C3.69765 8.24449 0 11.9289 0 16.4451C0 20.9613 3.69765 24.6467 8.23126 24.6467H18.313V28.8571H6.33835C6.18235 28.8567 6.0278 28.887 5.88359 28.9462C5.73938 29.0055 5.60835 29.0926 5.49804 29.2025C5.38774 29.3124 5.30032 29.443 5.24083 29.5867C5.18134 29.7304 5.15094 29.8844 5.15139 30.0398V34.636H2.05739L6.3033 41L10.5498 34.636H7.44109V31.2276H18.2673V34.636H15.1512L19.3977 41L23.6436 34.636H20.5564V31.2276H31.3848V34.636H28.3892L32.6357 41L36.8821 34.636H33.8057V29.9993Z" fill="#FFDB3B"/>
  </symbol>
  <symbol id="education" viewBox="0 0 37 33">
    <path d="M18.5 4.42063C13.3916 -1.47297 5.10842 -1.47297 0 4.42063V33C5.10842 27.1064 13.3916 27.1064 18.5 33C23.6084 27.1064 31.8916 27.1064 37 33V4.42063C31.8916 -1.47354 23.6084 -1.47354 18.5 4.42063Z" fill="#FFDB3B"/>
  </symbol>
  <symbol id="enterprise" viewBox="0 0 35 40">
    <path d="M27.087 0V11.9785L14.7196 18.409V10.7533L0 18.409V40H34.5456V0H27.087ZM14.3283 33.9423H5.88783V26.4293H14.3254L14.3283 33.9423ZM28.6572 33.9423H20.2202V26.4293H28.6578L28.6572 33.9423Z" fill="#FFDB3B"/>
  </symbol>
  <symbol id="entertainmentsvg" viewBox="0 0 36 36">
    <path d="M0 0V36H36V0H0ZM7.51706 32.8404H2.94826V28.2716H7.51706V32.8404ZM7.51706 24.469H2.94826V19.9002H7.51706V24.469ZM7.51706 16.0976H2.94826V11.5288H7.51706V16.0976ZM7.51706 7.72569H2.94826V3.15688H7.51706V7.72569ZM12.0694 26.2668V9.73321L25.7686 18L12.0694 26.2668ZM33.0495 32.8404H28.4807V28.2716H33.0495V32.8404ZM33.0495 24.469H28.4807V19.9002H33.0495V24.469ZM33.0495 16.0976H28.4807V11.5288H33.0495V16.0976ZM33.0495 7.72569H28.4807V3.15688H33.0495V7.72569Z" fill="#FFDB3B"/>
  </symbol>
  <symbol id="iba" viewBox="0 0 42 36">
    <path d="M31.4987 0H10.5013L0 18L10.5013 36H31.4987L42 18L31.4987 0ZM11.4696 26.8597H8.34543V22.1571H11.4643V26.8597H11.4696ZM18.2744 26.8597H15.1555V13.594H18.2744V26.8597ZM25.0791 26.8597H21.9603V17.4545H25.0791V26.8597ZM28.765 26.8597V7.31333H31.8838V26.8597H28.765Z" fill="#FFDB3B"/>
  </symbol>
  <symbol id="iot" viewBox="0 0 38 43">
    <path d="M38 15.9379V10.5821L33.3431 7.90421L29.9082 9.87914L23.6569 6.26843V2.6779L19 0L14.3431 2.6779V6.26843L8.0918 9.87914L4.65685 7.90421L0 10.5821V15.9379L4.65685 18.6158L8.05916 16.6594L12.761 19.3513V25.0872L19 28.6749L25.239 25.0872V17.9123L19 14.3251L13.9869 17.2076L9.3137 14.5325V12.025L15.2853 8.57578L19 10.7116L22.7147 8.57578L28.6863 12.025V15.9379L32.1049 17.9039V25.0121L28.6863 26.978V30.9727L22.7141 34.4237L19 32.2878L15.2859 34.4237L9.3137 30.9727V26.978L4.65685 24.3001L0 26.978V32.3338L4.65685 35.0117L8.02088 33.0771L14.3431 36.7305V40.3215L19 43L23.6569 40.3215V36.7305L29.9791 33.0771L33.3431 35.0117L38 32.3338V26.978L34.5814 25.0121V17.9039L38 15.9379Z" fill="#FFDB3B"/>
  </symbol>
  <symbol id="pca" viewBox="0 0 34 37">
    <path d="M4.99659 27.3167H0V36.8742H4.99659V27.3167Z" fill="#FFDB3B"/>
    <path d="M14.6204 19.1545H9.62378V36.8798H14.6204V19.1545Z" fill="#FFDB3B"/>
    <path d="M24.3098 23.2795H19.3132V36.874H24.3098V23.2795Z" fill="#FFDB3B"/>
    <path d="M33.9944 15.1616H28.9978V36.8742H33.9944V15.1616Z" fill="#FFDB3B"/>
    <path d="M34 0.293213L20.2511 12.5806L12.9713 4.30262L0 16.1875V22.3477L12.497 10.8875L19.7272 19.1104L34 6.37075V0.293213Z" fill="#FFDB3B"/>
  </symbol>
  <symbol id="product_recomendations" viewBox="0 0 33 48">
    <path d="M18.6177 39.5031L21.2032 47.7063L24.9776 43.6773L30.4775 45.3314L27.2283 34.6863L18.6177 39.5031Z" fill="#FFDB3B"/>
    <path d="M2.52222 45.3314L8.01645 43.6773L11.7908 47.7063L14.3821 39.5031L5.76566 34.6863L2.52222 45.3314Z" fill="#FFDB3B"/>
    <path d="M16.5 0.571777L0 9.79195V28.2379L16.5 37.458L33 28.2379V9.79195L16.5 0.571777ZM16.3846 26.405H14.1453L6.81007 19.7777L9.1936 17.3078L15.063 22.6108L23.893 12.0215L26.6112 14.145L16.3846 26.405Z" fill="#FFDB3B"/>
  </symbol>
  <symbol id="smart_pricing" viewBox="0 0 42 36">
    <path d="M31.4987 0H10.5013L0 18L10.5013 36H31.4987L42 18L31.4987 0ZM8.66641 10.2048L11.4108 5.50221H16.8942L19.6385 10.2048L16.8942 14.9073H11.4108L8.66641 10.2048ZM11.9992 30.5031L26.5823 5.49691H30.0061L15.4177 30.5031H11.9992ZM30.5892 30.5031H25.1058L22.3615 25.8005L25.1058 21.098H30.5892L33.3336 25.8005L30.5892 30.5031Z" fill="#FFDB3B"/>
  </symbol>
  <symbol id="social" viewBox="0 0 38 37">
    <path d="M34.1702 0H3.82978C3.82978 0 0 3.80054 0 3.79827V26.4992C0 26.4992 3.83207 30.2975 3.82978 30.2975H13.3369L19 37L24.6631 30.2975H34.1702C34.1702 30.2975 38 26.4975 38 26.4992V3.79827C38 3.79827 34.1679 0 34.1702 0ZM19 5.1808C19.9581 5.1808 20.8946 5.46256 21.6912 5.99045C22.4878 6.51834 23.1087 7.26866 23.4753 8.14651C23.842 9.02437 23.9379 9.99033 23.751 10.9223C23.5641 11.8542 23.1027 12.7102 22.4253 13.3821C21.7478 14.054 20.8847 14.5115 19.945 14.6969C19.0054 14.8823 18.0314 14.7871 17.1463 14.4235C16.2611 14.0599 15.5046 13.4441 14.9723 12.6541C14.44 11.864 14.1559 10.9352 14.1559 9.985C14.1559 8.71085 14.6663 7.48888 15.5747 6.58792C16.4832 5.68695 17.7153 5.1808 19 5.1808ZM28.2105 24.5214H9.78951V20.0546C9.79208 19.1504 10.1553 18.284 10.8 17.6446C11.4446 17.0052 12.3181 16.6447 13.2298 16.642H24.7702C25.6819 16.6447 26.5554 17.0052 27.2 17.6446C27.8447 18.284 28.2079 19.1504 28.2105 20.0546V24.5214Z" fill="#FFDB3B"/>
  </symbol>
  <symbol id="voice_shopping" viewBox="0 0 36 43">
    <path d="M27.6633 14.7885V9.4668C27.6633 3.72411 23.716 0 17.9461 0C12.1762 0 8.33134 3.72411 8.33134 9.4722V14.7885H0L3.20312 42.9946H32.7915L36 14.7885H27.6633ZM9.76573 31.2178H7.16657V26.4628H9.76573V31.2178ZM14.592 38.0075H11.9928V19.6676H14.592V38.0075ZM19.4182 34.4777H16.8191V23.2028H19.4182V34.4777ZM24.2445 38.0075H21.6453V19.6676H24.2445V38.0075ZM24.2499 14.7885H11.9658V9.4668C11.858 6.06113 14.6351 3.29773 18.0539 3.29773C21.4727 3.29773 24.2499 6.06652 24.2499 9.4668V14.7885ZM29.0707 31.2178H26.4715V26.4628H29.0707V31.2178Z" fill="#FFDB3B"/>
  </symbol>
  <symbol id="VR" viewBox="0 0 39 39">
    <path d="M32.9493 12.7873L19.7524 5.16699L6.55542 12.7873V28.0289L19.7524 35.6492L32.9493 28.0289V12.7873ZM8.754 26.7569V14.0593L19.7502 20.4081V33.1056L8.754 26.7569Z" fill="#FFDB3B"/>
    <path d="M0 0V8.61854L8.61854 0H0Z" fill="#FFDB3B"/>
    <path d="M30.3809 0L38.9999 8.61854V0H30.3809Z" fill="#FFDB3B"/>
    <path d="M38.9999 38.9999V30.3809L30.3809 38.9999H38.9999Z" fill="#FFDB3B"/>
    <path d="M0 38.9999H8.61854L0 30.3809V38.9999Z" fill="#FFDB3B"/>
  </symbol>
  <symbol id="VR_2" viewBox="0 0 37 38">
    <path d="M34.0167 29.3307L26.3021 26.7595C24.291 28.8887 21.4595 30.2449 18.4685 30.2449C15.4774 30.2449 12.6465 28.8893 10.6353 26.76L2.92075 29.3312C1.31562 29.8676 0 31.6925 0 33.3833V38H36.9369V33.3833C36.9369 31.6909 35.6234 29.8676 34.0167 29.3307Z" fill="#FFDB3B"/>
    <path d="M9.23442 18.8946H27.7029C28.519 18.8924 29.3012 18.5672 29.8783 17.9901C30.4554 17.413 30.7806 16.6309 30.7828 15.8147V11.1995C30.7807 10.3833 30.4556 9.6011 29.8784 9.02395C29.3013 8.4468 28.5191 8.12166 27.7029 8.11963H9.23442C8.41825 8.1218 7.63613 8.44698 7.05901 9.0241C6.48189 9.60122 6.15671 10.3833 6.15454 11.1995V15.8167C6.15725 16.6326 6.48267 17.4142 7.05973 17.9908C7.63679 18.5675 8.4186 18.8924 9.23442 18.8946ZM9.23442 11.1995H12.3143V14.2794H9.23442V11.1995Z" fill="#FFDB3B"/>
    <path d="M18.4685 26.9187C21.6726 26.9187 24.7258 24.6088 25.7673 21.5925H11.1687C12.2118 24.6077 15.2644 26.9187 18.4685 26.9187Z" fill="#FFDB3B"/>
    <path d="M18.4684 0C14.4538 0 11.3051 2.17747 9.95459 5.38978H26.9822C25.6332 2.17747 22.4799 0 18.4684 0Z" fill="#FFDB3B"/>
  </symbol>
  <symbol id="wellness" viewBox="0 0 41 40">
    <path d="M20.2807 33.5893C26.2942 33.5893 31.1691 32.3877 31.1691 30.9056C31.1691 29.4234 26.2942 28.2219 20.2807 28.2219C14.2672 28.2219 9.39233 29.4234 9.39233 30.9056C9.39233 32.3877 14.2672 33.5893 20.2807 33.5893Z" fill="#FFDB3B"/>
    <path d="M20.2806 26.1069C26.2178 26.1069 31.0306 21.294 31.0306 15.3568C31.0306 7.67926 20.2806 0 20.2806 0C20.2806 0 9.53052 7.67926 9.53052 15.3568C9.53052 21.294 14.3434 26.1069 20.2806 26.1069Z" fill="#FFDB3B"/>
    <path d="M34.2125 24.2031C33.2832 23.824 32.3328 23.4988 31.366 23.229C30.9238 23.8495 30.4308 24.4322 29.8921 24.9711C29.7686 25.0946 29.6422 25.2147 29.5147 25.3326C30.7921 25.6308 32.0446 26.0276 33.2607 26.5195C36.2648 27.7572 38.0587 29.3968 38.0587 30.9031C38.0587 32.4095 36.2626 34.0542 33.2607 35.2901C29.8124 36.7134 25.2034 37.4939 20.2807 37.4939C15.3579 37.4939 10.7489 36.7134 7.30067 35.2901C4.29649 34.0525 2.50263 32.4123 2.50263 30.9066C2.50263 29.4008 4.29649 27.7583 7.30067 26.523C8.51511 26.0313 9.7658 25.6345 11.0415 25.336C10.914 25.2181 10.7876 25.098 10.6641 24.9745C10.1254 24.4356 9.63235 23.8529 9.19017 23.2324C8.22343 23.5022 7.27303 23.8274 6.34369 24.2065C2.25442 25.8905 0 28.2707 0 30.9066C0 33.5424 2.25442 35.9221 6.34881 37.6089C10.0902 39.1506 15.038 39.9999 20.2807 39.9999C25.5233 39.9999 30.4711 39.1506 34.2125 37.6089C38.3069 35.9209 40.5613 33.5407 40.5613 30.9066C40.5613 28.2724 38.3069 25.8905 34.2125 24.2031Z" fill="#FFDB3B"/>
  </symbol>
  <symbol id="Computer-Vision" viewBox="0 0 39 39">
    <path d="M19.5 8.61921C12.2826 8.61921 5.90312 12.9179 2.03159 19.5C5.90312 26.0821 12.2826 30.3808 19.5 30.3808C26.7174 30.3808 33.0969 26.0821 36.9684 19.5C33.0969 12.9179 26.7174 8.61921 19.5 8.61921ZM19.5 27.829C14.9002 27.829 11.171 24.0998 11.171 19.5C11.171 14.9002 14.9002 11.171 19.5 11.171C24.0998 11.171 27.829 14.9002 27.829 19.5C27.829 24.0998 24.0998 27.829 19.5 27.829ZM19.5 14.2266C16.5868 14.2266 14.2266 16.5868 14.2266 19.5C14.2266 22.4132 16.5868 24.7734 19.5 24.7734C22.4132 24.7734 24.7734 22.4132 24.7734 19.5C24.7734 16.5868 22.4132 14.2266 19.5 14.2266ZM21.1045 19.0619C20.2174 19.0619 19.5 18.3446 19.5 17.4575C19.5 16.5703 20.2174 15.853 21.1045 15.853C21.9916 15.853 22.7089 16.5703 22.7089 17.4575C22.7089 18.3446 21.9861 19.0619 21.1045 19.0619ZM0 0V8.61921L8.61921 0H0ZM30.3808 0L39 8.61921V0H30.3808ZM39 39V30.3808L30.3808 39H39ZM0 39H8.61921L0 30.3808V39Z"/>
  </symbol>
  <symbol id="NLP" viewBox="0 0 39 38">
    <path d="M35.0624 0H3.93174L0 3.90207V27.2153L3.93174 31.1174H13.6876L19.5 38L25.3124 31.1174H35.0683L39 27.2153V3.90207C38.9941 3.90207 35.0624 0 35.0624 0ZM32.1591 17.6847C32.1591 20.0703 30.2021 22.0126 27.7984 22.0126C25.3947 22.0126 23.4376 20.0703 23.4376 17.6847V9.81059C23.4376 9.06401 22.8264 8.45741 22.0741 8.45741C21.3219 8.45741 20.7107 9.06401 20.7107 9.81059V21.7093C20.7107 24.0949 18.7536 26.0371 16.3499 26.0371C13.9462 26.0371 11.9892 24.0949 11.9892 21.7093V14.9725C11.9892 14.2259 11.3779 13.6193 10.6257 13.6193C9.87342 13.6193 9.26221 14.2259 9.26221 14.9725V19.6678H6.26492V14.9725C6.26492 12.587 8.22197 10.6447 10.6257 10.6447C13.0294 10.6447 14.9864 12.587 14.9864 14.9725V21.7093C14.9864 22.4559 15.5977 23.0625 16.3499 23.0625C17.1022 23.0625 17.7134 22.4559 17.7134 21.7093V9.81059C17.7134 7.42502 19.6704 5.48273 22.0741 5.48273C24.4778 5.48273 26.4349 7.42502 26.4349 9.81059V17.6847C26.4349 18.4313 27.0461 19.0379 27.7984 19.0379C28.5506 19.0379 29.1618 18.4313 29.1618 17.6847V12.9777H32.1591V17.6847Z" />
  </symbol>
  <symbol id="ML" viewBox="0 0 39 45">
    <path d="M38.9885 16.3469V11.2486L34.567 8.69651L31.4852 10.4726L23.9129 6.10423V2.55205L19.4914 0L15.0699 2.55205V7.6504L18.1517 9.42649V18.169L16.4096 19.1749L8.83149 14.8007V11.2428L4.41 8.69076L0 11.2486V16.3469L3.08182 18.123V26.877L0 28.6531V33.7514L4.4215 36.3035L7.50332 34.5274L15.0756 38.8958V42.4479L19.4971 45L23.9186 42.4479V37.3496L20.8368 35.5735V26.831L22.5789 25.8251L30.157 30.1993V33.7572L34.5785 36.3092L39 33.7572V28.6588L35.9182 26.8827V18.1288L38.9885 16.3469ZM31.4852 27.8829L23.9129 23.5087V21.497L31.4909 17.1229L33.2331 18.1288V26.8827L31.4852 27.8829ZM16.4096 36.5794L8.83724 32.211V30.1993L16.4153 25.8251L18.1575 26.831V35.5735L16.4096 36.5794ZM7.49757 17.1229L15.0756 21.497V23.5087L7.49757 27.8829L5.75542 26.877V18.1288L7.49757 17.1229ZM22.5732 8.42062L30.1455 12.789V14.8007L22.5674 19.1749L20.8253 18.169V9.42649L22.5732 8.42062Z"/>
  </symbol>
</svg>