<svg width="120" height="60" viewBox="0 0 120 60" fill="none" xmlns="http://www.w3.org/2000/svg">
<path d="M48.8571 59.9466C48.7536 59.9466 48.6418 59.9204 48.5642 59.8154L45.2408 55.4448V59.9029H44.4829V54.4133C44.4829 54.1949 44.6638 54.02 44.8706 54.02C44.991 54.02 45.0944 54.0549 45.1717 54.1599L48.4867 58.5218V54.0812H49.2445V59.562C49.2445 59.7893 49.0637 59.9466 48.8571 59.9466Z" fill="#1A1918"/>
<path d="M55.1263 59.9991C54.3687 59.9991 53.5765 59.8416 52.8359 59.5621L53.0169 58.9326C53.6971 59.1511 54.4375 59.3085 55.1263 59.3085C56.0822 59.3085 56.5815 58.9675 56.5815 58.4869C56.5815 58.0497 56.1939 57.8312 54.8594 57.2018C53.5248 56.5724 52.9997 56.1704 52.9997 55.3835C52.9997 54.396 53.7573 53.9937 55.1865 53.9937C55.7807 53.9937 56.6933 54.1162 57.2188 54.2735L57.0981 54.9203C56.5211 54.7805 55.798 54.6844 55.2038 54.6844C54.1966 54.6844 53.7832 54.8766 53.7832 55.3575C53.7832 55.8294 54.0844 56.0305 55.4966 56.6861C56.9862 57.3767 57.3651 57.7264 57.3651 58.4431C57.3651 59.4834 56.3833 59.9991 55.1263 59.9991Z" fill="#1A1918"/>
<path d="M60.9556 54.0815H61.7391V59.9032H60.9556V54.0815Z" fill="#1A1918"/>
<path d="M68.4035 57.2634H66.4573V59.239H68.4035C69.0664 59.239 69.4711 58.8194 69.4711 58.2336C69.4711 57.6829 69.0492 57.2634 68.4035 57.2634ZM68.0244 54.7458H66.4573V56.6078H68.0244C68.6531 56.6078 69.1094 56.2056 69.1094 55.6462C69.1094 55.0955 68.7132 54.7458 68.0244 54.7458ZM68.412 59.9032H66.07C65.8461 59.9032 65.6738 59.7283 65.6738 59.5099V54.4749C65.6738 54.265 65.8461 54.0815 66.07 54.0815H68.0073C69.1955 54.0815 69.9015 54.6672 69.9015 55.5851C69.9015 56.0832 69.6087 56.5465 69.1609 56.8175C69.8242 57.0186 70.2717 57.5692 70.2717 58.2336C70.2717 59.1602 69.5055 59.9032 68.412 59.9032Z" fill="#1A1918"/>
<path d="M74.0352 59.9032C73.8202 59.9032 73.6479 59.7196 73.6479 59.5099V54.0815H74.4313V59.1952H77.5483V59.9032H74.0352Z" fill="#1A1918"/>
<path d="M82.8892 59.9991C81.2876 59.9991 80.3232 59.4047 80.3232 58.2071C80.3232 57.6389 80.6419 57.097 81.2619 56.8435C80.7625 56.5288 80.5042 56.0829 80.5042 55.5935C80.5042 54.5096 81.3397 53.9937 82.9066 53.9937C83.4319 53.9937 84.1722 54.055 84.7923 54.1949L84.7061 54.8417C84.0518 54.7367 83.4402 54.6757 82.8462 54.6757C81.8301 54.6757 81.2876 54.9553 81.2876 55.6284C81.2876 56.1617 81.7871 56.5813 82.4503 56.5813H83.7933C83.9828 56.5813 84.1291 56.7299 84.1291 56.9134C84.1291 57.1056 83.9828 57.2543 83.7933 57.2543H82.347C81.5891 57.2543 81.1071 57.63 81.1071 58.2071C81.1071 59.055 81.8907 59.3085 82.8722 59.3085C83.4061 59.3085 84.1291 59.2387 84.7145 59.0988L84.8267 59.7368C84.2669 59.8943 83.5349 59.9991 82.8892 59.9991Z" fill="#1A1918"/>
<path d="M38.6525 55.1725L40.0247 58.6108L37.9522 56.9534L38.6525 55.1725ZM41.0903 59.4029L38.9797 54.2459C38.9195 54.0973 38.7988 54.0186 38.6525 54.0186C38.5061 54.0186 38.3769 54.0973 38.3167 54.2459L36 59.9024H36.7924L37.7096 57.5704L40.4462 59.815C40.5562 59.9052 40.6356 59.9461 40.7391 59.9461C40.9456 59.9461 41.1265 59.7888 41.1265 59.5615C41.1265 59.5247 41.1135 59.466 41.0903 59.4029Z" fill="#1A1918"/>
<path d="M84.8687 24.3882C84.8687 37.8579 73.9504 48.7761 60.4805 48.7761C47.0118 48.7761 36.0923 37.8579 36.0923 24.3882C36.0923 10.9195 47.0118 0 60.4805 0C73.9504 0 84.8687 10.9195 84.8687 24.3882Z" fill="#1A1918"/>
<path d="M60.8909 14.898L67.2021 30.4747L57.6691 22.9655L60.8909 14.898ZM72.1026 34.0629L62.3947 10.7002C62.1176 10.0265 61.5634 9.66992 60.8909 9.66992C60.2171 9.66992 59.6226 10.0265 59.3455 10.7002L48.6904 36.3262H52.3354L56.5532 25.7605L69.1404 35.9294C69.6466 36.3388 70.0119 36.5239 70.4867 36.5239C71.4376 36.5239 72.2688 35.811 72.2688 34.782C72.2688 34.6146 72.2096 34.3488 72.1026 34.0629Z" fill="white"/>
</svg>
