<svg width="120" height="40" viewBox="0 0 120 40" fill="none" xmlns="http://www.w3.org/2000/svg">
<path d="M52.5714 39.9647C52.5024 39.9647 52.4279 39.9473 52.3761 39.8773L50.1605 36.9635V39.9356H49.6553V36.2759C49.6553 36.1302 49.7758 36.0137 49.9137 36.0137C49.994 36.0137 50.063 36.0369 50.1144 36.1069L52.3245 39.0149V36.0544H52.8297V39.7083C52.8297 39.8599 52.7091 39.9647 52.5714 39.9647Z" fill="#1A1918"/>
<path d="M56.7511 39.9997C56.246 39.9997 55.7178 39.8948 55.2241 39.7084L55.3447 39.2887C55.7982 39.4344 56.2918 39.5393 56.7511 39.5393C57.3883 39.5393 57.7212 39.312 57.7212 38.9916C57.7212 38.7001 57.4628 38.5545 56.5731 38.1349C55.6833 37.7153 55.3333 37.4473 55.3333 36.9227C55.3333 36.2643 55.8384 35.9961 56.7912 35.9961C57.1873 35.9961 57.7957 36.0778 58.146 36.1827L58.0656 36.6139C57.6809 36.5207 57.1989 36.4566 56.8027 36.4566C56.1312 36.4566 55.8556 36.5847 55.8556 36.9053C55.8556 37.2199 56.0565 37.354 56.9979 37.7911C57.991 38.2515 58.2436 38.4846 58.2436 38.9624C58.2436 39.6559 57.5891 39.9997 56.7511 39.9997Z" fill="#1A1918"/>
<path d="M60.6372 36.0547H61.1596V39.9358H60.6372V36.0547Z" fill="#1A1918"/>
<path d="M65.6025 38.1759H64.305V39.493H65.6025C66.0444 39.493 66.3142 39.2132 66.3142 38.8227C66.3142 38.4556 66.033 38.1759 65.6025 38.1759ZM65.3498 36.4975H64.305V37.7388H65.3498C65.7689 37.7388 66.0731 37.4707 66.0731 37.0978C66.0731 36.7307 65.809 36.4975 65.3498 36.4975ZM65.6082 39.9358H64.0469C63.8975 39.9358 63.7827 39.8192 63.7827 39.6736V36.3169C63.7827 36.177 63.8975 36.0547 64.0469 36.0547H65.3384C66.1305 36.0547 66.6012 36.4451 66.6012 37.057C66.6012 37.3891 66.406 37.698 66.1074 37.8787C66.5496 38.0127 66.8479 38.3798 66.8479 38.8227C66.8479 39.4404 66.3372 39.9358 65.6082 39.9358Z" fill="#1A1918"/>
<path d="M69.3568 39.9358C69.2135 39.9358 69.0986 39.8134 69.0986 39.6736V36.0547H69.6209V39.4638H71.6989V39.9358H69.3568Z" fill="#1A1918"/>
<path d="M75.2595 39.9997C74.1917 39.9997 73.5488 39.6035 73.5488 38.8051C73.5488 38.4263 73.7613 38.065 74.1746 37.896C73.8416 37.6862 73.6695 37.389 73.6695 37.0626C73.6695 36.3401 74.2264 35.9961 75.271 35.9961C75.6212 35.9961 76.1148 36.037 76.5282 36.1303L76.4707 36.5614C76.0346 36.4915 75.6268 36.4508 75.2308 36.4508C74.5534 36.4508 74.1917 36.6372 74.1917 37.086C74.1917 37.4415 74.5248 37.7212 74.9668 37.7212H75.8622C75.9885 37.7212 76.0861 37.8202 76.0861 37.9426C76.0861 38.0708 75.9885 38.1698 75.8622 38.1698H74.898C74.3927 38.1698 74.0714 38.4204 74.0714 38.8051C74.0714 39.3703 74.5938 39.5393 75.2481 39.5393C75.6041 39.5393 76.0861 39.4928 76.4764 39.3995L76.5512 39.8249C76.178 39.9298 75.69 39.9997 75.2595 39.9997Z" fill="#1A1918"/>
<path d="M45.7683 36.782L46.6831 39.0742L45.3015 37.9692L45.7683 36.782ZM47.3935 39.6023L45.9865 36.1642C45.9463 36.0652 45.8659 36.0127 45.7683 36.0127C45.6707 36.0127 45.5846 36.0652 45.5445 36.1642L44 39.9353H44.5282L45.1397 38.3806L46.9641 39.877C47.0375 39.9371 47.0904 39.9644 47.1594 39.9644C47.2971 39.9644 47.4177 39.8595 47.4177 39.708C47.4177 39.6835 47.409 39.6444 47.3935 39.6023Z" fill="#1A1918"/>
<path d="M76.5792 16.2589C76.5792 25.2387 69.3003 32.5175 60.3204 32.5175C51.3412 32.5175 44.0615 25.2387 44.0615 16.2589C44.0615 7.27969 51.3412 0 60.3204 0C69.3003 0 76.5792 7.27969 76.5792 16.2589Z" fill="#1A1918"/>
<path d="M60.5941 9.93215L64.8016 20.3167L58.4463 15.3105L60.5941 9.93215ZM68.0686 22.7088L61.5966 7.13366C61.4119 6.68447 61.0425 6.44678 60.5941 6.44678C60.1449 6.44678 59.7486 6.68447 59.5638 7.13366L52.4604 24.2177H54.8904L57.7023 17.1739L66.0938 23.9532C66.4313 24.2261 66.6748 24.3495 66.9913 24.3495C67.6253 24.3495 68.1794 23.8742 68.1794 23.1882C68.1794 23.0766 68.14 22.8994 68.0686 22.7088Z" fill="white"/>
</svg>
