<svg width="120" height="40" viewBox="0 0 120 40" fill="none" xmlns="http://www.w3.org/2000/svg">
<g clip-path="url(#clip0)">
<path fill-rule="evenodd" clip-rule="evenodd" d="M36.3197 24.3288V15.793L28.9551 20.0785L36.3197 24.3383" fill="black"/>
<path fill-rule="evenodd" clip-rule="evenodd" d="M35.85 14.9666L28.4759 10.703V19.2416L35.85 14.9656V14.9666ZM27.5182 19.2311V10.6925L20.1393 14.9666L27.5191 19.2426L27.5182 19.2311ZM27.0407 9.87482L19.6704 5.58643V14.1375L27.0407 9.87768" fill="#616161"/>
<path fill-rule="evenodd" clip-rule="evenodd" d="M35.8499 25.1485L28.4758 20.8887V29.4245L35.8499 25.1485ZM27.518 29.4245V20.8982L20.1382 25.158L27.518 29.434" fill="black"/>
<path fill-rule="evenodd" clip-rule="evenodd" d="M44.663 20.0671L37.2774 15.7911V24.3269L44.663 20.0671ZM18.6982 14.1453V5.59326L11.2783 9.88166L18.7068 14.1415" fill="#616161"/>
<path fill-rule="evenodd" clip-rule="evenodd" d="M27.031 30.2467L19.6606 25.9707V34.5189L27.031 30.2458" fill="black"/>
<path fill-rule="evenodd" clip-rule="evenodd" d="M18.698 34.5189V25.9707L11.2695 30.2467L18.698 34.5199" fill="#616161"/>
<path fill-rule="evenodd" clip-rule="evenodd" d="M27.031 20.067L19.6606 15.79V24.3258L27.031 20.066" fill="black"/>
<path fill-rule="evenodd" clip-rule="evenodd" d="M36.3197 14.1367V5.59326L28.9551 9.88166L36.3197 14.1415" fill="#616161"/>
<path fill-rule="evenodd" clip-rule="evenodd" d="M28.4662 0.501441V9.03725L35.8499 4.76411L28.4758 0.500488L28.4662 0.501441ZM20.1391 4.76411L27.519 9.03725V0.501441L20.1391 4.76411ZM35.8499 35.3413L28.4758 31.0815V39.6145L35.8499 35.3413ZM27.518 39.6078V31.072L20.1382 35.3318L27.518 39.6078Z" fill="#231F20"/>
<path fill-rule="evenodd" clip-rule="evenodd" d="M45.1375 29.4253V20.8981L37.7729 25.1579L45.1375 29.4339V29.4253ZM18.6981 24.3288V15.7778L11.2697 20.0662L18.6981 24.326V24.3288ZM18.214 25.1493L10.7827 20.8981V29.4339L18.2226 25.1579L18.214 25.1493ZM45.1442 19.2495V10.7108L37.771 14.9754L45.1356 19.2514L45.1442 19.2495ZM44.661 9.88361L37.2755 5.59521V14.1463L44.661 9.88647V9.88361ZM44.661 30.2563L37.2755 25.9803V34.5285L44.661 30.2554" fill="#616161"/>
<path fill-rule="evenodd" clip-rule="evenodd" d="M36.3197 34.5189V25.9707L28.9551 30.2467L36.3197 34.5199" fill="#231F20"/>
<path fill-rule="evenodd" clip-rule="evenodd" d="M18.2236 14.9665L10.7827 10.6934V19.232L18.2236 14.9656" fill="#616161"/>
<path fill-rule="evenodd" clip-rule="evenodd" d="M60.384 16.4068L61.8135 14.7677V25.3838H60.284V18.7635L57.0153 22.868L56.8742 23.0271L56.7341 22.868L53.4302 18.7635V25.3867H51.9102V14.7705L53.3396 16.4077L56.8675 20.7676L60.384 16.4068ZM66.8881 14.7696H72.9071V16.1228H68.409V19.361H72.7546V20.7295H68.409V24.0268H73.0529V25.38H66.8871L66.8881 14.7696ZM81.0455 20.9391L79.8905 20.2387C79.1599 19.7965 78.6443 19.3613 78.3438 18.9331C78.036 18.5024 77.875 17.9839 77.8835 17.456C77.8573 16.6815 78.1764 15.9355 78.7546 15.4195C79.3346 14.8985 80.0881 14.638 81.015 14.638C81.8855 14.6329 82.7367 14.8939 83.4546 15.3861V17.1206C82.6897 16.3804 81.8663 16.0103 80.9845 16.0103C80.5508 15.9917 80.1225 16.1118 79.7619 16.3534C79.4635 16.5476 79.2841 16.8799 79.2854 17.2359C79.2905 17.5668 79.4158 17.8845 79.638 18.1298C79.9667 18.4804 80.3498 18.7759 80.7815 19.0036L81.9423 19.6898C83.2383 20.4674 83.8863 21.4544 83.8863 22.6507C83.9134 23.4328 83.6006 24.1883 83.0287 24.7224C82.4588 25.2517 81.7186 25.5163 80.8082 25.5163C79.7722 25.5207 78.7641 25.1804 77.9426 24.549V22.643C78.7641 23.6773 79.7161 24.1945 80.7987 24.1945C81.2308 24.2098 81.6539 24.0683 81.9899 23.7962C82.2951 23.5561 82.4712 23.1876 82.4664 22.7993C82.4632 22.1545 81.9931 21.542 81.056 20.962L81.0455 20.9391ZM93.8707 14.6171C95.5111 14.6171 96.877 15.1365 97.9685 16.1752C99.0599 17.2139 99.6057 18.5163 99.6057 20.0824C99.6057 21.6478 99.058 22.9439 97.9627 23.9705C96.8675 24.9966 95.4768 25.5048 93.7906 25.4953C92.1896 25.4953 90.857 24.9823 89.7929 23.9563C88.7281 22.9302 88.1951 21.6453 88.1938 20.1015C88.1938 18.5144 88.7338 17.2025 89.8139 16.1657C90.8939 15.1282 92.2525 14.6104 93.8897 14.6123L93.8707 14.6171ZM93.9307 16.0608C92.716 16.0608 91.7176 16.4404 90.9355 17.1996C90.1541 17.9589 89.7586 18.9277 89.749 20.1062C89.7207 21.1817 90.1482 22.219 90.926 22.9623C91.7169 23.7215 92.7017 24.1017 93.8802 24.103C94.9853 24.1343 96.0557 23.7146 96.8449 22.9404C97.6291 22.1844 98.0602 21.1341 98.0333 20.0452C98.0552 18.9741 97.6235 17.943 96.8449 17.2073C96.0653 16.4476 95.0122 16.0346 93.924 16.0618L93.9307 16.0608ZM106.894 20.9382L105.739 20.2377C105.008 19.7956 104.493 19.3604 104.192 18.9322C103.885 18.5014 103.723 17.983 103.732 17.455C103.706 16.6806 104.025 15.9345 104.603 15.4185C105.183 14.8976 105.937 14.637 106.864 14.637C107.734 14.6319 108.585 14.8929 109.303 15.3852V17.1196C108.538 16.3795 107.715 16.0094 106.833 16.0094C106.399 15.9907 105.971 16.1109 105.61 16.3525C105.312 16.5466 105.133 16.8789 105.134 17.2349C105.139 17.5658 105.264 17.8835 105.486 18.1288C105.815 18.4795 106.198 18.7749 106.63 19.0027L107.791 19.6888C109.086 20.4614 109.733 21.4461 109.733 22.643C109.763 23.4274 109.45 24.1858 108.875 24.7205C108.305 25.2498 107.565 25.5144 106.655 25.5144C105.619 25.5188 104.611 25.1785 103.789 24.5471V22.6411C104.611 23.6754 105.563 24.1926 106.645 24.1926C107.077 24.2079 107.501 24.0664 107.837 23.7942C108.142 23.5542 108.318 23.1857 108.313 22.7974C108.307 22.1526 107.837 21.5401 106.905 20.9601L106.894 20.9382Z" fill="black"/>
</g>
<defs>
<clipPath id="clip0">
<rect width="99.4872" height="40" fill="white" transform="translate(10.2822)"/>
</clipPath>
</defs>
</svg>
