<svg width="120" height="44" viewBox="0 0 120 44" fill="none" xmlns="http://www.w3.org/2000/svg">
<path d="M50.7315 21.9092V21.8617C50.6603 17.4441 54.1991 13.7865 58.6167 13.7152H58.9492C61.2768 13.5965 63.5331 14.4753 65.1719 16.1378L62.9631 18.6791C61.8943 17.5866 60.4455 16.9691 58.9255 16.9216C56.2654 16.9216 54.3654 19.1304 54.3654 21.8379C54.3654 24.5455 56.2417 26.8018 58.9255 26.8018C60.7305 26.8018 61.8231 26.0893 63.0581 24.9493L65.2669 27.1818C63.6519 29.0581 61.2768 30.1032 58.8067 29.9844C54.4129 30.0557 50.8028 26.5406 50.7315 22.1467V21.9092Z" fill="black"/>
<path d="M69.3042 14.0005H72.7718V20.2231H79.1607V14.0005H82.6283V29.7471H79.1607V23.4295H72.7718V29.7471H69.3042V14.0005Z" fill="black"/>
<path d="M86.856 14.0005H98.755V17.0881H90.2998V20.2707H97.7337V23.3582H90.2998V26.6596H98.8738V29.7471H86.856V14.0005Z" fill="black"/>
<path d="M103.386 14.0005H115.404V17.1356H106.854V20.5082H114.383V23.6432H106.854V29.7471H103.386V14.0005Z" fill="black"/>
<path d="M117.993 16.2803V14.689H118.658C118.777 14.689 118.919 14.689 119.038 14.7365C119.109 14.7602 119.181 14.8077 119.228 14.879C119.276 14.9502 119.299 15.0452 119.299 15.1402C119.299 15.2115 119.276 15.3065 119.252 15.3777C119.228 15.4015 119.228 15.4252 119.204 15.449C119.133 15.5202 119.038 15.5677 118.943 15.5915C118.991 15.639 119.038 15.6865 119.062 15.734C119.133 15.8052 119.181 15.9002 119.252 15.9952L119.442 16.304H119.062L118.824 15.9477C118.777 15.8765 118.706 15.7815 118.658 15.7102C118.634 15.6865 118.611 15.6627 118.563 15.639C118.516 15.6152 118.444 15.6152 118.397 15.6152H118.326V16.2803H117.993V16.2803ZM118.326 15.354H118.563C118.658 15.354 118.753 15.354 118.848 15.3302C118.896 15.3302 118.919 15.3065 118.943 15.259C118.967 15.2115 118.967 15.1877 118.967 15.1402C118.967 15.0927 118.943 15.0452 118.919 15.0215C118.896 14.9977 118.848 14.974 118.801 14.9502C118.729 14.9502 118.634 14.9502 118.563 14.9502H118.302L118.326 15.354Z" fill="black"/>
<path d="M118.611 16.8981C118.421 16.8981 118.231 16.8506 118.065 16.7793C117.97 16.7556 117.898 16.7081 117.827 16.6368C117.756 16.5893 117.685 16.5181 117.613 16.4706C117.542 16.3993 117.495 16.3281 117.447 16.2568C117.186 15.8531 117.138 15.3543 117.305 14.903C117.352 14.808 117.376 14.7368 117.447 14.6655C117.495 14.5943 117.566 14.523 117.613 14.4518C117.685 14.3805 117.756 14.333 117.827 14.2855C117.898 14.238 117.993 14.1905 118.065 14.143C118.421 14.0005 118.825 14.0005 119.157 14.143C119.252 14.1905 119.323 14.2143 119.395 14.2855C119.466 14.333 119.537 14.4043 119.608 14.4518C119.68 14.523 119.727 14.5943 119.775 14.6655C119.822 14.7368 119.87 14.8318 119.893 14.903C120.036 15.2593 120.036 15.6631 119.893 16.0193C119.87 16.1143 119.822 16.1856 119.775 16.2568C119.727 16.3281 119.656 16.3993 119.608 16.4706C119.49 16.5893 119.323 16.7081 119.157 16.7793C118.967 16.8743 118.801 16.8981 118.611 16.8981ZM118.611 14.1905C117.898 14.1905 117.305 14.7605 117.305 15.4968C117.305 16.2093 117.875 16.8031 118.611 16.8031C119.323 16.8031 119.917 16.2331 119.917 15.4968C119.893 14.7605 119.323 14.1905 118.611 14.1905Z" fill="black"/>
<path d="M0 22.4791C0.0712519 25.0442 0.593765 27.5617 1.54379 29.9368L4.22761 28.8443C3.39634 26.778 2.94508 24.5929 2.87383 22.3604L0 22.4791Z" fill="black"/>
<path d="M21.8507 2.86124C25.8171 2.86124 29.6409 4.09628 32.871 6.40009L34.5573 4.07253C24.7483 -2.93391 11.0917 -0.677597 4.06152 9.13141C3.2065 10.3427 2.49398 11.649 1.87646 13.0028L4.51278 14.1903C7.55286 7.30261 14.3218 2.885 21.8507 2.86124Z" fill="#373737"/>
<path d="M43.4401 18.4893C43.0126 15.758 42.0863 13.1216 40.6613 10.7466L38.1675 12.1716C39.3313 14.0954 40.115 16.233 40.5188 18.4893C40.5188 18.4893 43.4401 18.4893 43.4401 18.4893Z" fill="black"/>
<path d="M40.5187 25.1868C38.6899 35.4946 28.8334 42.3585 18.5257 40.506C14.7493 39.8172 11.3055 38.0359 8.57415 35.3759L6.5791 37.4422C15.2006 45.8974 29.0472 45.7311 37.4787 37.1096C40.685 33.8558 42.7513 29.6757 43.4638 25.1631L40.5187 25.1868Z" fill="#373737"/>
<path d="M35.9821 18.4893H38.9272C37.7871 12.8367 33.987 8.11031 28.6906 5.854L27.5269 8.46657C31.7782 10.2716 34.9133 14.0005 35.9821 18.4893Z" fill="#373737"/>
<path d="M8.55038 15.9715C10.8779 10.7226 16.0556 7.32629 21.8032 7.30254L21.827 4.42871C14.963 4.42871 8.71664 8.49007 5.91406 14.784L8.55038 15.9715Z" fill="black"/>
<path d="M16.2217 35.2331C10.9728 33.0243 7.48149 27.9892 7.31523 22.2891L4.44141 22.3841C4.65516 29.2005 8.83527 35.2806 15.1529 37.917L16.2217 35.2331Z" fill="#373737"/>
<path d="M35.982 25.187C34.462 31.6234 28.7856 36.2073 22.1592 36.3736L22.2542 39.2474C30.4244 39.0336 37.3358 33.191 38.9271 25.187H35.982V25.187Z" fill="black"/>
<path d="M31.3747 25.1868C29.5221 30.4357 23.7745 33.1908 18.5256 31.362C13.2767 29.5332 10.5216 23.7618 12.3504 18.5129C14.1792 13.264 19.9506 10.5089 25.1995 12.3377C28.0733 13.359 30.3534 15.6153 31.3747 18.5129H34.391C32.5384 11.6014 25.437 7.49258 18.5256 9.32138C11.6141 11.1502 7.50528 18.2754 9.33408 25.1868C11.1629 32.0982 18.2881 36.2071 25.1995 34.3783C29.6646 33.167 33.1797 29.6994 34.391 25.1868H31.3747V25.1868Z" fill="black"/>
<path d="M26.387 25.187C25.817 25.9708 25.0332 26.5645 24.1782 26.9683L25.437 29.5571C27.3371 28.6546 28.8571 27.1108 29.6646 25.187H26.387Z" fill="#373737"/>
<path d="M21.8505 27.4905C20.3542 27.4905 18.8817 26.873 17.8129 25.8042L15.8179 27.8705C17.4329 29.4618 19.5942 30.3881 21.8505 30.3881H21.9455L21.8505 27.4905Z" fill="black"/>
<path d="M21.6605 16.2093V13.3354C16.9579 13.4067 13.2291 17.3018 13.3003 22.0044C13.3241 23.0257 13.5141 23.9995 13.8941 24.9495L16.5542 23.857C15.4379 20.9594 16.8867 17.7056 19.7842 16.5893C20.4018 16.3518 21.043 16.233 21.6605 16.2093Z" fill="#373737"/>
<path d="M25.1755 14.0005L24.0117 16.6368C24.9617 17.0406 25.7693 17.6818 26.3868 18.4894H29.6881C28.8093 16.4706 27.1706 14.8793 25.1755 14.0005Z" fill="black"/>
</svg>
