<svg width="120" height="40" viewBox="0 0 120 40" fill="none" xmlns="http://www.w3.org/2000/svg">
<path d="M56.4204 14.0196C55.7804 13.9996 55.2604 14.4996 55.2404 15.1196C55.2404 15.1396 55.2404 15.1796 55.2404 15.1996V20.8793C52.5005 18.6794 48.4807 19.1194 46.2808 21.8593C45.3808 22.9993 44.8808 24.3992 44.8808 25.8591C44.8208 29.379 47.6207 32.2789 51.1406 32.3389C54.6604 32.3989 57.5603 29.599 57.6203 26.0791C57.6203 25.9991 57.6203 25.9391 57.6203 25.8591V15.1996C57.6203 14.8796 57.5003 14.5796 57.2803 14.3596C57.0403 14.1396 56.7403 14.0196 56.4204 14.0196ZM54.9204 27.3991C54.5204 28.359 53.7605 29.119 52.8005 29.539C51.8005 29.959 50.6806 29.959 49.6806 29.539C48.7207 29.139 47.9807 28.359 47.5807 27.4191C47.1607 26.4391 47.1607 25.3192 47.5807 24.3192C47.9807 23.3592 48.7407 22.5993 49.6806 22.1993C50.6806 21.7793 51.8005 21.7793 52.8005 22.1993C53.7605 22.6193 54.5204 23.3792 54.9204 24.3392C55.3404 25.2992 55.3404 26.4191 54.9204 27.3991Z" fill="black"/>
<path d="M69.7199 21.3594C67.24 18.8795 63.2001 18.8795 60.7202 21.3594C59.5203 22.5594 58.8603 24.1793 58.8603 25.8593C58.8003 29.3791 61.6002 32.279 65.1201 32.339C68.6399 32.399 71.5398 29.5991 71.5998 26.0792C71.5998 25.9992 71.5998 25.9393 71.5998 25.8593C71.5998 25.0193 71.4398 24.1993 71.1198 23.4194C70.7998 22.6394 70.3199 21.9394 69.7199 21.3594ZM68.8999 27.3792C68.6999 27.8592 68.3999 28.2792 68.0399 28.6391C67.68 28.9991 67.24 29.2991 66.78 29.4991C65.78 29.9191 64.6601 29.9191 63.6601 29.4991C62.7002 29.0991 61.9402 28.3191 61.5402 27.3792C61.1202 26.3992 61.1202 25.2793 61.5402 24.2793C61.9402 23.3194 62.7002 22.5794 63.6601 22.1594C64.6601 21.7394 65.78 21.7394 66.78 22.1594C67.26 22.3594 67.68 22.6594 68.0399 23.0194C68.3999 23.3794 68.6999 23.8193 68.8999 24.2793C69.3199 25.2993 69.3199 26.4192 68.8999 27.3792Z" fill="black"/>
<path d="M96.0586 20.6593C96.0586 20.4993 96.0186 20.3393 95.9586 20.1993C95.8986 20.0593 95.7986 19.9393 95.6986 19.8193C95.5986 19.7193 95.4586 19.6193 95.3186 19.5593C95.1787 19.4993 95.0187 19.4593 94.8587 19.4593C94.6387 19.4593 94.4187 19.5193 94.2187 19.6393L87.419 24.0591V15.2195C87.419 14.8995 87.299 14.5995 87.079 14.3795C86.859 14.1595 86.559 14.0195 86.239 14.0195C85.579 14.0195 85.0591 14.5395 85.0391 15.1995C85.0391 15.1995 85.0391 15.1995 85.0391 15.2195V31.0188C85.0391 31.3388 85.1591 31.6388 85.379 31.8588C85.599 32.0988 85.899 32.2188 86.219 32.2188C86.539 32.2188 86.839 32.0988 87.059 31.8588C87.279 31.6388 87.419 31.3388 87.399 31.0188V26.919L88.7789 26.019L94.0387 31.9188C94.2587 32.1188 94.5387 32.2388 94.8387 32.2188C94.9987 32.2188 95.1587 32.1988 95.2986 32.1188C95.4386 32.0588 95.5586 31.9788 95.6786 31.8588C95.7786 31.7388 95.8786 31.6188 95.9386 31.4788C95.9986 31.3388 96.0386 31.1788 96.0386 31.0188C96.0386 30.7189 95.9186 30.4189 95.7186 30.1989L90.8388 24.6991L95.5986 21.5992C95.9186 21.3992 96.0786 21.0392 96.0586 20.6593Z" fill="black"/>
<path d="M76.3196 23.0194C76.6796 22.6594 77.1196 22.3594 77.5996 22.1594C78.0996 21.9594 78.6196 21.8394 79.1595 21.8394C79.6395 21.8394 80.0995 21.9194 80.5395 22.0794C80.9795 22.2594 81.3994 22.4994 81.7594 22.8194C81.9794 22.9994 82.2594 23.0794 82.5394 23.0794C82.8594 23.0994 83.1794 22.9794 83.3994 22.7394C83.6193 22.5194 83.7393 22.1994 83.7393 21.8794C83.7393 21.5394 83.5994 21.1994 83.3194 20.9794C82.1794 19.9595 80.6995 19.3995 79.1595 19.4395C75.6397 19.4395 72.7798 22.2994 72.7798 25.8192C72.7798 29.3391 75.6197 32.179 79.1195 32.199C80.6595 32.199 82.1394 31.659 83.2994 30.6591C83.5394 30.4391 83.6793 30.1191 83.6793 29.7791C83.6993 29.1391 83.1994 28.6191 82.5794 28.5991C82.5594 28.5991 82.5194 28.5991 82.4994 28.5991C82.2194 28.5991 81.9594 28.6791 81.7394 28.8391C81.3794 29.1591 80.9795 29.3991 80.5395 29.5791C80.0995 29.7391 79.6195 29.8191 79.1595 29.8191C78.6196 29.8191 78.0996 29.7191 77.5996 29.4991C77.1196 29.2991 76.6996 28.9991 76.3196 28.6391C74.7597 27.0792 74.7597 24.5593 76.2996 22.9994C76.3196 23.0394 76.3196 23.0394 76.3196 23.0194Z" fill="black"/>
<path d="M119.678 20.2795C119.438 20.0595 119.178 19.8995 118.878 19.7995C118.538 19.6795 118.178 19.5995 117.818 19.5595C117.458 19.5195 117.098 19.4995 116.738 19.4995C116.018 19.4995 115.278 19.6195 114.598 19.8795C113.918 20.1195 113.298 20.4795 112.738 20.9195V20.6795C112.718 20.0195 112.158 19.5195 111.498 19.5395C110.878 19.5595 110.378 20.0595 110.358 20.6795V31.059C110.378 31.719 110.938 32.219 111.598 32.199C112.218 32.179 112.718 31.679 112.738 31.059V25.8793C112.738 25.3393 112.838 24.8193 113.058 24.3193C113.258 23.8393 113.538 23.4194 113.918 23.0594C114.278 22.6994 114.718 22.3994 115.178 22.1994C115.678 21.9994 116.198 21.8794 116.738 21.8794C117.278 21.8794 117.798 21.9794 118.298 22.1594C118.458 22.2394 118.618 22.2794 118.798 22.2794C118.958 22.2794 119.118 22.2594 119.258 22.1794C119.398 22.1194 119.518 22.0394 119.638 21.9194C119.738 21.8194 119.838 21.6794 119.898 21.5394C119.958 21.3994 119.998 21.2394 119.998 21.0794C120.018 20.7795 119.898 20.4995 119.678 20.2795Z" fill="black"/>
<path d="M108.638 23.4194C107.618 21.0594 105.299 19.5195 102.739 19.4995C99.2188 19.4995 96.3789 22.3394 96.3589 25.8593C96.3589 29.3791 99.2188 32.239 102.739 32.239C104.259 32.239 105.739 31.699 106.898 30.6991C106.918 30.6791 106.938 30.6591 106.938 30.6591C107.038 30.5791 107.138 30.4791 107.198 30.3591C107.578 29.7991 107.438 29.0591 106.898 28.6791C106.438 28.3792 105.838 28.4392 105.439 28.8191C105.399 28.8591 105.279 28.9591 105.279 28.9791L105.259 28.9991C104.919 29.2791 104.539 29.5191 104.119 29.6591C103.679 29.8191 103.219 29.8991 102.739 29.8791C102.299 29.8791 101.879 29.8191 101.459 29.6791C101.059 29.5391 100.679 29.3591 100.339 29.0991C99.9987 28.8591 99.6988 28.5591 99.4588 28.2192C99.1988 27.8792 99.0188 27.4792 98.8988 27.0792H107.898C108.218 27.0792 108.518 26.9592 108.738 26.7392C108.978 26.5192 109.098 26.2192 109.078 25.8993C109.098 25.0393 108.938 24.1993 108.638 23.4194ZM98.8988 24.6993C99.0188 24.2793 99.1988 23.8993 99.4588 23.5594C99.6988 23.2194 99.9987 22.9194 100.339 22.6794C100.679 22.4394 101.059 22.2394 101.459 22.0994C101.859 21.9594 102.299 21.8994 102.719 21.8994C103.139 21.8994 103.579 21.9594 103.979 22.0994C104.779 22.3594 105.479 22.8794 105.978 23.5594C106.238 23.8993 106.418 24.2993 106.558 24.6993H98.8988V24.6993Z" fill="black"/>
<path d="M115.618 30.499C115.158 30.499 114.798 30.879 114.798 31.339C114.798 31.799 115.178 32.159 115.638 32.159C116.098 32.159 116.458 31.779 116.458 31.339C116.458 30.859 116.078 30.499 115.618 30.499ZM115.618 31.979C115.258 31.999 114.958 31.719 114.938 31.359C114.918 30.999 115.198 30.699 115.558 30.679C115.918 30.659 116.218 30.939 116.238 31.299C116.238 31.319 116.238 31.319 116.238 31.339C116.258 31.679 115.978 31.979 115.638 31.979C115.638 31.979 115.638 31.979 115.618 31.979Z" fill="black"/>
<path d="M115.818 31.3389C115.918 31.3189 115.978 31.2389 115.978 31.1389C115.978 31.0589 115.958 30.9989 115.898 30.9589C115.818 30.9189 115.718 30.8989 115.618 30.8989C115.518 30.8989 115.398 30.8989 115.298 30.9189V31.7389H115.478V31.4189H115.558C115.658 31.4189 115.718 31.4589 115.738 31.5389C115.758 31.5989 115.778 31.6789 115.798 31.7389H115.998C115.958 31.6789 115.938 31.5989 115.938 31.5389C115.958 31.4589 115.898 31.3789 115.818 31.3389ZM115.578 31.2789H115.478V31.0389C115.518 31.0389 115.558 31.0389 115.578 31.0389C115.698 31.0389 115.758 31.0989 115.758 31.1589C115.778 31.2389 115.678 31.2989 115.578 31.2789Z" fill="black"/>
<path d="M42.7009 16.6997C42.5809 16.5997 41.5009 15.7798 39.181 15.7798C38.581 15.7798 37.9611 15.8398 37.3611 15.9398C36.9211 12.8799 34.3812 11.3999 34.2812 11.3199L33.6612 10.96L33.2613 11.5399C32.7613 12.3199 32.3813 13.1999 32.1613 14.0998C31.7413 15.8398 32.0013 17.4797 32.8813 18.8796C31.8213 19.4796 30.1014 19.6196 29.7414 19.6396H1.34256C0.602586 19.6396 0.00261024 20.2396 0.00261024 20.9796C-0.0373881 23.4594 0.382595 25.9393 1.24256 28.2793C2.22252 30.8392 3.68246 32.7391 5.56239 33.899C7.6823 35.199 11.1422 35.9389 15.042 35.9389C16.8019 35.9389 18.5619 35.779 20.3018 35.459C22.7217 35.019 25.0416 34.179 27.1815 32.9591C28.9414 31.9391 30.5214 30.6392 31.8613 29.1192C34.1212 26.5793 35.4612 23.7394 36.4411 21.2195C36.5811 21.2195 36.7011 21.2195 36.8411 21.2195C39.301 21.2195 40.821 20.2396 41.6609 19.3996C42.2209 18.8796 42.6409 18.2397 42.9409 17.5197L43.1209 16.9997L42.7009 16.6997Z" fill="black"/>
<path d="M3.98256 18.8196H7.78241C7.9624 18.8196 8.1224 18.6796 8.1224 18.4796V15.0797C8.1224 14.8997 7.9824 14.7397 7.78241 14.7397H3.98256C3.80257 14.7397 3.64258 14.8797 3.64258 15.0797V18.4796C3.66258 18.6796 3.80257 18.8196 3.98256 18.8196Z" fill="black"/>
<path d="M9.22231 18.8196H13.0222C13.2021 18.8196 13.3621 18.6796 13.3621 18.4796V15.0797C13.3621 14.8997 13.2221 14.7397 13.0222 14.7397H9.22231C9.04232 14.7397 8.88232 14.8797 8.88232 15.0797V18.4796C8.90232 18.6796 9.04232 18.8196 9.22231 18.8196Z" fill="black"/>
<path d="M14.5622 18.8196H18.362C18.542 18.8196 18.702 18.6796 18.702 18.4796V15.0797C18.702 14.8997 18.562 14.7397 18.362 14.7397H14.5622C14.3822 14.7397 14.2222 14.8797 14.2222 15.0797V18.4796C14.2222 18.6796 14.3622 18.8196 14.5622 18.8196Z" fill="black"/>
<path d="M19.8219 18.8196H23.6218C23.8018 18.8196 23.9618 18.6796 23.9618 18.4796V15.0797C23.9618 14.8997 23.8218 14.7397 23.6218 14.7397H19.8219C19.6419 14.7397 19.4819 14.8797 19.4819 15.0797V18.4796C19.4819 18.6796 19.6419 18.8196 19.8219 18.8196Z" fill="black"/>
<path d="M9.22231 13.9597H13.0222C13.2021 13.9597 13.3621 13.7997 13.3621 13.6197V10.2199C13.3621 10.0399 13.2221 9.87988 13.0222 9.87988H9.22231C9.04232 9.87988 8.88232 10.0199 8.88232 10.2199V13.6197C8.90232 13.7997 9.04232 13.9597 9.22231 13.9597Z" fill="black"/>
<path d="M14.5622 13.9597H18.362C18.542 13.9597 18.702 13.7997 18.702 13.6197V10.2199C18.702 10.0399 18.562 9.87988 18.362 9.87988H14.5622C14.3822 9.87988 14.2222 10.0199 14.2222 10.2199V13.6197C14.2222 13.7997 14.3622 13.9597 14.5622 13.9597Z" fill="black"/>
<path d="M19.8219 13.9597H23.6218C23.8018 13.9597 23.9618 13.7997 23.9618 13.6197V10.2199C23.9618 10.0399 23.8018 9.87988 23.6218 9.87988H19.8219C19.6419 9.87988 19.4819 10.0199 19.4819 10.2199V13.6197C19.4819 13.7997 19.6419 13.9597 19.8219 13.9597Z" fill="black"/>
<path d="M19.8219 9.07983H23.6218C23.8018 9.07983 23.9618 8.93984 23.9618 8.73985V5.33999C23.9618 5.16 23.8018 5 23.6218 5H19.8219C19.6419 5 19.4819 5.14 19.4819 5.33999V8.73985C19.4819 8.91984 19.6419 9.07983 19.8219 9.07983Z" fill="black"/>
<path d="M25.1217 18.8196H28.9216C29.1016 18.8196 29.2616 18.6796 29.2616 18.4796V15.0797C29.2616 14.8997 29.1216 14.7397 28.9216 14.7397H25.1217C24.9417 14.7397 24.7817 14.8797 24.7817 15.0797V18.4796C24.8017 18.6796 24.9417 18.8196 25.1217 18.8196Z" fill="black"/>
</svg>
