<svg width="120" height="22" viewBox="0 0 120 22" fill="none" xmlns="http://www.w3.org/2000/svg">
<path d="M19.636 5.05099C19.5177 4.67223 19.2336 4.36449 18.8785 4.17511L11.6584 0.718948C11.4691 0.624258 11.256 0.600586 11.0666 0.600586C10.8773 0.600586 10.6642 0.600586 10.4748 0.647931L3.25476 4.12777C2.89967 4.29347 2.63928 4.60122 2.54459 5.00365L0.769159 12.7919C0.698142 13.1943 0.792831 13.5967 1.02956 13.9281L6.02442 20.1066C6.30849 20.3907 6.71092 20.5801 7.11335 20.6037H15.0673C15.4934 20.6511 15.8958 20.4617 16.1562 20.1066L21.1511 13.9281C21.3878 13.5967 21.4825 13.1943 21.4351 12.7919L19.636 5.05099V5.05099Z" fill="black"/>
<path d="M18.5236 12.484C18.4999 12.484 18.4762 12.484 18.4762 12.4604C18.4762 12.4367 18.4289 12.4367 18.3815 12.4367C18.2868 12.413 18.1921 12.413 18.0974 12.413C18.0501 12.413 18.0028 12.413 17.9554 12.3893H17.9317C17.6713 12.3657 17.3873 12.3183 17.1269 12.2473C17.0559 12.2236 16.9848 12.1526 16.9612 12.0816C16.9848 12.0816 16.9612 12.0816 16.9612 12.0816L16.7718 12.0343C16.8665 11.3478 16.8191 10.6376 16.6771 9.95108C16.5114 9.26458 16.2273 8.60176 15.8486 8.00995L15.9906 7.86792V7.84424C15.9906 7.77323 16.0143 7.67854 16.0616 7.63119C16.2747 7.44181 16.4877 7.29978 16.7245 7.15774C16.7718 7.13407 16.8191 7.1104 16.8665 7.08673C16.9612 7.03938 17.0322 6.99204 17.1269 6.94469C17.1506 6.92102 17.1742 6.92102 17.1979 6.89735C17.2216 6.87368 17.1979 6.87368 17.1979 6.85C17.411 6.6843 17.4583 6.40023 17.2926 6.18718C17.2216 6.09249 17.0795 6.02147 16.9612 6.02147C16.8428 6.02147 16.7245 6.06882 16.6298 6.13983L16.6061 6.1635C16.5824 6.18718 16.5587 6.21085 16.5351 6.21085C16.4641 6.28187 16.393 6.35288 16.3457 6.4239C16.322 6.47125 16.2747 6.49492 16.251 6.51859C16.0853 6.70797 15.8722 6.89735 15.6592 7.03938C15.6119 7.06305 15.5645 7.08673 15.5172 7.08673C15.4935 7.08673 15.4461 7.08673 15.4225 7.06305H15.3988L15.2094 7.18142C15.02 6.99204 14.807 6.80266 14.6176 6.61328C13.7417 5.92678 12.6528 5.50068 11.5402 5.38232L11.5165 5.19294V5.21661C11.4455 5.16927 11.4218 5.09825 11.3982 5.02723C11.3982 4.76684 11.3982 4.50644 11.4455 4.22237V4.1987C11.4455 4.15135 11.4692 4.10401 11.4692 4.05666C11.4929 3.96197 11.4929 3.86729 11.5165 3.7726V3.63056C11.5402 3.39384 11.3508 3.15711 11.1141 3.13344C10.9721 3.10977 10.83 3.18079 10.7117 3.29915C10.617 3.39384 10.5696 3.5122 10.5696 3.63056V3.74892C10.5696 3.84361 10.5933 3.9383 10.617 4.03299C10.6407 4.08034 10.6407 4.12768 10.6407 4.17503V4.1987C10.688 4.45909 10.688 4.71949 10.688 5.00356C10.6643 5.07458 10.6407 5.14559 10.5696 5.19294V5.24028L10.546 5.42966C10.2856 5.45333 10.0252 5.50068 9.74111 5.54802C8.6285 5.78475 7.61059 6.37656 6.8294 7.20509L6.68737 7.1104H6.6637C6.64003 7.1104 6.61635 7.13407 6.56901 7.13407C6.52166 7.13407 6.47432 7.1104 6.42697 7.08673C6.21392 6.92102 6.00087 6.73164 5.83517 6.54226C5.81149 6.49492 5.76415 6.47125 5.74048 6.44757C5.66946 6.37656 5.62211 6.30554 5.5511 6.23452C5.52742 6.21085 5.50375 6.21085 5.48008 6.18718C5.45641 6.1635 5.45641 6.1635 5.45641 6.1635C5.36172 6.09249 5.24336 6.04514 5.12499 6.04514C4.98296 6.04514 4.8646 6.09249 4.79358 6.21085C4.65155 6.4239 4.69889 6.70797 4.88827 6.87368C4.91194 6.87368 4.91194 6.89735 4.91194 6.89735C4.91194 6.89735 4.95929 6.94469 4.98296 6.94469C5.05398 6.99204 5.14867 7.03938 5.24336 7.08673C5.2907 7.1104 5.33805 7.13407 5.38539 7.15774C5.62211 7.29978 5.85884 7.44181 6.04822 7.63119C6.09556 7.67854 6.14291 7.77323 6.11923 7.84424V7.82057L6.26127 7.9626C6.2376 8.00995 6.21392 8.03362 6.19025 8.08097C5.45641 9.24091 5.14867 10.6139 5.36172 11.9632L5.17234 12.0106C5.17234 12.0343 5.14867 12.0343 5.14867 12.0343C5.12499 12.1053 5.05398 12.1526 4.98296 12.2C4.72256 12.271 4.46217 12.3183 4.1781 12.342C4.13076 12.342 4.08341 12.342 4.03607 12.3657C3.94138 12.3657 3.84669 12.3893 3.752 12.3893C3.72833 12.3893 3.70465 12.413 3.65731 12.413C3.63364 12.413 3.63364 12.413 3.60996 12.4367C3.34957 12.484 3.18386 12.7208 3.23121 12.9811C3.27855 13.1942 3.4916 13.3362 3.70465 13.3126C3.752 13.3126 3.77567 13.3126 3.82301 13.2889C3.84669 13.2889 3.84669 13.2889 3.84669 13.2652C3.84669 13.2415 3.9177 13.2652 3.94138 13.2652C4.03607 13.2415 4.13076 13.1942 4.20177 13.1705C4.24912 13.1469 4.29646 13.1232 4.34381 13.1232H4.36748C4.62788 13.0285 4.8646 12.9575 5.14867 12.9101H5.17234C5.24336 12.9101 5.31437 12.9338 5.36172 12.9811C5.38539 12.9811 5.38539 13.0048 5.38539 13.0048L5.59844 12.9811C5.95353 14.0701 6.61635 15.0406 7.53958 15.7508C7.75263 15.9165 7.94201 16.0586 8.17873 16.1769L8.06037 16.3426C8.06037 16.3663 8.08404 16.3663 8.08404 16.3663C8.13138 16.4373 8.13138 16.532 8.10771 16.603C8.01302 16.8397 7.87099 17.0765 7.72895 17.2895V17.3132C7.70528 17.3605 7.68161 17.3842 7.63427 17.4316C7.58692 17.4789 7.53958 17.5736 7.46856 17.6683C7.44489 17.6919 7.44489 17.7156 7.42121 17.7393C7.42121 17.7393 7.42121 17.763 7.39754 17.763C7.27918 17.9997 7.37387 18.2838 7.58692 18.4021C7.63427 18.4258 7.70528 18.4495 7.75263 18.4495C7.94201 18.4495 8.10771 18.3311 8.2024 18.1654C8.2024 18.1654 8.2024 18.1417 8.22607 18.1417C8.22607 18.118 8.24975 18.0944 8.27342 18.0707C8.29709 17.976 8.34444 17.905 8.36811 17.8103L8.41545 17.6683C8.48647 17.4079 8.60483 17.1712 8.72319 16.9344C8.77054 16.8634 8.84156 16.8161 8.91257 16.7924C8.93625 16.7924 8.93624 16.7924 8.93624 16.7687L9.03093 16.5793C9.69376 16.8397 10.3803 16.9581 11.0904 16.9581C11.5165 16.9581 11.9426 16.9108 12.3687 16.7924C12.6291 16.7451 12.8895 16.6504 13.1263 16.5793L13.2209 16.7451C13.2446 16.7451 13.2446 16.7451 13.2446 16.7687C13.3156 16.7924 13.3866 16.8397 13.434 16.9108C13.5524 17.1475 13.6707 17.3842 13.7417 17.6446V17.6683L13.7891 17.8103C13.8128 17.905 13.8364 17.9997 13.8838 18.0707C13.9074 18.0944 13.9074 18.118 13.9311 18.1417C13.9311 18.1417 13.9311 18.1654 13.9548 18.1654C14.0495 18.3311 14.2152 18.4495 14.4046 18.4495C14.4756 18.4495 14.5229 18.4258 14.5939 18.4021C14.6886 18.3548 14.7833 18.2601 14.807 18.1417C14.8307 18.0234 14.8307 17.905 14.7833 17.7866C14.7833 17.763 14.7596 17.763 14.7596 17.763C14.7596 17.7393 14.736 17.7156 14.7123 17.6919C14.665 17.5973 14.6176 17.5262 14.5466 17.4552C14.5229 17.4079 14.4992 17.3842 14.4519 17.3369V17.2895C14.2862 17.0765 14.1678 16.8397 14.0731 16.603C14.0495 16.532 14.0495 16.4373 14.0968 16.3663C14.0968 16.3426 14.1205 16.3426 14.1205 16.3426L14.0495 16.1532C15.2568 15.4194 16.18 14.2831 16.6061 12.9338L16.7955 12.9575C16.8191 12.9575 16.8191 12.9338 16.8191 12.9338C16.8665 12.8865 16.9375 12.8628 17.0085 12.8628H17.0322C17.2926 12.9101 17.553 12.9811 17.7897 13.0758H17.8134C17.8607 13.0995 17.9081 13.1232 17.9554 13.1232C18.0501 13.1705 18.1211 13.2179 18.2158 13.2415C18.2395 13.2415 18.2632 13.2652 18.3105 13.2652C18.3342 13.2652 18.3342 13.2652 18.3578 13.2889C18.4052 13.3126 18.4289 13.3126 18.4762 13.3126C18.6893 13.3126 18.8786 13.1705 18.9497 12.9811C18.926 12.7208 18.7366 12.5314 18.5236 12.484V12.484ZM11.6822 11.7502L11.0431 12.0579L10.4039 11.7502L10.2382 11.0637L10.688 10.4955H11.3982L11.8479 11.0637L11.6822 11.7502V11.7502ZM15.5408 10.2115C15.6592 10.7086 15.6829 11.2057 15.6355 11.7028L13.3866 11.0637C13.1736 11.0163 13.0552 10.8033 13.1026 10.5902C13.1263 10.5192 13.1499 10.4719 13.1973 10.4245L14.9727 8.81481C15.2331 9.24091 15.4225 9.71436 15.5408 10.2115V10.2115ZM14.2625 7.93893L12.3214 9.31193C12.1557 9.40662 11.919 9.38295 11.8006 9.21724C11.7533 9.1699 11.7296 9.12255 11.7296 9.05153L11.5875 6.66062C12.6291 6.77899 13.5524 7.22876 14.2625 7.93893V7.93893ZM9.97783 6.73164L10.4513 6.63695L10.3329 9.00419C10.3329 9.21724 10.1435 9.38295 9.93048 9.38295C9.85947 9.38295 9.81212 9.35927 9.74111 9.3356L7.7763 7.93893C8.39178 7.34712 9.1493 6.92102 9.97783 6.73164ZM7.0898 8.81481L8.84156 10.3772C9.00726 10.5192 9.03093 10.7559 8.8889 10.9217C8.84156 10.9927 8.79421 11.0163 8.69952 11.04L6.4033 11.7028C6.33229 10.7086 6.56901 9.69069 7.0898 8.81481V8.81481ZM6.68737 12.8154L9.03093 12.413C9.22031 12.413 9.40969 12.5314 9.43336 12.7208C9.45704 12.7918 9.45704 12.8865 9.40969 12.9575L8.51014 15.1353C7.68161 14.5909 7.01878 13.7623 6.68737 12.8154V12.8154ZM12.061 15.7508C11.7296 15.8218 11.3982 15.8692 11.0431 15.8692C10.546 15.8692 10.0252 15.7745 9.55173 15.6325L10.7117 13.5256C10.83 13.3836 11.0194 13.3362 11.1851 13.4309C11.2561 13.4783 11.3035 13.5256 11.3745 13.5966L12.5108 15.6561C12.3687 15.6798 12.2267 15.7035 12.061 15.7508V15.7508ZM14.949 13.6913C14.5939 14.2595 14.0968 14.7566 13.5287 15.1117L12.6055 12.8865C12.5581 12.6971 12.6528 12.5077 12.8185 12.4367C12.8895 12.413 12.9605 12.3893 13.0316 12.3893L15.3988 12.7918C15.2804 13.1232 15.1384 13.4309 14.949 13.6913Z" fill="white"/>
<path d="M115.439 15.3956C115.77 15.4193 116.125 15.372 116.433 15.2536C116.622 15.1589 116.741 14.9459 116.717 14.7328C116.693 14.4961 116.551 14.283 116.338 14.212C115.983 13.999 115.581 13.8096 115.178 13.6912C114.776 13.5492 114.421 13.3835 114.089 13.2178C113.782 13.0758 113.521 12.8864 113.261 12.6497C113.024 12.4129 112.858 12.1525 112.74 11.8448C112.598 11.4897 112.551 11.1109 112.551 10.7322C112.527 9.951 112.882 9.19349 113.497 8.72004C114.137 8.22292 114.989 7.9862 116.078 7.9862C116.599 7.9862 117.143 8.03354 117.664 8.1519C118.066 8.22292 118.469 8.31761 118.871 8.45964L118.421 10.4718C118.09 10.3534 117.782 10.2824 117.451 10.1877C117.072 10.093 116.67 10.0694 116.291 10.0694C115.486 10.0694 115.084 10.2824 115.084 10.7322C115.084 10.8269 115.107 10.9216 115.131 11.0163C115.178 11.1109 115.249 11.182 115.344 11.253C115.439 11.324 115.581 11.395 115.746 11.4897C115.912 11.5844 116.149 11.6791 116.433 11.7738C116.906 11.9395 117.38 12.1525 117.806 12.3893C118.137 12.555 118.421 12.768 118.658 13.0521C118.871 13.2651 119.013 13.5255 119.108 13.8333C119.203 14.1647 119.25 14.4961 119.25 14.8275C119.297 15.6324 118.918 16.4136 118.232 16.8633C117.569 17.3131 116.622 17.5498 115.391 17.5498C114.705 17.5735 114.042 17.5025 113.379 17.3368C113 17.2421 112.645 17.1237 112.29 17.0054L112.716 14.9222C113.142 15.0879 113.592 15.2299 114.042 15.3246C114.515 15.3483 114.965 15.3956 115.439 15.3956V15.3956ZM102.395 12.7917C102.371 12.0815 102.513 11.3713 102.75 10.7085C102.963 10.1404 103.295 9.64326 103.721 9.19349C104.123 8.79106 104.573 8.48332 105.094 8.29394C105.615 8.08089 106.159 7.9862 106.703 7.9862C107.982 7.9862 109 8.38863 109.734 9.16981C110.467 9.951 110.846 11.1109 110.846 12.626C110.846 12.768 110.846 12.9337 110.822 13.1231C110.822 13.3125 110.799 13.4545 110.799 13.5965H105.023C105.07 14.0937 105.33 14.5671 105.757 14.8512C106.277 15.1826 106.893 15.3483 107.508 15.3246C107.958 15.3246 108.432 15.2773 108.881 15.2063C109.26 15.1352 109.639 15.0169 109.994 14.8512L110.349 16.9343C110.183 17.029 109.994 17.0764 109.805 17.1474C109.544 17.2184 109.284 17.2894 109.023 17.3131C108.739 17.3605 108.455 17.4078 108.124 17.4551C107.816 17.4788 107.485 17.5025 107.153 17.5025C106.419 17.5262 105.709 17.4078 105.023 17.1474C104.455 16.9343 103.958 16.6029 103.531 16.1768C103.129 15.7507 102.845 15.2299 102.656 14.6855C102.49 14.0463 102.395 13.4072 102.395 12.7917V12.7917ZM108.384 11.8211C108.384 11.6081 108.337 11.395 108.266 11.182C108.219 10.9689 108.1 10.8032 107.982 10.6375C107.84 10.4718 107.674 10.3298 107.485 10.2351C107.248 10.1167 107.011 10.0694 106.751 10.0694C106.49 10.0694 106.254 10.1167 106.017 10.2351C105.828 10.3298 105.638 10.4481 105.496 10.6138C105.354 10.7795 105.236 10.9689 105.165 11.182C105.094 11.395 105.046 11.6081 105.023 11.8211H108.384V11.8211ZM95.4591 5.95037L98.0157 5.54794V8.19925H101.093V10.3298H98.0157V13.5019C97.9921 13.9516 98.0868 14.4014 98.2998 14.7802C98.4892 15.0879 98.8679 15.2536 99.4598 15.2536C99.7438 15.2536 100.028 15.2299 100.288 15.1826C100.572 15.1352 100.833 15.0642 101.093 14.9695L101.448 16.958C101.117 17.1001 100.762 17.1947 100.407 17.2894C99.9569 17.3841 99.4834 17.4315 99.01 17.4315C98.4182 17.4551 97.8264 17.3605 97.2819 17.1474C96.8558 16.9817 96.477 16.6976 96.193 16.3662C95.9089 16.0111 95.7195 15.585 95.6012 15.1352C95.4828 14.6145 95.4354 14.07 95.4591 13.5492V5.95037V5.95037ZM85.1143 12.7917C85.0906 12.0815 85.2327 11.3713 85.4694 10.7085C85.6824 10.1404 86.0138 9.64326 86.44 9.19349C86.8424 8.79106 87.2922 8.48332 87.813 8.29394C88.3337 8.08089 88.8782 7.9862 89.4227 7.9862C90.701 7.9862 91.7189 8.38863 92.4527 9.16981C93.1866 9.951 93.5653 11.1109 93.5653 12.626C93.5653 12.768 93.5653 12.9337 93.5417 13.1231C93.518 13.3125 93.518 13.4545 93.518 13.5965H87.7183C87.7656 14.0937 88.026 14.5671 88.4521 14.8512C88.9729 15.1826 89.5884 15.3483 90.2039 15.3246C90.6536 15.3246 91.1271 15.2773 91.5769 15.2063C91.9556 15.1352 92.3344 15.0169 92.7131 14.8512L93.0682 16.9343C92.9025 17.029 92.7131 17.0764 92.5238 17.1474C92.2634 17.2184 92.003 17.2894 91.7426 17.3131C91.4585 17.3605 91.1744 17.4078 90.843 17.4551C90.5353 17.4788 90.2039 17.5025 89.8724 17.5025C89.1386 17.5262 88.4284 17.4078 87.7419 17.1474C87.1738 16.9343 86.6767 16.6029 86.2506 16.1768C85.8481 15.7507 85.5641 15.2299 85.3747 14.6855C85.1853 14.0463 85.0906 13.4072 85.1143 12.7917V12.7917ZM91.1034 11.8211C91.1034 11.6081 91.0561 11.395 90.9851 11.182C90.9377 10.9689 90.8193 10.8032 90.701 10.6375C90.5589 10.4718 90.3932 10.3298 90.2039 10.2351C89.9671 10.1167 89.7304 10.0694 89.47 10.0694C89.2096 10.0694 88.9729 10.1167 88.7362 10.2351C88.5468 10.3298 88.3811 10.4481 88.2391 10.6138C88.097 10.7795 87.9787 10.9689 87.9076 11.182C87.8366 11.395 87.7893 11.6081 87.7656 11.8211H91.1034V11.8211ZM75.4086 8.50699C75.9531 8.36495 76.5212 8.24659 77.0894 8.1519C77.7995 8.03354 78.5334 7.9862 79.2436 7.9862C79.8827 7.96252 80.5219 8.08089 81.1373 8.29394C81.6108 8.45964 82.0369 8.74371 82.3446 9.12247C82.6524 9.50123 82.8654 9.951 82.9838 10.4244C83.1258 10.9689 83.1732 11.5371 83.1732 12.1052V17.1947H80.6402V12.4366C80.6402 11.6081 80.5219 11.0399 80.3088 10.6848C80.0958 10.3534 79.6933 10.1641 79.1015 10.1641C78.9121 10.1641 78.7228 10.1641 78.5097 10.1877C78.2967 10.1877 78.131 10.2114 77.9652 10.2351V17.1947H75.4086V8.50699V8.50699ZM73.6095 10.4718C73.3728 10.4245 73.1124 10.3534 72.8047 10.3061C72.4733 10.2351 72.1418 10.2114 71.8104 10.2114C71.6211 10.2114 71.4317 10.2351 71.2186 10.2587C71.0529 10.2824 70.8872 10.3061 70.7215 10.3534V17.2421H68.1649V8.67269C68.6857 8.48332 69.2301 8.34128 69.7746 8.22292C70.4611 8.05721 71.1713 7.9862 71.8578 8.00987C72.0235 8.00987 72.1892 8.03354 72.3549 8.03354C72.5443 8.03354 72.7337 8.05721 72.9467 8.10456C73.1361 8.12823 73.3255 8.1519 73.5385 8.19925C73.7042 8.22292 73.8699 8.27027 74.0356 8.34128L73.6095 10.4718V10.4718ZM57.7254 12.7917C57.7017 12.0815 57.8437 11.3713 58.0805 10.7085C58.2935 10.1404 58.6249 9.64326 59.051 9.19349C59.4535 8.79106 59.9032 8.48332 60.424 8.29394C60.9448 8.08089 61.4893 7.9862 62.0337 7.9862C63.3121 7.9862 64.33 8.38863 65.0638 9.16981C65.7977 9.951 66.1764 11.1109 66.1764 12.6023C66.1764 12.7443 66.1764 12.91 66.1527 13.0994C66.1291 13.2888 66.1291 13.4308 66.1291 13.5729H60.3293C60.3767 14.07 60.6371 14.5434 61.0632 14.8275C61.584 15.1589 62.1995 15.3246 62.8149 15.301C63.2647 15.301 63.7382 15.2536 64.1879 15.1826C64.5667 15.1116 64.9455 14.9932 65.3005 14.8512L65.6556 16.9343C65.4899 17.029 65.3005 17.0764 65.1112 17.1474C64.8508 17.2184 64.5904 17.2894 64.33 17.3131C64.0459 17.3605 63.7618 17.4078 63.4304 17.4551C63.1227 17.4788 62.7913 17.5025 62.4599 17.5025C61.726 17.5262 61.0158 17.4078 60.3293 17.1474C59.7612 16.9343 59.2641 16.6029 58.838 16.1768C58.4356 15.7507 58.1515 15.2299 57.9621 14.6855C57.8201 14.0463 57.7254 13.4308 57.7254 12.7917V12.7917ZM63.7382 11.8211C63.7382 11.6081 63.6908 11.395 63.6198 11.182C63.5725 10.9689 63.4541 10.8032 63.3357 10.6375C63.1937 10.4718 63.028 10.3298 62.8386 10.2351C62.6019 10.1167 62.3652 10.0694 62.1048 10.0694C61.8444 10.0694 61.6076 10.1167 61.3709 10.2351C61.1815 10.3298 60.9922 10.4481 60.8501 10.6138C60.7081 10.7795 60.5897 10.9689 60.5187 11.182C60.4477 11.395 60.4004 11.6081 60.3767 11.8211H63.7382V11.8211ZM53.5827 12.6497C53.5827 10.9926 52.9672 10.1877 51.7599 10.1877C51.4995 10.1877 51.2391 10.2114 50.9788 10.2824C50.7657 10.3298 50.5527 10.4244 50.3633 10.5428V15.1826C50.4816 15.2063 50.6473 15.2299 50.8367 15.2536C51.0261 15.2773 51.2392 15.2773 51.4759 15.2773C52.0914 15.3246 52.6832 15.0642 53.0619 14.5671C53.417 13.999 53.6064 13.3362 53.5827 12.6497V12.6497ZM56.1867 12.7443C56.1867 13.4072 56.092 14.07 55.8553 14.7091C55.6659 15.2773 55.3581 15.7744 54.9557 16.2005C54.5296 16.6266 54.0325 16.958 53.488 17.1711C52.8489 17.4078 52.186 17.5025 51.4995 17.5025C51.1918 17.5025 50.8604 17.4788 50.529 17.4551C50.1976 17.4315 49.8662 17.3841 49.5347 17.3605C49.227 17.3131 48.9193 17.2658 48.6115 17.1947C48.3038 17.1474 48.0434 17.0764 47.8303 16.9817V4.31698L50.3869 3.91455V8.4123C50.671 8.29394 50.9788 8.19925 51.2865 8.12823C51.6179 8.05721 51.9493 8.03354 52.2807 8.03354C52.8725 8.03354 53.4407 8.12823 53.9851 8.38863C54.4586 8.60168 54.8847 8.93309 55.2161 9.33552C55.5712 9.7853 55.8316 10.2824 55.9736 10.8269C56.1157 11.4187 56.1867 12.0815 56.1867 12.7443V12.7443ZM45.3921 16.9107C44.8476 17.0527 44.2795 17.1711 43.7113 17.2421C43.0012 17.3605 42.2673 17.4078 41.5572 17.4078C40.8943 17.4315 40.2552 17.3131 39.6397 17.1001C39.1662 16.9107 38.7638 16.6266 38.4324 16.2479C38.1247 15.8454 37.9116 15.3956 37.7932 14.8985C37.6512 14.3541 37.6039 13.7623 37.6039 13.1941V8.19925H40.1605V12.91C40.1605 13.7386 40.2788 14.3304 40.4919 14.6855C40.705 15.0406 41.1074 15.2299 41.6992 15.2299C41.8886 15.2299 42.0779 15.2299 42.291 15.2063C42.504 15.1826 42.6698 15.1826 42.8355 15.1352V8.19925H45.3921V16.9107V16.9107ZM30.4785 11.466C30.7389 11.182 30.9756 10.8979 31.2597 10.6138C31.5201 10.3061 31.7805 10.022 32.0409 9.73795C32.3013 9.43021 32.538 9.16981 32.751 8.90942C32.9641 8.64902 33.1771 8.4123 33.3428 8.22292H36.3729C35.7574 8.90942 35.1656 9.59592 34.5975 10.2351C34.0057 10.8742 33.3902 11.5371 32.7037 12.1999C33.0824 12.555 33.4375 12.91 33.7689 13.3125C34.124 13.7386 34.4791 14.1647 34.8342 14.6381C35.1656 15.0879 35.497 15.5614 35.7811 16.0111C36.0652 16.4609 36.3019 16.887 36.4913 17.2658H33.5559C33.3665 16.958 33.1535 16.6503 32.9167 16.2952C32.68 15.9401 32.4196 15.585 32.1829 15.2063C31.9225 14.8512 31.6384 14.4961 31.3307 14.1647C31.0703 13.8569 30.7862 13.5729 30.4785 13.3361V17.2894H27.9219V4.31698L30.4785 3.91455V11.466" fill="black"/>
</svg>
