<svg width="120" height="52" viewBox="0 0 120 52" fill="none" xmlns="http://www.w3.org/2000/svg">
<path d="M36.4876 44.0029H32.4858V25.9938H36.4876V27.1455C36.9884 26.4399 38.2798 25.7629 39.6924 25.7629C43.5193 25.7629 45.6506 28.9416 45.6506 32.6512C45.6506 36.3595 43.5415 39.5095 39.7158 39.5095C38.3019 39.5095 36.9884 38.8325 36.4876 38.1255V44.0029ZM36.4876 34.7995C36.9884 35.7125 37.8076 36.3308 38.868 36.3308C40.8402 36.3308 41.9711 34.7408 41.9711 32.6512C41.9711 30.5316 40.8637 28.9416 38.8915 28.9416C37.8024 28.9416 36.9884 29.5899 36.4876 30.4729V34.7995Z" fill="black"/>
<path d="M58.9992 39.0006H54.9974V38.008C54.4966 38.8323 53.0709 39.5093 51.5396 39.5093C48.5957 39.5093 46.9927 37.5671 46.9927 34.6532V25.9936H50.4948V33.9162C50.4948 35.3001 51.1861 36.2419 52.6288 36.2419C53.7466 36.2419 54.9974 35.5649 54.9974 34.4171V25.9936H58.9992V39.0006Z" fill="black"/>
<path d="M65.0027 44.0029H61.5005V25.9938H65.0027V27.1455C65.5035 26.4399 66.8431 25.7629 68.2557 25.7629C72.0827 25.7629 74.2388 28.9416 74.2388 32.6512C74.2388 36.3595 72.0931 39.5095 68.2661 39.5095C66.8535 39.5095 65.5035 38.8325 65.0027 38.1255V44.0029ZM65.0027 34.7995C65.5035 35.7125 66.3722 36.3308 67.4314 36.3308C69.4035 36.3308 70.5592 34.7408 70.5592 32.6512C70.5592 30.5316 69.4153 28.9416 67.4431 28.9416C66.354 28.9416 65.5035 29.5899 65.0027 30.4729V34.7995Z" fill="black"/>
<path d="M79.51 44.0029H76.0078V25.9938H79.51V27.1455C80.0108 26.4399 81.3674 25.7629 82.78 25.7629C86.6069 25.7629 88.7721 28.9416 88.7721 32.6512C88.7721 36.3595 86.6134 39.5095 82.7865 39.5095C81.3739 39.5095 80.0108 38.8325 79.51 38.1255V44.0029ZM79.51 34.7995C80.0108 35.7125 80.8965 36.3308 81.9556 36.3308C83.9278 36.3308 85.0926 34.7408 85.0926 32.6512C85.0926 30.5316 83.9356 28.9416 81.9635 28.9416C80.8743 28.9416 80.0108 29.5899 79.51 30.4729V34.7995Z" fill="black"/>
<path d="M101.858 34.9986C101.387 37.5003 99.3261 39.5508 96.0287 39.5508C92.203 39.5508 89.6426 36.7334 89.6426 32.6717C89.6426 28.6973 92.3282 25.773 96.0078 25.773C99.8647 25.773 102.021 28.4417 102.021 32.2973V33.4973H93.1748C93.2921 35.4982 94.4113 36.6473 96.0287 36.6473C97.2665 36.6473 98.1782 35.999 98.473 34.9986H101.858ZM93.2621 30.9969H98.3543C98.3256 29.9964 97.5013 28.5238 96 28.5238C94.5874 28.5238 93.5856 29.4956 93.2621 30.9969" fill="black"/>
<path d="M104.522 28.9951H102.521V25.9938H104.522V22.4917H108.025V25.9938H111.026V28.9951H108.025V34.7695C108.025 35.7999 108.538 36.2708 109.48 36.2708C110.04 36.2708 110.525 36.0947 111.026 35.8299V39.0673C110.525 39.3321 109.746 39.4795 108.775 39.4795C106.097 39.4795 104.522 38.1556 104.522 35.2404V28.9951Z" fill="black"/>
<path d="M26.983 17.9902H18.9795V25.9937H26.983V17.9902Z" fill="black"/>
<path d="M14.4767 32.9969H11.9749V30.4951H14.4767V32.9969ZM17.478 27.4952H8.97363V35.9995H17.478V27.4952Z" fill="black"/>
<path d="M19.1522 20.022L14.0991 14.9689L16.0504 13.0176L21.1035 18.0707L19.1522 20.022Z" fill="black"/>
<path d="M17.3971 29.439L15.4458 27.4877L19.4449 23.4885L21.3962 25.4398L17.3971 29.439Z" fill="black"/>
<path d="M14.4767 13.4874H11.9749V10.9857H14.4767V13.4874ZM17.478 7.9844H8.97363V16.4888H17.478V7.9844Z" fill="black"/>
</svg>
