<svg width="120" height="18" viewBox="0 0 120 18" fill="none" xmlns="http://www.w3.org/2000/svg">
<path d="M19.942 11.6144H23.733L21.8629 5.79028L19.942 11.6144ZM20.146 2.40625H23.6455L28.8822 17.208H25.5283L24.5516 14.1655H19.1008L18.0974 17.208H14.8623" fill="#101010"/>
<path d="M30.2896 2.40625H33.3826V14.547H40.7734V17.208H30.2896" fill="#101010"/>
<path d="M50.5632 2.40625V5.0272H46.135V17.208H43.022V5.0272H38.5732V2.40625" fill="#101010"/>
<path d="M75.8166 2.40625V5.0272H71.3882V17.208H68.2751V5.0272H63.8267V2.40625" fill="#101010"/>
<path d="M79.544 11.6144H83.3348L81.465 5.79028L79.544 11.6144ZM79.748 2.40625H83.2471L88.4843 17.208H85.1301L84.1534 14.1655H78.7028L77.6994 17.208H74.4644" fill="#101010"/>
<path d="M90.6898 4.04726C91.8559 2.80427 93.3595 2.16292 95.2008 2.1245C97.6639 2.07259 99.4818 2.85177 100.655 4.46098C101.304 5.36448 101.66 6.27784 101.726 7.20055L98.6341 7.26544C98.4228 6.56024 98.1589 6.02971 97.8433 5.67491C97.2785 5.04368 96.4552 4.74 95.3736 4.76258C94.2718 4.78568 93.4127 5.25703 92.796 6.17766C92.1788 7.09803 91.8879 8.38774 91.9224 10.0478C91.9577 11.7077 92.319 12.9439 93.0076 13.756C93.6959 14.569 94.5576 14.9643 95.5922 14.9427C96.6527 14.9204 97.4534 14.5487 97.9954 13.8277C98.2951 13.4394 98.5383 12.8616 98.725 12.0947L101.798 12.0303C101.566 13.6488 100.917 14.9749 99.8486 16.0082C98.7808 17.0417 97.3961 17.5764 95.6944 17.6122C93.589 17.6563 91.919 17.0085 90.6851 15.6684C89.4512 14.3213 88.8093 12.4531 88.759 10.0642C88.7052 7.48035 89.3484 5.47505 90.6898 4.04726Z" fill="#101010"/>
<path d="M103.611 2.40625H106.654V8.50493L112.373 2.40625H116.369L110.296 8.49377L116.681 17.208H112.704L108.144 10.7469L106.654 12.2573V17.208H103.611" fill="#101010"/>
<path d="M6.22656 4.96153C6.69921 4.68822 7.30552 4.54521 8.05848 4.54521C8.79301 4.54521 9.40711 4.66901 9.90129 4.91663C10.6423 5.29168 11.0405 5.92446 11.0955 6.81473H14.0679C14.0136 5.24158 13.4291 4.04168 12.3143 3.21449C11.1993 2.38807 9.8525 1.97461 8.27365 1.97461C7.51679 1.97461 6.83677 2.04832 6.22656 2.18874" fill="#101010"/>
<path d="M13.2162 9.85713C12.648 9.40915 11.7946 9.05071 10.6562 8.78285L8.05863 8.17005C7.0565 7.93593 6.40087 7.73218 6.09201 7.55751C5.61184 7.29666 5.37149 6.90188 5.37149 6.37265C5.37149 6.32412 5.38343 6.28181 5.38681 6.23535H2.52655C2.51824 6.35345 2.50968 6.47154 2.50968 6.59353C2.50968 8.0465 3.00828 9.1143 4.00599 9.79718C4.59491 10.2055 5.67673 10.5839 7.25168 10.9317L8.85441 11.2834C9.79217 11.484 10.4771 11.7147 10.9095 11.9761C11.3412 12.2442 11.5571 12.6221 11.5571 13.1106C11.5571 13.9479 11.1164 14.5202 10.2344 14.8281C9.76959 14.9885 9.16484 15.0692 8.41992 15.0692C7.17589 15.0692 6.29757 14.7645 5.7847 14.1553C5.50464 13.8207 5.31673 13.3151 5.22095 12.6387H2.26855C2.26855 14.1784 2.82685 15.3887 3.94344 16.2688C5.06003 17.1492 6.59242 17.5894 8.54114 17.5894C10.4494 17.5894 11.9259 17.1427 12.9714 16.2491C14.0169 15.3552 14.5396 14.2319 14.5396 12.8801C14.5396 11.5608 14.0987 10.5535 13.2162 9.85713Z" fill="#101010"/>
<path d="M54.7314 5.06553C55.2043 4.79222 55.8107 4.64947 56.5636 4.64947C57.2979 4.64947 57.912 4.77302 58.4064 5.02089C59.1472 5.39568 59.5456 6.02873 59.6006 6.91899H62.573C62.5185 5.34585 61.934 4.14568 60.8192 3.31849C59.7042 2.49208 58.3576 2.07861 56.7785 2.07861C56.0217 2.07861 55.3417 2.15233 54.7314 2.29274" fill="#101010"/>
<path d="M61.7213 9.9614C61.1532 9.51315 60.2998 9.15471 59.1614 8.88685L56.564 8.27431C55.5616 8.0402 54.9063 7.83619 54.5974 7.66151C54.117 7.40066 53.8766 7.00614 53.8766 6.47666C53.8766 6.42812 53.8886 6.38582 53.8919 6.33936H51.0317C51.0234 6.45771 51.0148 6.57581 51.0148 6.6978C51.0148 8.15051 51.5134 9.2183 52.5111 9.90118C53.1 10.3095 54.1821 10.6879 55.7571 11.0357L57.3596 11.3874C58.2973 11.5883 58.9825 11.819 59.4147 12.0804C59.8463 12.3482 60.0625 12.7261 60.0625 13.2149C60.0625 14.0519 59.6216 14.6242 58.7396 14.9321C58.275 15.0925 57.6702 15.1732 56.9251 15.1732C55.681 15.1732 54.8027 14.8685 54.2901 14.2593C54.01 13.9247 53.8219 13.4191 53.7261 12.7428H50.7739C50.7739 14.2827 51.332 15.4927 52.4486 16.3728C53.5652 17.2535 55.0978 17.6934 57.0465 17.6934C58.9545 17.6934 60.4314 17.2467 61.4766 16.3531C62.5221 15.4595 63.0448 14.3361 63.0448 12.9841C63.0448 11.6651 62.6038 10.6575 61.7213 9.9614Z" fill="#101010"/>
<path d="M0 3.91949H3.91949V0H0V3.91949Z" fill="#101010"/>
<path d="M119.062 16.0352C119.041 16.0552 119.015 16.0705 118.983 16.0819C118.951 16.0931 118.914 16.0985 118.873 16.0985H118.631V15.6448H118.871C118.916 15.6448 118.954 15.65 118.986 15.6609C119.018 15.6718 119.045 15.6874 119.065 15.7074C119.085 15.7276 119.1 15.7517 119.11 15.78C119.12 15.8083 119.125 15.8397 119.125 15.8745C119.125 15.9072 119.12 15.9373 119.11 15.9646C119.099 15.9918 119.083 16.0155 119.062 16.0352ZM119.295 16.0915C119.339 16.0305 119.361 15.9547 119.361 15.8641C119.361 15.7972 119.35 15.7382 119.328 15.6874C119.306 15.6365 119.274 15.5939 119.233 15.5597C119.191 15.5252 119.14 15.4992 119.078 15.4816C119.018 15.4636 118.949 15.4551 118.871 15.4551H118.396V16.8089H118.631V16.2872H118.893L119.164 16.8089H119.416V16.797L119.112 16.2324C119.19 16.1995 119.251 16.1525 119.295 16.0915Z" fill="#101010"/>
<path d="M118.856 17.0904C118.33 17.0904 117.902 16.6624 117.902 16.1365C117.902 15.6107 118.33 15.1829 118.856 15.1829C119.382 15.1829 119.81 15.6107 119.81 16.1365C119.81 16.6624 119.382 17.0904 118.856 17.0904ZM118.856 14.9927C118.225 14.9927 117.711 15.5058 117.711 16.1365C117.711 16.7675 118.225 17.2806 118.856 17.2806C119.487 17.2806 120 16.7675 120 16.1365C120 15.5058 119.487 14.9927 118.856 14.9927Z" fill="#101010"/>
</svg>
