<svg width="120" height="42" viewBox="0 0 120 42" fill="none" xmlns="http://www.w3.org/2000/svg">
<path d="M29.1984 9.25717C29.9673 9.06409 29.5341 10.1471 30.1581 10.4608C32.5049 11.3315 33.2641 8.54541 34.3594 5.62727C34.52 5.03969 34.0785 4.87382 33.957 5.2885C32.9517 7.6805 32.031 10.6495 30.4855 9.34318C30.0195 7.50453 29.7882 5.63692 29.7961 3.74518C33.6068 3.78467 31.1538 4.2564 34.4923 2.25232L36.0028 4.66494C36.1757 4.89488 36.3977 4.94271 36.679 4.7707C41.2159 2.18518 47.5608 4.12476 46.8639 10.9159C50.9664 13.0244 55.069 13.7937 59.1715 13.5879C60.4524 13.5242 59.8442 13.5958 59.1789 13.7853C51.7919 15.8908 43.1305 25.8691 43.0252 32.1191C41.979 28.5068 39.4427 25.4022 36.1458 22.9417C35.7408 22.6486 35.2085 23.1361 35.8136 23.6434C43.546 31.0331 22.8944 33.1969 25.35 28.4537C25.4523 28.2676 25.246 28.2637 25.1578 28.3602C20.0153 33.1964 18.9029 28.2769 24.0002 25.8954C24.3302 25.7321 24.1709 25.5057 23.7488 25.5435C22.6065 25.6891 21.7723 27.261 21.1325 26.407C18.9964 23.693 21.2164 17.4596 24.7194 17.3169C25.0341 17.2818 25.2434 17.0769 24.8265 17.0405C17.9305 16.8496 22.7031 11.6746 25.9911 14.5089C26.3492 14.7253 26.6318 14.4532 26.2408 14.1294C24.7365 13.5598 28.1879 9.51081 29.1984 9.25717Z" stroke="black" stroke-width="0.2"/>
<path d="M47.065 32.6691C47.2419 33.115 47.0835 31.3904 48.3731 30.6501C52.7227 26.5266 56.4606 22.209 59.1663 17.4176C60.7943 16.9564 61.2691 16.0511 60.3059 16.2837C54.9322 18.1728 46.5876 28.6039 47.065 32.6691Z" stroke="black" stroke-width="0.2"/>
<path d="M51.9063 32.0685C52.0494 32.4178 51.9651 31.2817 53.0056 30.6384C56.6644 27.274 59.9222 23.4817 61.9728 19.4538C63.2866 19.0203 63.5144 18.3322 62.7372 18.5569C58.5895 20.349 51.8774 28.9674 51.9063 32.0685Z" stroke="black" stroke-width="0.2"/>
<path d="M31.7899 3.03085L34.9915 0.999998L36.4659 4.26656C41.3237 1.91537 44.814 2.6482 46.9383 6.46635L49.6077 4.94848L51.4419 9.10496C48.5764 9.74125 48.6677 8.47351 47.4987 9.29936C47.5439 9.79522 47.5527 10.2828 47.4785 10.7786C52.9773 12.6111 56.2852 13.2768 61.4364 12.3369C74.8748 10.0901 53.9919 39.5449 44.5797 36.1326C40.7308 34.122 42.1855 30.8225 39.0444 27.337C38.7311 27.0307 38.6833 27.8622 37.9399 28.542C40.414 30.4504 37.6608 32.3816 35.748 30.3854C35.0569 30.7536 34.2179 31.0551 33.331 31.217C34.468 31.9441 34.9643 32.9832 34.4746 34.4932C37.2448 37.0629 34.6146 40.8921 31.3305 41C33.5869 39.9144 33.8668 37.611 32.707 36.4604C26.1616 37.5189 23.9522 31.7006 31.0645 32.2596C30.6336 32.0271 30.2953 31.751 30.0816 31.4755C27.5237 31.5211 25.3603 31.2293 23.7354 30.213C19.9708 32.6914 16.9684 30.715 20.7308 27.534C18.4468 25.4215 19.6509 19.7845 22.4821 17.2714C17.4375 16.1541 20.9099 11.8616 25.0624 13.3505C26.116 11.4544 27.6089 9.75661 29.2263 8.25146L28.3443 2.81934L31.7899 3.03085Z" stroke="black" stroke-width="0.2"/>
<path d="M63.7287 14.4552C65.839 16.4277 63.3053 22.4921 58.0697 28.0011C52.8342 33.5095 46.879 36.3755 44.7687 34.4025C42.6585 32.43 45.1918 26.3651 50.4277 20.8567C55.6633 15.3482 61.6185 12.4823 63.7287 14.4552Z" stroke="black" stroke-width="0.2"/>
<path d="M31.1388 34.8898C32.2209 35.0135 32.3447 35.9851 30.7812 35.9649C26.9345 35.6072 27.1219 33.109 29.1624 32.6663C33.0508 32.2463 37.1519 37.2405 33.3325 40.0814C33.1565 40.1797 33.1144 40.1503 33.2193 40.0178C35.2931 37.6719 32.5 33.5022 30.1142 33.6839C29.2962 33.7357 29.1742 34.6686 31.1388 34.8898Z" stroke="black" stroke-width="0.2"/>
<path d="M32.3753 32.5927C31.4999 32.1947 32.7229 31.7884 33.4631 32.1342C33.9959 32.3962 34.1938 33.0474 34.1016 33.8192C33.9717 34.4704 33.776 33.2299 32.3753 32.5927Z" stroke="black" stroke-width="0.2"/>
<path d="M37.6053 29.3828C37.9243 29.3828 38.1828 29.6307 38.1828 29.937C38.1828 30.2428 37.9243 30.4912 37.6053 30.4912C37.2863 30.4912 37.0278 30.2428 37.0278 29.937C37.0278 29.6307 37.2863 29.3828 37.6053 29.3828Z" stroke="black" stroke-width="0.2"/>
<path d="M33.6983 26.4657C33.5951 26.7378 33.998 26.9449 34.1911 26.6689C34.4447 26.3051 34.3964 26.148 34.7993 25.9452C35.0928 25.7974 35.1591 25.4112 34.6299 25.5371C34.0032 25.6859 33.8672 26.019 33.6983 26.4657Z" stroke="black" stroke-width="0.2"/>
<path d="M47.3018 6.76048C47.8946 6.54677 48.5164 5.98465 49.1909 5.86222C49.5288 6.81621 49.9391 7.76318 50.5271 8.69522C49.7052 8.79835 49.075 8.56665 48.6064 8.05192C48.4365 7.79872 48.3501 7.84216 48.3084 8.12959C48.2492 8.53593 48.0069 8.61931 47.7248 8.65836C47.7217 7.93344 47.5646 7.31207 47.3018 6.76048Z" stroke="black" stroke-width="0.2"/>
<path d="M40.6042 7.53177C40.4068 7.80252 40.7126 8.03202 40.9627 7.81305C42.4745 5.69444 43.6136 5.88708 43.6369 8.20843C42.6855 8.02412 42.0155 9.78378 42.8071 10.1778C43.1327 10.302 43.1818 9.94044 43.0673 9.87725C42.768 9.68768 42.8102 9.27563 43.227 8.61872C43.3508 8.41379 43.769 8.59283 43.2911 9.45686C43.0739 9.70392 43.2639 9.92377 43.5189 9.72586C43.8431 9.50821 43.955 9.04876 43.9542 8.54851C44.3772 8.88465 44.7818 8.80259 45.1938 8.30233C45.3242 8.14041 45.1346 7.88809 44.9424 7.9741C44.7278 8.11277 44.1872 8.92853 44.1209 8.20228C44.1876 4.54825 42.729 5.18717 40.6042 7.53177Z" stroke="black" stroke-width="0.2"/>
<path d="M44.934 10.1785C44.7515 7.73206 47.2282 9.41624 45.0394 10.264C44.9678 10.2737 44.9459 10.2798 44.934 10.1785Z" stroke="black" stroke-width="0.2"/>
<path d="M45.2346 9.95677C45.0187 8.88474 46.0649 9.38675 45.2798 9.98485C45.253 9.99626 45.2451 10.0011 45.2346 9.95677Z" stroke="black" stroke-width="0.2"/>
<path fill-rule="evenodd" clip-rule="evenodd" d="M66.9596 27.0071H64.1367L64.4346 26.1347C64.5742 25.7271 64.6264 25.466 64.593 25.3541C64.5597 25.2422 64.4574 25.1877 64.2872 25.1877C64.1051 25.1877 63.9414 25.2628 63.7961 25.4137C63.6513 25.5629 63.5263 25.7916 63.4218 26.0974C63.288 26.4902 63.238 26.7886 63.2757 26.9873C63.3091 27.1866 63.5162 27.4253 63.89 27.7079C64.9669 28.5184 65.5905 29.1819 65.766 29.7014C65.9411 30.221 65.8296 31.0587 65.4351 32.2145C65.1481 33.0549 64.8383 33.6736 64.5075 34.0716C64.177 34.4696 63.6856 34.8044 63.0365 35.0734C62.3853 35.3416 61.6903 35.478 60.9482 35.478C60.1346 35.478 59.4931 35.3218 59.0244 35.0107C58.554 34.7 58.3118 34.3051 58.2982 33.825C58.285 33.3432 58.429 32.6621 58.7313 31.777L58.9942 31.0065H61.8171L61.3274 32.4405C61.176 32.8833 61.1189 33.1663 61.1545 33.2932C61.1935 33.4173 61.312 33.4823 61.5138 33.4823C61.7161 33.4823 61.8934 33.4029 62.0475 33.2409C62.2002 33.0821 62.3314 32.8434 62.4389 32.5279C62.6758 31.8341 62.7373 31.3795 62.6232 31.1658C62.5038 30.9521 62.1493 30.5962 61.5656 30.0972C60.982 29.5895 60.6064 29.2244 60.4379 28.9958C60.272 28.7672 60.175 28.4512 60.1522 28.0484C60.1272 27.646 60.2242 27.1313 60.4379 26.5051C60.7459 25.6029 61.0851 24.9416 61.4572 24.5238C61.8267 24.1065 62.3077 23.7809 62.8983 23.5448C63.4885 23.3109 64.1454 23.1916 64.8677 23.1916C65.6594 23.1916 66.2882 23.321 66.7555 23.5768C67.2242 23.8353 67.4813 24.1587 67.5296 24.5515C67.5761 24.9416 67.4383 25.6051 67.1184 26.5424L66.9596 27.0071ZM76.1748 23.4404L72.1486 35.2297H69.4837L69.7312 29.8704L67.9013 35.2297H65.3596L69.3858 23.4404H71.9274L71.8199 28.7501L73.6331 23.4404H76.1748ZM81.9847 30.343C81.5801 31.5291 81.2668 32.3659 81.0443 32.8583C80.8188 33.3528 80.4927 33.8026 80.0627 34.2103C79.6322 34.6184 79.1311 34.9313 78.561 35.1502C77.9906 35.3688 77.374 35.478 76.7158 35.478C76.0896 35.478 75.563 35.3736 75.1356 35.1673C74.7056 34.9611 74.4116 34.653 74.2492 34.2406C74.0869 33.8276 74.0605 33.3778 74.1667 32.893C74.2764 32.4059 74.5375 31.5559 74.9518 30.343L75.6398 28.3271C76.0449 27.1414 76.3582 26.3037 76.5837 25.8091C76.8058 25.3168 77.1323 24.867 77.5649 24.4593C77.995 24.0517 78.4939 23.7383 79.0666 23.5198C79.6366 23.3017 80.2509 23.1916 80.9114 23.1916C81.5375 23.1916 82.0641 23.296 82.4915 23.5027C82.9189 23.7089 83.2156 24.0174 83.3779 24.4295C83.5403 24.842 83.5666 25.2922 83.4578 25.7766C83.3507 26.2646 83.0883 27.1115 82.6732 28.3271L81.9847 30.343ZM80.2676 26.4704C80.4554 25.921 80.5454 25.5704 80.5366 25.4164C80.5291 25.2645 80.4322 25.1877 80.2448 25.1877C80.0846 25.1877 79.9424 25.2496 79.8161 25.3742C79.6884 25.4958 79.5216 25.8618 79.3136 26.4704L77.4342 31.9736C77.2003 32.6595 77.0853 33.0821 77.0853 33.2409C77.0844 33.4029 77.188 33.4823 77.3898 33.4823C77.597 33.4823 77.7593 33.3901 77.8809 33.2063C78.0016 33.0198 78.1806 32.5827 78.418 31.8863L80.2676 26.4704ZM85.4759 23.4404H87.6283C89.0628 23.4404 90.0155 23.4948 90.485 23.6067C90.955 23.7186 91.2714 24.0047 91.4355 24.4624C91.5992 24.9218 91.5097 25.6525 91.1661 26.6591C90.8528 27.5762 90.5289 28.1928 90.1941 28.5083C89.8619 28.8247 89.3516 29.0129 88.6644 29.0752C89.2142 29.2271 89.5526 29.4285 89.6728 29.6817C89.7917 29.9327 89.8435 30.1639 89.8207 30.375C89.8 30.5865 89.6263 31.168 89.3011 32.1202L88.2392 35.2297H85.4167L86.7542 31.3123C86.9701 30.6809 87.0513 30.2908 87.0048 30.1394C86.9569 29.9902 86.7244 29.9129 86.3079 29.9129L84.4921 35.2297H81.4502L85.4759 23.4404ZM87.8298 25.4563L86.9341 28.0782C87.2742 28.0782 87.5296 28.0313 87.6999 27.9369C87.8701 27.8422 88.0448 27.5341 88.2221 27.0145L88.4428 26.3682C88.5709 25.993 88.5876 25.7494 88.4941 25.6327C88.4011 25.5155 88.1799 25.4563 87.8298 25.4563ZM99.5646 23.4404L98.7594 25.799H96.9545L93.734 35.2297H90.6948L93.9153 25.799H92.1152L92.9209 23.4404H99.5646Z" fill="#6C6C6C" stroke="#373737" stroke-width="0.216"/>
<path d="M67.9872 23.3874C68.4738 23.8898 68.1412 22.433 69.5327 22.4751H71.6965C72.6373 22.4931 72.4737 22.899 72.7326 22.9025C72.9774 22.8902 72.8111 22.4747 73.6041 22.4843H76.0281C77.3634 22.5738 76.9092 23.5313 77.3744 23.3887C78.6878 21.8704 83.2778 21.87 84.087 23.7542C84.4718 24.2361 84.0975 22.6094 85.4271 22.4751C87.9758 22.5392 90.8913 22.1508 91.5767 23.1596C91.9813 23.5388 91.8742 22.5558 92.9349 22.4589L99.5075 22.4918C100.314 22.4685 100.679 23.1632 100.443 23.9412L99.6883 26.1634C99.5435 26.6017 99.2916 26.8589 98.8971 26.8738L97.6478 26.8804L94.9991 34.8577C94.7603 35.7485 94.3895 36.2509 93.8257 36.1864L90.5982 36.2017C89.545 35.9613 89.7082 35.1692 89.9943 34.2749L92.3898 27.1024C92.4798 26.8102 92.1994 26.7395 92.1257 27.0041C91.8747 27.8932 91.575 28.7458 90.8443 29.2851C90.7166 29.404 90.6899 29.5466 90.8119 29.7252C91.266 30.4677 90.011 33.3003 89.3888 35.3636C89.2198 35.9323 88.5677 36.196 88.0293 36.1947L81.5493 36.1781C80.4667 36.0907 80.7261 35.1117 80.156 35.4281C78.9041 36.569 75.2992 37.2251 73.7383 35.2012C73.2043 34.4017 73.5211 36.0179 72.5505 36.2154L69.4353 36.2768C69.0158 36.2452 68.9881 35.7726 68.7047 35.9529C68.5932 36.0236 68.5063 36.2167 67.9911 36.2562L65.4004 36.2509C64.4148 36.0846 64.7307 35.3755 64.3103 35.5668C62.2505 37.2264 56.2335 36.7143 57.5087 32.7039C58.3108 29.9999 57.9242 29.9275 59.7146 29.9293C60.4676 29.9806 58.2858 29.2618 59.4842 25.9931C60.608 21.5996 66.6663 21.3412 67.9872 23.3874Z" stroke="#1B1918" stroke-width="0.216"/>
<path d="M65.9697 28.1094C66.0061 28.0931 66.7833 28.1028 66.7833 28.1028L66.531 28.7549C66.3998 28.5175 66.2093 28.3033 65.9697 28.1094Z" stroke="black" stroke-width="0.2"/>
<path fill-rule="evenodd" clip-rule="evenodd" d="M63.0566 22.4248C66.6053 16.5815 67.3978 11.3403 61.4364 12.3369C56.2852 13.2768 52.9773 12.6111 47.4785 10.7786C47.5527 10.2828 47.5439 9.79523 47.4987 9.29936C48.6677 8.47351 48.5764 9.74125 51.4419 9.10497L49.6077 4.94848L46.9383 6.46635C44.814 2.6482 41.3237 1.91537 36.466 4.26656L34.9915 1L31.7899 3.03085L28.3443 2.81934L29.2263 8.25146C27.6089 9.75661 26.116 11.4544 25.0624 13.3505C20.9099 11.8616 17.4375 16.1541 22.4821 17.2714C19.6509 19.7845 18.4468 25.4215 20.7308 27.534C16.9684 30.715 19.9708 32.6914 23.7354 30.213C25.3603 31.2293 27.5237 31.5211 30.0816 31.4755C30.2953 31.751 30.6336 32.0271 31.0645 32.2596C23.9522 31.7006 26.1616 37.5189 32.707 36.4604C33.8668 37.611 33.5869 39.9144 31.3305 41C34.6146 40.8921 37.2449 37.0629 34.4746 34.4932C34.9643 32.9832 34.468 31.9441 33.331 31.217C34.2179 31.0551 35.0569 30.7536 35.748 30.3854C37.6609 32.3816 40.414 30.4504 37.9399 28.542C38.6833 27.8622 38.7311 27.0307 39.0444 27.337C42.1855 30.8225 40.7308 34.122 44.5797 36.1326C48.5326 37.5654 54.5093 33.2013 59.1168 27.8232C59.1173 27.4892 59.162 27.1075 59.2726 26.6717C58.8895 27.1162 58.4885 27.5608 58.0698 28.0009C52.8352 33.5081 46.8787 36.3749 44.7688 34.4024C42.659 32.4299 45.1927 26.3641 50.4278 20.8565C55.6625 15.3493 61.6186 12.4821 63.7288 14.455C65.1743 15.8062 64.4401 19.0793 62.1508 22.7772C62.444 22.6346 62.7481 22.5174 63.0566 22.4248ZM59.1717 13.5879C60.4526 13.5243 59.8444 13.5954 59.1792 13.7854C51.7921 15.8908 43.1307 25.8691 43.0254 32.1192C41.9793 28.5069 39.4429 25.4022 36.1461 22.9418C35.741 22.6486 35.2087 23.1362 35.8139 23.6434C43.5463 31.0331 22.8946 33.1969 25.3503 28.4538C25.4525 28.2677 25.2458 28.2638 25.1581 28.3603C20.0155 33.1965 18.9031 28.2769 24.0005 25.8955C24.3304 25.7322 24.1712 25.5058 23.749 25.5435C22.6068 25.6892 21.7726 27.2611 21.1328 26.4071C18.9966 23.693 21.2166 17.4596 24.7197 17.317C25.0343 17.2819 25.2436 17.077 24.8267 17.0405C17.9307 16.8497 22.7037 11.6747 25.9914 14.509C26.3494 14.7253 26.632 14.4533 26.2415 14.1294C24.7368 13.5598 28.1881 9.51087 29.1987 9.25724C29.9675 9.06416 29.5344 10.1472 30.1584 10.4609C32.5052 11.3315 33.2643 8.54547 34.3596 5.62733C34.5202 5.03976 34.0788 4.87388 33.9572 5.28857C32.9519 7.68056 32.0313 10.6496 30.4857 9.34324C30.0197 7.5046 29.7885 5.63699 29.7964 3.74524C33.6071 3.78474 31.1541 4.25647 34.4926 2.25239L36.003 4.66501C36.1759 4.89495 36.3979 4.94278 36.6792 4.77076C41.2162 2.18525 47.561 4.12482 46.8642 10.916C50.9662 13.0245 55.0692 13.7937 59.1717 13.5879ZM50.527 8.69511C49.7051 8.79823 49.0749 8.56654 48.6063 8.0518C48.4365 7.7986 48.35 7.84205 48.3083 8.12947C48.2491 8.53582 48.0069 8.61919 47.7247 8.65825C47.7216 7.93332 47.5645 7.31196 47.3017 6.76036C47.8945 6.54666 48.5163 5.98453 49.1908 5.8621C49.5287 6.81609 49.939 7.76306 50.527 8.69511ZM37.6056 29.3827C37.9246 29.3827 38.183 29.6311 38.183 29.937C38.183 30.2428 37.9246 30.4912 37.6056 30.4912C37.2865 30.4912 37.0281 30.2428 37.0281 29.937C37.0281 29.6311 37.2865 29.3827 37.6056 29.3827ZM32.3753 32.5927C31.4998 32.1947 32.7228 31.7883 33.4631 32.1341C33.9958 32.3961 34.1938 33.0473 34.1016 33.8192C33.9717 34.4704 33.776 33.2299 32.3753 32.5927ZM29.1623 32.6664C33.0506 32.2465 37.1518 37.2406 33.3324 40.0816C33.1564 40.1799 33.1143 40.1504 33.2191 40.0179C35.293 37.672 32.4999 33.5024 30.1141 33.684C29.2961 33.7358 29.1741 34.6687 31.1387 34.8899C32.2208 35.0136 32.3446 35.9852 30.7811 35.965C26.9344 35.6074 27.1218 33.1092 29.1623 32.6664Z" fill="#1B1918"/>
<path d="M63.0566 22.4248C66.6053 16.5815 67.3978 11.3403 61.4364 12.3369C56.2852 13.2768 52.9774 12.6111 47.4785 10.7786C47.5527 10.2828 47.5439 9.79522 47.4987 9.29936C48.6677 8.47351 48.5764 9.74125 51.4419 9.10496L49.6077 4.94848L46.9383 6.46635C44.814 2.6482 41.3237 1.91537 36.4659 4.26656L34.9915 0.999998L31.7899 3.03085L28.3443 2.81934L29.2263 8.25146C27.6089 9.75661 26.116 11.4544 25.0624 13.3505C20.9099 11.8616 17.4375 16.1541 22.4821 17.2714C19.6509 19.7845 18.4468 25.4215 20.7308 27.534C16.9684 30.715 19.9708 32.6914 23.7354 30.213C25.3603 31.2293 27.5237 31.5211 30.0816 31.4755C30.2953 31.751 30.6336 32.0271 31.0645 32.2596C23.9522 31.7006 26.1616 37.5189 32.707 36.4604C33.8668 37.611 33.5869 39.9144 31.3305 41C34.6146 40.8921 37.2449 37.0629 34.4746 34.4932C34.9643 32.9832 34.468 31.9441 33.331 31.217C34.2179 31.0551 35.0569 30.7536 35.748 30.3854C37.6609 32.3816 40.414 30.4504 37.9399 28.542C38.6833 27.8622 38.7311 27.0307 39.0444 27.337C42.1855 30.8225 40.7308 34.122 44.5797 36.1326C48.5326 37.5654 54.5093 33.2013 59.1169 27.8232C59.1173 27.4892 59.162 27.1075 59.2726 26.6717C58.8895 27.1162 58.4885 27.5608 58.0698 28.0009C52.8352 33.5081 46.8787 36.3749 44.7688 34.4024C42.659 32.4299 45.1927 26.3641 50.4278 20.8565C55.6625 15.3493 61.6186 12.4821 63.7288 14.455C65.1743 15.8062 64.4401 19.0793 62.1508 22.7772C62.444 22.6346 62.7481 22.5174 63.0566 22.4248ZM59.1717 13.5879C60.4526 13.5243 59.8444 13.5954 59.1792 13.7854C51.7921 15.8908 43.1307 25.8691 43.0254 32.1192C41.9793 28.5069 39.4429 25.4022 36.1461 22.9418C35.741 22.6486 35.2087 23.1362 35.8139 23.6434C43.5463 31.0331 22.8946 33.1969 25.3503 28.4538C25.4525 28.2677 25.2458 28.2638 25.1581 28.3603C20.0155 33.1965 18.9031 28.2769 24.0005 25.8955C24.3304 25.7322 24.1712 25.5058 23.749 25.5435C22.6068 25.6892 21.7726 27.2611 21.1328 26.4071C18.9966 23.693 21.2166 17.4596 24.7197 17.317C25.0343 17.2819 25.2436 17.077 24.8267 17.0405C17.9307 16.8497 22.7037 11.6747 25.9914 14.509C26.3494 14.7253 26.632 14.4533 26.2415 14.1294C24.7368 13.5598 28.1881 9.51087 29.1987 9.25723C29.9675 9.06415 29.5344 10.1472 30.1584 10.4609C32.5052 11.3315 33.2643 8.54547 34.3596 5.62733C34.5202 5.03976 34.0788 4.87388 33.9572 5.28857C32.9519 7.68056 32.0313 10.6496 30.4857 9.34324C30.0197 7.5046 29.7885 5.63699 29.7964 3.74524C33.6071 3.78474 31.1541 4.25647 34.4926 2.25238L36.003 4.66501C36.1759 4.89495 36.3979 4.94278 36.6792 4.77076C41.2162 2.18525 47.561 4.12482 46.8642 10.916C50.9662 13.0245 55.0692 13.7937 59.1717 13.5879ZM50.527 8.69511C49.7051 8.79823 49.0749 8.56653 48.6063 8.0518C48.4365 7.7986 48.35 7.84205 48.3083 8.12947C48.2491 8.53582 48.0069 8.61919 47.7247 8.65825C47.7216 7.93332 47.5645 7.31195 47.3017 6.76036C47.8945 6.54666 48.5163 5.98453 49.1908 5.8621C49.5287 6.81609 49.939 7.76306 50.527 8.69511ZM37.6056 29.3827C37.9246 29.3827 38.183 29.6311 38.183 29.937C38.183 30.2428 37.9246 30.4912 37.6056 30.4912C37.2865 30.4912 37.0281 30.2428 37.0281 29.937C37.0281 29.6311 37.2865 29.3827 37.6056 29.3827ZM32.3753 32.5927C31.4998 32.1947 32.7228 31.7883 33.4631 32.1341C33.9958 32.3961 34.1938 33.0473 34.1016 33.8192C33.9717 34.4704 33.776 33.2299 32.3753 32.5927ZM29.1623 32.6664C33.0506 32.2465 37.1518 37.2406 33.3324 40.0816C33.1564 40.1798 33.1143 40.1504 33.2191 40.0179C35.293 37.672 32.4999 33.5024 30.1141 33.684C29.2961 33.7358 29.1741 34.6687 31.1387 34.8899C32.2208 35.0136 32.3446 35.9852 30.7811 35.965C26.9344 35.6074 27.1218 33.1092 29.1623 32.6664Z" stroke="#1B1918" stroke-width="0.216"/>
<path fill-rule="evenodd" clip-rule="evenodd" d="M67.9872 23.3874C67.253 22.2504 65.0568 21.8248 63.0566 22.4251C62.7394 22.9477 62.3997 23.4752 62.0412 24.0039C62.2948 23.8245 62.581 23.6717 62.8982 23.5449C63.4884 23.311 64.1453 23.1917 64.8676 23.1917C65.6593 23.1917 66.2881 23.3211 66.7554 23.577C67.2241 23.8354 67.4812 24.1588 67.5295 24.5516C67.576 24.9417 67.4382 25.6052 67.1183 26.5425L66.9595 27.0072H64.1366L64.4345 26.1348C64.5741 25.7272 64.6263 25.4661 64.5929 25.3542C64.5596 25.2423 64.4573 25.1879 64.2871 25.1879C64.105 25.1879 63.9413 25.2629 63.796 25.4139C63.6512 25.5631 63.5262 25.7917 63.4217 26.0975C63.2879 26.4903 63.2379 26.7887 63.2756 26.9875C63.309 27.1867 63.5161 27.4254 63.8899 27.708C64.9668 28.5185 65.5904 29.182 65.7659 29.7015C65.941 30.2211 65.8295 31.0588 65.435 32.2147C65.148 33.055 64.8382 33.6737 64.5074 34.0717C64.1769 34.4697 63.6855 34.8046 63.0364 35.0735C62.3852 35.3417 61.6902 35.4781 60.9481 35.4781C60.1345 35.4781 59.493 35.3219 59.0243 35.0108C58.5539 34.7001 58.3117 34.3052 58.2981 33.8251C58.2849 33.3433 58.4289 32.6622 58.7312 31.7771L58.9941 31.0066H61.817L61.3273 32.4406C61.1759 32.8834 61.1188 33.1664 61.1544 33.2933C61.1934 33.4175 61.3119 33.4824 61.5137 33.4824C61.716 33.4824 61.8933 33.403 62.0474 33.241C62.2001 33.0822 62.3313 32.8435 62.4388 32.528C62.6757 31.8342 62.7372 31.3796 62.6231 31.1659C62.5037 30.9522 62.1492 30.5963 61.5655 30.0974C60.9819 29.5896 60.6063 29.2245 60.4378 28.9959C60.2719 28.7673 60.1749 28.4513 60.1521 28.0485C60.1271 27.6461 60.2241 27.1314 60.4378 26.5052C60.508 26.2994 60.5799 26.1063 60.6537 25.9255C60.1631 26.5666 59.6488 27.2016 59.1169 27.8234C59.1147 29.5449 60.2991 29.9692 59.7146 29.9293C57.9242 29.9275 58.3108 29.9999 57.5087 32.7039C56.2335 36.7143 62.2505 37.2264 64.3103 35.5668C64.7307 35.3755 64.4148 36.0846 65.4004 36.2509L67.9911 36.2562C68.5063 36.2167 68.5932 36.0236 68.7047 35.9529C68.9881 35.7726 69.0158 36.2452 69.4353 36.2768L72.5505 36.2154C73.5211 36.0179 73.2043 34.4017 73.7383 35.2012C75.2992 37.2251 78.9041 36.569 80.156 35.4281C80.7261 35.1117 80.4667 36.0907 81.5493 36.1781L88.0293 36.1947C88.5677 36.196 89.2198 35.9323 89.3888 35.3636C90.011 33.3003 91.266 30.4677 90.8119 29.7252C90.6899 29.5466 90.7166 29.404 90.8443 29.2851C91.575 28.7458 91.8747 27.8932 92.1257 27.0041C92.1994 26.7395 92.4798 26.8102 92.3898 27.1024L89.9943 34.2749C89.7082 35.1692 89.545 35.9613 90.5982 36.2017L93.8257 36.1864C94.3895 36.2509 94.7603 35.7485 94.9991 34.8577L97.6478 26.8804L98.8971 26.8738C99.2916 26.8589 99.5435 26.6017 99.6883 26.1634L100.443 23.9412C100.679 23.1632 100.314 22.4685 99.5075 22.4918L92.9349 22.4589C91.8742 22.5558 91.9813 23.5388 91.5767 23.1596C90.8913 22.1508 87.9758 22.5392 85.4271 22.4751C84.0975 22.6094 84.4718 24.2361 84.087 23.7542C83.2778 21.87 78.6878 21.8704 77.3744 23.3887C76.9092 23.5313 77.3634 22.5738 76.0281 22.4843H73.6041C72.8111 22.4747 72.9774 22.8902 72.7326 22.9025C72.4737 22.899 72.6373 22.4931 71.6965 22.4751H69.5327C68.1412 22.433 68.4738 23.8898 67.9872 23.3874ZM65.3595 35.2298L69.3857 23.4405H71.9273L71.8198 28.7502L73.633 23.4405H76.1747L72.1485 35.2298H69.4836L69.7311 29.8705L67.9012 35.2298H65.3595ZM75.6397 28.3272C76.0448 27.1415 76.3581 26.3038 76.5836 25.8092C76.8057 25.3169 77.1322 24.8671 77.5648 24.4594C77.9949 24.0518 78.4938 23.7384 79.0665 23.5199C79.6365 23.3018 80.2508 23.1917 80.9113 23.1917C81.5374 23.1917 82.064 23.2961 82.4914 23.5028C82.9188 23.709 83.2155 24.0175 83.3778 24.4296C83.5402 24.8421 83.5665 25.2923 83.4577 25.7768C83.3506 26.2647 83.0882 27.1116 82.6731 28.3272L81.9846 30.3431C81.58 31.5292 81.2667 32.366 81.0442 32.8584C80.8187 33.3529 80.4926 33.8027 80.0626 34.2104C79.6321 34.6185 79.131 34.9314 78.5609 35.1503C77.9905 35.3689 77.3739 35.4781 76.7157 35.4781C76.0895 35.4781 75.5629 35.3737 75.1355 35.1675C74.7055 34.9612 74.4115 34.6532 74.2491 34.2407C74.0868 33.8277 74.0604 33.378 74.1666 32.8931C74.2763 32.406 74.5374 31.556 74.9517 30.3431L75.6397 28.3272ZM85.4758 23.4405H87.6282C89.0627 23.4405 90.0154 23.4949 90.4849 23.6068C90.9549 23.7187 91.2713 24.0048 91.4354 24.4625C91.5991 24.9219 91.5096 25.6526 91.166 26.6592C90.8527 27.5763 90.5288 28.1929 90.194 28.5084C89.8618 28.8248 89.3515 29.013 88.6643 29.0753C89.2141 29.2272 89.5525 29.4286 89.6727 29.6818C89.7916 29.9328 89.8434 30.1641 89.8206 30.3751C89.7999 30.5866 89.6262 31.1681 89.301 32.1203L88.2391 35.2298H85.4166L86.7541 31.3124C86.97 30.681 87.0512 30.2909 87.0047 30.1395C86.9568 29.9903 86.7243 29.9131 86.3078 29.9131L84.492 35.2298H81.4501L85.4758 23.4405ZM92.1151 25.7991L92.9208 23.4405H99.5645L98.7593 25.7991H96.9544L93.7339 35.2298H90.6947L93.9152 25.7991H92.1151ZM65.9699 28.1095C66.0064 28.0933 66.7835 28.1029 66.7835 28.1029L66.5312 28.755C66.4 28.5176 66.2095 28.3035 65.9699 28.1095Z" fill="#1B1918" stroke="#1B1918" stroke-width="0.216"/>
<path fill-rule="evenodd" clip-rule="evenodd" d="M79.3133 26.4701L77.4338 31.9733C77.1999 32.6592 77.085 33.0817 77.085 33.2406C77.0841 33.4025 77.1876 33.4819 77.3895 33.4819C77.5966 33.4819 77.759 33.3898 77.8805 33.2059C78.0012 33.0194 78.1803 32.5824 78.4177 31.886L80.2673 26.4701C80.4551 25.9207 80.545 25.57 80.5363 25.416C80.5288 25.2642 80.4318 25.1874 80.2445 25.1874C80.0843 25.1874 79.9421 25.2493 79.8157 25.3739C79.688 25.4954 79.5213 25.8614 79.3133 26.4701Z" fill="#1B1918" stroke="#1B1918" stroke-width="0.216"/>
<path fill-rule="evenodd" clip-rule="evenodd" d="M87.8297 25.4562L86.9341 28.0781C87.2742 28.0781 87.5296 28.0312 87.6998 27.9368C87.8701 27.842 88.0447 27.534 88.222 27.0144L88.4427 26.3681C88.5709 25.9929 88.5875 25.7493 88.4941 25.6326C88.4011 25.5154 88.1799 25.4562 87.8297 25.4562Z" fill="#1B1918" stroke="#1B1918" stroke-width="0.216"/>
<path fill-rule="evenodd" clip-rule="evenodd" d="M48.3731 30.6501C52.7227 26.5266 56.4606 22.209 59.1663 17.4176C60.7943 16.9564 61.2691 16.0511 60.3059 16.2837C54.9322 18.1728 46.5876 28.6039 47.065 32.6691C47.2419 33.115 47.0835 31.3904 48.3731 30.6501Z" fill="#1B1918" stroke="#1B1918" stroke-width="0.216"/>
<path fill-rule="evenodd" clip-rule="evenodd" d="M62.7372 18.5569C58.5895 20.349 51.8774 28.9674 51.9063 32.0685C52.0494 32.4178 51.9651 31.2817 53.0056 30.6384C56.6644 27.274 59.9222 23.4817 61.9728 19.4538C63.2866 19.0203 63.5144 18.3322 62.7372 18.5569Z" fill="#1B1918" stroke="#1B1918" stroke-width="0.216"/>
<path fill-rule="evenodd" clip-rule="evenodd" d="M62.1507 22.7773C61.3656 24.0455 60.398 25.3637 59.2725 26.6718C59.1619 27.1075 59.1167 27.4897 59.1167 27.8232C59.6485 27.2014 60.1628 26.5665 60.6534 25.9254C60.9022 25.3141 61.1695 24.8463 61.4569 24.5238C61.6276 24.3311 61.8224 24.1578 62.041 24.0038C62.3995 23.475 62.7391 22.9475 63.0564 22.4249C62.7479 22.5175 62.4438 22.6347 62.1507 22.7773Z" fill="#1B1918" stroke="#1B1918" stroke-width="0.216"/>
<path fill-rule="evenodd" clip-rule="evenodd" d="M59.2725 26.6719C60.398 25.3638 61.3656 24.0456 62.1507 22.7774C60.9246 23.3737 59.8868 24.4172 59.484 25.993C59.3962 26.2326 59.3264 26.4586 59.2725 26.6719Z" fill="#1B1918" stroke="#1B1918" stroke-width="0.216"/>
<path fill-rule="evenodd" clip-rule="evenodd" d="M44.1209 8.20228C44.1876 4.54825 42.729 5.18717 40.6042 7.53177C40.4068 7.80252 40.7126 8.03202 40.9627 7.81305C42.4745 5.69444 43.6136 5.88708 43.6369 8.20843C42.6855 8.02412 42.0155 9.78378 42.8071 10.1778C43.1327 10.302 43.1818 9.94044 43.0673 9.87725C42.768 9.68768 42.8102 9.27563 43.227 8.61872C43.3508 8.41379 43.769 8.59283 43.2911 9.45686C43.0739 9.70392 43.2639 9.92377 43.5189 9.72586C43.8431 9.50821 43.955 9.04876 43.9542 8.54851C44.3772 8.88465 44.7818 8.80259 45.1938 8.30233C45.3242 8.14041 45.1346 7.88809 44.9424 7.9741C44.7278 8.11277 44.1872 8.92853 44.1209 8.20228Z" fill="#1B1918" stroke="#1B1918" stroke-width="0.216"/>
<path fill-rule="evenodd" clip-rule="evenodd" d="M45.0394 10.2638C47.2282 9.41605 44.7515 7.73187 44.934 10.1783C44.9454 10.2796 44.9678 10.2739 45.0394 10.2638ZM45.2346 9.95667C45.0192 8.88464 46.0649 9.38665 45.2798 9.98476C45.2531 9.99617 45.2452 10.001 45.2346 9.95667Z" fill="#1B1918" stroke="#1B1918" stroke-width="0.216"/>
<path fill-rule="evenodd" clip-rule="evenodd" d="M34.7993 25.9452C35.0928 25.7974 35.1591 25.4112 34.6299 25.5371C34.0032 25.6859 33.8672 26.019 33.6983 26.4657C33.5951 26.7378 33.998 26.9449 34.1911 26.6689C34.4447 26.3051 34.3964 26.148 34.7993 25.9452Z" fill="#1B1918" stroke="#1B1918" stroke-width="0.216"/>
<path fill-rule="evenodd" clip-rule="evenodd" d="M35.8136 23.6435C35.2085 23.1362 35.7408 22.6487 36.1458 22.9418C39.4427 25.4023 41.979 28.5069 43.0252 32.1193C43.1305 25.8692 51.7919 15.8909 59.1789 13.7855C59.8442 13.5954 60.4524 13.5244 59.1715 13.588C55.069 13.7938 50.966 13.0245 46.8639 10.916C47.5608 4.12488 41.2159 2.1853 36.679 4.77082C36.3977 4.94283 36.1757 4.895 36.0028 4.66506L34.4923 2.25244C31.1538 4.25652 33.6068 3.78479 29.7961 3.7453C29.7882 5.63704 30.0195 7.50465 30.4855 9.3433C32.031 10.6497 32.9517 7.68062 33.957 5.28862C34.0785 4.87394 34.52 5.03981 34.3594 5.62739C33.2641 8.54553 32.5049 11.3316 30.1581 10.461C29.5341 10.1472 29.9673 9.06421 29.1984 9.25729C28.1879 9.51093 24.7365 13.5599 26.2413 14.1295C26.6318 14.4533 26.3492 14.7254 25.9911 14.5091C22.7035 11.6747 17.9305 16.8497 24.8265 17.0406C25.2434 17.077 25.0341 17.282 24.7194 17.3171C21.2164 17.4597 18.9964 23.6931 21.1325 26.4072C21.7723 27.2611 22.6065 25.6893 23.7488 25.5436C24.1709 25.5058 24.3302 25.7323 24.0002 25.8955C18.9029 28.277 20.0153 33.1966 25.1578 28.3603C25.2456 28.2638 25.4523 28.2678 25.35 28.4538C22.8944 33.197 43.546 31.0332 35.8136 23.6435ZM34.6297 25.537C35.1589 25.4111 35.0926 25.7972 34.7991 25.9451C34.3962 26.1478 34.4445 26.3049 34.1909 26.6687C33.9978 26.9447 33.595 26.7376 33.6981 26.4655C33.867 26.0188 34.0031 25.6858 34.6297 25.537ZM44.9336 10.1784C44.751 7.73196 47.2277 9.41614 45.0389 10.2639C44.9674 10.274 44.945 10.2797 44.9336 10.1784ZM43.6369 8.20852C43.6136 5.88717 42.4744 5.69453 40.9627 7.81314C40.7126 8.03211 40.4067 7.80261 40.6042 7.53186C42.729 5.18726 44.1876 4.54834 44.1209 8.20237C44.1871 8.92862 44.7278 8.11285 44.9424 7.97419C45.1346 7.88818 45.3241 8.1405 45.1938 8.30242C44.7817 8.80268 44.3772 8.88473 43.9541 8.5486C43.955 9.04885 43.8431 9.50829 43.5188 9.72595C43.2639 9.92385 43.0739 9.70401 43.2911 9.45695C43.769 8.59292 43.3508 8.41388 43.227 8.61881C42.8101 9.27572 42.768 9.68777 43.0673 9.87734C43.1818 9.94053 43.1327 10.3021 42.8071 10.1779C42.0154 9.78387 42.6855 8.02421 43.6369 8.20852Z" fill="#C4C4C4"/>
<path fill-rule="evenodd" clip-rule="evenodd" d="M63.7289 14.4552C61.6187 12.4823 55.6626 15.3495 50.4279 20.8567C45.1928 26.3643 42.6591 32.4301 44.7689 34.4026C46.8788 36.3751 52.8353 33.5083 58.0699 28.0011C58.4886 27.561 58.8896 27.1164 59.2727 26.6719C59.3267 26.4587 59.3965 26.2327 59.4842 25.9931C59.8871 24.4173 60.9249 23.3738 62.1509 22.7774C64.4402 19.0795 65.1744 15.8064 63.7289 14.4552ZM47.0653 32.6692C46.5878 28.604 54.9324 18.1729 60.3061 16.2838C61.2694 16.0512 60.7946 16.9565 59.1665 17.4177C56.4608 22.2091 52.7229 26.5267 48.3734 30.6502C47.0837 31.3905 47.2421 33.1151 47.0653 32.6692ZM51.9063 32.0689C51.8773 28.9678 58.5895 20.3494 62.7372 18.5573C63.5143 18.3326 63.2866 19.0207 61.9728 19.4542C59.9222 23.4822 56.6644 27.2744 53.0055 30.6388C51.9651 31.2821 52.0493 32.4182 51.9063 32.0689Z" fill="#F5B1B5"/>
<path fill-rule="evenodd" clip-rule="evenodd" d="M48.6064 8.05201C49.075 8.56674 49.7052 8.79843 50.5271 8.69531C49.9391 7.76326 49.5288 6.81629 49.1909 5.8623C48.5164 5.98473 47.8946 6.54686 47.3018 6.76056C47.5646 7.31216 47.7217 7.93352 47.7248 8.65845C48.0069 8.6194 48.2492 8.53602 48.3084 8.12968C48.3501 7.84225 48.4365 7.79881 48.6064 8.05201Z" fill="#C4C4C4"/>
<path fill-rule="evenodd" clip-rule="evenodd" d="M45.2797 9.98504C46.0648 9.38693 45.0191 8.88492 45.2345 9.95695C45.245 10.0013 45.2529 9.99645 45.2797 9.98504Z" fill="#F5B1B5"/>
<path fill-rule="evenodd" clip-rule="evenodd" d="M45.2797 9.98504C46.0648 9.38693 45.0191 8.88492 45.2345 9.95695C45.245 10.0013 45.2529 9.99645 45.2797 9.98504Z" fill="white"/>
<path fill-rule="evenodd" clip-rule="evenodd" d="M38.1828 29.937C38.1828 29.6312 37.9243 29.3828 37.6053 29.3828C37.2863 29.3828 37.0278 29.6312 37.0278 29.937C37.0278 30.2429 37.2863 30.4913 37.6053 30.4913C37.9243 30.4913 38.1828 30.2429 38.1828 29.937Z" fill="#C4C4C4"/>
<path fill-rule="evenodd" clip-rule="evenodd" d="M33.3325 40.0816C37.1519 37.2407 33.0508 32.2465 29.1624 32.6665C27.1219 33.1093 26.9345 35.6074 30.7812 35.9651C32.3447 35.9853 32.2209 35.0137 31.1388 34.89C29.1742 34.6688 29.2962 33.7359 30.1142 33.6841C32.5 33.5024 35.2931 37.6721 33.2193 40.018C33.1144 40.1505 33.1565 40.1799 33.3325 40.0816Z" fill="#C4C4C4"/>
<path fill-rule="evenodd" clip-rule="evenodd" d="M32.3753 32.5926C33.776 33.2297 33.9717 34.4703 34.1016 33.8191C34.1938 33.0472 33.9959 32.396 33.4631 32.134C32.7229 31.7882 31.4999 32.1946 32.3753 32.5926Z" fill="#C4C4C4"/>
<path d="M41.3551 5.8233C40.2115 7.16213 39.6665 6.18664 39.8587 8.43076C40.0329 10.4669 43.9406 11.7609 44.8937 11.0777C45.709 10.4932 46.0465 10.8307 46.3317 9.60459C47.1483 6.09581 43.2069 3.65642 41.3551 5.8233Z" stroke="black" stroke-width="0.2"/>
<path fill-rule="evenodd" clip-rule="evenodd" d="M43.6369 8.20827C43.6137 5.88693 42.4745 5.69429 40.9628 7.8129C40.7126 8.03187 40.4068 7.80237 40.6042 7.53162C42.729 5.18701 44.1876 4.5481 44.1209 8.20213C44.1872 8.92837 44.7278 8.11261 44.9424 7.97395C45.1346 7.88794 45.3242 8.14026 45.1938 8.30218C44.7818 8.80243 44.3772 8.88449 43.9542 8.54836C43.9551 9.04861 43.8432 9.50805 43.5189 9.72571C43.2639 9.92361 43.0739 9.70377 43.2911 9.45671C43.769 8.59268 43.3508 8.41364 43.2271 8.61857C42.8102 9.27548 42.7681 9.68753 43.0673 9.8771C43.1819 9.94029 43.1327 10.3019 42.8071 10.1777C42.0155 9.78363 42.6856 8.02397 43.6369 8.20827ZM44.8937 11.0777C45.709 10.4932 46.0465 10.8307 46.3317 9.60459C47.1483 6.09581 43.2069 3.65642 41.3551 5.8233C40.2115 7.16213 39.6665 6.18664 39.8587 8.43076C40.0329 10.4669 43.9406 11.7609 44.8937 11.0777ZM44.9336 10.1781C44.7511 7.73172 47.2278 9.4159 45.0389 10.2637C44.9674 10.2738 44.945 10.2795 44.9336 10.1781Z" fill="white" stroke="white" stroke-width="0.216"/>
<path fill-rule="evenodd" clip-rule="evenodd" d="M40.9627 7.81305C42.4745 5.69444 43.6136 5.88708 43.6369 8.20843C42.6855 8.02412 42.0155 9.78378 42.8071 10.1778C43.1327 10.302 43.1818 9.94044 43.0673 9.87725C42.768 9.68768 42.8102 9.27563 43.227 8.61872C43.3508 8.41379 43.769 8.59283 43.2911 9.45686C43.0739 9.70392 43.2639 9.92377 43.5189 9.72586C43.8431 9.50821 43.955 9.04876 43.9542 8.54851C44.3772 8.88465 44.7818 8.80259 45.1938 8.30233C45.3242 8.14041 45.1346 7.88809 44.9424 7.9741C44.7278 8.11277 44.1872 8.92853 44.1209 8.20228C44.1876 4.54825 42.729 5.18717 40.6042 7.53177C40.4068 7.80252 40.7126 8.03202 40.9627 7.81305Z" fill="#1B1918" stroke="#1B1918" stroke-width="0.216"/>
<path fill-rule="evenodd" clip-rule="evenodd" d="M45.0394 10.2638C47.2282 9.41605 44.7515 7.73187 44.934 10.1783C44.9454 10.2796 44.9678 10.2739 45.0394 10.2638ZM45.2346 9.95667C45.0192 8.88464 46.0649 9.38665 45.2798 9.98476C45.2531 9.99617 45.2452 10.001 45.2346 9.95667Z" fill="#1B1918" stroke="#1B1918" stroke-width="0.216"/>
<path fill-rule="evenodd" clip-rule="evenodd" d="M61.9728 19.4542C59.9222 23.4822 56.6644 27.2744 53.0055 30.6388C51.9651 31.2821 52.0493 32.4182 51.9063 32.0689C51.8773 28.9678 58.5895 20.3494 62.7372 18.5573C63.5143 18.3326 63.2866 19.0207 61.9728 19.4542ZM59.1665 17.4177C56.4608 22.2091 52.7229 26.5267 48.3734 30.6502C47.0837 31.3905 47.2421 33.1151 47.0653 32.6692C46.5878 28.604 54.9324 18.1729 60.3061 16.2838C61.2694 16.0512 60.7946 16.9565 59.1665 17.4177ZM63.7289 14.4552C61.6187 12.4823 55.6626 15.3495 50.4279 20.8567C45.1928 26.3643 42.6591 32.4301 44.7689 34.4026C46.8788 36.3751 52.8353 33.5083 58.0699 28.0011C58.4886 27.561 58.8896 27.1164 59.2727 26.6719C59.3267 26.4587 59.3965 26.2327 59.4842 25.9931C59.8871 24.4173 60.9249 23.3738 62.1509 22.7774C64.4402 19.0795 65.1744 15.8064 63.7289 14.4552Z" fill="white"/>
</svg>
