<svg width="120" height="21" viewBox="0 0 120 21" fill="none" xmlns="http://www.w3.org/2000/svg">
<path d="M49.8917 5.69729C50.7264 4.81615 51.654 4.24822 52.7538 3.97507C53.7264 3.71808 54.752 3.74252 55.7112 4.04556C57.0169 4.4661 57.874 5.5507 57.8973 7.03582C57.9493 9.9572 57.9181 12.8834 57.9269 15.804C57.9269 15.9802 57.874 16.0299 57.7002 16.0274C56.9929 16.0194 56.2856 16.0106 55.5783 16.0274C55.2875 16.0355 55.338 15.8672 55.338 15.6966V8.68996C55.3372 8.3965 55.3139 8.10353 55.2683 7.81363C55.1201 6.87722 54.5113 6.29727 53.5741 6.15949C52.1731 5.95362 51.0436 6.45908 50.0936 7.45797C50.0217 7.53518 49.9665 7.6264 49.9315 7.72592C49.8965 7.82543 49.8824 7.9311 49.8901 8.03632C49.8965 10.5724 49.8901 13.1077 49.9029 15.6462C49.9029 15.973 49.8052 16.0411 49.5024 16.0298C48.8616 16.0082 48.2208 16.0162 47.5799 16.0298C47.3717 16.0298 47.2755 16.001 47.2763 15.7535C47.2844 11.9619 47.2844 8.17169 47.2763 4.38279C47.2763 4.14889 47.35 4.08961 47.5735 4.09442C48.2408 4.10724 48.9089 4.11365 49.5761 4.09442C49.8589 4.08561 49.9085 4.19215 49.8965 4.44127C49.8781 4.82977 49.8917 5.22388 49.8917 5.69729V5.69729ZM30.2271 7.31859C29.5185 6.59089 28.5891 6.11801 27.5837 5.97365C26.87 5.8599 26.1506 5.84148 25.4473 6.07778C25.1913 6.15562 24.9586 6.29602 24.7705 6.48631C24.3059 6.97494 24.3956 7.68146 24.9867 8.06275C25.5779 8.44404 26.2684 8.57862 26.9397 8.73402C27.7695 8.92627 28.6042 9.09689 29.398 9.42051C30.8303 10.0037 31.6946 11.0074 31.6818 12.6054C31.669 14.1634 30.8767 15.2817 29.4517 15.8048C26.769 16.7892 24.2177 16.4744 21.8859 14.7458C21.6264 14.5535 21.608 14.4013 21.7946 14.137C22.1391 13.6476 22.4426 13.1285 22.7823 12.5926C23.4631 13.2298 24.2783 13.7058 25.1678 13.9856C26.113 14.2876 27.071 14.3861 28.0403 14.1074C28.2193 14.0571 28.3909 13.9833 28.5505 13.8879C29.3644 13.3912 29.3924 12.3763 28.6034 11.842C28.0106 11.4375 27.3153 11.2949 26.6265 11.1347C25.7565 10.9361 24.8818 10.7622 24.0543 10.4138C22.8231 9.89392 22.0301 9.0312 21.9716 7.64621C21.9132 6.26122 22.5364 5.2367 23.7043 4.52858C24.599 3.98548 25.5955 3.80765 26.6176 3.80765C28.2494 3.80284 29.7465 4.23861 31.0522 5.25993C31.2821 5.43936 31.3013 5.56272 31.1475 5.79822C30.8303 6.28365 30.5427 6.79231 30.2271 7.31859V7.31859ZM79.5509 13.6275C79.7399 14.2291 79.9241 14.8243 80.1116 15.4163C80.1845 15.6389 80.0042 15.6982 79.8817 15.7791C79.0806 16.303 78.1819 16.3991 77.2671 16.3046C75.5249 16.1252 74.6557 15.1327 74.6453 13.3408C74.633 11.1652 74.6346 8.98901 74.6501 6.81233C74.6501 6.49192 74.6005 6.36295 74.2496 6.39099C73.8122 6.42704 73.3685 6.39099 72.9287 6.40381C72.722 6.41021 72.6491 6.35174 72.6547 6.13546C72.6684 5.5491 72.6716 4.96034 72.6547 4.37318C72.6475 4.12406 72.7509 4.08961 72.9607 4.09522C73.4277 4.10724 73.8955 4.08721 74.3626 4.10403C74.5892 4.11204 74.6549 4.04396 74.6509 3.81566C74.6381 2.94814 74.6629 2.07982 74.6373 1.2131C74.6277 0.896687 74.7302 0.839013 75.0178 0.848625C75.6442 0.871054 76.273 0.869452 76.8994 0.848625C77.1742 0.839814 77.2647 0.9063 77.2583 1.19547C77.2383 2.04938 77.2639 2.90488 77.2439 3.75879C77.2367 4.05036 77.3328 4.11365 77.6035 4.10403C78.1771 4.08481 78.7514 4.10884 79.325 4.09282C79.5709 4.08641 79.6838 4.12967 79.6726 4.41323C79.6494 4.97396 79.6526 5.53468 79.6726 6.09541C79.6814 6.34773 79.5997 6.41582 79.3522 6.40461C78.7658 6.38698 78.1771 6.41502 77.5899 6.39179C77.3023 6.38058 77.2407 6.47189 77.2423 6.74905C77.2543 8.63149 77.2495 10.5139 77.2479 12.3964C77.2479 12.9683 77.2583 13.5522 77.8342 13.8727C78.435 14.2035 78.9917 13.9704 79.5509 13.6275V13.6275ZM119.995 9.45255C119.835 9.25389 119.881 9.00557 119.835 8.78048C119.136 5.05326 116.121 3.23811 112.706 3.96065C109.878 4.55742 107.989 7.10311 108.044 10.1286C108.089 12.6767 109.138 14.6344 111.495 15.7487C112.97 16.4464 114.534 16.4696 116.111 16.1332C117.147 15.9246 118.115 15.4631 118.929 14.7898C119.089 14.6529 119.121 14.5567 118.984 14.3733C118.628 13.8927 118.296 13.3968 117.943 12.889C117.188 13.5807 116.236 14.0195 115.219 14.1442C112.976 14.4518 111.255 13.2679 110.826 11.3101C110.762 11.0154 110.798 10.9232 111.128 10.9249C113.932 10.9377 116.736 10.9329 119.534 10.9313C119.665 10.9313 119.796 10.9152 119.928 10.9072C120.022 10.5868 119.889 10.252 120 9.93477L119.995 9.45255ZM117.133 9.09208C116.12 9.07686 115.106 9.08567 114.089 9.08567C113.072 9.08567 112.062 9.07686 111.045 9.09128C110.791 9.09128 110.735 9.03361 110.768 8.77968C110.982 7.12954 112.384 5.92399 114.1 5.9344C115.871 5.94481 117.201 7.0935 117.411 8.77808C117.45 9.0296 117.388 9.09529 117.133 9.09208V9.09208ZM105.77 7.12153C104.357 3.2309 99.4646 2.82238 97.3058 5.5451C97.2738 5.58515 97.2377 5.6252 97.1712 5.58435C97.1712 5.20145 97.1544 4.81375 97.1768 4.42845C97.1913 4.16892 97.1192 4.08241 96.8492 4.09122C96.2228 4.11124 95.594 4.11685 94.9676 4.09122C94.636 4.0768 94.5494 4.17132 94.5502 4.50535C94.5625 8.92226 94.5652 13.3394 94.5582 17.7569C94.5582 18.598 94.5679 19.4391 94.5526 20.2793C94.5478 20.5301 94.6247 20.595 94.8691 20.5885C95.5355 20.5717 96.2036 20.5701 96.8716 20.5885C97.1272 20.5958 97.1816 20.5132 97.1784 20.2729C97.1648 19.3389 97.1728 18.4049 97.1728 17.4693V14.4462C97.2674 14.5359 97.3002 14.5599 97.325 14.5904C99.4686 17.3043 104.189 16.8573 105.665 13.2495C106.491 11.2292 106.511 9.16498 105.77 7.12153V7.12153ZM103.253 11.8677C102.613 13.5891 100.922 14.4086 99.1762 13.8502C98.8077 13.7325 98.4573 13.5642 98.1349 13.3504C97.494 12.9274 97.0094 12.4468 97.1544 11.5625C97.2345 11.0682 97.1688 10.5508 97.1688 10.0405C97.1688 9.37324 97.1808 8.70598 97.1624 8.03792C97.1546 7.91967 97.1726 7.80115 97.2151 7.69052C97.2575 7.57988 97.3235 7.47977 97.4083 7.39709C98.4625 6.33652 99.7073 5.83267 101.182 6.26443C102.614 6.68337 103.254 7.79681 103.497 9.19221C103.658 10.0897 103.574 11.014 103.253 11.8677V11.8677ZM39.1026 3.79724C35.5228 3.80845 32.9682 6.43104 32.9819 10.0806C32.9955 13.7805 35.5452 16.3382 39.2115 16.3286C42.7633 16.319 45.2633 13.674 45.2553 9.93157C45.2481 6.3974 42.6295 3.78682 39.1026 3.79724V3.79724ZM42.547 9.85306C42.5302 11.2629 42.2194 12.3363 41.3455 13.1629C39.6913 14.7266 36.9806 14.1162 36.0659 11.9742C35.5516 10.7727 35.5396 9.53185 36.0002 8.30867C36.5313 6.90045 37.7376 6.07859 39.1635 6.10983C40.6229 6.14107 41.7908 7.00859 42.2875 8.43283C42.4661 8.97193 42.5695 9.51663 42.5478 9.85306H42.547ZM70.7907 8.12203C70.7699 5.82306 69.6525 4.46049 67.4176 3.96145C66.6063 3.79102 65.7728 3.75368 64.9496 3.85091C63.4637 4.00551 62.1412 4.55261 61.0125 5.54189C60.9108 5.63081 60.7578 5.69329 60.8803 5.89114C61.2152 6.43264 61.5332 6.98536 61.8672 7.54929C63.0375 6.42223 64.3897 5.89595 65.9989 6.08179C67.2125 6.22197 68.1225 7.02701 68.1617 8.06195C68.1874 8.67154 68.1665 9.28433 68.1665 9.9604C66.7976 8.65472 65.2027 8.30627 63.4613 8.58022C62.0907 8.7965 61.0133 9.48058 60.4686 10.8183C59.3776 13.4962 61.2696 16.2806 64.2046 16.327C65.6994 16.3503 67.0363 15.9305 68.1697 14.7906C68.1697 15.1647 68.185 15.4659 68.1649 15.7647C68.1505 15.985 68.2338 16.0315 68.4349 16.0282C69.1294 16.0178 69.8239 16.0138 70.5176 16.0282C70.7579 16.0339 70.7979 15.9425 70.7971 15.7295C70.7939 13.1942 70.8116 10.6581 70.7907 8.12203V8.12203ZM66.9546 14.2291C66.1704 14.5495 65.3525 14.6376 64.5266 14.431C63.4685 14.1682 62.822 13.4161 62.806 12.45C62.7892 11.4696 63.4244 10.6709 64.493 10.401C65.5792 10.1278 66.6109 10.3089 67.5521 10.9176C68.1497 11.3045 68.1729 11.3983 68.1729 12.4124C68.1729 13.4922 67.9663 13.8182 66.9546 14.2291V14.2291Z" fill="#1B1C30"/>
<path d="M0 15.2261V5.07536C1.25762 4.34215 2.51525 3.60947 3.77287 2.87732C5.42834 1.91608 7.08381 0.95697 8.73928 0H8.88026C10.4145 0.888615 11.9485 1.77723 13.4822 2.66585C14.8627 3.46688 16.2423 4.27005 17.6211 5.07536V15.2261C17.4609 15.327 17.3095 15.4352 17.1477 15.5289C14.3922 17.1203 11.6364 18.7111 8.88026 20.3014H8.73928C7.58259 19.6286 6.42589 18.9554 5.2692 18.282C3.5144 17.2626 1.758 16.2439 0 15.2261ZM15.0594 10.1732C15.0594 9.08134 15.0522 7.98953 15.0642 6.89772C15.0642 6.64058 14.9745 6.49239 14.7534 6.36583C12.8683 5.28817 10.9872 4.2041 9.11016 3.11363C9.02456 3.05416 8.92282 3.02229 8.81858 3.02229C8.71435 3.02229 8.61261 3.05416 8.52701 3.11363C6.6606 4.19983 4.79152 5.27909 2.91977 6.35141C2.66264 6.498 2.56251 6.67182 2.56411 6.9658C2.57479 9.07947 2.57479 11.1929 2.56411 13.306C2.56411 13.6264 2.66103 13.8171 2.9446 13.9781C4.80247 15.0322 6.65392 16.0976 8.49897 17.1742C8.73047 17.3088 8.9115 17.3144 9.1454 17.1782C11.0054 16.0915 12.8742 15.0127 14.7518 13.942C14.9922 13.8058 15.0723 13.6416 15.0658 13.3765C15.0538 12.3079 15.0594 11.2393 15.0594 10.1732Z" fill="url(#paint0_linear)"/>
<path d="M82.827 20.907C82.6748 20.7524 82.4649 20.7828 82.2799 20.7556C82.078 20.7259 82.0011 20.6651 82.0395 20.4496C82.1533 19.8472 82.2598 19.244 82.3479 18.6376C82.3832 18.3933 82.4761 18.3821 82.686 18.447C83.0819 18.5716 83.5027 18.595 83.91 18.5151C84.3577 18.4286 84.7054 18.2099 84.9345 17.8214C85.4712 16.9098 85.7211 16.0663 85.2301 14.9425C83.7081 11.458 82.3367 7.90536 80.9045 4.3784C80.8748 4.30631 80.8516 4.23181 80.8027 4.09724H82.9239C83.5711 4.09724 83.5711 4.09724 83.805 4.70763L87.0092 12.9279C87.1285 12.9134 87.1197 12.8061 87.1494 12.7292C88.2179 9.98966 89.2905 7.25252 90.3455 4.50817C90.4697 4.18776 90.6195 4.0692 90.9759 4.08602C91.7345 4.12207 92.4979 4.09724 93.3158 4.09724C93.061 4.73246 92.8215 5.34285 92.5724 5.95003C90.9287 9.96402 89.2641 13.9692 87.6484 17.9936C86.9876 19.6397 85.9054 20.6707 84.0926 20.8325C84.0654 20.8325 84.0421 20.8813 84.0125 20.907H83.6921C83.5109 20.8413 83.3125 20.8413 83.1314 20.907H82.827Z" fill="#1B1C30"/>
<path d="M119.923 10.9056C119.952 10.5851 119.823 10.2463 119.995 9.93311V10.8943L119.923 10.9056Z" fill="#666774"/>
<path d="M83.1475 20.9071C83.2274 20.8443 83.3261 20.8101 83.4278 20.8101C83.5294 20.8101 83.6282 20.8443 83.7081 20.9071H83.1475Z" fill="#8F8F99"/>
<defs>
<linearGradient id="paint0_linear" x1="0.514264" y1="4.34081" x2="17.1085" y2="15.9606" gradientUnits="userSpaceOnUse">
<stop stop-color="#616161"/>
<stop offset="0.87" stop-color="#616161"/>
</linearGradient>
</defs>
</svg>
