<svg width="120" height="60" viewBox="0 0 120 60" fill="none" xmlns="http://www.w3.org/2000/svg">
<g opacity="0.45">
<g opacity="0.45">
<path opacity="0.45" d="M78.7236 3.16737V9.5021L73.0967 6.33473V0L78.7236 3.16737Z" fill="black"/>
</g>
</g>
<path opacity="0.6" d="M73.0967 6.33436V12.6691L78.7236 9.50173V3.16699L73.0967 6.33436Z" fill="black"/>
<g opacity="0.3">
<g opacity="0.3">
<path opacity="0.3" d="M36 41.7517L47.2657 48.0865L58.5315 41.7517L47.2657 35.417L36 41.7517Z" fill="black"/>
</g>
</g>
<path opacity="0.45" d="M47.2657 35.4168V48.0862L36 41.7515V29.082L47.2657 35.4168Z" fill="black"/>
<g opacity="0.45">
<g opacity="0.45">
<path opacity="0.45" d="M58.5314 29.0823V41.7518L47.2656 35.417V22.7476L58.5314 29.0823Z" fill="black"/>
</g>
</g>
<path opacity="0.6" d="M47.2656 35.4168V48.0862L58.5314 41.7515V29.082L47.2656 35.4168Z" fill="black"/>
<path opacity="0.6" d="M36 29.0823V41.7518L47.2657 35.417V22.7476L36 29.0823Z" fill="black"/>
<g opacity="0.8">
<g opacity="0.8">
<path opacity="0.8" d="M59.7197 14.0848L65.3466 17.2522L70.9855 14.0848L65.3466 10.9175L59.7197 14.0848Z" fill="black"/>
</g>
</g>
<g opacity="0.8">
<path d="M36 29.0823L47.2657 35.417L58.5315 29.0823L47.2657 22.7476L36 29.0823Z" fill="black"/>
</g>
<g opacity="0.3">
<g opacity="0.3">
<path opacity="0.3" d="M61.207 41.7517L72.4608 48.0865L83.7265 41.7517L72.4608 35.417L61.207 41.7517Z" fill="black"/>
</g>
</g>
<path opacity="0.45" d="M72.4608 35.4168V48.0862L61.207 41.7515V29.082L72.4608 35.4168Z" fill="black"/>
<g opacity="0.45">
<g opacity="0.45">
<path opacity="0.45" d="M83.7267 29.0823V41.7518L72.4609 35.417V22.7476L83.7267 29.0823Z" fill="black"/>
</g>
</g>
<path opacity="0.6" d="M72.4609 35.4168V48.0862L83.7267 41.7515V29.082L72.4609 35.4168Z" fill="black"/>
<g opacity="0.6">
<path d="M61.207 29.0823V41.7518L72.4608 35.417V22.7476L61.207 29.0823Z" fill="black"/>
</g>
<g opacity="0.8">
<path d="M61.207 29.0823L72.4608 35.417L83.7265 29.0823L72.4608 22.7476L61.207 29.0823Z" fill="black"/>
</g>
<g opacity="0.6">
<g opacity="0.6">
<path opacity="0.6" d="M59.7197 7.75037V14.0851L65.3466 10.9177V4.58301L59.7197 7.75037Z" fill="black"/>
</g>
</g>
<g opacity="0.3">
<g opacity="0.3">
<path opacity="0.3" d="M48.4531 20.4197L59.7189 26.7544L70.9846 20.4197L59.7189 14.085L48.4531 20.4197Z" fill="black"/>
</g>
</g>
<path opacity="0.45" d="M59.7189 14.0852V26.7547L48.4531 20.42V7.75049L59.7189 14.0852Z" fill="black"/>
<path opacity="0.6" d="M48.4531 7.75075V20.4202L59.7189 14.0855V1.41602L48.4531 7.75075Z" fill="black"/>
<g opacity="0.6">
<path d="M65.3466 17.2522V10.9175L59.7197 14.0848V20.4196V26.7543L65.3466 23.5869L70.9855 20.4196V14.0848L65.3466 17.2522Z" fill="black"/>
</g>
<g opacity="0.45">
<path d="M65.3466 4.58338L59.7197 1.41602V14.0855L70.9855 20.4202V14.0855L65.3466 10.9181V4.58338Z" fill="black"/>
</g>
<path opacity="0.8" d="M59.7189 1.41602L65.3457 4.58338L59.7189 7.75075V14.0855L48.4531 7.75075L59.7189 1.41602Z" fill="black"/>
<path opacity="0.8" d="M67.4575 3.16737L73.0964 6.33473L78.7233 3.16737L73.0964 0L67.4575 3.16737Z" fill="black"/>
<g opacity="0.8">
<path d="M46.7263 58.2963C46.7263 59.46 45.5145 59.9999 44.5187 59.9999C43.4389 59.9999 42.2632 59.58 42.2632 58.3203C42.2632 58.1043 42.2752 57.9483 42.5391 57.9483C42.6711 57.9483 42.7191 58.1163 42.7191 58.2123C42.7191 59.2921 43.5829 59.556 44.5187 59.556C45.2506 59.556 46.2704 59.1961 46.2704 58.3203C46.2704 56.6766 42.3352 57.6484 42.3352 55.7408C42.3352 54.649 43.5589 54.373 44.4228 54.373C45.4545 54.373 46.5943 54.745 46.5943 55.9687C46.5943 56.1007 46.4623 56.1847 46.3544 56.1847C46.2104 56.1847 46.1384 56.0527 46.1384 55.9447C46.1024 55.6808 46.0544 55.5008 45.8745 55.2969C45.5505 54.9249 44.8907 54.841 44.4228 54.841C43.8469 54.841 42.7911 54.9729 42.7911 55.7408C42.7911 57.0965 46.7263 56.1727 46.7263 58.2963Z" fill="black"/>
<path d="M55.7128 54.601C55.7128 54.697 54.0332 59.364 53.8652 59.796C53.8292 59.9279 53.7332 59.9399 53.6253 59.9399C53.5053 59.9399 53.4333 59.9279 53.3853 59.796L51.7536 55.2249L50.122 59.796C50.086 59.9279 49.99 59.9399 49.882 59.9399C49.762 59.9399 49.6661 59.9279 49.6421 59.796C49.4741 59.376 47.7944 54.697 47.7944 54.601C47.7944 54.469 47.8904 54.373 48.0224 54.373C48.1184 54.373 48.2024 54.421 48.2383 54.517L49.882 59.1361L51.5257 54.517C51.5617 54.397 51.6577 54.373 51.7536 54.373C51.8736 54.373 51.9456 54.409 51.9936 54.517L53.6253 59.1361L55.2689 54.517C55.3049 54.421 55.3889 54.373 55.4849 54.373C55.6049 54.373 55.7128 54.469 55.7128 54.601Z" fill="black"/>
<path d="M62.1669 54.6011V59.5801C62.1669 59.7121 62.0709 59.808 61.939 59.808C61.807 59.808 61.711 59.7121 61.711 59.5801V58.5363C61.2551 59.3641 60.4033 59.952 59.4195 59.952C57.8838 59.952 56.792 58.5843 56.792 57.1086C56.792 55.6449 57.8838 54.2651 59.4195 54.2651C60.4033 54.2651 61.2431 54.853 61.711 55.6809V54.5891C61.711 54.4691 61.807 54.3611 61.939 54.3611C62.0709 54.3731 62.1669 54.4931 62.1669 54.6011ZM61.591 57.1206C61.591 55.8968 60.7032 54.733 59.4195 54.733C58.1477 54.733 57.2479 55.8968 57.2479 57.1206C57.2479 58.3443 58.1477 59.5081 59.4195 59.5081C60.7152 59.4961 61.591 58.3443 61.591 57.1206Z" fill="black"/>
<path d="M66.8704 54.6493C66.8704 54.7932 66.7864 54.8772 66.6544 54.8892C65.3107 55.0812 64.7108 56.185 64.7108 57.4567V59.6523C64.7108 59.7842 64.6148 59.8802 64.4828 59.8802C64.3509 59.8802 64.2549 59.7842 64.2549 59.6523V54.6733C64.2549 54.5413 64.3509 54.4453 64.4828 54.4453C64.6148 54.4453 64.7108 54.5413 64.7108 54.6733V55.6811C65.0827 55.0452 65.8386 54.4453 66.6184 54.4453C66.7384 54.4453 66.8704 54.5173 66.8704 54.6493Z" fill="black"/>
<path d="M77.4285 56.7364V59.6638C77.4285 59.7958 77.3085 59.8918 77.2006 59.8918C77.0686 59.8918 76.9726 59.7958 76.9726 59.6638V56.7364C76.9726 55.7526 76.4207 54.7928 75.3289 54.7928C73.9612 54.7928 73.4333 56.2565 73.4333 57.4083V59.6638C73.4333 59.7958 73.3133 59.8918 73.2054 59.8918C73.0734 59.8918 72.9774 59.7958 72.9774 59.6638V56.7364C72.9774 55.7526 72.4255 54.7928 71.3337 54.7928C69.942 54.7928 69.3781 55.8846 69.4261 57.3363C69.4261 57.3723 69.4381 57.4323 69.4261 57.4563V59.6638C69.4261 59.7958 69.3301 59.8918 69.1982 59.8918C69.0662 59.8918 68.9702 59.7958 68.9702 59.6638V54.6728C68.9702 54.5409 69.0662 54.4449 69.1982 54.4449C69.3301 54.4449 69.4261 54.5409 69.4261 54.6728V55.5007C69.822 54.7928 70.5179 54.3369 71.3337 54.3369C72.2696 54.3369 72.9774 54.9248 73.2774 55.7886C73.6493 54.9368 74.3931 54.3369 75.3289 54.3369C76.6607 54.3369 77.4285 55.5007 77.4285 56.7364Z" fill="black"/>
</g>
</svg>
