<svg width="120" height="40" viewBox="0 0 120 40" fill="none" xmlns="http://www.w3.org/2000/svg">
<g clip-path="url(#clip0)">
<path d="M37.1281 9.7728V8.2224H35.6881V9.7728H34.9873V6.0528H35.7121V7.6128H37.1521V6.0528H37.8769V9.7728H37.1281ZM40.4881 9.7728H39.9121L39.8593 9.5904C39.6155 9.74713 39.3331 9.8335 39.0433 9.84C38.5345 9.84 38.3137 9.504 38.3137 9.0432C38.3137 8.496 38.5585 8.2896 39.1297 8.2896H39.8017V7.992C39.8017 7.6944 39.7153 7.5888 39.2689 7.5888C39.0093 7.59123 38.7505 7.61856 38.4961 7.6704L38.4001 7.1616C38.7134 7.0791 39.0361 7.03716 39.3601 7.0368C40.2385 7.0368 40.4977 7.3344 40.4977 7.9968L40.4881 9.7728ZM39.8017 8.76H39.2833C39.0529 8.76 38.9905 8.8224 38.9905 9.024C38.9905 9.2256 39.0529 9.2928 39.2737 9.2928C39.4584 9.28995 39.6396 9.24218 39.8017 9.1536V8.76ZM41.9665 9.84C41.6408 9.83481 41.3176 9.78309 41.0065 9.6864L41.1025 9.1728C41.3732 9.24689 41.6523 9.28562 41.9329 9.288C42.2449 9.288 42.2881 9.2208 42.2881 9.0192C42.2881 8.8176 42.2545 8.7696 41.8081 8.6688C41.1265 8.5104 41.0449 8.3424 41.0449 7.824C41.0449 7.3056 41.2801 7.032 42.0817 7.032C42.3644 7.03298 42.6461 7.06518 42.9217 7.128L42.8545 7.6608C42.6008 7.6159 42.3441 7.59023 42.0865 7.584C41.7841 7.584 41.7313 7.6512 41.7313 7.8144C41.7313 7.9776 41.7313 8.0448 42.1249 8.1408C42.9073 8.3376 42.9793 8.4384 42.9793 8.9904C42.9793 9.5424 42.8113 9.84 41.9665 9.84ZM45.1729 9.7872V7.92C45.1729 7.776 45.1105 7.704 44.9473 7.704C44.6925 7.72833 44.4447 7.80168 44.2177 7.92V9.7728H43.5169V6L44.2177 6.1056V7.2912C44.5367 7.13446 44.885 7.04617 45.2401 7.032C45.7201 7.032 45.8737 7.344 45.8737 7.824V9.7728L45.1729 9.7872ZM46.4593 6.7248V6.0528H47.1601V6.7104L46.4593 6.7248ZM46.4593 9.7872V7.0896H47.1601V9.7728L46.4593 9.7872ZM47.7169 7.128C47.7169 6.456 48.1249 6.0624 49.0753 6.0624C49.4244 6.06203 49.7723 6.1023 50.1121 6.1824L50.0305 6.7824C49.7216 6.72537 49.4086 6.69326 49.0945 6.6864C48.6145 6.6864 48.4369 6.8496 48.4369 7.2432V8.64C48.4369 9.0288 48.5953 9.1968 49.0945 9.1968C49.4086 9.18994 49.7216 9.15783 50.0305 9.1008L50.1121 9.7008C49.7723 9.7809 49.4244 9.82117 49.0753 9.8208C48.1153 9.8208 47.7169 9.432 47.7169 8.7552V7.128ZM51.6625 9.84C50.7025 9.84 50.4481 9.3312 50.4481 8.784V8.0928C50.4481 7.5408 50.7073 7.0368 51.6625 7.0368C52.6177 7.0368 52.8769 7.5456 52.8769 8.0928V8.7696C52.8817 9.3216 52.6225 9.84 51.6625 9.84ZM51.6625 7.6176C51.2881 7.6176 51.1441 7.776 51.1441 8.0976V8.8176C51.1441 9.12 51.2881 9.2976 51.6625 9.2976C52.0369 9.2976 52.1809 9.1392 52.1809 8.8176V8.0688C52.1809 7.7664 52.0369 7.608 51.6625 7.608V7.6176ZM54.8497 7.6608C54.5939 7.77166 54.3468 7.90163 54.1105 8.0496V9.7776H53.4097V7.0896H54.0001L54.0481 7.3872C54.2769 7.23946 54.5237 7.12169 54.7825 7.0368L54.8497 7.6608ZM57.6481 8.88C57.6693 9.00747 57.6604 9.13812 57.6222 9.26156C57.5839 9.38499 57.5174 9.4978 57.428 9.59102C57.3385 9.68423 57.2285 9.75528 57.1067 9.7985C56.9849 9.84172 56.8547 9.85593 56.7265 9.84C56.4767 9.83762 56.2276 9.81191 55.9825 9.7632V10.848L55.2817 10.9536V7.1136H55.8385L55.9057 7.3392C56.1632 7.15461 56.4721 7.05554 56.7889 7.056C57.3505 7.056 57.6481 7.3776 57.6481 7.9872V8.88ZM55.9777 9.1824C56.1813 9.22633 56.3887 9.25045 56.5969 9.2544C56.8513 9.2544 56.9473 9.1392 56.9473 8.8944V7.9344C56.9473 7.7136 56.8609 7.5936 56.6017 7.5936C56.372 7.60201 56.1519 7.68834 55.9777 7.8384V9.1824ZM39.2545 15.3792H34.9873V12.8304H46.4161V15.3792H42.1441V28.1136H39.2641L39.2545 15.3792Z" fill="black"/>
<path d="M49.0513 26.0496C50.2103 26.0438 51.3621 25.8658 52.4688 25.5216L52.9056 27.6336C51.588 28.1084 50.1974 28.3488 48.7969 28.344C45.2881 28.344 44.0688 26.7168 44.0688 24.024V21.072C44.0688 18.7104 45.1248 16.7136 48.7056 16.7136C52.2864 16.7136 53.088 18.8016 53.088 21.2112V23.6112H46.848V24.1872C46.872 25.5216 47.3521 26.0496 49.0513 26.0496ZM46.872 21.36H50.4288V20.7936C50.4288 19.7376 50.1072 19.0032 48.7296 19.0032C47.352 19.0032 46.872 19.7376 46.872 20.7936V21.36ZM60.5713 19.2816C59.5403 19.7466 58.547 20.2906 57.6 20.9088V28.1088H54.8016V16.9392H57.1632L57.3456 18.1776C58.2561 17.5612 59.2438 17.0674 60.2832 16.7088L60.5713 19.2816ZM67.4064 19.2816C66.3788 19.747 65.3887 20.291 64.4448 20.9088V28.1088H61.6464V16.9392H64.0081L64.1904 18.1776C65.1009 17.5612 66.0886 17.0674 67.1281 16.7088L67.4064 19.2816ZM76.7713 28.1136H74.4769L74.2704 27.3552C73.2805 27.9994 72.1251 28.3428 70.9441 28.344C68.9041 28.344 68.0304 26.9424 68.0304 25.0176C68.0304 22.7472 69.0193 21.8736 71.2897 21.8736H73.9729V20.7024C73.9729 19.464 73.6273 19.0272 71.8369 19.0272C70.7959 19.0389 69.7588 19.1547 68.7409 19.3728L68.3953 17.2368C69.6461 16.8907 70.9375 16.7132 72.2353 16.7088C75.7441 16.7088 76.7809 17.9472 76.7809 20.7456L76.7713 28.1136ZM73.9729 23.8896H71.9088C70.992 23.8896 70.7376 24.144 70.7376 24.9888C70.7376 25.8336 70.9921 26.112 71.8609 26.112C72.6021 26.1008 73.3285 25.9026 73.9729 25.536V23.8896ZM85.3729 14.3904C84.8442 14.2768 84.3055 14.2158 83.7648 14.208C82.6656 14.208 82.5025 14.688 82.5025 15.5376V16.9392H85.3488L85.1904 19.1664H82.5073V28.1136H79.7088V19.1664H77.9185V16.9392H79.7088V15.3792C79.7088 13.0608 80.7889 11.9136 83.2657 11.9136C84.0766 11.9106 84.8841 12.0188 85.6657 12.2352L85.3729 14.3904ZM90.8353 28.344C86.9953 28.344 85.9729 26.232 85.9729 23.9376V21.1152C85.9729 18.8208 87.0049 16.7088 90.8353 16.7088C94.6657 16.7088 95.6976 18.8208 95.6976 21.1152V23.9376C95.7024 26.232 94.6657 28.344 90.8353 28.344ZM90.8353 19.0944C89.3425 19.0944 88.7713 19.7616 88.7713 21.0144V24.0192C88.7713 25.2816 89.3473 25.9392 90.8353 25.9392C92.3233 25.9392 92.8992 25.272 92.8992 24.0192V21.024C92.8992 19.7616 92.3281 19.0944 90.8353 19.0944V19.0944ZM102.902 19.2816C101.875 19.747 100.885 20.291 99.9409 20.9088V28.1088H97.1425V16.9392H99.5041L99.6864 18.1776C100.597 17.5612 101.585 17.0673 102.624 16.7088L102.902 19.2816ZM110.592 28.1136V20.3136C110.592 19.7184 110.338 19.4208 109.699 19.4208C108.674 19.5427 107.683 19.8691 106.786 20.3808V28.1136H103.987V16.9392H106.123L106.397 17.8992C107.792 17.1938 109.319 16.7883 110.88 16.7088C111.312 16.6682 111.746 16.7609 112.124 16.9747C112.501 17.1884 112.804 17.5127 112.992 17.904C114.388 17.1882 115.922 16.7806 117.49 16.7088C119.347 16.7088 120.014 18.0144 120.014 20.0112V28.1136H117.216V20.3136C117.216 19.7184 116.962 19.4208 116.323 19.4208C115.296 19.534 114.303 19.861 113.41 20.3808V28.1136H110.592Z" fill="black"/>
<path d="M17.4722 15.6959V24.7823L25.3442 20.2415V11.1455L17.4722 15.6959Z" fill="#292929"/>
<path d="M8.73584 11.1455L16.6078 15.6959V24.7823L8.73584 20.2367V11.1455V11.1455Z" fill="#373737"/>
<path d="M0 6.07178V15.163L7.872 19.7086V10.6174L0 6.07178ZM8.736 30.3262L16.608 34.8718V25.7806L8.736 21.235V30.3262V30.3262Z" fill="#373737"/>
</g>
<defs>
<clipPath id="clip0">
<rect width="120" height="28.872" fill="white" transform="translate(0 6)"/>
</clipPath>
</defs>
</svg>
