<svg width="120" height="40" viewBox="0 0 120 40" fill="none" xmlns="http://www.w3.org/2000/svg">
<g clip-path="url(#clip0)">
<path d="M29.8859 20.4445C30.5525 20.4445 31.0524 19.889 31.0524 19.278C31.0524 18.6669 30.5525 18.1115 29.8859 18.1115C29.2193 18.1115 28.7194 18.6669 28.7194 19.278C28.7194 19.889 29.2193 20.4445 29.8859 20.4445ZM26.3864 17.2227C27.053 17.2227 27.5529 16.6672 27.5529 16.0562C27.5529 15.3896 27.053 14.8897 26.3864 14.8897C25.7198 14.8897 25.2199 15.4452 25.2199 16.0562C25.2199 16.7228 25.7198 17.2227 26.3864 17.2227ZM29.8859 17.2227C30.5525 17.2227 31.0524 16.6672 31.0524 16.0562C31.0524 15.3896 30.5525 14.8897 29.8859 14.8897C29.2193 14.8897 28.7194 15.4452 28.7194 16.0562C28.7194 16.7228 29.2193 17.2227 29.8859 17.2227ZM33.3854 17.2227C34.052 17.2227 34.5519 16.6672 34.5519 16.0562C34.5519 15.3896 34.052 14.8897 33.3854 14.8897C32.7189 14.8897 32.2189 15.4452 32.2189 16.0562C32.2189 16.7228 32.7744 17.2227 33.3854 17.2227ZM26.3864 14.0565C27.053 14.0565 27.5529 13.501 27.5529 12.89C27.5529 12.2234 27.053 11.7235 26.3864 11.7235C25.7198 11.7235 25.2199 12.279 25.2199 12.89C25.2199 13.5566 25.7198 14.0565 26.3864 14.0565ZM29.8859 14.0565C30.5525 14.0565 31.0524 13.501 31.0524 12.89C31.0524 12.2234 30.5525 11.7235 29.8859 11.7235C29.2193 11.7235 28.7194 12.279 28.7194 12.89C28.7194 13.5566 29.2193 14.0565 29.8859 14.0565ZM33.3854 14.0565C34.052 14.0565 34.5519 13.501 34.5519 12.89C34.5519 12.2234 34.052 11.7235 33.3854 11.7235C32.7189 11.7235 32.2189 12.279 32.2189 12.89C32.2189 13.5566 32.7744 14.0565 33.3854 14.0565ZM29.8859 10.8903C30.5525 10.8903 31.0524 10.3348 31.0524 9.72377C31.0524 9.0572 30.5525 8.55727 29.8859 8.55727C29.2193 8.55727 28.7194 9.11275 28.7194 9.72377C28.7194 10.3348 29.2193 10.8903 29.8859 10.8903ZM33.3854 10.8903C34.052 10.8903 34.5519 10.3348 34.5519 9.72377C34.5519 9.0572 34.052 8.55727 33.3854 8.55727C32.7189 8.55727 32.2189 9.11275 32.2189 9.72377C32.2189 10.3348 32.7744 10.8903 33.3854 10.8903ZM26.3864 10.8903C27.053 10.8903 27.5529 10.3348 27.5529 9.72377C27.5529 9.0572 27.053 8.55727 26.3864 8.55727C25.7198 8.55727 25.2199 9.11275 25.2199 9.72377C25.2199 10.3348 25.7198 10.8903 26.3864 10.8903ZM29.4415 39.9972L9 0.00292969H49.8831L29.4415 39.9972Z" fill="black"/>
</g>
<path d="M61.0688 25.1304L65.5854 11.2266H68.979L62.5825 29H59.5918L53.2197 11.2266H56.6011L61.0688 25.1304ZM78.0366 29C77.9064 28.7477 77.7925 28.3368 77.6948 27.7671C76.7508 28.7518 75.5952 29.2441 74.228 29.2441C72.9015 29.2441 71.8192 28.8657 70.981 28.1089C70.1427 27.3521 69.7236 26.4162 69.7236 25.3013C69.7236 23.8934 70.2445 22.8151 71.2861 22.0664C72.3359 21.3096 73.8333 20.9312 75.7783 20.9312H77.5972V20.0645C77.5972 19.3809 77.4059 18.8356 77.0234 18.4287C76.641 18.0137 76.0591 17.8062 75.2778 17.8062C74.6024 17.8062 74.049 17.9771 73.6177 18.3188C73.1864 18.6525 72.9707 19.0798 72.9707 19.6006H70.0044C70.0044 18.8763 70.2445 18.2008 70.7246 17.5742C71.2048 16.9395 71.8558 16.443 72.6777 16.085C73.5078 15.7269 74.4315 15.5479 75.4487 15.5479C76.995 15.5479 78.2279 15.9385 79.1475 16.7197C80.0671 17.4928 80.5391 18.5833 80.5635 19.9912V25.9482C80.5635 27.1364 80.7303 28.0845 81.064 28.7925V29H78.0366ZM74.7773 26.8638C75.3633 26.8638 75.9126 26.7214 76.4253 26.4365C76.9461 26.1517 77.3368 25.7692 77.5972 25.2891V22.7988H75.998C74.8994 22.7988 74.0734 22.9901 73.52 23.3726C72.9666 23.755 72.6899 24.2962 72.6899 24.9961C72.6899 25.5658 72.8771 26.0215 73.2515 26.3633C73.634 26.6969 74.1426 26.8638 74.7773 26.8638ZM91.6719 27.7061C90.8011 28.7314 89.5641 29.2441 87.9609 29.2441C86.5286 29.2441 85.4422 28.825 84.7017 27.9868C83.9692 27.1486 83.603 25.936 83.603 24.3491V15.792H86.5693V24.3125C86.5693 25.9889 87.2651 26.8271 88.6567 26.8271C90.0972 26.8271 91.0697 26.3104 91.5742 25.2769V15.792H94.5405V29H91.7451L91.6719 27.7061ZM100.717 29H97.751V10.25H100.717V29ZM107.675 12.5815V15.792H110.007V17.9893H107.675V25.3623C107.675 25.8669 107.773 26.2331 107.968 26.4609C108.172 26.6807 108.53 26.7905 109.042 26.7905C109.384 26.7905 109.73 26.7498 110.08 26.6685V28.9634C109.405 29.1506 108.754 29.2441 108.127 29.2441C105.848 29.2441 104.709 27.9868 104.709 25.4722V17.9893H102.536V15.792H104.709V12.5815H107.675Z" fill="black"/>
<defs>
<clipPath id="clip0">
<rect width="40.8831" height="40" fill="white" transform="translate(9)"/>
</clipPath>
</defs>
</svg>
