<svg width="400" height="200" viewBox="0 0 400 200" fill="none" xmlns="http://www.w3.org/2000/svg">
<path d="M134.012 104.042H144.056L139.115 88.4653L134.012 104.042ZM134.522 79.415H143.868L157.887 119H148.917L146.366 110.863H131.783L129.044 119H120.396L134.522 79.415ZM170.133 119H162.479V79.415H170.133V119ZM185.44 119H177.787V79.415H185.44V119ZM200.56 89.7275V107.372C200.56 109.037 200.757 110.29 201.151 111.131C201.849 112.617 203.219 113.36 205.26 113.36C207.874 113.36 209.664 112.304 210.631 110.191C211.132 109.046 211.383 107.533 211.383 105.653V89.7275H219.144V119H211.705V114.864C211.633 114.954 211.454 115.222 211.168 115.67C210.882 116.118 210.541 116.511 210.147 116.852C208.948 117.926 207.784 118.66 206.656 119.054C205.546 119.448 204.239 119.645 202.735 119.645C198.403 119.645 195.484 118.087 193.98 114.972C193.139 113.253 192.718 110.72 192.718 107.372V89.7275H200.56ZM242.455 89.0293C242.598 89.0293 242.714 89.0382 242.804 89.0562C242.911 89.0562 243.135 89.0651 243.475 89.083V96.9248C242.992 96.8711 242.562 96.8353 242.186 96.8174C241.81 96.7995 241.506 96.7905 241.273 96.7905C238.194 96.7905 236.126 97.7931 235.069 99.7983C234.479 100.926 234.183 102.663 234.183 105.008V119H226.476V89.7275H233.78V94.8301C234.962 92.8786 235.991 91.5448 236.869 90.8286C238.301 89.6291 240.163 89.0293 242.455 89.0293ZM259.535 95.2598C257.762 95.2598 256.384 95.8148 255.399 96.9248C254.432 98.0348 253.823 99.5387 253.573 101.437H265.47C265.344 99.4134 264.727 97.8826 263.617 96.8442C262.525 95.7879 261.164 95.2598 259.535 95.2598ZM259.535 88.9487C261.97 88.9487 264.163 89.4053 266.114 90.3184C268.066 91.2314 269.677 92.6727 270.948 94.6421C272.094 96.3787 272.837 98.3929 273.177 100.685C273.374 102.027 273.455 103.961 273.419 106.485H253.385C253.492 109.422 254.414 111.48 256.151 112.662C257.207 113.396 258.478 113.763 259.964 113.763C261.54 113.763 262.82 113.316 263.805 112.42C264.342 111.937 264.816 111.266 265.228 110.406H273.043C272.846 112.143 271.942 113.906 270.331 115.697C267.824 118.543 264.315 119.967 259.803 119.967C256.079 119.967 252.794 118.767 249.947 116.368C247.101 113.969 245.677 110.066 245.677 104.659C245.677 99.5924 246.957 95.7074 249.518 93.0039C252.096 90.3005 255.435 88.9487 259.535 88.9487Z" fill="black"/>
</svg>
