<svg width="400" height="200" viewBox="0 0 400 200" fill="none" xmlns="http://www.w3.org/2000/svg">
<g clip-path="url(#clip0)">
<path d="M215.993 100.48C202.887 111.356 162.995 127.952 150.582 94.5767C147.616 110.118 155.845 135.985 178.629 145.762C198.76 155.652 219.739 144.198 219.739 144.198C228.967 135.205 233.176 118.573 215.993 100.48Z" fill="#616161"/>
<path d="M228.468 59.877C216.491 49.5385 189.992 44.4169 170.133 59.26C151.503 71.7489 150.582 94.5756 150.582 94.5756C153.755 107.064 166.346 119.041 190.606 113.206C187.74 96.4182 193.357 53.9403 228.468 59.8774V59.877Z" fill="#373737"/>
<path d="M192.322 85.225C208.294 91.1368 242.436 116.759 219.739 144.198C234.681 138.995 252.202 119.087 249.277 94.4684C247.777 72.0895 228.468 59.878 228.468 59.878C216.067 56.3819 199.399 61.2977 192.322 85.225Z" fill="black"/>
</g>
<defs>
<clipPath id="clip0">
<rect width="99.6" height="100" fill="white" transform="translate(150 50)"/>
</clipPath>
</defs>
</svg>
