<svg width="95" height="95" viewBox="0 0 95 95" fill="none" xmlns="http://www.w3.org/2000/svg">
<path d="M77.1 67.4L73.7001 64C75.6001 61 77 57.7 77.8 54.2H82.6V40.4H77.8C77 36.9 75.6001 33.6 73.7001 30.6L77.1 27.2L67.4 17.5L64 20.9C61 19 57.7001 17.6 54.2001 16.8V12H40.4V16.8C36.9 17.6 33.6 19 30.6 20.9L27.2001 17.5L17.5 27.2L20.9 30.6C19 33.6 17.6 36.9 16.8 40.4H12V54.2H16.8C17.6 57.7 19 61 20.9 64L17.5 67.4L27.2001 77.1L30.6 73.7C33.6 75.6 36.9 77 40.4 77.8V82.6H54.2001V77.8C57.7001 77 61 75.6 64 73.7L67.4 77.1" stroke="black" stroke-width="3" stroke-miterlimit="10" stroke-linecap="round" stroke-linejoin="round"/>
<path d="M47 63.2C55.8366 63.2 63 56.0366 63 47.2C63 38.3635 55.8366 31.2 47 31.2C38.1634 31.2 31 38.3635 31 47.2C31 56.0366 38.1634 63.2 47 63.2Z" stroke="black" stroke-width="3" stroke-miterlimit="10" stroke-linecap="round" stroke-linejoin="round"/>
<path d="M59 59.3L73.5 73.8" stroke="black" stroke-width="3" stroke-miterlimit="10" stroke-linecap="round" stroke-linejoin="round"/>
</svg>
