<svg width="400" height="200" viewBox="0 0 400 200" fill="none" xmlns="http://www.w3.org/2000/svg">
<path d="M111.857 62.8514H57.2842C56.575 62.8514 56 63.4264 56 64.1356V118.708C56 119.417 56.575 119.992 57.2842 119.992H111.857C112.566 119.992 113.141 119.417 113.141 118.708V64.1356C113.141 63.4264 112.566 62.8514 111.857 62.8514Z" fill="url(#paint0_linear)" stroke="black" stroke-width="0.989"/>
<path d="M102.262 78.8464C102.395 86.7216 92.6246 75.421 93.8797 70.6792C94.7067 69.8677 95.5399 69.1624 96.9688 69.0702C98.1444 69.1805 101.295 74.3399 102.262 78.8464Z" fill="white" stroke="black" stroke-width="1.3" stroke-linecap="square"/>
<path d="M77.8889 75.1497C85.9605 65.2091 93.3275 63.9644 98.7796 80.4369Z" fill="white"/>
<path d="M103.845 80.2632C101.789 81.0367 100.335 83.0096 100.335 85.3354C100.335 88.3297 102.737 90.7526 105.732 90.7526C108.188 90.7526 110.26 89.1166 110.926 86.8774C110.203 85.4963 109.024 84.1752 107.416 82.8399C106.393 81.9913 105.189 81.142 103.845 80.2632Z" fill="url(#paint1_radial)"/>
<path d="M81.7303 96.2509C81.4048 96.2509 81.0292 96.8469 81.6086 96.7987C84.5318 96.5553 87.3514 96.6155 89.785 98.3204L90.0082 98.2798L90.3125 97.8943L90.3781 97.7917C87.7146 96.0948 84.776 95.9438 81.7303 96.2509Z" fill="black"/>
<path d="M76.4148 102.622C61.8779 102.622 60.6177 116.854 60.5083 119.664H91.1446C91.2043 116.4 90.6253 102.622 76.4148 102.622Z" fill="black"/>
<path d="M81.1778 71.4315C73.3747 72.4076 72.0252 79.209 72.6883 81.6834C74.8824 89.478 75.9121 94.7737 75.982 103.668C77.3121 105.076 81.0187 106.666 83.3055 104.38C82.6044 99.0854 87.0187 97.5698 93.708 98.0607C101.665 98.6448 111.934 96.7609 111.934 89.2058C111.307 84.4447 105.81 80.9141 97.2757 76.0094" fill="url(#paint2_linear)"/>
<path d="M81.1778 71.4315C73.3747 72.4076 72.0252 79.209 72.6883 81.6834C74.8824 89.478 75.9121 94.7737 75.982 103.668C77.3121 105.076 81.0187 106.666 83.3055 104.38C82.6044 99.0854 87.0187 97.5698 93.708 98.0607C101.665 98.6448 111.934 96.7609 111.934 89.2058C111.307 84.4447 105.81 80.9141 97.2757 76.0094" stroke="black" stroke-width="1.3" stroke-linecap="square"/>
<path d="M85.221 84.1155C84.6306 83.5251 81.2599 73.0287 87.0447 71.38C90.7512 70.3237 95.1906 78.4702 95.1906 81.8663C95.1906 85.2625 88.259 86.8895 85.221 84.1156V84.1155Z" fill="white" stroke="url(#paint3_linear)" stroke-width="0.75" stroke-linecap="square"/>
<path d="M90.7944 76.227C90.4371 78.242 89.0003 79.6603 87.5853 79.3949C86.1703 79.1295 85.3128 77.2808 85.6702 75.2658C86.0275 73.2508 87.4643 71.8325 88.8793 72.0979C90.2943 72.3633 91.1518 74.212 90.7944 76.227Z" fill="black"/>
<path d="M88.7223 74.8482C88.517 75.2732 88.1919 75.6008 87.8693 75.7071C87.5468 75.8136 87.276 75.6827 87.1589 75.3638C87.0418 75.0451 87.0963 74.5868 87.3018 74.1618C87.5071 73.7366 87.8323 73.4091 88.1548 73.3027C88.4773 73.1963 88.7482 73.3272 88.8652 73.6459C88.9823 73.9647 88.9278 74.4231 88.7223 74.8481V74.8482ZM87.7173 77.8609C87.634 77.7405 87.634 77.6032 87.717 77.5008C87.8001 77.3985 87.9536 77.3465 88.1199 77.3646C88.2861 77.3827 88.4397 77.4681 88.5228 77.5885C88.6061 77.7089 88.6061 77.8462 88.5231 77.9485C88.44 78.0509 88.2864 78.1028 88.1202 78.0848C87.954 78.0667 87.8004 77.9813 87.7173 77.8609V77.8609Z" fill="white"/>
<path d="M75.7251 102.967C68.2093 102.763 63.3603 110.358 63.9023 110.631C64.8028 110.83 65.7664 108.693 69.5462 105.507C71.2598 104.063 75.7935 103.575 75.727 103.068C75.7259 103.033 75.727 103 75.7251 102.967V102.967Z" fill="white"/>
<path d="M98.783 80.4458C97.7273 76.2551 96.2316 73.1612 94.6137 71.0723C92.9958 68.9835 91.2245 67.8292 89.3588 67.5623C87.4932 67.2955 85.5705 67.9003 83.617 69.1854C81.6637 70.4706 79.1962 73.2679 77.8855 75.1504C80.0525 72.9959 82.0935 70.9625 83.962 69.7332C85.8305 68.504 87.6111 67.9731 89.2777 68.2116C90.9443 68.45 92.5371 69.4578 94.0862 71.4578C95.6352 73.4578 97.3259 76.3901 98.783 80.4458Z" fill="black"/>
<path d="M75.7855 105.117C67.7965 108.624 65.3909 114.206 65.3164 119.664H90.2921C90.2899 115.429 90.0447 109.823 83.9213 105.442C82.4713 106.718 80.5971 106.925 79.0317 106.598C77.7676 106.334 76.6429 105.782 75.7854 105.117L75.7855 105.117Z" fill="white"/>
<path d="M81.5125 71.684C86.9688 57.7234 84.5322 44.4661 79.6133 43.1631" stroke="black" stroke-width="0.5" stroke-linecap="square"/>
<path d="M83.2753 70.4074C82.9841 63.9457 97.6455 52.0399 102.728 58.067" stroke="black" stroke-width="0.5" stroke-linecap="square"/>
<path d="M81.5676 71.8027L81.3647 71.823C81.0048 72.1309 80.9845 72.0149 81.0198 71.8636C80.9508 71.8733 80.8848 71.8935 80.8169 71.9041C80.7473 71.9835 80.6665 72.0689 80.5531 72.2085L80.3502 72.452L80.1474 72.5331L80.3502 72.2897C80.5128 72.0895 80.5714 72.0006 80.5937 71.9447C80.5392 71.9542 80.4851 71.9549 80.4314 71.965C80.2296 72.1005 80.0594 72.2459 80.2894 72.0056C77.0841 72.6479 75.1928 74.3487 74.1215 76.2054C72.9545 78.2282 72.8039 80.4813 73.0868 81.5617C73.088 81.5664 73.0856 81.5773 73.0868 81.582C75.2612 89.3092 76.3069 94.661 76.3939 103.433C77.0013 104.037 78.1382 104.737 79.3764 104.995C80.1931 105.166 81.0142 105.152 81.7705 104.853C82.2218 104.392 82.5367 103.708 82.8661 102.946C82.9893 100.974 83.9488 99.5292 85.5442 98.6856C85.5519 98.6815 85.5568 98.6693 85.5645 98.6652L81.5676 71.8027V71.8027Z" fill="url(#paint4_radial)"/>
<path d="M80.372 43.0159C80.372 43.2854 80.265 43.5438 80.0745 43.7343C79.8839 43.9249 79.6255 44.0319 79.3561 44.0319C79.0866 44.0319 78.8282 43.9249 78.6377 43.7343C78.4471 43.5438 78.3401 43.2854 78.3401 43.0159C78.3401 42.7465 78.4471 42.4881 78.6376 42.2976C78.8282 42.107 79.0866 42 79.356 42C79.6255 42 79.8839 42.107 80.0744 42.2976C80.2649 42.4881 80.372 42.7465 80.372 43.0159H80.372ZM103.756 58.1037C103.756 58.3732 103.649 58.6316 103.458 58.8221C103.268 59.0126 103.009 59.1197 102.74 59.1197C102.47 59.1197 102.212 59.0126 102.022 58.8221C101.831 58.6316 101.724 58.3732 101.724 58.1037C101.724 57.8343 101.831 57.5759 102.022 57.3853C102.212 57.1948 102.47 57.0878 102.74 57.0878C103.009 57.0878 103.268 57.1948 103.458 57.3853C103.649 57.5759 103.756 57.8343 103.756 58.1037Z" fill="black"/>
<path d="M286.203 78.2411C287.53 77.9643 289.107 78.083 290.111 79.111C291.177 80.1498 291.323 81.7422 291.352 83.1549C291.352 93.5827 291.341 104.014 291.356 114.446C291.334 116.006 291.47 117.681 290.723 119.108C289.564 121.344 285.989 121.617 284.498 119.608C283.736 118.676 283.565 117.429 283.565 116.265C283.582 104.985 283.561 93.705 283.575 82.4252C283.54 80.689 284.391 78.7012 286.203 78.2411H286.203ZM301.788 78.2411C303.117 77.9643 304.693 78.083 305.694 79.111C306.759 80.1498 306.905 81.7423 306.934 83.155C306.934 93.9498 306.923 104.745 306.937 115.543C306.916 116.83 306.887 118.217 306.169 119.335C304.847 121.453 301.273 121.535 299.929 119.4C299.064 118.171 299.146 116.593 299.15 115.162C299.175 104.248 299.143 93.3351 299.161 82.4253C299.125 80.689 299.976 78.6976 301.788 78.2411V78.2411ZM270.013 78.2869C271.176 77.9818 272.506 78.0406 273.527 78.7573C275.682 80.117 275.632 83.8546 273.527 85.2365C271.503 86.6257 268.075 85.8024 267.492 83.1637C266.891 81.1497 268.057 78.8749 270.013 78.2869ZM125.638 80.0087C126.586 78.9649 128.075 78.759 129.407 78.7627C133.832 78.7734 138.253 78.7734 142.674 78.7662C145.606 78.7409 148.684 78.7807 151.384 80.0918C154.648 81.6847 156.968 85.1881 156.921 88.8795C157.032 91.191 156.299 93.5496 154.766 95.2941C153.717 96.5294 152.321 97.3818 150.911 98.133C153.646 99.0577 156.356 100.661 157.741 103.316C160.265 108.322 158.59 115.195 153.775 118.164C151.119 119.837 147.897 120.144 144.84 120.295C139.699 120.328 134.551 120.292 129.411 120.314C128.079 120.317 126.583 120.111 125.638 119.067C124.646 117.937 124.514 116.348 124.499 114.907C124.506 104.663 124.506 94.4164 124.499 84.1732C124.524 82.7321 124.628 81.1284 125.638 80.0088V80.0087ZM133.008 84.91C133.005 88.5219 133.005 92.1338 133.008 95.7456C136.187 95.7276 139.37 95.8178 142.549 95.6228C143.905 95.5181 145.326 95.3122 146.483 94.5321C148.709 92.9392 149.354 89.5332 147.9 87.2108C146.844 85.701 144.868 85.4193 143.189 85.152C139.806 84.8089 136.402 84.9317 133.008 84.91V84.91ZM133.008 101.525V114.166C136.352 114.13 139.699 114.253 143.039 114.079C145.079 113.96 147.274 113.52 148.785 112.028C150.474 110.305 150.61 107.564 149.944 105.36C149.103 102.897 146.357 101.958 144.02 101.705C140.358 101.387 136.678 101.572 133.008 101.525V101.525ZM166.623 90.1619C167.621 89.0922 169.226 89.0122 170.554 89.3251C172.149 89.8162 173.118 91.5371 173.118 93.1888C173.2 98.1547 173.029 103.124 173.2 108.09C173.331 110.451 173.764 113.358 176.076 114.519C179.734 116.156 184.364 113.198 184.723 109.171C185.22 104.714 184.968 100.218 185.021 95.7427C185.06 94.0183 184.766 92.0645 185.863 90.5911C186.96 89.0413 189.219 88.783 190.813 89.6161C192.194 90.3474 192.67 92.05 192.663 93.5416C192.667 101.193 192.656 108.847 192.67 116.502C192.663 117.589 192.528 118.757 191.85 119.641C190.571 121.406 187.652 121.388 186.335 119.681C185.447 118.67 185.508 117.226 185.419 115.96C183.54 118.051 181.307 120.005 178.505 120.562C175.451 121.144 172.046 121.06 169.375 119.248C167.941 118.277 166.744 116.873 166.208 115.181C165.373 112.678 165.398 109.997 165.405 107.385C165.409 103.012 165.405 98.6385 165.402 94.2692C165.423 92.8358 165.53 91.206 166.623 90.1619V90.1619ZM201.098 95.5444C202.881 92.1283 206.45 89.6846 210.335 89.3258C212.786 89.1284 215.368 89.2504 217.601 90.3772C219.456 91.2635 220.937 92.7347 222.23 94.2956C222.259 92.9751 222.212 91.4896 223.13 90.4238C224.314 88.9023 226.776 88.784 228.29 89.8533C229.626 91.1989 229.572 93.255 229.673 95.0097C229.673 101.587 229.579 108.168 229.677 114.749C229.677 118.944 229.753 123.53 227.281 127.154C225.175 130.222 221.355 131.489 217.778 131.833C213.908 132.135 209.87 132.167 206.21 130.71C204.025 129.856 201.839 128.572 200.688 126.472C199.958 125.119 199.882 123.203 201.076 122.08C202.561 120.674 205.216 120.95 206.483 122.522C207.826 124.075 209.173 125.93 211.37 126.296C213.893 126.684 216.707 126.741 218.995 125.45C220.752 124.466 221.413 122.396 221.609 120.526C221.765 118.678 221.805 116.823 221.798 114.968C220.131 116.995 218.025 118.833 215.393 119.443C211.856 120.229 207.877 119.819 204.914 117.627C201.588 115.262 199.864 111.272 199.362 107.35C198.905 103.371 199.134 99.1327 201.098 95.5444V95.5444ZM212.692 95.2429C209.997 95.8315 208.106 98.2572 207.51 100.823C206.868 103.618 206.875 106.625 207.826 109.352C208.712 111.922 211.221 113.917 214.01 113.96C216.544 114.157 219.075 112.811 220.4 110.684C222.074 108.15 222.223 104.946 221.722 102.039C221.373 99.9221 220.4 97.8409 218.668 96.4881C217.03 95.1209 214.736 94.8267 212.692 95.2429V95.2429ZM269.974 89.2879C271.302 88.9815 272.863 89.1457 273.867 90.1779C274.956 91.2138 275.121 92.8333 275.121 94.2704C275.114 101.084 275.107 107.901 275.124 114.718C275.107 116.338 275.203 118.154 274.189 119.515C272.778 121.477 269.409 121.459 268.116 119.376C267.18 118.023 267.352 116.279 267.337 114.711C267.355 107.653 267.337 100.599 267.345 93.5409C267.277 91.7646 268.163 89.7584 269.974 89.2879ZM318.774 91.3913C322.747 88.9574 327.591 88.983 332.073 89.3004C335.125 89.6142 338.538 90.5593 340.247 93.3691C342.313 96.8247 341.804 101.017 341.865 104.871C341.955 107.87 341.554 110.936 342.36 113.869C342.681 115.23 343.277 116.555 343.295 117.975C343.024 120.416 339.709 121.864 337.787 120.325C336.523 119.339 335.638 117.978 334.71 116.69C331.542 119.033 327.869 121.076 323.823 120.941C320.584 121.142 317.138 119.945 315.14 117.27C312.966 114.428 312.825 110.144 314.945 107.232C316.376 105.243 318.673 104.075 321.013 103.568C325.445 102.583 329.935 101.795 334.269 100.404C333.962 98.4887 333.742 95.9234 331.629 95.1644C329.415 94.4893 326.948 94.5513 324.737 95.2192C322.393 96.0037 321.393 98.434 319.886 100.175C318.167 101.233 315.299 100.368 314.891 98.215C314.519 95.3797 316.419 92.7342 318.774 91.3913V91.3913ZM325.03 107.593C323.357 108.035 321.454 109.177 321.356 111.118C321.053 113.315 322.859 115.376 324.968 115.665C327.796 116.077 330.91 115.063 332.727 112.782C334.287 110.655 334.153 107.848 334.219 105.331C331.21 106.305 328.085 106.812 325.03 107.593H325.03ZM236.347 90.3529C237.123 89.8134 238.099 89.8026 239.009 89.799C245.163 89.8242 251.318 89.799 257.477 89.8134C258.845 89.8781 260.51 90.0903 261.338 91.3276C262.111 92.7735 261.684 94.633 260.612 95.8198C255.244 101.805 249.902 107.818 244.636 113.893C249.863 113.94 255.093 113.875 260.323 113.918C261.916 113.846 263.508 115.116 263.425 116.781C263.599 118.457 261.952 119.731 260.37 119.652C252.897 119.673 245.416 119.662 237.94 119.655C236.242 119.706 234.407 118.587 234.263 116.781C233.909 114.598 235.931 113.185 237.145 111.681C241.927 106.243 246.984 101.024 251.423 95.3019C247.165 95.2048 242.902 95.3774 238.644 95.2012C237.607 95.1078 236.372 95.1185 235.624 94.2805C234.805 93.0683 235.065 91.155 236.347 90.3529V90.3529Z" fill="black"/>
<defs>
<linearGradient id="paint0_linear" x1="113.462" y1="62.5303" x2="113.462" y2="120.313" gradientUnits="userSpaceOnUse">
<stop stop-color="white"/>
<stop offset="1" stop-color="white"/>
</linearGradient>
<radialGradient id="paint1_radial" cx="0" cy="0" r="1" gradientUnits="userSpaceOnUse" gradientTransform="translate(105.27 85.3389) scale(3.40592)">
<stop stop-color="white"/>
<stop offset="1" stop-color="white" stop-opacity="0"/>
</radialGradient>
<linearGradient id="paint2_linear" x1="80.9846" y1="98.368" x2="77.215" y2="103.978" gradientUnits="userSpaceOnUse">
<stop stop-color="white"/>
<stop offset="1" stop-color="white"/>
</linearGradient>
<linearGradient id="paint3_linear" x1="88.2868" y1="74.579" x2="86.3791" y2="74.4413" gradientUnits="userSpaceOnUse">
<stop/>
<stop offset="1" stop-color="#363433" stop-opacity="0"/>
</linearGradient>
<radialGradient id="paint4_radial" cx="0" cy="0" r="1" gradientUnits="userSpaceOnUse" gradientTransform="translate(74.5673 55.4661) scale(6.35591)">
<stop stop-color="#E4BC98"/>
<stop offset="1" stop-color="#F6DAAA" stop-opacity="0"/>
</radialGradient>
</defs>
</svg>
