<svg width="400" height="200" viewBox="0 0 400 200" fill="none" xmlns="http://www.w3.org/2000/svg">
<path d="M126.412 108.418L131.715 111.377C130.523 115.908 128.111 119.424 124.479 121.924C120.865 124.404 116.705 125.645 111.998 125.645C105.826 125.645 100.875 123.643 97.1445 119.639C93.4141 115.635 91.5488 110.684 91.5488 104.785C91.5488 98.3203 93.4238 93.1738 97.1738 89.3457C100.924 85.5176 105.816 83.6035 111.852 83.6035C117.184 83.6035 121.666 85.0586 125.299 87.9688V84.248H130.572V97.3438H125.299C124.127 94.6875 122.32 92.6367 119.879 91.1914C117.438 89.7266 114.869 88.9941 112.174 88.9941C108.111 88.9941 104.771 90.459 102.154 93.3887C99.5566 96.3184 98.2578 100.02 98.2578 104.492C98.2578 109.082 99.6543 112.832 102.447 115.742C105.24 118.652 108.551 120.107 112.379 120.107C115.523 120.107 118.385 119.102 120.963 117.09C123.541 115.059 125.357 112.168 126.412 108.418ZM140.943 120.049V89.1992H135.816V84.248H146.51V99.8926C149.85 97.1973 153.023 95.8496 156.031 95.8496C157.906 95.8496 159.449 96.2402 160.66 97.0215C161.871 97.8027 162.691 98.8379 163.121 100.127C163.57 101.396 163.795 103.262 163.795 105.723V120.049H168.629V125H158.229V107.656C158.229 105.508 158.16 104.072 158.023 103.35C157.887 102.627 157.506 102.031 156.881 101.562C156.275 101.094 155.553 100.859 154.713 100.859C152.564 100.859 149.83 102.08 146.51 104.521V120.049H151.432V125H135.816V120.049H140.943ZM200.064 120.049V125H190.338V121.543C187.643 124.16 184.635 125.469 181.314 125.469C178.736 125.469 176.49 124.629 174.576 122.949C172.682 121.27 171.734 119.121 171.734 116.504C171.734 113.867 172.74 111.68 174.752 109.941C176.783 108.203 179.225 107.334 182.076 107.334C184.732 107.334 187.301 108.135 189.781 109.736V106.924C189.781 105.479 189.645 104.365 189.371 103.584C189.098 102.803 188.453 102.1 187.438 101.475C186.441 100.85 185.133 100.537 183.512 100.537C180.719 100.537 178.697 101.65 177.447 103.877L172.115 102.471C174.479 98.0566 178.561 95.8496 184.361 95.8496C186.49 95.8496 188.326 96.1426 189.869 96.7285C191.432 97.2949 192.594 98.0371 193.355 98.9551C194.117 99.8535 194.625 100.83 194.879 101.885C195.152 102.939 195.289 104.619 195.289 106.924V120.049H200.064ZM189.781 114.453C187.379 112.578 184.947 111.641 182.486 111.641C180.943 111.641 179.654 112.09 178.619 112.988C177.584 113.887 177.066 115.049 177.066 116.475C177.066 117.803 177.516 118.916 178.414 119.814C179.332 120.713 180.572 121.162 182.135 121.162C184.83 121.162 187.379 120.029 189.781 117.764V114.453ZM207.887 120.049V101.592H202.174V96.6406H212.34V103.027C212.965 101.367 213.834 99.9902 214.947 98.8965C216.061 97.8027 217.232 97.0801 218.463 96.7285C219.713 96.377 221.412 96.2012 223.561 96.2012H225.025V101.826H223.912C221.08 101.826 218.961 102.109 217.555 102.676C216.168 103.242 215.133 104.277 214.449 105.781C213.785 107.266 213.453 109.941 213.453 113.809V120.049H219.635V125H202.174V120.049H207.887ZM230.885 120.049V89.1992H225.846V84.248H236.451V120.049H240.787V125H225.846V120.049H230.885ZM274.332 112.227H250.484C250.836 114.844 251.871 116.963 253.59 118.584C255.309 120.205 257.506 121.016 260.182 121.016C264.068 121.016 267.145 119.453 269.41 116.328L274.332 118.496C272.73 120.977 270.65 122.822 268.092 124.033C265.533 125.225 262.857 125.82 260.064 125.82C255.729 125.82 252.018 124.473 248.932 121.777C245.865 119.062 244.332 115.41 244.332 110.82C244.332 106.465 245.826 102.881 248.814 100.068C251.822 97.2559 255.27 95.8496 259.156 95.8496C262.965 95.8496 266.412 97.2266 269.498 99.9805C272.604 102.715 274.215 106.797 274.332 112.227ZM268.59 108.184C268.199 106.191 267.164 104.395 265.484 102.793C263.805 101.172 261.744 100.361 259.303 100.361C257.076 100.361 255.172 101.094 253.59 102.559C252.008 104.004 251.041 105.879 250.689 108.184H268.59ZM279.02 125V115.273H284V116.211C284.176 117.539 284.889 118.633 286.139 119.492C287.408 120.352 288.902 120.781 290.621 120.781C292.418 120.781 293.854 120.469 294.928 119.844C296.002 119.219 296.539 118.35 296.539 117.236C296.539 116.162 296.09 115.371 295.191 114.863C294.312 114.355 292.555 113.887 289.918 113.457C286.012 112.793 283.219 111.729 281.539 110.264C279.879 108.779 279.049 106.865 279.049 104.521C279.049 102.158 279.957 100.186 281.773 98.6035C283.59 97.002 285.982 96.2012 288.951 96.2012C291.627 96.2012 293.932 96.748 295.865 97.8418V96.6406H300.816V106.045H295.865V104.316C294.361 101.992 292.174 100.83 289.303 100.83C287.838 100.83 286.627 101.152 285.67 101.797C284.732 102.422 284.264 103.262 284.264 104.316C284.264 105.391 284.693 106.133 285.553 106.543C286.432 106.934 288.307 107.354 291.178 107.803C293.932 108.232 296.012 108.74 297.418 109.326C298.824 109.893 299.986 110.85 300.904 112.197C301.842 113.525 302.311 115.078 302.311 116.855C302.311 119.492 301.295 121.592 299.264 123.154C297.252 124.697 294.635 125.469 291.412 125.469C288.385 125.469 285.914 124.785 284 123.418V125H279.02Z" fill="black"/>
</svg>
