<svg width="400" height="200" viewBox="0 0 400 200" fill="none" xmlns="http://www.w3.org/2000/svg">
<path d="M244.02 79.5634C244.02 77.909 243.667 76.4173 242.935 75.1696C242.229 73.922 241.172 72.8914 239.761 72.0777C228.044 65.3242 216.301 58.5708 204.584 51.8172C201.41 50 198.373 50.0543 195.226 51.8986C190.561 54.638 167.182 68.0364 160.238 72.0777C157.363 73.7321 155.98 76.2817 155.98 79.5906V120.383C155.98 122.01 156.333 123.447 157.011 124.695C157.716 125.97 158.801 127.055 160.238 127.896C167.209 131.937 190.561 145.308 195.226 148.075C198.373 149.919 201.437 150 204.584 148.156C216.301 141.375 228.044 134.649 239.761 127.896C241.226 127.055 242.284 125.997 242.989 124.695C243.667 123.447 244.02 122.01 244.02 120.383V79.5634Z" fill="black"/>
<path d="M200.108 99.824L156.957 124.668C157.662 125.943 158.747 127.028 160.184 127.869C167.155 131.91 190.507 145.281 195.172 148.048C198.318 149.892 201.383 149.973 204.529 148.129C216.246 141.348 227.99 134.622 239.707 127.869C241.172 127.028 242.229 125.97 242.935 124.668L200.108 99.824Z" fill="black"/>
<path d="M187.334 107.174C189.856 111.568 194.575 114.524 199.973 114.524C205.424 114.524 210.171 111.541 212.666 107.093L200.109 99.824L187.334 107.174Z" fill="black"/>
<path d="M244.02 79.5635C244.02 77.9091 243.667 76.4174 242.935 75.1697L200.108 99.824L242.989 124.668C243.667 123.42 244.02 121.983 244.02 120.356V79.5635Z" fill="black"/>
<path d="M212.666 107.093C210.171 111.514 205.425 114.524 199.973 114.524C194.548 114.524 189.829 111.568 187.334 107.174C186.113 105.032 185.408 102.591 185.408 99.9596C185.408 91.9042 191.918 85.3949 199.973 85.3949C205.343 85.3949 210.035 88.3241 212.558 92.6636L225.278 85.3406C220.206 76.6073 210.768 70.7217 199.946 70.7217C183.781 70.7217 170.708 83.8218 170.708 99.9596C170.708 105.248 172.118 110.239 174.586 114.524C179.631 123.285 189.124 129.198 199.973 129.198C210.849 129.198 220.342 123.258 225.387 114.443L212.666 107.093ZM228.75 93.0434H225.848V107.066H228.75V93.0434ZM235.178 93.0434H232.276V107.066H235.178V93.0434Z" fill="white"/>
<path d="M237.537 95.4031H223.515V98.3052H237.537V95.4031ZM237.537 101.804H223.515V104.706H237.537V101.804Z" fill="white"/>
</svg>
