<svg width="400" height="200" viewBox="0 0 400 200" fill="none" xmlns="http://www.w3.org/2000/svg">
<path d="M105.431 122.026C102.601 123.891 98.1181 124.714 93.4312 124.714C78.5397 124.714 70.1221 115.748 70.1221 101.476C70.1221 87.6815 78.5397 78.0255 93.2979 78.0255C97.7105 78.0255 102.123 78.8563 105.368 81.1606V87.1642C102.123 85.095 98.5413 84.0291 93.2979 84.0291C82.6779 84.0291 76.3295 91.083 76.3295 101.476C76.3295 111.868 82.8817 118.789 93.6428 118.789C97.7262 118.826 101.759 117.88 105.399 116.03L105.431 122.026Z" fill="black"/>
<path d="M109.765 106.727C109.765 96.381 115.831 88.8647 126.177 88.8647C136.523 88.8647 142.456 96.381 142.456 106.727C142.456 117.072 136.452 124.753 126.177 124.753C115.902 124.753 109.765 117.072 109.765 106.727ZM115.557 106.727C115.557 113.279 118.802 119.212 126.177 119.212C133.552 119.212 136.664 113.279 136.664 106.727C136.664 100.174 133.529 94.3824 126.185 94.3824C118.841 94.3824 115.573 100.174 115.573 106.727H115.557Z" fill="black"/>
<path d="M178.681 124.04H172.748V103.216C172.748 97.0083 170.263 94.2495 164.612 94.2495C159.126 94.2495 155.301 97.9018 155.301 104.869V124.04H149.368V89.5547H155.301V95.2135C156.357 93.2551 157.933 91.6261 159.855 90.5059C161.777 89.3857 163.971 88.8179 166.196 88.865C174.127 88.865 178.681 94.3513 178.681 103.835V124.04Z" fill="black"/>
<path d="M195.195 89.5547H204.091V95.041H195.195V124.04H189.403V95.041H183.815V89.5547H189.403V85.7613C189.403 79.3501 192.993 75.0002 200.376 75.0002C201.727 74.9927 203.073 75.1774 204.373 75.5489V81.0352C203.146 80.8018 201.899 80.6864 200.65 80.6903C196.998 80.6903 195.164 82.83 195.164 85.9337L195.195 89.5547Z" fill="black"/>
<path d="M219.719 124.244C214.06 124.244 210.479 121.555 210.479 115.207V75.141H216.412V114.517C216.412 117.652 218.481 118.726 221.036 118.726C221.611 118.736 222.187 118.712 222.76 118.655V123.969C221.761 124.184 220.74 124.276 219.719 124.244Z" fill="black"/>
<path d="M227.784 89.5544H233.717V110.379C233.717 116.586 236.201 119.345 241.852 119.345C247.339 119.345 251.163 115.693 251.163 108.725V89.5544H257.112V124.04H251.179V118.381C250.123 120.34 248.548 121.969 246.625 123.089C244.703 124.209 242.509 124.777 240.285 124.73C232.353 124.73 227.799 119.243 227.799 109.768L227.784 89.5544Z" fill="black"/>
<path d="M282.545 124.73C269.645 124.73 263.994 117.284 263.994 106.703C263.994 96.2873 269.786 88.8416 280.272 88.8416C290.892 88.8416 295.164 96.2246 295.164 106.703V109.392H269.997C270.828 115.254 274.621 119.048 282.757 119.048C286.335 119.044 289.884 118.413 293.244 117.182V122.669C290.406 124.174 286.064 124.73 282.545 124.73ZM269.927 104.352H289.168C288.823 97.941 285.923 94.2809 279.998 94.2809C273.72 94.2417 270.546 98.3094 269.927 104.313V104.352Z" fill="black"/>
<path d="M331.515 124.04H325.582V103.216C325.582 97.0083 323.097 94.2495 317.446 94.2495C311.96 94.2495 308.135 97.9018 308.135 104.869V124.04H302.202V89.5547H308.135V95.2135C309.191 93.2551 310.767 91.6261 312.689 90.5059C314.611 89.3857 316.805 88.8179 319.03 88.865C326.961 88.865 331.515 94.3513 331.515 103.835V124.04Z" fill="black"/>
<path d="M364.143 123.139C362.074 124.244 358.9 124.706 355.726 124.706C343.452 124.706 337.699 117.261 337.699 106.68C337.699 96.2635 343.42 88.8178 355.726 88.8178C358.552 88.7251 361.361 89.2912 363.932 90.4715V95.9579C361.498 94.8112 358.831 94.2451 356.141 94.3041C347.175 94.3041 343.522 99.9629 343.522 106.648C343.522 113.334 347.245 119.071 356.274 119.071C358.94 119.141 361.597 118.722 364.112 117.833L364.143 123.139Z" fill="black"/>
<path d="M387.382 124.73C374.481 124.73 368.83 117.284 368.83 106.703C368.83 96.2873 374.622 88.8416 385.109 88.8416C395.729 88.8416 400 96.2246 400 106.703V109.392H374.826C375.657 115.254 379.45 119.048 387.586 119.048C391.163 119.044 394.713 118.413 398.072 117.182V122.669C395.243 124.174 390.901 124.73 387.382 124.73ZM374.763 104.352H394.005C393.66 97.941 390.76 94.2809 384.834 94.2809C378.557 94.2417 375.382 98.3094 374.763 104.313V104.352Z" fill="black"/>
<path d="M1.78603 113.82C1.27659 114.651 0.704441 115.615 0.218508 116.383C0.009426 116.737 -0.0526942 117.158 0.0454993 117.556C0.143693 117.955 0.394361 118.299 0.743629 118.515L10.9325 124.785C11.1096 124.894 11.3066 124.967 11.5122 125C11.7177 125.032 11.9277 125.023 12.1298 124.974C12.3318 124.924 12.522 124.835 12.6892 124.711C12.8564 124.587 12.9973 124.431 13.1036 124.252C13.5111 123.57 14.0362 122.685 14.6084 121.736C18.6448 115.074 22.7046 115.889 30.025 119.385L40.1277 124.189C40.3171 124.28 40.5226 124.331 40.7322 124.34C40.9417 124.349 41.151 124.316 41.3476 124.243C41.5442 124.17 41.7241 124.058 41.8767 123.915C42.0293 123.771 42.1515 123.598 42.236 123.406L47.0875 112.433C47.2523 112.056 47.2624 111.63 47.1158 111.246C46.9692 110.862 46.6776 110.551 46.3037 110.38C44.1719 109.376 39.9317 107.378 36.1148 105.536C22.3833 98.8661 10.7131 99.2972 1.78603 113.82Z" fill="url(#paint0_linear)"/>
<path d="M47.4715 88.9196C47.9809 88.0888 48.5531 87.1248 49.039 86.3567C49.2481 86.0034 49.3102 85.5821 49.212 85.1835C49.1138 84.7849 48.8632 84.4407 48.5139 84.2249L38.325 77.9548C38.1466 77.8346 37.9454 77.7525 37.7339 77.7134C37.5225 77.6744 37.3052 77.6793 37.0957 77.7278C36.8862 77.7763 36.6889 77.8674 36.5161 77.9955C36.3433 78.1235 36.1987 78.2857 36.0913 78.4721C35.6837 79.1539 35.1586 80.0396 34.5865 80.9879C30.5501 87.6499 26.4902 86.8348 19.1698 83.3392L9.0985 78.5583C8.90911 78.4681 8.70356 78.4169 8.49402 78.4077C8.28448 78.3984 8.07521 78.4313 7.87861 78.5044C7.68202 78.5775 7.50208 78.6892 7.34948 78.8331C7.19687 78.977 7.07469 79.1501 6.99018 79.342L2.13869 90.3147C1.97394 90.6914 1.96377 91.1177 2.11037 91.5018C2.25698 91.8859 2.54862 92.1971 2.92245 92.3682C5.05428 93.3714 9.29444 95.37 13.1114 97.2118C26.8742 103.874 38.5445 103.427 47.4715 88.9196Z" fill="url(#paint1_linear)"/>
<defs>
<linearGradient id="paint0_linear" x1="46.8132" y1="128.022" x2="15.9878" y2="110.309" gradientUnits="userSpaceOnUse">
<stop offset="0.18"/>
<stop offset="1"/>
</linearGradient>
<linearGradient id="paint1_linear" x1="-12999" y1="37052.9" x2="-11931.7" y2="38277.7" gradientUnits="userSpaceOnUse">
<stop offset="0.18"/>
<stop offset="1"/>
</linearGradient>
</defs>
</svg>
