<svg width="400" height="200" viewBox="0 0 400 200" fill="none" xmlns="http://www.w3.org/2000/svg">
<path fill-rule="evenodd" clip-rule="evenodd" d="M300.998 95.77C297.837 95.77 295.834 97.323 294.359 99.7044C294.359 99.0832 294.675 98.3584 294.675 97.8407V96.8054H289.406V122.689H294.675V107.78C294.675 103.535 296.994 100.947 300.998 100.947H302.052V95.77H300.998ZM86.7599 105.295C85.2846 103.018 83.177 101.464 80.121 101.464C75.2735 101.464 71.7959 105.088 71.7959 109.644C71.7959 114.199 75.2735 117.823 80.121 117.823C83.177 117.823 85.2846 116.374 86.7599 114.096L91.6074 116.891C89.289 120.412 84.9685 123 80.121 123C71.1636 123 66 116.374 66 109.747C66 103.121 71.269 96.4948 80.121 96.4948C85.6007 96.4948 89.0783 99.0832 91.6074 102.603L86.7599 105.295ZM96.2441 97.116H101.724V111.197C101.724 114.924 104.464 117.513 107.941 117.513C111.314 117.513 114.159 114.821 114.159 111.197V97.116H119.639V111.611C119.639 118.651 114.053 122.896 107.941 122.896C101.829 122.896 96.2441 118.651 96.2441 111.611V97.116ZM145.351 105.295C143.876 103.018 141.768 101.464 138.712 101.464C133.865 101.464 130.387 105.088 130.387 109.644C130.387 114.199 133.865 117.823 138.712 117.823C141.768 117.823 143.876 116.374 145.351 114.096L150.199 116.891C147.88 120.412 143.56 123 138.712 123C129.755 123 124.591 116.374 124.591 109.747C124.591 103.121 129.755 96.4948 138.712 96.4948C144.192 96.4948 147.67 99.0832 150.199 102.603L145.351 105.295ZM154.836 97.116H160.315V111.197C160.315 114.924 163.055 117.513 166.533 117.513C169.905 117.513 172.75 114.821 172.75 111.197V97.116H178.23V111.611C178.23 118.651 172.645 122.896 166.533 122.896C160.421 122.896 154.836 118.651 154.836 111.611V97.116ZM185.08 106.538C185.08 100.119 189.4 96.4948 194.459 96.4948C198.358 96.4948 201.098 98.3584 202.151 100.947H202.257C203.31 98.2549 206.05 96.4948 209.949 96.4948C215.008 96.4948 219.328 100.222 219.328 106.538V122.275H213.849V106.538C213.849 103.535 211.952 101.775 209.633 101.775C206.999 101.775 205.102 103.328 205.102 107.263V122.172H199.622V107.263C199.622 103.328 197.725 101.775 195.091 101.775C192.772 101.775 190.876 103.535 190.876 106.538V122.172H185.08V106.538ZM226.073 89.6614H231.552V100.222H231.658C232.922 98.1513 236.4 96.4948 239.983 96.4948C246.622 96.4948 253.261 101.361 253.261 109.747C253.261 118.134 246.622 123 239.983 123C236.4 123 232.922 121.343 231.658 119.273H231.552V122.379H226.073V89.6614ZM239.456 101.568C234.925 101.568 231.552 105.088 231.552 109.747C231.552 114.407 234.925 117.927 239.456 117.927C244.093 117.927 247.465 114.407 247.465 109.747C247.465 104.985 244.093 101.568 239.456 101.568V101.568ZM282.767 116.788C279.711 120.619 275.496 122.896 270.859 122.896C261.902 122.896 256.738 116.27 256.738 109.644C256.738 103.018 262.007 96.4948 270.859 96.4948C276.128 96.4948 284.137 100.843 284.137 110.576V111.507H262.956C263.272 115.338 266.96 118.134 270.754 118.134C273.705 118.134 276.234 116.684 278.13 114.199L282.767 116.788ZM277.709 107.055C276.55 103.225 273.705 101.154 270.122 101.154C266.644 101.154 263.799 103.328 262.85 107.055H277.709Z" fill="#1B1D1E"/>
<path fill-rule="evenodd" clip-rule="evenodd" d="M317.007 58C307.471 58 299.751 65.583 299.751 74.9541C299.751 83.2038 305.771 90.0589 313.714 91.584V96.4378C324.042 94.9075 333.187 86.8535 333.868 76.2793C334.279 69.916 331.049 63.4201 325.602 60.2644C325.291 60.0801 324.972 59.9074 324.648 59.7467C324.316 59.5862 323.973 59.4298 323.626 59.2942C323.517 59.2487 323.408 59.2072 323.298 59.1648C322.994 59.054 322.689 58.9308 322.376 58.8407C320.643 58.2814 318.831 57.9976 317.007 58Z" fill="black"/>
<path fill-rule="evenodd" clip-rule="evenodd" d="M320.564 64.2765C320.257 64.2433 319.946 64.2849 319.659 64.3978C319.371 64.5106 319.117 64.6912 318.918 64.9236C318.602 65.3377 318.404 65.7394 318.193 66.1536C317.561 67.6031 317.771 69.1561 318.72 70.295C320.195 69.9844 321.447 69.0588 322.079 67.6093C322.29 67.1951 322.408 66.664 322.408 66.2499C322.475 65.1503 321.548 64.3759 320.564 64.2765ZM312.891 64.3738C311.929 64.4639 311.014 65.2145 311.014 66.2499C311.014 66.664 311.132 67.1951 311.343 67.6093C311.975 69.0588 313.325 69.9844 314.801 70.295C315.644 69.1561 315.862 67.6031 315.23 66.1536C315.019 65.7394 314.821 65.3315 314.505 65.0209C314.31 64.7912 314.062 64.612 313.78 64.4992C313.499 64.3863 313.194 64.3433 312.891 64.3738V64.3738ZM307.721 69.3559C306.059 69.4398 305.317 71.4919 306.699 72.5594C307.121 72.87 307.529 73.0967 307.951 73.3038C309.426 73.925 311.133 73.7117 312.398 72.8834C312.082 71.5374 311.007 70.3012 309.532 69.68C309.005 69.4729 308.577 69.3559 308.05 69.3559C307.932 69.3435 307.832 69.3508 307.721 69.3559V69.3559ZM323.956 75.6333C322.986 75.616 322.033 75.8866 321.223 76.4099C321.539 77.7558 322.613 78.992 324.088 79.6133C324.615 79.8203 325.043 79.9363 325.57 79.9363C327.466 80.0398 328.395 77.7362 326.919 76.7008C326.498 76.3902 326.09 76.1966 325.669 75.9895C325.127 75.7631 324.545 75.6421 323.956 75.6333ZM309.565 75.7307C308.986 75.741 308.406 75.8528 307.853 76.0858C307.326 76.2929 306.917 76.5206 306.601 76.8313C305.231 77.9701 306.153 80.1372 308.05 80.0336C308.577 80.0336 309.11 79.9166 309.532 79.7096C311.007 79.0883 312.054 77.8532 312.265 76.5072C311.467 75.9845 310.525 75.7136 309.565 75.7307ZM314.9 78.9009C313.424 79.2115 312.174 80.1372 311.541 81.5867C311.331 82.0008 311.211 82.4988 311.211 82.913C311.106 84.6731 313.55 85.6184 314.604 84.2724C314.92 83.8583 315.117 83.4565 315.328 83.0424C315.96 81.6964 315.743 80.1434 314.9 78.9009ZM318.819 78.9983C317.976 80.1372 317.759 81.6902 318.391 83.1397C318.602 83.5539 318.799 83.9618 319.115 84.2724C320.274 85.5148 322.712 84.5954 322.606 83.0424C322.606 82.6282 322.487 82.0981 322.276 81.684C321.644 80.2345 320.294 79.3089 318.819 78.9983Z" fill="white"/>
</svg>
