<svg width="99" height="98" viewBox="0 0 99 98" fill="none" xmlns="http://www.w3.org/2000/svg">
<path d="M48.7554 28.8025C59.7742 28.8025 68.6091 37.7367 68.6091 48.6562C68.6091 59.5757 59.675 68.5099 48.7554 68.5099C37.8359 68.5099 28.9017 59.5757 28.9017 48.6562C28.9017 43.1964 31.0856 38.233 34.6593 34.6593" stroke="black" stroke-width="3" stroke-miterlimit="10" stroke-linecap="round" stroke-linejoin="round"/>
<path d="M48.7555 14.8057C67.418 14.8057 82.6061 29.9938 82.6061 48.6562C82.6061 67.3187 67.418 82.5068 48.7555 82.5068C30.093 82.5068 14.9049 67.418 14.9049 48.6562C14.9049 39.2257 18.6771 30.7879 24.931 24.6332" stroke="black" stroke-width="3" stroke-miterlimit="10" stroke-linecap="round" stroke-linejoin="round"/>
<path d="M48.7555 2C74.5653 2 95.511 22.9457 95.511 48.7555C95.511 74.5653 74.5653 95.5109 48.7555 95.5109C22.9457 95.5109 2 74.5653 2 48.7555C2 35.8506 7.26122 24.1369 15.699 15.699" stroke="black" stroke-width="3" stroke-miterlimit="10" stroke-linecap="round" stroke-linejoin="round"/>
<path d="M48.7555 56.2006C52.9221 56.2006 56.2999 52.8229 56.2999 48.6562C56.2999 44.4896 52.9221 41.1118 48.7555 41.1118C44.5888 41.1118 41.2111 44.4896 41.2111 48.6562C41.2111 52.8229 44.5888 56.2006 48.7555 56.2006Z" stroke="black" stroke-width="3" stroke-miterlimit="10"/>
<path d="M48.8547 2V41.7074" stroke="black" stroke-width="3" stroke-miterlimit="10"/>
<path d="M16.0961 60.0721C18.015 60.0721 19.5705 58.5165 19.5705 56.5977C19.5705 54.6788 18.015 53.1233 16.0961 53.1233C14.1772 53.1233 12.6217 54.6788 12.6217 56.5977C12.6217 58.5165 14.1772 60.0721 16.0961 60.0721Z" fill="white" stroke="black" stroke-width="3" stroke-miterlimit="10"/>
<path d="M48.8546 71.9843C50.7735 71.9843 52.329 70.4288 52.329 68.5099C52.329 66.5911 50.7735 65.0355 48.8546 65.0355C46.9358 65.0355 45.3802 66.5911 45.3802 68.5099C45.3802 70.4288 46.9358 71.9843 48.8546 71.9843Z" fill="white" stroke="black" stroke-width="3" stroke-miterlimit="10"/>
<path d="M93.5255 65.0355C95.4444 65.0355 96.9999 63.48 96.9999 61.5611C96.9999 59.6423 95.4444 58.0867 93.5255 58.0867C91.6067 58.0867 90.0511 59.6423 90.0511 61.5611C90.0511 63.48 91.6067 65.0355 93.5255 65.0355Z" fill="white" stroke="black" stroke-width="3" stroke-miterlimit="10"/>
<path d="M68.7084 25.3281C70.6273 25.3281 72.1828 23.7726 72.1828 21.8537C72.1828 19.9348 70.6273 18.3793 68.7084 18.3793C66.7896 18.3793 65.234 19.9348 65.234 21.8537C65.234 23.7726 66.7896 25.3281 68.7084 25.3281Z" fill="white" stroke="black" stroke-width="3" stroke-miterlimit="10"/>
</svg>
