<svg width="107" height="95" viewBox="0 0 107 95" fill="none" xmlns="http://www.w3.org/2000/svg">
<path d="M30.7 47.1H71.1" stroke="black" stroke-width="3" stroke-miterlimit="10" stroke-linecap="round" stroke-linejoin="round"/>
<path d="M26.2999 21.8C29.5584 21.8 32.2 19.1585 32.2 15.9C32.2 12.6415 29.5584 10 26.2999 10C23.0414 10 20.4 12.6415 20.4 15.9C20.4 19.1585 23.0414 21.8 26.2999 21.8Z" stroke="black" stroke-width="3" stroke-miterlimit="10"/>
<path d="M67.6 16.2H60.6C59.8 16.2 59.1 16.8 58.9 17.6L57.6 26.5C57.5 27.3 56.8 27.9 55.9 27.9H43.7C42.9 27.9 42.2 27.3 42 26.5L40.7 17.6C40.6 16.8 39.9 16.2 39 16.2H32" stroke="black" stroke-width="3" stroke-miterlimit="10" stroke-linecap="round" stroke-linejoin="round"/>
<path d="M7.90002 36.9C11.1585 36.9 13.7999 34.2585 13.7999 31C13.7999 27.7415 11.1585 25.1 7.90002 25.1C4.64154 25.1 2 27.7415 2 31C2 34.2585 4.64154 36.9 7.90002 36.9Z" stroke="black" stroke-width="3" stroke-miterlimit="10"/>
<path d="M86 31.4H66.4C65.6 31.4 64.8999 31.9 64.7999 32.7L63.7 37.6C63.5 38.4 62.8 38.9 62.1 38.9H37.9C37.1 38.9 36.3999 38.4 36.2999 37.6L35.2 32.7C35 31.9 34.3 31.4 33.6 31.4H14" stroke="black" stroke-width="3" stroke-miterlimit="10" stroke-linecap="round" stroke-linejoin="round"/>
<path d="M24.6 53C27.8585 53 30.5 50.3585 30.5 47.1C30.5 43.8415 27.8585 41.2 24.6 41.2C21.3415 41.2 18.7 43.8415 18.7 47.1C18.7 50.3585 21.3415 53 24.6 53Z" stroke="black" stroke-width="3" stroke-miterlimit="10"/>
<path d="M26.2999 84.9C29.5584 84.9 32.2 82.2585 32.2 79C32.2 75.7415 29.5584 73.1 26.2999 73.1C23.0414 73.1 20.4 75.7415 20.4 79C20.4 82.2585 23.0414 84.9 26.2999 84.9Z" stroke="black" stroke-width="3" stroke-miterlimit="10"/>
<path d="M32.2 78.6H39.2C40 78.6 40.7 78 40.9 77.2L42.2 68.3C42.3 67.5 43 66.9 43.9 66.9H56.1C56.9 66.9 57.5999 67.5 57.7999 68.3L59.1 77.2C59.2 78 59.8999 78.6 60.7999 78.6H67.7999" stroke="black" stroke-width="3" stroke-miterlimit="10" stroke-linecap="round" stroke-linejoin="round"/>
<path d="M7.90002 69.7C11.1585 69.7 13.7999 67.0585 13.7999 63.8C13.7999 60.5415 11.1585 57.9 7.90002 57.9C4.64154 57.9 2 60.5415 2 63.8C2 67.0585 4.64154 69.7 7.90002 69.7Z" stroke="black" stroke-width="3" stroke-miterlimit="10"/>
<path d="M13.7999 63.4H33.4C34.2 63.4 34.9 62.9 35 62.1L36.1 57.2C36.3 56.4 37 55.9 37.7 55.9H61.9C62.7 55.9 63.4 56.4 63.5 57.2L64.6 62.1C64.8 62.9 65.5 63.4 66.2 63.4H85.7999" stroke="black" stroke-width="3" stroke-miterlimit="10" stroke-linecap="round" stroke-linejoin="round"/>
<path d="M92.7999 25.6L97.2 32.3L104.8 21.1" stroke="black" stroke-width="3" stroke-miterlimit="10" stroke-linecap="round" stroke-linejoin="round"/>
<path d="M73.7999 14.6L78.2 21.3L85.7999 10.1" stroke="black" stroke-width="3" stroke-miterlimit="10" stroke-linecap="round" stroke-linejoin="round"/>
<path d="M76.7999 42.8L81.2 49.5L88.7999 38.3" stroke="black" stroke-width="3" stroke-miterlimit="10" stroke-linecap="round" stroke-linejoin="round"/>
<path d="M92.7999 60L97.2 66.7L104.8 55.5" stroke="black" stroke-width="3" stroke-miterlimit="10" stroke-linecap="round" stroke-linejoin="round"/>
<path d="M73.7999 77L78.2 83.7L85.7999 72.5" stroke="black" stroke-width="3" stroke-miterlimit="10" stroke-linecap="round" stroke-linejoin="round"/>
</svg>
