<svg width="400" height="200" viewBox="0 0 400 200" fill="none" xmlns="http://www.w3.org/2000/svg">
<path d="M105.621 125.576V91.2109H101.402V86.7871H131.314V97.3047H126.744V91.2109H110.895V105.654H125.133V110.078H110.895V125.576H116.256V130H101.402V125.576H105.621ZM137.965 125.576V106.035H133.541V101.611H143.062V125.576H147.369V130H133.365V125.576H137.965ZM137.555 95.8984V89.9219H143.385V95.8984H137.555ZM175.348 130V125.576C174.371 126.709 173.6 127.52 173.033 128.008C170.826 129.902 168.092 130.85 164.83 130.85C160.768 130.85 157.477 129.424 154.957 126.572C152.535 123.818 151.324 120.225 151.324 115.791C151.324 111.357 152.535 107.773 154.957 105.039C157.477 102.188 160.768 100.762 164.83 100.762C166.998 100.762 168.873 101.152 170.455 101.934C172.057 102.715 173.57 103.984 174.996 105.742V91.2109H170.016V86.7871H180.094V125.576H184.43V130H175.348ZM165.475 105.186C162.838 105.186 160.67 106.172 158.971 108.145C157.33 110.059 156.51 112.607 156.51 115.791C156.51 118.779 157.232 121.221 158.678 123.115C160.377 125.322 162.691 126.426 165.621 126.426C168.57 126.426 170.914 125.312 172.652 123.086C174.215 121.094 174.996 118.682 174.996 115.85C174.996 112.666 174.117 110.098 172.359 108.145C170.602 106.172 168.307 105.186 165.475 105.186ZM212.672 130V125.576C211.695 126.709 210.924 127.52 210.357 128.008C208.15 129.902 205.416 130.85 202.154 130.85C198.092 130.85 194.801 129.424 192.281 126.572C189.859 123.818 188.648 120.225 188.648 115.791C188.648 111.357 189.859 107.773 192.281 105.039C194.801 102.188 198.092 100.762 202.154 100.762C204.322 100.762 206.197 101.152 207.779 101.934C209.381 102.715 210.895 103.984 212.32 105.742V91.2109H207.34V86.7871H217.418V125.576H221.754V130H212.672ZM202.799 105.186C200.162 105.186 197.994 106.172 196.295 108.145C194.654 110.059 193.834 112.607 193.834 115.791C193.834 118.779 194.557 121.221 196.002 123.115C197.701 125.322 200.016 126.426 202.945 126.426C205.895 126.426 208.238 125.312 209.977 123.086C211.539 121.094 212.32 118.682 212.32 115.85C212.32 112.666 211.441 110.098 209.684 108.145C207.926 106.172 205.631 105.186 202.799 105.186ZM230.25 125.576V91.2109H225.826V86.7871H235.348V125.576H239.654V130H225.65V125.576H230.25ZM272.379 117.256H248.941C249.195 119.346 249.693 120.986 250.436 122.178C252.193 125.01 254.947 126.426 258.697 126.426C260.553 126.426 262.281 126.162 263.883 125.635C265.504 125.088 267.311 124.17 269.303 122.881L271.822 126.689C267.623 129.482 263.229 130.879 258.639 130.879C254.029 130.879 250.357 129.443 247.623 126.572C244.967 123.799 243.639 120.205 243.639 115.791C243.639 111.377 244.947 107.783 247.564 105.01C250.201 102.178 253.727 100.762 258.141 100.762C261.734 100.762 264.752 101.787 267.193 103.838C270.611 106.709 272.34 111.182 272.379 117.256ZM266.959 113.184C266.627 111.27 266.051 109.736 265.23 108.584C263.551 106.24 261.148 105.068 258.023 105.068C254.586 105.068 252.057 106.465 250.436 109.258C249.811 110.352 249.352 111.66 249.059 113.184H266.959ZM281.197 125.576V106.035H276.803V101.611H286.148V106.299C287.77 104.287 289.166 102.939 290.338 102.256C291.998 101.26 293.951 100.762 296.197 100.762H297.398V105.654H296.314C294.771 105.654 293.541 105.801 292.623 106.094C291.705 106.387 290.787 106.924 289.869 107.705C288.893 108.525 287.701 109.99 286.295 112.1V125.576H290.836V130H276.803V125.576H281.197Z" fill="black"/>
</svg>
