<svg width="400" height="200" viewBox="0 0 400 200" fill="none" xmlns="http://www.w3.org/2000/svg">
<path d="M186.444 124.416C186.444 124.747 186.063 125.011 185.584 125.011C185.038 125.061 184.657 124.796 184.657 124.416C184.657 124.085 185.038 123.82 185.517 123.82C186.014 123.771 186.444 124.035 186.444 124.416ZM181.299 123.671C181.183 124.002 181.514 124.383 182.01 124.482C182.44 124.647 182.937 124.482 183.036 124.151C183.135 123.82 182.821 123.44 182.325 123.291C181.895 123.175 181.415 123.341 181.299 123.671ZM188.611 123.39C188.131 123.506 187.8 123.82 187.85 124.201C187.899 124.532 188.33 124.747 188.826 124.631C189.306 124.515 189.636 124.201 189.587 123.87C189.537 123.556 189.091 123.341 188.611 123.39ZM199.496 60C176.551 60 159 77.4191 159 100.363C159 118.709 170.547 134.407 187.039 139.933C189.157 140.313 189.901 139.006 189.901 137.931C189.901 136.905 189.851 131.248 189.851 127.774C189.851 127.774 178.272 130.255 175.84 122.844C175.84 122.844 173.954 118.031 171.241 116.79C171.241 116.79 167.453 114.193 171.506 114.242C171.506 114.242 175.625 114.573 177.891 118.51C181.514 124.896 187.585 123.059 189.951 121.968C190.331 119.321 191.406 117.485 192.597 116.393C183.35 115.367 174.02 114.027 174.02 98.1136C174.02 93.5644 175.278 91.2816 177.924 88.3701C177.494 87.2949 176.088 82.8615 178.355 77.1379C181.812 76.0626 189.769 81.6043 189.769 81.6043C193.077 80.6779 196.634 80.1982 200.157 80.1982C203.681 80.1982 207.237 80.6779 210.546 81.6043C210.546 81.6043 218.503 76.0461 221.96 77.1379C224.226 82.8781 222.82 87.2949 222.39 88.3701C225.037 91.2981 226.658 93.581 226.658 98.1136C226.658 114.077 216.915 115.351 207.668 116.393C209.189 117.7 210.48 120.181 210.48 124.068C210.48 129.643 210.43 136.541 210.43 137.898C210.43 138.973 211.191 140.28 213.292 139.9C229.834 134.407 241.05 118.709 241.05 100.363C241.05 77.4191 222.44 60 199.496 60ZM175.079 117.055C174.864 117.22 174.914 117.6 175.195 117.915C175.46 118.179 175.84 118.295 176.055 118.08C176.27 117.915 176.221 117.534 175.939 117.22C175.675 116.955 175.294 116.839 175.079 117.055ZM173.293 115.715C173.177 115.93 173.342 116.194 173.673 116.36C173.938 116.525 174.269 116.476 174.384 116.244C174.5 116.029 174.335 115.764 174.004 115.599C173.673 115.5 173.408 115.549 173.293 115.715ZM178.652 121.604C178.388 121.819 178.487 122.315 178.867 122.629C179.248 123.01 179.728 123.059 179.943 122.795C180.158 122.58 180.058 122.083 179.728 121.769C179.364 121.389 178.867 121.339 178.652 121.604ZM176.766 119.172C176.502 119.337 176.502 119.767 176.766 120.148C177.031 120.528 177.478 120.694 177.693 120.528C177.958 120.313 177.958 119.883 177.693 119.503C177.461 119.122 177.031 118.957 176.766 119.172Z" fill="black"/>
</svg>
