<svg width="400" height="200" viewBox="0 0 400 200" fill="none" xmlns="http://www.w3.org/2000/svg">
<path fill-rule="evenodd" clip-rule="evenodd" d="M224.072 82.7077C215.667 82.7077 210.447 89.3847 210.447 100.134C210.447 110.883 215.667 117.56 224.072 117.56C227.23 117.56 230.164 116.665 232.555 114.97L232.671 114.888V102.812H220.578V98.5238H237.619V116.519C234.011 120.006 229.33 121.848 224.072 121.848C212.79 121.848 205.499 113.324 205.499 100.134C205.499 86.9433 212.79 78.4199 224.072 78.4199C229.565 78.4199 234.202 80.4253 237.502 84.2228L234.206 86.9615C231.718 84.1392 228.309 82.7077 224.072 82.7077V82.7077ZM319.225 121.161H315.406L314.122 117.616L313.818 117.889C313.776 117.927 309.515 121.71 304.15 121.71C298.735 121.71 294.805 118.108 294.805 113.144C294.805 105.958 301.008 104.45 306.211 104.45C310.265 104.45 313.895 105.362 313.932 105.372L314.274 105.459V104.587C314.274 100.676 311.832 98.6925 307.015 98.6925C304.097 98.6925 301.014 99.4132 298.083 100.777L296.102 97.3622C298.689 95.679 302.617 93.745 307.015 93.745C314.661 93.745 319.225 97.8987 319.225 104.855V121.161ZM308.673 108.257C302.837 108.257 299.752 109.947 299.752 113.144C299.752 115.377 301.437 116.763 304.15 116.763C308.619 116.763 312.543 114.931 314.156 113.848L314.277 113.767V108.721L314.049 108.682C314.024 108.677 311.526 108.257 308.673 108.257ZM292.055 116.873V121.161H275.564V80.4814H280.512V116.873H292.055ZM336.298 121.848C333.085 121.848 329.562 121.406 325.827 120.533V80.4814H330.774V95.9082L331.199 95.6322C331.226 95.6146 333.986 93.8511 337.789 93.8511C338.548 93.8511 339.307 93.9221 340.04 94.0606C346.277 95.3381 350 100.37 350 107.522C350 115.957 344.366 121.848 336.298 121.848V121.848ZM336.848 98.6925C334.881 98.6925 332.823 99.3659 330.897 100.639L330.774 100.721V117.121L331.009 117.156C332.867 117.428 334.646 117.567 336.298 117.567C341.452 117.567 345.053 113.435 345.053 107.522C345.053 101.911 342.062 98.6925 336.848 98.6925V98.6925ZM268.963 94.2244V98.5122H260.718V111.101C260.718 112.643 261.317 114.092 262.408 115.182C262.943 115.72 263.579 116.146 264.279 116.437C264.98 116.727 265.731 116.875 266.489 116.873H268.963V121.161H266.489C260.579 121.161 255.77 116.352 255.77 110.441V80.4814H260.717V94.2244H268.963ZM244.221 83.23H249.168V88.1775H244.221V83.23ZM244.221 94.2244H249.168V121.161H244.221V94.2244Z" fill="black"/>
<path fill-rule="evenodd" clip-rule="evenodd" d="M107.68 153.267L128.922 87.8938H86.4391L107.68 153.267Z" fill="black"/>
<path fill-rule="evenodd" clip-rule="evenodd" d="M107.68 153.267L86.4391 87.8938H56.67L107.68 153.267Z" fill="black"/>
<path fill-rule="evenodd" clip-rule="evenodd" d="M56.67 87.8938L50.2152 107.76C49.9283 108.643 49.9283 109.595 50.2152 110.478C50.5022 111.361 51.0614 112.131 51.8127 112.677L107.681 153.267L56.67 87.8938Z" fill="black"/>
<path fill-rule="evenodd" clip-rule="evenodd" d="M56.67 87.8944H86.4391L73.6454 48.5195C72.9874 46.4932 70.1217 46.4938 69.4631 48.5195L56.67 87.8944Z" fill="black"/>
<path fill-rule="evenodd" clip-rule="evenodd" d="M107.68 153.267L128.922 87.8938H158.691L107.68 153.267Z" fill="black"/>
<path fill-rule="evenodd" clip-rule="evenodd" d="M158.691 87.8938L165.145 107.76C165.432 108.643 165.432 109.595 165.145 110.478C164.858 111.361 164.299 112.131 163.548 112.677L107.68 153.267L158.691 87.8938Z" fill="black"/>
<path fill-rule="evenodd" clip-rule="evenodd" d="M158.691 87.8944H128.922L141.715 48.5195C142.373 46.4932 145.239 46.4938 145.897 48.5195L158.691 87.8944Z" fill="black"/>
</svg>
