<svg width="393" height="200" viewBox="0 0 393 200" fill="none" xmlns="http://www.w3.org/2000/svg">
<g clip-path="url(#clip0)">
<path d="M146.657 94.293C149 88.9056 148.941 83.5768 147.536 79.3605C145.779 74.2074 138.576 67.4146 136.293 70.1083C136 70.4596 131.842 69.9912 131.198 70.8696C130.203 72.1578 130.788 72.5677 131.257 73.0362C132.721 74.3245 136.41 75.7299 138.108 80.1218C138.811 81.9957 140.45 86.329 137.581 88.9641C134.36 91.8921 130.73 92.5948 115.856 78.775C100.045 64.0768 78.8467 70.0497 71.8196 72.3921C64.7926 74.7344 61.5719 77.0768 64.3241 82.4641C68.0719 89.8425 66.8422 87.5587 70.5313 93.6488C76.3286 103.311 89.0944 89.1984 89.0944 89.1984C79.6079 103.487 71.4683 100.032 68.3647 95.0542C65.5539 90.5452 63.3872 85.3921 63.3872 85.3921C39.3782 94.0587 45.8782 132.239 45.8782 132.239H57.8241C60.8692 118.185 71.7611 118.712 73.5764 132.239H82.653C90.6755 104.775 107.892 132.239 107.892 132.239H118.081C118.081 117.599 116.558 112.095 124.054 111.041C136.82 109.343 142.793 103.37 146.657 94.293Z" fill="#373737"/>
<path d="M189.698 90.6036V96.4009C190.928 94.2928 193.738 89.491 202.874 89.7838L202.815 99.7973C200.707 99.8559 197.018 99.9145 194.031 102.198C189.874 105.36 189.698 109.518 189.698 116.252V131.653H180.27V90.5451L189.698 90.6036V90.6036ZM206.797 102.901C206.973 100.851 207.148 98.8604 208.437 96.5181C212.36 89.4325 222.022 89.491 224.657 89.491C228.581 89.491 233.266 90.0181 236.838 92.1262C241.639 95.0541 241.698 98.919 241.698 103.311L241.639 124.86C241.639 127.964 241.639 129.194 243.396 131.653H231.86C231.802 130.658 231.626 128.784 231.626 128.257C229.518 130.014 225.184 132.356 219.563 132.356C210.369 132.297 204.865 126.617 204.865 119.59C204.865 117.541 205.392 115.667 206.211 114.086C209.139 108.23 215.405 106.941 219.329 106.239C232.621 104.014 231.86 102.725 231.626 100.734C231.45 98.8604 229.518 97.1036 225.009 97.1036C220.968 97.1036 218.743 98.3919 217.748 99.6802C216.693 100.969 216.752 101.788 216.752 102.96L206.797 102.901V102.901ZM231.86 111.158C229.928 112.153 227.702 112.856 223.311 113.559C219.797 114.027 215.171 114.847 215.171 119.122C215.171 122.284 217.865 123.923 221.73 123.923C226.707 123.923 230.22 121.698 231.275 119.239C231.86 118.009 231.86 116.779 231.86 115.608V111.158ZM285.383 74.1487L285.207 131.653H275.545V127.671C272.5 131.302 268.459 132.766 264.243 132.766C254.581 132.707 246.207 125.446 246.266 112.036C246.324 99.9145 253.175 89.6081 264.829 89.6667C268.811 89.6667 272.5 90.8379 275.603 94.2343V74.1487H285.383V74.1487ZM273.32 102.432C271.856 100.207 269.455 98.6847 266.175 98.6847C259.558 98.6847 256.396 104.599 256.396 111.041C256.396 111.802 256.455 123.982 265.941 123.982C270.977 123.982 275.545 120.293 275.486 111.509C275.369 108.874 275.076 105.126 273.32 102.432V102.432ZM302.365 74.1487L302.189 131.653H292.351V74.1487H302.365ZM345.991 122.108C341.482 130.072 335.743 133 327.428 133C316.77 132.941 306.522 126.207 306.581 111.216C306.639 97.5721 315.423 89.8424 326.901 89.9009C337.617 89.9595 342.067 96.4009 342.887 97.5721C346.225 102.315 346.928 109.401 346.986 113.441L316.887 113.324C318 119.766 321.982 123.455 328.423 123.455C335.099 123.455 336.856 119.532 338.085 117.833L345.991 122.108V122.108ZM336.329 106.239C335.45 99.9145 331.585 97.6892 327.252 97.6892C322.04 97.6892 318.468 100.676 317.297 106.18L336.329 106.239Z" fill="black"/>
<path d="M150.229 101.613V110.045H164.635V119.941C160.946 122.284 156.729 123.631 150.698 123.631C140.977 123.631 132.955 115.491 132.955 102.784C132.955 90.3108 140.333 81.9955 151.576 81.9955C160.594 81.9955 163.991 89.4324 164.518 92.2432H174.356C174.356 86.5045 167.563 72.3918 150.698 72.3918C132.838 72.3918 122.297 85.0405 122.297 102.842C122.297 121.347 134.946 132.941 150.054 132.941C172.423 132.941 174.356 121.757 174.356 121.757V101.613H150.229V101.613Z" fill="black"/>
<path d="M148.473 84.3963C146.306 84.572 144.139 84.9234 142.09 85.5089C142.031 85.5675 141.973 85.6846 141.914 85.7432C140.977 86.7972 139.806 87.7927 138.518 88.3783C138.342 88.4954 138.166 88.554 137.991 88.6126L137.639 88.9639C134.419 91.8918 130.495 92.5945 115.914 78.7747C100.279 63.9594 78.9051 70.0495 71.8781 72.3918C64.8511 74.7342 61.6304 77.0765 64.3826 82.4639C68.1303 89.8423 66.9006 87.5585 70.5898 93.6486C76.3871 103.311 89.1529 89.1981 89.1529 89.1981C79.6664 103.486 71.5267 100.031 68.4231 95.054C65.6123 90.545 63.4457 85.3918 63.4457 85.3918C39.4367 94.0585 45.9367 132.239 45.9367 132.239H57.8826C60.9277 118.185 71.8195 118.712 73.6349 132.239H82.7114C90.734 104.775 107.95 132.239 107.95 132.239H118.139C118.139 117.599 116.617 112.095 124.112 111.04C136.937 109.284 142.851 103.311 146.716 94.2927C148.121 90.8963 148.648 87.4999 148.473 84.3963V84.3963Z" fill="#373737"/>
<path d="M105.198 88.2026C105.198 88.2026 110.703 90.018 118.081 92.4774C117.671 94.4684 113.982 98.2747 109.239 96.6351C102.914 94.5855 105.198 88.2026 105.198 88.2026Z" fill="white"/>
<path d="M111.805 95.3849C113.638 95.1901 114.972 93.5983 114.784 91.8295C114.596 90.0607 112.957 88.7847 111.124 88.9796C109.291 89.1744 107.957 90.7662 108.145 92.535C108.333 94.3038 109.972 95.5797 111.805 95.3849Z" fill="#373737"/>
<path d="M131.257 73.0947C131.666 73.446 132.193 73.7974 132.72 74.1487C135.18 72.0992 138.401 72.1577 141.153 71.0451C138.752 68.8199 134.887 67.1217 133.716 68.5271C133.423 68.8785 131.901 70.0496 131.257 70.928C130.202 72.2163 130.729 72.6262 131.257 73.0947V73.0947Z" fill="#373737"/>
</g>
<defs>
<clipPath id="clip0">
<rect width="302.045" height="65" fill="white" transform="translate(45 68)"/>
</clipPath>
</defs>
</svg>
