<svg width="400" height="200" viewBox="0 0 400 200" fill="none" xmlns="http://www.w3.org/2000/svg">
<path d="M86.981 94.9138H92.0151L93.2656 93.1922V79.7057H85.7308V93.1933L86.981 94.9138Z" fill="black"/>
<path d="M83.736 100.929L85.2914 96.1417L84.0404 94.4199L71.214 90.2524L68.8855 97.4184L81.7138 101.586L83.736 100.929Z" fill="black"/>
<path d="M88.454 105.875L84.3817 102.915L82.3577 103.573L74.4305 114.484L80.526 118.913L88.454 108.001V105.875Z" fill="black"/>
<path d="M94.6153 102.915L90.5422 105.874L90.5428 108.001L98.4698 118.913L104.566 114.484L96.6375 103.572L94.6153 102.915Z" fill="black"/>
<path d="M93.7037 96.1405L95.26 100.929L97.2839 101.585L110.11 97.4185L107.782 90.2525L94.9549 94.4207L93.7037 96.1405Z" fill="black"/>
<path d="M89.4998 68C71.5796 68 57 82.577 57 100.495C57 118.419 71.5796 133 89.4998 133C107.418 133 121.996 118.419 121.996 100.495C121.996 82.577 107.418 68 89.4998 68ZM89.4998 74.5795C103.81 74.5795 115.416 86.1804 115.416 100.495C115.416 114.814 103.81 126.419 89.4998 126.419C75.1838 126.419 63.5802 114.814 63.5802 100.495C63.5802 86.1804 75.1838 74.5795 89.4998 74.5795Z" fill="black"/>
<path d="M109.183 107.718L99.4325 104.549L100.078 102.563L109.827 105.731L109.183 107.718Z" fill="black"/>
<path d="M96.7474 92.0642L95.0579 90.8369L101.083 82.5421L102.773 83.7691L96.7474 92.0642Z" fill="black"/>
<path d="M82.3531 91.9883L76.3282 83.6938L78.0182 82.4662L84.043 90.7612L82.3531 91.9883Z" fill="black"/>
<path d="M69.7732 107.593L69.1283 105.607L78.878 102.44L79.5226 104.426L69.7732 107.593Z" fill="black"/>
<path d="M88.3895 121.214H90.4775V110.961H88.3895V121.214Z" fill="black"/>
<path d="M136.148 108.444C136.201 110.745 137.613 113.098 140.228 113.098C141.798 113.098 142.948 112.366 143.733 111.059C144.465 109.751 144.465 107.816 144.465 106.351V87.5736H140.385V81.6102H155.606V87.5736H151.579V107.24C151.579 110.588 151.369 113.203 149.016 115.923C146.923 118.329 143.524 119.689 140.28 119.689C133.585 119.689 128.459 115.243 128.721 108.444H136.148Z" fill="black"/>
<path d="M179.352 104.835C179.352 100.231 175.534 96.5173 170.931 96.5173C166.171 96.5173 162.51 100.441 162.51 105.148C162.51 109.699 166.328 113.465 170.826 113.465C175.638 113.465 179.352 109.594 179.352 104.835ZM179.248 115.191C177.207 118.277 173.912 119.689 170.251 119.689C162.248 119.689 155.919 113.047 155.919 105.148C155.919 97.0405 162.405 90.2934 170.565 90.2934C174.174 90.2934 177.312 91.9669 179.248 95.0008V91.0256H189.238V96.9882H185.733V112.994H189.238V118.957H179.248V115.191Z" fill="black"/>
<path d="M197.659 110.849C197.868 113.36 199.542 115.033 202.157 115.033C204.093 115.033 205.975 113.674 205.975 111.582C205.975 108.809 203.36 108.339 201.215 107.763C196.351 106.508 191.016 104.991 191.016 98.8717C191.016 93.5362 195.514 90.4503 200.484 90.4503C202.993 90.4503 205.243 90.9737 206.812 92.9607V91.0256H211.52V98.6103H205.347C205.243 96.6221 203.726 95.3148 201.739 95.3148C200.012 95.3148 198.182 96.3086 198.182 98.2438C198.182 100.859 200.745 101.434 202.785 101.905C207.806 103.056 213.193 104.625 213.193 110.902C213.193 116.551 208.434 119.689 203.203 119.689C200.378 119.689 197.815 118.8 195.985 116.656V118.957H191.121V110.849H197.659Z" fill="black"/>
<path d="M218.528 96.9882H214.92V91.0257H224.335V95.21C226.113 92.2811 228.833 90.3456 232.39 90.3456C236.26 90.3456 239.503 92.6991 241.072 96.2038C242.589 92.6472 246.355 90.3456 250.226 90.3456C253.26 90.3456 256.241 91.6005 258.281 93.9023C260.478 96.4657 260.478 99.2376 260.478 102.428V112.994H264.087V118.957H250.487V112.994H254.097V103.998C254.097 102.167 254.097 100.545 253.26 98.9234C252.214 97.4071 250.487 96.6221 248.71 96.6221C246.983 96.6221 245.1 97.3547 244.002 98.7139C242.694 100.388 242.694 101.958 242.694 103.998V112.994H246.303V118.957H232.703V112.994H236.313V104.416C236.313 102.742 236.313 100.65 235.476 99.1852C234.587 97.5118 232.756 96.6221 230.873 96.6221C229.094 96.6221 227.577 97.25 226.427 98.6627C225.014 100.388 224.91 102.219 224.91 104.364V112.994H228.519V118.957H214.92V112.994H218.528V96.9882Z" fill="black"/>
<path d="M276.169 88.358H269.787V81.6102H276.169V88.358ZM276.169 112.994H279.778V118.957H266.126V112.994H269.787V96.9882H266.178V91.0257H276.169V112.994Z" fill="black"/>
<path d="M285.322 96.9882H281.713V91.0257H291.703V95.0008C293.377 91.9147 296.515 90.3975 299.967 90.3975C303.001 90.3975 305.982 91.6534 308.022 93.8501C310.324 96.4133 310.376 98.8717 310.376 102.062V112.994H313.985V118.957H300.386V112.994H303.995V103.945C303.995 102.219 303.995 100.441 302.896 98.9234C301.746 97.4071 299.863 96.6751 297.98 96.6751C296.044 96.6751 294.057 97.4595 292.906 99.0281C291.703 100.597 291.703 103.003 291.703 104.887V112.994H295.312V118.957H281.713V112.994H285.322V96.9882Z" fill="black"/>
<path d="M337.993 102.481C336.895 98.4532 333.338 95.8896 329.206 95.8896C325.439 95.8896 321.83 98.8187 321.046 102.481H337.993ZM342.857 110.745C340.66 116.08 335.483 119.689 329.677 119.689C321.516 119.689 314.978 113.308 314.978 105.096C314.978 96.8311 321.203 90.1887 329.519 90.1887C333.391 90.1887 337.261 91.9147 339.98 94.6873C342.754 97.6161 343.904 101.173 343.904 105.148L343.695 107.397H321.098C321.935 111.268 325.492 114.092 329.468 114.092C332.239 114.092 334.645 113.047 336.215 110.745H342.857Z" fill="black"/>
</svg>
