<svg width="400" height="200" viewBox="0 0 400 200" fill="none" xmlns="http://www.w3.org/2000/svg">
<path d="M237.253 143.287H236.688V142.97H238.209V143.287H237.648V144.864H237.253V143.287ZM240.287 143.369H240.278L239.718 144.864H239.462L238.906 143.369H238.899V144.864H238.527V142.971H239.074L239.59 144.311L240.104 142.971H240.65V144.864H240.287V143.369H240.287ZM186.665 104.568C186.665 104.568 182.733 106.854 189.463 107.628C197.616 108.558 201.783 108.425 210.767 106.724C210.767 106.724 213.129 108.205 216.428 109.488C196.287 118.12 170.845 108.988 186.665 104.568V104.568ZM184.203 93.3034C184.203 93.3034 179.794 96.5677 186.528 97.2643C195.238 98.1628 202.116 98.2363 214.017 95.9446C214.017 95.9446 215.663 97.6134 218.252 98.5261C193.9 105.647 166.776 99.0876 184.203 93.3034" fill="black"/>
<path d="M204.952 74.1953C209.915 79.909 203.648 85.0507 203.648 85.0507C203.648 85.0507 216.249 78.5455 210.462 70.3994C205.057 62.8027 200.912 59.0282 223.351 46.0142C223.351 46.0142 188.129 54.8111 204.952 74.1953" fill="black"/>
<path d="M231.59 112.9C231.59 112.9 234.5 115.297 228.386 117.152C216.76 120.674 179.998 121.737 169.786 117.292C166.115 115.695 172.999 113.479 175.165 113.014C177.423 112.524 178.714 112.615 178.714 112.615C174.631 109.739 152.325 118.262 167.383 120.703C208.449 127.363 242.242 117.704 231.59 112.9ZM188.555 81.6322C188.555 81.6322 169.856 86.0736 181.933 87.6865C187.033 88.3692 197.199 88.2148 206.668 87.4214C214.406 86.7686 222.177 85.3806 222.177 85.3806C222.177 85.3806 219.448 86.5492 217.474 87.8972C198.485 92.8914 161.802 90.568 172.363 85.4597C181.294 81.1425 188.555 81.6322 188.555 81.6322V81.6322ZM222.1 100.382C241.403 90.3517 232.478 80.7124 226.249 82.011C224.722 82.3288 224.041 82.6042 224.041 82.6042C224.041 82.6042 224.608 81.7162 225.69 81.3319C238.014 76.9991 247.492 94.1107 221.712 100.888C221.712 100.888 222.011 100.621 222.1 100.382" fill="black"/>
<path d="M210.462 25C210.462 25 221.152 35.694 200.323 52.1384C183.619 65.3296 196.514 72.8508 200.316 81.4442C190.566 72.6473 183.41 64.9033 188.211 57.696C195.256 47.1162 214.775 41.9868 210.462 25Z" fill="black"/>
<path d="M190.452 127.563C208.981 128.749 237.434 126.905 238.108 118.138C238.108 118.138 236.812 121.461 222.795 124.101C206.98 127.077 187.475 126.73 175.906 124.822C175.907 124.822 178.275 126.782 190.452 127.563V127.563ZM187.416 161.063C185.668 162.579 183.822 163.43 182.165 163.43C179.8 163.43 178.523 162.012 178.523 159.738C178.523 157.278 179.892 155.479 185.383 155.479H187.415V161.063H187.416ZM192.239 166.505V149.66C192.239 145.357 189.784 142.518 183.867 142.518C180.413 142.518 177.387 143.371 174.927 144.459L175.637 147.44C177.574 146.73 180.08 146.068 182.541 146.068C185.949 146.068 187.416 147.44 187.416 150.278V152.407H185.714C177.432 152.407 173.696 155.622 173.696 160.447C173.696 164.612 176.158 166.979 180.794 166.979C183.774 166.979 185.998 165.749 188.077 163.948L188.455 166.505H192.239V166.505ZM208.335 166.505H202.32L195.08 142.944H200.333L204.825 157.42L205.824 161.774C208.097 155.479 209.704 149.093 210.508 142.944H215.618C214.249 150.703 211.785 159.218 208.335 166.505V166.505ZM231.411 161.063C229.66 162.579 227.81 163.43 226.154 163.43C223.793 163.43 222.512 162.012 222.512 159.738C222.512 157.278 223.884 155.479 229.376 155.479H231.411V161.063ZM236.233 166.505V149.66C236.233 145.357 233.773 142.518 227.863 142.518C224.406 142.518 221.379 143.371 218.92 144.459L219.629 147.44C221.566 146.73 224.078 146.068 226.536 146.068C229.942 146.068 231.411 147.44 231.411 150.278V152.407H229.707C221.423 152.407 217.688 155.622 217.688 160.447C217.688 164.612 220.148 166.979 224.783 166.979C227.764 166.979 229.988 165.749 232.071 163.948L232.45 166.505H236.233V166.505ZM168.408 170.506C167.033 172.513 164.812 174.102 162.381 175L160 172.198C161.851 171.248 163.438 169.715 164.175 168.286C164.813 167.016 165.077 165.379 165.077 161.463V134.565H170.201V161.095C170.201 166.329 169.782 168.444 168.408 170.506" fill="black"/>
</svg>
