<svg width="400" height="200" viewBox="0 0 400 200" fill="none" xmlns="http://www.w3.org/2000/svg">
<path d="M120.313 82.9868C119.597 83.0763 118.989 83.1659 118.487 83.2554C117.986 83.3449 117.422 83.4702 116.795 83.6313C116.061 83.8283 115.587 84.1774 115.372 84.6787C115.175 85.18 115.077 85.7529 115.077 86.3975V107.398C115.077 109.332 114.683 111.104 113.895 112.716C113.125 114.327 112.06 115.679 110.699 116.771C109.321 117.845 107.781 118.651 106.08 119.188C104.379 119.743 102.562 120.021 100.628 120.021C97.2804 120.021 94.577 119.215 92.5181 117.604C90.4771 115.992 89.4565 113.781 89.4565 110.97C89.4565 109.305 89.922 107.927 90.853 106.834C91.8019 105.742 93.0999 105.196 94.7471 105.196C96.3047 105.196 97.54 105.653 98.4531 106.566C99.3841 107.479 99.8496 108.607 99.8496 109.95C99.8496 111.096 99.4468 112.161 98.6411 113.146C97.8534 114.112 96.9492 115.007 95.9287 115.831V116.18C96.0898 116.538 96.439 116.843 96.9761 117.093C97.5132 117.344 98.0592 117.469 98.6143 117.469C100.763 117.469 102.446 116.699 103.663 115.16C104.898 113.62 105.516 111.292 105.516 108.177V86.666C105.516 86.0215 105.418 85.4844 105.221 85.0547C105.024 84.625 104.549 84.249 103.797 83.9268C103.26 83.694 102.607 83.4971 101.837 83.3359C101.085 83.1748 100.458 83.0584 99.957 82.9868V80.8921H120.313V82.9868ZM152.191 112.582C151.564 113.602 150.803 114.569 149.908 115.482C149.031 116.377 148.028 117.147 146.9 117.792C145.701 118.472 144.483 118.982 143.248 119.322C142.031 119.68 140.625 119.859 139.032 119.859C136.382 119.859 134.09 119.483 132.157 118.731C130.241 117.979 128.657 116.968 127.403 115.697C126.15 114.426 125.21 112.931 124.583 111.212C123.975 109.475 123.67 107.595 123.67 105.572C123.67 103.746 124.002 102 124.664 100.335C125.344 98.6525 126.302 97.1576 127.538 95.8506C128.755 94.5794 130.286 93.55 132.13 92.7622C133.992 91.9744 136.069 91.5806 138.36 91.5806C140.867 91.5806 142.926 91.8849 144.537 92.4937C146.148 93.1024 147.482 93.9438 148.539 95.0181C149.559 96.0386 150.302 97.2471 150.768 98.6436C151.233 100.022 151.466 101.472 151.466 102.994V104.74H133.312C133.312 108.41 134.019 111.203 135.433 113.119C136.847 115.034 139.094 115.992 142.174 115.992C143.857 115.992 145.37 115.536 146.712 114.623C148.055 113.692 149.201 112.519 150.15 111.104L152.191 112.582ZM141.932 102.376C141.932 101.302 141.878 100.201 141.771 99.0732C141.664 97.9453 141.476 97.0233 141.207 96.3071C140.903 95.4657 140.482 94.8301 139.945 94.4004C139.426 93.9707 138.763 93.7559 137.958 93.7559C136.579 93.7559 135.478 94.4541 134.654 95.8506C133.831 97.2471 133.383 99.4582 133.312 102.484L141.932 102.376ZM190.245 119H174.078V117.04C174.418 117.004 174.83 116.959 175.313 116.905C175.797 116.852 176.164 116.762 176.415 116.637C176.791 116.44 177.059 116.153 177.22 115.777C177.381 115.401 177.462 114.846 177.462 114.112V101.544C177.462 99.7178 177.122 98.3481 176.441 97.4351C175.779 96.5041 174.794 96.0386 173.487 96.0386C172.771 96.0386 172.1 96.146 171.473 96.3608C170.864 96.5757 170.265 96.889 169.674 97.3008C169.155 97.6589 168.734 98.0259 168.412 98.4019C168.107 98.7778 167.848 99.109 167.633 99.3955V113.817C167.633 114.444 167.722 114.972 167.901 115.401C168.08 115.813 168.376 116.126 168.788 116.341C169.074 116.502 169.432 116.646 169.862 116.771C170.292 116.896 170.712 116.986 171.124 117.04V119H154.796V117.04C155.243 117.004 155.691 116.959 156.139 116.905C156.604 116.834 156.998 116.744 157.32 116.637C157.893 116.44 158.287 116.135 158.502 115.724C158.717 115.312 158.824 114.775 158.824 114.112V98.4824C158.824 97.9274 158.681 97.3813 158.395 96.8442C158.108 96.3071 157.732 95.8685 157.267 95.5283C156.944 95.3135 156.533 95.1344 156.031 94.9912C155.548 94.848 155.011 94.7495 154.42 94.6958V92.7354L167.23 92.0371L167.633 92.4399V96.334H167.74C168.242 95.8864 168.85 95.3493 169.566 94.7227C170.283 94.096 170.945 93.5858 171.554 93.1919C172.216 92.7622 173.084 92.3952 174.159 92.0908C175.233 91.7865 176.379 91.6343 177.596 91.6343C180.514 91.6343 182.699 92.4668 184.149 94.1318C185.617 95.779 186.351 97.9722 186.351 100.711V113.871C186.351 114.533 186.45 115.061 186.646 115.455C186.843 115.849 187.21 116.162 187.748 116.395C188.034 116.52 188.383 116.646 188.795 116.771C189.225 116.896 189.708 116.986 190.245 117.04V119ZM227.225 119H214.576C213.019 116.261 211.595 113.942 210.306 112.044C209.017 110.129 207.8 108.356 206.654 106.727L205.042 108.097V113.951C205.042 114.596 205.132 115.124 205.311 115.536C205.508 115.947 205.875 116.252 206.412 116.449C206.734 116.592 207.11 116.717 207.54 116.825C207.97 116.932 208.399 117.004 208.829 117.04V119H192.206V117.04C192.653 117.004 193.101 116.959 193.548 116.905C193.996 116.834 194.39 116.744 194.73 116.637C195.303 116.44 195.688 116.135 195.885 115.724C196.1 115.312 196.207 114.775 196.207 114.112V84.1685C196.207 83.5776 196.073 82.9689 195.804 82.3423C195.554 81.6978 195.178 81.2144 194.676 80.8921C194.336 80.6772 193.826 80.4982 193.146 80.355C192.465 80.2118 191.847 80.1222 191.292 80.0864V78.126L204.64 77.4277L205.042 77.8574V105.572C206.367 104.391 207.853 103.021 209.5 101.463C211.166 99.9058 212.499 98.6167 213.502 97.5962C214.093 96.9875 214.415 96.5309 214.469 96.2266C214.54 95.9043 214.576 95.7074 214.576 95.6357C214.576 95.3135 214.29 95.0449 213.717 94.8301C213.162 94.6152 212.32 94.4272 211.192 94.2661V92.3594H224.835V94.2124C223.045 94.7137 221.675 95.1882 220.726 95.6357C219.795 96.0654 218.775 96.6473 217.665 97.3813C216.931 97.8647 216.214 98.375 215.516 98.9121C214.836 99.4313 214.048 100.085 213.153 100.873C214.907 103.415 216.528 105.769 218.014 107.936C219.5 110.102 221.057 112.394 222.687 114.811C223.242 115.652 223.931 116.216 224.754 116.502C225.578 116.789 226.402 116.968 227.225 117.04V119ZM244.493 119H227.521V117.04C227.986 117.004 228.443 116.959 228.89 116.905C229.338 116.852 229.723 116.762 230.045 116.637C230.618 116.422 231.021 116.118 231.253 115.724C231.486 115.312 231.603 114.775 231.603 114.112V98.4824C231.603 97.8558 231.459 97.3097 231.173 96.8442C230.886 96.3608 230.528 95.9759 230.099 95.6895C229.776 95.4746 229.284 95.2687 228.622 95.0718C227.977 94.8748 227.386 94.7495 226.849 94.6958V92.7354L240.008 92.0371L240.411 92.4399V113.763C240.411 114.39 240.545 114.927 240.814 115.375C241.083 115.804 241.467 116.126 241.969 116.341C242.327 116.502 242.721 116.646 243.15 116.771C243.58 116.896 244.028 116.986 244.493 117.04V119ZM240.572 82.3691C240.572 83.7298 240.044 84.8936 238.988 85.8604C237.949 86.8092 236.714 87.2837 235.282 87.2837C233.832 87.2837 232.578 86.8092 231.522 85.8604C230.484 84.8936 229.964 83.7298 229.964 82.3691C229.964 81.0085 230.484 79.8447 231.522 78.8779C232.578 77.9111 233.832 77.4277 235.282 77.4277C236.732 77.4277 237.976 77.9111 239.015 78.8779C240.053 79.8447 240.572 81.0085 240.572 82.3691ZM282.413 119H266.246V117.04C266.586 117.004 266.998 116.959 267.481 116.905C267.965 116.852 268.332 116.762 268.583 116.637C268.958 116.44 269.227 116.153 269.388 115.777C269.549 115.401 269.63 114.846 269.63 114.112V101.544C269.63 99.7178 269.29 98.3481 268.609 97.4351C267.947 96.5041 266.962 96.0386 265.655 96.0386C264.939 96.0386 264.268 96.146 263.641 96.3608C263.032 96.5757 262.433 96.889 261.842 97.3008C261.323 97.6589 260.902 98.0259 260.58 98.4019C260.275 98.7778 260.016 99.109 259.801 99.3955V113.817C259.801 114.444 259.89 114.972 260.069 115.401C260.248 115.813 260.544 116.126 260.956 116.341C261.242 116.502 261.6 116.646 262.03 116.771C262.459 116.896 262.88 116.986 263.292 117.04V119H246.964V117.04C247.411 117.004 247.859 116.959 248.307 116.905C248.772 116.834 249.166 116.744 249.488 116.637C250.061 116.44 250.455 116.135 250.67 115.724C250.885 115.312 250.992 114.775 250.992 114.112V98.4824C250.992 97.9274 250.849 97.3813 250.562 96.8442C250.276 96.3071 249.9 95.8685 249.435 95.5283C249.112 95.3135 248.701 95.1344 248.199 94.9912C247.716 94.848 247.179 94.7495 246.588 94.6958V92.7354L259.398 92.0371L259.801 92.4399V96.334H259.908C260.41 95.8864 261.018 95.3493 261.734 94.7227C262.451 94.096 263.113 93.5858 263.722 93.1919C264.384 92.7622 265.252 92.3952 266.327 92.0908C267.401 91.7865 268.547 91.6343 269.764 91.6343C272.682 91.6343 274.867 92.4668 276.317 94.1318C277.785 95.779 278.519 97.9722 278.519 100.711V113.871C278.519 114.533 278.618 115.061 278.814 115.455C279.011 115.849 279.378 116.162 279.916 116.395C280.202 116.52 280.551 116.646 280.963 116.771C281.393 116.896 281.876 116.986 282.413 117.04V119ZM297.372 119.913C295.635 119.913 293.934 119.653 292.269 119.134C290.622 118.633 289.342 118.096 288.429 117.523L287.623 119.349H285.528L285.179 109.332H287.14C287.408 110.138 287.856 111.051 288.482 112.071C289.109 113.074 289.825 113.978 290.631 114.784C291.472 115.589 292.43 116.27 293.504 116.825C294.597 117.38 295.76 117.657 296.996 117.657C298.625 117.657 299.833 117.344 300.621 116.717C301.427 116.073 301.83 115.088 301.83 113.763C301.83 113.047 301.651 112.456 301.292 111.991C300.934 111.525 300.442 111.122 299.815 110.782C299.117 110.424 298.347 110.12 297.506 109.869C296.682 109.618 295.662 109.314 294.444 108.956C293.227 108.598 292.18 108.24 291.302 107.882C290.443 107.506 289.548 106.924 288.617 106.136C287.811 105.438 287.167 104.597 286.683 103.612C286.2 102.627 285.958 101.454 285.958 100.094C285.958 97.5693 287.014 95.5283 289.127 93.9707C291.257 92.4131 294.042 91.6343 297.479 91.6343C299.108 91.6343 300.603 91.8044 301.964 92.1445C303.342 92.4668 304.497 92.8249 305.428 93.2188L305.992 91.6343H308.033L308.463 100.792H306.556C305.93 98.93 304.855 97.3276 303.333 95.9849C301.812 94.6242 300.174 93.9438 298.419 93.9438C297.04 93.9438 295.957 94.2303 295.169 94.8032C294.382 95.3761 293.988 96.1729 293.988 97.1934C293.988 98.554 294.561 99.5387 295.707 100.147C296.87 100.756 298.491 101.329 300.567 101.866C303.772 102.69 306.118 103.818 307.604 105.25C309.09 106.664 309.833 108.473 309.833 110.675C309.833 113.611 308.678 115.885 306.368 117.496C304.076 119.107 301.078 119.913 297.372 119.913Z" fill="black"/>
</svg>
