<svg width="400" height="200" viewBox="0 0 400 200" fill="none" xmlns="http://www.w3.org/2000/svg">
<path d="M74.8901 81.1679H80.3179V108.718C80.3179 116.017 77.1243 121.054 69.6406 121.054C67.4275 121.087 65.2251 120.739 63.13 120.026V114.749C64.9172 115.442 66.8192 115.79 68.7359 115.777C73.3207 115.777 74.9038 113.035 74.9038 109.081L74.8901 81.1679Z" fill="black"/>
<path d="M90.2071 79.0503C90.6912 79.0156 91.1771 79.0855 91.6318 79.2551C92.0865 79.4247 92.4995 79.69 92.8426 80.0332C93.1858 80.3764 93.4512 80.7893 93.6208 81.2441C93.7904 81.6988 93.8602 82.1847 93.8256 82.6688C93.8256 83.6284 93.4444 84.5488 92.7658 85.2274C92.0872 85.906 91.1668 86.2873 90.2071 86.2873C89.2474 86.2873 88.327 85.906 87.6484 85.2274C86.9698 84.5488 86.5886 83.6284 86.5886 82.6688C86.554 82.1847 86.6238 81.6988 86.7934 81.2441C86.963 80.7893 87.2284 80.3764 87.5715 80.0332C87.9147 79.69 88.3277 79.4247 88.7824 79.2551C89.2371 79.0855 89.723 79.0156 90.2071 79.0503ZM87.5549 90.6322H92.7428V120.786H87.5549V90.6322Z" fill="black"/>
<path d="M100.576 90.6253H105.641V95.9297C107.388 92.3729 110.438 89.8372 116.318 90.2004V95.265C109.684 94.5796 105.641 96.5945 105.641 102.982V120.8H100.576V90.6253Z" fill="black"/>
<path d="M140.619 115.352C138.687 119.333 135.068 121.383 130.429 121.383C122.41 121.383 118.367 114.571 118.367 105.702C118.367 97.1976 122.589 90.0223 131.032 90.0223C135.431 90.0223 138.81 92.0097 140.626 95.9298V90.6254H145.814V120.78H140.626L140.619 115.352ZM131.813 116.558C136.459 116.558 140.619 113.604 140.619 106.909V104.469C140.619 97.7733 136.823 94.8195 132.395 94.8195C126.543 94.8195 123.527 98.6779 123.527 105.675C123.555 112.939 126.447 116.558 131.82 116.558H131.813Z" fill="black"/>
<path d="M176.503 121.383C168.841 121.383 165.284 119.875 162.207 118.306V112.761C165.887 114.694 171.555 116.078 176.798 116.078C182.767 116.078 185.021 113.728 185.021 110.226C185.021 106.724 182.849 104.859 175.31 103.05C166.401 100.878 162.406 97.8007 162.406 91.2901C162.406 85.1222 167.107 80.558 176.338 80.558C182.068 80.558 185.748 81.9286 188.462 83.45V88.8778C184.689 86.7989 180.432 85.7584 176.126 85.8624C170.938 85.8624 167.861 87.6716 167.861 91.2901C167.861 94.5454 170.397 96.1765 177.387 97.924C185.768 100.035 190.477 102.721 190.477 109.862C190.435 116.736 186.337 121.383 176.503 121.383Z" fill="black"/>
<path d="M195.02 105.641C195.02 96.5945 200.325 90.0223 209.371 90.0223C218.417 90.0223 223.605 96.5945 223.605 105.641C223.605 114.687 218.355 121.403 209.371 121.403C200.386 121.403 195.02 114.687 195.02 105.641ZM200.085 105.641C200.085 111.37 202.922 116.558 209.371 116.558C215.82 116.558 218.541 111.37 218.541 105.641C218.541 99.9115 215.765 94.8744 209.371 94.8744C202.977 94.8744 200.112 99.9115 200.112 105.641H200.085Z" fill="black"/>
<path d="M236.811 90.6254H244.59V95.4226H236.811V120.78H231.747V95.4226H226.84V90.6254H231.726V87.3358C231.726 81.7299 234.865 77.9263 241.321 77.9263C242.502 77.9198 243.679 78.0813 244.816 78.4061V83.2033C243.743 82.9993 242.653 82.8983 241.56 82.9018C238.367 82.9018 236.763 84.7727 236.763 87.4866L236.811 90.6254Z" fill="black"/>
<path d="M262.141 115.715C263.237 115.682 264.328 115.54 265.396 115.29V120.293C264.26 120.618 263.083 120.78 261.901 120.773C255.445 120.773 252.306 116.976 252.306 111.363V95.45H247.399V90.6527H252.286V84.2313H257.35V90.6253H265.369V95.4226H257.35V111.254C257.378 113.906 258.947 115.715 262.141 115.715Z" fill="black"/>
<path d="M266.849 90.6254H272.578L281.261 116.195L290.061 90.6254H295.009L303.815 116.195L312.505 90.6254H318.234L307.139 120.78H300.505L295.317 106.189L292.576 96.9029L289.835 106.189L284.578 120.78H277.944L266.849 90.6254Z" fill="black"/>
<path d="M341.926 115.352C339.993 119.333 336.375 121.383 331.735 121.383C323.717 121.383 319.673 114.571 319.673 105.702C319.673 97.1976 323.895 90.0223 332.338 90.0223C336.738 90.0223 340.117 92.0097 341.933 95.9298V90.6254H347.121V120.78H341.933L341.926 115.352ZM333.119 116.558C337.766 116.558 341.926 113.604 341.926 106.909V104.469C341.926 97.7733 338.129 94.8195 333.702 94.8195C327.877 94.8744 324.841 98.7053 324.841 105.702C324.841 112.939 327.753 116.558 333.126 116.558H333.119Z" fill="black"/>
<path d="M354.954 90.6253H360.018V95.9297C361.766 92.3729 364.816 89.8372 370.696 90.2004V95.265C364.062 94.5796 360.018 96.5945 360.018 102.982V120.8H354.954V90.6253Z" fill="black"/>
<path d="M388.966 121.383C377.686 121.383 372.745 114.872 372.745 105.62C372.745 96.5123 377.809 90.0017 386.979 90.0017C396.265 90.0017 400 96.4574 400 105.62V107.971H377.994C378.721 113.097 382.038 116.414 389.151 116.414C392.28 116.411 395.384 115.859 398.321 114.783V119.58C395.847 120.917 392.044 121.383 388.966 121.383ZM377.933 103.564H394.744C394.442 97.9583 391.906 94.7578 386.725 94.7578C381.25 94.7304 378.474 98.301 377.933 103.53V103.564Z" fill="black"/>
<path d="M49.6155 99.5071L27.274 77.1656L25.1084 75L8.29059 91.8178L0.601274 99.5071C0.216259 99.8926 0 100.415 0 100.96C0 101.505 0.216259 102.027 0.601274 102.413L15.9662 117.778L25.1084 126.92L41.9262 110.102L42.1866 109.842L49.6155 102.413C50.0005 102.027 50.2168 101.505 50.2168 100.96C50.2168 100.415 50.0005 99.8926 49.6155 99.5071ZM25.1084 108.636L17.4328 100.96L25.1084 93.2844L32.784 100.96L25.1084 108.636Z" fill="black"/>
<path d="M25.1084 93.2844C22.6943 90.87 21.3336 87.5986 21.3233 84.1844C21.313 80.7702 22.6541 77.4906 25.0536 75.0617L8.25635 91.8521L17.3985 100.994L25.1084 93.2844Z" fill="url(#paint0_linear)"/>
<path d="M32.8046 100.939L25.1084 108.636C26.3094 109.836 27.2622 111.261 27.9122 112.83C28.5622 114.398 28.8968 116.08 28.8968 117.778C28.8968 119.476 28.5622 121.157 27.9122 122.726C27.2622 124.294 26.3094 125.72 25.1084 126.92L41.9468 110.082L32.8046 100.939Z" fill="url(#paint1_linear)"/>
<defs>
<linearGradient id="paint0_linear" x1="23.7378" y1="85.5197" x2="13.0193" y2="96.2382" gradientUnits="userSpaceOnUse">
<stop offset="0.18"/>
<stop offset="1"/>
</linearGradient>
<linearGradient id="paint1_linear" x1="678.1" y1="1667.05" x2="1048.29" y2="1427.12" gradientUnits="userSpaceOnUse">
<stop offset="0.18"/>
<stop offset="1"/>
</linearGradient>
</defs>
</svg>
