<svg width="400" height="200" viewBox="0 0 400 200" fill="none" xmlns="http://www.w3.org/2000/svg">
<rect width="100" height="100" transform="translate(150 50)" fill="black"/>
<path d="M150 50H250V150H150V50Z" fill="black"/>
<path d="M176.294 133.567L183.946 128.936C185.423 131.554 186.766 133.768 189.987 133.768C193.075 133.768 195.022 132.561 195.022 127.862V95.9098H204.42V127.995C204.42 137.728 198.714 142.159 190.39 142.159C182.872 142.159 178.509 138.265 176.293 133.566L176.294 133.567ZM209.524 132.56L217.175 128.13C219.19 131.42 221.808 133.836 226.439 133.836C230.333 133.836 232.816 131.889 232.816 129.204C232.816 125.982 230.265 124.841 225.969 122.962L223.62 121.954C216.84 119.068 212.343 115.443 212.343 107.791C212.343 100.743 217.713 95.3723 226.104 95.3723C232.078 95.3723 236.374 97.4536 239.462 102.891L232.145 107.59C230.533 104.704 228.789 103.563 226.104 103.563C223.351 103.563 221.606 105.308 221.606 107.59C221.606 110.409 223.351 111.551 227.379 113.296L229.728 114.303C237.716 117.727 242.213 121.217 242.213 129.07C242.213 137.529 235.568 142.16 226.64 142.16C217.914 142.16 212.275 137.998 209.524 132.561" fill="white"/>
</svg>
