<svg width="393" height="200" viewBox="0 0 393 200" fill="none" xmlns="http://www.w3.org/2000/svg">
<path d="M110.678 138.339C108.995 138.339 107.67 138.098 106.703 137.614V133.72C107.974 134.078 109.299 134.257 110.678 134.257C112.45 134.257 113.793 133.72 114.706 132.646C115.637 131.572 116.103 130.023 116.103 128V88.7373H120.668V127.624C120.668 131.026 119.809 133.658 118.09 135.52C116.371 137.399 113.9 138.339 110.678 138.339ZM160.763 88.7373V114.143C160.763 118.618 159.411 122.137 156.708 124.697C154.005 127.257 150.29 128.537 145.563 128.537C140.836 128.537 137.175 127.248 134.579 124.67C132.001 122.092 130.712 118.547 130.712 114.035V88.7373H135.277V114.357C135.277 117.634 136.173 120.149 137.963 121.904C139.753 123.658 142.385 124.536 145.858 124.536C149.171 124.536 151.722 123.658 153.512 121.904C155.303 120.131 156.198 117.598 156.198 114.304V88.7373H160.763ZM190.653 128V108.959C190.653 106.56 190.107 104.77 189.015 103.588C187.923 102.407 186.213 101.816 183.886 101.816C180.806 101.816 178.55 102.648 177.118 104.313C175.686 105.979 174.97 108.727 174.97 112.558V128H170.512V98.5664H174.137L174.862 102.595H175.077C175.99 101.145 177.27 100.026 178.917 99.2378C180.565 98.4321 182.4 98.0293 184.423 98.0293C187.968 98.0293 190.635 98.8887 192.426 100.607C194.216 102.308 195.111 105.039 195.111 108.798V128H190.653ZM208.754 128H204.296V98.5664H208.754V128ZM203.92 90.5903C203.92 89.5698 204.171 88.8268 204.672 88.3613C205.173 87.8779 205.8 87.6362 206.552 87.6362C207.268 87.6362 207.886 87.8779 208.405 88.3613C208.924 88.8447 209.184 89.5877 209.184 90.5903C209.184 91.5929 208.924 92.3449 208.405 92.8462C207.886 93.3296 207.268 93.5713 206.552 93.5713C205.8 93.5713 205.173 93.3296 204.672 92.8462C204.171 92.3449 203.92 91.5929 203.92 90.5903ZM227.714 124.858C228.502 124.858 229.263 124.804 229.997 124.697C230.731 124.571 231.312 124.446 231.742 124.321V127.731C231.259 127.964 230.543 128.152 229.594 128.295C228.663 128.457 227.821 128.537 227.069 128.537C221.376 128.537 218.529 125.538 218.529 119.541V102.031H214.313V99.8823L218.529 98.0293L220.409 91.7451H222.987V98.5664H231.527V102.031H222.987V119.353C222.987 121.125 223.408 122.486 224.25 123.435C225.091 124.383 226.246 124.858 227.714 124.858ZM262.169 104.018C266.305 104.018 269.555 105.048 271.918 107.106C274.299 109.147 275.49 111.949 275.49 115.512C275.49 119.576 274.192 122.763 271.596 125.073C269.018 127.382 265.455 128.537 260.907 128.537C256.485 128.537 253.11 127.83 250.783 126.416V122.119C252.036 122.924 253.594 123.56 255.456 124.025C257.318 124.473 259.153 124.697 260.961 124.697C264.112 124.697 266.556 123.954 268.292 122.468C270.047 120.982 270.924 118.833 270.924 116.022C270.924 110.544 267.567 107.805 260.854 107.805C259.153 107.805 256.879 108.064 254.032 108.583L251.723 107.106L253.2 88.7373H272.724V92.8462H257.013L256.02 104.636C258.078 104.224 260.128 104.018 262.169 104.018Z" fill="black"/>
</svg>
