<svg width="400" height="200" viewBox="0 0 400 200" fill="none" xmlns="http://www.w3.org/2000/svg">
<path d="M139.823 72.4258H152.276V97.1698L175.241 72.4258H190.281L167.236 96.4418L191.332 129.03H176.373L158.826 104.933L152.276 111.725V129.029H139.823V72.4258Z" fill="#000400"/>
<path d="M184.714 107.6V107.44C184.714 94.9864 194.742 84.8784 208.246 84.8784C221.669 84.8784 231.615 94.8248 231.615 107.278V107.44C231.615 119.892 221.588 130 208.084 130C194.661 130 184.714 120.054 184.714 107.6V107.6ZM219.486 107.6V107.44C219.486 101.051 214.876 95.4716 208.084 95.4716C201.049 95.4716 196.844 100.889 196.844 107.278V107.44C196.844 113.828 201.453 119.407 208.246 119.407C215.281 119.407 219.486 113.989 219.486 107.6V107.6Z" fill="#000400"/>
<path d="M235.008 116.739V96.1996H229.833V85.688H235.008V74.6092H247.299V85.6876H257.488V96.1996H247.299V114.718C247.299 117.547 248.512 118.922 251.262 118.922C253.381 118.933 255.468 118.404 257.326 117.385V127.251C254.738 128.787 251.747 129.758 247.623 129.758C240.103 129.758 235.008 126.766 235.008 116.739V116.739ZM261.016 70H273.307V129.03H261.016V70ZM277.75 70H290.688V80.9164H277.75V70ZM278.074 85.6876H290.365V129.03H278.074L278.074 85.6876ZM295.04 85.6876H307.332V91.8328C310.162 88.194 313.801 84.8788 320.027 84.8788C329.326 84.8788 334.744 91.0244 334.744 100.971V129.03H322.453V104.852C322.453 99.03 319.703 96.038 315.013 96.038C310.323 96.038 307.332 99.03 307.332 104.852V129.03H295.04L295.04 85.6876Z" fill="#000400"/>
<path d="M93.414 72.3975L65 102.278V128.991L93.3728 100.568L121.593 72.3975H93.414Z" fill="url(#paint0_linear)"/>
<path d="M65 128.991L93.3728 100.568L121.593 128.991H65Z" fill="url(#paint1_linear)"/>
<path d="M65 72.3975H93.414L65 102.278V72.3975Z" fill="url(#paint2_linear)"/>
<defs>
<linearGradient id="paint0_linear" x1="55.472" y1="124.429" x2="108.135" y2="71.7659" gradientUnits="userSpaceOnUse">
<stop offset="0.108"/>
<stop offset="0.173"/>
<stop offset="0.492"/>
<stop offset="0.716"/>
<stop offset="0.823"/>
</linearGradient>
<linearGradient id="paint1_linear" x1="83.0616" y1="139.201" x2="108.73" y2="113.532" gradientUnits="userSpaceOnUse">
<stop offset="0.296"/>
<stop offset="0.694"/>
<stop offset="1"/>
</linearGradient>
<linearGradient id="paint2_linear" x1="16.7246" y1="1418.35" x2="1360.2" y2="140.825" gradientUnits="userSpaceOnUse">
<stop offset="0.296"/>
<stop offset="0.694"/>
<stop offset="1"/>
</linearGradient>
</defs>
</svg>
