<svg width="400" height="200" viewBox="0 0 400 200" fill="none" xmlns="http://www.w3.org/2000/svg">
<path d="M199.153 111.777C199.034 111.907 198.91 112.03 198.786 112.153C198.85 112.095 198.917 112.025 198.976 111.96C199.041 111.902 199.1 111.837 199.153 111.777Z" fill="#BE202E"/>
<path opacity="0.35" d="M199.153 111.777C199.034 111.907 198.91 112.03 198.786 112.153C198.85 112.095 198.917 112.025 198.976 111.96C199.041 111.902 199.1 111.837 199.153 111.777Z" fill="#BE202E"/>
<path d="M198.221 109.748C198.214 109.753 198.214 109.753 198.221 109.748C198.242 109.732 198.257 109.71 198.278 109.695C198.359 109.614 198.439 109.534 198.507 109.452C198.418 109.549 198.317 109.645 198.221 109.748V109.748Z" fill="#BE202E"/>
<path opacity="0.35" d="M198.221 109.748C198.214 109.753 198.214 109.753 198.221 109.748C198.242 109.732 198.257 109.71 198.278 109.695C198.359 109.614 198.439 109.534 198.507 109.452C198.418 109.549 198.317 109.645 198.221 109.748V109.748Z" fill="#BE202E"/>
<path d="M198.981 111.967C198.922 112.032 198.857 112.09 198.791 112.16C198.85 112.095 198.91 112.03 198.981 111.967Z" fill="#BE202E"/>
<path opacity="0.35" d="M198.981 111.967C198.922 112.032 198.857 112.09 198.791 112.16C198.85 112.095 198.91 112.03 198.981 111.967Z" fill="#BE202E"/>
<path d="M198.214 109.753C198.235 109.737 198.25 109.715 198.278 109.695C198.257 109.71 198.241 109.732 198.214 109.753Z" fill="#BE202E"/>
<path opacity="0.35" d="M198.214 109.753C198.235 109.737 198.25 109.715 198.278 109.695C198.257 109.71 198.241 109.732 198.214 109.753Z" fill="#BE202E"/>
<path d="M91.1129 80H100.662C101.44 80 102.217 80 102.995 80C103.821 80 104.404 80.1701 104.745 80.5103C105.036 80.7533 105.206 81.1177 105.255 81.6037C105.303 82.0411 105.376 82.4785 105.474 82.9159C105.571 83.6934 105.668 84.4953 105.765 85.3214C105.911 86.099 106.032 86.9009 106.13 87.727C106.664 90.7887 107.102 93.8989 107.442 97.0577C107.831 100.217 108.292 103.351 108.827 106.461C109.021 107.433 109.167 108.43 109.264 109.45C109.361 110.471 109.507 111.467 109.702 112.439C109.75 112.682 109.799 112.925 109.847 113.168C109.896 113.411 110.017 113.605 110.212 113.751C110.309 113.8 110.382 113.848 110.43 113.897C110.528 113.945 110.649 113.921 110.795 113.824C111.184 113.727 111.5 113.435 111.743 112.949C111.986 112.463 112.229 112.026 112.472 111.637C113.055 110.519 113.614 109.426 114.148 108.357C114.683 107.239 115.266 106.121 115.898 105.003C117.453 102.039 119.008 99.0745 120.563 96.1101C122.167 93.097 123.746 90.084 125.301 87.0709C125.69 86.2934 126.079 85.5401 126.468 84.8112C126.905 84.0336 127.318 83.256 127.707 82.4785C127.901 82.0897 128.12 81.7009 128.363 81.3121C128.606 80.9234 128.946 80.6075 129.384 80.3645C129.724 80.1215 130.112 80 130.55 80C131.036 80 131.522 80 132.008 80H136.746H141.776C142.213 80 142.651 80 143.088 80C143.574 80 143.914 80.0972 144.109 80.2916C144.595 80.5832 144.74 81.142 144.546 81.9682C144.4 82.7458 144.254 83.5476 144.109 84.3738L141.922 95.3082L136.454 122.426L135.215 128.768C135.118 129.302 134.997 129.837 134.851 130.371C134.705 130.857 134.462 131.222 134.122 131.465C133.782 131.708 133.393 131.854 132.955 131.902C132.518 131.902 132.032 131.902 131.498 131.902H127.998H126.03C125.69 131.805 125.374 131.732 125.083 131.684C124.84 131.635 124.645 131.465 124.499 131.173C124.354 130.93 124.305 130.614 124.354 130.226C124.451 129.837 124.548 129.424 124.645 128.986L125.374 125.269L129.165 106.534C129.262 105.854 129.359 105.222 129.456 104.639C129.602 104.007 129.724 103.375 129.821 102.744C129.918 102.355 130.015 101.966 130.112 101.577C130.21 101.14 130.258 100.727 130.258 100.338C130.21 99.9979 130.21 99.6334 130.258 99.2446C130.355 98.8559 130.283 98.6129 130.04 98.5157C129.894 98.4671 129.772 98.4914 129.675 98.5886C129.578 98.6858 129.505 98.7587 129.456 98.8073C129.213 99.0016 128.995 99.2446 128.8 99.5362C128.655 99.7792 128.509 100.022 128.363 100.265C127.926 100.994 127.488 101.747 127.051 102.525C126.662 103.303 126.225 104.08 125.739 104.858C125.593 105.149 125.447 105.441 125.301 105.732C125.204 106.024 125.058 106.316 124.864 106.607C124.475 107.239 124.111 107.871 123.771 108.502C123.479 109.134 123.139 109.766 122.75 110.398C122.653 110.544 122.58 110.714 122.531 110.908C122.483 111.054 122.41 111.2 122.313 111.345C122.021 111.783 121.754 112.244 121.511 112.73C121.316 113.216 121.049 113.702 120.709 114.188C120.417 114.626 120.15 115.087 119.907 115.573C119.713 116.059 119.47 116.545 119.178 117.031C118.303 118.441 117.501 119.874 116.772 121.332C116.043 122.742 115.29 124.151 114.513 125.56C114.367 125.706 114.27 125.852 114.221 125.998C114.221 126.143 114.148 126.289 114.002 126.435C113.662 126.97 113.346 127.528 113.055 128.112C112.812 128.646 112.52 129.181 112.18 129.715C111.986 130.056 111.791 130.371 111.597 130.663C111.402 130.955 111.184 131.198 110.941 131.392C110.649 131.586 110.382 131.708 110.139 131.756C109.896 131.756 109.58 131.805 109.191 131.902H107.515C107.174 131.902 106.761 131.927 106.275 131.975C105.838 131.975 105.376 131.975 104.89 131.975C104.453 131.975 104.04 131.951 103.651 131.902C103.262 131.854 102.995 131.756 102.849 131.611C102.509 131.368 102.29 131.1 102.193 130.809C102.145 130.469 102.047 130.08 101.902 129.642C101.804 129.059 101.732 128.476 101.683 127.893C101.634 127.261 101.537 126.654 101.391 126.07L101.318 125.414C101.173 124.831 101.075 124.224 101.027 123.592C100.978 122.912 100.881 122.28 100.735 121.697C100.735 121.551 100.735 121.429 100.735 121.332C100.735 121.186 100.711 121.041 100.662 120.895C100.517 120.457 100.419 119.996 100.371 119.51C100.322 119.024 100.249 118.538 100.152 118.052C100.152 117.955 100.152 117.833 100.152 117.687C100.152 117.542 100.128 117.42 100.079 117.323C99.982 116.837 99.9091 116.351 99.8605 115.865C99.8605 115.379 99.7876 114.893 99.6418 114.407C99.4474 113.435 99.2773 112.415 99.1315 111.345C99.0343 110.276 98.8886 109.231 98.6942 108.211C98.4998 106.996 98.3297 105.757 98.1839 104.493C98.0867 103.23 97.868 102.015 97.5278 100.848C97.4306 100.168 97.2848 99.6091 97.0904 99.1717C96.9932 99.0745 96.8961 99.0016 96.7989 98.9531C96.7503 98.8559 96.6531 98.8559 96.5073 98.9531C96.2157 99.0988 96.0213 99.3418 95.9241 99.682C95.8755 100.022 95.7783 100.362 95.6325 100.703C95.4381 101.043 95.3166 101.407 95.268 101.796C95.2194 102.136 95.1708 102.501 95.1222 102.889C95.025 103.424 94.9036 103.959 94.7578 104.493C94.6606 105.028 94.5391 105.562 94.3933 106.097L90.5298 125.487L89.8008 129.059C89.7036 129.448 89.6064 129.837 89.5092 130.226C89.4606 130.614 89.3148 130.93 89.0718 131.173C88.8289 131.513 88.4158 131.732 87.8326 131.829C87.4924 131.927 87.1279 131.975 86.7392 131.975C86.3504 131.927 85.9616 131.902 85.5728 131.902H81.7822C81.2476 131.902 80.7617 131.902 80.3243 131.902C79.8869 131.854 79.5467 131.708 79.3037 131.465C79.0607 131.222 78.9636 130.857 79.0121 130.371C79.1093 129.837 79.2065 129.302 79.3037 128.768L80.543 122.353L86.0102 95.2353L88.0513 85.0298C88.0999 84.7383 88.1485 84.3981 88.1971 84.0093C88.2943 83.5719 88.3915 83.1588 88.4887 82.7701C88.5859 82.3813 88.6831 82.0168 88.7803 81.6766C88.9261 81.2878 89.0475 80.9963 89.1447 80.8019C89.4363 80.4617 89.8737 80.2187 90.4569 80.0729C90.6027 80.0243 90.6999 80.0243 90.7485 80.0729C90.8457 80.0729 90.9672 80.0486 91.1129 80V80Z" fill="black"/>
<path d="M178.242 129.059C178.242 129.594 178.194 130.128 178.096 130.663C177.999 131.198 177.683 131.562 177.149 131.756C176.809 131.902 176.444 131.975 176.055 131.975C175.667 131.975 175.278 131.975 174.889 131.975H170.953C170.515 131.975 170.078 131.975 169.641 131.975C169.252 131.927 168.96 131.805 168.766 131.611C168.474 131.416 168.28 131.149 168.183 130.809C168.085 130.42 167.915 130.104 167.672 129.861C167.575 129.764 167.454 129.691 167.308 129.643C167.211 129.545 167.041 129.521 166.798 129.57C166.506 129.667 166.239 129.788 165.996 129.934C165.753 130.08 165.51 130.201 165.267 130.299C164.975 130.493 164.659 130.663 164.319 130.809C164.027 130.955 163.712 131.1 163.371 131.246C162.691 131.538 161.986 131.781 161.257 131.975C160.528 132.121 159.8 132.291 159.071 132.485C158.682 132.583 158.317 132.631 157.977 132.631C157.686 132.68 157.37 132.728 157.029 132.777C156.884 132.777 156.738 132.777 156.592 132.777C156.446 132.826 156.3 132.85 156.155 132.85H155.353C154.818 132.947 154.332 132.947 153.895 132.85H153.239C152.899 132.753 152.558 132.704 152.218 132.704C151.927 132.753 151.635 132.728 151.344 132.631C150.906 132.534 150.469 132.437 150.031 132.34C149.594 132.291 149.205 132.17 148.865 131.975C147.553 131.441 146.484 130.76 145.658 129.934C144.831 129.059 144.273 127.917 143.981 126.508C143.884 126.168 143.811 125.803 143.762 125.415C143.762 125.026 143.738 124.613 143.689 124.175C143.641 123.932 143.641 123.689 143.689 123.446C143.787 123.203 143.835 122.96 143.835 122.717C143.835 122.572 143.859 122.28 143.908 121.843C144.005 121.357 144.102 121.016 144.2 120.822C144.394 120.336 144.516 119.923 144.564 119.583C144.807 119.048 145.05 118.514 145.293 117.979C145.585 117.396 145.901 116.886 146.241 116.448C147.31 115.039 148.452 113.97 149.667 113.241C150.882 112.512 152.388 111.88 154.186 111.346C154.867 111.103 155.547 110.932 156.228 110.835C156.908 110.738 157.613 110.617 158.342 110.471C158.73 110.374 159.143 110.325 159.581 110.325C160.067 110.276 160.528 110.203 160.966 110.106C161.306 110.009 161.646 109.985 161.986 110.033C162.327 110.033 162.715 109.985 163.153 109.888C163.493 109.79 163.833 109.742 164.173 109.742C164.513 109.742 164.878 109.693 165.267 109.596C166.336 109.353 167.308 109.159 168.183 109.013C169.106 108.818 169.981 108.381 170.807 107.701C171.293 107.263 171.682 106.777 171.973 106.243C172.022 106.097 172.046 105.975 172.046 105.878C172.046 105.781 172.07 105.684 172.119 105.587C172.216 105.49 172.265 105.344 172.265 105.149C172.313 104.955 172.362 104.809 172.411 104.712C172.411 104.518 172.411 104.323 172.411 104.129C172.411 103.934 172.411 103.764 172.411 103.619C172.216 102.161 171.39 101.164 169.932 100.63C169.543 100.484 169.033 100.387 168.401 100.338C167.818 100.241 167.211 100.217 166.579 100.265C165.947 100.265 165.315 100.314 164.684 100.411C164.1 100.508 163.59 100.63 163.153 100.776C162.813 100.873 162.497 101.019 162.205 101.213C161.913 101.359 161.622 101.529 161.33 101.723C161.039 101.918 160.723 102.185 160.383 102.525C160.042 102.865 159.799 103.181 159.654 103.473C159.314 103.959 159.022 104.42 158.779 104.858C158.536 105.295 158.123 105.587 157.54 105.732C157.151 105.83 156.738 105.878 156.3 105.878C155.863 105.878 155.426 105.878 154.988 105.878H152.218C151.975 105.878 151.708 105.903 151.416 105.951C151.173 105.951 150.979 105.927 150.833 105.878H150.177C150.08 105.83 149.958 105.805 149.813 105.805C149.667 105.805 149.545 105.757 149.448 105.66C149.108 105.562 148.914 105.247 148.865 104.712C148.865 104.469 148.914 104.226 149.011 103.983C149.108 103.74 149.205 103.521 149.302 103.327C149.545 102.792 149.788 102.306 150.031 101.869C150.323 101.383 150.615 100.946 150.906 100.557C151.101 100.314 151.295 100.071 151.489 99.8279C151.684 99.5849 151.878 99.3419 152.072 99.0989C152.558 98.5644 153.142 98.0541 153.822 97.5681C153.968 97.5195 154.138 97.398 154.332 97.2036C154.624 97.0092 154.867 96.8391 155.061 96.6934C155.304 96.5476 155.572 96.4018 155.863 96.256C156.786 95.7214 157.734 95.3083 158.706 95.0167C159.727 94.6766 160.747 94.3607 161.768 94.0691C162.399 93.9233 163.031 93.8261 163.663 93.7775C164.295 93.7289 164.951 93.6317 165.631 93.4859C165.826 93.4373 166.117 93.4373 166.506 93.4859C166.895 93.5345 167.162 93.5102 167.308 93.413C169.3 93.3644 171.171 93.4373 172.921 93.6317C174.719 93.8261 176.298 94.1906 177.659 94.7252C179.068 95.2597 180.21 95.9887 181.085 96.912C182.009 97.7868 182.616 98.9288 182.908 100.338C183.053 101.164 183.053 102.112 182.908 103.181C182.762 104.25 182.567 105.344 182.324 106.461L179.044 122.717C178.898 123.641 178.728 124.588 178.534 125.56C178.339 126.484 178.267 127.334 178.315 128.112C178.315 128.257 178.291 128.428 178.242 128.622C178.242 128.768 178.242 128.914 178.242 129.059V129.059ZM169.786 117.833C169.884 117.59 169.956 117.323 170.005 117.031C170.054 116.691 170.078 116.4 170.078 116.157C170.078 115.865 170.102 115.598 170.151 115.355C170.199 115.112 170.126 114.917 169.932 114.772C169.738 114.577 169.398 114.48 168.912 114.48C168.717 114.529 168.547 114.577 168.401 114.626C168.255 114.626 168.061 114.65 167.818 114.699C167.478 114.796 167.113 114.869 166.725 114.917C166.336 114.966 165.923 115.039 165.485 115.136C165.34 115.185 165.121 115.209 164.829 115.209C164.149 115.355 163.493 115.452 162.861 115.501C162.229 115.549 161.598 115.671 160.966 115.865C160.577 115.962 160.188 116.059 159.8 116.157C159.459 116.205 159.119 116.302 158.779 116.448C157.661 116.886 156.665 117.542 155.79 118.416C154.915 119.291 154.405 120.506 154.259 122.061C154.211 122.887 154.357 123.568 154.697 124.102C154.891 124.637 155.304 125.074 155.936 125.415C156.568 125.706 157.272 125.925 158.05 126.071C158.828 126.216 159.654 126.265 160.528 126.216C161.452 126.119 162.327 125.949 163.153 125.706C164.513 125.317 165.631 124.71 166.506 123.884C167.429 123.009 168.207 121.94 168.839 120.676C168.984 120.336 169.106 119.996 169.203 119.656C169.3 119.267 169.446 118.878 169.641 118.489L169.786 117.833V117.833Z" fill="black"/>
<path d="M262.784 112.804C262.784 113.193 262.687 113.63 262.492 114.116C262.298 114.602 262.055 114.918 261.763 115.064C261.52 115.258 261.156 115.404 260.67 115.501C260.184 115.55 259.649 115.598 259.066 115.647C258.532 115.647 257.973 115.647 257.389 115.647C256.855 115.598 256.369 115.574 255.932 115.574H238.145C237.805 115.574 237.464 115.574 237.124 115.574C236.833 115.574 236.565 115.622 236.322 115.72C235.885 115.914 235.593 116.108 235.448 116.303C235.351 116.4 235.205 116.594 235.01 116.886C234.865 117.129 234.792 117.372 234.792 117.615C234.84 117.906 234.84 118.198 234.792 118.49C234.792 118.733 234.816 119 234.865 119.292C235.01 120.458 235.278 121.43 235.666 122.207C236.104 122.936 236.736 123.592 237.562 124.176C237.902 124.419 238.266 124.589 238.655 124.686C239.093 124.734 239.506 124.832 239.894 124.977C240.283 125.075 240.793 125.148 241.425 125.196C242.106 125.245 242.713 125.22 243.248 125.123H243.904C244.39 125.026 244.851 124.929 245.289 124.832C245.726 124.686 246.163 124.54 246.601 124.394C247.135 124.151 247.743 123.835 248.423 123.447C249.104 123.058 249.638 122.669 250.027 122.28C250.319 121.94 250.634 121.624 250.975 121.333C251.315 120.992 251.679 120.749 252.068 120.604C252.603 120.361 253.234 120.263 253.963 120.312C254.741 120.312 255.446 120.312 256.077 120.312C256.369 120.312 256.661 120.312 256.952 120.312C257.292 120.263 257.584 120.288 257.827 120.385H258.556C258.993 120.482 259.309 120.604 259.503 120.749C259.649 120.847 259.698 121.065 259.649 121.406C259.649 121.746 259.576 122.037 259.431 122.28C259.042 122.961 258.629 123.568 258.191 124.103C257.803 124.637 257.365 125.172 256.879 125.706C255.518 127.31 254.061 128.598 252.505 129.57C250.95 130.542 249.079 131.368 246.892 132.048C246.309 132.243 245.75 132.364 245.216 132.413C244.681 132.461 244.098 132.559 243.466 132.704C243.272 132.753 243.053 132.753 242.81 132.704C242.616 132.704 242.421 132.729 242.227 132.777H241.425C241.134 132.875 240.842 132.899 240.55 132.85C240.259 132.85 239.992 132.826 239.749 132.777C239.36 132.729 239.02 132.729 238.728 132.777C238.436 132.826 238.121 132.802 237.78 132.704C237.537 132.607 237.27 132.559 236.979 132.559C236.687 132.559 236.444 132.51 236.25 132.413C235.715 132.316 235.18 132.194 234.646 132.048C234.16 131.951 233.722 131.781 233.334 131.538C232.848 131.344 232.386 131.174 231.949 131.028C231.511 130.833 231.123 130.615 230.782 130.372C229.422 129.4 228.255 128.282 227.283 127.019C226.36 125.706 225.68 124.2 225.242 122.499C225.096 121.964 224.999 121.43 224.951 120.895C224.951 120.312 224.878 119.729 224.732 119.146C224.732 118.951 224.732 118.781 224.732 118.635C224.781 118.441 224.805 118.247 224.805 118.052C224.756 117.469 224.756 116.837 224.805 116.157C224.902 115.477 224.999 114.796 225.096 114.116C225.145 113.873 225.169 113.606 225.169 113.314C225.218 113.022 225.291 112.755 225.388 112.512L225.607 111.637L226.19 109.888C226.53 109.062 226.846 108.26 227.138 107.482C227.429 106.705 227.794 105.976 228.231 105.295C231.341 100.241 235.618 96.6693 241.061 94.5796C241.79 94.2881 242.519 94.0937 243.248 93.9965C243.977 93.8507 244.754 93.6806 245.58 93.4862C245.969 93.4376 246.334 93.4133 246.674 93.4133C247.014 93.4133 247.378 93.389 247.767 93.3404C250.246 93.2918 252.311 93.5834 253.963 94.2152C255.616 94.7983 257.049 95.5759 258.264 96.5479C258.653 96.8394 259.018 97.1796 259.358 97.5684C259.746 97.9086 260.062 98.2731 260.305 98.6618C260.403 98.9048 260.573 99.0992 260.816 99.245C261.107 99.7796 261.35 100.338 261.545 100.922C261.788 101.456 262.055 102.015 262.346 102.598C262.492 103.036 262.589 103.497 262.638 103.983C262.735 104.421 262.832 104.907 262.93 105.441C263.027 106.073 263.075 106.729 263.075 107.409C263.124 108.09 263.173 108.77 263.221 109.451C263.221 109.839 263.148 110.277 263.003 110.763C262.905 111.2 262.881 111.613 262.93 112.002L262.784 112.804V112.804ZM252.651 108.503C253.089 108.017 253.234 107.434 253.089 106.753C252.991 106.024 252.919 105.49 252.87 105.15C252.433 103.837 251.728 102.841 250.756 102.161C249.784 101.432 248.302 101.043 246.309 100.995C246.163 101.092 245.993 101.116 245.799 101.067C245.605 101.019 245.434 101.019 245.289 101.067C244.997 101.165 244.706 101.238 244.414 101.286C244.122 101.286 243.855 101.335 243.612 101.432C241.328 102.112 239.481 103.449 238.072 105.441C237.926 105.636 237.756 105.903 237.562 106.243C237.367 106.535 237.222 106.851 237.124 107.191C237.027 107.482 236.979 107.774 236.979 108.065C236.979 108.357 237.1 108.6 237.343 108.794C237.683 109.037 238.193 109.159 238.874 109.159C239.554 109.159 240.21 109.159 240.842 109.159H248.934C249.614 109.159 250.319 109.159 251.048 109.159C251.825 109.11 252.36 108.892 252.651 108.503V108.503Z" fill="black"/>
<path d="M294.218 93.4128C297.134 93.3156 299.467 93.7287 301.216 94.652C303.014 95.5754 304.278 96.9361 305.007 98.7342C305.25 99.2688 305.396 99.852 305.444 100.484C305.541 101.067 305.614 101.674 305.663 102.306C305.711 102.695 305.711 103.059 305.663 103.4C305.614 103.74 305.614 104.08 305.663 104.42C305.566 104.712 305.541 104.906 305.59 105.003C305.541 105.684 305.444 106.388 305.298 107.117C305.153 107.846 305.007 108.551 304.861 109.231L303.622 115.719L301.216 127.528C301.022 128.452 300.827 129.351 300.633 130.225C300.439 131.052 299.977 131.586 299.248 131.829C298.956 131.926 298.616 131.975 298.227 131.975C297.839 131.975 297.45 131.975 297.061 131.975H293.125C292.542 131.975 292.031 131.951 291.594 131.902C291.156 131.805 290.841 131.586 290.646 131.246C290.5 130.954 290.452 130.59 290.5 130.153C290.598 129.667 290.695 129.156 290.792 128.622L291.813 123.519L293.999 112.657C294.34 110.859 294.583 109.207 294.728 107.7C294.923 106.145 294.753 104.833 294.218 103.764C293.732 102.792 292.882 102.112 291.667 101.723C291.424 101.626 291.156 101.577 290.865 101.577C290.622 101.577 290.379 101.529 290.136 101.431C289.893 101.383 289.577 101.383 289.188 101.431C288.848 101.431 288.581 101.456 288.386 101.504C288.143 101.553 287.949 101.577 287.803 101.577C287.657 101.577 287.512 101.602 287.366 101.65C286.2 101.942 285.228 102.33 284.45 102.816C282.652 103.934 281.388 105.562 280.659 107.7C279.979 109.839 279.372 112.244 278.837 114.917L277.015 124.029L276.14 128.476C276.043 128.913 275.945 129.351 275.848 129.788C275.751 130.225 275.605 130.59 275.411 130.882C275.071 131.416 274.609 131.732 274.026 131.829C273.491 131.926 272.835 131.975 272.058 131.975H268.413C267.878 131.975 267.344 131.951 266.809 131.902C266.275 131.853 265.934 131.683 265.789 131.392C265.497 130.954 265.448 130.323 265.643 129.497C265.837 128.67 266.007 127.893 266.153 127.164L268.121 117.25L271.329 101.213L272.131 97.495C272.228 96.9604 272.325 96.4745 272.422 96.0371C272.519 95.5997 272.738 95.2352 273.078 94.9436C273.175 94.7978 273.345 94.7006 273.588 94.652C273.831 94.5549 274.074 94.482 274.317 94.4334H274.682C274.925 94.3848 275.168 94.3605 275.411 94.3605C275.702 94.3605 275.97 94.3605 276.213 94.3605H279.274C279.663 94.3605 280.028 94.3848 280.368 94.4334C280.757 94.4334 281.097 94.482 281.388 94.5792C281.68 94.7249 281.85 94.9436 281.899 95.2352C281.996 95.5268 282.044 95.867 282.044 96.2558C282.044 96.4502 282.02 96.6202 281.972 96.766C281.923 96.9118 281.923 97.0576 281.972 97.2034C282.02 97.4464 282.069 97.5922 282.117 97.6408C282.215 97.6894 282.336 97.7623 282.482 97.8595C282.968 97.9081 283.429 97.738 283.867 97.3492C284.304 96.9118 284.742 96.5717 285.179 96.3287C286.685 95.3567 288.289 94.5792 289.99 93.996C290.476 93.8502 290.938 93.753 291.375 93.7044C291.861 93.6558 292.396 93.5829 292.979 93.4857C293.125 93.4371 293.343 93.4371 293.635 93.4857C293.927 93.4857 294.121 93.4614 294.218 93.4128V93.4128Z" fill="black"/>
<path d="M312.269 93.3556C312.317 93.3945 312.342 93.4771 312.342 93.6034C312.342 93.7298 312.317 93.8464 312.269 93.9533L312.254 94.07C312.215 94.1574 312.171 94.2303 312.123 94.2887C312.084 94.3372 312.021 94.3761 311.933 94.4053C311.846 94.4247 311.724 94.4344 311.569 94.4344C311.413 94.4247 311.282 94.4199 311.175 94.4199H310.957C310.908 94.4393 310.864 94.4442 310.825 94.4344C310.786 94.4247 310.748 94.4296 310.709 94.449C310.602 94.4879 310.509 94.5802 310.432 94.726C310.403 94.7746 310.383 94.8329 310.373 94.901C310.364 94.969 310.354 95.0371 310.344 95.1051L309.644 98.5458C309.635 98.5944 309.63 98.6381 309.63 98.677C309.63 98.7159 309.62 98.7548 309.601 98.7936L309.572 98.9103C309.562 98.9394 309.552 98.9686 309.542 98.9978C309.542 99.0269 309.528 99.0512 309.499 99.0707C309.46 99.1484 309.397 99.2019 309.309 99.231C309.26 99.2505 309.202 99.2602 309.134 99.2602C309.076 99.2602 309.008 99.2602 308.93 99.2602C308.794 99.2602 308.643 99.2602 308.478 99.2602C308.313 99.2602 308.201 99.2213 308.143 99.1435C308.114 99.0852 308.104 99.0172 308.114 98.9394C308.133 98.8617 308.152 98.7742 308.172 98.677L308.857 95.2363C308.867 95.1877 308.877 95.1391 308.886 95.0905C308.906 95.0419 308.911 94.9982 308.901 94.9593L308.93 94.7552C308.94 94.5997 308.891 94.5025 308.784 94.4636C308.697 94.415 308.566 94.3956 308.391 94.4053C308.225 94.415 308.08 94.4199 307.953 94.4199C307.905 94.4199 307.856 94.4247 307.807 94.4344C307.769 94.4344 307.735 94.4296 307.705 94.4199C307.666 94.4004 307.632 94.3956 307.603 94.4053C307.574 94.4053 307.545 94.4004 307.516 94.3907C307.419 94.3421 307.375 94.2644 307.385 94.1574C307.394 94.0505 307.414 93.9242 307.443 93.7784C307.453 93.7201 307.462 93.6666 307.472 93.618C307.492 93.5694 307.516 93.5208 307.545 93.4722C307.574 93.4236 307.613 93.3896 307.662 93.3702C307.71 93.341 307.759 93.3167 307.807 93.2973C307.837 93.2875 307.856 93.2875 307.866 93.2973C307.885 93.2973 307.909 93.2924 307.939 93.2827H311.831C311.919 93.2827 312.001 93.2875 312.079 93.2973C312.157 93.2973 312.22 93.3167 312.269 93.3556V93.3556ZM320.025 93.3847C320.064 93.4528 320.073 93.5305 320.054 93.618C320.044 93.7055 320.03 93.8027 320.01 93.9096L319.063 98.6479C319.043 98.7548 319.019 98.852 318.99 98.9394C318.97 99.0172 318.936 99.0852 318.888 99.1435C318.82 99.2213 318.713 99.2602 318.567 99.2602C318.431 99.2602 318.295 99.2602 318.159 99.2602C318.1 99.2602 318.037 99.265 317.969 99.2748C317.911 99.2748 317.862 99.265 317.823 99.2456C317.736 99.2164 317.682 99.1727 317.663 99.1144C317.653 99.0561 317.648 98.9832 317.648 98.8957L317.692 98.6479C317.692 98.6187 317.697 98.5847 317.707 98.5458C317.716 98.4972 317.726 98.4535 317.736 98.4146L318.115 96.563C318.134 96.4464 318.154 96.3297 318.173 96.2131C318.202 96.0965 318.217 95.9896 318.217 95.8924C318.207 95.8438 318.202 95.8049 318.202 95.7757C318.202 95.7369 318.188 95.7077 318.159 95.6883C318.149 95.6785 318.134 95.6737 318.115 95.6737C318.086 95.6931 318.052 95.7126 318.013 95.732C317.916 95.8486 317.828 95.9798 317.75 96.1256C317.673 96.2714 317.59 96.4124 317.503 96.5484C317.328 96.8497 317.158 97.1559 316.992 97.4669C316.827 97.7682 316.657 98.0647 316.482 98.3563C316.404 98.4923 316.322 98.6479 316.234 98.8228C316.147 98.988 316.045 99.1095 315.928 99.1873C315.87 99.2262 315.802 99.2505 315.724 99.2602C315.646 99.2602 315.564 99.2602 315.476 99.2602H315.257C315.209 99.2407 315.165 99.2262 315.126 99.2164C315.087 99.197 315.053 99.1727 315.024 99.1435C314.995 99.1144 314.976 99.0755 314.966 99.0269C314.956 98.9783 314.946 98.9297 314.937 98.8811C314.908 98.7936 314.888 98.7062 314.878 98.6187C314.869 98.5215 314.854 98.4243 314.835 98.3271C314.776 98.0452 314.728 97.7585 314.689 97.4669C314.65 97.1656 314.601 96.874 314.543 96.5922C314.514 96.4269 314.485 96.2617 314.456 96.0965C314.436 95.9312 314.383 95.7903 314.295 95.6737C314.276 95.6737 314.261 95.6785 314.251 95.6883C314.242 95.6883 314.232 95.6883 314.222 95.6883C314.174 95.7271 314.14 95.7709 314.12 95.8195C314.091 95.8681 314.072 95.9167 314.062 95.9653C314.062 96.0041 314.052 96.0479 314.033 96.0965L313.989 96.3443C313.97 96.3832 313.955 96.4221 313.945 96.461C313.936 96.4998 313.931 96.5339 313.931 96.563L313.581 98.2542C313.561 98.3806 313.532 98.5361 313.493 98.7207C313.464 98.8957 313.42 99.0221 313.362 99.0998C313.333 99.1192 313.304 99.1435 313.275 99.1727C313.255 99.1921 313.231 99.2067 313.202 99.2164C313.153 99.2359 313.095 99.2505 313.027 99.2602C312.968 99.2602 312.9 99.2602 312.823 99.2602C312.696 99.2602 312.57 99.2602 312.444 99.2602C312.317 99.2602 312.22 99.231 312.152 99.1727C312.103 99.1338 312.079 99.0707 312.079 98.9832C312.089 98.8957 312.103 98.7985 312.123 98.6916L313.085 93.8804C313.105 93.793 313.124 93.7103 313.143 93.6326C313.173 93.5451 313.207 93.4771 313.245 93.4285C313.294 93.3604 313.372 93.3167 313.479 93.2973C313.508 93.2875 313.527 93.2875 313.537 93.2973C313.557 93.2973 313.581 93.2924 313.61 93.2827H314.572C314.679 93.2827 314.781 93.2827 314.878 93.2827C314.976 93.2827 315.048 93.307 315.097 93.3556C315.175 93.4139 315.219 93.5062 315.228 93.6326C315.248 93.7589 315.272 93.8756 315.301 93.9825C315.35 94.2546 315.398 94.5316 315.447 94.8135C315.496 95.0857 315.544 95.3627 315.593 95.6445C315.632 95.7903 315.661 95.941 315.68 96.0965C315.709 96.252 315.739 96.4026 315.768 96.5484C315.787 96.6068 315.802 96.6699 315.811 96.738C315.831 96.7963 315.87 96.8352 315.928 96.8546C315.977 96.874 316.02 96.8643 316.059 96.8254C316.108 96.7866 316.142 96.7525 316.161 96.7234C316.259 96.6165 316.336 96.5047 316.395 96.3881C316.463 96.2617 316.531 96.1402 316.599 96.0236C316.803 95.7028 316.992 95.3772 317.167 95.0468C317.352 94.7066 317.546 94.3761 317.75 94.0554C317.828 93.9193 317.906 93.7784 317.984 93.6326C318.071 93.4771 318.188 93.3702 318.334 93.3118C318.402 93.2924 318.47 93.2827 318.538 93.2827C318.616 93.2827 318.693 93.2827 318.771 93.2827H319.413C319.471 93.2827 319.529 93.2827 319.587 93.2827C319.646 93.273 319.699 93.273 319.748 93.2827H319.821C319.86 93.3021 319.899 93.3167 319.937 93.3264C319.986 93.3361 320.015 93.3556 320.025 93.3847V93.3847Z" fill="black"/>
<path d="M223.584 92.8706C222.7 93.2351 221.147 94.3909 219.253 96.1193L220.323 99.1327C221.577 97.7946 222.837 96.6156 224.069 95.6301C224.159 95.5543 224.214 95.5131 224.214 95.5131C224.168 95.5558 224.114 95.5874 224.069 95.6301C223.665 95.9563 222.441 97.022 220.508 99.2191C222.038 99.3646 224.415 99.3971 226.369 99.3478C227.406 96.2581 226.497 94.6422 226.497 94.6422C226.497 94.6422 225.404 92.1197 223.584 92.8706Z" fill="url(#paint0_linear)"/>
<path d="M215.157 115.612C214.958 115.622 214.76 115.623 214.563 115.623C214.661 115.628 214.77 115.624 214.87 115.619C214.968 115.624 215.068 115.618 215.157 115.612Z" fill="#373737"/>
<path opacity="0.35" d="M215.157 115.612C214.958 115.622 214.76 115.623 214.563 115.623C214.661 115.628 214.77 115.624 214.87 115.619C214.968 115.624 215.068 115.618 215.157 115.612Z" fill="#373737"/>
<path d="M216.02 113.238C216.01 113.236 216.01 113.236 216.02 113.238C216.049 113.242 216.079 113.237 216.108 113.241C216.237 113.24 216.365 113.239 216.486 113.227C216.336 113.235 216.179 113.232 216.02 113.238V113.238Z" fill="#373737"/>
<path opacity="0.35" d="M216.02 113.238C216.01 113.236 216.01 113.236 216.02 113.238C216.049 113.242 216.079 113.237 216.108 113.241C216.237 113.24 216.365 113.239 216.486 113.227C216.336 113.235 216.179 113.232 216.02 113.238V113.238Z" fill="#373737"/>
<path d="M214.891 105.709C215.469 104.934 216.044 104.178 216.617 103.442C217.213 102.679 217.815 101.947 218.423 101.236C218.459 101.192 218.495 101.148 218.53 101.113C219.126 100.42 219.718 99.7557 220.315 99.1218L219.243 96.1181C219.117 96.238 218.981 96.3564 218.843 96.4845C218.34 96.9542 217.811 97.4597 217.267 98.0025C216.653 98.6142 216.024 99.2632 215.37 99.948C214.773 100.582 214.161 101.253 213.545 101.944C213.023 102.539 212.5 103.144 211.973 103.769C211.949 103.795 211.937 103.813 211.913 103.839L213.281 107.924C213.824 107.183 214.358 106.441 214.891 105.709V105.709Z" fill="url(#paint1_linear)"/>
<path d="M202.968 125.871C202.614 126.531 202.248 127.209 201.888 127.907C201.887 127.917 201.876 127.925 201.874 127.935C201.82 128.035 201.767 128.127 201.723 128.229C201.476 128.697 201.266 129.12 200.77 130.075C201.302 130.42 201.658 131.164 201.97 132.001C202.039 131.191 201.821 130.388 201.277 129.715C204.055 130.251 206.577 129.9 208.117 128.03C208.25 127.862 208.385 127.684 208.511 127.495C207.836 128.127 207.094 128.335 205.779 128.063L205.77 128.061L205.779 128.063C207.852 127.477 208.953 126.779 210.017 125.522C210.268 125.223 210.524 124.895 210.785 124.528C208.825 126.029 206.779 126.233 204.754 125.55L203.171 125.496C203.103 125.624 203.036 125.743 202.968 125.871Z" fill="url(#paint2_linear)"/>
<path d="M204.206 122.485C204.672 121.664 205.15 120.834 205.629 119.995C206.092 119.194 206.566 118.393 207.05 117.585C207.534 116.776 208.028 115.969 208.522 115.162C209.029 114.337 209.543 113.523 210.068 112.71C210.581 111.906 211.114 111.105 211.636 110.311C211.826 110.023 212.015 109.744 212.216 109.457C212.544 108.972 212.882 108.488 213.22 108.004C213.233 107.976 213.257 107.95 213.271 107.922L211.921 103.85C211.885 103.894 211.848 103.948 211.802 103.991C211.249 104.661 210.685 105.339 210.137 106.039C209.579 106.748 209.028 107.468 208.485 108.208C208.028 108.833 207.58 109.459 207.131 110.095C207.043 110.221 206.954 110.356 206.867 110.481C206.324 111.281 205.814 112.066 205.357 112.82C204.837 113.672 204.37 114.493 203.95 115.272C203.677 115.785 203.416 116.281 203.178 116.76C202.98 117.166 202.79 117.582 202.602 117.99C202.164 118.953 201.775 119.924 201.424 120.901L202.798 125.006C203.151 124.356 203.522 123.709 203.887 123.041C203.993 122.859 204.099 122.677 204.206 122.485V122.485Z" fill="url(#paint3_linear)"/>
<path d="M201.375 121.032C200.954 122.215 200.601 123.409 200.335 124.615C200.33 124.654 200.313 124.701 200.307 124.74C199.849 123.684 198.363 122.497 198.371 122.509C199.285 124.362 199.921 126.156 199.807 127.809C199.17 127.844 198.345 127.535 197.421 127.034C198.308 128.123 199.034 128.496 199.324 128.608C198.377 128.528 197.305 129.033 196.209 129.634C197.737 129.255 198.942 129.194 199.746 129.51C197.871 133.06 195.938 137.006 193.968 141.204C194.391 141.148 194.674 140.903 194.863 140.555C195.212 139.796 197.556 134.803 201.02 128.303C201.116 128.12 201.222 127.938 201.319 127.744C201.347 127.689 201.373 127.644 201.401 127.588C201.768 126.911 202.146 126.215 202.538 125.502C202.631 125.338 202.713 125.182 202.806 125.017L202.808 125.008L201.434 120.902C201.407 120.948 201.392 120.985 201.375 121.032V121.032Z" fill="url(#paint4_linear)"/>
<path d="M213.542 108.298C213.467 108.406 213.403 108.505 213.328 108.613C213.112 108.937 212.887 109.26 212.67 109.594C212.43 109.954 212.187 110.323 211.934 110.701C211.808 110.89 211.681 111.079 211.553 111.278C211.171 111.864 210.785 112.47 210.387 113.093C209.899 113.862 209.407 114.659 208.899 115.494C208.417 116.283 207.92 117.11 207.421 117.956C206.946 118.766 206.459 119.594 205.966 120.46C205.527 121.226 205.085 122.021 204.629 122.834C204.604 122.87 204.587 122.917 204.562 122.952C204.118 123.757 203.66 124.589 203.199 125.441C203.187 125.459 203.174 125.477 203.171 125.496L204.755 125.55C204.727 125.536 204.698 125.532 204.661 125.517C206.562 125.559 209.243 124.529 211.092 123.041C211.944 122.355 212.748 121.524 213.528 120.522C214.111 119.777 214.669 118.94 215.233 117.995C215.718 117.177 216.206 116.28 216.685 115.302C216.227 115.462 215.709 115.554 215.151 115.591C215.051 115.596 214.951 115.601 214.852 115.607C214.752 115.612 214.654 115.607 214.545 115.611C216.384 115.199 217.666 114.072 218.693 112.602C218.192 112.845 217.388 113.142 216.468 113.215C216.347 113.227 216.219 113.228 216.09 113.228C216.061 113.224 216.031 113.23 215.992 113.224C216.629 113.06 217.183 112.855 217.678 112.582C217.784 112.528 217.883 112.464 217.981 112.399C218.134 112.303 218.278 112.195 218.422 112.088C218.512 112.012 218.601 111.946 218.691 111.871C218.895 111.693 219.092 111.495 219.273 111.274C219.333 111.204 219.391 111.143 219.441 111.071C219.516 110.964 219.59 110.866 219.654 110.766C219.967 110.318 220.224 109.911 220.436 109.547C220.541 109.365 220.635 109.201 220.717 109.045C220.746 108.98 220.784 108.926 220.813 108.861C220.898 108.686 220.98 108.53 221.04 108.39C221.129 108.186 221.194 108.017 221.231 107.895C221.166 107.934 221.091 107.973 221.008 108C220.441 108.233 219.498 108.391 218.753 108.42L220.207 108.476L218.753 108.42C218.743 108.419 218.733 108.417 218.722 108.426C218.653 108.425 218.574 108.424 218.494 108.432C218.505 108.424 218.524 108.426 218.536 108.418L213.562 108.232C213.566 108.272 213.553 108.29 213.542 108.298V108.298Z" fill="url(#paint5_linear)"/>
<path d="M220.508 99.2195C219.974 99.8232 219.388 100.518 218.75 101.294C218.714 101.338 218.68 101.373 218.653 101.418C218.099 102.098 217.515 102.843 216.89 103.67C216.35 104.381 215.785 105.139 215.188 105.97C214.668 106.685 214.141 107.447 213.578 108.254L218.552 108.44C220.071 107.991 220.796 107.495 221.541 106.724C221.74 106.516 221.941 106.289 222.144 106.052C222.762 105.342 223.382 104.553 223.944 103.756C224.492 102.987 224.99 102.219 225.378 101.525C225.631 101.078 225.84 100.664 226.004 100.293C226.14 99.9669 226.255 99.6575 226.358 99.3564C224.415 99.3975 222.038 99.365 220.508 99.2195Z" fill="url(#paint6_linear)"/>
<path d="M214.868 115.629C214.768 115.634 214.67 115.629 214.561 115.633C214.661 115.628 214.76 115.623 214.868 115.629Z" fill="#373737"/>
<path opacity="0.35" d="M214.868 115.629C214.768 115.634 214.67 115.629 214.561 115.633C214.661 115.628 214.76 115.623 214.868 115.629Z" fill="#373737"/>
<path d="M214.868 115.629C214.768 115.634 214.67 115.629 214.561 115.633C214.661 115.628 214.76 115.623 214.868 115.629Z" fill="url(#paint7_linear)"/>
<path d="M216.01 113.236C216.039 113.241 216.07 113.235 216.108 113.241C216.079 113.237 216.049 113.242 216.01 113.236Z" fill="#373737"/>
<path opacity="0.35" d="M216.01 113.236C216.039 113.241 216.07 113.235 216.108 113.241C216.079 113.237 216.049 113.242 216.01 113.236Z" fill="#373737"/>
<path d="M216.01 113.236C216.039 113.241 216.07 113.235 216.108 113.241C216.079 113.237 216.049 113.242 216.01 113.236Z" fill="url(#paint8_linear)"/>
<path d="M189.304 87.0007C188.912 87.8723 188.575 89.779 188.384 92.3362L191.231 93.793C191.224 91.9593 191.331 90.2369 191.551 88.6747C191.564 88.5577 191.576 88.4896 191.576 88.4896C191.572 88.5521 191.555 88.6122 191.551 88.6747C191.481 89.189 191.323 90.8041 191.425 93.7289C192.638 92.7842 194.389 91.1761 195.776 89.7988C194.409 86.8405 192.638 86.2896 192.638 86.2896C192.638 86.2896 190.112 85.2053 189.304 87.0007Z" fill="url(#paint9_linear)"/>
<path d="M198.786 109.322C198.648 109.467 198.505 109.603 198.362 109.739C198.436 109.675 198.513 109.597 198.582 109.525C198.656 109.461 198.725 109.389 198.786 109.322Z" fill="#373737"/>
<path opacity="0.35" d="M198.786 109.322C198.648 109.467 198.505 109.603 198.362 109.739C198.436 109.675 198.513 109.597 198.582 109.525C198.656 109.461 198.725 109.389 198.786 109.322Z" fill="#373737"/>
<path d="M197.784 107.004C197.776 107.01 197.776 107.01 197.784 107.004C197.808 106.987 197.826 106.963 197.85 106.946C197.943 106.857 198.036 106.768 198.115 106.677C198.012 106.785 197.895 106.89 197.784 107.004V107.004Z" fill="#373737"/>
<path opacity="0.35" d="M197.784 107.004C197.776 107.01 197.776 107.01 197.784 107.004C197.808 106.987 197.826 106.963 197.85 106.946C197.943 106.857 198.036 106.768 198.115 106.677C198.012 106.785 197.895 106.89 197.784 107.004V107.004Z" fill="#373737"/>
<path d="M191.794 102.304C191.683 101.344 191.583 100.399 191.494 99.4708C191.404 98.507 191.339 97.5617 191.293 96.6268C191.289 96.57 191.285 96.5131 191.287 96.4642C191.244 95.551 191.218 94.6617 191.217 93.7909L188.376 92.3421C188.367 92.516 188.349 92.6954 188.337 92.8829C188.293 93.5702 188.256 94.3008 188.233 95.0691C188.206 95.9351 188.194 96.8388 188.189 97.7857C188.19 98.6565 188.205 99.565 188.232 100.489C188.261 101.281 188.295 102.08 188.341 102.896C188.342 102.931 188.345 102.953 188.346 102.988L192.144 105.02C192.031 104.108 191.91 103.202 191.794 102.304V102.304Z" fill="url(#paint10_linear)"/>
<path d="M196.964 125.15C197.16 125.873 197.358 126.617 197.576 127.372C197.582 127.38 197.58 127.394 197.585 127.402C197.615 127.512 197.639 127.615 197.677 127.72C197.819 128.229 197.956 128.682 198.251 129.717C198.875 129.602 199.645 129.899 200.446 130.293C199.94 129.656 199.23 129.222 198.373 129.106C200.761 127.589 202.354 125.602 202.19 123.186C202.172 122.972 202.148 122.75 202.11 122.526C202.053 123.45 201.655 124.11 200.513 124.814L200.505 124.82L200.513 124.814C201.618 122.966 201.939 121.703 201.85 120.058C201.828 119.668 201.788 119.254 201.727 118.807C201.332 121.244 199.984 122.797 198.043 123.691L196.854 124.738C196.893 124.878 196.926 125.01 196.964 125.15Z" fill="url(#paint11_linear)"/>
<path d="M195.54 121.838C195.316 120.921 195.094 119.99 194.866 119.051C194.653 118.15 194.448 117.243 194.245 116.322C194.042 115.402 193.847 114.476 193.652 113.55C193.454 112.602 193.27 111.657 193.094 110.706C192.915 109.769 192.752 108.82 192.587 107.885C192.528 107.545 192.474 107.212 192.422 106.866C192.328 106.288 192.241 105.704 192.155 105.12C192.146 105.09 192.145 105.055 192.136 105.025L188.36 102.99C188.364 103.047 188.373 103.112 188.369 103.174C188.427 104.041 188.482 104.922 188.565 105.807C188.645 106.706 188.739 107.607 188.852 108.519C188.948 109.287 189.053 110.05 189.163 110.82C189.185 110.972 189.213 111.131 189.235 111.282C189.39 112.237 189.558 113.158 189.743 114.019C189.95 114.996 190.174 115.914 190.403 116.768C190.557 117.329 190.707 117.868 190.863 118.38C190.997 118.811 191.146 119.244 191.288 119.67C191.631 120.671 192.014 121.644 192.429 122.595L196.247 124.638C196.057 123.923 195.883 123.197 195.69 122.461C195.642 122.256 195.594 122.051 195.54 121.838V121.838Z" fill="url(#paint12_linear)"/>
<path d="M192.484 122.724C192.99 123.874 193.553 124.984 194.188 126.044C194.21 126.076 194.23 126.122 194.252 126.154C193.195 125.7 191.3 125.858 191.313 125.86C193.25 126.581 194.944 127.448 195.996 128.729C195.556 129.192 194.745 129.534 193.728 129.804C195.121 129.986 195.906 129.759 196.193 129.641C195.45 130.234 195.017 131.337 194.632 132.526C195.483 131.201 196.318 130.33 197.119 130.008C198.192 133.877 199.495 138.073 200.944 142.479C201.213 142.147 201.251 141.774 201.15 141.391C200.882 140.6 199.159 135.36 197.217 128.256C197.161 128.057 197.113 127.852 197.051 127.644C197.033 127.585 197.021 127.534 197.004 127.474C196.805 126.73 196.603 125.964 196.398 125.177C196.353 124.993 196.306 124.824 196.261 124.64L196.255 124.632L192.437 122.59C192.449 122.641 192.464 122.679 192.484 122.724V122.724Z" fill="url(#paint13_linear)"/>
<path d="M192.592 105.113C192.611 105.243 192.632 105.359 192.652 105.489C192.717 105.872 192.775 106.262 192.846 106.653C192.919 107.08 192.996 107.515 193.072 107.964C193.109 108.188 193.147 108.413 193.19 108.645C193.315 109.334 193.45 110.039 193.589 110.765C193.761 111.659 193.95 112.577 194.154 113.533C194.346 114.438 194.552 115.38 194.769 116.338C194.98 117.253 195.194 118.189 195.43 119.158C195.637 120.015 195.861 120.897 196.087 121.801C196.094 121.844 196.114 121.89 196.12 121.933C196.35 122.823 196.588 123.743 196.837 124.679C196.84 124.7 196.843 124.722 196.855 124.738L198.043 123.691C198.014 123.699 197.99 123.716 197.952 123.731C199.363 122.456 200.606 119.867 200.93 117.515C201.078 116.432 201.093 115.276 200.972 114.012C200.885 113.07 200.716 112.078 200.477 111.004C200.268 110.075 200.007 109.089 199.685 108.049C199.462 108.48 199.148 108.902 198.767 109.312C198.698 109.384 198.629 109.456 198.56 109.529C198.492 109.601 198.417 109.665 198.34 109.742C199.395 108.18 199.554 106.481 199.291 104.707C199.094 105.227 198.713 105.996 198.094 106.68C198.014 106.771 197.922 106.86 197.829 106.949C197.805 106.966 197.786 106.991 197.754 107.013C198.105 106.457 198.367 105.928 198.539 105.389C198.58 105.277 198.607 105.162 198.634 105.048C198.679 104.873 198.71 104.696 198.742 104.519C198.755 104.402 198.774 104.293 198.788 104.176C198.814 103.907 198.822 103.628 198.801 103.343C198.797 103.251 198.797 103.167 198.785 103.08C198.765 102.951 198.752 102.829 198.73 102.713C198.65 102.172 198.558 101.699 198.462 101.289C198.413 101.084 198.369 100.901 198.321 100.731C198.298 100.663 198.288 100.599 198.265 100.531C198.207 100.345 198.159 100.176 198.107 100.033C198.032 99.8231 197.963 99.6565 197.906 99.5412C197.886 99.6149 197.858 99.6942 197.816 99.7711C197.563 100.33 196.987 101.092 196.464 101.625L197.56 100.667L196.464 101.625C196.456 101.631 196.448 101.636 196.446 101.65C196.396 101.697 196.337 101.75 196.284 101.811C196.287 101.797 196.303 101.786 196.305 101.772L192.56 105.051C192.591 105.078 192.594 105.099 192.592 105.113V105.113Z" fill="url(#paint14_linear)"/>
<path d="M191.425 93.7292C191.451 94.5343 191.502 95.442 191.571 96.4442C191.575 96.501 191.573 96.5499 191.585 96.6012C191.649 97.476 191.736 98.4181 191.849 99.4491C191.945 100.337 192.053 101.276 192.19 102.29C192.303 103.166 192.443 104.083 192.587 105.056L196.332 101.777C197.128 100.408 197.315 99.5493 197.328 98.4774C197.33 98.1898 197.32 97.8862 197.305 97.5745C197.267 96.634 197.176 95.6351 197.038 94.6697C196.908 93.7341 196.743 92.8344 196.549 92.063C196.427 91.5639 196.294 91.1193 196.158 90.7372C196.034 90.4064 195.905 90.1028 195.774 89.8128C194.389 91.1765 192.638 92.7845 191.425 93.7292Z" fill="url(#paint15_linear)"/>
<path d="M198.588 109.533C198.519 109.605 198.444 109.669 198.367 109.747C198.436 109.675 198.505 109.603 198.588 109.533Z" fill="#373737"/>
<path opacity="0.35" d="M198.588 109.533C198.519 109.605 198.444 109.669 198.367 109.747C198.436 109.675 198.505 109.603 198.588 109.533Z" fill="#373737"/>
<path d="M198.588 109.533C198.519 109.605 198.444 109.669 198.367 109.747C198.436 109.675 198.505 109.603 198.588 109.533Z" fill="url(#paint16_linear)"/>
<path d="M197.776 107.01C197.8 106.993 197.818 106.968 197.85 106.946C197.826 106.963 197.808 106.988 197.776 107.01Z" fill="#373737"/>
<path opacity="0.35" d="M197.776 107.01C197.8 106.993 197.818 106.968 197.85 106.946C197.826 106.963 197.808 106.988 197.776 107.01Z" fill="#373737"/>
<path d="M197.776 107.01C197.8 106.993 197.818 106.968 197.85 106.946C197.826 106.963 197.808 106.988 197.776 107.01Z" fill="url(#paint17_linear)"/>
<defs>
<linearGradient id="paint0_linear" x1="220.466" y1="96.6422" x2="231.758" y2="95.2177" gradientUnits="userSpaceOnUse">
<stop stop-color="#373737"/>
<stop offset="0.3123" stop-color="#373737"/>
<stop offset="0.8383" stop-color="#373737"/>
</linearGradient>
<linearGradient id="paint1_linear" x1="189.575" y1="141.849" x2="218.585" y2="97.7646" gradientUnits="userSpaceOnUse">
<stop offset="0.3233" stop-color="#373737"/>
<stop offset="0.6302" stop-color="#373737"/>
<stop offset="0.7514" stop-color="#373737"/>
<stop offset="1" stop-color="#373737"/>
</linearGradient>
<linearGradient id="paint2_linear" x1="197.499" y1="139.438" x2="214.786" y2="113.167" gradientUnits="userSpaceOnUse">
<stop stop-color="#373737"/>
<stop offset="0.0954839" stop-color="#373737"/>
<stop offset="0.7882" stop-color="#373737"/>
<stop offset="0.9487" stop-color="#373737"/>
</linearGradient>
<linearGradient id="paint3_linear" x1="190.794" y1="139.103" x2="219.803" y2="95.018" gradientUnits="userSpaceOnUse">
<stop offset="0.3233" stop-color="#373737"/>
<stop offset="0.6302" stop-color="#373737"/>
<stop offset="0.7514" stop-color="#373737"/>
<stop offset="1" stop-color="#373737"/>
</linearGradient>
<linearGradient id="paint4_linear" x1="193.506" y1="136.28" x2="208.751" y2="113.113" gradientUnits="userSpaceOnUse">
<stop stop-color="#373737"/>
<stop offset="0.0954839" stop-color="#373737"/>
<stop offset="0.7882" stop-color="#373737"/>
<stop offset="0.9487" stop-color="#373737"/>
</linearGradient>
<linearGradient id="paint5_linear" x1="195.356" y1="142.106" x2="224.366" y2="98.0206" gradientUnits="userSpaceOnUse">
<stop offset="0.3233" stop-color="#373737"/>
<stop offset="0.6302" stop-color="#373737"/>
<stop offset="0.7514" stop-color="#373737"/>
<stop offset="1" stop-color="#373737"/>
</linearGradient>
<linearGradient id="paint6_linear" x1="193.33" y1="144.691" x2="222.34" y2="100.606" gradientUnits="userSpaceOnUse">
<stop offset="0.3233" stop-color="#373737"/>
<stop offset="0.6302" stop-color="#373737"/>
<stop offset="0.7514" stop-color="#373737"/>
<stop offset="1" stop-color="#373737"/>
</linearGradient>
<linearGradient id="paint7_linear" x1="196.713" y1="142.999" x2="225.723" y2="98.9136" gradientUnits="userSpaceOnUse">
<stop offset="0.3233" stop-color="#9E2064"/>
<stop offset="0.6302" stop-color="#C92037"/>
<stop offset="0.7514" stop-color="#CD2335"/>
<stop offset="1" stop-color="#E97826"/>
</linearGradient>
<linearGradient id="paint8_linear" x1="196.559" y1="142.894" x2="225.565" y2="98.8109" gradientUnits="userSpaceOnUse">
<stop offset="0.3233" stop-color="#9E2064"/>
<stop offset="0.6302" stop-color="#C92037"/>
<stop offset="0.7514" stop-color="#CD2335"/>
<stop offset="1" stop-color="#E97826"/>
</linearGradient>
<linearGradient id="paint9_linear" x1="189.626" y1="91.8835" x2="196.859" y2="83.0968" gradientUnits="userSpaceOnUse">
<stop stop-color="#373737"/>
<stop offset="0.3123" stop-color="#373737"/>
<stop offset="0.8383" stop-color="#373737"/>
</linearGradient>
<linearGradient id="paint10_linear" x1="198.193" y1="145.963" x2="189.028" y2="93.9912" gradientUnits="userSpaceOnUse">
<stop offset="0.3233" stop-color="#373737"/>
<stop offset="0.6302" stop-color="#373737"/>
<stop offset="0.7514" stop-color="#373737"/>
<stop offset="1" stop-color="#373737"/>
</linearGradient>
<linearGradient id="paint11_linear" x1="202.299" y1="138.77" x2="196.838" y2="107.8" gradientUnits="userSpaceOnUse">
<stop stop-color="#373737"/>
<stop offset="0.0954839" stop-color="#373737"/>
<stop offset="0.7882" stop-color="#373737"/>
<stop offset="0.9487" stop-color="#373737"/>
</linearGradient>
<linearGradient id="paint12_linear" x1="197.194" y1="143.129" x2="188.029" y2="91.1573" gradientUnits="userSpaceOnUse">
<stop offset="0.3233" stop-color="#373737"/>
<stop offset="0.6302" stop-color="#373737"/>
<stop offset="0.7514" stop-color="#373737"/>
<stop offset="1" stop-color="#373737"/>
</linearGradient>
<linearGradient id="paint13_linear" x1="197.228" y1="139.215" x2="192.412" y2="111.902" gradientUnits="userSpaceOnUse">
<stop stop-color="#373737"/>
<stop offset="0.0954839" stop-color="#373737"/>
<stop offset="0.7882" stop-color="#373737"/>
<stop offset="0.9487" stop-color="#373737"/>
</linearGradient>
<linearGradient id="paint14_linear" x1="202.573" y1="142.181" x2="193.408" y2="90.2091" gradientUnits="userSpaceOnUse">
<stop offset="0.3233" stop-color="#373737"/>
<stop offset="0.6302" stop-color="#373737"/>
<stop offset="0.7514" stop-color="#373737"/>
<stop offset="1" stop-color="#373737"/>
</linearGradient>
<linearGradient id="paint15_linear" x1="202.874" y1="145.452" x2="193.709" y2="93.4801" gradientUnits="userSpaceOnUse">
<stop offset="0.3233" stop-color="#373737"/>
<stop offset="0.6302" stop-color="#373737"/>
<stop offset="0.7514" stop-color="#373737"/>
<stop offset="1" stop-color="#373737"/>
</linearGradient>
<linearGradient id="paint16_linear" x1="204.173" y1="141.898" x2="195.008" y2="89.9265" gradientUnits="userSpaceOnUse">
<stop offset="0.3233" stop-color="#9E2064"/>
<stop offset="0.6302" stop-color="#C92037"/>
<stop offset="0.7514" stop-color="#CD2335"/>
<stop offset="1" stop-color="#E97826"/>
</linearGradient>
<linearGradient id="paint17_linear" x1="203.988" y1="141.929" x2="194.822" y2="89.9611" gradientUnits="userSpaceOnUse">
<stop offset="0.3233" stop-color="#9E2064"/>
<stop offset="0.6302" stop-color="#C92037"/>
<stop offset="0.7514" stop-color="#CD2335"/>
<stop offset="1" stop-color="#E97826"/>
</linearGradient>
</defs>
</svg>
