<svg width="400" height="200" viewBox="0 0 400 200" fill="none" xmlns="http://www.w3.org/2000/svg">
<path d="M155.912 104.91L154.123 109.977H153.974C153.676 108.835 153.13 107.096 152.235 105.009L142.648 80.9161H133.259V119.316H139.468V95.6205C139.468 94.1302 139.468 92.4411 139.419 90.3547C139.369 89.3115 139.27 88.5166 139.22 87.9205H139.369C139.667 89.4108 140.015 90.5037 140.263 91.1992L151.788 119.217H156.16L167.586 90.9508C167.834 90.305 168.082 89.0134 168.331 87.9205H168.48C168.331 90.7521 168.231 93.2857 168.182 94.8256V119.167H174.789V80.8167H165.748L155.912 104.91V104.91ZM181.048 91.6463H187.506V119.167H181.048V91.6463ZM184.327 80.0219C183.234 80.0219 182.34 80.4193 181.595 81.1148C180.849 81.8102 180.452 82.7044 180.452 83.7973C180.452 84.8405 180.849 85.7347 181.595 86.4302C182.34 87.1257 183.234 87.4734 184.327 87.4734C185.42 87.4734 186.364 87.076 187.059 86.4302C187.804 85.7347 188.202 84.8405 188.202 83.7973C188.202 82.7541 187.804 81.8599 187.059 81.1148C186.413 80.4193 185.469 80.0219 184.327 80.0219V80.0219ZM210.407 91.3979C209.215 91.1495 207.973 91.0005 206.781 91.0005C203.85 91.0005 201.167 91.6463 198.932 92.9379C196.696 94.2295 194.908 96.0179 193.765 98.2534C192.573 100.539 191.977 103.171 191.977 106.202C191.977 108.835 192.573 111.169 193.716 113.306C194.858 115.392 196.448 117.081 198.584 118.224C200.621 119.366 203.005 119.962 205.688 119.962C208.768 119.962 211.401 119.316 213.487 118.124L213.537 118.075V112.113L213.289 112.312C212.345 113.007 211.252 113.604 210.159 113.951C209.016 114.349 207.973 114.547 207.079 114.547C204.496 114.547 202.459 113.802 201.018 112.163C199.528 110.573 198.783 108.387 198.783 105.655C198.783 102.824 199.528 100.588 201.068 98.9488C202.608 97.3095 204.645 96.465 207.129 96.465C209.215 96.465 211.351 97.1605 213.289 98.5514L213.537 98.7501V92.4411L213.487 92.3915C212.643 92.0437 211.699 91.6463 210.407 91.3979V91.3979ZM231.719 91.1992C230.129 91.1992 228.639 91.696 227.347 92.7392C226.254 93.6334 225.509 94.925 224.863 96.465H224.814V91.6463H218.356V119.167H224.814V105.109C224.814 102.724 225.31 100.737 226.403 99.2966C227.496 97.8063 228.887 97.0611 230.576 97.0611C231.172 97.0611 231.768 97.2101 232.514 97.3095C233.209 97.5082 233.706 97.7069 234.054 97.9553L234.302 98.154V91.696L234.153 91.6463C233.706 91.3482 232.812 91.1992 231.719 91.1992V91.1992ZM249.304 91.0502C244.784 91.0502 241.157 92.3915 238.624 95.0243C236.041 97.6572 234.799 101.284 234.799 105.854C234.799 110.126 236.09 113.604 238.574 116.137C241.058 118.621 244.436 119.913 248.659 119.913C253.08 119.913 256.607 118.571 259.141 115.889C261.724 113.206 262.966 109.629 262.966 105.208C262.966 100.837 261.773 97.3592 259.339 94.8256C257.004 92.2921 253.577 91.0502 249.304 91.0502V91.0502ZM254.471 112.213C253.279 113.753 251.391 114.498 249.056 114.498C246.721 114.498 244.834 113.753 243.492 112.113C242.151 110.573 241.505 108.338 241.505 105.506C241.505 102.575 242.201 100.34 243.492 98.7501C244.834 97.1605 246.672 96.3656 249.006 96.3656C251.292 96.3656 253.08 97.1108 254.372 98.6508C255.663 100.191 256.359 102.426 256.359 105.357C256.259 108.338 255.713 110.673 254.471 112.213V112.213ZM277.372 103.072C275.335 102.228 274.044 101.582 273.448 101.035C272.951 100.539 272.702 99.843 272.702 98.9488C272.702 98.2037 273 97.4585 273.746 96.9618C274.491 96.465 275.335 96.2166 276.577 96.2166C277.67 96.2166 278.813 96.4153 279.906 96.7134C280.998 97.0114 281.992 97.4585 282.787 98.0547L283.035 98.2534V92.1928L282.886 92.1431C282.141 91.845 281.147 91.547 279.955 91.2986C278.763 91.0999 277.67 91.0005 276.776 91.0005C273.696 91.0005 271.162 91.7457 269.175 93.385C267.188 94.925 266.244 97.0114 266.244 99.4456C266.244 100.737 266.443 101.88 266.89 102.824C267.337 103.768 267.983 104.662 268.877 105.407C269.771 106.102 271.063 106.897 272.851 107.642C274.342 108.288 275.484 108.785 276.18 109.182C276.875 109.58 277.322 110.027 277.67 110.375C277.918 110.772 278.068 111.269 278.068 111.915C278.068 113.753 276.677 114.647 273.845 114.647C272.752 114.647 271.609 114.448 270.268 114.001C268.927 113.554 267.685 112.908 266.642 112.163L266.393 111.964V118.273L266.542 118.323C267.486 118.77 268.629 119.068 270.02 119.416C271.411 119.664 272.653 119.863 273.746 119.863C277.074 119.863 279.806 119.118 281.744 117.478C283.731 115.889 284.774 113.852 284.774 111.219C284.774 109.381 284.277 107.742 283.184 106.5C281.744 105.308 279.955 104.066 277.372 103.072V103.072ZM301.813 91.0502C297.293 91.0502 293.666 92.3915 291.133 95.0243C288.599 97.6572 287.307 101.284 287.307 105.854C287.307 110.126 288.599 113.604 291.083 116.137C293.567 118.621 296.945 119.913 301.167 119.913C305.589 119.913 309.116 118.571 311.649 115.889C314.232 113.206 315.474 109.629 315.474 105.208C315.474 100.837 314.282 97.3592 311.848 94.8256C309.513 92.2921 306.085 91.0502 301.813 91.0502V91.0502ZM306.93 112.213C305.738 113.753 303.85 114.498 301.515 114.498C299.131 114.498 297.293 113.753 295.951 112.113C294.61 110.573 293.964 108.338 293.964 105.506C293.964 102.575 294.66 100.34 295.951 98.7501C297.293 97.1605 299.131 96.3656 301.465 96.3656C303.701 96.3656 305.539 97.1108 306.831 98.6508C308.122 100.191 308.818 102.426 308.818 105.357C308.818 108.338 308.172 110.673 306.93 112.213V112.213ZM350 96.9618V91.6463H343.492V83.4993L343.294 83.5489L337.134 85.387L336.985 85.4367V91.6463H327.248V88.1689C327.248 86.5792 327.645 85.3373 328.341 84.5425C329.036 83.7476 330.079 83.3502 331.371 83.3502C332.265 83.3502 333.209 83.5489 334.252 83.996L334.501 84.1451V78.5316L334.352 78.4819C333.457 78.1838 332.265 77.9851 330.725 77.9851C328.788 77.9851 327.099 78.4322 325.559 79.1774C324.019 80.0219 322.876 81.1644 322.032 82.7044C321.187 84.1947 320.74 85.8838 320.74 87.8212V91.6463H316.22V96.9121H320.74V119.167H327.248V96.9618H336.985V111.12C336.985 116.932 339.717 119.863 345.181 119.863C346.075 119.863 347.019 119.714 347.913 119.565C348.857 119.366 349.553 119.118 349.95 118.919L350 118.869V113.554L349.752 113.753C349.354 114.001 349.006 114.2 348.41 114.349C347.913 114.498 347.466 114.547 347.119 114.547C345.827 114.547 344.933 114.249 344.287 113.504C343.691 112.809 343.393 111.666 343.393 109.977V96.9618H350V96.9618Z" fill="black"/>
<path d="M50 68H80.4521V98.4521H50V68Z" fill="black"/>
<path d="M83.6313 68H114.083V98.4521H83.6313V68Z" fill="black"/>
<path d="M50 101.631H80.4521V132.083H50V101.631Z" fill="black"/>
<path d="M83.6313 101.631H114.083V132.083H83.6313V101.631Z" fill="black"/>
</svg>
