<svg width="400" height="200" viewBox="0 0 400 200" fill="none" xmlns="http://www.w3.org/2000/svg">
<path d="M200.002 148.962C227.042 148.962 248.962 127.042 248.962 100.002C248.962 72.9621 227.042 51.042 200.002 51.042C172.962 51.042 151.042 72.9621 151.042 100.002C151.042 127.042 172.962 148.962 200.002 148.962Z" fill="black"/>
<path d="M199.999 139.269C221.687 139.269 239.269 121.687 239.269 99.999C239.269 78.3108 221.687 60.729 199.999 60.729C178.311 60.729 160.729 78.3108 160.729 99.999C160.729 121.687 178.311 139.269 199.999 139.269Z" stroke="white" stroke-width="0.049288"/>
<path d="M191.582 85.2442V86.4494C193.335 84.1364 195.246 82.4443 197.315 81.373C199.409 80.2774 201.807 79.7296 204.51 79.7296C207.139 79.7296 209.489 80.3017 211.558 81.4461C213.628 82.5904 215.174 84.2094 216.196 86.3033C216.854 87.5206 217.28 88.8354 217.474 90.2475C217.669 91.6596 217.767 93.4613 217.767 95.6525V114.205C217.767 116.202 217.304 117.711 216.379 118.734C215.478 119.756 214.297 120.268 212.836 120.268C211.351 120.268 210.146 119.744 209.221 118.697C208.296 117.65 207.833 116.153 207.833 114.205V97.5885C207.833 94.3016 207.37 91.7939 206.445 90.0653C205.544 88.3123 203.731 87.4358 201.004 87.4358C199.226 87.4358 197.607 87.9714 196.146 89.0427C194.686 90.0896 193.614 91.5383 192.933 93.3886C192.446 94.8738 192.202 97.6494 192.202 101.715V114.205C192.202 116.226 191.727 117.748 190.778 118.77C189.853 119.768 188.648 120.268 187.162 120.268C185.726 120.268 184.545 119.744 183.62 118.697C182.695 117.65 182.232 116.153 182.232 114.205V85.3902C182.232 83.4912 182.646 82.079 183.474 81.1538C184.302 80.2043 185.434 79.7295 186.87 79.7295C187.747 79.7295 188.538 79.9364 189.244 80.3503C189.95 80.7642 190.51 81.3851 190.924 82.2129C191.362 83.0406 191.581 84.051 191.581 85.244L191.582 85.2442Z" fill="white"/>
<path d="M200.006 67.2415C203.386 67.2415 206.126 64.5014 206.126 61.1215C206.126 57.7415 203.386 55.0015 200.006 55.0015C196.626 55.0015 193.886 57.7415 193.886 61.1215C193.886 64.5014 196.626 67.2415 200.006 67.2415Z" fill="white"/>
<path d="M228.387 116.388C226.697 119.315 227.7 123.058 230.628 124.748C233.555 126.438 237.298 125.435 238.988 122.508C240.678 119.58 239.675 115.838 236.748 114.148C233.82 112.458 230.077 113.46 228.387 116.388Z" fill="white"/>
<path d="M171.631 116.396C169.941 113.469 166.198 112.466 163.271 114.156C160.344 115.846 159.341 119.589 161.031 122.516C162.721 125.443 166.464 126.446 169.391 124.756C172.318 123.066 173.321 119.323 171.631 116.396Z" fill="white"/>
</svg>
