<svg width="400" height="200" viewBox="0 0 400 200" fill="none" xmlns="http://www.w3.org/2000/svg">
<path fill-rule="evenodd" clip-rule="evenodd" d="M73.5312 72C71.04 72 69 74.0412 69 76.5312V123.031C69 125.523 71.04 127.562 73.5312 127.562C76.0213 127.562 78.0625 125.523 78.0625 123.031V76.5312C78.0625 74.0412 76.0213 72 73.5312 72ZM91.625 72C89.1337 72 87.0937 74.0412 87.0938 76.5312V123.031C87.0938 125.523 89.1337 127.562 91.625 127.562C94.115 127.562 96.1562 125.523 96.1562 123.031V76.5312C96.1562 74.0412 94.115 72 91.625 72Z" fill="black"/>
<path fill-rule="evenodd" clip-rule="evenodd" d="M283.188 79.375V119.688H291.281V79.375H283.188ZM229.188 79.5V119.812H237.281V79.5H229.188ZM240.281 79.5V119.812H248.375V79.5H240.281ZM116.25 79.625C114.239 79.6388 112.435 80.14 111.031 81.6562C109.908 83.065 109.756 84.5113 109.75 86.25V119.938H118.656V106.219H136C138.46 106.169 140.829 105.538 142.719 103.906C144.795 101.894 145.56 99.2188 145.906 96.375C146.155 94.0025 146.169 91.5587 145.906 89.1875C145.668 87.3312 145.234 85.58 144.312 83.9375C142.233 80.55 138.828 79.6562 135.062 79.625H134.656H116.25ZM326.812 84.3438C326.468 84.3788 326.228 84.6188 326.219 84.9688V88.8125H327.156V85.4062C327.167 85.295 327.173 85.3712 327.188 85.4062V85.4375L328.312 88.3125C328.438 88.6688 328.626 88.8813 329.031 88.875C329.409 88.8562 329.528 88.63 329.656 88.3125L330.75 85.4375C330.765 85.3925 330.81 85.2788 330.812 85.4062V88.8125H331.719V84.9688C331.699 84.5525 331.454 84.3788 331.062 84.3438C330.604 84.3312 330.324 84.4975 330.156 84.9375L329.031 87.8125C328.967 87.9488 328.969 87.9525 328.906 87.8125L327.812 84.9375C327.774 84.8438 327.709 84.7425 327.656 84.6562C327.452 84.36 327.148 84.3138 326.812 84.3438ZM321.719 84.375V85.1562H323.406V88.8125H324.344V85.1562H326.031V84.375H321.719ZM120.062 87.0312H131.844C134.604 87.0563 136.259 87.7025 136.781 90.5312C137.041 92.3312 137.056 94.3212 136.625 96.0938C135.898 98.5725 133.912 98.8125 131.719 98.8125H118.656V88.5625C118.657 88.1337 118.641 87.6562 118.938 87.3125C119.28 87.02 119.634 87.0312 120.062 87.0312ZM265.844 88.7812C261.654 88.8125 257.216 89.1888 254.031 92.3125C251.02 95.545 250.899 99.9462 250.875 104.125C250.871 106.139 250.896 108.124 251.156 110.125C251.489 112.452 252.138 114.582 253.625 116.438C255.283 118.317 257.269 119.234 259.719 119.625C260.724 119.756 261.736 119.812 262.75 119.812H279.812V113.219H264.688L263.812 113.188C261.94 113.056 260.494 112.64 259.688 110.812C259.331 109.689 259.267 108.487 259.219 107.312H275.406C277.668 107.277 279.415 106.297 280.281 104.156C280.726 102.853 280.808 101.399 280.75 100.031C280.61 96.7037 279.746 93.7088 277.188 91.5C273.947 88.93 269.804 88.7812 265.844 88.7812ZM191.125 88.9062C187.378 88.9062 184.065 89.5213 181.312 92.0938C179.051 94.5687 178.535 97.4938 178.5 100.75V119.812H186.562V102.469C186.577 100.817 186.706 99.185 187.531 97.7188C188.746 95.8837 190.714 95.5125 192.781 95.5H197.875V88.9062H191.125ZM199.719 88.9062V95.5H214.938C215.854 95.5088 216.669 95.6525 217.344 96.3125C217.968 97.03 218.126 97.8025 218.125 98.7188V99.9375H206.219C204.511 99.9488 203.019 100.2 201.5 101.031C198.316 103.031 197.592 106.056 197.562 109.594C197.585 113.151 198.146 116.982 201.5 118.938C203.03 119.687 204.543 119.812 206.219 119.812H220.219C224.126 119.786 226.204 117.969 226.219 114.094V98.875C226.18 96.7013 225.85 94.6475 224.812 92.7188C223.16 90.0075 220.253 88.9763 217.188 88.9062H199.719ZM303 88.9062C298.55 88.9237 294.976 90.2275 293.969 94.9688C293.46 97.8875 293.838 101.062 295.875 103.344C297.606 105.062 299.879 105.863 302.188 106.5L307.812 108.062C309.218 108.449 310.641 108.812 312 109.344C312.403 109.514 312.87 109.726 313.094 110.125C313.419 110.701 313.494 111.811 313.156 112.406C312.819 113 312.152 113.2 311.438 113.219H294.156V119.812H313.719C318.872 119.78 321.681 116.684 321.656 111.562C321.641 108.721 320.713 106.139 318.25 104.469C316.314 103.309 314.215 102.688 312.062 102.062L305.719 100.312C304.612 99.995 303.281 99.65 302.344 98.9688C301.786 98.4575 301.729 98.0813 301.719 97.3438C301.74 95.9675 302.317 95.5 304 95.5H320.344V88.9062H303ZM149 89.0312V95.625H164.25C165.165 95.6338 165.95 95.7775 166.625 96.4375C167.249 97.155 167.407 97.9275 167.406 98.8438V100.062H155.5C153.792 100.074 152.301 100.325 150.781 101.156C147.599 103.157 146.875 106.182 146.844 109.719C146.866 113.277 147.43 117.109 150.781 119.062C152.312 119.812 153.824 119.938 155.5 119.938H169.5C173.41 119.909 175.486 118.094 175.5 114.219V99C175.461 96.8263 175.133 94.7737 174.094 92.8438C172.441 90.1325 169.533 89.1013 166.469 89.0312H149ZM265.844 95.375C268.831 95.3912 272.07 95.9875 272.406 99.5312C272.427 100.213 272.498 100.646 271.75 100.719H259.219C259.26 99.3675 259.45 98 260.438 96.9688C261.663 95.69 263.682 95.375 265.844 95.375ZM208.156 106.531H218.125V112.469C218.131 113.219 217.669 113.219 217.062 113.219H208.062C206.153 113.096 205.893 111.398 205.875 109.875C205.904 108.136 206.046 106.58 208.156 106.531ZM157.469 106.656H167.406V112.594C167.412 113.344 166.95 113.344 166.344 113.344H157.375C155.465 113.224 155.174 111.523 155.156 110C155.184 108.261 155.358 106.705 157.469 106.656Z" fill="black"/>
</svg>
