<svg width="400" height="200" viewBox="0 0 400 200" fill="none" xmlns="http://www.w3.org/2000/svg">
<path d="M132.126 77.7969H154.853C161.523 77.8529 166.357 79.7761 169.354 83.5633C172.35 87.3505 173.339 92.5233 172.322 99.0817C171.926 102.078 171.05 105.018 169.693 107.901C168.392 110.784 166.584 113.384 164.266 115.702C161.438 118.642 158.414 120.507 155.192 121.299C151.97 122.091 148.634 122.486 145.186 122.486H135.01L131.787 138.598H120L132.126 77.7969V77.7969ZM142.048 87.4641L136.96 112.904C137.299 112.96 137.638 112.989 137.978 112.989C138.373 112.989 138.77 112.989 139.165 112.989C144.592 113.045 149.115 112.509 152.733 111.378C156.35 110.19 158.782 106.064 160.026 98.9969C161.043 93.0609 160.026 89.6401 156.973 88.7361C153.976 87.8321 150.218 87.4081 145.694 87.4641C145.016 87.5201 144.366 87.5489 143.744 87.5489C143.179 87.5489 142.586 87.5489 141.963 87.5489L142.048 87.4641" fill="black"/>
<path d="M185.749 61.6001H197.451L194.144 77.7969H204.659C210.426 77.9105 214.722 79.0977 217.549 81.3585C220.432 83.6193 221.28 87.9169 220.093 94.2481L214.411 122.486H202.539L207.966 95.5201C208.531 92.6929 208.362 90.6865 207.458 89.4993C206.554 88.3121 204.603 87.7185 201.606 87.7185L192.194 87.6337L185.24 122.486H173.538L185.749 61.6001Z" fill="black"/>
<path d="M232.659 77.7969H255.386C262.056 77.8529 266.89 79.7761 269.886 83.5633C272.883 87.3505 273.872 92.5233 272.854 99.0817C272.459 102.078 271.582 105.018 270.226 107.901C268.925 110.784 267.117 113.384 264.798 115.702C261.971 118.642 258.947 120.507 255.725 121.299C252.502 122.091 249.166 122.486 245.718 122.486H235.542L232.32 138.598H220.533L232.659 77.7969V77.7969ZM242.581 87.4641L237.493 112.904C237.832 112.96 238.171 112.989 238.51 112.989C238.906 112.989 239.302 112.989 239.698 112.989C245.125 113.045 249.648 112.509 253.266 111.378C256.883 110.19 259.315 106.064 260.558 98.9969C261.576 93.0609 260.558 89.6401 257.506 88.7361C254.509 87.8321 250.75 87.4081 246.227 87.4641C245.549 87.5201 244.899 87.5489 244.277 87.5489C243.712 87.5489 243.118 87.5489 242.496 87.5489L242.581 87.4641" fill="black"/>
</svg>
