<svg width="400" height="200" viewBox="0 0 400 200" fill="none" xmlns="http://www.w3.org/2000/svg">
<path d="M236.247 70H223.78V81.0052H236.247V70Z" fill="black"/>
<path d="M291.937 70H279.724V81.6891H291.937V70Z" fill="black"/>
<path d="M254.726 117.379H242.513V129.068H254.726V117.379Z" fill="black"/>
<path d="M236.247 84.4875H223.78V96.1767H236.247V84.4875Z" fill="black"/>
<path d="M223.78 99.658V113.461C223.78 116.694 222.008 118.684 219.034 118.684C216.25 118.684 214.224 116.943 214.224 113.399V70H212.453C204.985 70 200.998 74.7254 200.998 83.9275V113.772C200.998 124.964 207.516 130 218.275 130C228.4 130 236.31 124.28 236.247 113.523V99.7202H223.78V99.658Z" fill="black"/>
<path d="M180.494 70H172.584C165.116 70 161.129 74.7254 161.129 83.9275V129.13H174.292V108.114H180.114C190.999 108.114 195.619 100.653 195.619 88.2798C195.619 76.2176 190.366 70 180.494 70ZM178.089 97.6062H174.292V80.6321H178.153C181.253 80.6321 182.772 82.9326 182.772 88.6528C182.772 94.7461 181.127 97.6062 178.089 97.6062Z" fill="black"/>
<path d="M99.3648 70H91.4543C83.9869 70 80 74.7254 80 83.9275V129.13H93.163V108.114H98.9851C109.87 108.114 114.49 100.653 114.49 88.2798C114.49 76.2176 109.237 70 99.3648 70ZM96.8967 97.6062H93.0997V80.6321H96.96C100.061 80.6321 101.58 82.9326 101.58 88.6528C101.643 94.7461 99.9343 97.6062 96.8967 97.6062Z" fill="black"/>
<path d="M152.903 70C145.436 70 141.449 74.7254 141.449 83.9275V92.3834V93.5648H132.083V92.3834V70H130.374C122.907 70 118.92 74.7254 118.92 83.9275V129.13H132.083V106.435V105.254H141.449V106.435V129.13H154.548V70.0622H152.903V70Z" fill="black"/>
<path d="M319.276 94.1867V84.9225H313.137V74.9121H309.277C303.898 74.9121 300.987 78.3318 300.987 84.9225H297V94.1867H300.987V120.301C300.987 126.829 305.733 129.751 311.682 129.751C314.023 129.751 316.997 129.316 319.212 128.57V119.057C318.263 119.244 316.934 119.306 315.668 119.306C313.707 119.306 313.137 118.373 313.137 116.757V94.1867H319.276Z" fill="black"/>
<path d="M264.092 83.4917C260.105 83.4917 256.941 85.1705 254.726 88.2793V84.4865H250.739C245.36 84.4865 242.449 87.9062 242.449 94.4969V113.896H254.663V98.1653C254.663 95.4917 255.992 93.5021 258.017 93.5021C260.738 93.5021 261.308 95.5539 261.308 97.4192V129.067H273.458V92.9425C273.585 87.0979 269.345 83.4917 264.092 83.4917Z" fill="black"/>
<path d="M288.014 84.9216C282.635 84.9216 279.724 88.3413 279.724 94.932V129.067H291.937V84.9216H288.014Z" fill="black"/>
</svg>
