<svg width="95" height="95" viewBox="0 0 95 95" fill="none" xmlns="http://www.w3.org/2000/svg">
<path d="M10.6 54.2C14.2451 54.2 17.2 51.2451 17.2 47.6C17.2 43.9549 14.2451 41 10.6 41C6.9549 41 4 43.9549 4 47.6C4 51.2451 6.9549 54.2 10.6 54.2Z" stroke="black" stroke-width="3" stroke-miterlimit="10"/>
<path d="M17.2 48.1H29.2" stroke="black" stroke-width="3" stroke-miterlimit="10"/>
<path d="M84.6 54.2C88.2451 54.2 91.2 51.2451 91.2 47.6C91.2 43.9549 88.2451 41 84.6 41C80.9549 41 78 43.9549 78 47.6C78 51.2451 80.9549 54.2 84.6 54.2Z" stroke="black" stroke-width="3" stroke-miterlimit="10"/>
<path d="M78.1 47.2H66.1" stroke="black" stroke-width="3" stroke-miterlimit="10"/>
<path d="M47.6 17.2C51.2451 17.2 54.2 14.2451 54.2 10.6C54.2 6.95493 51.2451 4 47.6 4C43.9549 4 41 6.95493 41 10.6C41 14.2451 43.9549 17.2 47.6 17.2Z" stroke="black" stroke-width="3" stroke-miterlimit="10"/>
<path d="M47.2 17.2V29.2" stroke="black" stroke-width="3" stroke-miterlimit="10"/>
<path d="M47.6 91.2C51.2451 91.2 54.2 88.2451 54.2 84.6C54.2 80.9549 51.2451 78 47.6 78C43.9549 78 41 80.9549 41 84.6C41 88.2451 43.9549 91.2 47.6 91.2Z" stroke="black" stroke-width="3" stroke-miterlimit="10"/>
<path d="M48.1 78.1V66.1" stroke="black" stroke-width="3" stroke-miterlimit="10"/>
<path d="M21.5 28.1C25.1451 28.1 28.1 25.1451 28.1 21.5C28.1 17.855 25.1451 14.9 21.5 14.9C17.8549 14.9 14.9 17.855 14.9 21.5C14.9 25.1451 17.8549 28.1 21.5 28.1Z" stroke="black" stroke-width="3" stroke-miterlimit="10"/>
<path d="M47.5 60.2C54.514 60.2 60.2 54.514 60.2 47.5C60.2 40.486 54.514 34.8 47.5 34.8C40.486 34.8 34.8 40.486 34.8 47.5C34.8 54.514 40.486 60.2 47.5 60.2Z" stroke="black" stroke-width="3" stroke-miterlimit="10"/>
<path d="M25.8 26.4L34.3 34.9" stroke="black" stroke-width="3" stroke-miterlimit="10"/>
<path d="M73.8 80.4C77.4451 80.4 80.4 77.4451 80.4 73.8C80.4 70.1549 77.4451 67.2 73.8 67.2C70.1549 67.2 67.2 70.1549 67.2 73.8C67.2 77.4451 70.1549 80.4 73.8 80.4Z" stroke="black" stroke-width="3" stroke-miterlimit="10"/>
<path d="M69.5 68.8L61 60.4" stroke="black" stroke-width="3" stroke-miterlimit="10"/>
<path d="M73.8 28.1C77.4451 28.1 80.4 25.1451 80.4 21.5C80.4 17.855 77.4451 14.9 73.8 14.9C70.1549 14.9 67.2 17.855 67.2 21.5C67.2 25.1451 70.1549 28.1 73.8 28.1Z" stroke="black" stroke-width="3" stroke-miterlimit="10"/>
<path d="M68.8 25.8L60.3 34.3" stroke="black" stroke-width="3" stroke-miterlimit="10"/>
<path d="M21.5 80.4C25.1451 80.4 28.1 77.4451 28.1 73.8C28.1 70.1549 25.1451 67.2 21.5 67.2C17.8549 67.2 14.9 70.1549 14.9 73.8C14.9 77.4451 17.8549 80.4 21.5 80.4Z" stroke="black" stroke-width="3" stroke-miterlimit="10"/>
<path d="M26.4 69.5L34.9 61" stroke="black" stroke-width="3" stroke-miterlimit="10"/>
</svg>
