<svg width="400" height="200" viewBox="0 0 400 200" fill="none" xmlns="http://www.w3.org/2000/svg">
<path d="M101.019 56.5397C77.241 53.4787 55.4859 70.287 52.4522 94.0645C49.4185 117.842 66.1995 139.597 89.9771 142.631C113.755 145.692 135.51 128.884 138.543 105.106C138.543 105.079 138.543 105.051 138.543 105.051C141.577 81.2738 124.769 59.5734 101.019 56.5397Z" fill="white"/>
<path d="M164.562 85.0728H157.156C156.8 85.0455 156.445 85.1821 156.199 85.4008C155.953 85.5921 155.816 85.8927 155.816 86.2207V112.458C155.816 112.813 156.035 113.169 156.363 113.333C157.074 113.77 157.976 113.77 158.686 113.333C159.041 113.169 159.26 112.841 159.26 112.458V102.291H164.344C166.557 102.4 168.744 101.662 170.466 100.241C172.133 98.5195 172.98 96.169 172.789 93.7913V93.436C173.007 91.1129 172.215 88.7898 170.63 87.0679C168.908 85.6468 166.749 84.9362 164.562 85.0728ZM169.646 94.0919C169.755 95.5951 169.263 97.0983 168.306 98.2461C167.241 99.2847 165.819 99.804 164.344 99.722H159.26V88.0245H164.344C165.765 87.9425 167.159 88.4618 168.17 89.4184C169.154 90.5663 169.646 92.0694 169.509 93.5726L169.646 94.0919Z" fill="black"/>
<path d="M186.645 87.0133C184.978 88.7351 184.158 91.1128 184.349 93.4906V105.27C184.131 107.675 184.978 110.026 186.645 111.775C190.28 114.535 195.309 114.535 198.944 111.775C200.638 110.053 201.486 107.675 201.267 105.27V93.5726C201.513 91.1402 200.666 88.7351 198.944 86.9859C195.309 84.2529 190.28 84.2529 186.645 87.0133ZM197.96 105.297C198.097 106.828 197.605 108.331 196.621 109.479C195.61 110.463 194.216 110.955 192.822 110.873C189.378 110.873 187.738 108.987 187.738 105.27V93.5726C187.738 89.8556 189.433 87.9972 192.822 87.9972C194.243 87.9152 195.61 88.4071 196.621 89.391C197.605 90.5389 198.097 92.0421 197.96 93.5453V105.297Z" fill="black"/>
<path d="M225.318 98.2735C224.034 97.6995 222.776 97.1802 221.519 96.7156C220.344 96.333 219.223 95.7317 218.267 94.9391C217.392 94.2285 216.928 93.108 217.01 91.9874C216.9 90.7576 217.474 89.5823 218.486 88.8991C219.633 88.2158 220.973 87.8879 222.285 87.9698C223.542 87.9425 224.799 88.1885 225.947 88.7078C226.521 88.9811 227.095 89.227 227.696 89.4184C228.133 89.4184 228.516 89.1724 228.707 88.7898C228.926 88.4345 229.09 88.0245 229.117 87.6145C229.117 86.822 228.352 86.166 226.876 85.6741C225.373 85.2095 223.815 84.9635 222.23 84.9908C221.219 84.9908 220.207 85.1001 219.223 85.3461C218.267 85.5921 217.338 85.9474 216.49 86.4667C215.589 87.0133 214.878 87.8059 214.413 88.7624C213.867 89.883 213.593 91.1129 213.621 92.3701C213.566 93.9006 214.031 95.4311 214.933 96.661C215.78 97.7542 216.9 98.6288 218.185 99.2027C219.469 99.7493 220.727 100.241 221.984 100.706C223.186 101.143 224.307 101.854 225.209 102.756C226.111 103.712 226.575 104.969 226.521 106.254C226.63 107.621 226.083 108.96 225.072 109.889C223.924 110.791 222.503 111.201 221.055 111.119C220.071 111.146 219.114 110.982 218.212 110.627C217.529 110.408 216.9 110.026 216.354 109.534L215.124 108.358C214.878 108.112 214.55 107.921 214.222 107.866C213.839 107.894 213.484 108.112 213.293 108.44C213.019 108.796 212.855 109.206 212.828 109.67C212.828 110.6 213.648 111.583 215.37 112.54C217.146 113.579 219.196 114.098 221.273 114.016C223.542 114.125 225.755 113.387 227.505 111.966C229.172 110.381 230.019 108.14 229.855 105.871C230.019 102.646 228.243 99.64 225.318 98.2735Z" fill="black"/>
<path d="M256.775 85.0728H240.814C240.459 85.0728 240.158 85.2368 239.94 85.5101C239.502 86.1387 239.502 86.9859 239.94 87.6145C240.131 87.8878 240.459 88.0518 240.814 88.0518H247.155V112.458C247.155 112.813 247.346 113.141 247.647 113.333C248.358 113.77 249.26 113.77 249.97 113.333C250.298 113.169 250.489 112.841 250.489 112.458V88.0518H256.748C257.103 88.0791 257.431 87.8878 257.623 87.5872C257.841 87.2866 257.951 86.9039 257.923 86.5213C257.923 86.166 257.841 85.8107 257.623 85.5101C257.404 85.2368 257.103 85.0728 256.775 85.0728Z" fill="black"/>
<path d="M288.397 85.0728C287.413 85.0728 286.538 85.7561 285.855 87.1499L279.651 98.9294L273.502 87.1499C272.791 85.7561 271.916 85.0728 270.96 85.0728H270.277C269.511 85.2095 268.992 85.9474 269.101 86.7126V112.431C269.101 112.813 269.293 113.169 269.648 113.333C270.003 113.551 270.413 113.661 270.823 113.633C271.206 113.633 271.589 113.497 271.916 113.278C272.244 113.114 272.436 112.786 272.436 112.403V91.7415L278.366 103.056C278.53 103.603 278.995 103.986 279.569 104.013C280.17 103.986 280.662 103.603 280.854 103.056L286.784 91.9328V112.403C286.784 112.759 286.976 113.087 287.276 113.278C287.987 113.688 288.861 113.688 289.599 113.278C289.927 113.114 290.119 112.786 290.119 112.403V86.6306C290.146 86.494 290.146 86.3573 290.119 86.2207C289.927 85.4828 289.189 84.9362 288.397 85.0728Z" fill="black"/>
<path d="M311.409 85.1001C310.289 85.1001 309.633 85.4828 309.414 86.2207L301.379 112.048C301.352 112.157 301.352 112.239 301.379 112.349C301.379 112.786 301.625 113.196 302.007 113.387C302.417 113.633 302.882 113.77 303.347 113.77C303.866 113.852 304.385 113.524 304.549 113.005L306.244 107.293H316.411L318.105 113.005C318.269 113.497 318.788 113.825 319.308 113.743C319.8 113.77 320.319 113.633 320.729 113.36C321.112 113.196 321.358 112.841 321.358 112.431L311.409 85.1001ZM321.385 112.321V112.185L313.35 86.2207C313.158 85.4828 312.502 85.1001 311.382 85.1001L321.385 112.321ZM307.009 104.505L311.382 89.8556L315.782 104.505H307.009Z" fill="black"/>
<path d="M349.536 85.3461C348.825 84.9361 347.95 84.9361 347.212 85.3461C346.912 85.5101 346.72 85.8381 346.693 86.1934V106.281L336.936 87.1773C336.69 86.576 336.308 86.0294 335.843 85.5647C335.46 85.2368 334.968 85.0728 334.449 85.0728C333.329 85.0728 332.809 85.4554 332.809 86.2207V112.458C332.782 112.813 332.973 113.141 333.301 113.333C334.012 113.77 334.914 113.77 335.624 113.333C335.925 113.169 336.116 112.813 336.116 112.458V92.534L346.283 112.239C346.611 113.114 347.431 113.688 348.333 113.743C348.743 113.743 349.153 113.633 349.508 113.415C349.809 113.223 350 112.895 350 112.54V86.1934C350 85.8381 349.836 85.5374 349.536 85.3461Z" fill="black"/>
<path d="M121.544 76.8736C121.298 76.983 121.161 77.2836 121.271 77.5296C121.271 77.5569 121.298 77.5569 121.298 77.5842C121.571 78.1308 121.517 78.8141 121.107 79.2787C120.915 79.47 120.888 79.798 121.079 79.9893C121.079 79.9893 121.079 79.9893 121.107 80.0167C121.216 80.044 121.353 80.044 121.462 80.0167C121.599 80.0167 121.763 79.9347 121.845 79.8253C122.528 79.0328 122.664 77.9122 122.173 76.983C122.036 76.7916 121.763 76.737 121.544 76.8736Z" fill="black"/>
<path d="M101.292 54.3806C76.3664 51.1556 53.5728 68.7838 50.3751 93.7093C47.1774 118.635 64.7783 141.456 89.7038 144.653C114.629 147.851 137.423 130.25 140.648 105.325C143.846 80.3993 126.245 57.5783 101.292 54.3806C101.319 54.3806 101.319 54.3806 101.292 54.3806ZM110.666 82.7497C109.819 82.777 109.026 83.105 108.425 83.7063L91.5349 100.597L87.9273 96.9889C104.544 80.3993 107.578 80.2353 110.666 82.7497ZM92.2182 101.198L109.054 84.4715C109.983 83.5696 111.459 83.5696 112.388 84.4715C112.853 84.9361 113.099 85.5648 113.071 86.1934C113.044 86.8493 112.771 87.4506 112.279 87.8879L94.4866 103.576L92.2182 101.198ZM93.4754 103.74L89.2938 104.805C89.2118 104.86 89.1298 104.86 89.0478 104.805C88.9932 104.723 88.9932 104.614 89.0478 104.532L91.5896 101.99L93.4754 103.74ZM82.8165 101.99L87.2713 97.5355L90.633 100.979L83.0078 102.619C82.8438 102.646 82.6798 102.537 82.6525 102.373C82.6251 102.264 82.6525 102.182 82.7345 102.1L82.8165 101.99ZM69.0145 125.139C68.9052 125.112 68.7959 125.03 68.7685 124.948C68.7412 124.839 68.7412 124.729 68.7685 124.647L72.3489 121.04L76.995 125.659L69.0145 125.139ZM78.1976 120.357C77.8423 120.548 77.651 120.93 77.733 121.313L78.4982 124.593C78.5529 124.811 78.4436 125.03 78.2796 125.139C78.1156 125.276 77.8696 125.276 77.733 125.139L73.0868 120.357L87.3533 106.063L94.268 104.587L97.575 107.894C91.6716 112.813 85.1669 116.995 78.2249 120.302V120.357H78.1976V120.357ZM98.2582 107.347L95.0879 104.177L112.88 88.5165C113.044 88.3798 113.208 88.2158 113.345 88.0245C112.771 93.108 105.61 100.323 98.2582 107.347ZM112.142 82.8317C109.491 80.0713 109.6 75.6984 112.361 73.0474C114.875 70.6423 118.756 70.4783 121.462 72.6647L115.34 78.7594C115.176 78.9508 115.176 79.2241 115.34 79.4154L120.095 84.1436C117.417 85.4554 114.192 84.9088 112.115 82.777L112.142 82.8317ZM121.899 82.8317C121.571 83.1323 121.243 83.433 120.861 83.6789L116.296 79.1147L122.118 73.2933C124.632 75.9991 124.55 80.208 121.899 82.8317Z" fill="black"/>
</svg>
