<svg width="400" height="200" viewBox="0 0 400 200" fill="none" xmlns="http://www.w3.org/2000/svg">
<g clip-path="url(#clip0)">
<path d="M250 100C250 127.614 227.614 150 200 150C172.386 150 150 127.614 150 100C150 72.3859 172.386 50 200 50C227.614 50 250 72.3859 250 100Z" fill="black"/>
<path d="M250 100C250 99.8375 249.99 99.6777 249.988 99.5156C239.997 89.8836 229.893 80.1277 229.609 79.7922C222.565 71.457 212.034 66.1641 200.267 66.1641C179.061 66.1641 161.87 83.3555 161.87 104.562C161.87 107.495 162.209 110.348 162.833 113.093C176.75 127.755 189.694 141.09 199.382 149.984C199.588 149.987 199.793 150 200 150C227.614 150 250 127.614 250 100" fill="black"/>
<path d="M224.95 104.006H175.784C175.784 103.939 175.779 103.873 175.779 103.807C175.779 90.227 186.787 79.2188 200.367 79.2188C213.946 79.2188 224.955 90.227 224.955 103.807C224.955 103.873 224.95 103.939 224.95 104.006V104.006ZM230.768 102.893H238.623C238.2 93.0133 234.048 84.1016 227.533 77.5305L222.109 82.9551L220.798 81.6438L226.196 76.2453C219.544 70.15 210.735 66.3781 201.048 66.1836V73.173H199.193V66.1914C189.5 66.4586 180.707 70.3125 174.092 76.4805L179.03 81.4187L177.719 82.7301L172.766 77.7773C166.389 84.3242 162.33 93.1348 161.912 102.893H169.103V104.748H161.875C161.889 107.556 162.21 110.355 162.833 113.093H237.702C238.325 110.355 238.646 107.556 238.66 104.748H230.768V102.893V102.893Z" fill="white"/>
</g>
<defs>
<clipPath id="clip0">
<rect width="100" height="100" fill="white" transform="translate(150 50)"/>
</clipPath>
</defs>
</svg>
