<svg width="400" height="200" viewBox="0 0 400 200" fill="none" xmlns="http://www.w3.org/2000/svg">
<path d="M163.114 93.069C163.114 83.8681 160.49 79.1445 155.243 78.8854C153.158 78.7852 151.076 79.1273 149.134 79.8894C147.551 80.4562 146.485 81.0166 145.925 81.5827V103.545C149.281 105.651 152.262 106.63 154.861 106.477C160.361 106.113 163.114 101.648 163.114 93.069V93.069ZM169.586 93.4507C169.586 98.125 168.49 102.005 166.286 105.091C163.828 108.583 160.422 110.381 156.069 110.479C152.786 110.584 149.405 109.556 145.925 107.4V127.36L140.296 125.352V81.0476C141.22 79.914 142.408 78.941 143.849 78.1158C147.2 76.1634 151.27 75.1594 156.062 75.1101L156.142 75.1904C160.521 75.1348 163.896 76.933 166.267 80.5794C168.478 83.9231 169.586 88.2095 169.586 93.4507V93.4507ZM203.988 106.55C203.988 112.82 203.36 117.161 202.104 119.576C200.842 121.99 198.439 123.918 194.892 125.352C192.016 126.485 188.906 127.101 185.568 127.206L184.638 123.659C188.031 123.197 190.421 122.735 191.807 122.273C194.535 121.349 196.407 119.933 197.436 118.036C198.261 116.49 198.668 113.54 198.668 109.173V107.708C194.818 109.457 190.785 110.325 186.566 110.325C183.795 110.325 181.349 109.457 179.243 107.708C176.878 105.805 175.696 103.391 175.696 100.465V77.0379L181.325 75.1108V98.6912C181.325 101.21 182.138 103.151 183.764 104.512C185.389 105.873 187.496 106.525 190.076 106.477C192.657 106.421 195.422 105.423 198.36 103.471V75.96H203.988V106.55ZM225.963 110.171C225.346 110.223 224.728 110.25 224.109 110.251C220.925 110.251 218.443 109.494 216.669 107.973C214.902 106.451 214.015 104.351 214.015 101.672V79.5008H210.16V75.96H214.015V66.5562L219.638 64.5545V75.96H225.963V79.5014H219.638V101.518C219.638 103.63 220.205 105.127 221.337 106.002C222.311 106.722 223.857 107.135 225.963 107.239V110.171ZM260.045 109.709H254.415V87.9821C254.415 85.7706 253.898 83.8681 252.87 82.279C251.681 80.4808 250.031 79.5811 247.912 79.5811C245.332 79.5811 242.104 80.9427 238.23 83.6647V109.709H232.601V57.7736L238.231 56V79.6556C241.828 77.0379 245.756 75.7255 250.024 75.7255C253.006 75.7255 255.419 76.7302 257.267 78.7319C259.121 80.7329 260.045 83.2274 260.045 86.2078V109.709ZM289.963 92.1819C289.963 88.6468 289.292 85.7276 287.955 83.4182C286.367 80.604 283.897 79.1198 280.559 78.9656C274.388 79.3226 271.309 83.7449 271.309 92.2192C271.309 96.105 271.949 99.3508 273.242 101.956C274.893 105.275 277.369 106.913 280.67 106.858C286.865 106.808 289.963 101.919 289.963 92.1819V92.1819ZM296.128 92.2192C296.128 97.2506 294.841 101.438 292.273 104.783C289.446 108.527 285.541 110.406 280.559 110.406C275.62 110.406 271.771 108.527 268.993 104.782C266.474 101.438 265.218 97.2506 265.218 92.2192C265.218 87.4892 266.579 83.5105 269.301 80.271C272.177 76.8344 275.959 75.1101 280.633 75.1101C285.307 75.1101 289.114 76.8351 292.045 80.271C294.767 83.5105 296.128 87.4892 296.128 92.2192ZM328.399 109.709H322.771V86.75C322.771 84.2314 322.012 82.2664 320.498 80.8504C318.983 79.4395 316.963 78.7559 314.444 78.8115C311.771 78.8608 309.228 79.7352 306.813 81.4292V109.709H301.184V80.7329C304.424 78.3742 307.405 76.8344 310.127 76.1141C312.695 75.4431 314.961 75.1101 316.913 75.1101C318.25 75.1101 319.506 75.2397 320.689 75.4981C322.9 76.0099 324.698 76.9576 326.084 78.3496C327.629 79.8894 328.399 81.7369 328.399 83.8984V109.709Z" fill="black"/>
<path d="M84.7 57.9814C81.8043 57.9947 79.0387 58.2418 76.6048 58.6727C69.4353 59.9389 68.1337 62.5901 68.1337 67.4787V73.9355H85.0753V76.0876H61.7761C56.8521 76.0876 52.541 79.0471 51.1927 84.6768C49.6371 91.1299 49.5682 95.1566 51.1927 101.895C52.397 106.91 55.2725 110.484 60.1964 110.484H66.0214V102.744C66.0214 97.152 70.8595 92.2192 76.6048 92.2192H93.5256C98.2366 92.2192 101.997 88.3409 101.997 83.6103V67.4793C101.997 62.8877 98.1235 59.4385 93.5262 58.6727C90.616 58.188 87.5964 57.9682 84.7 57.9814V57.9814ZM75.5383 63.1746C77.2885 63.1746 78.7171 64.6265 78.7171 66.4128C78.7171 68.192 77.2885 69.6307 75.5389 69.6307C73.7824 69.6307 72.3594 68.192 72.3594 66.4128C72.3594 64.6265 73.7824 63.1746 75.5383 63.1746V63.1746Z" fill="url(#paint0_linear)"/>
<path d="M104.11 76.0876V83.6103C104.11 89.4429 99.1648 94.3517 93.5262 94.3517H76.6048C71.9696 94.3517 68.1337 98.319 68.1337 102.961V119.093C68.1337 123.684 72.1263 126.384 76.6048 127.702C81.9673 129.278 87.1098 129.563 93.5256 127.702C97.7912 126.466 101.997 123.981 101.997 119.093V112.636H85.0753V110.484H110.467C115.391 110.484 117.226 107.049 118.938 101.895C120.707 96.5878 120.632 91.4843 118.938 84.6769C117.721 79.7756 115.398 76.0876 110.467 76.0876H104.11ZM94.5921 116.94C96.3487 116.94 97.7716 118.379 97.7716 120.159C97.7716 121.945 96.3487 123.397 94.5921 123.397C92.8419 123.397 91.414 121.945 91.414 120.159C91.414 118.379 92.8419 116.94 94.5921 116.94Z" fill="url(#paint1_linear)"/>
<path d="M339.361 70.9419H340.348V64.7523H342.686V64.0143H337.023V64.7523H339.361V70.9419ZM343.561 70.9419H344.404V65.2881L346.234 70.9406H347.173L349.08 65.3071V70.9412H350V64.0143H348.783L346.699 69.9492L344.921 64.0143H343.561V70.9419" fill="black"/>
<path opacity="0.444" d="M107.97 138.668C107.97 139.836 105.578 140.955 101.32 141.781C97.0628 142.607 91.2883 143.071 85.2672 143.071C79.2461 143.071 73.4716 142.607 69.214 141.781C64.9565 140.955 62.5646 139.836 62.5646 138.668C62.5646 137.501 64.9565 136.381 69.214 135.555C73.4716 134.73 79.2461 134.266 85.2672 134.266C91.2883 134.266 97.0628 134.73 101.32 135.555C105.578 136.381 107.97 137.501 107.97 138.668V138.668Z" fill="url(#paint2_radial)"/>
<defs>
<linearGradient id="paint0_linear" x1="49.9998" y1="57.9811" x2="89.0644" y2="91.2697" gradientUnits="userSpaceOnUse">
<stop/>
<stop offset="1"/>
</linearGradient>
<linearGradient id="paint1_linear" x1="94.185" y1="119.616" x2="80.1699" y2="99.9768" gradientUnits="userSpaceOnUse">
<stop/>
<stop offset="1"/>
</linearGradient>
<radialGradient id="paint2_radial" cx="0" cy="0" r="1" gradientUnits="userSpaceOnUse" gradientTransform="translate(85.2673 138.668) rotate(-90) scale(4.40218 19.3498)">
<stop stop-color="#B8B8B8" stop-opacity="0.498"/>
<stop offset="1" stop-color="#7F7F7F" stop-opacity="0"/>
</radialGradient>
</defs>
</svg>
