<svg width="95" height="95" viewBox="0 0 95 95" fill="none" xmlns="http://www.w3.org/2000/svg">
<path d="M67.7 42.9C70.1852 42.9 72.2 40.8853 72.2 38.4C72.2 35.9147 70.1852 33.9 67.7 33.9C65.2147 33.9 63.2 35.9147 63.2 38.4C63.2 40.8853 65.2147 42.9 67.7 42.9Z" stroke="black" stroke-width="3" stroke-miterlimit="10"/>
<path d="M53.9 42.9C56.3853 42.9 58.4 40.8853 58.4 38.4C58.4 35.9147 56.3853 33.9 53.9 33.9C51.4147 33.9 49.4 35.9147 49.4 38.4C49.4 40.8853 51.4147 42.9 53.9 42.9Z" stroke="black" stroke-width="3" stroke-miterlimit="10"/>
<path d="M87.7 61.9H82.8V73.5L67.8 62.7C67.1 62.2 66.3 62 65.5 62H23.5C21.3 62 19.6 60.2 19.6 58.1V18.9C19.6 16.7 21.4 15 23.5 15H87.7C89.9 15 91.6 16.8 91.6 18.9V58.1C91.6 60.1 89.9 61.9 87.7 61.9Z" stroke="black" stroke-width="3" stroke-miterlimit="10"/>
<path d="M40.1 42.9C42.5853 42.9 44.6 40.8853 44.6 38.4C44.6 35.9147 42.5853 33.9 40.1 33.9C37.6147 33.9 35.6 35.9147 35.6 38.4C35.6 40.8853 37.6147 42.9 40.1 42.9Z" stroke="black" stroke-width="3" stroke-miterlimit="10"/>
<path d="M63.1 67.5C63.1 69.3 61.7 70.7 59.9 70.7H25.4C24.7 70.7 24.1 70.9 23.5 71.3L11.2 80.2V70.7H7.20001C5.40001 70.7 4 69.3 4 67.5V35.4C4 33.6 5.40001 32.2 7.20001 32.2H12.5" stroke="black" stroke-width="3" stroke-miterlimit="10"/>
</svg>
