<svg width="400" height="200" viewBox="0 0 400 200" fill="none" xmlns="http://www.w3.org/2000/svg">
<path d="M256.291 100.011C256.291 92.5727 246.976 85.523 232.693 81.1513C235.989 66.5942 234.524 55.0126 228.07 51.3046C226.582 50.4349 224.842 50.0229 222.943 50.0229V55.127C223.995 55.127 224.842 55.333 225.552 55.7221C228.665 57.5074 230.015 64.3053 228.962 73.0488C228.71 75.2003 228.298 77.4662 227.795 79.778C223.309 78.6793 218.411 77.8325 213.261 77.2831C210.171 73.0488 206.966 69.2035 203.739 65.8389C211.201 58.9036 218.205 55.1041 222.965 55.1041V50C216.671 50 208.431 54.4862 200.1 62.2683C191.768 54.5319 183.528 50.0916 177.234 50.0916V55.1957C181.972 55.1957 188.999 58.9723 196.461 65.8618C193.256 69.2264 190.052 73.0488 187.008 77.2831C181.835 77.8325 176.937 78.6793 172.45 79.8009C171.924 77.512 171.535 75.2918 171.26 73.1632C170.184 64.4198 171.512 57.6219 174.602 55.8137C175.289 55.4017 176.181 55.2186 177.234 55.2186V50.1144C175.312 50.1144 173.572 50.5264 172.061 51.3962C165.63 55.1041 164.188 66.6629 167.507 81.1742C153.27 85.5688 144 92.5956 144 100.011C144 107.45 153.316 114.5 167.598 118.872C164.302 133.429 165.767 145.01 172.222 148.718C173.709 149.588 175.449 150 177.371 150C183.666 150 191.906 145.514 200.237 137.732C208.569 145.468 216.808 149.908 223.103 149.908C225.025 149.908 226.765 149.496 228.276 148.627C234.707 144.919 236.149 133.36 232.83 118.849C247.021 114.477 256.291 107.427 256.291 100.011ZM226.49 84.7448C225.643 87.6974 224.591 90.7416 223.4 93.7858C222.462 91.9547 221.478 90.1236 220.402 88.2925C219.349 86.4614 218.228 84.6761 217.106 82.9366C220.356 83.4173 223.492 84.0124 226.49 84.7448ZM216.007 109.121C214.222 112.211 212.391 115.141 210.491 117.864C207.081 118.162 203.625 118.322 200.146 118.322C196.689 118.322 193.233 118.162 189.846 117.887C187.946 115.164 186.092 112.257 184.307 109.19C182.567 106.191 180.988 103.147 179.546 100.08C180.965 97.013 182.567 93.946 184.284 90.9476C186.069 87.8576 187.9 84.9279 189.8 82.2042C193.21 81.9066 196.667 81.7464 200.146 81.7464C203.602 81.7464 207.058 81.9066 210.445 82.1813C212.345 84.905 214.199 87.8119 215.984 90.8789C217.724 93.8773 219.303 96.9215 220.745 99.9886C219.303 103.056 217.724 106.123 216.007 109.121ZM223.4 106.146C224.636 109.213 225.689 112.28 226.559 115.255C223.561 115.988 220.402 116.606 217.129 117.086C218.25 115.324 219.372 113.516 220.425 111.662C221.478 109.831 222.462 107.977 223.4 106.146ZM200.191 130.568C198.063 128.37 195.934 125.921 193.828 123.243C195.888 123.335 197.994 123.404 200.123 123.404C202.274 123.404 204.403 123.358 206.486 123.243C204.426 125.921 202.297 128.37 200.191 130.568ZM183.162 117.086C179.912 116.606 176.776 116.011 173.778 115.278C174.625 112.325 175.678 109.281 176.868 106.237C177.806 108.068 178.791 109.899 179.866 111.73C180.942 113.561 182.041 115.347 183.162 117.086ZM200.077 69.4553C202.206 71.6526 204.334 74.1016 206.44 76.7796C204.38 76.688 202.274 76.6194 200.146 76.6194C197.994 76.6194 195.865 76.6651 193.783 76.7796C195.843 74.1016 197.971 71.6526 200.077 69.4553ZM183.139 82.9366C182.018 84.699 180.896 86.5072 179.843 88.3612C178.791 90.1923 177.806 92.0233 176.868 93.8544C175.632 90.7874 174.579 87.7203 173.709 84.7448C176.708 84.0352 179.866 83.4173 183.139 82.9366ZM162.425 111.593C154.323 108.137 149.081 103.605 149.081 100.011C149.081 96.4179 154.323 91.8631 162.425 88.4298C164.394 87.583 166.545 86.8276 168.765 86.1181C170.07 90.6043 171.787 95.2735 173.915 100.057C171.81 104.818 170.116 109.464 168.834 113.928C166.568 113.218 164.417 112.44 162.425 111.593ZM174.739 144.301C171.626 142.515 170.276 135.718 171.329 126.974C171.581 124.823 171.993 122.557 172.496 120.245C176.982 121.344 181.881 122.19 187.03 122.74C190.12 126.974 193.325 130.819 196.552 134.184C189.09 141.119 182.087 144.919 177.326 144.919C176.296 144.896 175.426 144.69 174.739 144.301ZM229.031 126.86C230.107 135.603 228.779 142.401 225.689 144.209C225.003 144.621 224.11 144.804 223.057 144.804C218.319 144.804 211.292 141.028 203.831 134.138C207.035 130.774 210.239 126.951 213.284 122.717C218.456 122.168 223.355 121.321 227.841 120.199C228.367 122.511 228.779 124.731 229.031 126.86ZM237.843 111.593C235.875 112.44 233.723 113.195 231.503 113.905C230.198 109.419 228.482 104.749 226.353 99.9657C228.459 95.2048 230.152 90.5585 231.434 86.0952C233.7 86.8048 235.852 87.583 237.866 88.4298C245.968 91.886 251.21 96.4179 251.21 100.011C251.187 103.605 245.946 108.16 237.843 111.593Z" fill="black"/>
<path d="M200.123 110.471C205.9 110.471 210.583 105.788 210.583 100.011C210.583 94.2344 205.9 89.5513 200.123 89.5513C194.346 89.5513 189.663 94.2344 189.663 100.011C189.663 105.788 194.346 110.471 200.123 110.471Z" fill="black"/>
</svg>
