<svg width="400" height="200" viewBox="0 0 400 200" fill="none" xmlns="http://www.w3.org/2000/svg">
<path d="M0 110.13H17.5411L18.7941 95.094L2.50504 91.336L0 110.13ZM3.13234 88.8293L18.7941 92.5881L22.5529 79.4323L9.39703 72.5419L3.13234 88.8293ZM10.6491 70.0352L23.1785 76.9264L33.2028 70.0352L23.8058 59.3853L10.6491 70.0352ZM80.8136 110.13H63.2733L62.0195 95.094L78.3085 91.336L80.8136 110.13ZM77.6812 88.8293L62.0195 92.5881L58.2616 79.4323L71.4165 72.5419L77.6812 88.8293ZM70.1636 70.0352L57.6343 76.9264L47.6116 70.0352L57.0086 59.3853L70.1636 70.0352ZM26.9381 57.5059L36.3352 68.7823H45.1049L53.2498 57.5059L45.1049 55H36.1146L26.9381 57.5059Z" fill="black"/>
<path d="M0 110.13H17.5411L18.794 95.094L2.50504 91.336L0 110.13Z" fill="black"/>
<path d="M3.13232 88.8293L18.794 92.5881L22.5528 79.4322L9.39701 72.5419L3.13232 88.8293Z" fill="black"/>
<path d="M10.649 70.0352L23.1784 76.9264L33.2027 70.0352L23.8057 59.3853L10.649 70.0352Z" fill="black"/>
<path d="M80.8136 110.13H63.2733L62.0195 95.094L78.3085 91.336L80.8136 110.13Z" fill="black"/>
<path d="M77.6812 88.8293L62.0194 92.5881L58.2615 79.4322L71.4165 72.5419L77.6812 88.8293Z" fill="black"/>
<path d="M70.1636 70.0352L57.6342 76.9264L47.6116 70.0352L57.0086 59.3853L70.1636 70.0352Z" fill="black"/>
<path d="M26.9381 57.5059L36.3351 68.7823H45.1049L53.2498 57.5059L45.1049 55H36.1146L26.9381 57.5059Z" fill="black"/>
<path d="M102.219 70.6358V110.103H109.031V96.0078L121.874 110.103H128.008V107.336L116.81 95.6954C119.728 95.3262 122.031 93.9112 123.727 91.4663C125.424 89.0222 126.301 86.2599 126.338 83.166C126.393 79.5743 125.234 76.604 122.892 74.2643C120.551 71.9255 116.698 70.7202 111.303 70.6366L102.219 70.6358ZM133.725 70.6358V110.103H155.651V103.89H140.538V92.6131H151.631V86.4796H140.538V76.7176H155.025V70.6358H133.725ZM162.229 70.6358V110.103H173.506C177.204 110.041 180.186 109.07 182.433 107.18C184.68 105.29 186.306 102.847 187.314 99.871C188.321 96.8948 188.793 93.7408 188.776 90.4213C188.804 87.1403 188.39 84.023 187.497 81.0243C186.603 78.0256 185.081 75.564 182.929 73.6378C180.776 71.7108 177.805 70.7018 174.054 70.6358H162.229ZM109.031 76.5338H111.302C114.132 76.5538 116.174 77.1277 117.462 78.2829C118.75 79.4381 119.387 81.0561 119.367 83.1117C119.363 85.2442 118.81 87.0509 117.671 88.5411C116.531 90.0321 114.835 90.7989 112.606 90.8649C111.746 90.8306 110.942 90.7104 110.205 90.4723C109.47 90.2351 109.077 90.0889 109.031 90.0546V76.5338ZM168.989 76.5338H173.818C176.205 76.6065 177.98 77.4159 179.143 78.962C180.305 80.5073 181.059 82.3449 181.414 84.4958C181.769 86.6467 181.919 88.6622 181.884 90.5516C181.912 92.5838 181.728 94.6133 181.336 96.6075C180.931 98.6949 180.12 100.471 178.908 101.932C177.696 103.393 175.896 104.138 173.504 104.204H168.989L168.989 76.5338Z" fill="black"/>
<path d="M196.868 70.6358V110.103H203.707V88.3598L203.185 83.7908L212.347 110.102H217.985L227.121 83.7908L226.625 88.3598V110.102H233.464V70.6349H225.424L216.027 97.391C215.762 98.1864 215.544 98.997 215.375 99.8183C215.236 100.501 215.164 100.856 215.166 100.889C215.169 100.86 215.095 100.516 214.957 99.8451C214.819 99.1735 214.59 98.3591 214.278 97.391L204.881 70.6358H196.868ZM242.469 70.6358V110.103H249.23V70.6358H242.469ZM257.948 70.6358V110.103H264.787V87.6807C264.775 86.4765 264.697 85.2738 264.553 84.0781C264.425 83.0557 264.362 82.5387 264.344 82.4861L276.795 110.103H283.373V70.6358H276.56C276.56 79.18 276.56 87.7242 276.56 96.2684C276.547 96.1723 276.354 95.4982 276.012 94.2587C275.665 92.9968 275.238 91.7586 274.732 90.5516L265.962 70.6358H257.948ZM292.535 70.6358V110.103H314.461V103.89H299.348V92.6131H310.441V86.4796H299.348V76.7175H313.835V70.6358H292.535Z" fill="black"/>
<path d="M109.006 121.041C108.945 121.017 108.532 121.074 107.753 121.223C106.973 121.372 106.182 121.749 105.403 122.345C104.624 122.941 104.21 123.899 104.15 125.217V126.679H102.479V128.636L104.15 128.923V139.469H106.891V128.975H109.267V126.678H106.891V125.348C106.923 124.637 107.155 124.114 107.57 123.782C107.985 123.449 108.382 123.247 108.797 123.156C109.212 123.064 109.443 123.014 109.476 123.025L109.006 121.041ZM111.198 121.327V134.119C111.212 135.609 111.293 136.782 111.46 137.643C111.627 138.503 111.798 139.115 111.955 139.47H114.774C114.486 138.522 114.273 137.657 114.122 136.859C113.97 136.062 113.888 135.144 113.887 134.119V121.327H111.198ZM147.35 121.327V138.163C148.012 138.671 148.741 139.085 149.517 139.391C150.299 139.699 151.104 139.851 151.944 139.861C153.327 139.831 154.431 139.446 155.234 138.686C156.036 137.925 156.592 136.96 156.93 135.814C157.269 134.668 157.436 133.502 157.426 132.316C157.432 130.809 157.051 129.439 156.278 128.218C155.504 126.999 154.301 126.359 152.675 126.287C152.227 126.301 151.751 126.438 151.266 126.705C150.825 126.94 150.428 127.249 150.092 127.619V121.327H147.35ZM160.063 121.327V134.119C160.076 135.609 160.157 136.782 160.324 137.643C160.491 138.503 160.662 139.115 160.819 139.47H163.639C163.35 138.522 163.137 137.657 162.986 136.859C162.835 136.062 162.752 135.144 162.751 134.119V121.327H160.063ZM142.287 121.719C141.809 121.722 141.351 121.909 141.008 122.241C140.831 122.404 140.689 122.602 140.59 122.822C140.491 123.041 140.438 123.279 140.433 123.52C140.448 124.013 140.621 124.414 140.955 124.721C141.29 125.027 141.699 125.181 142.182 125.19C142.66 125.187 143.118 125 143.461 124.668C143.82 124.329 144.018 123.898 144.036 123.389C144.022 122.897 143.847 122.495 143.514 122.188C143.18 121.883 142.77 121.729 142.286 121.719H142.287ZM222.449 121.719C221.971 121.722 221.513 121.909 221.169 122.241C220.81 122.58 220.612 123.011 220.595 123.52C220.61 124.013 220.783 124.414 221.117 124.721C221.452 125.027 221.861 125.181 222.344 125.19C222.822 125.187 223.279 125 223.622 124.668C223.982 124.329 224.18 123.898 224.197 123.389C224.183 122.897 224.009 122.495 223.675 122.188C223.341 121.883 222.932 121.729 222.448 121.719H222.449ZM250.744 124.382V126.679H248.995V128.636L250.64 128.923V136.65C250.629 137.537 250.836 138.281 251.24 138.895C251.644 139.508 252.307 139.834 253.249 139.861C253.856 139.862 254.347 139.803 254.711 139.678C255.076 139.552 255.516 139.349 256.043 139.077L255.39 137.146C254.968 137.357 254.505 137.473 254.033 137.485C253.732 137.473 253.558 137.386 253.485 137.198C253.407 136.998 253.371 136.785 253.381 136.571V129.002H255.652V126.679H253.328V124.382H250.744ZM394.701 124.382V126.679H392.952V128.636L394.597 128.923V136.65C394.587 137.537 394.793 138.281 395.197 138.895C395.601 139.508 396.265 139.834 397.207 139.861C397.812 139.862 398.304 139.803 398.669 139.678C399.033 139.552 399.472 139.349 400 139.077L399.348 137.146C398.926 137.357 398.462 137.473 397.99 137.485C397.69 137.473 397.514 137.386 397.442 137.198C397.364 136.998 397.328 136.785 397.338 136.571V129.002H399.608V126.679H397.285V124.382H394.701ZM122.475 126.286C120.7 126.355 119.319 127.041 118.35 128.323C117.382 129.604 116.901 131.075 116.888 132.761C116.88 133.867 117.038 134.97 117.358 136.049C117.678 137.129 118.201 138.018 118.95 138.738C119.701 139.458 120.725 139.832 122.004 139.861C122.761 139.837 123.555 139.628 124.38 139.234C125.205 138.839 125.908 138.395 126.494 137.903L125.581 136.128C125.08 136.511 124.537 136.835 123.962 137.093C123.337 137.377 122.728 137.521 122.161 137.537C121.234 137.456 120.583 136.96 120.203 136.023C119.825 135.087 119.642 134.199 119.655 133.387C119.651 133.23 119.66 133.073 119.681 132.917H127.147C127.146 132.63 127.155 132.343 127.147 132.056C127.139 131.768 127.122 131.481 127.121 131.194C127.051 129.928 126.577 128.803 125.711 127.827C124.846 126.85 123.771 126.34 122.475 126.287V126.286ZM171.339 126.286C169.565 126.355 168.183 127.041 167.214 128.323C166.246 129.604 165.765 131.075 165.753 132.761C165.744 133.867 165.903 134.97 166.223 136.049C166.543 137.129 167.066 138.018 167.815 138.738C168.565 139.458 169.59 139.832 170.869 139.861C171.626 139.837 172.42 139.628 173.244 139.234C174.07 138.839 174.772 138.395 175.359 137.903L174.446 136.128C173.945 136.511 173.402 136.835 172.827 137.093C172.202 137.377 171.592 137.521 171.026 137.537C170.099 137.456 169.447 136.96 169.068 136.023C168.69 135.087 168.507 134.199 168.52 133.387C168.516 133.23 168.524 133.073 168.546 132.917H176.012C176.011 132.63 176.019 132.343 176.012 132.056C176.003 131.768 175.987 131.481 175.986 131.194C175.916 129.928 175.441 128.803 174.576 127.827C173.71 126.85 172.635 126.34 171.339 126.287V126.286ZM192.352 126.286C191.612 126.323 190.993 126.505 190.498 126.835C190.005 127.165 189.685 127.426 189.533 127.619V126.678H186.766V144.037H189.533V138.555C189.787 139 190.182 139.349 190.655 139.547C191.138 139.756 191.648 139.863 192.195 139.861C193.505 139.827 194.509 139.435 195.223 138.659C195.938 137.884 196.438 136.912 196.711 135.788C196.98 134.713 197.111 133.608 197.103 132.499C197.119 131.027 196.721 129.58 195.954 128.323C195.18 127.045 193.977 126.368 192.352 126.287V126.286ZM204.881 126.286C204.433 126.342 203.998 126.577 203.576 126.965C203.154 127.354 202.928 127.563 202.897 127.618V126.679H200.131V139.469H202.871V129.941C202.897 129.893 203.094 129.702 203.446 129.367C203.798 129.033 204.15 128.841 204.515 128.793C204.851 128.812 205.173 128.891 205.482 129.028C205.791 129.165 205.956 129.243 205.978 129.262L206.421 126.678C206.419 126.662 206.293 126.61 206.03 126.496C205.766 126.381 205.38 126.304 204.881 126.287V126.286ZM212.921 126.286C211.162 126.371 209.841 127.096 208.979 128.48C208.118 129.862 207.698 131.397 207.701 133.074C207.698 134.761 208.118 136.29 208.979 137.668C209.841 139.045 211.162 139.778 212.922 139.861C214.68 139.778 216 139.045 216.862 137.668C217.724 136.29 218.144 134.761 218.141 133.074C218.144 131.397 217.724 129.862 216.862 128.48C216 127.097 214.68 126.371 212.921 126.287V126.286ZM232.211 126.286C230.437 126.355 229.055 127.041 228.086 128.323C227.118 129.604 226.637 131.075 226.625 132.761C226.616 133.867 226.775 134.97 227.095 136.049C227.415 137.129 227.938 138.018 228.687 138.738C229.437 139.458 230.462 139.832 231.741 139.861C232.497 139.837 233.292 139.628 234.116 139.234C234.941 138.839 235.644 138.395 236.23 137.903L235.317 136.128C234.817 136.511 234.274 136.835 233.699 137.093C233.074 137.377 232.464 137.521 231.898 137.537C230.971 137.456 230.319 136.96 229.94 136.023C229.561 135.087 229.378 134.199 229.392 133.387C229.387 133.23 229.396 133.073 229.418 132.917H236.884C236.883 132.63 236.891 132.343 236.884 132.056C236.875 131.768 236.858 131.481 236.858 131.194C236.787 129.928 236.313 128.803 235.448 127.827C234.582 126.85 233.507 126.34 232.211 126.287V126.286ZM244.166 126.286C242.95 126.314 241.943 126.682 241.164 127.383C240.386 128.085 239.814 128.968 239.441 130.019C239.069 131.072 238.89 132.124 238.893 133.204C238.893 134.248 239.087 135.272 239.468 136.285C239.848 137.295 240.421 138.144 241.19 138.816C241.959 139.489 242.923 139.835 244.088 139.86C244.811 139.848 245.537 139.668 246.281 139.338C247.024 139.009 247.671 138.607 248.212 138.111L247.272 136.232C246.837 136.58 246.364 136.878 245.863 137.12C245.31 137.387 244.77 137.521 244.271 137.538C243.605 137.509 243.09 137.239 242.705 136.702C242.304 136.138 242.02 135.499 241.869 134.823C241.707 134.113 241.63 133.485 241.634 132.944C241.631 132.429 241.722 131.841 241.895 131.168C242.057 130.528 242.34 129.926 242.731 129.394C243.106 128.883 243.585 128.611 244.192 128.583C244.595 128.588 245.019 128.684 245.445 128.845C245.871 129.006 246.23 129.206 246.541 129.471L247.924 127.853C247.483 127.331 246.902 126.939 246.202 126.679C245.502 126.417 244.83 126.286 244.166 126.286H244.166ZM272.305 126.286C271.745 126.314 271.152 126.485 270.504 126.782C269.856 127.081 269.38 127.344 269.094 127.593V126.679H266.353V139.469H269.094V130.072C269.352 129.853 269.782 129.579 270.4 129.236C271.016 128.894 271.603 128.698 272.149 128.662C272.583 128.67 272.875 128.836 273.036 129.132C273.197 129.428 273.28 129.802 273.27 130.281V139.469H276.011V129.837C276.306 129.605 276.686 129.37 277.16 129.106C277.639 128.836 278.176 128.684 278.726 128.663C279.161 128.655 279.452 128.76 279.614 128.949C279.775 129.139 279.858 129.452 279.848 129.915V139.469H282.589V129.915C282.616 128.885 282.37 128.039 281.832 127.357C281.294 126.675 280.304 126.313 278.883 126.287C278.225 126.319 277.576 126.513 276.925 126.861C276.273 127.21 275.73 127.521 275.307 127.801C275.033 127.43 274.657 127.092 274.158 126.782C273.66 126.473 273.035 126.306 272.305 126.287V126.286ZM290.603 126.286C289.762 126.303 288.929 126.538 288.123 126.965C287.318 127.393 286.654 127.915 286.113 128.557L287.053 130.203C287.473 129.794 287.993 129.443 288.593 129.132C289.193 128.822 289.778 128.653 290.368 128.636C290.819 128.628 291.189 128.71 291.465 128.897C291.74 129.084 291.874 129.428 291.882 129.916V131.194L286.269 133.622C286.077 133.988 285.908 134.405 285.748 134.875C285.588 135.345 285.497 135.788 285.487 136.206C285.487 137.351 285.771 138.254 286.348 138.895C286.925 139.535 287.798 139.85 288.958 139.861C289.696 139.857 290.32 139.688 290.838 139.364C291.355 139.041 291.811 138.584 292.195 137.981C292.309 138.561 292.571 139.013 292.978 139.338C293.386 139.664 293.882 139.829 294.466 139.835C294.794 139.83 295.119 139.777 295.432 139.678C295.743 139.586 296.042 139.455 296.32 139.286L295.615 137.903C295.538 137.941 295.46 137.976 295.38 138.007C295.305 138.038 295.226 138.056 295.145 138.06C294.953 138.051 294.824 137.989 294.753 137.851C294.68 137.705 294.645 137.544 294.649 137.381V129.941C294.627 128.693 294.24 127.77 293.5 127.174C292.761 126.579 291.8 126.283 290.603 126.287V126.286ZM304.855 126.286C304.272 126.3 303.65 126.443 303.002 126.704C302.354 126.965 301.81 127.266 301.357 127.618V126.679H298.617V139.469H301.357V130.019C301.692 129.746 302.171 129.461 302.767 129.159C303.363 128.856 303.946 128.688 304.542 128.663C304.961 128.656 305.242 128.765 305.377 128.975C305.513 129.186 305.571 129.529 305.56 130.019V139.469H308.3V130.019C308.34 129.008 308.131 128.131 307.674 127.41C307.218 126.688 306.278 126.32 304.855 126.287V126.286ZM316.315 126.286C315.473 126.303 314.64 126.538 313.834 126.965C313.029 127.393 312.365 127.915 311.824 128.557L312.764 130.203C313.185 129.794 313.704 129.443 314.304 129.132C314.904 128.822 315.489 128.653 316.079 128.636C316.53 128.628 316.9 128.71 317.176 128.897C317.452 129.084 317.585 129.428 317.594 129.916V131.194L311.981 133.622C311.789 133.988 311.619 134.405 311.459 134.875C311.3 135.345 311.209 135.788 311.198 136.206C311.198 137.351 311.483 138.254 312.06 138.895C312.636 139.535 313.509 139.85 314.67 139.861C315.407 139.857 316.032 139.688 316.549 139.364C317.067 139.041 317.522 138.584 317.907 137.981C318.02 138.561 318.282 139.013 318.689 139.338C319.098 139.664 319.593 139.829 320.177 139.835C320.505 139.83 320.831 139.777 321.144 139.678C321.455 139.586 321.753 139.454 322.031 139.286L321.326 137.903C321.25 137.941 321.171 137.976 321.092 138.007C321.017 138.038 320.937 138.056 320.856 138.06C320.664 138.051 320.536 137.989 320.464 137.851C320.392 137.705 320.356 137.544 320.36 137.381V129.941C320.338 128.693 319.951 127.77 319.211 127.174C318.472 126.579 317.511 126.283 316.314 126.287L316.315 126.286ZM328.322 126.286C326.919 126.303 325.809 126.724 324.981 127.539C324.151 128.356 323.721 129.468 323.701 130.88C323.698 131.64 323.868 132.38 324.223 133.1C324.579 133.82 325.14 134.35 325.894 134.692C325.424 134.858 324.996 135.126 324.641 135.475C324.279 135.829 324.086 136.269 324.067 136.78C324.082 137.239 324.234 137.653 324.536 138.007C324.839 138.361 325.201 138.567 325.606 138.633C325.086 138.846 324.571 139.191 324.067 139.652C323.563 140.113 323.295 140.665 323.258 141.322C323.314 142.545 323.817 143.405 324.745 143.907C325.674 144.408 326.686 144.654 327.799 144.637C329.208 144.642 330.585 144.214 331.742 143.411C332.919 142.602 333.551 141.432 333.621 139.886C333.593 138.943 333.26 138.238 332.629 137.746C331.997 137.253 331.234 136.992 330.332 136.989H329.496C329.122 137.012 328.594 137.027 327.93 137.015C327.266 137.003 326.907 136.823 326.834 136.493C326.873 136.074 327.082 135.794 327.46 135.631C327.838 135.47 328.152 135.359 328.4 135.318C328.556 135.281 328.697 135.261 328.843 135.24C328.99 135.219 329.144 135.186 329.288 135.162C330.351 134.892 331.17 134.4 331.741 133.674C332.311 132.948 332.596 132.038 332.602 130.96C332.601 130.626 332.566 130.294 332.498 129.967C332.425 129.65 332.338 129.337 332.237 129.028H333.725V126.678H330.462C330.128 126.532 329.777 126.427 329.418 126.366C329.055 126.309 328.688 126.282 328.321 126.287L328.322 126.286ZM340.956 126.286C339.181 126.355 337.799 127.041 336.831 128.323C335.862 129.604 335.382 131.075 335.369 132.761C335.361 133.867 335.519 134.97 335.84 136.049C336.16 137.129 336.682 138.018 337.432 138.738C338.181 139.458 339.206 139.832 340.486 139.861C341.242 139.837 342.036 139.628 342.861 139.234C343.686 138.839 344.389 138.395 344.975 137.903L344.061 136.128C343.561 136.511 343.018 136.835 342.443 137.093C341.818 137.377 341.209 137.521 340.643 137.537C339.715 137.456 339.063 136.96 338.685 136.023C338.306 135.087 338.123 134.199 338.137 133.387C338.132 133.23 338.14 133.073 338.162 132.917H345.628C345.628 132.63 345.636 132.343 345.628 132.056C345.62 131.768 345.603 131.481 345.602 131.194C345.532 129.928 345.058 128.803 344.192 127.827C343.326 126.85 342.252 126.34 340.955 126.287L340.956 126.286ZM354.477 126.286C353.917 126.314 353.324 126.485 352.676 126.782C352.028 127.081 351.551 127.344 351.266 127.593V126.679H348.525V139.469H351.266V130.072C351.524 129.853 351.954 129.579 352.571 129.236C353.188 128.894 353.775 128.698 354.32 128.662C354.755 128.67 355.047 128.836 355.208 129.132C355.369 129.428 355.451 129.802 355.442 130.281V139.469H358.183V129.837C358.478 129.605 358.858 129.37 359.331 129.106C359.811 128.836 360.348 128.684 360.898 128.663C361.333 128.655 361.624 128.76 361.785 128.949C361.947 129.139 362.029 129.452 362.02 129.915V139.469H364.761V129.915C364.787 128.885 364.542 128.039 364.004 127.357C363.466 126.675 362.476 126.313 361.055 126.287C360.396 126.319 359.748 126.513 359.097 126.861C358.445 127.21 357.902 127.521 357.479 127.801C357.205 127.43 356.829 127.092 356.33 126.782C355.831 126.473 355.207 126.306 354.477 126.287V126.286ZM373.375 126.286C371.601 126.355 370.219 127.041 369.25 128.323C368.282 129.604 367.801 131.075 367.789 132.761C367.78 133.867 367.939 134.97 368.259 136.049C368.579 137.129 369.102 138.018 369.851 138.738C370.601 139.458 371.626 139.832 372.905 139.861C373.662 139.837 374.456 139.628 375.28 139.234C376.106 138.839 376.808 138.395 377.395 137.903L376.482 136.128C375.981 136.511 375.438 136.835 374.863 137.093C374.238 137.377 373.628 137.521 373.062 137.537C372.135 137.456 371.483 136.96 371.104 136.023C370.726 135.087 370.543 134.199 370.556 133.387C370.552 133.23 370.56 133.073 370.582 132.917H378.048C378.047 132.63 378.055 132.343 378.048 132.056C378.039 131.768 378.023 131.481 378.022 131.194C377.952 129.928 377.477 128.803 376.612 127.827C375.746 126.85 374.671 126.34 373.375 126.287V126.286ZM387.157 126.286C386.574 126.3 385.952 126.443 385.304 126.704C384.656 126.965 384.112 127.266 383.659 127.618V126.679H380.919V139.469H383.659V130.019C383.995 129.746 384.473 129.461 385.069 129.159C385.666 128.856 386.248 128.688 386.844 128.663C387.263 128.656 387.544 128.765 387.679 128.975C387.815 129.186 387.873 129.529 387.862 130.019V139.469H390.603V130.019C390.642 129.008 390.433 128.131 389.977 127.41C389.52 126.688 388.58 126.32 387.157 126.287V126.286ZM128.556 126.679L132.028 132.865L128.322 139.469H131.324L133.542 135.135L135.839 139.469H138.972L135.056 132.708C135.223 132.428 135.576 131.811 136.127 130.854C136.676 129.899 137.212 128.971 137.719 128.088L138.528 126.678H135.526L133.568 130.515L131.637 126.678L128.556 126.679ZM140.877 126.679V139.469H143.566V126.678L140.877 126.679ZM221.065 126.679V140.408C221.045 140.959 220.86 141.424 220.491 141.792C220.122 142.159 219.689 142.417 219.212 142.575L219.786 144.533C220.636 144.31 221.507 143.917 222.37 143.332C223.234 142.747 223.686 141.818 223.754 140.565V126.68L221.065 126.679ZM328.165 128.271C328.845 128.303 329.309 128.591 329.575 129.106C329.841 129.622 329.978 130.169 329.966 130.777C329.985 131.338 329.859 131.896 329.601 132.395C329.345 132.878 328.884 133.123 328.218 133.151C327.467 133.126 326.973 132.87 326.729 132.369C326.485 131.868 326.37 131.271 326.39 130.594C326.373 130.037 326.508 129.487 326.782 129.002C327.045 128.539 327.498 128.296 328.165 128.271ZM122.292 128.323C122.956 128.344 123.459 128.575 123.806 129.028C124.153 129.48 124.356 130.024 124.407 130.646H120.046C120.169 130.068 120.419 129.524 120.778 129.054C121.129 128.597 121.633 128.346 122.292 128.323ZM171.156 128.323C171.82 128.344 172.323 128.575 172.671 129.028C173.018 129.48 173.22 130.024 173.271 130.646H168.911C169.034 130.068 169.284 129.524 169.643 129.054C169.993 128.597 170.498 128.346 171.156 128.323ZM232.028 128.323C232.692 128.344 233.195 128.575 233.542 129.028C233.89 129.48 234.092 130.024 234.143 130.646H229.783C229.905 130.068 230.155 129.524 230.514 129.054C230.865 128.597 231.37 128.346 232.028 128.323ZM340.773 128.323C341.437 128.344 341.939 128.575 342.286 129.028C342.634 129.48 342.836 130.024 342.887 130.646H338.528C338.65 130.068 338.9 129.524 339.258 129.054C339.609 128.597 340.115 128.346 340.773 128.323ZM373.192 128.323C373.856 128.344 374.359 128.575 374.707 129.028C375.054 129.48 375.256 130.024 375.307 130.646H370.947C371.07 130.068 371.32 129.524 371.679 129.054C372.029 128.597 372.534 128.346 373.192 128.323ZM212.921 128.636C213.698 128.678 214.314 129.13 214.748 129.993C215.183 130.857 215.394 131.884 215.401 133.074C215.394 134.275 215.183 135.296 214.748 136.154C214.314 137.012 213.698 137.472 212.921 137.511C212.144 137.472 211.528 137.012 211.094 136.154C210.66 135.295 210.448 134.274 210.442 133.074C210.448 131.884 210.659 130.857 211.093 129.993C211.527 129.13 212.144 128.678 212.921 128.636ZM152.441 128.74C153.354 128.812 153.954 129.269 154.242 130.124C154.529 130.979 154.659 131.801 154.633 132.578C154.642 133.133 154.579 133.808 154.45 134.587C154.323 135.367 154.083 136.044 153.719 136.65C153.357 137.255 152.824 137.583 152.127 137.615C151.77 137.606 151.417 137.535 151.083 137.406C150.735 137.28 150.402 137.113 150.091 136.91V130.046C150.372 129.774 150.737 129.498 151.188 129.211C151.638 128.922 152.056 128.764 152.441 128.74ZM192.091 128.74C193.027 128.816 193.641 129.304 193.918 130.202C194.195 131.101 194.313 131.954 194.284 132.761C194.293 133.254 194.248 133.881 194.153 134.614C194.058 135.347 193.868 135.992 193.552 136.571C193.237 137.15 192.742 137.452 192.09 137.485C191.025 137.409 190.338 136.909 190.002 135.971C189.668 135.033 189.503 134.116 189.533 133.231V130.046C189.864 129.718 190.232 129.429 190.629 129.185C191.068 128.908 191.573 128.755 192.091 128.74ZM291.934 133.517V133.988C291.928 134.823 291.692 135.625 291.229 136.388C290.767 137.153 290.113 137.562 289.271 137.616C288.879 137.601 288.587 137.453 288.384 137.172C288.176 136.883 288.067 136.535 288.071 136.179C288.074 135.996 288.108 135.804 288.15 135.606C288.191 135.408 288.225 135.216 288.28 135.031L291.934 133.517ZM317.645 133.517V133.988C317.639 134.823 317.404 135.625 316.94 136.388C316.478 137.153 315.825 137.562 314.983 137.616C314.591 137.601 314.298 137.453 314.095 137.172C313.887 136.883 313.778 136.535 313.782 136.179C313.785 135.996 313.819 135.804 313.861 135.606C313.902 135.408 313.937 135.216 313.991 135.031L317.645 133.517ZM327.486 139.104H329C329.391 139.083 329.806 139.13 330.253 139.234C330.699 139.337 330.946 139.62 330.984 140.095C330.951 140.91 330.633 141.532 330.018 141.975C329.403 142.419 328.663 142.657 327.904 142.654C327.4 142.665 326.963 142.559 326.573 142.314C326.183 142.069 325.967 141.61 325.946 140.956C326.011 140.411 326.281 139.965 326.729 139.625C327.178 139.286 327.422 139.114 327.486 139.104Z" fill="black"/>
</svg>
