<svg width="400" height="200" viewBox="0 0 400 200" fill="none" xmlns="http://www.w3.org/2000/svg">
<path d="M34.0639 100.818H29.7047V116.619H21V73.3654H34.9289C39.3038 73.3654 42.683 74.4918 45.0664 76.7446C47.4499 78.9974 48.6371 82.2301 48.6281 86.4428C48.6281 92.1829 46.5397 96.2018 42.3631 98.4996L49.9797 116.206V116.625H40.5721L34.0639 100.818ZM29.7047 93.5458H34.6653C36.1785 93.6491 37.6452 92.9992 38.5852 91.8089C39.5174 90.4436 39.9756 88.8101 39.8895 87.1592C39.9076 82.8023 38.2247 80.6239 34.8411 80.6239H29.7047V93.5458ZM65.5779 117.2C61.2616 117.2 57.896 115.914 55.481 113.341C53.066 110.768 51.8585 107.085 51.8585 102.291V99.7499C51.8585 94.6812 52.9669 90.7704 55.1836 88.0175C57.4004 85.2646 60.579 83.8881 64.7196 83.8881C68.7746 83.8881 71.8136 85.179 73.8366 87.7607C75.8596 90.3423 76.8982 94.1721 76.9522 99.2498V103.372H60.2591C60.3763 105.778 60.9012 107.538 61.8338 108.651C62.7665 109.764 64.2015 110.32 66.1389 110.32C68.7975 110.386 71.3584 109.317 73.1811 107.38L76.4791 112.456C75.3161 113.986 73.7675 115.18 71.9916 115.916C69.9797 116.799 67.8021 117.242 65.605 117.213L65.5779 117.2ZM60.32 97.5197H68.7273V96.7155C68.783 95.1901 68.4554 93.6751 67.7744 92.309C67.1797 91.3088 66.1502 90.8087 64.6858 90.8087C63.4026 90.7036 62.1658 91.3142 61.4689 92.3969C60.8201 93.4557 60.4371 95.1633 60.32 97.5197ZM106.074 101.575C106.074 106.625 105.207 110.496 103.472 113.186C101.737 115.875 99.1578 117.227 95.7336 117.241C93.2353 117.3 90.8722 116.108 89.4349 114.064V129H81.068V84.4829H88.8469L89.178 87.4227C90.5898 85.1705 93.0829 83.8276 95.7404 83.8881C99.1646 83.8881 101.744 85.1362 103.479 87.6323C105.213 90.1283 106.099 93.958 106.135 99.1214V101.575H106.074ZM97.7003 99.4931C97.7003 96.3753 97.3579 94.1698 96.673 92.8767C96.0178 91.5993 94.6655 90.8341 93.233 90.9303C91.6564 90.8466 90.1783 91.6995 89.4619 93.1065V108.211C90.2137 109.604 91.7159 110.423 93.2939 110.3C94.7814 110.409 96.1731 109.558 96.7541 108.184C97.3984 106.774 97.7206 104.58 97.7206 101.602V99.4796L97.7003 99.4931ZM109.46 99.4931C109.46 94.6226 110.609 90.7929 112.907 88.004C115.204 85.215 118.383 83.8296 122.443 83.8476C126.543 83.8476 129.739 85.233 132.033 88.004C134.326 90.7749 135.475 94.6159 135.479 99.5269V101.554C135.479 106.443 134.342 110.273 132.066 113.044C129.791 115.814 126.603 117.191 122.503 117.173C118.385 117.173 115.182 115.792 112.893 113.03C110.604 110.268 109.46 106.438 109.46 101.541V99.5134V99.4931ZM117.894 101.608C117.894 107.385 119.428 110.273 122.497 110.273C125.326 110.273 126.851 107.862 127.072 103.041V99.4864C127.072 96.5397 126.666 94.3523 125.855 92.924C125.216 91.606 123.874 90.7745 122.409 90.7884C120.976 90.7932 119.675 91.6254 119.07 92.924C118.268 94.3478 117.867 96.5352 117.867 99.4864V101.608H117.894ZM155.667 92.5726L152.875 92.3361C150.577 92.3361 149.023 93.3453 148.212 95.3638V116.598H139.805V84.4829H147.732L147.976 87.9567C149.3 85.2533 151.132 83.9017 153.47 83.9017C154.261 83.8731 155.049 84.0042 155.788 84.2869L155.667 92.5726ZM170.075 76.5689V84.4829H174.38V90.7614H170.075V106.738C169.994 107.642 170.175 108.55 170.596 109.354C170.943 109.831 171.618 110.07 172.623 110.07C173.292 110.085 173.959 110.015 174.61 109.86L174.529 116.443C173.045 116.989 171.474 117.261 169.893 117.247C164.486 117.247 161.744 114.136 161.668 107.914V90.7614H157.958V84.4829H161.668V76.5689H170.075ZM191.175 101.399V116.605H182.443V73.3519H197.176C201.452 73.3519 204.863 74.6788 207.408 77.3326C209.954 79.9863 211.227 83.4308 211.227 87.666C211.227 91.9013 209.97 95.2466 207.456 97.7022C204.941 100.158 201.456 101.385 197 101.385H191.182L191.175 101.399ZM191.175 94.1203H197.176C198.647 94.2057 200.074 93.6011 201.035 92.4847C201.936 91.3944 202.387 89.8174 202.387 87.7539C202.48 85.9321 201.99 84.128 200.988 82.6041C200.154 81.3616 198.754 80.6185 197.257 80.6239H191.175V94.1405V94.1203ZM213.43 99.5269C213.43 94.6564 214.579 90.8267 216.877 88.0378C219.175 85.2488 222.353 83.8634 226.413 83.8814C230.513 83.8814 233.709 85.2668 236.003 88.0378C238.296 90.8087 239.445 94.6497 239.45 99.5607V101.588C239.45 106.477 238.312 110.306 236.037 113.077C233.761 115.848 230.574 117.225 226.474 117.207C222.355 117.207 219.152 115.826 216.863 113.064C214.574 110.302 213.43 106.472 213.43 101.575V99.5472V99.5269ZM221.864 101.642C221.864 107.418 223.398 110.306 226.467 110.306C229.296 110.306 230.821 107.896 231.042 103.075V99.5202C231.042 96.5735 230.637 94.3861 229.826 92.9578C229.186 91.6398 227.844 90.8083 226.379 90.8222C224.946 90.827 223.645 91.6591 223.04 92.9578C222.238 94.3816 221.837 96.569 221.837 99.5202V101.642H221.864ZM259.637 92.6064L256.845 92.3698C254.548 92.3698 252.993 93.3791 252.182 95.3976V116.632H243.748V84.4829H251.675L251.912 87.9567C253.237 85.2533 255.068 83.9017 257.406 83.9017C258.197 83.8731 258.985 84.0042 259.725 84.2869L259.637 92.6064ZM274.012 76.5689V84.4829H278.317V90.7614H274.012V106.738C273.931 107.642 274.111 108.55 274.532 109.354C274.879 109.831 275.555 110.07 276.56 110.07C277.228 110.085 277.896 110.015 278.546 109.86L278.472 116.443C276.988 116.989 275.417 117.261 273.836 117.247C268.429 117.247 265.688 114.136 265.611 107.914V90.7614H261.901V84.4829H265.611V76.5689H274.018H274.012ZM297.598 116.605C297.27 115.803 297.032 114.966 296.889 114.111C295.504 116.109 293.202 117.272 290.772 117.2C288.261 117.267 285.835 116.288 284.075 114.497C282.278 112.652 281.317 110.15 281.419 107.576C281.419 104.21 282.493 101.606 284.642 99.7635C286.792 97.9207 289.885 96.9813 293.922 96.9452H296.476V94.4041C296.476 92.9578 296.228 91.9373 295.733 91.3426C295.187 90.7256 294.386 90.3962 293.563 90.4505C291.464 90.4505 290.414 91.6782 290.414 94.1338H282.007C281.943 91.3024 283.172 88.596 285.345 86.7807C287.706 84.8044 290.716 83.7738 293.793 83.8881C297.317 83.8881 300.045 84.8028 301.978 86.632C303.91 88.4613 304.877 91.079 304.877 94.4852V109.604C304.917 112.375 305.314 114.542 306.066 116.105V116.612H297.598V116.605ZM292.638 110.604C293.466 110.63 294.287 110.437 295.017 110.043C295.607 109.722 296.107 109.257 296.47 108.691V102.007H294.442C293.171 101.937 291.935 102.432 291.063 103.359C290.203 104.377 289.763 105.684 289.833 107.015C289.842 109.417 290.777 110.617 292.638 110.617V110.604ZM318.725 116.605H310.29V71H318.725V116.619V116.605ZM324.463 112.327C324.423 111.078 324.914 109.87 325.814 109.002C326.765 108.112 328.034 107.642 329.335 107.698C330.628 107.654 331.887 108.117 332.843 108.989C333.773 109.845 334.283 111.064 334.242 112.327C334.291 113.595 333.773 114.818 332.829 115.666C331.87 116.515 330.623 116.967 329.342 116.93C328.058 116.974 326.807 116.515 325.855 115.652C324.935 114.801 324.43 113.593 324.469 112.341L324.463 112.327ZM339.649 76.1498C339.604 74.9531 340.057 73.7913 340.899 72.9396C342.805 71.2793 345.643 71.2793 347.549 72.9396C348.391 73.7913 348.843 74.9531 348.799 76.1498C348.867 77.825 348.014 79.4032 346.575 80.2631C345.135 81.1231 343.341 81.1271 341.898 80.2735C340.455 79.4199 339.595 77.8455 339.655 76.1701L339.649 76.1498ZM348.468 116.598H340.041V84.4829H348.475V116.619L348.468 116.598ZM352.794 99.4931C352.794 94.6226 353.942 90.7929 356.24 88.004C358.538 85.215 361.717 83.8296 365.776 83.8476C369.876 83.8476 373.073 85.233 375.366 88.004C377.66 90.7749 378.809 94.6159 378.813 99.5269V101.554C378.813 106.443 377.675 110.273 375.4 113.044C373.125 115.814 369.937 117.191 365.837 117.173C361.719 117.173 358.516 115.792 356.227 113.03C353.938 110.268 352.794 106.438 352.794 101.541V99.5134V99.4931ZM361.228 101.608C361.228 107.385 362.762 110.273 365.83 110.273C368.66 110.273 370.185 107.862 370.406 103.041V99.4864C370.406 96.5397 370 94.3523 369.189 92.924C368.549 91.606 367.208 90.7745 365.742 90.7884C364.31 90.7932 363.009 91.6254 362.404 92.924C361.602 94.3478 361.201 96.5352 361.201 99.4864V101.608H361.228Z" fill="black"/>
</svg>
