<svg width="400" height="200" viewBox="0 0 400 200" fill="none" xmlns="http://www.w3.org/2000/svg">
<path d="M65.615 126.523C64.2767 126.523 62.8467 126.394 61.325 126.138C59.8217 125.881 58.4283 125.514 57.145 125.037V121.297C60.0233 122.287 62.8558 122.782 65.6425 122.782C68.5208 122.782 70.6842 122.168 72.1325 120.94C73.5808 119.693 74.305 117.851 74.305 115.412C74.305 114.037 74.0758 112.882 73.6175 111.947C73.1592 111.012 72.4258 110.206 71.4175 109.527C70.4092 108.849 69.0342 108.207 67.2925 107.602L65.3675 106.942C62.4708 105.934 60.2708 104.541 58.7675 102.762C57.2642 100.984 56.5125 98.6925 56.5125 95.8875C56.5125 93.5775 57.0075 91.5975 57.9975 89.9475C58.9875 88.2792 60.4633 87.005 62.425 86.125C64.3867 85.2267 66.7792 84.7775 69.6025 84.7775C70.8675 84.7775 72.16 84.8692 73.48 85.0525C74.8183 85.2358 75.9733 85.4925 76.945 85.8225V89.5625C74.745 88.8658 72.3708 88.5175 69.8225 88.5175C63.8275 88.5175 60.83 90.8733 60.83 95.585C60.83 96.905 61.05 98.0142 61.49 98.9125C61.93 99.8108 62.6267 100.59 63.58 101.25C64.5333 101.91 65.835 102.533 67.485 103.12L69.41 103.78C72.4717 104.825 74.7725 106.255 76.3125 108.07C77.8525 109.867 78.6225 112.204 78.6225 115.082C78.6225 117.484 78.1092 119.547 77.0825 121.27C76.0742 122.975 74.5983 124.277 72.655 125.175C70.7117 126.073 68.365 126.523 65.615 126.523ZM103.334 112.525H87.0263C87.0813 115.147 87.4205 117.218 88.0438 118.74C88.6672 120.262 89.593 121.352 90.8213 122.012C92.0497 122.654 93.6447 122.975 95.6063 122.975C97.3663 122.975 99.4838 122.608 101.959 121.875V125.45C100.73 125.835 99.5755 126.11 98.4938 126.275C97.4122 126.44 96.303 126.523 95.1663 126.523C92.3247 126.523 89.9963 126.018 88.1813 125.01C86.3663 123.983 85.0005 122.333 84.0838 120.06C83.1855 117.787 82.7363 114.78 82.7363 111.04C82.7363 105.778 83.6713 101.91 85.5413 99.435C87.4113 96.9417 90.0147 95.695 93.3513 95.695C96.5963 95.695 99.0713 96.9233 100.776 99.38C102.481 101.837 103.334 105.751 103.334 111.122V112.525ZM93.3238 98.83C91.3622 98.83 89.8313 99.6275 88.7313 101.222C87.6497 102.799 87.0813 105.567 87.0263 109.527H99.2638C99.2272 106.814 98.9613 104.669 98.4663 103.092C97.9897 101.516 97.3205 100.416 96.4588 99.7925C95.6155 99.1508 94.5705 98.83 93.3238 98.83ZM108.605 126V81.56H112.785V126H108.605ZM138.89 112.525H122.583C122.638 115.147 122.977 117.218 123.6 118.74C124.224 120.262 125.15 121.352 126.378 122.012C127.606 122.654 129.201 122.975 131.163 122.975C132.923 122.975 135.04 122.608 137.515 121.875V125.45C136.287 125.835 135.132 126.11 134.05 126.275C132.969 126.44 131.86 126.523 130.723 126.523C127.881 126.523 125.553 126.018 123.738 125.01C121.923 123.983 120.557 122.333 119.64 120.06C118.742 117.787 118.293 114.78 118.293 111.04C118.293 105.778 119.228 101.91 121.098 99.435C122.968 96.9417 125.571 95.695 128.908 95.695C132.153 95.695 134.628 96.9233 136.333 99.38C138.038 101.837 138.89 105.751 138.89 111.122V112.525ZM128.88 98.83C126.919 98.83 125.388 99.6275 124.288 101.222C123.206 102.799 122.638 105.567 122.583 109.527H134.82C134.784 106.814 134.518 104.669 134.023 103.092C133.546 101.516 132.877 100.416 132.015 99.7925C131.172 99.1508 130.127 98.83 128.88 98.83ZM144.161 96.1625H147.681L148.011 99.49H148.286C149.295 98.2617 150.468 97.3267 151.806 96.685C153.145 96.025 154.611 95.695 156.206 95.695C158.681 95.695 160.634 96.4375 162.064 97.9225C163.494 99.3892 164.209 101.8 164.209 105.155V126H160.029V105.402C160.029 103.294 159.598 101.791 158.736 100.892C157.875 99.9758 156.646 99.5175 155.051 99.5175C153.823 99.5175 152.586 99.8383 151.339 100.48C150.111 101.122 149.111 102.112 148.341 103.45V126H144.161V96.1625ZM170.963 126V96.1625H175.143V126H170.963ZM173.053 89.7C172.118 89.7 171.385 89.4525 170.853 88.9575C170.34 88.4625 170.083 87.7842 170.083 86.9225C170.083 86.0608 170.34 85.3825 170.853 84.8875C171.385 84.3742 172.118 84.1175 173.053 84.1175C173.988 84.1175 174.712 84.3742 175.226 84.8875C175.739 85.3825 175.996 86.0608 175.996 86.9225C175.996 87.7842 175.739 88.4625 175.226 88.9575C174.712 89.4525 173.988 89.7 173.053 89.7ZM189.835 126.523C187.397 126.523 185.463 125.78 184.033 124.295C182.603 122.81 181.888 120.362 181.888 116.952V96.1625H186.068V116.787C186.068 118.914 186.489 120.436 187.333 121.352C188.194 122.251 189.395 122.7 190.935 122.7C192.108 122.7 193.309 122.379 194.538 121.737C195.784 121.096 196.774 120.115 197.508 118.795V96.1625H201.688V126H198.168L197.838 122.755H197.563C196.536 124.002 195.363 124.946 194.043 125.587C192.723 126.211 191.32 126.523 189.835 126.523ZM235.261 95.695C237.644 95.695 239.542 96.4467 240.953 97.95C242.383 99.435 243.098 101.882 243.098 105.292V126H238.918V105.457C238.918 101.497 237.323 99.5175 234.133 99.5175C233.052 99.5175 231.933 99.8292 230.778 100.452C229.623 101.057 228.661 102.038 227.891 103.395C227.946 103.945 227.973 104.522 227.973 105.127V126H223.876V105.457C223.876 103.331 223.463 101.809 222.638 100.892C221.813 99.9758 220.667 99.5175 219.201 99.5175C218.064 99.5175 216.9 99.8475 215.708 100.507C214.535 101.167 213.582 102.194 212.848 103.587V126H208.668V96.1625H212.188L212.518 99.5175H212.793C213.802 98.2342 214.957 97.2808 216.258 96.6575C217.56 96.0158 218.972 95.695 220.493 95.695C223.793 95.695 226.002 97.0975 227.121 99.9025C228.221 98.4542 229.477 97.3908 230.888 96.7125C232.318 96.0342 233.776 95.695 235.261 95.695ZM286.41 106.2V125.642C283.678 126.119 281.176 126.358 278.902 126.358C274.741 126.358 271.294 125.67 268.562 124.295C265.831 122.92 263.768 120.72 262.375 117.695C260.982 114.652 260.285 110.646 260.285 105.677C260.285 98.3075 261.779 92.9817 264.767 89.7C267.774 86.4183 272.165 84.7775 277.94 84.7775C280.635 84.7775 283.238 85.135 285.75 85.85V89.6175C283.293 88.8842 280.763 88.5175 278.16 88.5175C275.153 88.5175 272.669 89.0492 270.707 90.1125C268.764 91.1758 267.279 92.9725 266.252 95.5025C265.244 98.0142 264.74 101.424 264.74 105.732C264.74 109.949 265.244 113.295 266.252 115.77C267.279 118.227 268.792 119.987 270.79 121.05C272.807 122.095 275.41 122.617 278.6 122.617C279.92 122.617 281.185 122.535 282.395 122.37V106.2H286.41ZM293.102 96.1625H296.594L296.952 100.232H297.227C298.07 98.7842 299.143 97.6933 300.444 96.96C301.764 96.2267 303.204 95.86 304.762 95.86C305.184 95.86 305.743 95.9058 306.439 95.9975V99.985C305.999 99.9117 305.358 99.875 304.514 99.875C303.066 99.875 301.673 100.26 300.334 101.03C299.014 101.8 297.997 102.863 297.282 104.22V126H293.102V96.1625ZM310.343 126V96.1625H314.523V126H310.343ZM312.433 89.7C311.498 89.7 310.765 89.4525 310.233 88.9575C309.72 88.4625 309.463 87.7842 309.463 86.9225C309.463 86.0608 309.72 85.3825 310.233 84.8875C310.765 84.3742 311.498 84.1175 312.433 84.1175C313.368 84.1175 314.092 84.3742 314.606 84.8875C315.119 85.3825 315.376 86.0608 315.376 86.9225C315.376 87.7842 315.119 88.4625 314.606 88.9575C314.092 89.4525 313.368 89.7 312.433 89.7ZM330.177 126.523C328.271 126.523 326.557 126.046 325.035 125.093C323.532 124.121 322.331 122.535 321.432 120.335C320.534 118.117 320.085 115.229 320.085 111.672C320.085 106.264 321.212 102.258 323.467 99.655C325.741 97.0333 329.132 95.7225 333.642 95.7225C334.614 95.7225 335.696 95.7867 336.887 95.915V81.56H341.067V126H337.465L337.162 122.975H336.887C336.209 124.038 335.292 124.9 334.137 125.56C332.982 126.202 331.662 126.523 330.177 126.523ZM331.195 122.837C332.332 122.837 333.413 122.544 334.44 121.958C335.485 121.371 336.301 120.537 336.887 119.455V99.49C336.429 99.3983 335.861 99.325 335.182 99.27C334.522 99.1967 333.917 99.16 333.367 99.16C330.379 99.16 328.133 100.095 326.63 101.965C325.145 103.835 324.402 106.933 324.402 111.26C324.402 114.285 324.687 116.65 325.255 118.355C325.842 120.042 326.63 121.215 327.62 121.875C328.61 122.517 329.802 122.837 331.195 122.837Z" fill="black"/>
</svg>
