<svg width="400" height="200" viewBox="0 0 400 200" fill="none" xmlns="http://www.w3.org/2000/svg">
<path d="M122.615 126.523C121.277 126.523 119.847 126.394 118.325 126.138C116.822 125.881 115.428 125.514 114.145 125.037V121.297C117.023 122.287 119.856 122.782 122.643 122.782C125.521 122.782 127.684 122.168 129.133 120.94C130.581 119.693 131.305 117.851 131.305 115.412C131.305 114.037 131.076 112.882 130.618 111.947C130.159 111.012 129.426 110.206 128.418 109.527C127.409 108.849 126.034 108.207 124.293 107.602L122.368 106.942C119.471 105.934 117.271 104.541 115.768 102.762C114.264 100.984 113.513 98.6925 113.513 95.8875C113.513 93.5775 114.008 91.5975 114.998 89.9475C115.988 88.2792 117.463 87.005 119.425 86.125C121.387 85.2267 123.779 84.7775 126.603 84.7775C127.868 84.7775 129.16 84.8692 130.48 85.0525C131.818 85.2358 132.973 85.4925 133.945 85.8225V89.5625C131.745 88.8658 129.371 88.5175 126.823 88.5175C120.828 88.5175 117.83 90.8733 117.83 95.585C117.83 96.905 118.05 98.0142 118.49 98.9125C118.93 99.8108 119.627 100.59 120.58 101.25C121.533 101.91 122.835 102.533 124.485 103.12L126.41 103.78C129.472 104.825 131.773 106.255 133.313 108.07C134.853 109.867 135.623 112.204 135.623 115.082C135.623 117.484 135.109 119.547 134.083 121.27C133.074 122.975 131.598 124.277 129.655 125.175C127.712 126.073 125.365 126.523 122.615 126.523ZM160.334 112.525H144.026C144.081 115.147 144.42 117.218 145.044 118.74C145.667 120.262 146.593 121.352 147.821 122.012C149.05 122.654 150.645 122.975 152.606 122.975C154.366 122.975 156.484 122.608 158.959 121.875V125.45C157.73 125.835 156.575 126.11 155.494 126.275C154.412 126.44 153.303 126.523 152.166 126.523C149.325 126.523 146.996 126.018 145.181 125.01C143.366 123.983 142 122.333 141.084 120.06C140.185 117.787 139.736 114.78 139.736 111.04C139.736 105.778 140.671 101.91 142.541 99.435C144.411 96.9417 147.015 95.695 150.351 95.695C153.596 95.695 156.071 96.9233 157.776 99.38C159.481 101.837 160.334 105.751 160.334 111.122V112.525ZM150.324 98.83C148.362 98.83 146.831 99.6275 145.731 101.222C144.65 102.799 144.081 105.567 144.026 109.527H156.264C156.227 106.814 155.961 104.669 155.466 103.092C154.99 101.516 154.32 100.416 153.459 99.7925C152.615 99.1508 151.57 98.83 150.324 98.83ZM165.605 126V81.56H169.785V126H165.605ZM195.89 112.525H179.583C179.638 115.147 179.977 117.218 180.6 118.74C181.224 120.262 182.15 121.352 183.378 122.012C184.606 122.654 186.201 122.975 188.163 122.975C189.923 122.975 192.04 122.608 194.515 121.875V125.45C193.287 125.835 192.132 126.11 191.05 126.275C189.969 126.44 188.86 126.523 187.723 126.523C184.881 126.523 182.553 126.018 180.738 125.01C178.923 123.983 177.557 122.333 176.64 120.06C175.742 117.787 175.293 114.78 175.293 111.04C175.293 105.778 176.228 101.91 178.098 99.435C179.968 96.9417 182.571 95.695 185.908 95.695C189.153 95.695 191.628 96.9233 193.333 99.38C195.038 101.837 195.89 105.751 195.89 111.122V112.525ZM185.88 98.83C183.919 98.83 182.388 99.6275 181.288 101.222C180.206 102.799 179.638 105.567 179.583 109.527H191.82C191.784 106.814 191.518 104.669 191.023 103.092C190.546 101.516 189.877 100.416 189.015 99.7925C188.172 99.1508 187.127 98.83 185.88 98.83ZM201.161 96.1625H204.681L205.011 99.49H205.286C206.295 98.2617 207.468 97.3267 208.806 96.685C210.145 96.025 211.611 95.695 213.206 95.695C215.681 95.695 217.634 96.4375 219.064 97.9225C220.494 99.3892 221.209 101.8 221.209 105.155V126H217.029V105.402C217.029 103.294 216.598 101.791 215.736 100.892C214.875 99.9758 213.646 99.5175 212.051 99.5175C210.823 99.5175 209.586 99.8383 208.339 100.48C207.111 101.122 206.111 102.112 205.341 103.45V126H201.161V96.1625ZM237.588 126.523C230.218 126.523 226.533 121.389 226.533 111.122C226.533 105.751 227.477 101.837 229.366 99.38C231.272 96.9233 234.013 95.695 237.588 95.695C241.108 95.695 243.822 96.9325 245.728 99.4075C247.653 101.882 248.616 105.778 248.616 111.095C248.616 116.448 247.662 120.362 245.756 122.837C243.867 125.294 241.145 126.523 237.588 126.523ZM237.588 123.112C239.055 123.112 240.274 122.755 241.246 122.04C242.217 121.325 242.969 120.097 243.501 118.355C244.032 116.613 244.298 114.23 244.298 111.205C244.298 108.125 244.032 105.696 243.501 103.917C242.969 102.139 242.208 100.892 241.218 100.177C240.247 99.4625 239.037 99.105 237.588 99.105C236.122 99.105 234.893 99.4625 233.903 100.177C232.932 100.874 232.18 102.102 231.648 103.862C231.117 105.604 230.851 107.987 230.851 111.012C230.851 114.092 231.117 116.522 231.648 118.3C232.18 120.078 232.932 121.325 233.903 122.04C234.893 122.755 236.122 123.112 237.588 123.112ZM254.067 126V96.1625H258.247V126H254.067ZM256.157 89.7C255.222 89.7 254.488 89.4525 253.957 88.9575C253.443 88.4625 253.187 87.7842 253.187 86.9225C253.187 86.0608 253.443 85.3825 253.957 84.8875C254.488 84.3742 255.222 84.1175 256.157 84.1175C257.092 84.1175 257.816 84.3742 258.329 84.8875C258.843 85.3825 259.099 86.0608 259.099 86.9225C259.099 87.7842 258.843 88.4625 258.329 88.9575C257.816 89.4525 257.092 89.7 256.157 89.7ZM273.901 126.523C271.994 126.523 270.28 126.046 268.759 125.093C267.255 124.121 266.054 122.535 265.156 120.335C264.258 118.117 263.809 115.229 263.809 111.672C263.809 106.264 264.936 102.258 267.191 99.655C269.464 97.0333 272.856 95.7225 277.366 95.7225C278.338 95.7225 279.419 95.7867 280.611 95.915V81.56H284.791V126H281.189L280.886 122.975H280.611C279.933 124.038 279.016 124.9 277.861 125.56C276.706 126.202 275.386 126.523 273.901 126.523ZM274.919 122.837C276.055 122.837 277.137 122.544 278.164 121.958C279.209 121.371 280.024 120.537 280.611 119.455V99.49C280.153 99.3983 279.584 99.325 278.906 99.27C278.246 99.1967 277.641 99.16 277.091 99.16C274.103 99.16 271.857 100.095 270.354 101.965C268.869 103.835 268.126 106.933 268.126 111.26C268.126 114.285 268.41 116.65 268.979 118.355C269.565 120.042 270.354 121.215 271.344 121.875C272.334 122.517 273.525 122.837 274.919 122.837Z" fill="black"/>
</svg>
