<svg width="400" height="200" viewBox="0 0 400 200" fill="none" xmlns="http://www.w3.org/2000/svg">
<path fill-rule="evenodd" clip-rule="evenodd" d="M236.909 113.878C230.918 117.949 222.737 116.388 218.663 110.397C214.589 104.406 216.154 96.2217 222.145 92.1417C228.132 88.0708 236.317 89.6354 240.391 95.6263C244.468 101.614 242.906 109.801 236.909 113.878ZM245.039 92.4668C239.221 83.8937 227.549 81.6759 218.985 87.4997C210.415 93.3235 208.191 104.992 214.018 113.556C219.17 121.145 228.901 123.746 237.006 120.212L244.264 132L250.024 128.087L242.769 116.3C249.04 110.063 250.2 100.046 245.039 92.4668Z" fill="#070707"/>
<path d="M45 118.703C47.6977 120.161 51.8536 121.255 56.5199 121.255C66.7275 121.255 71.9042 116.37 71.9042 109.662C71.8313 104.485 69.0606 101.059 62.2799 98.7254C57.9053 97.2672 56.5199 96.3194 56.5199 94.6424C56.5199 92.8925 58.0511 91.7989 60.7488 91.7989C63.7381 91.7989 66.8733 92.9654 68.4773 93.7675L70.373 86.1847C68.1857 85.0911 64.5402 84.0703 60.3842 84.0703C51.562 84.0703 45.8749 89.1012 45.8749 95.809C45.802 99.9649 48.6455 103.975 56.0825 106.454C60.1655 107.766 61.2592 108.714 61.2592 110.537C61.2592 112.36 59.8739 113.453 56.5199 113.453C53.2389 113.453 49.0101 112.068 46.9686 110.829L45 118.703Z" fill="#070707"/>
<path d="M91.526 121.328C101.004 121.328 110.264 115.349 110.264 102.371C110.264 91.5799 102.973 84.0701 92.1093 84.0701C80.5893 84.0701 73.0066 91.4341 73.0066 102.954C73.0066 114.474 81.0268 121.328 91.4531 121.328H91.526ZM91.6718 113.38C87.0055 113.38 84.4536 108.787 84.4536 102.735C84.4536 97.4128 86.4951 92.0174 91.7447 92.0174C96.7756 92.0174 98.8171 97.4128 98.8171 102.662C98.8171 109.079 96.1194 113.38 91.7447 113.38H91.6718Z" fill="#070707"/>
<path d="M113.469 120.526H124.552V99.9647C124.552 98.9439 124.625 97.9232 124.916 97.1941C125.718 95.1525 127.541 93.0381 130.603 93.0381C134.614 93.0381 136.218 96.1733 136.218 100.767V120.526H147.3V99.4543C147.3 88.9551 141.832 84.0701 134.541 84.0701C128.562 84.0701 124.989 87.4969 123.531 89.83H123.312L122.802 84.8721H113.178C113.324 88.0802 113.469 91.7986 113.469 96.2462V120.526Z" fill="#070707"/>
<path d="M182.225 99.4543C182.225 91.0695 178.507 84.0701 166.622 84.0701C160.133 84.0701 155.248 85.8928 152.769 87.2781L154.811 94.3505C157.144 92.9652 161.008 91.7257 164.654 91.7257C170.122 91.7257 171.143 94.4234 171.143 96.3191V96.7566C158.529 96.7566 150.217 101.131 150.217 110.391C150.217 116.078 154.519 121.328 161.737 121.328C165.966 121.328 169.612 119.796 171.945 116.953H172.164L172.82 120.526H182.809C182.371 118.557 182.225 115.276 182.225 111.922V99.4543ZM171.507 107.547C171.507 108.204 171.434 108.86 171.289 109.443C170.559 111.703 168.226 113.526 165.529 113.526C163.05 113.526 161.154 112.141 161.154 109.297C161.154 105.068 165.674 103.683 171.507 103.683V107.547Z" fill="#070707"/>
<path d="M187.412 120.526H198.494V102.517C198.494 101.569 198.567 100.767 198.713 100.038C199.442 96.5378 202.213 94.4234 206.296 94.4234C207.535 94.4234 208.41 94.5692 209.285 94.7151V84.2888C208.483 84.143 207.973 84.0701 206.952 84.0701C203.452 84.0701 199.151 86.2574 197.328 91.507H197.036L196.599 84.8721H187.12C187.339 87.9343 187.412 91.3612 187.412 96.6108V120.526Z" fill="#070707"/>
<path d="M281.596 85.5222H275.18V107.104C275.18 108.343 274.961 109.51 274.597 110.385C273.43 113.301 270.441 116.291 266.139 116.291C260.379 116.291 258.265 111.697 258.265 104.989V85.5222H251.848V106.156C251.848 118.478 258.483 121.613 264.025 121.613C270.295 121.613 274.086 117.895 275.69 115.051H275.836L276.201 120.811H281.888C281.669 118.041 281.596 114.832 281.596 111.114V85.5222Z" fill="#070707"/>
<path d="M288.589 111.653C288.589 114.788 288.516 118.361 288.298 120.767H293.839L294.203 114.934H294.349C297.047 119.6 301.057 121.569 306.161 121.569C314.035 121.569 322.055 115.299 322.055 102.612C322.055 91.967 315.931 84.6759 307.182 84.6759C301.494 84.6759 297.411 87.1548 295.151 91.092H295.005V69H288.589V111.653ZM295.005 100.279C295.005 99.2581 295.151 98.3831 295.37 97.5811C296.609 92.769 300.692 89.7067 305.067 89.7067C311.921 89.7067 315.566 95.7583 315.566 102.904C315.566 110.997 311.629 116.465 304.848 116.465C300.255 116.465 296.464 113.403 295.224 108.955C295.078 108.226 295.005 107.424 295.005 106.622V100.279Z" fill="#070707"/>
<path d="M354.799 104.228C354.944 103.499 355.017 102.551 355.017 101.238C355.017 94.7494 352.028 84.6147 340.508 84.6147C330.228 84.6147 323.884 92.9995 323.884 103.645C323.884 114.217 330.446 121.435 341.237 121.435C346.851 121.435 350.788 120.195 353.049 119.175L351.882 114.581C349.549 115.602 346.705 116.404 342.112 116.404C335.696 116.404 330.228 112.831 330.082 104.228H354.799ZM330.155 99.6344C330.665 95.1869 333.436 89.2081 339.998 89.2081C347.143 89.2081 348.893 95.5514 348.82 99.6344H330.155Z" fill="#070707"/>
</svg>
