<svg width="400" height="200" viewBox="0 0 400 200" fill="none" xmlns="http://www.w3.org/2000/svg">
<path d="M207.999 71.8043C215.156 71.8053 222.153 73.9286 228.103 77.9057C234.054 81.8827 238.692 87.535 241.43 94.1477C244.169 100.76 244.885 108.037 243.489 115.057C242.092 122.076 238.645 128.524 233.584 133.586C228.523 138.647 222.075 142.093 215.055 143.49C208.036 144.886 200.759 144.17 194.146 141.432C187.534 138.693 181.881 134.055 177.904 128.104C173.927 122.154 171.804 115.157 171.803 108C171.8 103.246 172.735 98.538 174.553 94.1454C176.371 89.7527 179.037 85.7615 182.399 82.3998C185.76 79.0382 189.751 76.3722 194.144 74.5541C198.537 72.7361 203.245 71.8017 207.999 71.8043V71.8043ZM207.999 68C200.088 68.0003 192.354 70.3464 185.776 74.7418C179.198 79.1372 174.072 85.3845 171.044 92.6935C168.017 100.003 167.225 108.045 168.769 115.804C170.312 123.564 174.122 130.691 179.716 136.285C185.31 141.879 192.438 145.688 200.197 147.231C207.956 148.775 215.999 147.983 223.308 144.955C230.617 141.928 236.864 136.801 241.259 130.223C245.654 123.645 248 115.911 248 108C248.001 102.747 246.966 97.545 244.956 92.6916C242.946 87.8382 240 83.4283 236.285 79.7138C232.571 75.9993 228.161 73.053 223.307 71.0431C218.454 69.0332 213.252 67.9992 207.999 68V68Z" fill="black"/>
<path d="M231.043 106.287L234.086 101.905L230.848 93.905L225.514 92.9526L223.231 90.476L222.285 85.1385L214.095 81.7146L209.713 84.7581H206.476L202.094 81.7146L193.904 85.1385L192.951 90.4722L190.475 92.7548L185.137 93.7147L181.713 101.715L184.757 106.097V109.52L181.713 113.906L185.137 122.096L190.471 123.049L192.754 125.331L193.706 130.665L201.706 134.089L206.088 131.045H209.512L213.893 134.089L222.084 130.85L223.036 125.516L225.319 123.234L230.652 122.281L234.076 114.281L231.033 109.9L231.043 106.287ZM229.71 114.668L227.999 118.858L223.618 119.618L219.433 123.618L218.672 127.999L214.488 129.714L210.857 127.24H205.142L201.523 129.716L197.338 128.002L196.577 123.621L192.392 119.436L188.011 118.675L186.296 114.49L188.773 110.871V105.143L186.279 101.524L187.993 97.339L192.374 96.5781L196.374 92.5785L197.135 88.1972L201.32 86.4827L204.939 88.9593H210.653L214.272 86.4827L218.457 88.1972L219.218 92.5785L223.217 96.5781L227.599 97.339L229.313 101.524L226.858 105.143V110.857L229.71 114.668Z" fill="black"/>
<path d="M217.142 98.0961L214.665 100.953C215.833 101.939 216.776 103.162 217.432 104.542C218.088 105.922 218.442 107.426 218.469 108.954C218.474 110.33 218.205 111.695 217.68 112.967C217.155 114.24 216.384 115.397 215.41 116.37C214.437 117.344 213.28 118.115 212.007 118.64C210.735 119.165 209.37 119.433 207.994 119.429H207.422L214.85 107.81L206.469 105.908L212.76 94.8548L209.522 92.9526L200.759 108.382L208.76 110.096L203.616 118.287C201.848 117.452 200.353 116.131 199.308 114.478C198.262 112.826 197.709 110.909 197.712 108.954C197.74 106.18 198.829 103.522 200.755 101.525L198.092 98.862C196.431 100.523 195.205 102.568 194.523 104.816C193.841 107.064 193.724 109.445 194.182 111.749C194.64 114.053 195.66 116.208 197.15 118.024C198.64 119.84 200.556 121.26 202.726 122.159C204.896 123.058 207.255 123.407 209.593 123.177C211.931 122.946 214.175 122.142 216.128 120.837C218.081 119.531 219.682 117.764 220.789 115.692C221.895 113.62 222.474 111.307 222.473 108.957C222.179 104.781 220.267 100.883 217.142 98.0961Z" fill="black"/>
</svg>
