<svg width="95" height="95" viewBox="0 0 95 95" fill="none" xmlns="http://www.w3.org/2000/svg">
<path d="M46.6 12C27 12 11 27.9 11 47.6C11 53.4 12.4 58.8 14.8 63.6L24.1 54.3C21.9 46.4 23.9 37.6 30.1 31.4C36.4 25.1 45.4 23.1 53.4 25.5L39.5 39.4L55.2 55.1L69.1 41.2C71.5 49.2 69.5 58.2 63.2 64.5C56.9 70.8 47.9 72.8 39.9 70.4L30.8 79.5C35.5 81.9 40.9 83.2 46.6 83.2C66.2 83.2 82.2 67.3 82.2 47.6C82.2 28 66.2 12 46.6 12Z" stroke="black" stroke-width="3" stroke-miterlimit="10" stroke-linecap="round" stroke-linejoin="round"/>
</svg>
