<svg width="400" height="200" viewBox="0 0 400 200" fill="none" xmlns="http://www.w3.org/2000/svg">
<path d="M163.387 86.4501C163.383 85.8528 163.377 85.2558 163.36 84.6578C163.325 83.357 163.248 82.0444 163.017 80.7575C162.783 79.4506 162.399 78.2354 161.795 77.0482C161.201 75.8823 160.426 74.8154 159.501 73.8902C158.576 72.965 157.509 72.1895 156.342 71.5959C155.156 70.9922 153.941 70.6088 152.635 70.3742C151.347 70.1423 150.035 70.0659 148.733 70.0307C148.135 70.0145 147.538 70.0077 146.941 70.004C146.232 70 145.522 70 144.813 70H129.091H122.578C121.868 70 121.16 70 120.451 70.0041C119.853 70.0078 119.255 70.0146 118.658 70.0308C118.333 70.0396 118.007 70.051 117.68 70.0667C116.702 70.1139 115.721 70.2004 114.756 70.3743C113.777 70.5503 112.848 70.8099 111.945 71.1834C111.644 71.3078 111.345 71.445 111.049 71.5959C110.174 72.0411 109.355 72.5886 108.61 73.2248C108.362 73.4369 108.122 73.6588 107.89 73.8901C106.965 74.8153 106.189 75.8822 105.596 77.0481C104.992 78.2353 104.609 79.4505 104.374 80.7574C104.143 82.0443 104.066 83.3569 104.031 84.6577C104.015 85.2557 104.008 85.8527 104.004 86.45C103.999 87.1594 104 87.8689 104 88.5781V98.26V110.812C104 111.522 103.999 112.231 104.004 112.941C104.008 113.538 104.015 114.135 104.031 114.732C104.066 116.034 104.143 117.347 104.374 118.633C104.609 119.94 104.992 121.156 105.596 122.343C106.189 123.509 106.965 124.576 107.89 125.5C108.815 126.426 109.882 127.201 111.049 127.795C112.235 128.399 113.45 128.782 114.756 129.017C116.043 129.248 117.357 129.325 118.658 129.36C119.255 129.376 119.853 129.383 120.451 129.386C121.16 129.392 121.869 129.391 122.578 129.391H144.813C145.522 129.391 146.232 129.392 146.941 129.386C147.538 129.383 148.135 129.376 148.733 129.36C150.035 129.325 151.347 129.248 152.635 129.017C153.941 128.782 155.156 128.399 156.342 127.795C157.509 127.201 158.576 126.426 159.501 125.5C160.426 124.575 161.201 123.509 161.795 122.343C162.399 121.156 162.783 119.94 163.017 118.633C163.248 117.347 163.325 116.034 163.36 114.732C163.376 114.135 163.383 113.538 163.387 112.941C163.391 112.231 163.391 111.522 163.391 110.812V88.5781C163.391 87.8689 163.391 87.1594 163.387 86.4501V86.4501Z" fill="black"/>
<path d="M151.061 106.661C151.059 106.659 151.058 106.658 151.056 106.656C151.122 106.432 151.19 106.21 151.247 105.981C153.712 96.16 147.696 84.549 137.516 78.4355C141.977 84.4834 143.95 91.8088 142.197 98.215C142.041 98.7864 141.853 99.3348 141.645 99.8678C141.42 99.7197 141.136 99.5516 140.754 99.3413C140.754 99.3413 130.627 93.0886 119.652 82.0291C119.364 81.7388 125.504 90.8061 132.473 98.169C129.19 96.3263 120.04 89.6686 114.247 84.3667C114.959 85.5536 115.805 86.6965 116.736 87.7968C121.573 93.9317 127.882 101.501 135.44 107.314C130.129 110.564 122.626 110.816 115.155 107.317C113.307 106.451 111.57 105.406 109.961 104.219C113.124 109.278 117.995 113.642 123.923 116.19C130.992 119.228 138.022 119.022 143.258 116.24L143.254 116.246C143.278 116.231 143.309 116.214 143.333 116.199C143.548 116.083 143.762 115.965 143.97 115.841C146.486 114.535 151.455 113.211 154.122 118.4C154.775 119.67 156.163 112.94 151.061 106.661V106.661Z" fill="white"/>
<path d="M185.931 108.542C186.395 112.663 190.324 115.364 195.782 115.364C200.967 115.364 204.706 112.663 204.706 108.925C204.706 105.705 202.441 103.739 197.228 102.43L192.18 101.147C184.921 99.3458 181.646 96.0707 181.646 90.6679C181.646 84.0094 187.459 79.397 195.728 79.397C203.75 79.397 209.454 84.0362 209.645 90.7227H204.324C203.914 86.6292 200.585 84.1178 195.591 84.1178C190.651 84.1178 187.213 86.656 187.213 90.3671C187.213 93.2597 189.342 94.9795 194.582 96.3168L198.784 97.4081C206.916 99.4007 210.246 102.566 210.246 108.27C210.246 115.529 204.487 120.086 195.318 120.086C186.804 120.086 180.991 115.556 180.554 108.543H185.931V108.542ZM244.049 119.431H238.7L232.45 97.654H232.341L226.119 119.431H220.771L212.857 90.9127H218.041L223.554 113.809H223.663L229.885 90.9127H234.906L241.183 113.809H241.293L246.805 90.9127H251.935L244.049 119.431ZM255.389 83.2444C255.389 81.5259 256.809 80.1338 258.528 80.1338C260.274 80.1338 261.693 81.5259 261.693 83.2444C261.693 84.9641 260.274 86.3831 258.528 86.3831C256.809 86.3831 255.389 84.9642 255.389 83.2444ZM255.935 90.9127H261.147V119.431H255.935V90.9127ZM295.186 95.1158V90.9126H289.673V84.0909H284.488V90.9126H280.258H274.524V88.4024C274.551 85.8642 275.534 84.7997 277.881 84.7997C278.645 84.7997 279.409 84.8825 280.037 84.9909V80.8974C279.109 80.761 278.263 80.6794 277.281 80.6794C271.713 80.6794 269.366 82.9996 269.366 88.3208V90.9126H265.382V95.1158H269.366V119.431H274.551V95.1158H280.258H284.488V111.954C284.488 117.466 286.589 119.594 292.047 119.594C293.22 119.594 294.558 119.512 295.158 119.376V115.119C294.803 115.174 293.766 115.256 293.193 115.256C290.765 115.256 289.673 114.11 289.673 111.545V95.1158H295.186Z" fill="black"/>
</svg>
