<svg width="400" height="200" viewBox="0 0 400 200" fill="none" xmlns="http://www.w3.org/2000/svg">
<path d="M250 50H150V150H250V50Z" fill="black"/>
<path d="M196.991 131.25H159.491V137.5H196.991V131.25Z" fill="white"/>
<path d="M171.991 71.5277H159.491V63.1943H193.75V71.5277H181.019V104.63H171.991V71.5277Z" fill="white"/>
<path d="M194.213 84.0275C194.213 72.222 203.009 62.4998 215.741 62.4998C223.611 62.4998 228.241 65.0461 232.176 68.9812L226.389 75.6942C223.148 72.6849 219.908 71.0646 215.741 71.0646C208.796 71.0646 203.704 76.8516 203.704 84.0275V83.7961C203.704 90.972 208.565 96.759 215.741 96.759C220.371 96.759 223.38 94.9072 226.621 91.8979L232.408 97.6849C228.241 102.315 223.38 105.092 215.509 105.092C203.241 105.324 194.213 95.8331 194.213 84.0275Z" fill="white"/>
</svg>
