<svg width="393" height="200" viewBox="0 0 393 200" fill="none" xmlns="http://www.w3.org/2000/svg">
<path d="M115.745 128H109.327V94.2427H97.7788V88.7373H127.293V94.2427H115.745V128ZM145.635 128.537C141.016 128.537 137.4 127.194 134.786 124.509C132.19 121.805 130.892 118.09 130.892 113.364C130.892 108.512 132.1 104.698 134.517 101.923C136.934 99.1483 140.255 97.7607 144.48 97.7607C148.401 97.7607 151.499 98.9513 153.772 101.333C156.046 103.714 157.183 106.99 157.183 111.162V114.572H137.391C137.48 117.455 138.259 119.675 139.727 121.232C141.195 122.772 143.263 123.542 145.931 123.542C147.685 123.542 149.314 123.381 150.818 123.059C152.34 122.718 153.969 122.163 155.706 121.394V126.523C154.166 127.257 152.609 127.776 151.033 128.081C149.458 128.385 147.658 128.537 145.635 128.537ZM144.48 102.541C142.475 102.541 140.864 103.177 139.646 104.448C138.447 105.719 137.731 107.572 137.498 110.007H150.979C150.944 107.554 150.353 105.701 149.207 104.448C148.061 103.177 146.486 102.541 144.48 102.541ZM184.307 119.541C184.307 122.441 183.251 124.67 181.138 126.228C179.026 127.767 176 128.537 172.061 128.537C168.104 128.537 164.926 127.937 162.527 126.738V121.286C166.019 122.897 169.268 123.703 172.276 123.703C176.161 123.703 178.104 122.53 178.104 120.185C178.104 119.433 177.889 118.806 177.459 118.305C177.029 117.804 176.322 117.285 175.337 116.748C174.353 116.21 172.983 115.602 171.229 114.921C167.809 113.597 165.49 112.272 164.273 110.947C163.073 109.622 162.474 107.903 162.474 105.791C162.474 103.248 163.494 101.279 165.535 99.8823C167.594 98.4679 170.387 97.7607 173.914 97.7607C177.405 97.7607 180.708 98.4679 183.824 99.8823L181.783 104.636C178.578 103.311 175.883 102.648 173.699 102.648C170.369 102.648 168.704 103.597 168.704 105.495C168.704 106.426 169.134 107.214 169.993 107.858C170.87 108.503 172.768 109.389 175.687 110.517C178.139 111.466 179.921 112.334 181.031 113.122C182.141 113.91 182.964 114.823 183.501 115.861C184.039 116.882 184.307 118.108 184.307 119.541ZM202.22 123.435C203.759 123.435 205.299 123.193 206.839 122.709V127.463C206.141 127.767 205.236 128.018 204.126 128.215C203.034 128.43 201.897 128.537 200.716 128.537C194.736 128.537 191.746 125.386 191.746 119.084V103.078H187.691V100.285L192.042 97.9756L194.19 91.6914H198.084V98.2979H206.543V103.078H198.084V118.977C198.084 120.498 198.46 121.626 199.212 122.36C199.982 123.076 200.984 123.435 202.22 123.435ZM246.182 128H238.313L219.004 96.7134H218.79L218.924 98.459C219.174 101.789 219.3 104.833 219.3 107.59V128H213.472V88.7373H221.26L240.516 119.863H240.677C240.641 119.451 240.569 117.956 240.462 115.378C240.354 112.782 240.301 110.759 240.301 109.309V88.7373H246.182V128ZM272.608 106.704H287.056V126.416C284.693 127.185 282.419 127.731 280.235 128.054C278.069 128.376 275.723 128.537 273.199 128.537C267.255 128.537 262.671 126.783 259.449 123.273C256.226 119.746 254.615 114.778 254.615 108.369C254.615 102.049 256.432 97.1073 260.066 93.5444C263.701 89.9637 268.705 88.1733 275.079 88.1733C279.179 88.1733 283.064 88.9611 286.734 90.5366L284.478 95.8809C281.291 94.4128 278.104 93.6787 274.917 93.6787C270.728 93.6787 267.416 94.9946 264.981 97.6265C262.546 100.258 261.329 103.857 261.329 108.422C261.329 113.221 262.421 116.873 264.605 119.379C266.807 121.868 269.967 123.112 274.085 123.112C276.162 123.112 278.382 122.853 280.745 122.333V112.209H272.608V106.704Z" fill="black"/>
</svg>
