<svg width="400" height="200" viewBox="0 0 400 200" fill="none" xmlns="http://www.w3.org/2000/svg">
<path fill-rule="evenodd" clip-rule="evenodd" d="M261.203 114.519C258.146 115.765 255.733 120.069 252.063 122.516C251.836 122.668 251.608 122.743 251.456 122.743C251.153 122.743 250.774 122.44 250.774 121.075C250.774 116.372 252.291 114.097 253.58 110.759C258.055 99.1543 265.716 89.218 272.542 78.3713C273.073 77.5369 273.377 76.6269 273.377 75.6407C273.377 74.8065 273.073 74.1237 272.694 73.2895C272.391 72.6067 271.025 72 269.508 72C268.674 72 267.916 72.0759 266.93 72.0759C263.365 72.0759 262.606 77.3095 261.772 78.6747C256.083 88.3077 249.56 100.216 246.223 108.635C245.491 110.523 244.7 112.41 244.099 114.347C240.801 115.302 238.331 119.94 234.466 122.516C234.239 122.668 234.011 122.743 233.859 122.743C233.556 122.743 233.177 122.44 233.177 121.075C233.177 116.372 234.693 114.097 235.983 110.759C240.458 99.1543 248.119 89.218 254.945 78.3713C255.476 77.5369 255.78 76.6269 255.78 75.6407C255.78 74.8065 255.476 74.1237 255.097 73.2895C254.794 72.6067 253.428 72 251.911 72C251.077 72 250.319 72.0759 249.333 72.0759C245.768 72.0759 245.009 77.3095 244.175 78.6747C238.486 88.3077 231.963 100.216 228.625 108.635C228.36 109.32 228.087 110.004 227.818 110.691C227.732 110.737 227.647 110.785 227.564 110.835C223.695 113.111 220.434 117.131 215.731 119.861C214.821 120.392 212.014 122.364 209.739 122.364C209.208 122.364 208.753 122.213 208.298 121.985C207.615 121.682 206.932 120.24 206.932 119.785C206.932 119.406 207.008 119.33 207.767 118.875C214.442 114.855 219.903 109.09 224.606 103.326C226.35 101.202 228.625 97.0304 228.625 93.9964C228.625 92.0243 227.943 89.749 225.591 88.9144C223.923 88.3077 222.026 88.0043 220.51 88.0043C216.49 88.0043 213.531 89.8247 211.863 91.5694C210.164 93.3828 208.521 95.245 206.994 97.1729C205.399 95.7957 203.149 95.2101 201.016 95.2101C198.513 95.2101 193.811 98.3199 191.383 100.14C191.004 100.444 190.777 100.595 190.625 100.595C190.549 100.595 190.473 100.52 190.473 100.368C190.473 100.292 190.625 99.6093 190.625 98.3956C190.625 97.3338 190.397 95.9686 189.411 94.2998C189.184 93.9205 187.818 93.0861 186.15 93.0861C184.102 93.0861 182.206 94.0723 182.206 95.1342C182.206 95.8927 182.888 96.196 182.888 96.8786C182.888 97.2579 182.585 99.0023 182.13 100.671C180.84 105.526 179.247 110.304 177.579 115.083C176.668 117.737 173.634 120.089 173.634 122.971C173.634 123.881 174.241 125.095 175.076 126.005C176.441 127.522 177.275 128.053 178.489 128.053C179.02 128.053 179.627 127.901 180.158 127.446C181.295 126.46 181.902 125.474 182.206 124.109C184.177 115.158 189.866 109.09 196.162 105.071C198.286 103.705 201.168 102.264 201.547 102.264C201.936 102.264 202.544 102.444 203.157 102.618C201.397 105.489 199.971 108.516 199.044 111.745C198.741 112.807 198.589 113.793 198.589 114.855C198.589 116.6 198.968 118.42 199.575 120.165C200.41 122.592 201.775 124.716 203.671 125.702C207.16 127.522 209.663 128.508 211.939 128.508C213.228 128.508 214.214 128.281 215.276 127.674C220.261 124.853 223.318 122.713 225.525 120.812C225.585 122.74 225.965 123.807 227.336 125.247C228.701 126.688 230.825 127.977 233.632 128.584C234.087 128.66 234.542 128.735 234.997 128.735C238.208 128.735 241.298 126.126 243.681 123.539C243.957 124.103 244.358 124.642 244.933 125.247C246.299 126.688 248.422 127.977 251.229 128.584C251.684 128.66 252.139 128.735 252.594 128.735C256.355 128.735 259.951 125.154 262.438 122.223C263.267 123.938 265.583 125.633 268.371 126.991C269.129 127.37 270.039 127.598 270.874 127.598C274.135 127.598 276.487 124.943 278.307 122.971C283.01 117.813 285.589 111.442 287.561 103.402C287.712 102.795 287.94 102.567 288.243 102.567C289.002 102.567 289.988 102.567 291.05 102.416C293.098 102.112 294.691 101.43 296.587 101.126C297.725 100.899 297.573 100.52 298.635 100.14C299.393 99.8369 300 99.5334 300 98.7749C300 97.4856 297.649 96.1201 294.084 96.1201C291.277 96.1201 289.609 96.3476 288.471 96.3476C286.726 96.3476 286.271 95.8168 285.134 92.8587C285.134 92.8587 286.271 95.8168 285.134 92.8587C284.906 92.252 284.679 91.9484 283.996 91.3417C282.403 89.9765 280.431 89.5213 278.838 89.5213C275.046 89.5213 271.784 93.3897 269.508 96.6512C268.978 97.4097 268.219 98.0164 267.688 98.8508C264.564 103.537 261.572 108.823 261.203 114.519ZM164.229 88.6869C166.125 88.6869 167.187 88.5351 167.415 88.5351C167.642 88.5351 167.794 88.611 167.794 88.8387C167.794 88.9903 167.718 89.218 167.187 90.3557C162.56 100.292 159.375 110.38 156.568 121.53C156.492 121.833 156.265 122.971 156.265 124.109C156.265 125.171 156.568 126.308 157.63 126.915C159.678 128.129 161.347 128.66 162.485 128.66C164.153 128.66 164.988 127.598 164.988 125.853C164.988 124.336 165.064 122.743 165.291 121.53C167.415 110.38 170.6 101.657 175.531 92.5553C177.882 88.2318 178.185 88.0043 178.185 87.6251C178.185 87.4733 178.11 87.2458 177.958 87.0181C180.992 86.3358 184.633 85.8804 187.97 85.8804C188.349 85.8804 189.866 86.4114 190.094 86.6389C190.625 87.1699 191.156 87.701 192.066 87.701C192.825 87.701 194.114 87.1699 194.569 86.8666C195.631 86.1081 196.162 85.2737 196.162 83.9085C196.162 82.619 191.383 79.4332 188.046 79.4332C183.95 79.4332 180.233 79.9642 176.744 80.6471C175.227 80.9502 169.766 81.7846 165.822 81.7846C162.029 81.7846 162.257 81.2538 160.664 81.2538C159.754 81.2538 159.299 81.7087 158.92 82.0879C158.54 82.4672 158.313 83.9842 158.313 85.3496C158.313 86.0322 158.313 86.5632 158.692 87.0184C159.83 88.3836 162.03 88.6869 164.229 88.6869C162.03 88.6869 164.229 88.6869 164.229 88.6869ZM220.434 94.8306C220.434 95.5134 220.206 95.9686 219.296 97.4097C218.386 98.851 218.765 98.851 217.627 100.368C215.428 103.326 212.697 106.284 209.132 109.546C208.146 110.456 207.994 110.456 207.843 110.456C207.767 110.456 207.615 110.38 207.615 110.228C207.615 110.001 207.691 109.697 208.449 108.105C210.801 103.174 213.683 99.9126 216.869 96.7271C218.613 94.9824 219.675 94.3757 220.055 94.3757C220.282 94.3757 220.434 94.4516 220.434 94.8306C220.434 94.4516 220.434 94.8306 220.434 94.8306ZM278.762 96.803C278.838 96.803 278.914 96.8786 278.99 97.0304C279.066 97.2579 279.217 97.4853 279.597 97.7889C279.9 98.0164 279.9 99.0784 279.9 99.9126C279.9 107.27 275.728 113.338 271.632 119.482C270.722 120.847 270.191 121.075 269.736 121.075C269.357 121.075 268.75 120.089 268.522 119.482C268.219 118.648 268.143 117.662 268.143 117.282C268.143 111.366 273.756 102.567 277.473 97.713C278.08 96.8786 278.535 96.803 278.762 96.803C278.535 96.803 278.762 96.803 278.762 96.803Z" fill="black"/>
<path d="M141.899 80.3798H105.986C102.68 80.3798 100 83.0597 100 86.3654V122.279C100 125.585 102.68 128.265 105.986 128.265H141.899C145.205 128.265 147.885 125.585 147.885 122.279V86.3654C147.885 83.0597 145.205 80.3798 141.899 80.3798Z" fill="url(#paint0_linear)"/>
<path d="M138.787 86.6049H129.928C128.341 86.6049 127.055 87.8912 127.055 89.478V104.681C127.055 106.268 128.341 107.555 129.928 107.555H138.787C140.374 107.555 141.66 106.268 141.66 104.681V89.478C141.66 87.8912 140.374 86.6049 138.787 86.6049Z" fill="white"/>
<path d="M117.957 86.6049H109.098C107.511 86.6049 106.225 87.8912 106.225 89.478V116.653C106.225 118.239 107.511 119.526 109.098 119.526H117.957C119.544 119.526 120.83 118.239 120.83 116.653V89.478C120.83 87.8912 119.544 86.6049 117.957 86.6049Z" fill="white"/>
<defs>
<linearGradient id="paint0_linear" x1="123.942" y1="80.3798" x2="123.942" y2="128.265" gradientUnits="userSpaceOnUse">
<stop/>
<stop offset="1"/>
</linearGradient>
</defs>
</svg>
