<svg width="400" height="200" viewBox="0 0 400 200" fill="none" xmlns="http://www.w3.org/2000/svg">
<path d="M86.9977 70.5128H71.6166V118.042H65.3811V70.5128H50V64.8315H86.8591V70.5128H86.9977Z" fill="black"/>
<path d="M116.513 80.0739L99.0532 124.139C95.8662 132.037 91.5705 135.917 85.8892 135.917C84.365 135.917 82.9793 135.778 81.8708 135.501V130.097C83.1179 130.513 84.365 130.79 85.4735 130.79C88.522 130.79 90.8777 128.988 92.4019 125.247L95.4504 118.042L80.6237 80.0739H87.4135L97.6675 109.312C97.8061 109.727 98.0832 110.697 98.4989 112.222H98.7761C98.9147 111.667 99.1918 110.697 99.4689 109.45L110.277 80.0739H116.513ZM126.767 112.637H126.628V135.64H120.531V80.2125H126.628V86.8637H126.767C129.815 81.8753 134.111 79.2425 139.931 79.2425C144.781 79.2425 148.661 80.9053 151.432 84.3695C154.203 87.8337 155.589 92.2679 155.589 98.0878C155.589 104.462 154.065 109.589 151.016 113.33C147.968 117.072 143.672 119.012 138.268 119.012C133.28 119.012 129.538 116.933 126.767 112.637V112.637ZM126.628 97.2564V102.522C126.628 105.709 127.598 108.342 129.677 110.559C131.755 112.776 134.25 113.885 137.437 113.885C141.178 113.885 143.949 112.499 146.166 109.589C148.383 106.679 149.353 102.799 149.353 97.8106C149.353 93.515 148.383 90.3279 146.444 87.8337C144.504 85.4781 141.871 84.2309 138.545 84.2309C134.942 84.2309 132.171 85.4781 129.954 87.9723C127.737 90.4665 126.628 93.515 126.628 97.2564V97.2564ZM193.141 100.582H166.259C166.397 104.878 167.506 108.065 169.723 110.42C171.94 112.776 174.85 113.885 178.73 113.885C183.026 113.885 186.905 112.499 190.508 109.589V115.27C187.183 117.764 182.748 118.873 177.206 118.873C171.801 118.873 167.644 117.21 164.596 113.746C161.547 110.282 160.023 105.432 160.023 99.1963C160.023 93.2379 161.686 88.5266 165.012 84.7852C168.337 81.0439 172.494 79.2425 177.483 79.2425C182.471 79.2425 186.351 80.9053 188.984 84.0924C191.755 87.2794 193.002 91.7136 193.002 97.5335V100.582H193.141ZM186.905 95.455C186.905 91.9908 186.074 89.2194 184.411 87.2794C182.748 85.3395 180.393 84.3695 177.483 84.3695C174.573 84.3695 172.217 85.3395 170.139 87.418C168.199 89.4965 166.952 92.1293 166.397 95.455H186.905ZM196.467 116.24V112.083C200.347 114.577 204.088 115.686 208.106 115.686C212.263 115.686 215.45 114.855 217.529 113.053C219.746 111.39 220.716 108.896 220.716 105.848C220.716 103.076 220.023 100.998 218.499 99.3349C217.113 97.6721 213.926 95.455 209.076 92.6836C203.672 89.4965 200.208 86.8637 198.822 84.7852C197.437 82.7067 196.605 80.2125 196.605 77.4411C196.605 73.6998 198.129 70.5127 201.039 67.8799C203.949 65.2471 207.829 64 212.679 64C215.866 64 219.053 64.5543 222.24 65.6628V69.5427C219.053 68.157 215.728 67.4642 212.263 67.4642C208.661 67.4642 205.751 68.4342 203.672 70.2356C201.594 72.037 200.485 74.3926 200.485 77.164C200.485 79.9353 201.178 82.0139 202.702 83.6767C204.088 85.3395 207.275 87.418 212.125 90.1894C217.113 92.9607 220.439 95.455 222.102 97.6721C223.765 99.8891 224.596 102.383 224.596 105.293C224.596 109.312 223.21 112.637 220.3 115.27C217.529 117.903 213.51 119.15 208.245 119.15C206.444 119.15 204.365 118.873 201.871 118.319C199.654 117.626 197.852 116.933 196.467 116.24V116.24ZM256.744 116.379C253.972 118.042 250.508 119.012 246.628 119.012C241.501 119.012 237.344 117.21 234.157 113.746C230.97 110.143 229.446 105.57 229.446 99.7506C229.446 93.6536 231.247 88.8037 234.85 84.9238C238.453 81.0439 243.026 79.1039 248.568 79.1039C251.478 79.1039 254.25 79.6582 257.021 80.9053V84.7852C254.25 83.1224 251.34 82.291 248.014 82.291C243.58 82.291 239.977 83.9538 237.206 87.1409C234.434 90.3279 233.049 94.485 233.049 99.612C233.049 104.6 234.296 108.48 236.79 111.529C239.284 114.577 242.61 115.963 246.767 115.963C250.508 115.963 253.834 114.993 256.744 112.915V116.379ZM279.746 83.6767C278.638 82.8453 277.252 82.4296 275.728 82.4296C272.679 82.4296 270.185 83.9538 268.245 87.0023C266.166 90.0508 265.196 94.485 265.196 100.166V118.042H261.871V80.0739H265.196V88.5266H265.335C266.166 85.6166 267.552 83.3995 269.492 81.7367C271.432 80.0739 273.51 79.3811 276.005 79.3811C277.39 79.3811 278.638 79.6582 279.746 80.0739V83.6767ZM285.566 70.5127C284.873 70.5127 284.18 70.2356 283.626 69.6813C283.072 69.127 282.795 68.4342 282.795 67.6028C282.795 66.7714 283.072 66.0785 283.626 65.6628C284.18 65.1085 284.873 64.97 285.566 64.97C286.397 64.97 286.952 65.2471 287.644 65.6628C288.199 66.2171 288.476 66.7714 288.476 67.6028C288.476 68.4342 288.199 69.127 287.644 69.6813C286.952 70.2356 286.397 70.5127 285.566 70.5127ZM283.903 118.18V80.2125H287.367V118.18H283.903ZM299.284 111.39H299.146V135.64H295.681V80.2125H299.146V88.1109H299.284C300.67 85.3395 302.61 83.1224 305.104 81.5982C307.598 80.0739 310.37 79.3811 313.418 79.3811C318.268 79.3811 322.009 81.0439 324.781 84.3695C327.552 87.6951 328.799 92.2679 328.799 97.9492C328.799 104.323 327.275 109.45 324.088 113.33C321.039 117.21 316.882 119.15 311.755 119.15C306.213 119.012 302.056 116.517 299.284 111.39V111.39ZM299.146 97.2564V102.106C299.146 105.986 300.393 109.173 302.748 111.945C305.104 114.716 308.291 116.102 312.171 116.102C316.051 116.102 319.238 114.439 321.594 111.113C323.949 107.788 325.196 103.353 325.196 97.9492C325.196 93.2379 324.088 89.358 321.871 86.5866C319.654 83.8152 316.605 82.4296 313.002 82.4296C308.568 82.4296 305.104 83.9538 302.748 86.8637C300.393 89.7737 299.146 93.2379 299.146 97.2564V97.2564ZM350 117.626C348.199 118.457 346.536 118.873 345.012 118.873C339.33 118.873 336.559 115.547 336.559 108.758V83.261H329.769V80.0739H336.559V70.2356C337.113 70.097 337.668 69.8199 338.222 69.6813C338.776 69.5427 339.33 69.2656 339.885 69.127V80.2125H349.862V83.3995H339.885V108.48C339.885 111.113 340.3 113.053 341.132 114.162C341.963 115.27 343.349 115.963 345.289 115.963C346.674 115.963 348.199 115.547 349.862 114.577V117.626H350Z" fill="black"/>
</svg>
