<svg width="400" height="200" viewBox="0 0 400 200" fill="none" xmlns="http://www.w3.org/2000/svg">
<path d="M277.888 99.7252C278.358 99.1706 278.839 98.6466 279.269 98.0823C282.972 93.2869 283.031 87.8934 280.907 82.6814C278.888 77.7095 274.2 76.5081 269.228 76.4739C265.256 76.4446 261.285 76.5717 257.323 76.4154C255.042 76.3272 254.287 77.0377 254.307 79.3865C254.444 94.3809 254.454 109.375 254.459 124.369C254.459 126.056 254.64 127.159 256.773 127.091C261.328 126.939 265.908 127.257 270.433 126.865C277.425 126.257 282.093 122.114 283.618 115.803C285.384 108.502 283.673 103.628 277.888 99.7252V99.7252ZM264.188 89.9384H264.207C264.207 89.0558 264.197 88.1778 264.212 87.2959C264.261 83.8342 266.457 82.4909 269.419 84.2065C271.944 85.6727 272.062 88.198 272.062 90.7726C272.062 93.322 271.258 95.4651 268.944 96.6513C265.849 98.2349 264.221 97.0782 264.192 93.4641C264.178 92.2872 264.188 91.115 264.188 89.9384V89.9384ZM266.556 120.127C264.684 120.02 264.025 119.382 264.109 117.509C264.242 114.597 264.021 111.67 264.212 108.761C264.32 107.193 263.118 104.804 265.182 104.182C267.688 103.417 270.404 103.824 272.365 106.123C273.783 107.785 273.929 109.83 274.219 111.664C274.332 117.509 271.552 120.422 266.556 120.127V120.127ZM66.994 115.966C69.5545 103.508 72.5669 91.3947 72.5612 78.8347C72.5608 77.1946 73.0853 76.6182 74.7975 76.436C82.5655 75.6094 82.8634 75.8852 81.6858 83.6985C79.6784 97.019 76.9287 110.181 73.7138 123.264C73.0165 126.103 72.1129 127.081 69.1693 127.064C59.1786 127.008 59.1188 127.136 56.8566 117.422C53.9314 104.86 51.2827 92.243 49.151 79.5146C48.7538 77.142 49.0106 76.4945 51.5167 76.4193C59.2889 76.1871 59.3214 76.0733 60.6169 83.6021C62.3068 93.4152 63.9381 103.239 65.5778 113.061C65.7459 114.072 65.7567 115.123 66.994 115.966V115.966ZM319.177 100.632C317.564 92.7385 313.558 89.0314 306.281 88.7372C297.887 88.3939 292.734 91.9886 290.62 99.7303C289.801 102.716 289.439 105.772 289.498 108.885C289.689 111.219 289.674 113.587 290.106 115.877C291.602 123.78 295.509 127.477 302.447 127.801C311.013 128.199 316.564 124.497 318.603 116.754C320.006 111.454 320.285 106.055 319.177 100.632V100.632ZM308.901 117.803C308.356 119.736 306.929 121.06 304.679 121.035C302.443 121.011 301.256 119.632 300.443 117.764C299.094 114.69 299.54 111.399 299.266 108.198C299.463 104.987 299.069 101.696 300.472 98.6518C301.32 96.8081 302.699 95.396 304.836 95.4835C306.793 95.5624 308.092 96.9602 308.631 98.7248C310.563 105.04 310.695 111.444 308.901 117.803ZM179.077 123.122C178.089 123.813 177.713 124.03 177.391 124.31C174.126 127.148 170.554 128.979 166.169 127.164C162.032 125.449 161.264 121.628 160.827 117.774C160.512 115.003 160.342 112.218 160.316 109.429C160.272 104.139 160.533 98.8442 160.361 93.5614C160.259 90.4303 161.053 89.392 164.473 89.2224C169.015 88.9968 170.205 90.3602 169.926 94.8012C169.504 101.534 169.583 108.322 169.885 115.067C170.111 120.113 173.159 121.653 176.755 119.147C178.429 117.982 178.222 116.442 178.213 114.856C178.171 107.509 178.33 100.152 177.972 92.8203C177.786 89.0093 179.877 89.1924 182.338 89.3987C184.651 89.5926 187.701 88.093 187.544 92.8312C187.212 102.813 187.474 112.813 187.301 122.802C187.275 124.252 188.865 127.158 185.322 126.935C182.829 126.778 179.034 128.756 179.077 123.122V123.122ZM221.756 96.9693C221.344 92.959 218.794 90.1142 214.935 89.2219C209.498 87.9571 204.203 89.011 199.133 91.3549C196.916 92.3796 197.877 94.0569 198.079 95.4882C198.329 97.312 199.765 97.2775 201.119 96.8459C203.678 96.0272 206.296 95.6841 208.93 96.0466C212.538 96.5522 212.91 99.2387 213.008 102.259C213.116 105.637 210.694 104.411 209.067 104.711C207.203 105.05 205.267 105.187 203.492 105.794C198.314 107.56 195.832 111.59 195.474 116.788C195.195 120.901 196.299 124.848 200.354 126.82C205.159 129.154 209.454 127.703 213.151 124.098C213.348 123.902 213.631 123.789 214.681 123.138C214.102 127.767 217.044 126.962 219.442 126.996C220.785 127.015 222.119 127.163 222.074 125.099C221.873 115.725 222.726 106.325 221.756 96.9693V96.9693ZM208.257 120.731C205.217 120.805 204.84 118.618 204.854 116.215C204.883 112.209 206.893 110.125 210.699 110.233C213.004 110.297 213.004 110.297 213.018 114.994C213.606 118.314 212.228 120.633 208.257 120.731ZM336.922 98.5033C338.272 96.2514 338.697 93.9407 339.277 91.6818C339.686 90.0854 340.552 89.4178 342.366 89.3053C350.399 88.8058 350.93 89.0445 346.817 95.9365C342.55 103.088 342.158 109.479 346.673 116.495C348.617 119.514 349.699 123.088 351.501 127.152C347.269 126.262 342.796 129.002 340.148 125.631C337.93 122.809 337.461 118.611 336.093 114.661C334.272 117.647 333.68 120.732 332.865 123.743C332.152 126.374 324.65 128.636 322.708 126.799C321.862 125.999 322.65 125.212 322.992 124.462C325.061 119.942 327.05 115.381 329.246 110.922C330.367 108.644 330.528 106.639 329.377 104.281C327.391 100.211 325.806 95.9466 323.86 91.8554C322.869 89.7708 323.506 89.4525 325.516 89.3178C333.419 88.7901 333.409 88.7316 335.851 96.0579C336.114 96.8427 336.515 97.5813 336.922 98.5033V98.5033ZM146.457 84.4356C146.108 87.1187 145.79 89.9706 150.528 89.5429C152.864 89.3321 151.845 91.6415 152.039 92.9081C152.274 94.4509 151.8 95.5875 149.955 95.2766C146.545 94.7024 146.158 96.5569 146.227 99.3407C146.364 104.912 146.175 110.49 146.22 116.065C146.24 118.681 146.53 121.316 150.254 120.806C152.333 120.521 152.102 122.068 152.465 123.255C152.898 124.675 152.783 125.64 151.277 126.488C144.396 130.365 137.234 126.459 137.028 118.501C136.861 112.05 136.986 105.59 136.925 99.135C136.909 97.3874 137.665 95.2648 134.458 95.1202C133.06 95.0583 132.812 89.7796 134.151 89.6685C139.552 89.219 137.845 84.518 139.182 81.7196C139.95 80.1124 139.547 78.2478 142.424 78.0084C148.012 77.5453 146.13 81.3708 146.457 84.4356V84.4356ZM233.013 98.7253C233.013 91.5289 233.227 84.3233 232.939 77.1378C232.745 72.2989 236.063 74.1534 238.252 73.8992C240.657 73.6207 242.709 73.4406 242.612 77.2427C242.292 89.8681 242.291 102.503 242.331 115.134C242.339 117.762 241.103 121.238 245.787 121.885C247.083 122.065 246.361 124.207 246.527 125.448C246.726 126.934 245.534 126.866 244.553 127.169C237.002 129.5 233.213 126.819 233.169 118.995C233.132 112.238 233.162 105.482 233.162 98.7255L233.013 98.7253V98.7253ZM119.653 95.5324C121.423 93.2615 122.653 91.5223 124.053 89.9335C125.397 88.4091 127.357 88.4624 128.981 89.0324C131.126 89.7855 129.503 91.5221 129.435 92.8012C129.282 95.6826 129.602 98.1693 124.985 98.6877C122.156 99.0062 120.38 103.197 120.424 106.935C120.491 112.668 120.222 118.41 120.457 124.133C120.638 128.512 117.574 126.821 115.661 126.93C113.76 127.039 111.219 128.086 111.295 124.152C111.492 113.865 111.354 103.572 111.256 93.281C111.233 90.839 111.217 89.0047 114.626 89.292C117.393 89.526 120.173 89.0688 119.506 93.2711C119.427 93.7617 119.563 94.2872 119.653 95.5324V95.5324Z" fill="black"/>
<path d="M99.8221 108.388C99.8221 113.668 99.7408 118.951 99.8624 124.228C99.9104 126.327 99.2212 126.928 97.1201 127.007C90.4493 127.257 90.4532 127.358 90.4338 120.702C90.4056 111.461 90.5737 102.214 90.2625 92.9833C90.116 88.6429 92.8421 89.6673 95.1312 89.6636C97.4242 89.66 100.257 88.6552 99.9757 92.9924C99.6444 98.1049 99.8981 103.255 99.8981 108.388L99.8221 108.388V108.388Z" fill="black"/>
<path d="M94.9066 83.7513C91.0558 83.917 89.6911 81.625 89.6953 78.2426C89.6995 74.6626 91.5776 72.9726 95.2244 73.0003C98.8833 73.0279 100.642 74.8182 100.724 78.3444C100.81 82.0556 98.8386 83.8383 94.9066 83.7513Z" fill="black"/>
</svg>
