<svg width="400" height="200" viewBox="0 0 400 200" fill="none" xmlns="http://www.w3.org/2000/svg">
<path d="M185.917 112.771L177.161 88.3866C177.049 88.0494 176.882 87.6043 176.882 87.2139C176.882 86.1571 177.775 85.1537 179.054 85.1537C180.171 85.1537 180.899 85.8786 181.232 86.9354L188.488 107.947L195.796 86.8767C196.129 85.8773 196.799 85.1523 197.909 85.1523H198.136C199.31 85.1523 200.035 85.8773 200.368 86.8767L207.616 107.947L214.987 86.8248C215.265 85.9279 215.874 85.1523 217.049 85.1523C218.275 85.1523 219.17 86.0958 219.17 87.1579C219.17 87.547 219 87.9908 218.891 88.3306L210.079 112.771C209.628 114.047 208.739 114.717 207.733 114.717H207.567C206.45 114.717 205.612 114.047 205.219 112.771L198.027 92.0499L190.772 112.771C190.381 114.047 189.542 114.717 188.429 114.717H188.312C187.255 114.717 186.366 114.047 185.917 112.771ZM249.748 87.2792C249.748 86.1025 250.696 85.0977 251.868 85.0977C253.103 85.0977 254.049 86.0479 254.049 87.2792V92.2272C256.171 87.4218 260.876 85.1537 263.994 85.1537C265.286 85.1537 266.124 86.1025 266.124 87.3312C266.124 88.5065 265.346 89.3407 264.218 89.5086C258.628 90.1789 254.05 94.3726 254.05 102.701V112.5C254.05 113.674 253.158 114.678 251.929 114.678C250.699 114.678 249.749 113.723 249.749 112.5L249.748 87.2792ZM279.931 114.949C272.153 114.949 265.801 108.917 265.801 100.07V99.9549C265.801 91.7154 271.553 85.0777 279.383 85.0777C287.756 85.0777 292.524 91.986 292.524 99.5671C292.524 100.732 291.585 101.565 290.551 101.565H270.079C270.676 107.755 274.999 111.238 280.043 111.238C283.549 111.238 286.114 109.855 288.198 107.919C288.528 107.645 288.91 107.424 289.406 107.424C290.443 107.424 291.267 108.254 291.267 109.254C291.267 109.75 291.049 110.249 290.605 110.632C287.925 113.229 284.746 114.949 279.931 114.949ZM288.308 98.4104C287.868 93.2066 284.91 88.6758 279.269 88.6758C274.341 88.6758 270.617 92.8215 270.076 98.4104H288.308ZM219.246 105.994V105.882C219.246 99.811 224.261 96.5754 231.557 96.5754C235.237 96.5754 237.854 97.0765 240.422 97.8054V96.798C240.422 91.6208 237.237 88.9423 231.839 88.9423C228.94 88.9423 227.253 89.3114 225.132 90.2562C224.857 90.3682 224.576 90.4255 224.359 90.4255C223.355 90.4255 222.46 89.5872 222.46 88.5865C222.46 87.6976 222.848 87.1472 223.633 86.7994C226.47 85.5681 228.608 85.159 232.284 85.159C236.348 85.159 239.469 86.2144 241.583 88.3333C243.536 90.2829 244.54 93.068 244.54 96.7473V112.643C244.54 113.865 243.648 114.759 242.472 114.759C241.251 114.759 240.423 113.866 240.423 112.753V110.005C238.414 112.629 235.068 114.965 230.008 114.965C224.656 114.961 219.246 111.9 219.246 105.994ZM240.477 103.765V100.978C238.355 100.367 235.51 99.7523 232.003 99.7523C226.606 99.7523 223.593 102.095 223.593 105.713V105.824C223.593 109.444 226.932 111.562 230.837 111.562C236.127 111.562 240.477 108.329 240.477 103.765ZM107.867 86.962C106.923 84.8938 104.591 83.957 102.414 84.9245C100.233 85.8933 99.4312 88.3106 100.416 90.3802L109.559 110.253C110.997 113.368 112.512 115 115.356 115C118.394 115 119.719 113.222 121.155 110.253C121.155 110.253 129.13 92.8895 129.21 92.7082C129.291 92.5243 129.547 91.9633 130.358 91.9686C131.045 91.9726 131.622 92.5203 131.622 93.2559V110.236C131.622 112.853 133.073 115 135.866 115C138.656 115 140.165 112.853 140.165 110.236V96.3409C140.165 93.661 142.085 91.922 144.702 91.922C147.32 91.922 149.061 93.7236 149.061 96.3409V110.236C149.061 112.853 150.518 115 153.306 115C156.096 115 157.613 112.853 157.613 110.236V96.3409C157.613 93.661 159.525 91.922 162.144 91.922C164.757 91.922 166.505 93.7236 166.505 96.3409V110.236C166.505 112.853 167.96 115 170.751 115C173.54 115 175.054 112.853 175.054 110.236V94.4219C175.054 88.6104 170.38 84.5394 164.757 84.5394C159.14 84.5394 155.622 88.4252 155.622 88.4252C153.752 86.0012 151.175 84.5447 146.813 84.5447C142.21 84.5447 138.182 88.4252 138.182 88.4252C136.311 86.0012 133.126 84.5447 130.489 84.5447C126.41 84.5447 123.17 86.3384 121.194 90.8572L115.356 104.619L107.867 86.962ZM292.872 88.6837V88.6598C292.872 86.7155 294.45 85.0777 296.433 85.0777C298.444 85.0777 300 86.6982 300 88.6451V88.6598C300 90.6107 298.426 92.2485 296.433 92.2485C294.422 92.2485 292.872 90.6333 292.872 88.6837ZM299.315 88.6598V88.6504C299.315 87.0513 298.08 85.74 296.433 85.74C294.8 85.74 293.546 87.074 293.546 88.6598V88.6784C293.546 90.2735 294.786 91.5848 296.433 91.5848C298.06 91.5848 299.315 90.2536 299.315 88.6598Z" fill="black"/>
<path d="M295.069 87.2498C295.069 87.0379 295.239 86.8687 295.453 86.8687H296.642C297.09 86.8687 297.435 86.9953 297.649 87.2218C297.845 87.4124 297.952 87.6882 297.952 88.0081V88.0187C297.952 88.5624 297.677 88.8942 297.263 89.0688L297.788 89.7085C297.861 89.8044 297.91 89.883 297.91 90.0003C297.91 90.2108 297.732 90.3494 297.551 90.3494C297.381 90.3494 297.267 90.2628 297.178 90.1535L296.438 89.218H295.832V89.9697C295.832 90.1816 295.668 90.3481 295.454 90.3481C295.24 90.3481 295.071 90.1802 295.071 89.9697V87.2498H295.069ZM296.599 88.5451C296.97 88.5451 297.174 88.3519 297.174 88.0573V88.0454C297.174 87.7242 296.955 87.551 296.586 87.551H295.828V88.5438H296.599V88.5451Z" fill="black"/>
</svg>
