<svg width="400" height="200" viewBox="0 0 400 200" fill="none" xmlns="http://www.w3.org/2000/svg">
<path d="M66.5775 126L55.825 85.3H64.8725L72.985 117.695L81.6475 85.3H91.52L99.9625 118.08L108.35 85.3H116.82L106.068 126H94.6L86.4875 95.145L78.045 126H66.5775ZM133.581 126.578C127.916 126.578 123.745 125.34 121.069 122.865C118.392 120.39 117.054 116.412 117.054 110.93C117.054 105.943 118.264 102.121 120.684 99.4625C123.122 96.7858 126.569 95.4475 131.024 95.4475C135.295 95.4475 138.54 96.795 140.759 99.49C142.977 102.167 144.086 106.072 144.086 111.205V113.487H125.826C125.955 115.871 126.679 117.548 127.999 118.52C129.319 119.473 131.592 119.95 134.819 119.95C135.992 119.95 137.22 119.867 138.504 119.702C139.805 119.519 141.107 119.281 142.409 118.987V125.56C140.795 125.927 139.274 126.183 137.844 126.33C136.414 126.495 134.993 126.578 133.581 126.578ZM130.941 101.002C129.31 101.002 128.054 101.543 127.174 102.625C126.312 103.707 125.854 105.65 125.799 108.455H135.919C135.864 105.668 135.415 103.734 134.571 102.652C133.746 101.552 132.536 101.002 130.941 101.002ZM160.514 126.55C158.589 126.55 156.609 126.413 154.574 126.138C152.557 125.862 150.678 125.441 148.937 124.872V81.56H157.682V98.8575H158.122C158.983 97.7758 160.065 96.9417 161.367 96.355C162.687 95.75 164.199 95.4475 165.904 95.4475C167.994 95.4475 169.928 95.9608 171.707 96.9875C173.485 98.0142 174.906 99.6275 175.969 101.827C177.032 104.027 177.564 106.869 177.564 110.352C177.564 115.651 176.152 119.684 173.329 122.452C170.524 125.202 166.252 126.568 160.514 126.55ZM161.284 119.922C163.759 119.922 165.62 119.244 166.867 117.887C168.132 116.531 168.764 114.248 168.764 111.04C168.764 108.858 168.498 107.162 167.967 105.952C167.453 104.724 166.729 103.862 165.794 103.367C164.877 102.872 163.805 102.625 162.577 102.625C161.678 102.625 160.798 102.772 159.937 103.065C159.075 103.358 158.323 103.807 157.682 104.412V119.482C158.177 119.611 158.727 119.721 159.332 119.812C159.955 119.886 160.606 119.922 161.284 119.922ZM194.324 126.413C192.619 126.413 190.804 126.358 188.879 126.248C186.954 126.156 185.048 125.991 183.159 125.752V86.2075C185.048 85.7858 187.129 85.4558 189.402 85.2175C191.675 84.9792 193.894 84.86 196.057 84.86C203.445 84.86 209.019 86.5467 212.777 89.92C216.554 93.2933 218.442 98.5367 218.442 105.65C218.442 112.928 216.434 118.208 212.419 121.49C208.423 124.772 202.391 126.413 194.324 126.413ZM196.634 119.152C200.869 119.152 204.032 118.126 206.122 116.072C208.23 114.019 209.284 110.536 209.284 105.622C209.284 100.746 208.221 97.2717 206.094 95.2C203.986 93.11 200.851 92.065 196.689 92.065C195.204 92.065 193.674 92.2025 192.097 92.4775V118.96C192.849 119.033 193.591 119.088 194.324 119.125C195.058 119.143 195.828 119.152 196.634 119.152ZM224.024 126V95.915H231.202L231.862 99.7925H232.302C233.145 98.3075 234.264 97.2258 235.657 96.5475C237.05 95.8508 238.581 95.5025 240.249 95.5025C240.708 95.5025 241.148 95.5208 241.569 95.5575C241.991 95.5942 242.367 95.6492 242.697 95.7225V103.642C242.239 103.551 241.744 103.496 241.212 103.477C240.699 103.441 240.204 103.422 239.727 103.422C238.444 103.422 237.151 103.67 235.849 104.165C234.548 104.642 233.521 105.347 232.769 106.282V126H224.024ZM246.798 126V95.915H255.57V126H246.798ZM251.17 91.5425C249.319 91.5425 247.953 91.1483 247.073 90.36C246.193 89.5533 245.753 88.4258 245.753 86.9775C245.753 85.5292 246.193 84.4017 247.073 83.595C247.953 82.7883 249.319 82.385 251.17 82.385C253.022 82.385 254.388 82.7883 255.268 83.595C256.148 84.4017 256.588 85.5292 256.588 86.9775C256.588 88.4258 256.148 89.5533 255.268 90.36C254.388 91.1483 253.022 91.5425 251.17 91.5425ZM269.366 126L258.806 95.915H267.963L275.113 118.052L282.291 95.915H290.926L280.338 126H269.366ZM308.84 126.578C303.175 126.578 299.004 125.34 296.328 122.865C293.651 120.39 292.313 116.412 292.313 110.93C292.313 105.943 293.523 102.121 295.943 99.4625C298.381 96.7858 301.828 95.4475 306.283 95.4475C310.554 95.4475 313.799 96.795 316.018 99.49C318.236 102.167 319.345 106.072 319.345 111.205V113.487H301.085C301.213 115.871 301.938 117.548 303.258 118.52C304.578 119.473 306.851 119.95 310.078 119.95C311.251 119.95 312.479 119.867 313.763 119.702C315.064 119.519 316.366 119.281 317.668 118.987V125.56C316.054 125.927 314.533 126.183 313.103 126.33C311.673 126.495 310.252 126.578 308.84 126.578ZM306.2 101.002C304.568 101.002 303.313 101.543 302.433 102.625C301.571 103.707 301.113 105.65 301.058 108.455H311.178C311.123 105.668 310.673 103.734 309.83 102.652C309.005 101.552 307.795 101.002 306.2 101.002ZM324.195 126V95.915H331.373L332.033 99.7925H332.473C333.316 98.3075 334.435 97.2258 335.828 96.5475C337.221 95.8508 338.752 95.5025 340.42 95.5025C340.879 95.5025 341.319 95.5208 341.74 95.5575C342.162 95.5942 342.538 95.6492 342.868 95.7225V103.642C342.41 103.551 341.915 103.496 341.383 103.477C340.87 103.441 340.375 103.422 339.898 103.422C338.615 103.422 337.322 103.67 336.02 104.165C334.719 104.642 333.692 105.347 332.94 106.282V126H324.195Z" fill="black"/>
</svg>
