<svg width="83" height="68" viewBox="0 0 83 68" fill="none" xmlns="http://www.w3.org/2000/svg">
<path d="M82.3767 25.9813H63.6328V27.0179H82.3767V25.9813Z" fill="white"/>
<path d="M82.3767 27.5937H63.6328V28.6302H82.3767V27.5937Z" fill="white"/>
<path d="M82.3767 29.2061H63.6328V30.2426H82.3767V29.2061Z" fill="white"/>
<path d="M82.3767 30.8185H63.6328V31.855H82.3767V30.8185Z" fill="white"/>
<path d="M82.3767 32.4597H63.6328V33.4962H82.3767V32.4597Z" fill="white"/>
<path d="M82.3767 34.072H63.6328V35.1085H82.3767V34.072Z" fill="white"/>
<path d="M82.3767 35.6844H63.6328V36.7209H82.3767V35.6844Z" fill="white"/>
<path d="M82.3767 37.2968H63.6328V38.3333H82.3767V37.2968Z" fill="white"/>
<path d="M82.3767 38.9091H63.6328V39.9456H82.3767V38.9091Z" fill="white"/>
<path d="M82.3767 40.5503H63.6328V41.5868H82.3767V40.5503Z" fill="white"/>
<path d="M82.3767 42.1627H63.6328V43.1992H82.3767V42.1627Z" fill="white"/>
<path d="M19.4939 25.9813H0.75V27.0179H19.4939V25.9813Z" fill="white"/>
<path d="M19.4939 27.5937H0.75V28.6302H19.4939V27.5937Z" fill="white"/>
<path d="M19.4939 29.2061H0.75V30.2426H19.4939V29.2061Z" fill="white"/>
<path d="M19.4939 30.8185H0.75V31.855H19.4939V30.8185Z" fill="white"/>
<path d="M19.4939 32.4597H0.75V33.4962H19.4939V32.4597Z" fill="white"/>
<path d="M19.4939 34.072H0.75V35.1085H19.4939V34.072Z" fill="white"/>
<path d="M19.4939 35.6844H0.75V36.7209H19.4939V35.6844Z" fill="white"/>
<path d="M19.4939 37.2968H0.75V38.3333H19.4939V37.2968Z" fill="white"/>
<path d="M19.4939 38.9091H0.75V39.9456H19.4939V38.9091Z" fill="white"/>
<path d="M19.4939 40.5503H0.75V41.5868H19.4939V40.5503Z" fill="white"/>
<path d="M19.4939 42.1627H0.75V43.1992H19.4939V42.1627Z" fill="white"/>
<path d="M53.728 52.1537L40.5986 42.8825V44.0054L53.728 53.2766V52.1537Z" fill="white"/>
<path d="M50.4457 45.8769V38.4196C50.4457 36.0299 48.5454 34.1008 46.1557 34.1008H36.7981C34.4371 34.1008 32.5081 36.0299 32.5081 38.4196V44.5524C32.5081 46.9422 34.4084 48.8713 36.7981 48.8713H46.6451L45.2919 47.9499H36.7693C34.9266 47.9499 33.4006 46.4239 33.4006 44.5524V38.4196C33.4006 36.5481 34.8978 35.0221 36.7693 35.0221H46.1269C47.9696 35.0221 49.4668 36.5481 49.4668 38.4196V45.2147L50.4457 45.8769Z" fill="white"/>
<path d="M53.728 50.4549L40.5986 41.155V42.2779L53.728 51.5778V50.4549Z" fill="white"/>
<path d="M53.728 48.7561L46.098 43.372H47.9983V44.1494L48.9197 44.754L48.9485 38.4772C48.9485 36.9224 47.7104 35.6556 46.1268 35.6556H36.9132C35.3584 35.6556 34.1204 36.9224 34.1204 38.4772V44.5236C34.1204 46.0784 35.3584 47.3453 36.9132 47.3453H44.5144L43.19 46.424H36.9132C35.8767 46.424 35.0129 45.5602 35.0129 44.5236V38.4772C35.0129 37.4119 35.8479 36.5769 36.9132 36.5769H46.1268C47.1633 36.5769 48.0271 37.4407 48.0271 38.4772V39.5138H40.6562H40.6275V40.4351V40.6079L53.7568 49.879V48.7561H53.728ZM41.9231 40.4063H47.9983V40.9822H42.7293L41.9231 40.4063ZM44.7736 42.4218L44.025 41.9035H47.9695V42.4218H44.7736Z" fill="white"/>
<path d="M58.9393 41.8172C59.9758 40.8095 60.5229 39.4562 60.5229 38.0166C60.5229 36.577 59.947 35.2237 58.9393 34.216C57.9316 33.2083 56.6071 32.6612 55.1963 32.6612H46.4722C46.0403 32.4021 45.7524 31.9126 45.7524 31.3943C45.7524 30.9913 45.8963 30.6169 46.1843 30.329C46.4434 30.0699 46.8177 29.8971 47.2208 29.8971H60.4941V28.9758H47.2208C45.8963 28.9758 44.831 30.0411 44.831 31.3656C44.831 31.8262 44.9462 32.2581 45.1765 32.6324H44.5431C44.3703 32.2581 44.284 31.8262 44.284 31.3943C44.284 30.5882 44.6007 29.8108 45.1765 29.2349C45.7236 28.6879 46.4722 28.3711 47.2784 28.3711H60.4941V27.4498H47.2784C45.1189 27.4498 43.3914 29.2061 43.3914 31.3943C43.3914 31.8262 43.449 32.2293 43.5929 32.6324H43.0171C42.9019 32.2293 42.8443 31.7974 42.8443 31.3656C42.8443 30.1563 43.305 29.0334 44.1688 28.1696C45.0038 27.3346 46.0979 26.8739 47.2784 26.8739H60.5517V25.9526H47.2784C44.3415 25.9526 41.9518 28.3711 41.9518 31.3656C41.9518 31.7974 42.0094 32.2293 42.0957 32.6324H41.4911V31.5383C41.4911 30.0411 40.9152 28.6303 39.8499 27.565C38.8134 26.5284 37.4314 25.9526 35.9629 25.9526H22.6033V26.8739H35.9054C37.1146 26.8739 38.2663 27.3634 39.1301 28.2272C40.0227 29.1197 40.4834 30.2714 40.4834 31.5383V32.6324H39.9363V31.7686C39.9363 30.6169 39.4756 29.5228 38.6694 28.6879C37.8632 27.8817 36.7979 27.4498 35.675 27.4498H22.6033V28.3711H35.675C36.5676 28.3711 37.4026 28.7166 38.036 29.3501C38.6694 29.9835 39.0437 30.8473 39.0437 31.7686V32.6324H38.4391V31.7974C38.4391 31.0488 38.1512 30.329 37.6041 29.782C37.0859 29.2637 36.366 28.947 35.6174 28.947H22.6033V29.8683H35.5886C36.0781 29.8683 36.5676 30.0699 36.9131 30.4154C37.2874 30.7897 37.4889 31.2504 37.4889 31.7686V32.6036H36.5964C33.5444 32.6036 31.0682 35.1086 31.0682 38.1894V39.4274H26.5766V30.4442H25.6553V39.8881V40.3488H26.0871H31.0394V40.9534H24.993V30.473H24.0717V41.4141V41.8748H24.5323H31.0394V42.4219H23.4958V30.473H22.5745V42.8825V43.3432H23.0351H31.0394V44.7252C31.0394 47.806 33.5156 50.311 36.5676 50.311H48.718L47.3647 49.3896H36.5676C34.0339 49.3896 31.9608 47.3166 31.9608 44.7252V38.2182C31.9608 35.6556 34.0339 33.5538 36.5676 33.5538H46.4146C48.9483 33.5538 51.0214 35.6268 51.0214 38.2182V46.2512L51.9427 46.8847V43.3432H55.1675C56.6071 43.3432 57.9316 42.7962 58.9393 41.8172ZM50.935 35.0222H55.1387C55.9161 35.0222 56.6647 35.3389 57.2406 35.886C57.8164 36.4618 58.1331 37.2104 58.1331 38.0166C58.1331 39.6578 56.8087 41.011 55.1675 41.011H51.9715V40.4064H55.1675C55.8009 40.4064 56.4056 40.1472 56.8375 39.7154C57.2981 39.2547 57.5285 38.65 57.5285 38.0166C57.5285 37.3832 57.2694 36.7785 56.8375 36.3179C56.3768 35.886 55.8009 35.6268 55.1675 35.6268H51.2805C51.1941 35.4253 51.079 35.2237 50.935 35.0222ZM51.6836 36.5482H55.1675C55.5418 36.5482 55.9161 36.6922 56.204 36.9801C56.492 37.268 56.6359 37.6423 56.6359 38.0166C56.6359 38.8228 55.9737 39.485 55.1675 39.485H51.914V38.2469C51.9427 37.6423 51.8564 37.0665 51.6836 36.5482ZM51.9427 41.9036H55.1387C56.1752 41.9036 57.1542 41.5005 57.874 40.7807C58.6226 40.0321 59.0257 39.0531 59.0257 38.0166C59.0257 36.9801 58.6226 35.9723 57.874 35.2525C57.1542 34.5327 56.1752 34.1296 55.1387 34.1296H50.1576C49.9273 33.9281 49.6969 33.7553 49.4666 33.5826H55.1675C56.348 33.5826 57.4421 34.0433 58.2771 34.8782C59.1121 35.7132 59.6015 36.8361 59.6015 38.0454C59.6015 40.4928 57.6149 42.4794 55.1963 42.4794H51.9427V41.9036Z" fill="white"/>
<path d="M53.1524 60.0428C52.7205 60.2443 52.6053 60.8202 52.9796 61.684C53.3539 62.5477 53.8434 62.8645 54.3041 62.6917C54.7647 62.4901 54.8511 61.9143 54.4768 61.0505C54.0737 60.1868 53.5843 59.87 53.1524 60.0428Z" fill="white"/>
<path d="M24.6476 10.6638C24.9355 10.4622 24.9643 10.0591 24.6764 9.65602C24.3885 9.25292 23.9854 9.16654 23.7262 9.3393C23.4383 9.54085 23.4095 9.94394 23.6974 10.347C23.9566 10.7501 24.3597 10.8653 24.6476 10.6638Z" fill="white"/>
<path d="M40.829 5.27955C41.1745 5.27955 41.4336 4.96283 41.4048 4.44457C41.4048 3.9551 41.1169 3.66718 40.7714 3.66718C40.4259 3.66718 40.1668 3.98389 40.1955 4.47336C40.2243 4.99163 40.4835 5.27955 40.829 5.27955Z" fill="white"/>
<path d="M41.5487 7.78449C53.0081 7.78449 62.74 15.1266 66.3102 25.3767L73.9114 25.3479C70.1108 11.038 57.0679 0.5 41.5487 0.5C26.0584 0.5 13.0154 11.038 9.18604 25.3191H16.7872C20.3575 15.1266 30.0893 7.78449 41.5487 7.78449ZM65.3601 13.399C65.5328 13.6006 65.4753 13.7733 65.3025 14.0612L64.5251 15.3857L66.0511 14.8386C66.3102 14.7523 66.483 14.7523 66.5982 14.8962C66.7709 15.0978 66.7421 15.3569 66.5406 15.5297C66.4542 15.5872 66.3678 15.6448 66.2239 15.6736L62.6824 16.8253C62.4233 16.9117 62.2505 16.9117 62.1353 16.7677C61.9626 16.5374 61.9914 16.307 62.1929 16.1343C62.2793 16.0767 62.3657 16.0191 62.4808 15.9903L63.3734 15.7312L64.4963 13.5718C64.5251 13.4854 64.6115 13.399 64.6691 13.3702C64.8994 13.1975 65.1873 13.2263 65.3601 13.399ZM64.8418 11.3835C65.0722 11.6139 65.0146 11.873 64.6691 12.1897L64.3811 12.4777L64.4387 12.5352C64.6979 12.7944 64.7267 13.0535 64.5539 13.2551C64.3523 13.4566 64.122 13.399 63.8629 13.1399L63.8053 13.0823L62.6248 14.2916C62.3081 14.6083 62.049 14.6947 61.8186 14.4643C61.5883 14.234 61.6459 13.9749 61.9914 13.6581L63.1719 12.4489L63.1431 12.4201C62.9127 12.1897 62.8839 11.9306 63.0567 11.7578C63.2294 11.5851 63.4886 11.6139 63.7477 11.8442L64.0356 11.5563C64.3523 11.2396 64.6115 11.182 64.8418 11.3835ZM62.9127 9.91513C63.1143 9.68479 63.4598 9.656 63.6613 9.85754C63.8917 10.0591 63.8917 10.3758 63.6901 10.6061C63.4886 10.8365 63.1431 10.8653 62.9415 10.6637C62.7112 10.4622 62.7112 10.1455 62.9127 9.91513ZM62.7688 10.8653C62.9991 11.0668 62.9703 11.326 62.6536 11.6715L61.3867 13.1111C61.07 13.4566 60.8109 13.543 60.5805 13.3414C60.3502 13.1399 60.379 12.852 60.6957 12.5064L61.9626 11.0668C62.2793 10.7213 62.5384 10.6637 62.7688 10.8653ZM60.9548 9.36807C61.0988 9.48324 61.1564 9.656 61.0988 9.88634C61.3867 9.82875 61.6171 9.88634 61.7898 10.0303C61.9914 10.1743 62.0202 10.491 61.8762 10.6925C61.6459 10.9804 61.3003 10.7789 60.8973 10.6925C60.6093 10.6349 60.5229 10.7213 60.3214 10.9517L59.7168 11.7291C59.4288 12.1034 59.1697 12.1897 58.9394 11.9882C58.6802 11.7866 58.709 11.5275 58.997 11.1532L60.1774 9.656C60.4654 9.2529 60.7245 9.16652 60.9548 9.36807ZM58.0756 7.38139C58.3347 7.55415 58.3347 7.81328 58.0756 8.21637L57.4997 9.10894C57.2694 9.48324 57.2118 9.74237 57.5285 9.94392C57.8453 10.1455 58.0468 10.0015 58.3059 9.6272L58.8818 8.73464C59.1409 8.33154 59.3713 8.24517 59.6304 8.38913C59.8895 8.56188 59.8895 8.82102 59.6304 9.22411L58.9394 10.2894C58.4499 11.0668 57.7589 11.2108 57.0103 10.7213C56.2617 10.2318 56.1177 9.56962 56.6072 8.79222L57.2982 7.7269C57.5573 7.32381 57.7877 7.20864 58.0756 7.38139ZM56.3193 6.37366C56.8663 6.66158 57.1254 7.06468 56.9527 7.38139C56.8375 7.58294 56.636 7.66932 56.4344 7.58294C56.2905 7.49656 56.1465 7.26622 55.9162 7.15105C55.5707 6.9783 55.1964 7.15105 54.9948 7.58294C54.7645 8.01483 54.8508 8.41792 55.2251 8.59068C55.4555 8.70585 55.7146 8.67705 55.8586 8.73464C56.0313 8.82102 56.0889 9.05135 56.0025 9.2529C55.8586 9.54083 55.3403 9.6272 54.7645 9.33928C53.9583 8.93619 53.7279 8.04362 54.1886 7.15105C54.6205 6.28728 55.4843 5.94177 56.3193 6.37366ZM53.1233 4.90524C53.9295 5.22196 54.2462 6.11453 53.9583 6.92071C53.8431 7.23743 53.6704 7.23743 53.3824 7.12226L51.8564 6.54641C51.7701 6.89192 51.914 7.17985 52.2883 7.32381C52.7202 7.49656 53.0945 7.29502 53.2961 7.38139C53.4976 7.46777 53.584 7.64053 53.4976 7.87086C53.3536 8.21637 52.6626 8.41792 51.914 8.13C51.079 7.81328 50.7047 6.89192 51.0502 5.99936C51.4245 5.04921 52.3171 4.58853 53.1233 4.90524ZM47.7103 6.11453C47.7679 5.85539 47.9982 5.74022 48.2862 5.79781C48.5165 5.85539 48.8044 6.17211 49.2075 6.25849C49.4667 6.31607 49.697 6.2009 49.7834 5.94177C49.8698 5.59626 49.6394 5.42351 49.2363 5.19317C48.5165 4.76128 48.2574 4.35819 48.4301 3.72475C48.6317 2.97615 49.3515 2.57306 50.2153 2.8034C50.8775 2.97615 51.223 3.37924 51.1366 3.69596C51.079 3.95509 50.8775 4.07026 50.6184 3.98389C50.388 3.9263 50.1865 3.72475 49.9561 3.63838C49.6682 3.552 49.4667 3.66717 49.4091 3.86872C49.3227 4.15664 49.5818 4.27181 50.0137 4.55973C50.6759 5.02041 50.9351 5.48109 50.7911 6.11453C50.5896 6.92071 49.841 7.3526 48.862 7.09347C48.0558 6.92071 47.6239 6.46004 47.7103 6.11453ZM42.7292 5.42351L42.902 3.52321C42.9308 3.06253 43.1035 2.86098 43.4202 2.88977C43.593 2.91857 43.737 3.00494 43.8233 3.23528C44.0537 3.03373 44.3128 2.94736 44.6583 2.97615C45.3781 3.03373 45.7236 3.49441 45.6661 4.32939L45.5509 5.68264C45.5221 6.14332 45.3493 6.37366 45.0326 6.34487C44.7159 6.31607 44.6007 6.08573 44.6295 5.62505L44.7159 4.55973C44.7447 4.07026 44.6583 3.81113 44.284 3.78234C43.9385 3.75355 43.7658 3.98389 43.737 4.47336L43.6506 5.56747C43.6218 6.02815 43.449 6.25849 43.1323 6.2297C42.8156 6.11453 42.7004 5.88419 42.7292 5.42351ZM40.7713 2.7746C41.6639 2.74581 42.3261 3.43683 42.3549 4.44456C42.3837 5.42351 41.7503 6.17211 40.8577 6.2009C39.9652 6.2297 39.3029 5.53868 39.2741 4.53094C39.2453 3.52321 39.8788 2.8034 40.7713 2.7746ZM38.9286 5.53868C38.9862 5.99936 38.871 6.25849 38.5543 6.28728C38.2376 6.31607 38.0648 6.11453 38.0361 5.65385L37.8345 3.75355C37.7769 3.29287 37.8921 3.06253 38.2088 3.00494C38.5255 2.97615 38.6695 3.1777 38.7271 3.63838L38.9286 5.53868ZM38.0649 1.6517C38.3528 1.62291 38.6119 1.85324 38.6407 2.14117C38.6695 2.45789 38.4679 2.71702 38.18 2.74581C37.8921 2.7746 37.633 2.57306 37.6042 2.25634C37.5754 1.96841 37.7769 1.68049 38.0649 1.6517ZM35.8766 3.43683L35.819 3.03373C35.7327 2.57306 35.8478 2.31392 36.1645 2.28513C36.4813 2.22755 36.654 2.42909 36.7116 2.88977L36.7692 3.29287H36.8556C37.2299 3.23528 37.4602 3.35045 37.489 3.60958C37.5466 3.86872 37.3738 4.04147 36.9707 4.09906H36.8844L37.1723 5.76902C37.2587 6.2297 37.1435 6.48883 36.8268 6.51762C36.5101 6.5752 36.3373 6.37366 36.2509 5.91298L35.963 4.24302H35.9342C35.6175 4.3006 35.3872 4.15664 35.3584 3.9263C35.3584 3.66717 35.5311 3.49441 35.8766 3.43683ZM33.3141 3.86872C33.6308 3.78234 33.8612 3.83992 34.1203 4.01268C34.1779 3.81113 34.293 3.66717 34.4658 3.60958C34.7825 3.52321 34.9553 3.72475 35.0704 4.15664L35.5599 5.99936C35.6751 6.46004 35.5887 6.71917 35.3008 6.77675C35.0992 6.83434 34.9553 6.77675 34.7825 6.57521C34.6673 6.86313 34.437 7.03588 34.1203 7.12226C33.4005 7.32381 32.5943 6.80554 32.3639 5.85539C32.1336 4.93404 32.5655 4.07026 33.3141 3.86872ZM27.5556 6.02815C27.7284 5.97056 27.9011 5.99936 28.0739 6.14332C28.1603 5.85539 28.333 5.68264 28.6209 5.56747C28.9952 5.42351 29.3119 5.42351 29.6287 5.62505C29.7726 5.22196 29.9454 4.99162 30.2909 4.84766C30.8667 4.58853 31.4138 4.84766 31.7305 5.59626L32.2776 6.86313C32.4503 7.29502 32.4215 7.55415 32.1336 7.66932C31.8457 7.78449 31.6153 7.64053 31.4426 7.20864L31.0107 6.2297C30.8092 5.79781 30.6076 5.59626 30.3485 5.71143C30.0318 5.8266 30.0318 6.11453 30.2045 6.54641L30.6364 7.55415C30.8092 7.98603 30.7804 8.24517 30.4924 8.36034C30.2045 8.47551 29.9742 8.33154 29.8014 7.89966L29.3695 6.92071C29.168 6.48883 28.9664 6.28728 28.7073 6.40245C28.3906 6.54641 28.3906 6.80554 28.5633 7.23743L28.9952 8.24517C29.168 8.67705 29.1392 8.93619 28.8513 9.05136C28.5633 9.16652 28.333 9.02256 28.1602 8.59068L27.4116 6.83434C27.2101 6.43124 27.2677 6.14332 27.5556 6.02815ZM25.425 7.23743C25.5689 7.15105 25.7417 7.15105 25.9432 7.29502C26.0008 7.00709 26.1448 6.80554 26.3175 6.71917C26.5479 6.604 26.8358 6.66158 26.951 6.89192C27.1525 7.20864 26.807 7.43898 26.5767 7.78449C26.4327 8.01483 26.4615 8.13 26.6055 8.41792L27.0949 9.28169C27.3253 9.68479 27.3253 9.94392 27.0373 10.1167C26.7782 10.2606 26.5191 10.1455 26.2887 9.74237L25.3386 8.07241C25.137 7.66932 25.137 7.38139 25.425 7.23743ZM23.208 8.61947C23.9566 8.1012 24.8779 8.30275 25.4538 9.10894C26.0296 9.91513 25.9144 10.8653 25.1658 11.3835C24.4172 11.9018 23.4959 11.7003 22.92 10.8941C22.3442 10.0879 22.4593 9.13773 23.208 8.61947ZM20.4151 9.10894C20.703 8.84981 20.9909 8.84981 21.1925 9.08015C21.3652 9.28169 21.3077 9.45445 21.1349 9.656C21.0197 9.79996 21.0485 9.85754 21.2213 10.0591L21.3652 10.2318L21.4804 10.1455C21.7683 9.91513 22.0275 9.88634 22.2002 10.0879C22.373 10.2894 22.3154 10.5198 22.0275 10.7789L21.8547 10.8653L22.9488 12.1609C23.2367 12.5064 23.2943 12.7944 23.064 12.9959C22.8337 13.1975 22.5745 13.1111 22.2578 12.7656L21.1637 11.4699L21.1349 11.4987C20.8758 11.7003 20.6454 11.7003 20.4727 11.5275C20.2999 11.326 20.3575 11.0956 20.6166 10.8365C20.5878 10.8077 20.5303 10.7501 20.5015 10.7213C19.9832 10.0591 19.9544 9.51203 20.4151 9.10894ZM18.1981 13.0535C18.3132 12.9383 18.486 12.8807 18.7163 12.9671C18.6875 12.6504 18.8027 12.4201 19.0618 12.1609C19.5513 11.6427 20.156 11.6715 20.7318 12.2473L21.7107 13.1975C22.0563 13.5142 22.1138 13.8021 21.8835 14.0037C21.6532 14.234 21.394 14.1764 21.0773 13.8309L20.2999 13.0823C19.9544 12.7368 19.6953 12.6504 19.4361 12.9095C19.2058 13.1687 19.2634 13.4278 19.6089 13.7733L20.3863 14.5219C20.7318 14.8386 20.7894 15.1266 20.559 15.3281C20.3287 15.5584 20.0696 15.5009 19.7529 15.1554L18.3708 13.8021C18.0541 13.543 17.9965 13.2838 18.1981 13.0535ZM16.2114 13.6869C16.4129 13.4278 16.7009 13.4854 17.0464 13.7733L19.3786 15.7024C19.7241 15.9903 19.8104 16.2495 19.6089 16.5086C19.4074 16.7677 19.1194 16.7101 18.7739 16.4222L16.4417 14.4931C16.0962 14.1764 16.0098 13.9173 16.2114 13.6869Z" fill="white"/>
<path d="M56.8377 58.1424C56.4347 58.4016 56.4059 59.0062 56.8953 59.7836C57.3848 60.561 57.9319 60.8489 58.335 60.5898C58.738 60.3307 58.7668 59.726 58.2774 58.9486C57.7879 58.1424 57.2408 57.8833 56.8377 58.1424Z" fill="white"/>
<path d="M34.0627 6.22971C34.3794 6.14333 34.5522 5.76903 34.437 5.33714C34.3219 4.87646 34.0051 4.67492 33.6884 4.76129C33.3717 4.84767 33.1989 5.19318 33.3141 5.65386C33.4005 6.08575 33.7172 6.31608 34.0627 6.22971Z" fill="white"/>
<path d="M41.5491 60.2155C30.464 60.2155 20.6746 53.3342 16.8452 43.5735H9.35913C13.4764 57.3939 26.3755 67.5 41.5491 67.5C56.7515 67.5 69.5641 57.3939 73.6814 43.5159H65.9939C62.1645 53.3054 52.663 60.2155 41.5491 60.2155ZM21.5959 59.323C21.308 59.1214 21.3368 58.8335 21.6247 58.4304L23.5538 55.9255C23.8417 55.5512 24.1297 55.436 24.4176 55.6663C24.7055 55.8679 24.6767 56.1846 24.3888 56.5589L22.4597 59.0638C22.143 59.4669 21.855 59.5533 21.5959 59.323ZM26.1163 57.9409C25.8572 57.7682 25.5981 57.8258 25.4829 57.9985C25.3101 58.2577 25.5405 58.4592 25.886 58.8911C26.433 59.5821 26.577 60.1292 26.2027 60.705C25.742 61.4536 24.8207 61.6264 23.9281 61.0505C23.2083 60.5898 22.8916 59.9852 23.0931 59.6685C23.2371 59.4382 23.4962 59.3806 23.7554 59.5533C23.9857 59.6973 24.1872 60.1004 24.5615 60.3307C24.7919 60.4747 25.1086 60.4459 25.2238 60.2155C25.4253 59.8988 25.2238 59.6685 24.8783 59.2654C24.2736 58.5744 24.1009 58.0849 24.4752 57.5091C24.907 56.818 25.7708 56.6453 26.6058 57.1923C27.2392 57.5954 27.4696 58.1137 27.2968 58.4016C27.1529 58.632 26.9225 58.6895 26.6634 58.5168C26.4906 58.3728 26.3467 58.0849 26.1163 57.9409ZM28.1606 63.3539C26.9513 62.8069 26.5194 61.5688 27.1241 60.2731C27.6999 58.9775 28.9092 58.4592 30.1185 59.0063C31.3278 59.5533 31.7596 60.7914 31.155 62.0871C30.5792 63.3827 29.3699 63.901 28.1606 63.3539ZM30.8959 64.4768C30.6655 64.4192 30.5504 64.1889 30.6079 63.9586C30.6367 63.8722 30.6943 63.7858 30.7807 63.6994L33.7463 60.7338C33.9479 60.5611 34.0918 60.4459 34.2646 60.5035C34.4949 60.5611 34.6101 60.7914 34.5525 60.9929C34.5237 61.0793 34.4661 61.1657 34.3798 61.2521L31.4141 64.2177C31.2414 64.448 31.0686 64.5056 30.8959 64.4768ZM35.7042 61.6552L35.0132 64.736C34.898 65.2254 34.6965 65.3982 34.351 65.3406C34.0055 65.2542 33.8903 64.9951 34.0055 64.5056L34.6965 61.4248C34.8116 60.9354 35.0132 60.7626 35.3587 60.8202C35.7042 60.9066 35.7906 61.1657 35.7042 61.6552ZM39.0729 61.9719C39.0153 62.2886 38.7562 62.4038 38.2955 62.3462L37.4606 62.231L37.3454 63.0372L38.0652 63.1236C38.5547 63.1812 38.7562 63.3827 38.7274 63.6994C38.6698 64.0161 38.4107 64.1313 37.95 64.0737L37.2302 63.9874L37.115 64.8223L37.9788 64.9375C38.4683 64.9951 38.6698 65.1966 38.641 65.5134C38.5835 65.8301 38.3243 65.9452 37.8636 65.8877L36.6832 65.7149C36.1361 65.6285 36.0209 65.4558 36.0785 64.9663L36.5104 61.8567C36.568 61.3672 36.7407 61.1657 37.3166 61.2233L38.4683 61.3672C38.9002 61.4824 39.1017 61.6552 39.0729 61.9719ZM41.5779 65.2254C42.0098 65.2254 42.2977 64.9951 42.528 64.9951C42.7296 64.9951 42.9311 65.2254 42.9311 65.4558C42.9311 65.8589 42.3553 66.2332 41.4915 66.2044C40.1958 66.1756 39.3033 65.2254 39.3321 63.7858C39.3609 62.3462 40.3398 61.4248 41.6067 61.4536C42.4128 61.4824 42.9599 61.8279 42.9311 62.2022C42.9311 62.4326 42.7296 62.6629 42.4992 62.6629C42.2689 62.6629 41.981 62.4901 41.6067 62.4614C40.9444 62.4614 40.4838 62.9796 40.4838 63.8434C40.4262 64.6784 40.8869 65.2254 41.5779 65.2254ZM48.1713 65.4558L46.3862 65.7725C45.9831 65.8301 45.7528 65.7437 45.6952 65.3982C45.6376 65.1391 45.8967 64.7935 46.2998 64.1601C46.8757 63.2388 47.1924 62.6917 47.1348 62.3174C47.0772 62.0583 46.9045 61.9143 46.6741 61.9719C46.4726 62.0007 46.3286 62.1734 46.271 62.5189C46.2135 62.8932 46.1271 63.066 45.8679 63.1236C45.58 63.1812 45.3209 63.0084 45.2921 62.6917C45.2633 62.4614 45.2921 62.1158 45.4648 61.8279C45.6952 61.396 46.0695 61.1369 46.559 61.0505C47.4227 60.9066 48.085 61.3672 48.2001 62.1158C48.3153 62.8357 47.8834 63.5555 47.0772 64.7072L47.9986 64.5344C48.4881 64.448 48.7472 64.5632 48.8048 64.8799C48.8624 65.1678 48.6608 65.3694 48.1713 65.4558ZM51.2233 60.9641L50.7051 64.4768C50.6475 64.8223 50.5323 65.0239 50.3308 65.0815C50.0428 65.1678 49.7549 65.0239 49.6685 64.7647C49.6398 64.6496 49.6398 64.4768 49.6685 64.3041L50.1868 61.3097L49.0639 61.6264C48.632 61.7415 48.3729 61.7415 48.2865 61.396C48.2001 61.1081 48.3441 60.8778 48.7472 60.7626L50.3596 60.3019C50.849 60.158 51.137 60.2731 51.2233 60.6474C51.2233 60.6474 51.2521 60.7914 51.2233 60.9641ZM54.6496 63.5555C53.6131 63.9874 52.5766 63.4691 52.0007 62.1158C51.4249 60.7338 51.7416 59.6397 52.7781 59.179C53.8147 58.7471 54.8512 59.2654 55.4558 60.6186C56.0317 62.0007 55.6574 63.1236 54.6496 63.5555ZM58.8245 61.396C57.8744 61.9719 56.7515 61.6264 55.9741 60.3307C55.1967 59.0638 55.3694 57.9122 56.3196 57.3075C57.2697 56.7317 58.3927 57.0772 59.17 58.344C59.9762 59.6685 59.7747 60.8202 58.8245 61.396ZM61.7614 59.2654C61.4734 59.4957 61.2143 59.3806 60.8976 59.0063L59.1413 56.7317L59.0549 56.7892C58.7094 57.0772 58.4214 57.0772 58.2199 56.8468C58.0184 56.5877 58.1335 56.3286 58.5078 56.0119L58.9109 55.6951C59.2564 55.436 59.5156 55.5224 59.8035 55.9255L61.7038 58.3728C62.0493 58.7471 62.0493 59.0351 61.7614 59.2654Z" fill="white"/>
<path d="M52.8643 5.65388C52.5764 5.53871 52.2597 5.65388 52.0869 5.9706L53.2098 6.40248C53.2962 6.05697 53.1522 5.74026 52.8643 5.65388Z" fill="white"/>
<path d="M29.6865 59.8988C29.0818 59.6397 28.4772 59.9276 28.1029 60.7338C27.7574 61.5112 27.9589 62.1734 28.5348 62.4614C29.1106 62.7205 29.7441 62.4326 30.0896 61.6552C30.4927 60.8202 30.2911 60.158 29.6865 59.8988Z" fill="white"/>
</svg>
