<svg width="66" height="70" viewBox="0 0 66 70" fill="none" xmlns="http://www.w3.org/2000/svg">
<g clip-path="url(#clip0_189:3072)">
<path d="M56.3152 24.995V25.34H9.68481V24.995H56.3152Z" fill="#F2F2F2"/>
<path fill-rule="evenodd" clip-rule="evenodd" d="M34.0124 12.2668C34.0124 12.5082 33.968 12.7199 33.8793 12.9019C33.7905 13.0837 33.6633 13.2242 33.4975 13.323C33.3328 13.4218 33.1437 13.4712 32.93 13.4712C32.7187 13.4712 32.5301 13.4224 32.3643 13.3247C32.1985 13.2269 32.0701 13.0877 31.9789 12.9069C31.8879 12.7249 31.8418 12.5161 31.8406 12.2802V12.159C31.8406 11.9175 31.8856 11.7052 31.9755 11.5222C32.0666 11.338 32.1944 11.197 32.359 11.0994C32.5249 11.0005 32.714 10.9511 32.9265 10.9511C33.139 10.9511 33.3276 11.0005 33.4922 11.0994C33.658 11.197 33.7859 11.338 33.8758 11.5222C33.9669 11.7052 34.0124 11.9169 34.0124 12.1573V12.2668ZM33.48 12.1555C33.48 11.8984 33.4321 11.703 33.3364 11.5693C33.2406 11.4357 33.104 11.3689 32.9265 11.3689C32.7502 11.3689 32.6142 11.4351 32.5184 11.5676C32.4226 11.699 32.3742 11.8922 32.3731 12.1472V12.2668C32.3731 12.5172 32.4209 12.7115 32.5167 12.8496C32.6124 12.9877 32.7502 13.0568 32.93 13.0568C33.1063 13.0568 33.2418 12.9906 33.3364 12.858C33.4309 12.7244 33.4788 12.5301 33.48 12.2752V12.1555Z" fill="#F2F2F2"/>
<path d="M31.5935 11.3941H30.8124V13.4375H30.287V11.3941H29.5164V10.9847H31.5935V11.3941Z" fill="#F2F2F2"/>
<path fill-rule="evenodd" clip-rule="evenodd" d="M34.9913 13.4375V12.5733H35.4519C35.7543 12.5733 35.9908 12.5042 36.1612 12.3661C36.3329 12.2269 36.4187 12.037 36.4187 11.7967C36.4187 11.6384 36.3796 11.4974 36.3013 11.3739C36.2231 11.2492 36.111 11.1532 35.9651 11.0858C35.8203 11.0184 35.6521 10.9847 35.4607 10.9847H34.4658V13.4375H34.9913ZM35.4607 12.1639H34.9913V11.3941H35.4729C35.6025 11.3963 35.7041 11.4345 35.7776 11.5087C35.8512 11.5828 35.888 11.6799 35.888 11.8001C35.888 11.9169 35.8512 12.0067 35.7776 12.0696C35.7053 12.1325 35.5996 12.1639 35.4607 12.1639Z" fill="#F2F2F2"/>
<path fill-rule="evenodd" clip-rule="evenodd" d="M25.5795 17.4171H24.6582L24.4831 17.9225H23.9243L24.8736 15.4697H25.3605L26.3151 17.9225H25.7563L25.5795 17.4171ZM24.8001 17.0077H25.4376L25.1171 16.0897L24.8001 17.0077Z" fill="#F2F2F2"/>
<path fill-rule="evenodd" clip-rule="evenodd" d="M27.1505 17.0246H27.569L28.0472 17.9225H28.6111V17.8989L28.0594 16.8966C28.2124 16.8303 28.3262 16.7416 28.4009 16.6304C28.4769 16.5181 28.5148 16.3783 28.5148 16.211C28.5148 15.9751 28.4331 15.7926 28.2696 15.6635C28.1061 15.5343 27.8738 15.4697 27.5726 15.4697H26.625V17.9225H27.1505V17.0246ZM27.5743 16.6152H27.1505V15.8791H27.5726C27.7138 15.8791 27.8183 15.9122 27.886 15.9785C27.9549 16.0447 27.9894 16.1357 27.9894 16.2514C27.9894 16.3648 27.9532 16.4541 27.8808 16.5192C27.8084 16.5832 27.7062 16.6152 27.5743 16.6152Z" fill="#F2F2F2"/>
<path d="M30.8196 15.8791H30.0385V17.9225H29.5131V15.8791H28.7424V15.4697H30.8196V15.8791Z" fill="#F2F2F2"/>
<path d="M31.2258 17.9225H31.7512V15.4697H31.2258V17.9225Z" fill="#F2F2F2"/>
<path d="M33.846 16.9201H32.8372V17.9225H32.3118V15.4697H33.9722V15.8791H32.8372V16.5125H33.846V16.9201Z" fill="#F2F2F2"/>
<path d="M34.3818 17.9225H34.9072V15.4697H34.3818V17.9225Z" fill="#F2F2F2"/>
<path d="M37.4696 17.1054C37.4497 17.3693 37.3482 17.5771 37.1648 17.7287C36.9827 17.8803 36.7421 17.9561 36.4432 17.9561C36.1163 17.9561 35.8588 17.8506 35.6709 17.6394C35.484 17.4272 35.3906 17.1363 35.3906 16.7668V16.6169C35.3906 16.3811 35.4338 16.1733 35.5202 15.9936C35.6066 15.8139 35.7298 15.6764 35.8897 15.5809C36.0509 15.4843 36.2377 15.436 36.4503 15.436C36.7445 15.436 36.9815 15.5118 37.1613 15.6634C37.3411 15.8151 37.445 16.0279 37.4731 16.3019H36.9476C36.9348 16.1435 36.8887 16.029 36.8093 15.9583C36.731 15.8864 36.6114 15.8504 36.4503 15.8504C36.2751 15.8504 36.1437 15.9111 36.0561 16.0324C35.9697 16.1525 35.9254 16.3395 35.923 16.5933V16.7786C35.923 17.0437 35.9645 17.2374 36.0474 17.3598C36.1315 17.4822 36.2634 17.5434 36.4432 17.5434C36.6055 17.5434 36.7264 17.508 36.8057 17.4373C36.8863 17.3654 36.9325 17.2548 36.9442 17.1054H37.4696Z" fill="#F2F2F2"/>
<path fill-rule="evenodd" clip-rule="evenodd" d="M38.4048 17.4171H39.326L39.5029 17.9225H40.0617L39.1071 15.4697H38.6202L37.6709 17.9225H38.2297L38.4048 17.4171ZM39.1842 17.0077H38.5466L38.8637 16.0897L39.1842 17.0077Z" fill="#F2F2F2"/>
<path d="M40.897 17.5165H42.0127V17.9225H40.3716V15.4697H40.897V17.5165Z" fill="#F2F2F2"/>
<path d="M20.8357 22.4075H21.3612V19.9548H20.8357V22.4075Z" fill="#F2F2F2"/>
<path d="M23.9953 22.4075H23.4699L22.447 20.7937V22.4075H21.9216V19.9548H22.447L23.4717 21.572V19.9548H23.9953V22.4075Z" fill="#F2F2F2"/>
<path d="M25.6117 20.3641H26.3929V19.9548H24.3157V20.3641H25.0863V22.4075H25.6117V20.3641Z" fill="#F2F2F2"/>
<path d="M28.3002 21.3446H27.2913V22.0015H28.4753V22.4075H26.7659V19.9548H28.4718V20.3641H27.2913V20.9487H28.3002V21.3446Z" fill="#F2F2F2"/>
<path d="M30.4963 22.0015H29.3806V19.9548H28.8552V22.4075H30.4963V22.0015Z" fill="#F2F2F2"/>
<path d="M31.3965 22.0015H32.5122V22.4075H30.8711V19.9548H31.3965V22.0015Z" fill="#F2F2F2"/>
<path d="M32.9202 22.4075H33.4456V19.9548H32.9202V22.4075Z" fill="#F2F2F2"/>
<path d="M36.0238 22.0975C35.9292 22.2065 35.7955 22.2913 35.6227 22.3519C35.4499 22.4114 35.2584 22.4412 35.0482 22.4412C34.8276 22.4412 34.6338 22.3951 34.4668 22.3031C34.301 22.2098 34.1725 22.0751 34.0815 21.8988C33.9916 21.7225 33.9454 21.5152 33.9431 21.2771V21.1104C33.9431 20.8656 33.9857 20.6538 34.0709 20.4753C34.1573 20.2956 34.2811 20.1586 34.4422 20.0643C34.6046 19.9688 34.7943 19.9211 35.0115 19.9211C35.3139 19.9211 35.5503 19.9907 35.7208 20.13C35.8913 20.2681 35.9923 20.4697 36.0238 20.7347H35.5124C35.489 20.5943 35.4371 20.4916 35.3565 20.4264C35.2771 20.3613 35.1673 20.3287 35.0272 20.3287C34.8486 20.3287 34.7125 20.3933 34.6192 20.5224C34.5257 20.6516 34.4784 20.8437 34.4773 21.0986V21.2553C34.4773 21.5124 34.5281 21.7067 34.6296 21.8381C34.7312 21.9695 34.8801 22.0352 35.0763 22.0352C35.2736 22.0352 35.4143 21.9948 35.4984 21.9139V21.4911H35.0202V21.1188H36.0238V22.0975Z" fill="#F2F2F2"/>
<path d="M37.0484 21.3446H38.0572V20.9487H37.0484V20.3641H38.2289V19.9548H36.5229V22.4075H38.2324V22.0015H37.0484V21.3446Z" fill="#F2F2F2"/>
<path d="M40.686 22.4075H40.1606L39.1378 20.7937V22.4075H38.6123V19.9548H39.1378L40.1623 21.572V19.9548H40.686V22.4075Z" fill="#F2F2F2"/>
<path d="M42.9137 22.2138C43.0969 22.0621 43.1985 21.8544 43.2184 21.5905H42.693C42.6813 21.7398 42.6352 21.8505 42.5546 21.9223C42.4752 21.9931 42.3544 22.0285 42.1921 22.0285C42.0122 22.0285 41.8803 21.9673 41.7962 21.8448C41.7133 21.7225 41.6719 21.5287 41.6719 21.2637V21.0784C41.6742 20.8246 41.7186 20.6376 41.805 20.5174C41.8925 20.3961 42.0239 20.3355 42.199 20.3355C42.3602 20.3355 42.4799 20.3714 42.5581 20.4433C42.6375 20.5141 42.6836 20.6286 42.6965 20.7869H43.2219C43.1939 20.5129 43.09 20.3001 42.9101 20.1485C42.7303 19.9969 42.4933 19.9211 42.199 19.9211C41.9866 19.9211 41.7997 19.9694 41.6386 20.0659C41.4786 20.1614 41.3555 20.299 41.269 20.4787C41.1826 20.6584 41.1394 20.8661 41.1394 21.102V21.2519C41.1394 21.6214 41.2328 21.9122 41.4196 22.1245C41.6076 22.3356 41.8651 22.4412 42.1921 22.4412C42.491 22.4412 42.7315 22.3654 42.9137 22.2138Z" fill="#F2F2F2"/>
<path d="M45.1695 21.3446H44.1606V22.0015H45.3447V22.4075H43.6353V19.9548H45.3411V20.3641H44.1606V20.9487H45.1695V21.3446Z" fill="#F2F2F2"/>
<path d="M56.3152 45.005V44.66H9.68481V45.005H56.3152Z" fill="#F2F2F2"/>
<path d="M24.849 49.363C24.8291 49.6269 24.7276 49.8347 24.5442 49.9863C24.3621 50.1379 24.1215 50.2137 23.8226 50.2137C23.4957 50.2137 23.2382 50.1081 23.0502 49.897C22.8634 49.6848 22.77 49.3939 22.77 49.0244V48.8745C22.77 48.6387 22.8132 48.4309 22.8996 48.2512C22.986 48.0715 23.1092 47.9339 23.2691 47.8384C23.4303 47.7419 23.6171 47.6936 23.8296 47.6936C24.1239 47.6936 24.3609 47.7694 24.5407 47.921C24.7205 48.0726 24.8244 48.2855 24.8525 48.5595H24.327C24.3142 48.4011 24.268 48.2866 24.1887 48.2158C24.1104 48.1439 23.9908 48.108 23.8296 48.108C23.6545 48.108 23.5231 48.1686 23.4355 48.29C23.3491 48.4101 23.3047 48.5971 23.3024 48.8509V49.0362C23.3024 49.3012 23.3439 49.495 23.4268 49.6173C23.5109 49.7398 23.6428 49.801 23.8226 49.801C23.9849 49.801 24.1058 49.7656 24.1851 49.6948C24.2657 49.623 24.3119 49.5124 24.3235 49.363H24.849Z" fill="#F2F2F2"/>
<path fill-rule="evenodd" clip-rule="evenodd" d="M27.3605 49.0093C27.3605 49.2507 27.3162 49.4624 27.2274 49.6443C27.1387 49.8262 27.0114 49.9667 26.8456 50.0655C26.681 50.1643 26.4918 50.2137 26.2781 50.2137C26.0668 50.2137 25.8782 50.1649 25.7124 50.0671C25.5466 49.9694 25.4182 49.8302 25.3271 49.6494C25.236 49.4674 25.1899 49.2585 25.1887 49.0227V48.9015C25.1887 48.66 25.2337 48.4477 25.3236 48.2647C25.4147 48.0805 25.5425 47.9395 25.7072 47.8419C25.8729 47.743 26.0621 47.6936 26.2746 47.6936C26.4872 47.6936 26.6757 47.743 26.8404 47.8419C27.0061 47.9395 27.134 48.0805 27.2239 48.2647C27.315 48.4477 27.3605 48.6594 27.3605 48.8997V49.0093ZM26.8281 48.898C26.8281 48.6409 26.7802 48.4455 26.6845 48.3118C26.5887 48.1782 26.4521 48.1114 26.2746 48.1114C26.0983 48.1114 25.9623 48.1776 25.8665 48.3101C25.7708 48.4415 25.7224 48.6347 25.7212 48.8897V49.0093C25.7212 49.2597 25.769 49.454 25.8648 49.5921C25.9606 49.7302 26.0983 49.7993 26.2781 49.7993C26.4545 49.7993 26.5899 49.7331 26.6845 49.6005C26.7791 49.4669 26.8269 49.2726 26.8281 49.0177V48.898Z" fill="#F2F2F2"/>
<path d="M29.1556 49.5061L28.5005 47.7272H27.814V50.18H28.3394V49.5095L28.2869 48.3539L28.9734 50.18H29.3342L30.0225 48.3522L29.97 49.5095V50.18H30.4972V47.7272H29.8071L29.1556 49.5061Z" fill="#F2F2F2"/>
<path fill-rule="evenodd" clip-rule="evenodd" d="M31.5533 49.3158V50.18H31.0278V47.7272H32.0227C32.2141 47.7272 32.3823 47.7609 32.5271 47.8283C32.673 47.8957 32.7851 47.9917 32.8634 48.1164C32.9416 48.2399 32.9807 48.3808 32.9807 48.5392C32.9807 48.7795 32.8949 48.9694 32.7232 49.1086C32.5528 49.2467 32.3163 49.3158 32.0139 49.3158H31.5533ZM31.5533 48.9064H32.0227C32.1616 48.9064 32.2673 48.875 32.3397 48.8121C32.4132 48.7492 32.45 48.6594 32.45 48.5426C32.45 48.4224 32.4132 48.3253 32.3397 48.2512C32.2661 48.177 32.1645 48.1388 32.0349 48.1366H31.5533V48.9064Z" fill="#F2F2F2"/>
<path fill-rule="evenodd" clip-rule="evenodd" d="M33.6218 49.6746H34.543L34.72 50.18H35.2787L34.3241 47.7272H33.8372L32.8879 50.18H33.4466L33.6218 49.6746ZM34.4012 49.2652H33.7636L34.0807 48.3472L34.4012 49.2652Z" fill="#F2F2F2"/>
<path d="M37.6623 50.18H37.1369L36.1141 48.5661V50.18H35.5886V47.7272H36.1141L37.1386 49.3444V47.7272H37.6623V50.18Z" fill="#F2F2F2"/>
<path d="M38.2261 50.18H38.7515V47.7272H38.2261V50.18Z" fill="#F2F2F2"/>
<path d="M40.8463 49.117H39.8375V49.774H41.0215V50.18H39.312V47.7272H41.018V48.1366H39.8375V48.7211H40.8463V49.117Z" fill="#F2F2F2"/>
<path d="M42.6185 49.3175C42.6885 49.3681 42.7236 49.4411 42.7236 49.5365C42.7236 49.6241 42.6885 49.6926 42.6185 49.742C42.5484 49.7903 42.4509 49.8144 42.326 49.8144C41.9897 49.8144 41.8216 49.6792 41.8216 49.4085H41.2944C41.2944 49.5669 41.3365 49.7061 41.4205 49.8262C41.5058 49.9464 41.629 50.0413 41.7901 50.111C41.9512 50.1794 42.1298 50.2137 42.326 50.2137C42.6086 50.2137 42.8334 50.1537 43.0003 50.0335C43.1673 49.9122 43.2508 49.7454 43.2508 49.5331C43.2508 49.3422 43.1825 49.1828 43.0459 49.0547C42.9093 48.9267 42.6915 48.8194 42.3926 48.733C42.2303 48.6858 42.1071 48.6352 42.023 48.5813C41.9401 48.5274 41.8987 48.4606 41.8987 48.3809C41.8987 48.2956 41.9343 48.227 42.0055 48.1754C42.0767 48.1226 42.1765 48.0962 42.305 48.0962C42.4381 48.0962 42.5415 48.1277 42.615 48.1905C42.6885 48.2523 42.7254 48.3394 42.7254 48.4517H43.2508C43.2508 48.3045 43.2111 48.1731 43.1317 48.0575C43.0534 47.9418 42.9431 47.8525 42.8007 47.7896C42.6582 47.7256 42.4959 47.6936 42.3137 47.6936C42.1328 47.6936 41.9693 47.7228 41.8233 47.7812C41.6786 47.8396 41.567 47.921 41.4888 48.0255C41.4118 48.1288 41.3732 48.2467 41.3732 48.3792C41.3732 48.6341 41.518 48.8369 41.8076 48.9873C41.9139 49.0423 42.058 49.0986 42.2402 49.1558C42.4224 49.212 42.5484 49.2659 42.6185 49.3175Z" fill="#F2F2F2"/>
<path d="M30.5791 55.1825H28.7438V54.8323L29.61 53.9443C29.7289 53.8194 29.8165 53.7103 29.8729 53.6171C29.9305 53.524 29.9593 53.4355 29.9593 53.3518C29.9593 53.2374 29.9293 53.1478 29.8692 53.083C29.8092 53.0169 29.7234 52.9839 29.6118 52.9839C29.4916 52.9839 29.3966 53.024 29.3267 53.1042C29.2581 53.1832 29.2238 53.2875 29.2238 53.4172H28.6904C28.6904 53.2604 28.7291 53.1172 28.8063 52.9874C28.8847 52.8577 28.9951 52.7563 29.1373 52.6832C29.2795 52.6089 29.4407 52.5718 29.621 52.5718C29.8968 52.5718 30.1108 52.6354 30.2628 52.7628C30.4161 52.8901 30.4927 53.07 30.4927 53.3023C30.4927 53.4296 30.4583 53.5594 30.3897 53.6914C30.321 53.8235 30.2033 53.9774 30.0366 54.1531L29.4279 54.7704H30.5791V55.1825Z" fill="#F2F2F2"/>
<path fill-rule="evenodd" clip-rule="evenodd" d="M32.784 54.1177C32.784 54.4738 32.7073 54.7462 32.5541 54.9349C32.4008 55.1235 32.1765 55.2179 31.881 55.2179C31.5892 55.2179 31.3661 55.1253 31.2116 54.9402C31.0571 54.7551 30.9781 54.4897 30.9744 54.1442V53.6702C30.9744 53.3105 31.0516 53.0376 31.2061 52.8513C31.3618 52.6649 31.5856 52.5718 31.8774 52.5718C32.1691 52.5718 32.3923 52.6643 32.5467 52.8495C32.7012 53.0334 32.7803 53.2982 32.784 53.6436V54.1177ZM32.2525 53.5977C32.2525 53.3842 32.2218 53.2292 32.1605 53.1324C32.1005 53.0346 32.0061 52.9857 31.8774 52.9857C31.7523 52.9857 31.6597 53.0322 31.5997 53.1254C31.5408 53.2174 31.5095 53.3619 31.5059 53.5588V54.1849C31.5059 54.3948 31.5353 54.5511 31.5941 54.6536C31.6542 54.7551 31.7498 54.8058 31.881 54.8058C32.011 54.8058 32.1048 54.7568 32.1624 54.6589C32.22 54.5611 32.25 54.4113 32.2525 54.2097V53.5977Z" fill="#F2F2F2"/>
<path d="M33.2198 55.1825H35.0552V54.7704H33.9039L34.5127 54.1531C34.6794 53.9774 34.7971 53.8235 34.8657 53.6914C34.9344 53.5594 34.9687 53.4296 34.9687 53.3023C34.9687 53.07 34.8921 52.8901 34.7389 52.7628C34.5868 52.6354 34.3729 52.5718 34.097 52.5718C33.9168 52.5718 33.7556 52.6089 33.6134 52.6832C33.4712 52.7563 33.3608 52.8577 33.2823 52.9874C33.2051 53.1172 33.1665 53.2604 33.1665 53.4172H33.6998C33.6998 53.2875 33.7342 53.1832 33.8028 53.1042C33.8727 53.024 33.9677 52.9839 34.0878 52.9839C34.1994 52.9839 34.2852 53.0169 34.3453 53.083C34.4054 53.1478 34.4354 53.2374 34.4354 53.3518C34.4354 53.4355 34.4066 53.524 34.349 53.6171C34.2926 53.7103 34.2049 53.8194 34.086 53.9443L33.2198 54.8323V55.1825Z" fill="#F2F2F2"/>
<path fill-rule="evenodd" clip-rule="evenodd" d="M37.2601 54.1177C37.2601 54.4738 37.1834 54.7462 37.0302 54.9349C36.877 55.1235 36.6526 55.2179 36.3571 55.2179C36.0653 55.2179 35.8421 55.1253 35.6877 54.9402C35.5332 54.7551 35.4541 54.4897 35.4504 54.1442V53.6702C35.4504 53.3105 35.5277 53.0376 35.6822 52.8513C35.8379 52.6649 36.0616 52.5718 36.3534 52.5718C36.6452 52.5718 36.8684 52.6643 37.0228 52.8495C37.1773 53.0334 37.2564 53.2982 37.2601 53.6436V54.1177ZM36.7286 53.5977C36.7286 53.3842 36.6979 53.2292 36.6366 53.1324C36.5766 53.0346 36.4822 52.9857 36.3534 52.9857C36.2283 52.9857 36.1358 53.0322 36.0757 53.1254C36.0169 53.2174 35.9856 53.3619 35.982 53.5588V54.1849C35.982 54.3948 36.0114 54.5511 36.0702 54.6536C36.1303 54.7551 36.2259 54.8058 36.3571 54.8058C36.4871 54.8058 36.5809 54.7568 36.6384 54.6589C36.6961 54.5611 36.7261 54.4113 36.7286 54.2097V53.5977Z" fill="#F2F2F2"/>
<path fill-rule="evenodd" clip-rule="evenodd" d="M32.9999 3.4325L63.4888 19.2784V50.9703L32.9999 66.8161L2.51074 50.9703V19.2784L32.9999 3.4325ZM5.02161 20.7185L32.9999 6.17752L60.9784 20.7185V27.755H5.02161V20.7185ZM5.02161 42.245V49.5302L32.9999 64.0714L60.9784 49.5302V42.245H5.02161ZM26.3637 30.17H24.8539V39.14H26.3637V30.17ZM30.0396 37.8134C30.4334 37.8134 31.615 37.6871 31.615 36.2974V33.0758H33.1247V39.14H31.615V38.6346C31.2211 39.0137 30.5647 39.14 30.0396 39.14C29.3175 39.14 28.7267 38.9504 28.2672 38.5083C27.7421 38.0661 27.4795 37.3081 27.4795 36.4869V33.0758H28.9893V36.5501C28.9893 36.9923 29.1206 37.8134 30.0396 37.8134ZM34.5688 30.8648H36.0786V33.0758H37.1659V34.4655H36.0786V39.14H34.5688V34.4655H33.5472V33.0758H34.5688V30.8648ZM40.6734 37.7503C41.1329 37.7503 41.5924 37.5608 41.9207 37.3081L42.1176 37.1186L43.1678 38.1293L42.9053 38.3188C42.3145 38.8241 41.5268 39.14 40.6734 39.14C38.8355 39.14 37.4571 37.8134 37.4571 36.0447C37.4571 34.276 38.8355 32.9495 40.6734 32.9495C41.5268 32.9495 42.3145 33.2653 42.9053 33.7706L43.1678 33.9602L42.1176 34.9077L41.9207 34.7182C41.5924 34.4023 41.1329 34.276 40.6734 34.276C39.6232 34.276 38.9011 34.9709 38.9011 35.9816C38.9011 36.9923 39.6232 37.7503 40.6734 37.7503ZM46.8437 32.9495C47.5658 32.9495 48.0253 33.1389 48.4847 33.5811C48.9443 34.0233 49.1412 34.7813 49.1412 35.6025V39.0768H47.6314V35.5394C47.6314 35.5253 47.6315 35.5108 47.6316 35.4959L47.6319 35.4559C47.6358 35.0016 47.6419 34.276 46.7781 34.276C46.3842 34.276 45.3996 34.4023 45.3996 35.792V39.14H43.8899V30.17H45.3996V33.4548C45.7935 33.0758 46.3186 32.9495 46.8437 32.9495ZM41.658 36.0447C41.658 36.6029 41.1879 37.0554 40.6078 37.0554C40.0278 37.0554 39.5576 36.6029 39.5576 36.0447C39.5576 35.4865 40.0278 35.034 40.6078 35.034C41.1879 35.034 41.658 35.4865 41.658 36.0447ZM20.5872 37.7503C21.4405 37.7503 22.2283 37.4345 22.7533 36.9291L22.9503 36.7396L23.9349 37.6871L23.738 37.8766C22.9503 38.6978 21.7687 39.14 20.5872 39.14C18.1585 39.14 16.3205 37.2449 16.3205 34.7813C16.3205 32.3177 18.1585 30.4226 20.6528 30.4859C21.8344 30.4859 22.9503 30.9281 23.8037 31.7492L24.0006 31.9388L23.0159 32.8862L22.819 32.6968C22.2282 32.1282 21.4405 31.8124 20.6528 31.8124C18.9462 31.8124 17.7647 33.0758 17.7647 34.7813C17.7647 36.4869 18.9462 37.7503 20.5872 37.7503Z" fill="#F2F2F2"/>
<path fill-rule="evenodd" clip-rule="evenodd" d="M33 0.5L66 17.75V52.25L33 69.5L0 52.25V17.75L33 0.5ZM0.71739 18.1603L33 1.28532L65.2825 18.1603V51.8397L33 68.7145L0.71739 51.8397V18.1603Z" fill="#F2F2F2"/>
</g>
<defs>
<clipPath id="clip0_189:3072">
<rect width="66" height="69" fill="white" transform="translate(0 0.5)"/>
</clipPath>
</defs>
</svg>
