<svg width="66" height="70" viewBox="0 0 66 70" fill="none" xmlns="http://www.w3.org/2000/svg">
<g clip-path="url(#clip0_189:3047)">
<path d="M56.3152 25.34V24.995H9.68481V25.34H56.3152Z" fill="#F2F2F2"/>
<path fill-rule="evenodd" clip-rule="evenodd" d="M33.8793 15.8343C33.968 15.6524 34.0124 15.4407 34.0124 15.1993V15.0898C34.0124 14.8494 33.9669 14.6377 33.8758 14.4547C33.7859 14.2705 33.658 14.1295 33.4922 14.0319C33.3276 13.933 33.139 13.8836 32.9265 13.8836C32.714 13.8836 32.5249 13.933 32.359 14.0319C32.1944 14.1295 32.0666 14.2705 31.9755 14.4547C31.8856 14.6377 31.8406 14.85 31.8406 15.0915V15.2127C31.8418 15.4486 31.8879 15.6574 31.979 15.8394C32.0701 16.0202 32.1985 16.1594 32.3643 16.2571C32.5301 16.3549 32.7187 16.4037 32.93 16.4037C33.1437 16.4037 33.3328 16.3543 33.4975 16.2555C33.6633 16.1567 33.7905 16.0162 33.8793 15.8343ZM33.3364 14.5018C33.4321 14.6355 33.48 14.8309 33.48 15.088V15.2077C33.4788 15.4626 33.4309 15.6569 33.3364 15.7905C33.2418 15.9231 33.1063 15.9893 32.93 15.9893C32.7502 15.9893 32.6124 15.9202 32.5167 15.7821C32.4209 15.644 32.3731 15.4497 32.3731 15.1993V15.0797C32.3742 14.8247 32.4227 14.6315 32.5184 14.5001C32.6142 14.3676 32.7502 14.3014 32.9265 14.3014C33.104 14.3014 33.2406 14.3682 33.3364 14.5018Z" fill="#F2F2F2"/>
<path d="M30.8124 14.3266H31.5935V13.9172H29.5164V14.3266H30.287V16.37H30.8124V14.3266Z" fill="#F2F2F2"/>
<path fill-rule="evenodd" clip-rule="evenodd" d="M34.9913 15.5058V16.37H34.4658V13.9172H35.4607C35.6521 13.9172 35.8203 13.9509 35.9651 14.0183C36.111 14.0857 36.2231 14.1817 36.3013 14.3064C36.3796 14.4299 36.4187 14.5708 36.4187 14.7292C36.4187 14.9695 36.3329 15.1594 36.1612 15.2986C35.9908 15.4367 35.7543 15.5058 35.4519 15.5058H34.9913ZM34.9913 15.0964H35.4607C35.5996 15.0964 35.7053 15.065 35.7776 15.0021C35.8512 14.9392 35.888 14.8494 35.888 14.7326C35.888 14.6124 35.8512 14.5153 35.7776 14.4412C35.7041 14.367 35.6025 14.3288 35.4729 14.3266H34.9913V15.0964Z" fill="#F2F2F2"/>
<path d="M19.9933 18.4022L19.6501 20.1474L19.2315 18.4022H18.7866L18.3663 20.1441L18.0212 18.4022H17.4976L18.0633 20.855H18.5922L19.0073 19.2142L19.4224 20.855H19.9513L20.517 18.4022H19.9933Z" fill="#F2F2F2"/>
<path d="M22.4085 19.792H21.3997V20.449H22.5837V20.855H20.8743V18.4022H22.5802V18.8116H21.3997V19.3961H22.4085V19.792Z" fill="#F2F2F2"/>
<path fill-rule="evenodd" clip-rule="evenodd" d="M22.9636 18.4022V20.855H23.955C24.2446 20.8527 24.4676 20.791 24.624 20.6697C24.7805 20.5484 24.8587 20.3698 24.8587 20.1339C24.8587 19.9958 24.8208 19.8791 24.7449 19.7836C24.6701 19.6881 24.5674 19.6246 24.4366 19.5932C24.551 19.5506 24.6404 19.4838 24.7046 19.3928C24.7688 19.3007 24.8009 19.1945 24.8009 19.0744C24.8009 18.8543 24.7209 18.6875 24.5609 18.5741C24.401 18.4595 24.1663 18.4022 23.8569 18.4022H22.9636ZM23.4891 20.449V19.7869H23.9708C24.2124 19.7903 24.3333 19.9043 24.3333 20.1289C24.3333 20.2289 24.2983 20.3075 24.2282 20.3648C24.1593 20.4209 24.063 20.449 23.9392 20.449H23.4891ZM23.8779 19.4298H23.4891V18.8116H23.8569C24.0017 18.8116 24.1074 18.8363 24.1739 18.8857C24.2416 18.934 24.2755 19.0137 24.2755 19.1249C24.2755 19.3237 24.143 19.4253 23.8779 19.4298Z" fill="#F2F2F2"/>
<path fill-rule="evenodd" clip-rule="evenodd" d="M26.2913 20.855V18.4022H27.0759C27.3001 18.4022 27.5003 18.4511 27.6767 18.5488C27.8541 18.6454 27.9925 18.7835 28.0918 18.9632C28.191 19.1418 28.2406 19.345 28.2406 19.573V19.6859C28.2406 19.9139 28.1916 20.1165 28.0935 20.294C27.9966 20.4715 27.8594 20.609 27.6819 20.7067C27.5044 20.8044 27.3042 20.8538 27.0812 20.855H26.2913ZM26.8167 18.8116V20.449H27.0707C27.2762 20.449 27.4332 20.3844 27.5418 20.2553C27.6504 20.1261 27.7058 19.9414 27.7082 19.701V19.5713C27.7082 19.322 27.6545 19.1333 27.5471 19.0053C27.4397 18.8761 27.2826 18.8116 27.0759 18.8116H26.8167Z" fill="#F2F2F2"/>
<path d="M29.2214 19.792H30.2303V19.3961H29.2214V18.8116H30.4019V18.4022H28.696V20.855H30.4054V20.449H29.2214V19.792Z" fill="#F2F2F2"/>
<path d="M31.7277 20.2468L32.3057 18.4022H32.8907L32.0028 20.855H31.4545L30.5701 18.4022H31.1533L31.7277 20.2468Z" fill="#F2F2F2"/>
<path d="M33.7296 19.792H34.7384V19.3961H33.7296V18.8116H34.9101V18.4022H33.2041V20.855H34.9135V20.449H33.7296V19.792Z" fill="#F2F2F2"/>
<path d="M35.8189 20.449H36.9346V20.855H35.2935V18.4022H35.8189V20.449Z" fill="#F2F2F2"/>
<path fill-rule="evenodd" clip-rule="evenodd" d="M39.1588 20.3193C39.2476 20.1374 39.2919 19.9257 39.2919 19.6842V19.5747C39.2919 19.3344 39.2463 19.1227 39.1553 18.9396C39.0654 18.7555 38.9375 18.6145 38.7717 18.5169C38.6071 18.418 38.4185 18.3686 38.206 18.3686C37.9935 18.3686 37.8043 18.418 37.6385 18.5169C37.4739 18.6145 37.346 18.7555 37.255 18.9396C37.165 19.1227 37.1201 19.3349 37.1201 19.5764V19.6977C37.1213 19.9335 37.1674 20.1424 37.2585 20.3244C37.3495 20.5052 37.478 20.6444 37.6438 20.7421C37.8096 20.8399 37.9982 20.8887 38.2095 20.8887C38.4232 20.8887 38.6123 20.8393 38.777 20.7405C38.9428 20.6416 39.0701 20.5012 39.1588 20.3193ZM38.6158 18.9868C38.7116 19.1205 38.7595 19.3159 38.7595 19.573V19.6927C38.7583 19.9476 38.7104 20.1419 38.6158 20.2755C38.5213 20.408 38.3858 20.4743 38.2095 20.4743C38.0297 20.4743 37.8919 20.4052 37.7962 20.2671C37.7004 20.129 37.6525 19.9347 37.6525 19.6842V19.5646C37.6537 19.3097 37.7022 19.1165 37.7979 18.9851C37.8936 18.8526 38.0297 18.7864 38.206 18.7864C38.3835 18.7864 38.5201 18.8532 38.6158 18.9868Z" fill="#F2F2F2"/>
<path fill-rule="evenodd" clip-rule="evenodd" d="M40.2708 19.9908V20.855H39.7454V18.4022H40.7402C40.9317 18.4022 41.0998 18.4359 41.2446 18.5033C41.3905 18.5707 41.5027 18.6667 41.5809 18.7914C41.6591 18.9149 41.6982 19.0558 41.6982 19.2142C41.6982 19.4545 41.6124 19.6443 41.4408 19.7836C41.2703 19.9217 41.0338 19.9908 40.7314 19.9908H40.2708ZM40.2708 19.5814H40.7402C40.8791 19.5814 40.9848 19.55 41.0572 19.4871C41.1308 19.4242 41.1675 19.3344 41.1675 19.2175C41.1675 19.0974 41.1308 19.0003 41.0572 18.9261C40.9836 18.852 40.882 18.8138 40.7524 18.8116H40.2708V19.5814Z" fill="#F2F2F2"/>
<path d="M42.658 19.792H43.6668V19.3961H42.658V18.8116H43.8384V18.4022H42.1326V20.855H43.842V20.449H42.658V19.792Z" fill="#F2F2F2"/>
<path fill-rule="evenodd" clip-rule="evenodd" d="M45.166 19.9571H44.7474V20.855H44.2219V18.4022H45.1695C45.4707 18.4022 45.703 18.4668 45.8665 18.596C46.03 18.7251 46.1117 18.9076 46.1117 19.1435C46.1117 19.3108 46.0738 19.4506 45.9979 19.5629C45.9231 19.6741 45.8093 19.7628 45.6564 19.829L46.208 20.8314V20.855H45.6441L45.166 19.9571ZM44.7474 19.5477H45.1712C45.3031 19.5477 45.4053 19.5157 45.4777 19.4517C45.5501 19.3866 45.5863 19.2973 45.5863 19.1839C45.5863 19.0682 45.5518 18.9772 45.4829 18.911C45.4152 18.8447 45.3107 18.8116 45.1695 18.8116H44.7474V19.5477Z" fill="#F2F2F2"/>
<path d="M47.8018 19.9925C47.8719 20.0431 47.907 20.1161 47.907 20.2115C47.907 20.2991 47.8719 20.3676 47.8018 20.417C47.7318 20.4653 47.6343 20.4894 47.5094 20.4894C47.1731 20.4894 47.0049 20.3541 47.0049 20.0834H46.4778C46.4778 20.2419 46.5198 20.3811 46.6039 20.5012C46.6891 20.6214 46.8123 20.7163 46.9734 20.7859C47.1346 20.8544 47.3132 20.8887 47.5094 20.8887C47.7919 20.8887 48.0167 20.8286 48.1837 20.7085C48.3506 20.5871 48.4341 20.4204 48.4341 20.2081C48.4341 20.0172 48.3658 19.8578 48.2292 19.7297C48.0926 19.6017 47.8748 19.4944 47.5759 19.408C47.4136 19.3608 47.2904 19.3102 47.2064 19.2563C47.1234 19.2024 47.082 19.1356 47.082 19.0559C47.082 18.9705 47.1176 18.902 47.1888 18.8504C47.2601 18.7976 47.3599 18.7712 47.4883 18.7712C47.6215 18.7712 47.7248 18.8026 47.7983 18.8655C47.8719 18.9273 47.9087 19.0144 47.9087 19.1266H48.4341C48.4341 18.9795 48.3945 18.8481 48.315 18.7325C48.2368 18.6168 48.1265 18.5275 47.984 18.4646C47.8416 18.4006 47.6792 18.3686 47.4971 18.3686C47.3161 18.3686 47.1527 18.3978 47.0067 18.4562C46.8619 18.5146 46.7504 18.596 46.6722 18.7004C46.5951 18.8038 46.5566 18.9217 46.5566 19.0542C46.5566 19.3091 46.7013 19.5119 46.991 19.6623C47.0972 19.7173 47.2414 19.7735 47.4235 19.8308C47.6057 19.8869 47.7318 19.9408 47.8018 19.9925Z" fill="#F2F2F2"/>
<path d="M56.3152 44.66V45.005H9.68481V44.66H56.3152Z" fill="#F2F2F2"/>
<path d="M30.5791 52.4225H28.7438V52.0722L29.61 51.1843C29.7289 51.0594 29.8165 50.9503 29.8729 50.8571C29.9306 50.764 29.9593 50.6755 29.9593 50.5918C29.9593 50.4774 29.9293 50.3878 29.8692 50.323C29.8092 50.2569 29.7234 50.2239 29.6118 50.2239C29.4916 50.2239 29.3966 50.264 29.3267 50.3442C29.2581 50.4232 29.2238 50.5275 29.2238 50.6572H28.6904C28.6904 50.5004 28.7291 50.3572 28.8063 50.2274C28.8847 50.0977 28.9951 49.9963 29.1373 49.9232C29.2795 49.8489 29.4408 49.8118 29.621 49.8118C29.8968 49.8118 30.1108 49.8754 30.2628 50.0028C30.4161 50.1301 30.4927 50.31 30.4927 50.5423C30.4927 50.6696 30.4583 50.7993 30.3897 50.9314C30.321 51.0635 30.2033 51.2174 30.0366 51.393L29.4279 52.0104H30.5791V52.4225Z" fill="#F2F2F2"/>
<path fill-rule="evenodd" clip-rule="evenodd" d="M32.784 51.3577C32.784 51.7138 32.7073 51.9862 32.5541 52.1749C32.4009 52.3635 32.1765 52.4579 31.881 52.4579C31.5892 52.4579 31.3661 52.3653 31.2116 52.1802C31.0571 51.9951 30.9781 51.7297 30.9744 51.3842V50.9102C30.9744 50.5505 31.0516 50.2775 31.2061 50.0912C31.3618 49.9049 31.5856 49.8118 31.8774 49.8118C32.1691 49.8118 32.3923 49.9043 32.5467 50.0895C32.7012 50.2734 32.7803 50.5382 32.784 50.8836V51.3577ZM32.2525 50.8377C32.2525 50.6242 32.2218 50.4692 32.1605 50.3724C32.1005 50.2746 32.0061 50.2256 31.8774 50.2256C31.7523 50.2256 31.6597 50.2722 31.5997 50.3654C31.5408 50.4574 31.5095 50.6018 31.5059 50.7988V51.4249C31.5059 51.6348 31.5353 51.7911 31.5942 51.8936C31.6542 51.9951 31.7498 52.0458 31.881 52.0458C32.011 52.0458 32.1048 51.9968 32.1624 51.8989C32.22 51.8011 32.25 51.6513 32.2525 51.4497V50.8377Z" fill="#F2F2F2"/>
<path d="M33.2198 52.4225H35.0552V52.0104H33.9039L34.5127 51.393C34.6794 51.2174 34.7971 51.0635 34.8657 50.9314C34.9344 50.7993 34.9687 50.6696 34.9687 50.5423C34.9687 50.31 34.8921 50.1301 34.7389 50.0028C34.5868 49.8754 34.3729 49.8118 34.097 49.8118C33.9168 49.8118 33.7556 49.8489 33.6134 49.9232C33.4712 49.9963 33.3608 50.0977 33.2823 50.2274C33.2051 50.3572 33.1665 50.5004 33.1665 50.6572H33.6998C33.6998 50.5275 33.7342 50.4232 33.8028 50.3442C33.8727 50.264 33.9677 50.2239 34.0878 50.2239C34.1994 50.2239 34.2852 50.2569 34.3453 50.323C34.4054 50.3878 34.4354 50.4774 34.4354 50.5918C34.4354 50.6755 34.4066 50.764 34.349 50.8571C34.2926 50.9503 34.2049 51.0594 34.086 51.1843L33.2198 52.0722V52.4225Z" fill="#F2F2F2"/>
<path fill-rule="evenodd" clip-rule="evenodd" d="M37.2601 51.3577C37.2601 51.7138 37.1835 51.9862 37.0302 52.1749C36.877 52.3635 36.6526 52.4579 36.3571 52.4579C36.0653 52.4579 35.8421 52.3653 35.6877 52.1802C35.5332 51.9951 35.4541 51.7297 35.4504 51.3842V50.9102C35.4504 50.5505 35.5277 50.2775 35.6822 50.0912C35.8379 49.9049 36.0616 49.8118 36.3534 49.8118C36.6452 49.8118 36.8684 49.9043 37.0228 50.0895C37.1773 50.2734 37.2564 50.5382 37.2601 50.8836V51.3577ZM36.7286 50.8377C36.7286 50.6242 36.6979 50.4692 36.6366 50.3724C36.5766 50.2746 36.4822 50.2256 36.3534 50.2256C36.2284 50.2256 36.1358 50.2722 36.0757 50.3654C36.0169 50.4574 35.9856 50.6018 35.982 50.7988V51.4249C35.982 51.6348 36.0114 51.7911 36.0702 51.8936C36.1303 51.9951 36.2259 52.0458 36.3571 52.0458C36.4871 52.0458 36.5809 51.9968 36.6384 51.8989C36.6961 51.8011 36.7261 51.6513 36.7286 51.4497V50.8377Z" fill="#F2F2F2"/>
<path fill-rule="evenodd" clip-rule="evenodd" d="M63.4888 19.2784L32.9999 3.4325L2.51074 19.2784V50.9703L32.9999 66.8161L63.4888 50.9703V19.2784ZM32.9999 6.17752L5.02161 20.7185V27.755H60.9784V20.7185L32.9999 6.17752ZM60.9784 42.245H5.02161V49.5302L32.9999 64.0714L60.9784 49.5302V42.245ZM26.3637 30.17H24.8539V39.14H26.3637V30.17ZM30.0396 37.8134C30.4334 37.8134 31.615 37.6871 31.615 36.2974V33.0758H33.1247V39.14H31.615V38.6346C31.2211 39.0137 30.5647 39.14 30.0396 39.14C29.3175 39.14 28.7268 38.9504 28.2672 38.5083C27.7421 38.0661 27.4795 37.3081 27.4795 36.4869V33.0758H28.9893V36.5501C28.9893 36.9923 29.1206 37.8134 30.0396 37.8134ZM34.5688 30.8648H36.0786V33.0758H37.1659V34.4655H36.0786V39.14H34.5688V34.4655H33.5472V33.0758H34.5688V30.8648ZM40.6734 37.7503C41.1329 37.7503 41.5924 37.5608 41.9207 37.3081L42.1176 37.1186L43.1678 38.1293L42.9053 38.3188C42.3145 38.8241 41.5268 39.14 40.6734 39.14C38.8355 39.14 37.4571 37.8134 37.4571 36.0447C37.4571 34.276 38.8355 32.9495 40.6734 32.9495C41.5268 32.9495 42.3145 33.2653 42.9053 33.7706L43.1678 33.9602L42.1176 34.9077L41.9207 34.7182C41.5924 34.4023 41.1329 34.276 40.6734 34.276C39.6232 34.276 38.9011 34.9709 38.9011 35.9816C38.9011 36.9923 39.6232 37.7503 40.6734 37.7503ZM46.8437 32.9495C47.5658 32.9495 48.0253 33.1389 48.4847 33.5811C48.9443 34.0233 49.1412 34.7813 49.1412 35.6025V39.0768H47.6314V35.5394C47.6314 35.5253 47.6315 35.5108 47.6316 35.4959L47.6319 35.4559C47.6358 35.0016 47.6419 34.276 46.7781 34.276C46.3842 34.276 45.3996 34.4023 45.3996 35.792V39.14H43.8899V30.17H45.3996V33.4548C45.7935 33.0758 46.3186 32.9495 46.8437 32.9495ZM41.658 36.0447C41.658 36.6029 41.1879 37.0554 40.6078 37.0554C40.0278 37.0554 39.5576 36.6029 39.5576 36.0447C39.5576 35.4865 40.0278 35.034 40.6078 35.034C41.1879 35.034 41.658 35.4865 41.658 36.0447ZM20.5872 37.7503C21.4405 37.7503 22.2283 37.4345 22.7533 36.9291L22.9503 36.7396L23.9349 37.6871L23.738 37.8766C22.9503 38.6978 21.7687 39.14 20.5872 39.14C18.1585 39.14 16.3205 37.2449 16.3205 34.7813C16.3205 32.3177 18.1585 30.4226 20.6528 30.4859C21.8344 30.4859 22.9503 30.9281 23.8037 31.7492L24.0006 31.9388L23.0159 32.8862L22.819 32.6968C22.2282 32.1282 21.4405 31.8124 20.6528 31.8124C18.9462 31.8124 17.7647 33.0758 17.7647 34.7813C17.7647 36.4869 18.9462 37.7503 20.5872 37.7503Z" fill="#F2F2F2"/>
<path fill-rule="evenodd" clip-rule="evenodd" d="M66 17.75L33 0.5L0 17.75V52.25L33 69.5L66 52.25V17.75ZM33 1.28532L0.71739 18.1603V51.8397L33 68.7145L65.2825 51.8397V18.1603L33 1.28532Z" fill="#F2F2F2"/>
</g>
<defs>
<clipPath id="clip0_189:3047">
<rect width="66" height="69" fill="white" transform="translate(0 0.5)"/>
</clipPath>
</defs>
</svg>
