<svg width="127" height="44" viewBox="0 0 127 44" fill="none" xmlns="http://www.w3.org/2000/svg">
<g clip-path="url(#clip0_396:281)">
<path d="M8.813 17.6C6.49379 17.6 4.26735 16.6638 2.59752 14.9787C0.927684 13.4809 0 11.234 0 8.8C0 6.45957 0.927684 4.21277 2.59752 2.62128C4.26735 0.93617 6.49379 0 8.813 0C11.0394 0 13.1731 0.842553 14.7502 2.43404L13.0804 4.11915C11.9671 2.99574 10.3901 2.34043 8.813 2.43404C7.14317 2.43404 5.56611 3.08936 4.36012 4.30638C3.15413 5.5234 2.50475 7.11489 2.50475 8.8C2.50475 10.4851 3.15413 12.0766 4.36012 13.2936C6.7721 15.7277 10.6684 15.8213 13.1731 13.3872C13.9153 12.5447 14.3791 11.5149 14.4719 10.3915H8.90577V8.05106H16.8839C16.9766 8.51915 16.9766 9.08085 16.9766 9.54894C17.0694 11.6085 16.3272 13.6681 14.9357 15.166C13.3587 16.8511 11.1322 17.6936 8.813 17.6ZM27.4595 16.0085C25.233 18.1617 21.7078 18.1617 19.4814 16.0085C18.3682 14.9787 17.8115 13.4809 17.8115 11.983C17.8115 10.4851 18.3682 8.98723 19.4814 7.95745C21.7078 5.80426 25.233 5.80426 27.4595 7.95745C28.5727 8.98723 29.1293 10.4851 29.1293 11.983C29.1293 13.4809 28.5727 14.9787 27.4595 16.0085ZM21.244 14.417C22.45 15.7277 24.4909 15.7277 25.6969 14.417C26.3462 13.7617 26.6245 12.9191 26.6245 11.983C26.6245 11.0468 26.3462 10.2043 25.6969 9.54894C24.4909 8.2383 22.45 8.2383 21.244 9.54894C20.5946 10.2043 20.2235 11.1404 20.3163 11.983C20.2235 12.9191 20.5946 13.7617 21.244 14.417ZM39.7977 16.0085C37.5712 18.1617 34.046 18.1617 31.8196 16.0085C30.7064 14.9787 30.1497 13.4809 30.1497 11.983C30.1497 10.4851 30.7064 8.98723 31.8196 7.95745C34.046 5.80426 37.5712 5.80426 39.7977 7.95745C40.9109 8.98723 41.4675 10.4851 41.4675 11.983C41.4675 13.4809 40.8181 14.9787 39.7977 16.0085ZM33.5822 14.417C34.7882 15.7277 36.8291 15.7277 38.0351 14.417C38.6844 13.7617 38.9627 12.9191 38.9627 11.983C38.9627 11.0468 38.6844 10.2043 38.0351 9.54894C36.8291 8.2383 34.7882 8.2383 33.5822 9.54894C32.9328 10.2043 32.6545 11.1404 32.6545 11.983C32.5617 12.9191 32.9328 13.7617 33.5822 14.417ZM47.8685 22.7489C46.7553 22.7489 45.6421 22.4681 44.7144 21.7192C43.8795 21.0638 43.3229 20.3149 42.859 19.3787L44.9927 18.4426C45.271 19.0043 45.5493 19.4723 46.1059 19.8468C46.5698 20.2213 47.2191 20.5021 47.8685 20.4085C48.7034 20.5021 49.4456 20.1277 50.095 19.566C50.6516 18.9106 50.9299 17.9745 50.8371 17.1319V16.2894H50.7443C50.0022 17.1319 48.889 17.6 47.7757 17.6C46.3842 17.6 44.9927 17.0383 43.9722 15.9149C42.9518 14.8851 42.3024 13.3872 42.3952 11.8894C42.3952 10.3915 42.9518 8.89362 43.9722 7.86383C44.8999 6.83404 46.2915 6.17872 47.7757 6.17872C48.3324 6.17872 48.9817 6.27234 49.5383 6.55319C50.0022 6.74043 50.466 7.11489 50.7443 7.48936H50.8371V6.55319H53.1563V16.8511C53.2491 18.4426 52.6925 20.034 51.672 21.2511C50.6516 22.2809 49.26 22.7489 47.8685 22.7489ZM48.0541 15.4468C48.889 15.4468 49.6311 15.0723 50.1877 14.5106C50.7443 13.8553 51.1154 12.9191 51.0226 12.0766C51.0226 11.1404 50.7443 10.2979 50.1877 9.54894C49.6311 8.89362 48.889 8.61277 48.0541 8.61277C47.2191 8.61277 46.3842 8.89362 45.8276 9.54894C45.1782 10.2043 44.8999 11.1404 44.8999 11.983C44.8999 12.9191 45.271 13.7617 45.8276 14.417C46.3842 15.0723 47.2191 15.4468 48.0541 15.4468ZM57.3309 17.3191H54.8261V0.655319H57.3309V17.3191ZM64.103 17.6C62.6187 17.6 61.1344 17.0383 60.114 16.0085C59.0935 14.9787 58.4441 13.4809 58.5369 11.983C58.4441 10.4851 59.0007 8.98723 60.114 7.86383C61.1344 6.83404 62.4332 6.27234 63.9175 6.27234C64.5668 6.27234 65.2162 6.36596 65.7728 6.64681C66.3294 6.83404 66.7933 7.20851 67.2571 7.58298C67.6282 7.95745 67.9065 8.33191 68.1848 8.70638C68.3703 9.08085 68.5559 9.45532 68.7414 9.82979L69.0197 10.4851L61.5055 13.5745C61.9693 14.6979 63.0825 15.3532 64.1958 15.2596C65.309 15.2596 66.4222 14.6979 66.9788 13.6681L68.8342 14.9787C68.3703 15.634 67.721 16.2894 66.9788 16.7574C66.1439 17.4128 65.1234 17.6936 64.103 17.6ZM60.9489 11.7957L65.9584 9.73617C65.8656 9.3617 65.5873 8.98723 65.2162 8.8C64.8451 8.61277 64.3813 8.42553 63.9175 8.42553C63.1753 8.42553 62.4332 8.8 61.8765 9.3617C61.2272 10.017 60.8561 10.8596 60.9489 11.7957Z" fill="white"/>
<path d="M81.8218 17.6C79.6881 17.6 77.6472 16.7574 76.1629 15.2596C74.6786 13.7617 73.8437 11.7021 73.9364 9.54893C73.8437 7.39574 74.6786 5.33616 76.1629 3.83829C77.6472 2.34042 79.6881 1.49786 81.8218 1.49786C83.9554 1.40425 85.9963 2.34042 87.3879 4.02552L85.9963 5.33616C84.9759 4.02552 83.3988 3.27659 81.729 3.3702C80.1519 3.3702 78.6676 3.93191 77.5544 5.05531C76.4412 6.27233 75.7918 7.86382 75.8846 9.45531C75.7918 11.1404 76.4412 12.7319 77.5544 13.8553C78.6676 14.9787 80.1519 15.5404 81.729 15.5404C83.5844 15.5404 85.2542 14.6979 86.4602 13.2936L87.8517 14.6979C87.2023 15.7277 86.3674 16.4766 85.347 16.8511C84.2337 17.4128 83.0277 17.6936 81.8218 17.6Z" fill="white"/>
<path d="M89.6143 17.3192H91.5625V1.87234H89.6143V17.3192Z" fill="white"/>
<path d="M94.8094 8.05107C96.943 5.89787 100.375 5.89787 102.509 8.05107C103.53 9.17447 104.086 10.5787 103.993 12.0766C103.993 13.5745 103.53 14.9787 102.509 16.1021C100.375 18.2553 96.943 18.2553 94.8094 16.1021C93.7889 14.9787 93.2323 13.5745 93.3251 12.0766C93.2323 10.5787 93.7889 9.08085 94.8094 8.05107ZM96.2009 14.7915C97.4997 16.1957 99.7261 16.1957 101.025 14.7915C101.674 14.0426 102.045 13.0128 102.045 11.983C102.045 10.9532 101.767 9.92341 101.025 9.17447C99.7261 7.77021 97.4997 7.77021 96.2009 9.17447C95.5515 9.92341 95.1804 10.9532 95.1804 11.983C95.1804 13.0128 95.5515 14.0426 96.2009 14.7915Z" fill="white"/>
<path d="M114.847 17.3192H112.992V15.8213H112.899C112.528 16.383 112.064 16.8511 111.508 17.1319C110.951 17.5064 110.209 17.6936 109.56 17.6936C108.446 17.7872 107.333 17.3192 106.591 16.4766C105.849 15.5404 105.478 14.417 105.571 13.2936V6.74043H107.519V12.8255C107.519 14.7915 108.354 15.7277 110.116 15.7277C110.858 15.7277 111.6 15.3532 112.064 14.7915C112.528 14.1362 112.806 13.2936 112.806 12.5447V6.74043H114.755V17.3192H114.847Z" fill="white"/>
<path d="M121.434 17.6C120.135 17.6 118.836 17.0383 117.909 16.0085C116.888 14.8851 116.424 13.4809 116.424 11.983C116.424 10.4851 116.888 9.08086 117.909 7.95745C118.744 6.92766 120.042 6.36596 121.434 6.36596C122.176 6.36596 122.918 6.5532 123.568 6.92766C124.124 7.20852 124.588 7.6766 124.959 8.2383H125.052L124.959 6.74043V1.87234H126.907V17.2255H125.052V15.7277H124.959C124.588 16.2894 124.124 16.7575 123.568 17.0383C122.918 17.5064 122.176 17.6 121.434 17.6ZM121.805 15.8213C122.733 15.8213 123.568 15.4468 124.124 14.7915C124.774 14.0426 125.145 13.0128 125.052 11.983C125.145 10.9532 124.774 10.017 124.124 9.17447C122.825 7.77022 120.692 7.77022 119.393 9.17447C118.744 9.92341 118.373 10.9532 118.465 11.983C118.373 13.0128 118.744 13.9489 119.393 14.7915C120.042 15.4468 120.877 15.8213 121.805 15.8213Z" fill="white"/>
<path d="M3.71073 36.6979V43.7191H1.48428V26.4H7.3287C8.81299 26.4 10.1117 26.8681 11.1322 27.8979C12.1527 28.9277 12.7093 30.1447 12.7093 31.5489C12.7093 33.0468 12.1527 34.2638 11.1322 35.2C10.1117 36.1362 8.81299 36.6979 7.3287 36.6979H3.71073ZM3.71073 28.4596V34.4511H7.42146C8.25638 34.4511 8.99853 34.1702 9.55514 33.5149C10.1117 32.9532 10.4828 32.2042 10.4828 31.3617C10.4828 30.5191 10.2045 29.8638 9.55514 29.3021C8.99853 28.6468 8.25638 28.366 7.42146 28.366H3.71073V28.4596Z" fill="white"/>
<path d="M18.5537 31.4553C20.2235 31.4553 21.4295 31.9234 22.45 32.766C23.3776 33.6085 23.8415 34.8255 23.8415 36.417V43.7192H21.7078V42.034H21.615C20.6874 43.3447 19.4814 44.0936 17.9971 44.0936C16.6983 44.0936 15.5851 43.7192 14.7502 42.9702C13.9153 42.1277 13.4514 41.1915 13.4514 39.9745C13.4514 38.7574 13.9153 37.8213 14.8429 37.0723C15.7706 36.3234 16.9766 35.9489 18.5537 35.9489C19.8524 35.9489 20.9657 36.2298 21.8006 36.6979V36.2298C21.8006 35.4809 21.5223 34.8255 20.8729 34.2638C20.2235 33.7021 19.5741 33.4213 18.7392 33.4213C17.5332 33.4213 16.5128 33.983 15.8634 35.0128L13.9153 33.7957C14.9357 32.2043 16.5128 31.4553 18.5537 31.4553ZM15.6779 40.0681C15.6779 40.6298 15.9562 41.0979 16.42 41.4723C16.8838 41.8468 17.4405 42.034 18.0898 42.034C19.0175 42.034 19.8524 41.6596 20.5946 41.0043C21.3367 40.3489 21.7078 39.5064 21.7078 38.5702C21.0584 38.0085 20.038 37.7277 18.832 37.7277C17.9043 37.7277 17.1622 37.9149 16.6055 38.383C16.0489 38.8511 15.6779 39.4128 15.6779 40.0681Z" fill="white"/>
<path d="M26.3462 31.8298H28.4799V33.7957H28.5727C29.222 32.2979 30.6136 31.5489 32.6545 31.5489L33.1183 31.6425V33.983L32.0979 33.8893C31.0774 33.8893 30.2425 34.1702 29.5931 34.8255C28.9437 35.4808 28.5727 36.2298 28.5727 37.2596V43.8128H26.3462V31.8298ZM40.076 43.8128C39.1483 43.8128 38.3133 43.5319 37.664 42.8766C37.0146 42.3149 36.7363 41.4723 36.7363 40.3489V33.7021H34.6954V31.8298H36.7363V28.1787H38.9627V31.8298H41.7458V33.8893H38.87V39.7872C38.87 40.5362 39.0555 41.0979 39.3338 41.3787C39.6121 41.6596 39.9832 41.8468 40.3543 41.8468C40.5398 41.8468 40.7253 41.8468 40.9109 41.7532C41.0964 41.7532 41.1892 41.6596 41.3747 41.5659L42.0241 43.5319C41.4675 43.7191 40.8181 43.8128 40.076 43.8128Z" fill="white"/>
<path d="M43.9722 31.8298H46.1059V33.5149H46.1987C46.5697 32.9532 47.0336 32.4851 47.7757 32.1106C48.4251 31.7362 49.1673 31.5489 49.9094 31.5489C51.3009 31.5489 52.4142 31.9234 53.2491 32.7659C53.9912 33.6085 54.4551 34.7319 54.4551 36.3234V43.7191H52.2286V36.417C52.1358 34.451 51.2082 33.5149 49.3528 33.5149C48.5179 33.5149 47.7757 33.8893 47.1264 34.5447C46.5697 35.2936 46.1987 36.1362 46.1987 37.0723V43.6255H43.9722V31.8298Z" fill="white"/>
<path d="M62.2476 44C60.485 44 59.0935 43.4383 57.9803 42.2213C56.867 41.0043 56.3104 39.5064 56.3104 37.7277C56.3104 35.9489 56.867 34.4511 57.9803 33.234C59.0935 32.017 60.485 31.4553 62.1548 31.4553C63.9174 31.4553 65.309 32.017 66.3294 33.1404C67.3499 34.2638 67.9065 35.8553 67.9065 37.9149V38.1957H58.7224C58.7224 39.3192 59.0935 40.2553 59.8356 41.0043C60.5778 41.7532 61.4127 42.034 62.4331 42.034C63.8247 42.034 64.9379 41.2851 65.7728 39.8809L67.7209 40.817C67.1643 41.8468 66.4222 42.5957 65.4945 43.1574C64.474 43.7192 63.4536 44 62.2476 44ZM58.7224 36.3234H65.4017C65.309 35.4809 65.0307 34.8255 64.3813 34.2638C63.8247 33.7021 62.9898 33.4213 61.9693 33.4213C61.1344 33.4213 60.3922 33.7021 59.8356 34.1702C59.279 34.7319 58.9079 35.4809 58.7224 36.3234Z" fill="white"/>
<path d="M71.9883 43.6255H69.7618V31.8298H71.8955V33.7957H71.9883C72.1738 33.1404 72.6377 32.6723 73.3798 32.2042C74.0292 31.7362 74.7714 31.5489 75.4207 31.5489C76.0701 31.5489 76.6267 31.6425 77.0906 31.8298L76.4412 33.983C76.1629 33.8893 75.699 33.7957 75.1424 33.7957C74.3075 33.7957 73.5654 34.1702 73.0087 34.8255C72.3594 35.4808 72.0811 36.3234 72.0811 37.1659V43.6255H71.9883Z" fill="white"/>
</g>
<defs>
<clipPath id="clip0_396:281">
<rect width="127" height="44" fill="white"/>
</clipPath>
</defs>
</svg>
