<svg xmlns="http://www.w3.org/2000/svg">
  <symbol id="arrow-left" viewBox="0 0 12 20">
    <path d="M9.8957 0.893934L1.81917 8.97046L1.81815 8.96944L1.71207 9.07552L0.893934 9.89366L0.787868 9.99973L0.893934 10.1058L9.89345 19.1053L9.99951 19.2114L10.1056 19.1053L10.9237 18.2872L11.0298 18.1811L10.9237 18.075L2.84943 10.0007L10.926 1.9242L11.032 1.81814L10.926 1.71207L10.1078 0.893934L10.0018 0.787868L9.8957 0.893934Z" stroke-width="0.3"/>
	</symbol>
  <symbol id="arrow-right" viewBox="0 0 12 20">
    <path d="M10.0007 11.0288L10.0018 11.0298L10.1078 10.9237L10.926 10.1056L11.032 9.99951L10.926 9.89344L1.92646 0.893934L1.8204 0.787868L1.71433 0.893934L0.896193 1.71207L0.790127 1.81814L0.896193 1.9242L8.97048 9.99849L0.893934 18.075L0.787868 18.1811L0.893934 18.2872L1.71207 19.1053L1.81814 19.2114L1.9242 19.1053L10.0007 11.0288Z" stroke-width="0.3"/>
	</symbol>
  <symbol id="bag" viewBox="0 0 31 38">
    <path d="M23.8249 12.6971V8.12981C23.8249 3.19711 20.4214 0 15.454 0C10.4866 0 7.17507 3.19711 7.17507 8.12981V12.6971H0L2.75964 38H28.2404L31 12.6971H23.8249ZM15.546 2.83173C18.4896 2.83173 20.8813 5.20673 20.8813 8.12981V12.6971H13.6142V20.0048H10.3027V8.12981C10.2107 5.20673 12.6024 2.83173 15.546 2.83173Z"/>
	</symbol>
  <symbol id="finance" viewBox="0 0 29 31">
    <path d="M14.4585 0C6.48137 0 0 6.31013 0 14.0764C0 19.254 2.90831 23.8652 7.22923 26.2922V30.4181H21.7708V26.2922C26.0917 23.8652 29 19.3349 29 14.0764C29 6.31013 22.5186 0 14.4585 0ZM12.9628 13.0248H16.0372C18.5301 13.0248 20.6074 15.0472 20.6074 17.4742C20.6074 19.9012 18.5301 21.9237 16.0372 21.9237V24.2697H12.9628V21.9237C10.4699 21.9237 8.39255 19.9012 8.39255 17.4742H11.467C11.467 18.2832 12.1318 18.9304 12.9628 18.9304H16.0372C16.8682 18.9304 17.533 18.2832 17.533 17.4742C17.533 16.6652 16.8682 16.018 16.0372 16.018H12.9628C10.4699 16.018 8.39255 13.9955 8.39255 11.5686C8.39255 9.1416 10.4699 7.11912 12.9628 7.11912V4.77305H16.0372V7.11912C18.5301 7.11912 20.6074 9.1416 20.6074 11.5686H17.533C17.533 10.7596 16.8682 10.1124 16.0372 10.1124H12.9628C12.1318 10.1124 11.467 10.7596 11.467 11.5686C11.467 12.3776 12.1318 13.0248 12.9628 13.0248Z"/>
	</symbol>
  <symbol id="heart" viewBox="0 0 38 32">
    <path d="M32.3189 0H24.4507L18.9514 5.5288L13.3675 0H5.58389L0 5.5288V13.2356L18.9514 32L37.8182 13.2356V5.5288L32.3189 0Z"/>
	</symbol>
  <symbol id="home" viewBox="0 0 44 36">
    <path d="M22 0L0 19.924H5.88372V36H16.6279V21.2066H26.8605V24.114H19.6124V36H38.1163V19.924H44L22 0Z"/>
	</symbol>
  <symbol id="media" viewBox="0 0 32 39">
    <path d="M17.1459 11.5151L26.5676 2.10129L24.5305 0L16.0424 8.40517L7.4695 0L5.43236 2.10129L15.0239 11.5151H0V39H32V11.5151H17.1459ZM18.2493 29.5022L13.6658 24.9634L7.4695 31.0991L5.51724 29.1659L13.7507 21.0129L18.3342 25.5517L24.6154 19.3319L26.5676 21.2651L18.2493 29.5022Z"/>
	</symbol>
  <symbol id="truk" viewBox="0 0 59 36">
    <path d="M53.4952 6.15075L43.5887 6.24121V19.809H40.1664V0H7.38486V4.34171H13.3288V7.41709H7.38486H0V10.4925H7.38486V13.206H20.4435V16.2814H7.38486H0V19.3568H7.38486V29.9397H12.9685C13.4188 33.3769 16.3007 36 19.723 36C23.2353 36 26.1172 33.3769 26.4774 29.9397H37.8249C38.2752 33.3769 41.1571 36 44.5793 36C48.0016 36 50.9735 33.3769 51.3338 29.9397H58.6286V19.809L53.4952 6.15075ZM19.723 33.0151C17.6516 33.0151 15.9405 31.2965 15.9405 29.2161C15.9405 27.1357 17.6516 25.4171 19.723 25.4171C21.7943 25.4171 23.5055 27.1357 23.5055 29.2161C23.5055 31.2965 21.7943 33.0151 19.723 33.0151ZM44.5793 33.0151C42.508 33.0151 40.7968 31.2965 40.7968 29.2161C40.7968 27.1357 42.508 25.4171 44.5793 25.4171C46.6507 25.4171 48.3618 27.1357 48.3618 29.2161C48.3618 31.2965 46.6507 33.0151 44.5793 33.0151Z"/>
	</symbol>
</svg>