<svg width="39" height="39" viewBox="0 0 39 39" fill="none" xmlns="http://www.w3.org/2000/svg">
<path d="M19.5 8.61921C12.2826 8.61921 5.90312 12.9179 2.03159 19.5C5.90312 26.0821 12.2826 30.3808 19.5 30.3808C26.7174 30.3808 33.0969 26.0821 36.9684 19.5C33.0969 12.9179 26.7174 8.61921 19.5 8.61921ZM19.5 27.829C14.9002 27.829 11.171 24.0998 11.171 19.5C11.171 14.9002 14.9002 11.171 19.5 11.171C24.0998 11.171 27.829 14.9002 27.829 19.5C27.829 24.0998 24.0998 27.829 19.5 27.829ZM19.5 14.2266C16.5868 14.2266 14.2266 16.5868 14.2266 19.5C14.2266 22.4132 16.5868 24.7734 19.5 24.7734C22.4132 24.7734 24.7734 22.4132 24.7734 19.5C24.7734 16.5868 22.4132 14.2266 19.5 14.2266ZM21.1045 19.0619C20.2174 19.0619 19.5 18.3446 19.5 17.4575C19.5 16.5703 20.2174 15.853 21.1045 15.853C21.9916 15.853 22.7089 16.5703 22.7089 17.4575C22.7089 18.3446 21.9861 19.0619 21.1045 19.0619ZM0 0V8.61921L8.61921 0H0ZM30.3808 0L39 8.61921V0H30.3808ZM39 39V30.3808L30.3808 39H39ZM0 39H8.61921L0 30.3808V39Z" fill="#FFDB3B"/>
</svg>
