<svg width="123" height="50" viewBox="0 0 123 50" fill="none" xmlns="http://www.w3.org/2000/svg">
<path d="M6.27218 38.9995H3V10.0003H31.7676C44.3863 10.0003 46.3776 21.3361 46.3776 21.3361L53.4586 10.0003H60.8787L74.4424 31.9874L70.1933 38.9986H52.3087V35.5007H72.3127L57.1606 10C57.1606 10 47.1746 27.3759 45.0309 30.7609C42.887 34.146 38.86 38.9979 31.9623 38.9979H21.2792V21.734H24.6644V35.4998H32.4499C35.893 35.4998 43.2821 32.5662 43.2821 24.2728C43.2821 15.9795 35.3836 13.3844 32.7884 13.3844H6.27188V38.9971L6.27218 38.9995ZM7.40052 38.9995V26.7006H20.038V30.0857H10.7855V38.9997H7.40037L7.40052 38.9995ZM20.038 25.2337V21.7358H10.7855V18.0257H32.0762C35.2677 18.0257 38.6563 20.6074 38.6563 24.3873C38.6563 28.1672 35.2312 30.7624 32.7889 30.7624H29.47V21.7356H25.9721V34.1475H32.7889C37.1064 34.1475 42.0977 30.4001 42.0977 24.5001C42.0977 18.6565 37.5583 14.6271 32.13 14.6271H7.40128V25.2335H20.0387L20.038 25.2337ZM41.6451 38.9995L57.1605 13.3868L69.9109 34.1477H52.3094V30.7626H63.7056L57.1613 20.0996L46.3856 39H41.6465L41.6451 38.9995Z" fill="black"/>
</svg>
