<svg width="123" height="50" viewBox="0 0 123 50" fill="none" xmlns="http://www.w3.org/2000/svg">
<path d="M17.5086 10C24.6218 10 28.1784 13.8302 28.1784 13.8302L24.8954 19.0283C24.8954 19.0283 22.1595 16.566 18.0558 16.566C12.3105 16.566 9.84821 20.3962 9.84821 24.5C9.84821 29.6981 13.4048 32.9811 17.7822 32.9811C21.0652 32.9811 23.5275 31.066 23.5275 31.066V28.8774H19.6973V23.1321H29.8199V38.4528H24.0746V37.6321C24.0746 37.0849 24.0746 36.5377 24.0746 36.5377C24.0746 36.5377 21.3388 39 16.6878 39C9.57463 39 3.00859 33.5283 3.00859 24.5C2.735 16.2925 9.02745 10 17.5086 10Z" fill="black"/>
<path d="M34.7441 10.5479H44.5932C53.3479 10.5479 59.0932 15.746 59.0932 24.5007C59.0932 33.2554 53.3479 38.4535 44.5932 38.4535H34.7441V10.5479ZM44.5932 32.4346C49.2441 32.4346 52.2536 29.6988 52.2536 24.2271C52.2536 19.029 49.2441 16.2931 44.5932 16.2931H41.8573V32.4346H44.5932Z" fill="black"/>
<path d="M64.0186 10.5479H75.5091C80.9808 10.5479 84.5374 14.6516 84.5374 20.1233C84.5374 25.8686 80.9808 29.6988 75.5091 29.6988H70.8582V38.4535H64.0186V10.5479ZM74.1412 23.9535C76.6035 23.9535 77.6978 22.312 77.6978 20.1233C77.6978 17.9346 76.6035 16.2931 74.1412 16.2931H70.5846V23.9535H74.1412Z" fill="black"/>
<path d="M88.9146 10.5479H98.7636C101.499 10.5479 102.867 10.8214 104.235 11.095C107.518 12.1894 109.433 15.1988 109.433 19.3026C109.433 22.312 108.065 25.595 105.33 26.9629C105.33 26.9629 105.603 27.5101 106.424 28.6045L111.896 38.4535H104.235L99.3108 29.1516H96.0278V38.4535H88.9146V10.5479ZM98.49 23.1328C100.679 23.1328 102.047 22.0384 102.047 19.5762C102.047 17.3875 101.226 16.2931 97.9429 16.2931H95.7542V23.1328H98.49Z" fill="black"/>
</svg>
