<svg width="123" height="50" viewBox="0 0 123 50" fill="none" xmlns="http://www.w3.org/2000/svg">
<path d="M3.00781 40V11.2109H8.96484V22.1875H20.2148V11.2109H26.1914V40H20.2148V27.1484H8.96484V40H3.00781ZM37.4609 40H31.4844V11.2109H37.4609V40ZM59.2969 20.3711C59.2969 18.8737 58.8997 17.806 58.1055 17.168C57.3242 16.5299 56.224 16.2109 54.8047 16.2109H49.1992V24.6875H54.8047C56.224 24.6875 57.3242 24.3424 58.1055 23.6523C58.8997 22.9622 59.2969 21.8685 59.2969 20.3711ZM65.2539 20.332C65.2539 23.7305 64.3945 26.1328 62.6758 27.5391C60.957 28.9453 58.5026 29.6484 55.3125 29.6484H49.1992V40H43.2227V11.2109H55.7617C58.6523 11.2109 60.957 11.9531 62.6758 13.4375C64.3945 14.9219 65.2539 17.2201 65.2539 20.332ZM74.668 29.1211H81.9727L78.3789 17.793L74.668 29.1211ZM75.0391 11.2109H81.8359L92.0312 40H85.5078L83.6523 34.082H73.0469L71.0547 40H64.7656L75.0391 11.2109ZM103.574 29.1211H110.879L107.285 17.793L103.574 29.1211ZM103.945 11.2109H110.742L120.938 40H114.414L112.559 34.082H101.953L99.9609 40H93.6719L103.945 11.2109Z" fill="black"/>
</svg>
