<svg width="39" height="45" viewBox="0 0 39 45" fill="none" xmlns="http://www.w3.org/2000/svg">
<path d="M38.9885 16.3469V11.2486L34.567 8.69651L31.4852 10.4726L23.9129 6.10423V2.55205L19.4914 0L15.0699 2.55205V7.6504L18.1517 9.42649V18.169L16.4096 19.1749L8.83149 14.8007V11.2428L4.41 8.69076L0 11.2486V16.3469L3.08182 18.123V26.877L0 28.6531V33.7514L4.4215 36.3035L7.50332 34.5274L15.0756 38.8958V42.4479L19.4971 45L23.9186 42.4479V37.3496L20.8368 35.5735V26.831L22.5789 25.8251L30.157 30.1993V33.7572L34.5785 36.3092L39 33.7572V28.6588L35.9182 26.8827V18.1288L38.9885 16.3469ZM31.4852 27.8829L23.9129 23.5087V21.497L31.4909 17.1229L33.2331 18.1288V26.8827L31.4852 27.8829ZM16.4096 36.5794L8.83724 32.211V30.1993L16.4153 25.8251L18.1575 26.831V35.5735L16.4096 36.5794ZM7.49757 17.1229L15.0756 21.497V23.5087L7.49757 27.8829L5.75542 26.877V18.1288L7.49757 17.1229ZM22.5732 8.42062L30.1455 12.789V14.8007L22.5674 19.1749L20.8253 18.169V9.42649L22.5732 8.42062Z" fill="#FFDB3B"/>
</svg>
