<svg width="39" height="38" viewBox="0 0 39 38" fill="none" xmlns="http://www.w3.org/2000/svg">
<path d="M35.0624 0H3.93174L0 3.90207V27.2153L3.93174 31.1174H13.6876L19.5 38L25.3124 31.1174H35.0683L39 27.2153V3.90207C38.9941 3.90207 35.0624 0 35.0624 0ZM32.1591 17.6847C32.1591 20.0703 30.2021 22.0126 27.7984 22.0126C25.3947 22.0126 23.4376 20.0703 23.4376 17.6847V9.81059C23.4376 9.06401 22.8264 8.45741 22.0741 8.45741C21.3219 8.45741 20.7107 9.06401 20.7107 9.81059V21.7093C20.7107 24.0949 18.7536 26.0371 16.3499 26.0371C13.9462 26.0371 11.9892 24.0949 11.9892 21.7093V14.9725C11.9892 14.2259 11.3779 13.6193 10.6257 13.6193C9.87342 13.6193 9.26221 14.2259 9.26221 14.9725V19.6678H6.26492V14.9725C6.26492 12.587 8.22197 10.6447 10.6257 10.6447C13.0294 10.6447 14.9864 12.587 14.9864 14.9725V21.7093C14.9864 22.4559 15.5977 23.0625 16.3499 23.0625C17.1022 23.0625 17.7134 22.4559 17.7134 21.7093V9.81059C17.7134 7.42502 19.6704 5.48273 22.0741 5.48273C24.4778 5.48273 26.4349 7.42502 26.4349 9.81059V17.6847C26.4349 18.4313 27.0461 19.0379 27.7984 19.0379C28.5506 19.0379 29.1618 18.4313 29.1618 17.6847V12.9777H32.1591V17.6847Z" fill="#FFDB3B"/>
</svg>
