<svg width="303" height="100" viewBox="0 0 303 100" fill="none" xmlns="http://www.w3.org/2000/svg">
<path d="M154.212 20.4814H158.387L164.568 38.6748L170.706 20.4814H174.837V42H172.068V29.2998C172.068 28.8604 172.078 28.1328 172.098 27.1172C172.117 26.1016 172.127 25.0127 172.127 23.8506L165.989 42H163.104L156.922 23.8506V24.5098C156.922 25.0371 156.932 25.8428 156.951 26.9268C156.98 28.001 156.995 28.792 156.995 29.2998V42H154.212V20.4814ZM180.945 37.8252C180.945 38.5869 181.224 39.1875 181.78 39.627C182.337 40.0664 182.996 40.2861 183.758 40.2861C184.686 40.2861 185.584 40.0713 186.453 39.6416C187.918 38.9287 188.65 37.7617 188.65 36.1406V34.0166C188.328 34.2217 187.913 34.3926 187.405 34.5293C186.897 34.666 186.399 34.7637 185.911 34.8223L184.314 35.0273C183.357 35.1543 182.64 35.3545 182.161 35.6279C181.351 36.0869 180.945 36.8193 180.945 37.8252ZM187.332 32.4932C187.938 32.415 188.343 32.1611 188.548 31.7314C188.665 31.4971 188.724 31.1602 188.724 30.7207C188.724 29.8223 188.401 29.1729 187.757 28.7725C187.122 28.3623 186.209 28.1572 185.018 28.1572C183.641 28.1572 182.664 28.5283 182.088 29.2705C181.766 29.6807 181.556 30.291 181.458 31.1016H178.997C179.046 29.168 179.671 27.8252 180.872 27.0732C182.083 26.3115 183.484 25.9307 185.076 25.9307C186.922 25.9307 188.421 26.2822 189.573 26.9854C190.716 27.6885 191.287 28.7822 191.287 30.2666V39.3047C191.287 39.5781 191.341 39.7979 191.448 39.9639C191.565 40.1299 191.805 40.2129 192.166 40.2129C192.283 40.2129 192.415 40.208 192.562 40.1982C192.708 40.1787 192.864 40.1543 193.03 40.125V42.0732C192.62 42.1904 192.308 42.2637 192.093 42.293C191.878 42.3223 191.585 42.3369 191.214 42.3369C190.306 42.3369 189.646 42.0146 189.236 41.3701C189.021 41.0283 188.87 40.5449 188.782 39.9199C188.245 40.623 187.474 41.2334 186.468 41.751C185.462 42.2686 184.354 42.5273 183.143 42.5273C181.688 42.5273 180.496 42.0879 179.568 41.209C178.65 40.3203 178.191 39.2119 178.191 37.8838C178.191 36.4287 178.646 35.3008 179.554 34.5C180.462 33.6992 181.653 33.2061 183.128 33.0205L187.332 32.4932ZM201.673 25.8574C203.44 25.8574 204.876 26.2871 205.979 27.1465C207.093 28.0059 207.762 29.4854 207.986 31.585H205.423C205.267 30.6182 204.91 29.8174 204.354 29.1826C203.797 28.5381 202.903 28.2158 201.673 28.2158C199.993 28.2158 198.792 29.0361 198.069 30.6768C197.601 31.7412 197.366 33.0547 197.366 34.6172C197.366 36.1895 197.698 37.5127 198.362 38.5869C199.026 39.6611 200.071 40.1982 201.497 40.1982C202.591 40.1982 203.455 39.8662 204.09 39.2021C204.734 38.5283 205.179 37.6104 205.423 36.4482H207.986C207.693 38.5283 206.961 40.0518 205.789 41.0186C204.617 41.9756 203.118 42.4541 201.292 42.4541C199.241 42.4541 197.605 41.707 196.385 40.2129C195.164 38.709 194.554 36.834 194.554 34.5879C194.554 31.834 195.223 29.6904 196.561 28.1572C197.898 26.624 199.603 25.8574 201.673 25.8574ZM210.623 20.4082H213.26V28.4355C213.885 27.6445 214.446 27.0879 214.944 26.7656C215.794 26.209 216.854 25.9307 218.123 25.9307C220.398 25.9307 221.941 26.7266 222.752 28.3184C223.191 29.1875 223.411 30.3936 223.411 31.9365V42H220.701V32.1123C220.701 30.96 220.555 30.1152 220.262 29.5781C219.783 28.7188 218.885 28.2891 217.566 28.2891C216.473 28.2891 215.481 28.665 214.593 29.417C213.704 30.1689 213.26 31.5898 213.26 33.6797V42H210.623V20.4082ZM227.322 26.3848H230.003V42H227.322V26.3848ZM227.322 20.4814H230.003V23.4697H227.322V20.4814ZM234.002 26.3115H236.507V28.5381C237.249 27.6201 238.035 26.9609 238.865 26.5605C239.695 26.1602 240.618 25.96 241.634 25.96C243.86 25.96 245.364 26.7363 246.146 28.2891C246.575 29.1387 246.79 30.3545 246.79 31.9365V42H244.109V32.1123C244.109 31.1553 243.968 30.3838 243.685 29.7979C243.216 28.8213 242.366 28.333 241.136 28.333C240.511 28.333 239.998 28.3965 239.598 28.5234C238.875 28.7383 238.24 29.168 237.693 29.8125C237.254 30.3301 236.966 30.8672 236.829 31.4238C236.702 31.9707 236.639 32.7568 236.639 33.7822V42H234.002V26.3115ZM257.234 25.96C258.348 25.96 259.427 26.2236 260.472 26.751C261.517 27.2686 262.312 27.9424 262.859 28.7725C263.387 29.5635 263.738 30.4863 263.914 31.541C264.07 32.2637 264.148 33.416 264.148 34.998H252.649C252.698 36.5898 253.074 37.8691 253.777 38.8359C254.48 39.793 255.569 40.2715 257.044 40.2715C258.421 40.2715 259.52 39.8174 260.34 38.9092C260.809 38.3818 261.141 37.7715 261.336 37.0781H263.929C263.86 37.6543 263.631 38.2988 263.24 39.0117C262.859 39.7148 262.43 40.291 261.951 40.7402C261.15 41.5215 260.159 42.0488 258.978 42.3223C258.343 42.4785 257.625 42.5566 256.824 42.5566C254.871 42.5566 253.216 41.8486 251.858 40.4326C250.501 39.0068 249.822 37.0146 249.822 34.4561C249.822 31.9365 250.506 29.8906 251.873 28.3184C253.24 26.7461 255.027 25.96 257.234 25.96ZM261.438 32.9033C261.331 31.7607 261.082 30.8477 260.691 30.1641C259.969 28.8945 258.763 28.2598 257.073 28.2598C255.862 28.2598 254.847 28.6992 254.026 29.5781C253.206 30.4473 252.771 31.5557 252.723 32.9033H261.438ZM154.285 54.4814H157.2V73.4365H168.099V76H154.285V54.4814ZM177.166 59.96C178.279 59.96 179.358 60.2236 180.403 60.751C181.448 61.2686 182.244 61.9424 182.791 62.7725C183.318 63.5635 183.67 64.4863 183.846 65.541C184.002 66.2637 184.08 67.416 184.08 68.998H172.581C172.63 70.5898 173.006 71.8691 173.709 72.8359C174.412 73.793 175.501 74.2715 176.976 74.2715C178.353 74.2715 179.451 73.8174 180.271 72.9092C180.74 72.3818 181.072 71.7715 181.268 71.0781H183.86C183.792 71.6543 183.562 72.2988 183.172 73.0117C182.791 73.7148 182.361 74.291 181.883 74.7402C181.082 75.5215 180.091 76.0488 178.909 76.3223C178.274 76.4785 177.557 76.5566 176.756 76.5566C174.803 76.5566 173.147 75.8486 171.79 74.4326C170.433 73.0068 169.754 71.0146 169.754 68.4561C169.754 65.9365 170.438 63.8906 171.805 62.3184C173.172 60.7461 174.959 59.96 177.166 59.96ZM181.37 66.9033C181.263 65.7607 181.014 64.8477 180.623 64.1641C179.9 62.8945 178.694 62.2598 177.005 62.2598C175.794 62.2598 174.778 62.6992 173.958 63.5781C173.138 64.4473 172.703 65.5557 172.654 66.9033H181.37ZM189.354 71.8252C189.354 72.5869 189.632 73.1875 190.188 73.627C190.745 74.0664 191.404 74.2861 192.166 74.2861C193.094 74.2861 193.992 74.0713 194.861 73.6416C196.326 72.9287 197.059 71.7617 197.059 70.1406V68.0166C196.736 68.2217 196.321 68.3926 195.813 68.5293C195.306 68.666 194.808 68.7637 194.319 68.8223L192.723 69.0273C191.766 69.1543 191.048 69.3545 190.569 69.6279C189.759 70.0869 189.354 70.8193 189.354 71.8252ZM195.74 66.4932C196.346 66.415 196.751 66.1611 196.956 65.7314C197.073 65.4971 197.132 65.1602 197.132 64.7207C197.132 63.8223 196.81 63.1729 196.165 62.7725C195.53 62.3623 194.617 62.1572 193.426 62.1572C192.049 62.1572 191.072 62.5283 190.496 63.2705C190.174 63.6807 189.964 64.291 189.866 65.1016H187.405C187.454 63.168 188.079 61.8252 189.28 61.0732C190.491 60.3115 191.893 59.9307 193.484 59.9307C195.33 59.9307 196.829 60.2822 197.981 60.9854C199.124 61.6885 199.695 62.7822 199.695 64.2666V73.3047C199.695 73.5781 199.749 73.7979 199.856 73.9639C199.974 74.1299 200.213 74.2129 200.574 74.2129C200.691 74.2129 200.823 74.208 200.97 74.1982C201.116 74.1787 201.272 74.1543 201.438 74.125V76.0732C201.028 76.1904 200.716 76.2637 200.501 76.293C200.286 76.3223 199.993 76.3369 199.622 76.3369C198.714 76.3369 198.055 76.0146 197.645 75.3701C197.43 75.0283 197.278 74.5449 197.19 73.9199C196.653 74.623 195.882 75.2334 194.876 75.751C193.87 76.2686 192.762 76.5273 191.551 76.5273C190.096 76.5273 188.904 76.0879 187.977 75.209C187.059 74.3203 186.6 73.2119 186.6 71.8838C186.6 70.4287 187.054 69.3008 187.962 68.5C188.87 67.6992 190.062 67.2061 191.536 67.0205L195.74 66.4932ZM204.104 60.3115H206.609V63.0215C206.814 62.4941 207.317 61.8545 208.118 61.1025C208.919 60.3408 209.842 59.96 210.887 59.96C210.936 59.96 211.019 59.9648 211.136 59.9746C211.253 59.9844 211.453 60.0039 211.736 60.0332V62.8164C211.58 62.7871 211.434 62.7676 211.297 62.7578C211.17 62.748 211.028 62.7432 210.872 62.7432C209.544 62.7432 208.523 63.1729 207.811 64.0322C207.098 64.8818 206.741 65.8633 206.741 66.9766V76H204.104V60.3115ZM214.021 60.3115H216.526V62.5381C217.269 61.6201 218.055 60.9609 218.885 60.5605C219.715 60.1602 220.638 59.96 221.653 59.96C223.88 59.96 225.384 60.7363 226.165 62.2891C226.595 63.1387 226.81 64.3545 226.81 65.9365V76H224.129V66.1123C224.129 65.1553 223.987 64.3838 223.704 63.7979C223.235 62.8213 222.386 62.333 221.155 62.333C220.53 62.333 220.018 62.3965 219.617 62.5234C218.895 62.7383 218.26 63.168 217.713 63.8125C217.273 64.3301 216.985 64.8672 216.849 65.4238C216.722 65.9707 216.658 66.7568 216.658 67.7822V76H214.021V60.3115ZM230.721 60.3848H233.401V76H230.721V60.3848ZM230.721 54.4814H233.401V57.4697H230.721V54.4814ZM237.4 60.3115H239.905V62.5381C240.647 61.6201 241.434 60.9609 242.264 60.5605C243.094 60.1602 244.017 59.96 245.032 59.96C247.259 59.96 248.763 60.7363 249.544 62.2891C249.974 63.1387 250.188 64.3545 250.188 65.9365V76H247.508V66.1123C247.508 65.1553 247.366 64.3838 247.083 63.7979C246.614 62.8213 245.765 62.333 244.534 62.333C243.909 62.333 243.396 62.3965 242.996 62.5234C242.273 62.7383 241.639 63.168 241.092 63.8125C240.652 64.3301 240.364 64.8672 240.228 65.4238C240.101 65.9707 240.037 66.7568 240.037 67.7822V76H237.4V60.3115ZM259.637 60.0332C260.867 60.0332 261.941 60.3359 262.859 60.9414C263.357 61.2832 263.865 61.7812 264.383 62.4355V60.458H266.814V74.7256C266.814 76.7178 266.521 78.29 265.936 79.4424C264.842 81.5713 262.776 82.6357 259.739 82.6357C258.05 82.6357 256.629 82.2549 255.477 81.4932C254.324 80.7412 253.68 79.5596 253.543 77.9482H256.224C256.351 78.6514 256.604 79.1934 256.985 79.5742C257.581 80.1602 258.519 80.4531 259.798 80.4531C261.819 80.4531 263.143 79.7402 263.768 78.3145C264.139 77.4746 264.31 75.9756 264.28 73.8174C263.753 74.6182 263.118 75.2139 262.376 75.6045C261.634 75.9951 260.652 76.1904 259.432 76.1904C257.732 76.1904 256.243 75.5898 254.964 74.3887C253.694 73.1777 253.06 71.1807 253.06 68.3975C253.06 65.7705 253.699 63.7197 254.979 62.2451C256.268 60.7705 257.82 60.0332 259.637 60.0332ZM264.383 68.0898C264.383 66.1465 263.982 64.7061 263.182 63.7686C262.381 62.8311 261.36 62.3623 260.12 62.3623C258.265 62.3623 256.995 63.2314 256.312 64.9697C255.95 65.8975 255.77 67.1133 255.77 68.6172C255.77 70.3848 256.126 71.7324 256.839 72.6602C257.562 73.5781 258.528 74.0371 259.739 74.0371C261.634 74.0371 262.967 73.1826 263.738 71.4736C264.168 70.5068 264.383 69.3789 264.383 68.0898Z" fill="black"/>
<path d="M67.1034 49.1025L64.1484 61.3285H70.021L67.1702 49.1025H67.1034Z" fill="black"/>
<path d="M38.2803 62.4079V64.1873C38.2803 73.0335 47.8425 81.9812 59.6303 81.9812H122.505C134.292 81.9812 143.855 73.0308 143.855 64.1873V62.4079C143.855 54.1843 135.578 43.8579 124.936 42.9495C124.698 35.5969 118.679 29.711 111.275 29.711C108.401 29.711 105.734 30.6034 103.533 32.1156C99.3112 22.711 89.8879 16.1465 78.9097 16.1465C64.0039 16.1465 51.9223 28.2255 51.9223 43.1366C51.9223 43.4037 51.9543 43.6576 51.9623 43.9194C43.9658 46.2358 38.2803 55.5976 38.2803 62.4079V62.4079ZM72.2089 70.5701L70.6807 64.4919H63.4215L61.8211 70.5701H57.6879L64.7387 45.7682H69.8097L76.3394 70.5701H72.2089ZM96.2868 70.5701H91.702L88.5066 51.8839H88.4371L85.2765 70.5701H80.6917L75.8959 45.7682H79.8929L83.1551 65.045H83.2272L86.4894 45.7682H90.66L93.9944 65.1492H94.0639L97.294 45.7682H101.219L96.2868 70.5701V70.5701ZM110.802 71.0537C104.655 71.0537 103.265 66.9579 103.265 63.482V62.8915H107.225V63.5167C107.225 66.5385 108.545 68.0667 111.289 68.0667C113.789 68.0667 115.037 66.2927 115.037 64.4492C115.037 61.8442 113.72 60.698 111.497 60.0408L108.785 59.1003C105.17 57.711 103.61 55.8381 103.61 52.2953C103.61 47.7774 106.667 45.2766 111.321 45.2766C117.677 45.2766 118.337 49.2362 118.337 51.8037V52.3621H114.377V51.8411C114.377 49.5808 113.37 48.261 110.904 48.261C109.202 48.261 107.57 49.2014 107.57 51.8411C107.57 53.9598 108.646 55.0339 111.289 56.0411L113.96 57.0163C117.468 58.264 118.999 60.1797 118.999 63.5808C119.002 68.8682 115.804 71.0537 110.802 71.0537V71.0537Z" fill="black"/>
<path d="M64.7388 45.7681L57.688 70.57H61.8212L63.4216 64.4917H70.6807L72.209 70.57H76.3422L69.8124 45.7681H64.7388ZM64.1483 61.3284L67.1006 49.1024H67.1674L70.0155 61.3284H64.1483V61.3284Z" fill="white"/>
<path d="M94.0639 65.149H93.9918L90.6574 45.7681H86.4895L83.2273 65.0421H83.1552L79.8929 45.7681H75.896L80.6918 70.57H85.2765L88.4345 51.8837H88.5067L91.7021 70.57H96.2868L101.216 45.7681H97.2941L94.0639 65.149Z" fill="white"/>
<path d="M113.963 57.0239L111.291 56.0487C108.651 55.0414 107.572 53.9674 107.572 51.8487C107.572 49.209 109.204 48.2685 110.906 48.2685C113.372 48.2685 114.379 49.5884 114.379 51.8487V52.3697H118.339V51.8113C118.339 49.2437 117.679 45.2842 111.323 45.2842C106.669 45.2842 103.612 47.785 103.612 52.3029C103.612 55.8456 105.173 57.7185 108.787 59.1078L111.499 60.0483C113.722 60.7056 115.039 61.8544 115.039 64.4567C115.039 66.2975 113.789 68.0743 111.291 68.0743C108.547 68.0743 107.227 66.546 107.227 63.5243V62.8991H103.268V63.4895C103.268 66.9655 104.66 71.0613 110.805 71.0613C115.806 71.0613 119.002 68.8758 119.002 63.5937C119.002 60.1846 117.471 58.2689 113.963 57.0239V57.0239Z" fill="white"/>
</svg>
