<svg width="303" height="53" viewBox="0 0 303 53" fill="none" xmlns="http://www.w3.org/2000/svg">
<path d="M10.52 32.2038L6.76282 40.7378H0L16.5313 3.22021H23.2942L39.8255 40.7378H33.0627L29.3056 32.2038H10.52ZM26.7293 26.3534L19.9128 10.8955L13.0963 26.3534H26.7293Z" fill="black"/>
<path d="M59.4795 11.7544C63.3082 11.7544 66.5823 13.0783 69.3017 15.7262C72.0212 18.3741 73.3809 21.8986 73.3809 26.2998C73.3809 30.7011 72.0212 34.2793 69.3017 37.0345C66.618 39.7897 63.4692 41.1673 59.8552 41.1673C56.277 41.1673 53.0566 39.5929 50.194 36.4441V51.1506H44.1826V12.1838H50.194V17.1754C52.5557 13.5614 55.6508 11.7544 59.4795 11.7544ZM50.0867 26.5145C50.0867 29.234 50.9097 31.4704 52.5556 33.2237C54.2016 34.9412 56.2054 35.8 58.567 35.8C60.9287 35.8 62.9861 34.9412 64.7395 33.2237C66.4928 31.5061 67.3695 29.2877 67.3695 26.5682C67.3695 23.813 66.5107 21.5408 64.7931 19.7517C63.0756 17.9268 61.0181 17.0144 58.6207 17.0144C56.2233 17.0144 54.2016 17.9268 52.5556 19.7517C50.9097 21.5408 50.0867 23.7951 50.0867 26.5145V26.5145Z" fill="black"/>
<path d="M103.378 40.738H97.9031V36.9272C95.5415 39.7539 92.3748 41.1673 88.4029 41.1673C85.433 41.1673 82.964 40.3265 80.996 38.6447C79.0638 36.9629 78.0977 34.7265 78.0977 31.9355C78.0977 29.1087 79.1353 26.9976 81.2107 25.6021C83.2861 24.2066 86.095 23.5088 89.6374 23.5088H97.42V22.4354C97.42 18.6425 95.3089 16.746 91.0866 16.746C88.4387 16.746 85.6835 17.7121 82.8209 19.6444L80.1372 15.8872C83.6081 13.132 87.5442 11.7544 91.9454 11.7544C95.3089 11.7544 98.0462 12.6132 100.157 14.3307C102.304 16.0125 103.378 18.6782 103.378 22.328V40.738ZM97.3664 30.1106V27.6954H90.6035C86.2739 27.6954 84.1091 29.0551 84.1091 31.7745C84.1091 33.17 84.6458 34.2435 85.7193 34.9949C86.7927 35.7106 88.2777 36.0684 90.1741 36.0684C92.1064 36.0684 93.7881 35.5316 95.2194 34.4582C96.6507 33.3847 97.3664 31.9355 97.3664 30.1106V30.1106Z" fill="black"/>
<path d="M124.465 41.1673C120.494 41.1673 117.076 39.8255 114.214 37.1418C111.351 34.4224 109.92 30.88 109.92 26.5145C109.92 22.1491 111.405 18.6067 114.375 15.8872C117.38 13.132 121.03 11.7544 125.324 11.7544C129.618 11.7544 133.25 13.2394 136.22 16.2093L132.677 20.5568C130.208 18.4099 127.722 17.3364 125.217 17.3364C122.712 17.3364 120.529 18.1773 118.669 19.8591C116.844 21.505 115.931 23.652 115.931 26.2998C115.931 28.9119 116.844 31.1304 118.669 32.9553C120.494 34.7802 122.73 35.6927 125.378 35.6927C128.061 35.6927 130.584 34.4761 132.946 32.0429L136.488 35.9074C133.017 39.414 129.01 41.1673 124.465 41.1673V41.1673Z" fill="black"/>
<path d="M148.735 25.2803V40.7382H142.724V0.966309H148.735V17.3903C149.594 15.637 150.882 14.2594 152.6 13.2575C154.353 12.2556 156.231 11.7546 158.235 11.7546C161.456 11.7546 164.05 12.7386 166.018 14.7067C168.022 16.6747 169.024 19.5194 169.024 23.2407V40.7382H163.012V25.0656C163.012 19.8056 160.829 17.1756 156.464 17.1756C154.389 17.1756 152.582 17.8734 151.043 19.2689C149.504 20.6286 148.735 22.6324 148.735 25.2803Z" fill="black"/>
<path d="M203.991 29.0909H181.61C181.753 31.1662 182.701 32.848 184.454 34.1361C186.208 35.3885 188.211 36.0147 190.466 36.0147C194.044 36.0147 196.763 34.8876 198.624 32.6333L202.059 36.3904C198.982 39.575 194.974 41.1673 190.036 41.1673C186.029 41.1673 182.611 39.8434 179.785 37.1955C176.994 34.5119 175.598 30.9336 175.598 26.4609C175.598 21.9523 177.029 18.3741 179.892 15.7262C182.755 13.0783 186.118 11.7544 189.983 11.7544C193.883 11.7544 197.193 12.9352 199.912 15.2968C202.632 17.6227 203.991 20.8431 203.991 24.958V29.0909ZM181.61 24.3676H197.98C197.98 21.9702 197.228 20.1274 195.726 18.8393C194.223 17.5511 192.362 16.907 190.144 16.907C187.961 16.907 185.993 17.5869 184.24 18.9466C182.486 20.2706 181.61 22.0776 181.61 24.3676Z" fill="black"/>
<path d="M238.966 3.22021C244.655 3.22021 248.806 4.31157 251.418 6.49429C254.03 8.677 255.336 12.0405 255.336 16.5849C255.336 21.1292 253.994 24.4569 251.31 26.5681C248.663 28.6792 244.583 29.7348 239.073 29.7348H232.417V40.7378H226.084V3.22021H238.966ZM239.771 23.9918C243.277 23.9918 245.657 23.3298 246.909 22.0059C248.197 20.6461 248.841 18.6781 248.841 16.1018C248.841 13.4897 248.036 11.6469 246.426 10.5735C244.816 9.49999 242.293 8.96325 238.858 8.96325H232.417V23.9918H239.771Z" fill="black"/>
<path d="M267.928 40.738H261.916V12.1838H267.928V40.738ZM262.292 6.49447C261.541 5.74304 261.165 4.84848 261.165 3.8108C261.165 2.77312 261.541 1.87856 262.292 1.12714C263.044 0.375712 263.938 0 264.976 0C266.014 0 266.908 0.375712 267.66 1.12714C268.411 1.87856 268.787 2.77312 268.787 3.8108C268.787 4.84848 268.411 5.74304 267.66 6.49447C266.908 7.24589 266.014 7.6216 264.976 7.6216C263.938 7.6216 263.044 7.24589 262.292 6.49447Z" fill="black"/>
<path d="M303 12.1838V37.0882C303 42.1335 301.622 45.9085 298.867 48.4132C296.147 50.9538 292.641 52.224 288.347 52.224C284.053 52.224 280.171 50.8822 276.7 48.1985L279.545 43.6363C282.336 45.7474 285.144 46.803 287.971 46.803C290.834 46.803 293.088 46.0695 294.734 44.6024C296.416 43.1354 297.257 40.7916 297.257 37.5712V33.9214C296.362 35.6032 295.074 36.945 293.392 37.9469C291.746 38.9488 289.886 39.4498 287.81 39.4498C284.017 39.4498 280.904 38.1258 278.471 35.478C276.038 32.8301 274.821 29.5381 274.821 25.6021C274.821 21.6661 276.038 18.3741 278.471 15.7262C280.904 13.0783 283.999 11.7544 287.757 11.7544C291.549 11.7544 294.627 13.3109 296.988 16.424V12.1838H303ZM280.725 25.3874C280.725 27.7132 281.441 29.7349 282.872 31.4525C284.339 33.1342 286.289 33.9751 288.723 33.9751C291.192 33.9751 293.178 33.1521 294.68 31.5061C296.219 29.8602 296.988 27.8206 296.988 25.3874C296.988 22.9184 296.219 20.8431 294.68 19.1613C293.142 17.4438 291.156 16.585 288.723 16.585C286.289 16.585 284.339 17.4616 282.872 19.215C281.441 20.9683 280.725 23.0258 280.725 25.3874V25.3874Z" fill="black"/>
</svg>
