<svg width="303" height="100" viewBox="0 0 303 100" fill="none" xmlns="http://www.w3.org/2000/svg">
<path fill-rule="evenodd" clip-rule="evenodd" d="M140 35V42.7776H141.909V39.2031L142.303 39.2105V42.7776H144.234V35H142.303V37.8857H141.909V35L140 35Z" fill="black" stroke="#616161" stroke-width="5.1286"/>
<path fill-rule="evenodd" clip-rule="evenodd" d="M146.611 35H144.751V42.7776H146.611V35Z" fill="black" stroke="#616161" stroke-width="5.1286"/>
<path fill-rule="evenodd" clip-rule="evenodd" d="M146.915 35.0001L148.384 42.7777H150.602L152.071 35.0001H150.097L149.61 38.328C149.57 38.4555 149.433 38.4555 149.408 38.328L148.922 35L146.915 35.0001Z" fill="black" stroke="#616161" stroke-width="5.1286"/>
<path fill-rule="evenodd" clip-rule="evenodd" d="M156.158 35H152.466V42.7776H156.158V40.7382L154.105 40.7207L154.105 39.8464H155.083V37.8217H154.105L154.105 37.0394H156.158V35Z" fill="black" stroke="#616161" stroke-width="5.1286"/>
<g clip-path="url(#clip0)">
<path fill-rule="evenodd" clip-rule="evenodd" d="M162.311 78.2881V99.7159H167.571V89.8679L168.657 89.8882V99.7159H173.977V78.2882H168.657V86.2384H167.571V78.2882L162.311 78.2881Z" fill="black"/>
<path fill-rule="evenodd" clip-rule="evenodd" d="M180.524 78.2881H175.4V99.7159H180.524V78.2881Z" fill="black"/>
<path fill-rule="evenodd" clip-rule="evenodd" d="M181.363 78.2879L185.411 99.7157H191.52L195.568 78.2879H190.129L188.788 87.4565C188.676 87.8077 188.299 87.8077 188.231 87.4565L186.891 78.2876L181.363 78.2879Z" fill="black"/>
<path fill-rule="evenodd" clip-rule="evenodd" d="M206.826 78.2881H196.656V99.7159H206.826V94.0971L201.171 94.0489L201.171 91.6401H203.865V86.0619H201.171L201.171 83.9067H206.826V78.2881Z" fill="black"/>
<path fill-rule="evenodd" clip-rule="evenodd" d="M151.903 13.3056C151.046 10.9595 121.578 -0.49659 121.202 0.761188C115.791 2.17174 113.588 8.40852 109.866 12.359L101.6 11.8855C97.9591 16.568 96.0484 21.3521 97.3494 26.3244C102.016 32.6473 107.434 38.0277 110.811 45.97C111.077 49.7135 127.013 46.3625 130.428 45.6215C125.763 48.9614 121.699 54.1383 123.445 69.0481C125.039 76.0497 126.13 83.867 140.268 91.7859C142.129 92.8283 145.98 94.0311 148.361 94.9079C150.638 95.9525 153.301 96.3817 160.813 94.0843C165.16 92.2107 169.854 91.0819 174.107 89.2128L168.994 89.4527C161.953 89.6059 156.518 90.1311 154.841 88.1638L148.361 76.9772L152.139 69.6394C157.367 70.1756 159.103 74.4156 163.711 76.0303L169.143 72.0064C184.919 81.3193 191.196 66.1042 192.995 54.2542C192.803 49.4328 182.556 55.7665 183.177 53.5121C183.418 48.3294 179.193 41.5487 176.464 36.2654L179.623 24.0421C181.056 22.7654 172.987 9.16873 166.398 7.47318C160.617 5.98529 151.903 13.3056 151.903 13.3056L151.903 13.3056Z" fill="#C4C4C4"/>
<path fill-rule="evenodd" clip-rule="evenodd" d="M177.821 39.2833C177.877 40.5962 177.871 42.193 177.998 43.1888C177.976 43.9486 177.406 43.9765 176.935 44.1356L180.005 45.26C180.615 46.2857 181.105 47.3114 181.599 48.3371C182.173 50.8602 181.745 50.9323 181.363 51.1183C180.249 51.1297 179.138 51.1317 178.101 50.9112C178.566 51.1564 178.668 51.3351 178.717 51.6492C178.808 52.2283 178.435 53.0191 177.821 53.7812C178.729 54.285 180.384 54.7778 181.614 55.2458L183.016 52.1243C182.381 47.5386 180.456 43.3122 177.821 39.2832L177.821 39.2833Z" fill="#C4C4C4"/>
<path fill-rule="evenodd" clip-rule="evenodd" d="M183.551 54.6644C185.253 55.3741 187.606 55.166 190.867 53.4851C191.352 53.1402 191.804 53.3464 190.936 53.9138C186.658 57.7524 184.611 55.8321 183.551 54.6644L183.551 54.6644Z" fill="#C4C4C4"/>
<path fill-rule="evenodd" clip-rule="evenodd" d="M191.194 52.9819C191.7 53.9504 191.393 54.738 191.223 55.556C190.695 59.7171 189.399 63.0067 186.855 66.4443C178.579 79.7487 170.225 71.424 163.563 66.0059L160.808 72.91C160.662 73.5152 160.054 73.9865 164.357 75.8809L168.74 72.7846C185.458 85.5046 197.305 54.9801 191.194 52.9823L191.194 52.9819Z" fill="#C4C4C4"/>
<path fill-rule="evenodd" clip-rule="evenodd" d="M165.58 64.8711C164.452 64.9516 161.095 66.093 160.946 66.754L162.49 64.4526L165.58 64.8711Z" fill="#C4C4C4"/>
<path fill-rule="evenodd" clip-rule="evenodd" d="M163.386 50.7635C163.593 50.7635 164.585 51.0299 164.478 50.9706C164.326 50.8859 164.462 52.3616 164.774 53.1305L163.563 55.7639C165.882 53.0902 169.548 53.2681 172.951 52.9234L171.327 51.9175C171.609 50.9767 171.277 50.2325 171.12 49.4321L163.386 50.7635Z" fill="#C4C4C4"/>
<path fill-rule="evenodd" clip-rule="evenodd" d="M169.083 42.8344C166.596 43.5969 164.215 44.8427 162.616 47.4984C163.836 43.1211 164.084 43.2874 164.478 43.071C166.184 42.3082 167.58 42.7836 169.083 42.8343V42.8344Z" fill="#C4C4C4"/>
<path fill-rule="evenodd" clip-rule="evenodd" d="M155.8 94.139C152.792 97.4579 146.081 93.8879 140.507 92.0679C126.345 83.0624 123.578 74.5846 123.386 66.2679C122.658 54.3546 126.316 47.4323 130.943 45.7935C127.881 51.6967 126.453 62.2935 127.873 70.1735C129.019 74.5574 129.043 81.9513 136.378 85.909C139.97 87.9311 138.997 89.5055 141.426 91.3994C144.088 93.4748 151.509 95.4479 155.799 94.1391L155.8 94.139Z" fill="#C4C4C4"/>
<path fill-rule="evenodd" clip-rule="evenodd" d="M160.293 39.0823C155.201 31.8611 148.039 29.1504 139.962 28.8542C141.581 28.3265 143.199 28.0518 144.818 27.2713C145.214 26.8548 145.085 26.122 144.936 25.3777C137.161 23.3477 132.255 20.8389 126.044 18.5132L142.811 22.5371C154.135 22.9673 153.162 25.7629 160.294 39.0826L160.293 39.0823Z" fill="#C4C4C4"/>
<path fill-rule="evenodd" clip-rule="evenodd" d="M165.745 35.6001C161.982 30.2278 158.332 23.7078 153.377 19.5612C141.417 14.1629 129.586 10.1538 115.721 6.50561L120.146 0.814941C134.859 4.1735 148.679 9.79361 161.058 19.0583C163.152 24.3538 164.549 29.6564 165.744 35.5994L165.745 35.6001Z" fill="#C4C4C4"/>
<path fill-rule="evenodd" clip-rule="evenodd" d="M173.332 26.1069C173.332 26.1069 171.222 21.3737 170.195 19.5663C167.812 16.9256 166.607 12.0047 161.727 9.68604C163.27 10.1029 164.327 9.60622 167.478 12.4629L172.441 21.8778L173.332 26.1069Z" fill="#C4C4C4"/>
<path fill-rule="evenodd" clip-rule="evenodd" d="M175.956 34.3066C176.443 30.2058 177.367 23.6278 176.306 21.0289C173.356 17.0706 170.385 12.9793 167.413 9.1811C166.921 8.72299 166.566 8.10126 166.179 7.61621C170.358 8.69888 174.719 11.6044 180.6 23.0751L175.956 34.3066Z" fill="#C4C4C4"/>
<path fill-rule="evenodd" clip-rule="evenodd" d="M158.387 34.7908C156.723 33.4808 155.239 28.8475 152.717 27.8841C150.383 27.6888 149.527 26.9543 146.457 27.5798C147.57 27.0219 148.621 26.3081 149.805 25.926C150.607 25.7367 151.359 25.9464 152.124 26.0519C152.312 25.9626 152.436 25.8516 152.39 25.6837C149.3 23.7741 142.96 23.7468 138.681 22.6567C143.648 22.823 149.143 22.5477 152.876 23.7446C155.877 26.4083 156.852 31.4245 158.387 34.7908L158.387 34.7908Z" fill="black"/>
<path fill-rule="evenodd" clip-rule="evenodd" d="M167.488 12.4473C168.177 12.5099 171.885 18.3754 172.06 19.3514C172.368 21.4849 173.128 23.8767 173.333 26.109C172.722 23.968 172.057 21.8272 171.225 19.6862C170.981 19.0966 170.366 17.7637 168.657 15.8785C167.861 14.5497 167.69 13.5053 167.488 12.4474L167.488 12.4473Z" fill="black"/>
<path fill-rule="evenodd" clip-rule="evenodd" d="M180.054 44.3945H178.468L180.221 44.8548L180.054 44.3945Z" fill="black"/>
<path fill-rule="evenodd" clip-rule="evenodd" d="M169.23 42.8101C167.634 42.614 165.997 42.588 164.402 42.9386C163.752 43.812 163.707 44.7004 163.423 45.5214C165.362 43.384 166.132 43.2534 169.23 42.8101V42.8101Z" fill="black"/>
<path fill-rule="evenodd" clip-rule="evenodd" d="M190.987 53.8408C190.099 54.5494 190.011 55.2163 187.386 56.0155C185.471 56.4681 184.39 55.7009 183.489 54.6693C184.855 55.0606 185.073 56.0926 188.736 54.9356L190.987 53.8408Z" fill="black"/>
<path fill-rule="evenodd" clip-rule="evenodd" d="M183.032 54.2842C182.393 56.0411 181.704 57.8165 181.01 59.462C179.356 61.4013 180.061 60.2962 177.585 63.3083C178.377 62.0863 179.407 60.9121 179.947 59.6394C180.326 58.8014 180.797 57.9124 181.006 57.1679C180.349 56.8401 179.006 56.8141 178.824 56.9318C176.623 58.2299 176.226 59.6037 174.928 60.9413C175.869 59.438 176.672 57.7971 177.762 56.444C177.886 56.2684 178.694 56.2344 179.19 56.1308C178.419 55.9985 176.991 55.7214 176.877 55.7339C175.441 56.0789 174.636 57.3296 173.57 58.1601C174.347 57.0381 175.063 55.8699 176.05 54.9054C176.148 54.792 178.815 55.0257 180.197 55.5773L180.225 56.1272L181.009 56.444L181.6 54.9647L183.032 54.2842Z" fill="black"/>
<path fill-rule="evenodd" clip-rule="evenodd" d="M165.615 64.8763C165.261 64.7553 162.132 64.3529 162.132 64.4473C160.93 65.3024 160.748 66.1206 160.774 66.8291C162.772 64.8628 162.698 64.8572 165.615 64.8763L165.615 64.8763Z" fill="black"/>
<path fill-rule="evenodd" clip-rule="evenodd" d="M163.238 50.7343C163.238 50.7343 165.496 50.4051 165.452 50.616C165.289 51.3993 165.729 53.3085 165.777 53.0422L164.508 54.0777C167.166 52.7412 169.965 53.0098 172.803 52.8055C172.803 52.8055 170.413 52.1457 170.559 52.125C171.092 52.0494 170.417 49.6328 170.235 49.5804C170.689 49.4266 171.133 49.3106 171.593 49.1958C168.175 48.3015 166.199 48.8285 163.238 50.7344L163.238 50.7343Z" fill="black"/>
<path fill-rule="evenodd" clip-rule="evenodd" d="M182.78 52.4199L182.279 52.6714C182.207 51.2013 180.629 51.3091 179.297 51.2956L178.205 51.0293C178.537 51.3367 179.564 51.3126 179.149 51.9761C178.801 52.1624 178.641 52.9617 178.441 53.633L177.851 53.6626C178.894 54.0702 179.861 54.4274 181.009 54.9053L181.688 55.0088L183.312 54.136L182.78 52.4199Z" fill="black"/>
<path fill-rule="evenodd" clip-rule="evenodd" d="M167.814 51.4286C167.56 50.9259 166.281 50.9973 166.006 51.3225C165.782 51.5869 165.992 53.2828 166.279 52.9968C166.694 52.6318 167.236 52.4791 167.888 52.5086C167.97 52.1952 167.941 51.8569 167.814 51.4286L167.814 51.4286Z" fill="white"/>
<path fill-rule="evenodd" clip-rule="evenodd" d="M180.075 53.9555C180.195 53.8676 180.449 53.0173 180.367 52.7629C180.199 52.1626 179.01 52.2889 179.01 52.2889C178.72 52.4596 178.466 53.3955 178.572 53.7044C178.623 53.9658 179.884 54.0491 180.075 53.9554L180.075 53.9555Z" fill="white"/>
<path fill-rule="evenodd" clip-rule="evenodd" d="M129.234 83.2935L129.985 83.3669C134.438 85.553 141.769 88.7944 152.382 87.0526L154.047 89.673C149.373 91.9443 144.346 91.4217 139.635 91.581L129.234 83.2935Z" fill="black"/>
<path fill-rule="evenodd" clip-rule="evenodd" d="M122.842 66.011L125.072 75.3741C131.043 79.1067 141.243 83.3819 149.745 83.0369L147.867 78.7258C130.119 74.9569 128.618 70.1925 122.842 66.0103L122.842 66.011Z" fill="black"/>
<path fill-rule="evenodd" clip-rule="evenodd" d="M128.392 46.832C129.482 54.0878 130.937 59.5887 137.246 64.1965C141.113 66.9776 144.952 69.7469 149.621 72.0325C149.621 72.0325 149.211 74.1626 148.869 74.1246C134.975 72.5813 124.803 61.0601 123.57 55.7979C124.764 51.7614 126.476 49.24 128.391 46.832H128.392Z" fill="black"/>
<path fill-rule="evenodd" clip-rule="evenodd" d="M135.071 42.7207C136.922 50.7625 141.337 58.9074 145.725 66.2963C147.333 68.3373 147.754 69.238 150.234 70.4806C153.585 71.5417 155.954 71.2708 158.387 71.1112C157.72 69.8777 157.128 68.5884 156.363 67.429C150.916 63.1218 153.433 59.2001 154.88 56.7172C151.851 55.952 147.839 54.3256 147.286 52.1863C146.397 45.2673 146.849 43.0724 147.738 39.5186C143.637 40.3832 139.482 41.2401 135.07 42.7208L135.071 42.7207Z" fill="black"/>
<path fill-rule="evenodd" clip-rule="evenodd" d="M120.026 0.00634766C118.678 0.886881 117.38 2.1459 115.983 3.5769C113.667 5.97413 112.127 8.31257 109.77 10.0462C109.299 10.4528 107.975 11.1075 106.312 11.2046C105.529 11.2437 105.018 11.3733 103.578 11.1926C102.309 10.505 101.102 10.9521 99.9249 12.3603C98.6339 14.2169 96.9989 17.7422 96.319 19.9615C94.9178 25.6211 98.4903 30.2842 101.916 33.8781C104.964 36.8555 106.721 38.7161 107.972 41.4456C108.92 43.2159 109.622 45.6455 110.381 47.3489C110.656 47.889 110.599 47.8861 111.336 48.0489C112.929 48.3888 115.138 48.3914 117.104 48.5605C117.955 48.5723 119.124 48.5407 120.231 48.4253C121.757 48.1372 123.549 47.8549 125.052 47.3353C126.52 46.9738 127.828 46.4732 129.007 46.0123C128.855 46.5283 127.731 47.0251 127.31 47.6792C123.314 53.4003 122.219 58.4912 122.915 66.5236C123.308 70.0839 124.125 73.0353 125.358 76.4122C125.922 77.9575 127.123 80.4049 128.273 82.0305C131.694 86.8645 139.348 93.0721 150.002 95.4616C151.861 95.7157 153.971 95.5802 155.955 95.0518C161.213 93.4578 171.93 89.6879 171.93 89.6879C171.93 89.6879 162.417 90.4749 158.06 90.0441C157.051 89.8864 155.94 89.8329 155.237 89.1456C155.119 88.9934 154.691 88.1309 154.968 88.1232C155.345 88.1126 156.428 87.6632 158.1 87.514C154.53 87.1297 154.581 87.1343 154.321 86.484C153.915 85.4746 153.295 84.0949 152.656 82.8876C154.225 83.02 157.698 83.2149 158.877 81.9985C158.877 81.9985 156.822 82.2358 155.005 82.0227C154.394 81.951 153.351 81.5789 153.038 81.4639C152.222 81.1463 151.551 81.0477 151.395 80.8407C151.111 80.12 150.92 79.8776 150.578 78.9122C150.115 77.634 150.078 76.2081 149.99 74.903C151.178 76.3674 152.692 77.6002 154.696 78.2298C154.722 78.1756 157.296 79.3489 159.166 78.7456L159.553 78.6205C159.553 78.6551 158.315 78.729 157.86 78.5041C154.058 76.888 153.486 75.4735 152.872 74.7709L151.23 72.3117C151.73 71.316 152.012 71.2782 152.674 71.269C154.675 71.4913 155.545 71.6623 156.763 71.3685C157.586 73.0619 157.808 74.7653 159.681 75.9976C165.922 77.8501 167.278 75.4475 168.79 73.3246C173.28 76.62 180.59 77.6361 185.666 73.3818C192.12 65.9138 194.164 54.1407 193.591 53.4685C192.785 52.1011 191.728 50.6908 190.82 50.8857C187.583 51.7693 186.389 53.4113 183.182 53.0367C183.564 53.0151 184.207 53.0048 184.212 52.9684C184.459 50.2527 184.192 48.9387 184.072 48.7132C183.099 46.5668 181.821 44.3081 180.931 42.6153C180.701 42.2641 180.026 39.5969 178.896 38.5433C178.412 38.1294 177.225 37.0382 177.225 37.0382L177.125 38.1981C177.125 38.1981 177.589 38.2681 177.765 38.9866C178.434 41.7108 181.841 48.1516 182.091 48.4603C183.299 50.4098 182.214 52.8382 183.132 54.2006C183.22 54.3737 185.005 54.1855 186.389 54.2705C188.663 53.7812 188.567 52.7787 190.532 52.628C191.856 52.5265 191.989 55.0125 191.971 55.2054C191.725 57.9503 190.89 61.1417 189.612 64.0562C186.955 69.175 183.979 73.7725 179.76 74.4136C174.612 75.313 171.937 73.0627 169.147 71.6297L168.08 72.5401C164.453 76.1513 160.148 75.8305 158.387 71.1122C157.51 69.2818 156.367 68.1601 155.389 66.59L150.202 70.3263C149.77 71.2119 149.239 72.6085 148.594 74.1685C148.145 75.2531 147.769 77.1157 147.794 78.6636C147.129 79.7964 150.097 84.3905 151.973 87.185C152.526 88.0095 153.559 89.45 153.594 89.5397C153.966 90.5045 154.78 91.3563 154.83 91.4602C158.312 96.0015 150.437 94.9557 148.811 94.6814C145.603 94.1702 142.464 92.83 139.515 91.0378C139.343 90.9338 139.173 90.8284 139.003 90.7214C135.497 88.5141 132.272 85.69 129.529 82.8966C127.894 81.0448 126.337 77.2492 125.187 74.5583C123.463 68.0887 120.989 56.875 127.69 48.3772C128.115 47.8914 128.573 47.0827 128.963 46.9227C130.954 45.5762 133.116 44.6584 135.441 44.1487L135.206 42.6417C134.045 42.9055 130.136 44.3354 129.031 44.9339C126.517 45.6625 124.432 46.4234 121.228 47.2255C120.187 47.3529 119.163 47.3552 118.164 47.2196C115.86 46.9065 111.931 47.1862 111.681 46.9534C110.12 44.7773 109.693 40.8783 108.269 38.7916L108.253 38.7708L108.235 38.751C107.405 37.6355 106.437 36.7255 105.484 35.7788C102.072 32.3888 99.1521 29.111 98.3346 25.6377C98.1291 24.6121 97.5997 23.5499 97.8811 20.5155L97.8863 20.5006L97.8912 20.4857C98.7121 17.651 100.048 15.3402 102.314 13.0243C104.673 13.0624 107.007 13.1142 108.826 13.4616C109.66 13.6012 111.395 13.8278 113.187 14.4954C117.723 16.185 123.716 18.963 123.716 18.963C119.218 16.4924 114.187 13.2836 111.011 12.636C110.538 12.5691 110.248 12.3535 110.107 11.9771C114.885 9.17002 115.759 5.86502 118.901 2.90091C120.337 2.27577 120.897 1.95664 122.118 1.82405C133.403 3.6085 140.508 8.1035 146.128 11.1092C148.409 12.3496 150.482 13.2876 152.463 14.4173C154.199 14.9883 159.437 18.9433 160.97 21.0756C162.528 24.3639 163.665 27.9159 164.702 31.3435C165.446 34.8296 166.098 36.2437 166.098 36.2437C166.098 36.2437 165.466 33.3278 165.571 32.8039C166.227 33.0488 167.776 33.5325 168.418 33.4574C168.418 33.4574 165.549 31.9745 165.173 30.6639C163.967 26.4587 162.757 19.9123 162.431 19.5709C161.512 18.4142 157.678 15.4803 155.327 14.1232C154.437 13.6098 153.956 13.2913 153.919 13.0656C154.67 12.3067 155.598 11.3028 156.43 10.665C157.227 10.0535 157.953 9.36395 159.064 8.95129C163.949 6.75129 166.742 9.79769 167.405 9.1808C167.405 9.1808 166.354 7.97624 166.821 8.17453C167.299 8.43345 168.857 8.7388 169.028 8.8978C170.808 10.2905 175.463 15.3805 178.268 20.7511C178.942 22.0667 179.216 22.9329 178.903 24.517C178.59 26.1026 178.347 26.9745 178.006 28.0334C177.697 28.7412 175.95 33.5876 175.957 34.2387C175.605 36.8978 177.098 40.2268 177.098 40.2268C177.112 39.3232 177.042 38.8417 177.124 38.1955L177.224 37.0407C177.224 37.0407 177.161 36.7335 177.172 36.6118C177.248 35.8133 177.444 35.1419 177.501 34.6846C178.062 31.2118 179.037 28.7118 180.143 25.6644C180.472 24.8953 180.902 24.4676 180.88 23.882C180.898 22.8429 179.968 21.4482 179.296 20.0861C178.618 18.7095 177.808 17.1748 176.745 15.5572C174.321 12.071 172.254 9.34335 168.47 7.63624C167.411 7.17156 163.244 6.71725 161.805 6.98721C160.06 7.35086 158.558 7.70947 157.362 8.47587C155.478 9.68187 153.998 11.5491 152.263 12.6493C148.423 10.7291 146.57 9.29198 146.224 9.09387C143.942 7.87098 141.202 6.45187 138.254 5.1061C136.841 3.7881 128.064 0.635763 120.027 0.00698513L120.026 0.00634766ZM169.146 71.6275C166.78 69.7775 164.787 67.873 163.474 65.9119C163.045 68.2184 161.489 69.861 160.286 71.4767C160.047 71.8556 159.875 72.3723 161.053 74.0188C161.371 74.4575 162.521 74.5324 163.297 74.4922C162.507 73.8953 161.306 73.2641 161.113 72.717C162.502 73.6626 163.788 73.9344 164.95 73.7821C165.216 73.7523 165.546 73.4706 165.801 73.037C166.319 71.9237 166.725 71.6556 167.135 71.3559L168.079 72.5394L169.146 71.6275Z" fill="black" stroke="black" stroke-width="0.11397"/>
</g>
<defs>
<clipPath id="clip0">
<rect width="111.111" height="100" fill="white" transform="translate(96)"/>
</clipPath>
</defs>
</svg>
