<svg width="303" height="100" viewBox="0 0 303 100" fill="none" xmlns="http://www.w3.org/2000/svg">
<path d="M126.475 80.6543H129.258L133.379 92.7832L137.471 80.6543H140.225V95H138.379V86.5332C138.379 86.2402 138.385 85.7552 138.398 85.0781C138.411 84.401 138.418 83.6751 138.418 82.9004L134.326 95H132.402L128.281 82.9004V83.3398C128.281 83.6914 128.288 84.2285 128.301 84.9512C128.32 85.6673 128.33 86.1947 128.33 86.5332V95H126.475V80.6543ZM144.297 92.2168C144.297 92.7246 144.482 93.125 144.854 93.418C145.225 93.7109 145.664 93.8574 146.172 93.8574C146.79 93.8574 147.389 93.7142 147.969 93.4277C148.945 92.9525 149.434 92.1745 149.434 91.0938V89.6777C149.219 89.8145 148.942 89.9284 148.604 90.0195C148.265 90.1107 147.933 90.1758 147.607 90.2148L146.543 90.3516C145.905 90.4362 145.426 90.5697 145.107 90.752C144.567 91.0579 144.297 91.5462 144.297 92.2168ZM148.555 88.6621C148.958 88.61 149.229 88.4408 149.365 88.1543C149.443 87.998 149.482 87.7734 149.482 87.4805C149.482 86.8815 149.268 86.4486 148.838 86.1816C148.415 85.9082 147.806 85.7715 147.012 85.7715C146.094 85.7715 145.443 86.0189 145.059 86.5137C144.844 86.7871 144.704 87.194 144.639 87.7344H142.998C143.031 86.4453 143.447 85.5501 144.248 85.0488C145.055 84.541 145.99 84.2871 147.051 84.2871C148.281 84.2871 149.281 84.5215 150.049 84.9902C150.811 85.459 151.191 86.1882 151.191 87.1777V93.2031C151.191 93.3854 151.227 93.5319 151.299 93.6426C151.377 93.7533 151.536 93.8086 151.777 93.8086C151.855 93.8086 151.943 93.8053 152.041 93.7988C152.139 93.7858 152.243 93.7695 152.354 93.75V95.0488C152.08 95.127 151.872 95.1758 151.729 95.1953C151.585 95.2148 151.39 95.2246 151.143 95.2246C150.537 95.2246 150.098 95.0098 149.824 94.5801C149.681 94.3522 149.58 94.0299 149.521 93.6133C149.163 94.082 148.649 94.4889 147.979 94.834C147.308 95.179 146.569 95.3516 145.762 95.3516C144.792 95.3516 143.997 95.0586 143.379 94.4727C142.767 93.8802 142.461 93.1413 142.461 92.2559C142.461 91.2858 142.764 90.5339 143.369 90C143.975 89.4661 144.769 89.1374 145.752 89.0137L148.555 88.6621ZM158.115 84.2383C159.294 84.2383 160.251 84.5247 160.986 85.0977C161.729 85.6706 162.174 86.6569 162.324 88.0566H160.615C160.511 87.4121 160.273 86.8783 159.902 86.4551C159.531 86.0254 158.936 85.8105 158.115 85.8105C156.995 85.8105 156.195 86.3574 155.713 87.4512C155.4 88.1608 155.244 89.0365 155.244 90.0781C155.244 91.1263 155.465 92.0085 155.908 92.7246C156.351 93.4408 157.048 93.7988 157.998 93.7988C158.727 93.7988 159.303 93.5775 159.727 93.1348C160.156 92.6855 160.452 92.0736 160.615 91.2988H162.324C162.129 92.6855 161.641 93.7012 160.859 94.3457C160.078 94.9837 159.079 95.3027 157.861 95.3027C156.494 95.3027 155.404 94.8047 154.59 93.8086C153.776 92.806 153.369 91.556 153.369 90.0586C153.369 88.2227 153.815 86.7936 154.707 85.7715C155.599 84.7493 156.735 84.2383 158.115 84.2383ZM164.082 80.6055H165.84V85.957C166.257 85.4297 166.631 85.0586 166.963 84.8438C167.529 84.4727 168.236 84.2871 169.082 84.2871C170.599 84.2871 171.628 84.8177 172.168 85.8789C172.461 86.4583 172.607 87.2624 172.607 88.291V95H170.801V88.4082C170.801 87.64 170.703 87.0768 170.508 86.7188C170.189 86.1458 169.59 85.8594 168.711 85.8594C167.982 85.8594 167.321 86.11 166.729 86.6113C166.136 87.1126 165.84 88.0599 165.84 89.4531V95H164.082V80.6055ZM175.215 84.5898H177.002V95H175.215V84.5898ZM175.215 80.6543H177.002V82.6465H175.215V80.6543ZM179.668 84.541H181.338V86.0254C181.833 85.4134 182.357 84.974 182.91 84.707C183.464 84.4401 184.079 84.3066 184.756 84.3066C186.24 84.3066 187.243 84.8242 187.764 85.8594C188.05 86.4258 188.193 87.2363 188.193 88.291V95H186.406V88.4082C186.406 87.7702 186.312 87.2559 186.123 86.8652C185.811 86.2142 185.244 85.8887 184.424 85.8887C184.007 85.8887 183.665 85.931 183.398 86.0156C182.917 86.1589 182.493 86.4453 182.129 86.875C181.836 87.2201 181.644 87.5781 181.553 87.9492C181.468 88.3138 181.426 88.8379 181.426 89.5215V95H179.668V84.541ZM195.156 84.3066C195.898 84.3066 196.618 84.4824 197.314 84.834C198.011 85.179 198.542 85.6283 198.906 86.1816C199.258 86.709 199.492 87.3242 199.609 88.0273C199.714 88.5091 199.766 89.2773 199.766 90.332H192.1C192.132 91.3932 192.383 92.2461 192.852 92.8906C193.32 93.5286 194.046 93.8477 195.029 93.8477C195.947 93.8477 196.68 93.5449 197.227 92.9395C197.539 92.5879 197.76 92.181 197.891 91.7188H199.619C199.574 92.1029 199.421 92.5326 199.16 93.0078C198.906 93.4766 198.62 93.8607 198.301 94.1602C197.767 94.681 197.106 95.0326 196.318 95.2148C195.895 95.319 195.417 95.3711 194.883 95.3711C193.581 95.3711 192.477 94.8991 191.572 93.9551C190.667 93.0046 190.215 91.6764 190.215 89.9707C190.215 88.291 190.671 86.9271 191.582 85.8789C192.493 84.8307 193.685 84.3066 195.156 84.3066ZM197.959 88.9355C197.887 88.1738 197.721 87.5651 197.461 87.1094C196.979 86.263 196.175 85.8398 195.049 85.8398C194.242 85.8398 193.564 86.1328 193.018 86.7188C192.471 87.2982 192.181 88.0371 192.148 88.9355H197.959ZM207.734 80.6543H209.678V93.291H216.943V95H207.734V80.6543ZM222.988 84.3066C223.73 84.3066 224.45 84.4824 225.146 84.834C225.843 85.179 226.374 85.6283 226.738 86.1816C227.09 86.709 227.324 87.3242 227.441 88.0273C227.546 88.5091 227.598 89.2773 227.598 90.332H219.932C219.964 91.3932 220.215 92.2461 220.684 92.8906C221.152 93.5286 221.878 93.8477 222.861 93.8477C223.779 93.8477 224.512 93.5449 225.059 92.9395C225.371 92.5879 225.592 92.181 225.723 91.7188H227.451C227.406 92.1029 227.253 92.5326 226.992 93.0078C226.738 93.4766 226.452 93.8607 226.133 94.1602C225.599 94.681 224.938 95.0326 224.15 95.2148C223.727 95.319 223.249 95.3711 222.715 95.3711C221.413 95.3711 220.309 94.8991 219.404 93.9551C218.499 93.0046 218.047 91.6764 218.047 89.9707C218.047 88.291 218.503 86.9271 219.414 85.8789C220.326 84.8307 221.517 84.3066 222.988 84.3066ZM225.791 88.9355C225.719 88.1738 225.553 87.5651 225.293 87.1094C224.811 86.263 224.007 85.8398 222.881 85.8398C222.074 85.8398 221.396 86.1328 220.85 86.7188C220.303 87.2982 220.013 88.0371 219.98 88.9355H225.791ZM231.113 92.2168C231.113 92.7246 231.299 93.125 231.67 93.418C232.041 93.7109 232.48 93.8574 232.988 93.8574C233.607 93.8574 234.206 93.7142 234.785 93.4277C235.762 92.9525 236.25 92.1745 236.25 91.0938V89.6777C236.035 89.8145 235.758 89.9284 235.42 90.0195C235.081 90.1107 234.749 90.1758 234.424 90.2148L233.359 90.3516C232.721 90.4362 232.243 90.5697 231.924 90.752C231.383 91.0579 231.113 91.5462 231.113 92.2168ZM235.371 88.6621C235.775 88.61 236.045 88.4408 236.182 88.1543C236.26 87.998 236.299 87.7734 236.299 87.4805C236.299 86.8815 236.084 86.4486 235.654 86.1816C235.231 85.9082 234.622 85.7715 233.828 85.7715C232.91 85.7715 232.259 86.0189 231.875 86.5137C231.66 86.7871 231.52 87.194 231.455 87.7344H229.814C229.847 86.4453 230.264 85.5501 231.064 85.0488C231.872 84.541 232.806 84.2871 233.867 84.2871C235.098 84.2871 236.097 84.5215 236.865 84.9902C237.627 85.459 238.008 86.1882 238.008 87.1777V93.2031C238.008 93.3854 238.044 93.5319 238.115 93.6426C238.193 93.7533 238.353 93.8086 238.594 93.8086C238.672 93.8086 238.76 93.8053 238.857 93.7988C238.955 93.7858 239.059 93.7695 239.17 93.75V95.0488C238.896 95.127 238.688 95.1758 238.545 95.1953C238.402 95.2148 238.206 95.2246 237.959 95.2246C237.354 95.2246 236.914 95.0098 236.641 94.5801C236.497 94.3522 236.396 94.0299 236.338 93.6133C235.98 94.082 235.465 94.4889 234.795 94.834C234.124 95.179 233.385 95.3516 232.578 95.3516C231.608 95.3516 230.814 95.0586 230.195 94.4727C229.583 93.8802 229.277 93.1413 229.277 92.2559C229.277 91.2858 229.58 90.5339 230.186 90C230.791 89.4661 231.585 89.1374 232.568 89.0137L235.371 88.6621ZM240.947 84.541H242.617V86.3477C242.754 85.9961 243.089 85.5697 243.623 85.0684C244.157 84.5605 244.772 84.3066 245.469 84.3066C245.501 84.3066 245.557 84.3099 245.635 84.3164C245.713 84.3229 245.846 84.3359 246.035 84.3555V86.2109C245.931 86.1914 245.833 86.1784 245.742 86.1719C245.658 86.1654 245.563 86.1621 245.459 86.1621C244.574 86.1621 243.893 86.4486 243.418 87.0215C242.943 87.5879 242.705 88.2422 242.705 88.9844V95H240.947V84.541ZM247.559 84.541H249.229V86.0254C249.723 85.4134 250.247 84.974 250.801 84.707C251.354 84.4401 251.969 84.3066 252.646 84.3066C254.131 84.3066 255.133 84.8242 255.654 85.8594C255.941 86.4258 256.084 87.2363 256.084 88.291V95H254.297V88.4082C254.297 87.7702 254.202 87.2559 254.014 86.8652C253.701 86.2142 253.135 85.8887 252.314 85.8887C251.898 85.8887 251.556 85.931 251.289 86.0156C250.807 86.1589 250.384 86.4453 250.02 86.875C249.727 87.2201 249.535 87.5781 249.443 87.9492C249.359 88.3138 249.316 88.8379 249.316 89.5215V95H247.559V84.541ZM258.691 84.5898H260.479V95H258.691V84.5898ZM258.691 80.6543H260.479V82.6465H258.691V80.6543ZM263.145 84.541H264.814V86.0254C265.309 85.4134 265.833 84.974 266.387 84.707C266.94 84.4401 267.555 84.3066 268.232 84.3066C269.717 84.3066 270.719 84.8242 271.24 85.8594C271.527 86.4258 271.67 87.2363 271.67 88.291V95H269.883V88.4082C269.883 87.7702 269.788 87.2559 269.6 86.8652C269.287 86.2142 268.721 85.8887 267.9 85.8887C267.484 85.8887 267.142 85.931 266.875 86.0156C266.393 86.1589 265.97 86.4453 265.605 86.875C265.312 87.2201 265.12 87.5781 265.029 87.9492C264.945 88.3138 264.902 88.8379 264.902 89.5215V95H263.145V84.541ZM277.969 84.3555C278.789 84.3555 279.505 84.5573 280.117 84.9609C280.449 85.1888 280.788 85.5208 281.133 85.957V84.6387H282.754V94.1504C282.754 95.4785 282.559 96.5267 282.168 97.2949C281.439 98.7142 280.062 99.4238 278.037 99.4238C276.911 99.4238 275.964 99.1699 275.195 98.6621C274.427 98.1608 273.997 97.373 273.906 96.2988H275.693C275.778 96.7676 275.947 97.1289 276.201 97.3828C276.598 97.7734 277.223 97.9688 278.076 97.9688C279.424 97.9688 280.306 97.4935 280.723 96.543C280.97 95.9831 281.084 94.9837 281.064 93.5449C280.713 94.0788 280.29 94.4759 279.795 94.7363C279.3 94.9967 278.646 95.127 277.832 95.127C276.699 95.127 275.706 94.7266 274.854 93.9258C274.007 93.1185 273.584 91.7871 273.584 89.9316C273.584 88.1803 274.01 86.8132 274.863 85.8301C275.723 84.847 276.758 84.3555 277.969 84.3555ZM281.133 89.7266C281.133 88.431 280.866 87.4707 280.332 86.8457C279.798 86.2207 279.118 85.9082 278.291 85.9082C277.054 85.9082 276.208 86.4876 275.752 87.6465C275.511 88.265 275.391 89.0755 275.391 90.0781C275.391 91.2565 275.628 92.1549 276.104 92.7734C276.585 93.3854 277.23 93.6914 278.037 93.6914C279.3 93.6914 280.189 93.1217 280.703 91.9824C280.99 91.3379 281.133 90.5859 281.133 89.7266Z" fill="black"/>
<path d="M62.5408 77.7609C70.4494 76.3664 78.3571 74.967 86.264 73.5625L86.4868 73.515L74.284 59.0003C67.5729 51.0174 62.0818 44.455 62.0818 44.4177C62.0818 44.3461 74.6817 9.6478 74.7528 9.5241C74.7763 9.48321 83.351 24.2872 95.5385 45.4108C106.949 65.1865 116.355 81.4917 116.443 81.6445L116.602 81.9221L77.8216 81.917L39.0409 81.9119L62.5408 77.7609V77.7609ZM211.26 74.2505C205.356 73.8722 201.923 70.511 201.013 64.219C200.771 62.5455 200.77 62.5016 200.746 51.6364L200.722 41.1198H205.947L205.967 51.2914C205.986 60.4596 205.998 61.5345 206.085 62.179C206.441 64.7966 207.149 66.5569 208.354 67.8199C209.319 68.8309 210.449 69.4233 212.013 69.7372C212.751 69.8854 214.849 69.8854 215.521 69.7377C217.107 69.3891 218.377 68.6991 219.498 67.5786C220.776 66.3018 221.721 64.4899 222.178 62.4418L222.332 61.7507L222.349 51.4928L222.366 41.2348H227.701V73.4863H222.421V70.9281C222.421 69.1897 222.402 68.3755 222.362 68.3893C222.329 68.4 222.193 68.6076 222.06 68.8504C221.151 70.509 219.635 72.0265 217.974 72.9404C215.984 74.0358 213.988 74.4258 211.26 74.251V74.2505ZM271.177 74.2249C269.093 74.068 266.899 73.3514 265.106 72.2417C261.326 69.9043 259.089 66.0504 258.434 60.7463C258.208 58.9114 258.181 56.4456 258.37 54.8862C258.792 51.4018 260.161 47.9808 262.111 45.5386C262.611 44.9129 263.745 43.7787 264.371 43.2794C266.057 41.9315 268.03 40.9894 270.139 40.5259C271.362 40.2586 273.516 40.1328 274.816 40.2535C278.081 40.556 281.073 42.093 283.106 44.5122C285.173 46.9708 286.308 50.4056 286.454 54.6347C286.476 55.2976 286.482 56.4594 286.466 57.2169L286.437 58.5945L275.003 58.6088L263.568 58.6231V59.1337C263.568 60.687 263.945 62.4561 264.598 63.9614C265.161 65.2596 266.13 66.677 266.924 67.3629C268.551 68.7696 270.542 69.6114 272.721 69.8138C273.528 69.889 275.588 69.8097 276.508 69.6682C279.136 69.2644 281.633 68.2344 283.649 66.7225C283.815 66.5963 283.983 66.4731 284.154 66.353C284.213 66.3162 284.227 66.7808 284.226 68.7348L284.223 71.1622L283.683 71.4965C281.401 72.9072 278.788 73.8135 276.021 74.1523C275.195 74.2535 272.165 74.299 271.177 74.2244V74.2249ZM281.129 53.7515C281.129 51.1493 280.032 48.2588 278.48 46.7704C277.373 45.7083 276.034 45.0591 274.442 44.8128C273.689 44.6962 272.103 44.7412 271.309 44.9012C269.631 45.2406 268.243 45.9781 267.032 47.1742C265.759 48.4331 264.803 49.9624 264.203 51.7044C263.987 52.331 263.734 53.3594 263.656 53.9319L263.618 54.2043H281.128L281.129 53.7515ZM126.023 73.4148C126.036 73.3749 129.919 63.1747 134.651 50.747L143.256 28.1508H148.785L149.014 28.7386C149.715 30.5363 166.24 73.4373 166.24 73.4598C166.24 73.4741 164.916 73.4863 163.298 73.4858L160.357 73.4853L157.976 67.1447L155.594 60.8036H136.416L136.332 61.0188C136.286 61.1373 135.269 63.9905 134.071 67.3589L131.893 73.4843L128.946 73.4853C126.613 73.4858 126.004 73.471 126.023 73.4143V73.4148ZM153.844 55.9647C153.844 55.9545 152.241 51.6098 150.282 46.3094C146.617 36.3934 146.413 35.7969 146.123 34.2047C145.987 33.4584 145.918 33.438 145.838 34.1188C145.78 34.6054 145.531 35.6952 145.338 36.2993C145.242 36.5994 143.592 41.1285 141.671 46.3651C139.749 51.6011 138.177 55.9069 138.177 55.934C138.177 55.9611 141.702 55.9831 146.01 55.9831C150.319 55.9831 153.844 55.9749 153.844 55.9652L153.844 55.9647ZM168.018 72.6603V71.8349L177.572 58.7013L187.126 45.5677L178.476 45.5386L169.826 45.5099L169.811 43.3151L169.796 41.1198H194.818V42.6026L185.263 55.8078C180.008 63.071 175.708 69.0257 175.708 69.0405C175.708 69.0553 179.956 69.0676 185.148 69.0676H194.589V73.4863H168.018V72.6603ZM238.126 73.448C238.105 73.427 238.088 66.1444 238.088 57.265V41.1198H243.31V44.4483C243.31 46.2792 243.332 47.7768 243.36 47.7768C243.387 47.7768 243.514 47.4773 243.642 47.1108C244.229 45.4328 245.247 43.8646 246.559 42.618C247.74 41.4955 249.091 40.8239 250.684 40.5668C251.132 40.4952 251.511 40.4809 252.406 40.5044C253.53 40.5336 254.118 40.6158 254.802 40.8392L255.017 40.9097V46.3303L254.4 46.0216C253.311 45.4762 252.235 45.26 250.943 45.3275C250.101 45.3709 249.549 45.4793 248.877 45.7313C247.511 46.2358 246.353 47.1816 245.586 48.4188C244.451 50.2303 243.641 52.5585 243.402 54.6986C243.359 55.0825 243.334 58.2101 243.324 64.3759L243.309 73.4863H240.737C239.322 73.4863 238.147 73.469 238.126 73.448V73.448ZM16 73.3345C16 73.3141 21.7497 63.3332 28.7773 51.1544L41.5546 29.0111L56.445 16.5154C64.6344 9.64268 71.3573 4.0105 71.3844 4.00028C71.411 3.99006 71.3036 4.26096 71.1447 4.6024C70.9862 4.94434 63.7102 20.5503 54.976 39.2828L39.0951 73.3422L27.5475 73.357C21.1967 73.3652 16 73.355 16 73.3345Z" fill="black"/>
</svg>
