<svg width="303" height="101" viewBox="0 0 303 101" fill="none" xmlns="http://www.w3.org/2000/svg">
<path d="M108.29 58.26H110.11C110.343 59.5667 110.553 61.2233 110.74 63.23C110.927 65.19 110.973 67.1033 110.88 68.97C110.18 69.53 109.34 69.9967 108.36 70.37C107.38 70.6967 106.33 70.9767 105.21 71.21C104.137 71.4433 103.017 71.6067 101.85 71.7C100.73 71.7933 99.6567 71.84 98.63 71.84C94.71 71.84 91.21 71.35 88.13 70.37C85.05 69.3433 82.4367 67.8033 80.29 65.75C78.19 63.6967 76.5567 61.0833 75.39 57.91C74.27 54.69 73.71 50.8867 73.71 46.5C73.71 41.9267 74.34 38.0533 75.6 34.88C76.86 31.66 78.5633 29.0467 80.71 27.04C82.8567 24.9867 85.3533 23.4933 88.2 22.56C91.0467 21.6267 94.0333 21.16 97.16 21.16C100.24 21.16 102.83 21.37 104.93 21.79C107.03 22.1633 108.873 22.7467 110.46 23.54C110.46 24.2867 110.437 25.1733 110.39 26.2C110.343 27.18 110.273 28.23 110.18 29.35C110.087 30.47 109.97 31.5667 109.83 32.64C109.69 33.7133 109.55 34.6933 109.41 35.58H107.59L103.95 25.5C103.437 25.22 102.573 25.0333 101.36 24.94C100.193 24.8467 99.0267 24.8 97.86 24.8C95.5267 24.8 93.31 25.2433 91.21 26.13C89.1567 26.97 87.3367 28.3 85.75 30.12C84.21 31.8933 82.9733 34.1567 82.04 36.91C81.1067 39.6167 80.64 42.8133 80.64 46.5C80.64 49.8133 81.06 52.8233 81.9 55.53C82.74 58.19 83.9533 60.4767 85.54 62.39C87.1267 64.2567 89.0633 65.7033 91.35 66.73C93.6367 67.71 96.2267 68.2 99.12 68.2C100.66 68.2 101.943 68.0833 102.97 67.85C103.997 67.6167 104.673 67.3133 105 66.94L108.29 58.26ZM143.749 61.83C143.749 62.8567 143.772 63.7433 143.819 64.49C143.865 65.2367 143.912 66.03 143.959 66.87L148.789 67.57V69.04C147.622 69.6467 146.315 70.1833 144.869 70.65C143.469 71.1167 142.115 71.4667 140.809 71.7H139.059C138.592 70.6267 138.312 69.46 138.219 68.2C138.125 66.8933 138.055 65.47 138.009 63.93H137.659C137.472 64.8633 137.099 65.82 136.539 66.8C136.025 67.7333 135.325 68.5733 134.439 69.32C133.599 70.0667 132.595 70.6733 131.429 71.14C130.262 71.6067 128.932 71.84 127.439 71.84C124.592 71.84 122.259 70.9767 120.439 69.25C118.665 67.5233 117.779 65.26 117.779 62.46C117.779 60.3133 118.199 58.5633 119.039 57.21C119.925 55.81 121.209 54.7133 122.889 53.92C124.569 53.1267 126.645 52.5667 129.119 52.24C131.592 51.8667 134.462 51.5867 137.729 51.4C137.915 49.3933 137.962 47.5967 137.869 46.01C137.822 44.3767 137.565 43 137.099 41.88C136.679 40.7133 136.025 39.8267 135.139 39.22C134.299 38.5667 133.179 38.24 131.779 38.24C131.125 38.24 130.379 38.2867 129.539 38.38C128.745 38.4267 127.952 38.6133 127.159 38.94L123.869 47.34H122.049C121.582 45.94 121.162 44.4933 120.789 43C120.462 41.5067 120.252 40.0367 120.159 38.59C121.932 37.5167 123.892 36.6767 126.039 36.07C128.232 35.4633 130.659 35.16 133.319 35.16C135.699 35.16 137.589 35.51 138.989 36.21C140.435 36.8633 141.532 37.7267 142.279 38.8C143.025 39.8733 143.515 41.0633 143.749 42.37C143.982 43.6767 144.099 44.9833 144.099 46.29C144.099 49.09 144.029 51.7967 143.889 54.41C143.795 56.9767 143.749 59.45 143.749 61.83ZM130.239 67.5C131.405 67.5 132.432 67.2667 133.319 66.8C134.205 66.3333 134.952 65.7733 135.559 65.12C136.165 64.4667 136.655 63.8133 137.029 63.16C137.402 62.46 137.659 61.8767 137.799 61.41V54.06C135.092 54.06 132.875 54.2 131.149 54.48C129.422 54.76 128.069 55.2033 127.089 55.81C126.109 56.4167 125.432 57.1867 125.059 58.12C124.685 59.0067 124.499 60.0333 124.499 61.2C124.499 63.2067 125.012 64.77 126.039 65.89C127.065 66.9633 128.465 67.5 130.239 67.5ZM171.811 18.36C172.231 18.36 172.721 18.3833 173.281 18.43C173.841 18.4767 174.424 18.5467 175.031 18.64C175.637 18.6867 176.221 18.78 176.781 18.92C177.341 19.0133 177.831 19.13 178.251 19.27C178.111 20.81 177.901 22.2567 177.621 23.61C177.387 24.9167 177.084 26.1067 176.711 27.18H174.961L171.881 21.16C170.527 21.16 169.361 21.3 168.381 21.58C167.447 21.86 166.654 22.3967 166.001 23.19C165.394 23.9833 164.927 25.1267 164.601 26.62C164.321 28.1133 164.181 30.0733 164.181 32.5V36H172.231V39.5H164.181V67.57C166.607 67.85 168.847 68.41 170.901 69.25V71H153.261V69.25C154.707 68.41 156.247 67.85 157.881 67.57V39.5H152.561V37.68C154.194 36.6533 155.967 35.8833 157.881 35.37V32.92C157.881 30.0267 158.231 27.6467 158.931 25.78C159.631 23.8667 160.611 22.3733 161.871 21.3C163.131 20.18 164.601 19.41 166.281 18.99C168.007 18.57 169.851 18.36 171.811 18.36ZM195.736 18.36C196.156 18.36 196.646 18.3833 197.206 18.43C197.766 18.4767 198.35 18.5467 198.956 18.64C199.563 18.6867 200.146 18.78 200.706 18.92C201.266 19.0133 201.756 19.13 202.176 19.27C202.036 20.81 201.826 22.2567 201.546 23.61C201.313 24.9167 201.01 26.1067 200.636 27.18H198.886L195.806 21.16C194.453 21.16 193.286 21.3 192.306 21.58C191.373 21.86 190.58 22.3967 189.926 23.19C189.32 23.9833 188.853 25.1267 188.526 26.62C188.246 28.1133 188.106 30.0733 188.106 32.5V36H196.156V39.5H188.106V67.57C190.533 67.85 192.773 68.41 194.826 69.25V71H177.186V69.25C178.633 68.41 180.173 67.85 181.806 67.57V39.5H176.486V37.68C178.12 36.6533 179.893 35.8833 181.806 35.37V32.92C181.806 30.0267 182.156 27.6467 182.856 25.78C183.556 23.8667 184.536 22.3733 185.796 21.3C187.056 20.18 188.526 19.41 190.206 18.99C191.933 18.57 193.776 18.36 195.736 18.36ZM229.462 66.1C229.089 66.8933 228.506 67.64 227.712 68.34C226.919 69.04 226.009 69.6467 224.982 70.16C223.956 70.6733 222.836 71.07 221.622 71.35C220.409 71.6767 219.172 71.84 217.912 71.84C215.159 71.84 212.732 71.42 210.632 70.58C208.532 69.6933 206.782 68.4567 205.382 66.87C203.982 65.2367 202.909 63.3 202.162 61.06C201.462 58.82 201.112 56.3 201.112 53.5C201.112 47.5267 202.489 42.9767 205.242 39.85C207.996 36.7233 211.892 35.16 216.932 35.16C218.566 35.16 220.176 35.3933 221.762 35.86C223.349 36.28 224.749 37.0033 225.962 38.03C227.222 39.0567 228.226 40.4333 228.972 42.16C229.766 43.84 230.162 45.94 230.162 48.46C230.162 49.2533 230.116 50.07 230.022 50.91C229.976 51.7033 229.859 52.5667 229.672 53.5H207.832C207.832 55.46 208.066 57.3033 208.532 59.03C209.046 60.71 209.792 62.18 210.772 63.44C211.752 64.7 212.989 65.7033 214.482 66.45C215.976 67.15 217.726 67.5 219.732 67.5C221.366 67.5 223.022 67.2667 224.702 66.8C226.382 66.3333 227.642 65.7267 228.482 64.98L229.462 66.1ZM216.652 38.24C213.992 38.24 211.962 39.15 210.562 40.97C209.162 42.7433 208.322 45.8933 208.042 50.42H223.442C223.489 50 223.512 49.6033 223.512 49.23C223.559 48.81 223.582 48.4133 223.582 48.04C223.582 45.0533 223.022 42.6733 221.902 40.9C220.782 39.1267 219.032 38.24 216.652 38.24Z" fill="black"/>
</svg>
