<svg width="303" height="100" viewBox="0 0 303 100" fill="none" xmlns="http://www.w3.org/2000/svg">
<path d="M94.7692 82.4178C95.9854 82.4178 97.1375 82.7059 97.7142 83.2819C97.8102 84.1787 97.0095 85.6189 96.4974 85.6189C95.8893 85.3949 95.3133 85.2662 94.6092 85.2662C91.6968 85.2662 90.256 88.2752 90.256 91.2516C90.256 93.1078 90.8961 94.2286 92.3689 94.2286C93.9371 94.2286 95.5373 93.1725 96.4334 92.3724C96.6574 92.5318 96.9455 93.0445 96.9455 93.6206C96.9455 94.2606 96.7535 94.8687 96.1774 95.4448C95.1533 96.4689 93.425 97.333 90.9281 97.333C88.0477 97.333 86.0635 95.7008 86.0635 91.8917C86.0635 86.8991 89.3599 82.4178 94.7372 82.4178H94.7692Z" fill="black"/>
<path d="M104.178 94.0681C105.746 94.0681 108.595 91.3151 109.395 86.0665C109.427 85.7464 109.459 85.6504 109.523 85.3304C109.171 85.2024 108.691 85.1063 108.21 85.1063C107.026 85.1063 105.81 85.4584 104.722 86.9306C103.602 88.4988 103.122 90.451 103.122 92.0199C103.122 93.3634 103.506 94.0681 104.146 94.0681H104.178ZM99.0244 92.6279C99.0244 90.7397 99.6645 87.4426 102.065 85.0423C104.114 82.9301 106.61 82.4174 108.883 82.4174C110.387 82.4174 112.435 82.8974 113.716 83.1541C113.396 84.5623 112.627 89.8749 112.275 92.9473C112.115 94.2601 112.051 96.0844 112.115 96.7564C111.059 97.2045 109.075 97.3325 108.53 97.3325C108.243 97.3325 108.178 96.0204 108.275 94.7722C108.306 94.3562 108.371 93.7481 108.402 93.492C107.154 95.5723 104.69 97.3325 102.097 97.3325C100.241 97.3325 99.0244 95.7963 99.0244 92.6599V92.6279V92.6279Z" fill="black"/>
<path d="M121.684 82.4178C122.996 82.4178 124.244 82.8979 124.821 83.506C124.789 84.4027 124.085 85.9063 122.964 85.4902C122.484 85.3302 122.004 85.2028 121.364 85.2028C120.5 85.2028 119.763 85.5869 119.763 86.3863C119.763 86.9944 120.211 87.4431 122.356 88.9473C123.893 90.0674 124.501 91.0596 124.501 92.4677C124.501 94.8047 122.292 97.333 118.451 97.333C116.883 97.333 115.506 96.7249 115.058 96.0849C114.482 95.1247 114.93 93.2365 115.571 93.5559C116.403 93.9719 117.779 94.4206 118.899 94.4206C119.955 94.4206 120.628 93.9399 120.628 93.2998C120.628 92.7564 120.147 92.2757 118.195 90.8995C116.562 89.6834 116.05 88.5633 116.05 87.2831C116.05 84.6268 118.323 82.4178 121.652 82.4178H121.684Z" fill="black"/>
<path d="M132.725 82.4178C134.037 82.4178 135.285 82.8979 135.862 83.506C135.83 84.4027 135.126 85.9063 134.005 85.4902C133.525 85.3302 133.045 85.2028 132.405 85.2028C131.541 85.2028 130.805 85.5869 130.805 86.3863C130.805 86.9944 131.253 87.4431 133.397 88.9473C134.933 90.0674 135.542 91.0596 135.542 92.4677C135.542 94.8047 133.333 97.333 129.492 97.333C127.924 97.333 126.548 96.7249 126.1 96.0849C125.524 95.1247 125.972 93.2365 126.612 93.5559C127.444 93.9719 128.82 94.4206 129.94 94.4206C130.996 94.4206 131.668 93.9399 131.668 93.2998C131.668 92.7564 131.188 92.2757 129.236 90.8995C127.604 89.6834 127.092 88.5633 127.092 87.2831C127.092 84.6268 129.364 82.4178 132.693 82.4178H132.725Z" fill="black"/>
<path d="M142.805 94.0681C144.374 94.0681 147.222 91.3151 148.022 86.0665C148.054 85.7464 148.087 85.6504 148.151 85.3304C147.798 85.2024 147.319 85.1063 146.838 85.1063C145.654 85.1063 144.438 85.4584 143.349 86.9306C142.23 88.4988 141.749 90.451 141.749 92.0199C141.749 93.3634 142.133 94.0681 142.774 94.0681H142.805ZM137.652 92.6279C137.652 90.7397 138.293 87.4426 140.693 85.0423C142.741 82.9301 145.237 82.4174 147.51 82.4174C149.015 82.4174 151.064 82.8974 152.344 83.1541C152.024 84.5623 151.256 89.8749 150.903 92.9473C150.743 94.2601 150.679 96.0844 150.743 96.7564C149.687 97.2045 147.703 97.3325 147.158 97.3325C146.871 97.3325 146.806 96.0204 146.902 94.7722C146.934 94.3562 146.998 93.7481 147.03 93.492C145.782 95.5723 143.318 97.3325 140.726 97.3325C138.869 97.3325 137.652 95.7963 137.652 92.6599V92.6279V92.6279Z" fill="black"/>
<path d="M159.575 86.5784C161.048 84.2101 162.968 82.4178 165.657 82.4178C167.929 82.4178 168.665 84.5301 168.25 87.5385C168.026 88.9473 167.641 90.9636 167.385 92.8198C167.161 94.3886 167.001 95.7962 167.033 96.7569C166.201 97.173 163.768 97.333 163.224 97.333C163 97.333 162.968 95.5721 163.256 93.7159C163.512 92.1797 164.056 89.3954 164.312 87.7945C164.473 86.8671 164.44 85.7463 163.544 85.7463C162.359 85.7463 159.544 87.6352 158.135 95.3801C158.038 96.0202 157.783 96.4042 157.43 96.6283C156.951 96.917 155.926 97.173 153.846 97.205C154.23 95.2528 154.839 91.2516 155.287 88.3072C155.702 85.6189 155.863 83.89 155.766 83.2179C156.311 83.0259 159.16 82.4178 159.478 82.4178C159.832 82.4178 159.895 83.41 159.575 85.8109C159.544 86.035 159.511 86.3863 159.478 86.5784H159.575Z" fill="black"/>
<path d="M175.833 94.0361C177.241 94.0361 180.091 91.4111 180.89 86.7706C180.923 86.5145 181.019 86.0345 181.083 85.7458C180.666 85.3617 180.122 85.1057 179.259 85.1057C176.025 85.1057 174.585 88.9788 174.585 91.7638C174.585 93.268 175.097 94.0361 175.801 94.0361H175.833ZM173.721 97.3325C171.673 97.3325 170.393 95.5083 170.393 92.3719C170.393 87.1866 173.625 82.4174 179.066 82.4174C180.027 82.4174 180.89 82.6734 181.434 82.9934C181.722 81.5213 182.394 76.976 182.427 75.6319C183.322 75.4718 185.243 75.1845 186.107 75.1845C186.46 75.1845 186.556 75.5359 186.427 76.336C185.659 81.1372 184.284 90.355 184.027 92.4039C183.834 94.1321 183.803 95.8283 183.834 96.7885C182.811 97.2365 180.73 97.3325 180.187 97.3325C179.961 97.3325 179.834 95.8603 179.898 94.5482C179.931 94.1321 179.994 93.5234 179.994 93.428C178.394 96.0524 176.185 97.3325 173.753 97.3325H173.721Z" fill="black"/>
<path d="M192.475 87.0272C194.172 83.25 196.187 82.4179 197.5 82.4179C197.917 82.4179 198.556 82.674 198.844 82.994C198.973 84.0501 198.141 86.1624 197.404 86.9625C197.019 86.7705 196.541 86.5784 195.996 86.5784C194.907 86.5784 192.763 88.2753 191.419 95.5722C191.322 96.181 191.131 96.437 190.779 96.597C190.235 96.917 188.09 97.1731 187.067 97.2051C187.546 94.5801 188.378 89.2354 188.698 86.0984C188.794 85.2983 188.826 83.8261 188.762 83.25C189.371 82.962 191.771 82.4179 192.315 82.4179C192.604 82.4179 192.828 84.1788 192.378 87.0272H192.475Z" fill="black"/>
<path d="M203.772 94.0681C205.341 94.0681 208.189 91.3151 208.99 86.0665C209.021 85.7464 209.054 85.6504 209.118 85.3304C208.766 85.2024 208.286 85.1063 207.805 85.1063C206.621 85.1063 205.405 85.4584 204.316 86.9306C203.197 88.4988 202.716 90.451 202.716 92.0199C202.716 93.3634 203.1 94.0681 203.741 94.0681H203.772ZM198.619 92.6279C198.619 90.7397 199.259 87.4426 201.66 85.0423C203.708 82.9301 206.204 82.4174 208.477 82.4174C209.981 82.4174 212.03 82.8974 213.311 83.1541C212.99 84.5623 212.222 89.8749 211.87 92.9473C211.71 94.2601 211.646 96.0844 211.71 96.7564C210.654 97.2045 208.67 97.3325 208.125 97.3325C207.838 97.3325 207.774 96.0204 207.869 94.7722C207.901 94.3562 207.965 93.7481 207.998 93.492C206.749 95.5723 204.285 97.3325 201.692 97.3325C199.835 97.3325 198.619 95.7963 198.619 92.6599V92.6279V92.6279Z" fill="black"/>
<path d="M194.373 28.18C195.429 40.4829 176.067 52.1923 151.128 54.3319C126.189 56.4715 105.116 48.2305 104.061 35.9283C103.005 23.6235 122.367 11.9147 147.306 9.77511C172.245 7.63619 193.318 15.8752 194.373 28.18Z" fill="#979797"/>
<g opacity="0.350006">
<g opacity="0.350006">
<path opacity="0.350006" d="M148.038 11.2184C138.524 11.0637 127.392 14.8408 119.109 18.3779C118.247 20.8622 117.783 23.5045 117.783 26.2435C117.783 40.8373 130.961 52.6694 147.217 52.6694C163.473 52.6694 176.65 40.8373 176.65 26.2435C176.65 21.625 175.328 17.2858 173.008 13.508C166.381 12.4778 157.267 11.3684 148.038 11.2184Z" fill="white"/>
</g>
</g>
<path d="M147.217 11.215C141.95 10.8936 132.872 13.6413 125.303 16.3823C124.152 19.0967 123.514 22.067 123.514 25.1841C123.514 37.971 135.107 48.3369 147.371 48.3369C159.555 48.3369 170.334 37.9543 171.229 25.1841C171.52 21.0256 170.088 17.1071 168.1 13.7287C160.253 12.3465 151.924 11.5024 147.217 11.215Z" fill="white"/>
<path d="M133.701 23.5051C134.347 22.0743 135.326 21.3735 136.274 20.1741C136.169 19.89 135.938 18.9613 135.938 18.6392C135.938 17.2017 137.104 16.0349 138.542 16.0349C138.882 16.0349 139.206 16.1022 139.502 16.2202C143.813 12.9352 149.488 11.503 155.19 12.7778C155.711 12.8952 156.222 13.0372 156.723 13.1932C151.087 12.4118 144.734 14.408 140.413 17.8958C140.545 18.2072 140.911 19.0973 140.911 19.4553C140.911 20.8935 139.98 21.2435 138.542 21.2435C138.216 21.2435 137.903 21.1809 137.615 21.0708C136.639 22.3817 135.443 24.8786 134.857 26.4395C137.247 28.5771 139.406 29.3519 142.219 30.4033C142.212 30.2693 142.316 30.1453 142.316 30.0086C142.316 25.6727 146.133 22.149 150.47 22.149C154.356 22.149 157.573 24.9747 158.201 28.6818C160.14 27.4483 162.015 26.5028 163.444 24.6746C163.111 24.2679 162.751 23.1164 162.751 22.5497C162.751 21.2449 163.81 20.1867 165.115 20.1867C165.3 20.1867 165.477 20.2134 165.65 20.2534C166.375 18.7626 166.922 17.1824 167.272 15.5528C160.492 10.5329 147.372 11.2176 147.372 11.2176C147.372 11.2176 136.932 10.6729 129.865 14.1173C130.336 17.5251 131.695 20.7648 133.701 23.5051Z" fill="black"/>
<path d="M166.111 21.5491C166.59 21.9811 166.852 22.3605 167.058 22.7299C167.692 23.87 166.42 24.9135 165.115 24.9135C164.982 24.9135 164.854 24.8955 164.727 24.8741C163.257 27.1717 160.682 30.1181 158.394 31.601C161.902 32.1757 165.21 33.5805 167.842 35.7515C169.759 32.317 171.229 27.3578 171.229 23.1453C171.229 19.9389 169.813 17.5886 167.677 15.8644C167.564 17.5819 166.648 19.9842 166.111 21.5491Z" fill="black"/>
<path d="M137.636 43.3018C138.805 40.074 141.68 37.5731 144.4 35.3728C144.002 34.8281 143.405 33.4792 143.156 32.8405C139.839 31.8317 136.904 29.9435 134.628 27.4438C134.611 27.5165 134.591 27.5872 134.573 27.6598C134.145 29.5807 134.066 31.5056 134.279 33.3832C135.867 33.6792 137.07 35.0707 137.07 36.745C137.07 37.7377 136.199 39.1766 135.524 39.8027C136.258 41.3869 136.759 42.151 137.636 43.3018Z" fill="black"/>
<path d="M137.431 46.0112C136.037 44.625 135.072 41.86 134.168 40.1238C133.998 40.1498 133.825 40.1678 133.648 40.1678C131.757 40.1678 129.776 38.5809 130.224 36.7447C130.472 35.7286 131.173 35.0638 132.315 34.5091C132.055 32.4042 131.985 29.3785 132.473 27.1902C132.613 26.5641 132.91 26.2707 133.107 25.6747C131.021 22.6216 129.672 18.6145 129.672 14.6387C129.672 14.4933 129.68 14.35 129.683 14.2059C126.157 15.9741 123.514 18.7598 123.514 23.145C123.514 32.8449 129.1 42.3601 137.413 46.0898C137.419 46.0638 137.424 46.0372 137.431 46.0112Z" fill="black"/>
<path d="M157.87 32.602C156.796 35.657 153.892 37.8513 150.469 37.8513C148.639 37.8513 146.959 37.2199 145.624 36.1704C142.873 38.3133 140.376 42.0778 139.107 45.3435C139.677 45.9563 140.074 46.4603 140.712 47.0037C142.637 47.5051 145.288 47.0037 147.372 47.0037C155.753 47.0037 163.176 43.2753 167.432 36.7371C164.602 34.7776 161.264 32.9127 157.87 32.602Z" fill="black"/>
<path d="M133.486 24.6394C134.132 23.2086 134.942 21.8844 135.89 20.6849C135.784 20.4016 135.723 20.0955 135.723 19.7735C135.723 18.336 136.889 17.1692 138.327 17.1692C138.667 17.1692 138.991 17.2365 139.288 17.3545C143.598 14.0695 149.273 12.6373 154.975 13.9121C155.496 14.0294 156.007 14.1715 156.508 14.3275C150.872 13.5461 145.049 15.2736 140.728 18.762C140.86 19.0727 140.932 19.4154 140.932 19.7735C140.932 21.2117 139.766 22.3778 138.327 22.3778C138.001 22.3778 137.689 22.3151 137.4 22.2051C136.424 23.5159 135.626 24.9641 135.04 26.5256C137.093 28.7373 139.612 30.4861 142.425 31.5376C142.418 31.4036 142.404 31.2709 142.404 31.1342C142.404 26.7984 145.918 23.2833 150.255 23.2833C154.141 23.2833 157.358 26.1089 157.986 29.8161C159.925 28.5826 161.648 26.9984 163.076 25.1702C162.743 24.7634 162.536 24.2507 162.536 23.684C162.536 22.3791 163.595 21.321 164.9 21.321C165.085 21.321 165.262 21.3477 165.435 21.3877C166.16 19.8968 166.708 18.3166 167.058 16.6871C160.277 11.6672 147.157 12.3519 147.157 12.3519C147.157 12.3519 136.717 11.8072 129.65 15.2516C130.121 18.6594 131.481 21.8991 133.486 24.6394Z" fill="black"/>
<path d="M166.477 21.9366C166.956 22.3687 167.264 22.9881 167.264 23.6842C167.264 24.989 166.205 26.0478 164.9 26.0478C164.767 26.0478 164.639 26.0298 164.512 26.0084C163.042 28.3061 161.093 30.265 158.805 31.7478C162.187 32.2765 165.37 33.7114 168.002 35.8823C169.919 32.4479 171.014 28.4921 171.014 24.2796C171.014 21.0732 169.598 18.7229 167.462 16.9987C167.35 18.7162 167.014 20.3718 166.477 21.9366Z" fill="black"/>
<path d="M137.997 44.0776C139.166 40.8499 141.197 37.9536 143.916 35.7539C143.518 35.2085 143.19 34.6131 142.941 33.9744C139.624 32.9656 136.689 31.0774 134.413 28.5777C134.396 28.6504 134.375 28.7211 134.358 28.7938C133.929 30.7147 133.85 32.6396 134.064 34.5171C135.652 34.8132 136.855 36.2047 136.855 37.8789C136.855 38.8717 136.429 39.7644 135.753 40.3905C136.366 41.6893 137.119 42.9268 137.997 44.0776Z" fill="black"/>
<path d="M137.421 45.9726C136.027 44.5864 134.857 42.9942 133.953 41.2587C133.783 41.2847 133.61 41.302 133.433 41.302C131.542 41.302 130.009 39.7692 130.009 37.8789C130.009 36.5241 130.799 35.356 131.941 34.8012C131.681 32.697 131.769 30.5127 132.259 28.3244C132.399 27.699 132.569 27.0883 132.766 26.4915C130.68 23.4392 129.458 19.7487 129.458 15.7729C129.458 15.6275 129.464 15.4842 129.468 15.3408C125.942 17.1084 123.298 19.8947 123.298 24.2793C123.298 33.9798 129.091 42.3215 137.403 46.0513C137.409 46.0253 137.415 45.9986 137.421 45.9726Z" fill="black"/>
<path d="M157.655 33.7359C156.581 36.791 153.677 38.9852 150.255 38.9852C148.424 38.9852 146.744 38.3538 145.409 37.3044C142.658 39.4473 140.581 42.3683 139.312 45.6347C139.881 46.2475 140.489 46.8249 141.128 47.3676C143.054 47.869 145.073 48.1377 147.157 48.1377C155.538 48.1377 162.906 43.8105 167.162 37.273C164.332 35.3128 161.049 34.0466 157.655 33.7359Z" fill="black"/>
<path d="M157.931 31.7113L165.184 29.9811L157.903 29.6098L163.829 25.0812L157.105 27.4915L161.675 21.1594L155.364 25.3539L157.57 17.9417L153.236 24.0511L153.138 16.3308L150.286 23.2076L147.908 16.2488L148.037 24.4465L143.928 17.0982L146.151 24.9005L139.486 20.0532L144.707 26.614L136.432 23.571L142.963 28.4029L134.589 28.6603L143.151 30.8699L134.581 32.7228L143.04 33.3362L135.907 37.9041L143.252 35.2411L138.156 41.6959L144.596 36.5019L142.277 45.1637L147.249 38.1148L146.552 46.4398L149.374 38.8929L151.777 46.8252L152.361 38.8689L155.927 45.6571L153.82 37.8928L160.349 42.9507L156.134 36.5019L163.297 39.2929L157.82 33.9103L165.165 34.4877L157.931 31.7113Z" fill="white"/>
<g opacity="0.350006">
<g opacity="0.350006">
<path opacity="0.350006" d="M80.7087 45.5913C103.205 23.0959 121.172 16.151 137.478 12.9806C139.635 12.5613 140.043 7.84668 140.043 7.84668C140.043 7.84668 140.345 11.3191 141.856 11.7718C143.365 12.2252 145.327 6.3365 145.327 6.3365C145.327 6.3365 143.516 11.6211 145.327 11.9232C147.14 12.2252 150.461 6.78989 150.461 6.78989C150.461 6.78989 149.102 11.4698 150.009 11.7718C150.913 12.0739 155.443 4.97833 155.443 4.97833C155.443 4.97833 152.725 9.65824 155.292 10.1116C157.86 10.5643 161.604 6.91723 161.604 6.91723C161.604 6.91723 158.66 10.2543 159.972 10.715C165.558 12.6786 170.079 5.41772 170.079 5.41772C170.079 5.41772 169.032 8.60144 166.314 12.0739C172.201 13.5834 176.575 4.71363 176.575 4.71363L172.201 13.5834C174.466 14.7922 183.526 4.37426 183.526 4.37426C183.526 4.37426 178.845 12.5273 176.128 14.1875C177.637 15.3956 183.073 10.5643 183.073 10.5643C183.073 10.5643 178.694 15.999 180.355 16.3011C182.771 18.264 191.678 6.18581 191.678 6.18581C191.678 6.18581 188.206 13.2813 183.073 18.868C187.363 21.0143 198.02 7.24261 198.02 7.24261C198.02 7.24261 197.718 11.6211 190.017 18.566C195.755 17.8112 203.153 6.94057 203.153 6.94057C203.153 6.94057 200.435 15.0936 193.943 20.8303C199.576 20.2442 208.587 6.3365 208.587 6.3365C208.587 6.3365 205.115 15.999 198.02 21.5857C205.871 23.3219 217.194 11.6211 217.194 11.6211C217.194 11.6211 212.74 19.9255 206.927 23.3219C213.42 25.8129 222.327 15.5463 222.327 15.5463C222.327 15.5463 213.42 29.286 199.228 28.6819C194.571 28.4839 180.486 14.5548 150.31 15.6976C110.452 17.2078 101.997 34.1172 80.7087 45.5913Z" fill="#373535"/>
</g>
</g>
<path d="M81.6306 43.8828C104.127 21.3874 122.093 14.4432 138.399 11.2721C140.557 10.8528 140.965 6.13885 140.965 6.13885C140.965 6.13885 141.267 9.61194 142.777 10.064C144.287 10.5167 146.249 4.62933 146.249 4.62933C146.249 4.62933 144.438 9.91398 146.249 10.2153C148.061 10.5167 151.383 5.08205 151.383 5.08205C151.383 5.08205 150.024 9.76196 150.929 10.064C151.835 10.366 156.364 3.26983 156.364 3.26983C156.364 3.26983 153.647 7.9504 156.214 8.40313C158.78 8.85651 162.526 5.2094 162.526 5.2094C162.526 5.2094 159.582 8.54648 160.894 9.0072C166.48 10.9701 171 3.70988 171 3.70988C171 3.70988 169.952 6.89361 167.236 10.366C173.123 11.8762 177.496 3.00513 177.496 3.00513L173.123 11.8762C175.388 13.0837 184.447 2.66709 184.447 2.66709C184.447 2.66709 179.767 10.8188 177.05 12.4796C178.559 13.6878 183.995 8.85651 183.995 8.85651C183.995 8.85651 179.616 14.2918 181.277 14.5932C183.692 16.5568 192.6 4.47798 192.6 4.47798C192.6 4.47798 189.126 11.5742 183.995 17.1602C188.285 19.3071 198.942 5.53477 198.942 5.53477C198.942 5.53477 198.64 9.91398 190.939 16.8588C196.677 16.1034 204.075 5.23274 204.075 5.23274C204.075 5.23274 201.357 13.3857 194.865 19.1231C200.498 18.537 209.509 4.62933 209.509 4.62933C209.509 4.62933 206.037 14.2918 198.942 19.8779C206.793 21.6141 218.116 9.91398 218.116 9.91398C218.116 9.91398 213.662 18.217 207.849 21.6141C214.342 24.1051 223.249 13.8385 223.249 13.8385C223.249 13.8385 214.342 27.5781 200.149 26.9741C195.493 26.7754 181.408 12.8463 151.231 13.9898C111.374 15.4993 102.919 32.4087 81.6306 43.8828Z" fill="#373535"/>
<g opacity="0.350006">
<g opacity="0.350006">
<path opacity="0.350006" d="M80.1194 48.0514C92.0088 54.0155 102.88 47.146 116.581 51.0071C126.998 53.9435 139.681 57.5633 156.891 55.0716C174.103 52.5813 188.824 45.1077 195.846 31.7454C198.035 25.7827 206.942 33.1049 206.942 33.1049C206.942 33.1049 200.45 30.3873 200.602 31.6708C200.752 32.9536 210.339 37.4075 210.339 37.4075C210.339 37.4075 201.658 34.6898 202.186 36.728C202.715 38.7663 213.056 46.9193 213.056 46.9193C213.056 46.9193 201.356 38.0115 200.375 39.219C199.393 40.4272 205.357 45.3344 205.357 45.3344C205.357 45.3344 195.468 39.219 191.994 41.0226C189.497 42.3181 202.262 50.6944 202.262 50.6944C202.262 50.6944 193.957 44.3523 191.994 46.0132C190.032 47.6747 201.356 61.2624 201.356 61.2624C201.356 61.2624 188.521 47.372 187.239 48.0514C185.955 48.7308 190.786 55.3743 190.786 55.3743C190.786 55.3743 184.446 48.4288 182.71 49.637C180.974 50.8451 191.768 68.8867 191.768 68.8867C191.768 68.8867 180.068 50.3924 175.236 53.4861C182.823 70.1321 179.992 72.5104 179.992 72.5104C179.992 72.5104 179.024 55.5283 169.574 55.9777C164.818 56.2044 171.839 68.66 171.839 68.66C171.839 68.66 165.377 57.2839 161.074 57.5106C169.005 72.5198 166.178 78.6245 166.178 78.6245C166.178 78.6245 167.489 65.8056 156.733 58.6721C160.809 62.2945 154.175 78.6245 154.175 78.6245C154.175 78.6245 160.011 54.5609 149.871 59.1488C148.269 59.8722 149.758 71.1516 149.758 71.1516C149.758 71.1516 147.72 58.242 144.663 58.9221C142.881 59.3175 133.339 76.813 133.339 76.813C133.339 76.813 141.153 57.9026 138.775 58.6954C137.043 59.2735 133.793 67.0751 133.793 67.0751C133.793 67.0751 135.377 59.3748 133.793 58.9221C132.208 58.4687 123.375 67.0751 123.375 67.0751C123.375 67.0751 129.943 59.3748 128.81 57.7893C127.094 55.387 125.082 55.2743 122.695 56.2044C119.222 57.5579 114.543 63.904 114.543 63.904C114.543 63.904 119.208 57.4786 118.392 55.0716C117.083 51.2045 103.672 62.5452 103.672 62.5452C103.672 62.5452 111.599 55.0716 109.787 53.4861C107.975 51.9012 98.1383 52.3913 95.0666 52.3826C86.0081 52.3546 82.8691 50.2297 80.1194 48.0514Z" fill="#373535"/>
</g>
</g>
<path d="M79.667 46.6925C91.5565 52.6566 102.427 45.7871 116.128 49.6489C126.545 52.5839 139.228 56.2044 156.44 53.7127C173.651 51.2218 188.371 43.7482 195.393 30.3872C197.581 24.4238 206.489 31.7454 206.489 31.7454C206.489 31.7454 199.997 29.0284 200.148 30.3119C200.299 31.5947 209.886 36.0486 209.886 36.0486C209.886 36.0486 201.205 33.3316 201.733 35.3698C202.262 37.4074 212.604 45.5604 212.604 45.5604C212.604 45.5604 200.903 36.652 199.922 37.8608C198.941 39.0683 204.904 43.9749 204.904 43.9749C204.904 43.9749 195.014 37.8608 191.542 39.663C189.044 40.9592 201.809 49.3349 201.809 49.3349C201.809 49.3349 193.504 42.9934 191.542 44.6543C189.579 46.3158 200.904 59.9035 200.904 59.9035C200.904 59.9035 188.069 46.0131 186.786 46.6925C185.503 47.3726 190.335 54.0148 190.335 54.0148C190.335 54.0148 183.992 47.0699 182.257 48.2781C180.521 49.4856 191.315 67.5278 191.315 67.5278C191.315 67.5278 179.615 49.0328 174.783 52.1279C182.37 68.7733 179.539 71.1515 179.539 71.1515C179.539 71.1515 178.571 54.1695 169.121 54.6195C164.365 54.8462 171.386 67.3011 171.386 67.3011C171.386 67.3011 164.924 55.9243 160.622 56.151C168.553 71.1609 165.725 77.2656 165.725 77.2656C165.725 77.2656 167.036 64.4461 156.28 57.3125C160.356 60.9356 153.722 77.2656 153.722 77.2656C153.722 77.2656 159.559 53.202 149.42 57.7899C147.817 58.514 149.306 69.7927 149.306 69.7927C149.306 69.7927 147.267 56.8838 144.211 57.5632C142.428 57.9586 132.886 75.4541 132.886 75.4541C132.886 75.4541 140.7 56.5438 138.322 57.3372C136.59 57.9139 133.34 65.7155 133.34 65.7155C133.34 65.7155 134.925 58.0159 133.34 57.5632C131.755 57.1105 122.922 65.7155 122.922 65.7155C122.922 65.7155 129.49 58.0159 128.357 56.4304C126.641 54.0281 124.629 53.9161 122.243 54.8462C118.769 56.199 114.09 62.5452 114.09 62.5452C114.09 62.5452 118.754 56.119 117.94 53.7127C116.63 49.8463 103.22 61.1863 103.22 61.1863C103.22 61.1863 111.146 53.7127 109.334 52.1279C107.522 50.5423 97.6852 51.0331 94.6135 51.0237C85.555 50.9951 82.4167 48.8708 79.667 46.6925Z" fill="#373535"/>
</svg>
