<svg width="303" height="59" viewBox="0 0 303 59" fill="none" xmlns="http://www.w3.org/2000/svg">
<path d="M261.402 13.3458C258.421 13.3458 255.523 13.7397 252.709 14.5224C251.381 14.8937 250.137 15.3679 248.965 15.9374C248.74 15.5862 248.471 15.255 248.152 14.9439C247.049 13.8777 245.724 13.3458 244.178 13.3458H238.217V58.5099H249.806V35.0623C249.806 30.5012 250.579 28.725 252.126 27.1469C253.672 25.5789 256.045 24.7936 259.249 24.7936H264.249V13.3458H261.402ZM49.8073 0H43.8438V52.9541C43.8438 54.5272 44.3982 55.8418 45.5021 56.9105C46.606 57.9768 47.9307 58.5112 49.4761 58.5112H55.4371V5.55457C55.4371 3.98655 54.8852 2.66941 53.7838 1.59813C52.6774 0.534383 51.3527 0 49.8073 0ZM80.1567 49.3414C87.0485 49.3414 89.2287 41.993 89.2287 35.7736C89.2287 29.5567 87.0485 22.1129 80.1567 22.1129C73.2624 22.1129 71.17 29.5567 71.17 35.7736C71.17 41.993 73.2624 49.3414 80.1567 49.3414ZM80.1693 12.2507C93.2428 12.2507 100.491 21.0141 100.491 35.6281C100.491 50.1818 93.2428 58.9201 80.1693 58.9201C66.8373 58.9201 59.9179 50.1818 59.9179 35.6281C59.9179 21.0141 66.8373 12.2507 80.1693 12.2507ZM20.2363 49.3414C13.3445 49.3414 11.2496 41.993 11.2496 35.7736C11.2496 29.5567 13.3445 22.1129 20.2363 22.1129C23.8164 22.1129 26.117 24.1325 27.5094 26.9324H39.5519C37.1334 17.6096 30.4724 12.2507 20.2489 12.2507C6.91688 12.2507 0 21.0141 0 35.6281C0 50.1818 6.91688 58.9201 20.2489 58.9201C30.4724 58.9201 37.1208 53.5663 39.5368 44.276H31.639C31.639 44.276 29.514 44.3337 28.3173 45.4828C26.2349 47.4823 24.539 49.3414 20.2363 49.3414ZM141.733 14.9813C140.685 13.8573 139.332 13.2979 137.674 13.2979H131.878V41.5976C131.878 44.2921 131.078 46.2565 129.478 47.4909C127.877 48.7252 126.065 49.3424 124.076 49.3424C122.091 49.3424 120.278 48.7252 118.677 47.4909C117.076 46.2565 116.273 44.2921 116.273 41.5976V19.0205C116.273 17.45 115.752 16.1053 114.7 14.9813C113.654 13.8573 112.302 13.2979 110.644 13.2979H104.848V39.5604C104.848 47.531 107.053 52.4634 110.975 55.2181C114.886 57.9628 119.221 58.9186 124.076 58.9186C128.933 58.9186 133.271 57.9628 137.18 55.2181C141.101 52.4634 143.306 47.531 143.306 39.5604V19.0205C143.306 17.45 142.784 16.1053 141.733 14.9813ZM187.491 1.59914C186.387 0.535387 185.06 0.00100354 183.517 0.00100354H177.704V16.745C175.943 15.0917 172.227 12.2517 166.602 12.2517C154.768 12.2517 147.927 21.0125 147.927 35.6265C147.927 50.1828 154.954 58.9186 168.499 58.9186C181.726 58.9186 189.084 50.2531 189.142 35.8097H189.147V5.55558C189.147 3.98504 188.592 2.67041 187.491 1.59914ZM168.486 49.3424C161.484 49.3424 159.354 41.9915 159.354 35.7746C159.354 29.5551 161.484 22.1139 168.486 22.1139C175.446 22.1139 177.676 29.4673 177.704 35.6617V35.8097C177.696 42.0191 175.476 49.3424 168.486 49.3424ZM233.947 32.9978C233.947 33.9612 233.747 34.8418 233.35 35.6371C233.099 36.1363 232.778 36.603 232.372 37.037C231.321 38.1585 230.026 38.7204 228.481 38.7204H204.935C205.234 44.0969 207.931 49.3429 213.756 49.3429C218.056 49.3429 219.75 47.4813 221.837 45.4843C223.034 44.3377 225.156 44.275 225.156 44.275H233.057C230.636 53.5653 223.99 58.9191 213.764 58.9191C200.434 58.9191 193.515 50.1833 193.515 35.6296C193.515 21.013 200.434 12.2522 213.764 12.2522C223.99 12.2522 230.653 17.6111 233.069 26.9339C233.506 28.6023 233.784 30.4011 233.94 32.3104L233.947 32.9978ZM213.756 22.1144C208.954 22.1144 205.773 25.7247 205.427 30.0148H222.143C222.116 25.7247 218.435 22.1144 213.756 22.1144ZM303 24.7613C303 20.7597 301.399 17.6462 298.198 15.4208C295.107 13.3109 290.468 12.2522 284.287 12.2522C278.765 12.2522 274.515 13.5317 271.534 16.0882C268.885 18.311 267.274 21.3467 266.833 24.7939H277.929C278.481 23.3939 279.427 22.5384 280.646 22.0944C281.855 21.6503 283.238 21.4245 284.786 21.4245C286.713 21.4245 288.077 21.6754 289.502 22.1772C291.186 22.7692 292.069 23.7602 292.069 25.4286C292.069 27.2149 289.645 28.8833 284.786 29.5255C278.945 30.2958 274.334 30.9355 270.134 34.0716C267.437 36.0837 265.739 39.7742 265.739 44.4431C265.739 49.4483 267.269 52.9782 270.209 55.2035C272.831 57.188 277.089 58.884 283.983 58.884C290.165 58.884 294.801 57.5117 297.892 55.3992C301.093 53.1764 302.895 50.6124 303 45.9283V24.7613ZM290.551 46.7211C288.782 48.4673 286.354 49.3404 283.263 49.3404C282.302 49.3404 279.259 49.1221 277.994 47.8878C277.071 46.9896 276.504 46.0688 276.504 44.4331C276.504 43.2313 276.926 42.0923 277.661 41.2995C279.291 39.5433 281.085 39.295 284.944 38.4344C287.5 37.8624 290.636 36.9066 292.25 35.9883V39.3878C292.25 42.4461 292.317 44.9775 290.551 46.7211Z" fill="black"/>
</svg>
