<svg width="303" height="70" viewBox="0 0 303 70" fill="none" xmlns="http://www.w3.org/2000/svg">
<g clip-path="url(#clip0)">
<path d="M104.626 50.9516C93.9404 50.9516 88.5715 43.2662 88.5715 34.7397C88.5715 26.2653 94.1509 18.6331 104.731 18.6331C108.784 18.6331 111.679 19.5279 114.153 21.107L111.1 26.1074C109.363 25.002 107.468 24.3178 104.626 24.3178C98.8882 24.3178 95.8353 28.8971 95.8353 34.5818C95.8353 40.4249 98.7829 45.2669 104.731 45.2669C108.099 45.2669 110.1 44.1094 111.731 42.8983L114.521 47.6887C112.942 49.1093 109.205 50.9516 104.626 50.9516ZM127.312 31.7921C123.89 31.7921 122.785 34.6871 122.785 38.8979C122.785 43.1088 124.153 46.1091 127.575 46.1091C131.049 46.1091 132.207 43.2667 132.207 39.0559C132.154 34.845 130.786 31.7921 127.312 31.7921V31.7921ZM127.417 50.9516C119.416 50.9516 115.942 44.9511 115.942 39.0553C115.942 33.1601 119.416 27.0017 127.417 27.0017C135.418 27.0017 139.049 32.9495 139.049 38.8448C138.997 44.6879 135.47 50.9516 127.417 50.9516ZM149.103 27.5812V42.214C149.103 44.4774 149.892 45.5827 152.051 45.5827C154.366 45.5827 156.103 43.372 156.578 42.8456V27.5812H162.999V43.6878C162.999 46.6881 163.315 49.0046 163.631 50.3726H157.261C157.051 49.741 156.84 48.2672 156.788 47.3197C155.577 48.8988 153.208 50.899 149.419 50.899C144.366 50.899 142.577 47.6882 142.577 43.4773V27.5286H149.103V27.5812H149.103V27.5812ZM178.842 50.9516C171.473 50.9516 166.946 46.1612 166.946 39.0032C166.946 31.3184 172.052 27.0022 179.053 27.0022C182.737 27.0022 184.948 28.1076 186.053 28.7918L184.001 33.2133C183.001 32.5816 181.527 31.8974 179.263 31.8974C175.684 31.8974 173.79 34.6871 173.79 38.8453C173.79 43.003 175.579 46.0038 179.422 46.0038C182.054 46.0038 183.579 45.0564 184.264 44.6353L186.211 48.9509C185.159 49.6357 183.053 50.9516 178.842 50.9516ZM203.476 50.4252V35.7398C203.476 33.4764 202.686 32.3711 200.528 32.3711C198.212 32.3711 196.423 34.5292 195.949 35.1082V50.3726H189.527V16.6855H195.949V30.2656C197.107 29.0024 199.318 27.0022 203.055 27.0022C208.108 27.0022 209.897 30.213 209.897 34.4239V50.3726H203.476V50.4252V50.4252ZM221.583 45.4248C222.004 45.5827 222.951 45.898 224.635 45.898C227.952 45.898 230.004 43.4768 230.004 38.7921C230.004 34.5813 228.583 32.0547 225.32 32.0547C223.425 32.0547 221.952 33.2654 221.583 33.7391V45.4248ZM221.583 16.7382V29.3708C222.635 28.3181 224.635 27.0022 227.162 27.0022C232.847 27.0022 236.847 30.8973 236.847 38.7927C236.847 46.6354 231.583 50.9521 224.635 50.9521C219.425 50.9521 216.267 49.6362 215.108 49.1099V16.6855H221.583V16.7382V16.7382ZM252.164 40.3718H251.375C247.848 40.3718 245.375 41.4245 245.375 44.0036C245.375 45.6354 246.69 46.3191 248.112 46.3191C250.27 46.3191 251.533 45.0564 252.164 44.4242V40.3718V40.3718ZM252.848 50.4252C252.638 49.8457 252.532 48.6877 252.48 48.0034C251.48 49.2141 249.322 51.0037 246.11 51.0037C242.216 51.0042 239.216 48.6882 239.216 44.5826C239.216 38.6348 245.321 36.4772 251.375 36.4772H252.164V35.2134C252.164 33.3185 251.375 32.1605 248.533 32.1605C245.585 32.1605 243.585 33.687 242.743 34.266L239.953 30.3709C241.322 29.1076 244.374 27.0548 249.269 27.0548C255.585 27.0548 258.586 29.4761 258.586 35.5819V43.5825C258.586 46.7407 258.902 48.9509 259.217 50.4252H252.848V50.4252ZM270.166 50.9516C266.06 50.9516 263.428 49.7404 262.007 48.793L264.166 44.3189C265.06 44.9511 267.271 46.2143 269.797 46.2143C272.166 46.2143 273.482 45.5296 273.482 44.2668C273.482 42.793 270.903 42.3714 267.639 40.7923C264.481 39.2664 262.639 37.5294 262.639 34.0549C262.639 29.7388 266.06 27.0017 271.271 27.0017C275.166 27.0017 277.587 28.2123 278.64 28.7913L276.429 33.1601C275.534 32.6337 273.744 31.7389 271.587 31.7389C269.429 31.7389 268.481 32.4758 268.481 33.6865C268.481 35.1603 270.587 35.5287 273.218 36.5814C276.798 38.0558 279.377 39.7396 279.377 43.5294C279.272 48.4251 275.798 50.9516 270.166 50.9516V50.9516ZM296.641 36.2135C296.589 33.687 295.589 31.6342 292.852 31.6342C290.325 31.6342 288.851 33.2659 288.431 36.2135H296.641ZM294.22 46.2143C297.326 46.2143 299.01 45.2143 300.168 44.6353L302.221 48.7409C300.694 49.5831 298.378 50.9516 293.641 50.9516C285.956 50.9516 281.588 46.1612 281.588 38.8453C281.588 31.5815 286.588 27.0022 292.957 27.0022C300.168 27.0022 303.643 32.0026 302.853 40.5297H288.483C288.746 43.951 290.536 46.2143 294.22 46.2143Z" fill="black"/>
<path d="M34.8828 0C15.6707 0 0.0378418 15.5802 0.0378418 34.845C0.0378418 54.0571 15.6181 69.69 34.8828 69.69C54.095 69.69 69.7278 54.1098 69.7278 34.845C69.7278 15.5802 54.095 0 34.8828 0ZM58.4111 40.9508C58.4111 43.0562 57.2005 44.8985 54.8319 45.3196C50.7263 46.0559 42.094 46.4776 34.8828 46.4776C27.6717 46.4776 19.0394 46.0559 14.9338 45.3196C12.5652 44.8985 11.3546 43.0562 11.3546 40.9508V27.3707C11.3546 25.2653 12.9863 23.3177 14.9338 23.0019C16.1444 22.7914 18.9868 22.5808 21.1975 22.5808C22.0397 22.5808 22.7239 23.2125 22.7239 24.2125V33.7396L34.9355 33.4765L47.147 33.7396V24.2125C47.147 23.2125 47.8313 22.5808 48.6735 22.5808C50.8842 22.5808 53.7265 22.7914 54.9371 23.0019C56.9373 23.3177 58.5164 25.2653 58.5164 27.3707C58.4111 31.8448 58.4111 36.4241 58.4111 40.9508V40.9508Z" fill="black"/>
</g>
<defs>
<clipPath id="clip0">
<rect width="303" height="69.69" fill="white"/>
</clipPath>
</defs>
</svg>
