<svg width="303" height="100" viewBox="0 0 303 100" fill="none" xmlns="http://www.w3.org/2000/svg">
<g clip-path="url(#clip0)">
<path d="M194.733 74.9997C195.43 73.7919 195.863 72.4311 195.863 71.2091V28.7903C195.863 27.5683 195.43 26.2078 194.733 25L151.432 49.9998L194.733 74.9997Z" fill="#373737"/>
<path d="M155.28 99.0832L192.016 77.874C193.074 77.263 194.036 76.2079 194.733 74.9999L151.432 50L108.131 75.0002C108.828 76.2079 109.79 77.2633 110.848 77.874L147.584 99.0832C149.7 100.305 153.164 100.305 155.28 99.0832Z" fill="#231F20"/>
<path d="M194.733 24.9999C194.035 23.7918 193.073 22.7367 192.015 22.1257L155.279 0.916509C153.163 -0.305503 149.7 -0.305503 147.584 0.916509L110.848 22.1257C108.731 23.3475 107 26.3467 107 28.7905V71.2092C107 72.4312 107.433 73.7921 108.131 74.9998L151.432 50L194.733 24.9999Z" fill="#616161"/>
<path d="M151.432 79.6209C135.098 79.6209 121.811 66.333 121.811 49.9999C121.811 33.6668 135.098 20.3789 151.432 20.3789C161.971 20.3789 171.8 26.0505 177.083 35.1801L164.264 42.5981C161.62 38.0284 156.702 35.1894 151.432 35.1894C143.265 35.1894 136.621 41.8332 136.621 49.9999C136.621 58.1663 143.265 64.8104 151.432 64.8104C156.703 64.8104 161.62 61.9715 164.265 57.4008L177.084 64.8186C171.801 73.9491 161.971 79.6209 151.432 79.6209Z" fill="white"/>
<path d="M181.052 48.3546H177.761V45.0635H174.47V48.3546H171.179V51.6457H174.47V54.9371H177.761V51.6457H181.052V48.3546Z" fill="white"/>
<path d="M193.394 48.3546H190.103V45.0635H186.812V48.3546H183.521V51.6457H186.812V54.9371H190.103V51.6457H193.394V48.3546Z" fill="white"/>
</g>
<defs>
<clipPath id="clip0">
<rect width="88.8631" height="100" fill="white" transform="translate(107)"/>
</clipPath>
</defs>
</svg>
