<svg width="251" height="70" viewBox="0 0 251 70" fill="none" xmlns="http://www.w3.org/2000/svg">
<g clip-path="url(#clip0)">
<path d="M10.7792 45.7764L0 34.9972L35 0H56.5557L10.7792 45.7764ZM56.5557 32.2953H35L26.9255 40.3698L37.7047 51.1491" fill="black"/>
<path d="M26.9255 61.9254L35.0001 70H56.5557L37.7048 51.1489" fill="black"/>
<path d="M16.1716 51.1548L26.9339 40.3896L37.6962 51.152L26.9339 61.9171L16.1716 51.1548Z" fill="black"/>
<path d="M26.9338 61.917L37.6961 51.1548L39.1984 52.6571L28.4361 63.4193L26.9338 61.917Z" fill="url(#paint0_linear)"/>
<path d="M26.9255 61.9258L42.9189 56.4003L37.7047 51.1465" fill="url(#paint1_linear)"/>
</g>
<path d="M103.477 40.1621H85.5762V59H79.9512V16.3438H106.377V20.9727H85.5762V35.5625H103.477V40.1621ZM118.154 59H112.734V14H118.154V59ZM146.426 55.8652C144.316 58.3457 141.221 59.5859 137.139 59.5859C133.76 59.5859 131.182 58.6094 129.404 56.6562C127.646 54.6836 126.758 51.7734 126.738 47.9258V27.3008H132.158V47.7793C132.158 52.584 134.111 54.9863 138.018 54.9863C142.158 54.9863 144.912 53.4434 146.279 50.3574V27.3008H151.699V59H146.543L146.426 55.8652ZM167.314 19.625V27.3008H173.232V31.4902H167.314V51.1484C167.314 52.418 167.578 53.375 168.105 54.0195C168.633 54.6445 169.531 54.957 170.801 54.957C171.426 54.957 172.285 54.8398 173.379 54.6055V59C171.953 59.3906 170.566 59.5859 169.219 59.5859C166.797 59.5859 164.971 58.8535 163.74 57.3887C162.51 55.9238 161.895 53.8438 161.895 51.1484V31.4902H156.123V27.3008H161.895V19.625H167.314ZM186.943 19.625V27.3008H192.861V31.4902H186.943V51.1484C186.943 52.418 187.207 53.375 187.734 54.0195C188.262 54.6445 189.16 54.957 190.43 54.957C191.055 54.957 191.914 54.8398 193.008 54.6055V59C191.582 59.3906 190.195 59.5859 188.848 59.5859C186.426 59.5859 184.6 58.8535 183.369 57.3887C182.139 55.9238 181.523 53.8438 181.523 51.1484V31.4902H175.752V27.3008H181.523V19.625H186.943ZM212.373 59.5859C208.076 59.5859 204.58 58.1797 201.885 55.3672C199.189 52.5352 197.842 48.7559 197.842 44.0293V43.0332C197.842 39.8887 198.438 37.0859 199.629 34.625C200.84 32.1445 202.52 30.2109 204.668 28.8242C206.836 27.418 209.18 26.7148 211.699 26.7148C215.82 26.7148 219.023 28.0723 221.309 30.7871C223.594 33.502 224.736 37.3887 224.736 42.4473V44.7031H203.262C203.34 47.8281 204.248 50.3574 205.986 52.291C207.744 54.2051 209.971 55.1621 212.666 55.1621C214.58 55.1621 216.201 54.7715 217.529 53.9902C218.857 53.209 220.02 52.1738 221.016 50.8848L224.326 53.4629C221.67 57.5449 217.686 59.5859 212.373 59.5859ZM211.699 31.168C209.512 31.168 207.676 31.9688 206.191 33.5703C204.707 35.1523 203.789 37.3789 203.438 40.25H219.316V39.8398C219.16 37.0859 218.418 34.957 217.09 33.4531C215.762 31.9297 213.965 31.168 211.699 31.168ZM246.357 32.1641C245.537 32.0273 244.648 31.959 243.691 31.959C240.137 31.959 237.725 33.4727 236.455 36.5V59H231.035V27.3008H236.309L236.396 30.9629C238.174 28.1309 240.693 26.7148 243.955 26.7148C245.01 26.7148 245.811 26.8516 246.357 27.125V32.1641Z" fill="black"/>
<defs>
<linearGradient id="paint0_linear" x1="32.317" y1="56.5339" x2="33.8194" y2="58.0363" gradientUnits="userSpaceOnUse">
<stop offset="0.2" stop-opacity="0.15"/>
<stop offset="0.85" stop-color="#616161" stop-opacity="0.01"/>
</linearGradient>
<linearGradient id="paint1_linear" x1="26.9294" y1="56.5365" x2="42.9225" y2="56.5365" gradientUnits="userSpaceOnUse">
<stop offset="0.2" stop-opacity="0.55"/>
<stop offset="0.85" stop-color="#616161" stop-opacity="0.01"/>
</linearGradient>
<clipPath id="clip0">
<rect width="56.5557" height="70" fill="white"/>
</clipPath>
</defs>
</svg>
