<svg width="303" height="100" viewBox="0 0 303 100" fill="none" xmlns="http://www.w3.org/2000/svg">
<path d="M77.9878 35.0879V43.2788C73.2075 40.9692 68.5347 39.8145 63.9692 39.8145C59.5649 39.8145 56.1722 40.9245 53.791 43.1445C51.4098 45.3646 50.2192 48.1934 50.2192 51.6309C50.2192 54.9251 51.4098 57.5928 53.791 59.6338C56.1722 61.6748 59.3053 62.6953 63.1904 62.6953C65.2493 62.6953 67.3172 62.2477 69.394 61.3525V56.9751H63.9692V50.1001H78.7666V65.4346C77.2806 66.9206 75.0158 68.138 71.9722 69.0869C68.9465 70.0179 65.9476 70.4834 62.9756 70.4834C56.4408 70.4834 51.0697 68.6841 46.8623 65.0854C42.6729 61.4689 40.5781 56.8766 40.5781 51.3086C40.5781 45.6152 42.6729 40.9782 46.8623 37.3975C51.0697 33.7988 56.5124 31.9995 63.1904 31.9995C68.7048 31.9995 73.6372 33.029 77.9878 35.0879ZM114.699 63.125V70H87.0381V32.4829H114.323V39.3579H96.3838V47.2266H113.491V54.1016H96.3838V63.125H114.699ZM159.843 32.4829V70H151.975L131.242 45.9644V70H121.896V32.4829H130.463L150.498 55.4175V32.4829H159.843ZM193.762 34.8999V42.2314C188.785 39.9935 184.819 38.8745 181.865 38.8745C180.182 38.8745 178.839 39.161 177.836 39.7339C176.852 40.2889 176.359 41.0319 176.359 41.9629C176.359 42.679 176.717 43.3594 177.434 44.0039C178.15 44.6484 179.895 45.481 182.67 46.5015C185.445 47.522 187.666 48.4709 189.331 49.3481C190.996 50.2254 192.428 51.4608 193.627 53.0542C194.845 54.6476 195.454 56.6618 195.454 59.0967C195.454 62.57 194.129 65.3361 191.479 67.395C188.847 69.4539 185.374 70.4834 181.059 70.4834C176.404 70.4834 171.892 69.2749 167.524 66.8579V58.7744C170.03 60.4574 172.25 61.6838 174.184 62.4536C176.118 63.2235 178.168 63.6084 180.334 63.6084C184.004 63.6084 185.839 62.4536 185.839 60.144C185.839 59.3563 185.472 58.6133 184.738 57.915C184.004 57.2168 182.232 56.3664 179.421 55.3638C176.628 54.3612 174.408 53.4302 172.761 52.5708C171.132 51.7114 169.717 50.485 168.518 48.8916C167.336 47.2982 166.745 45.2572 166.745 42.7686C166.745 39.5459 168.043 36.9499 170.639 34.9805C173.235 32.9932 176.708 31.9995 181.059 31.9995C185.069 31.9995 189.304 32.9663 193.762 34.8999ZM211.218 32.4829V70H201.872V32.4829H211.218ZM240.034 46.394L252.092 32.4829H260.229V70H250.883V46.582L240.759 58.3447H239.335L229.211 46.582V70H219.865V32.4829H228.002L240.034 46.394Z" fill="black"/>
</svg>
