<svg width="295" height="71" viewBox="0 0 295 71" fill="none" xmlns="http://www.w3.org/2000/svg">
<path fill-rule="evenodd" clip-rule="evenodd" d="M245.212 70.1558C250.95 70.1558 256.689 70.1558 262.428 70.1558C263.139 66.9219 263.85 63.6885 264.56 60.4548C269.474 60.4548 274.546 60.4865 279.46 60.4865C281.859 60.4865 283.983 59.7413 285.87 58.4662C288.148 56.9271 289.849 54.5689 290.487 51.6593C291.568 46.7376 292.655 41.8168 293.741 36.8966C294.361 34.0875 295.167 30.9154 293.153 28.3783C291.3 26.0438 288.841 25.8623 286.142 25.8623C266.703 25.8836 247.264 25.8618 227.826 25.8618C225.864 25.8618 224.22 26.4964 222.505 27.3808C220.896 26.2432 219.444 25.8618 217.471 25.8618C208.578 25.8618 199.684 25.8618 190.79 25.8618C191.519 22.5837 192.247 19.3055 192.976 16.0276C187.228 16.0276 181.48 16.0276 175.732 16.0276C175.022 19.2257 174.311 22.4238 173.6 25.6218C168.545 25.6218 163.491 25.6218 158.435 25.6218C156.341 25.6218 154.329 26.2791 152.573 27.4075C150.87 26.3483 149.557 25.8883 147.539 25.8883C130.854 25.8883 114.17 25.8883 97.4849 25.8883C98.249 22.5661 99.0131 19.2435 99.7769 15.9209C94.0381 15.9121 88.2993 15.9032 82.5603 15.8943C79.2518 30.6924 75.9433 45.4905 72.6348 60.2884C78.3682 60.29 84.1017 60.2916 89.8348 60.2932C91.5596 52.72 93.2842 45.1465 95.0087 37.5731C96.9486 37.5731 98.8885 37.5731 100.829 37.5731C101.522 37.5731 101.385 37.9676 101.269 38.489C99.6379 45.757 98.0066 53.0253 96.3755 60.2932C134.385 60.2932 172.395 60.2934 210.406 60.2934C212.34 60.2934 213.854 59.8933 215.596 59.0052C217.312 60.1519 218.829 60.5329 220.926 60.5148L247.337 60.2932C246.628 63.5807 245.92 66.8682 245.212 70.1558V70.1558ZM170.736 37.6047C169.044 37.6047 167.352 37.6047 165.66 37.6047C164.77 37.6047 164.53 38.0108 164.353 38.8091C163.717 41.6593 163.082 44.51 162.446 47.3599C162.265 48.1792 162.68 48.3131 163.397 48.3131C165.043 48.3131 166.69 48.3131 168.337 48.3131C169.137 44.7437 169.936 41.1743 170.736 37.6047V37.6047ZM199.852 37.8114C201.66 37.8114 203.467 37.8114 205.274 37.8114C206.318 37.8114 206.26 38.3585 206.073 39.2037C205.452 41.9955 204.831 44.7878 204.21 47.5799C203.993 48.5548 203.386 48.5382 202.548 48.5382C200.709 48.5382 198.87 48.5382 197.031 48.5382C196.221 48.5382 196.213 48.059 196.357 47.4037C196.976 44.6124 197.595 41.8207 198.213 39.0293C198.441 37.995 198.849 37.8114 199.852 37.8114V37.8114ZM235.542 37.8114C237.349 37.8114 239.156 37.8114 240.964 37.8114C242.007 37.8114 241.95 38.3585 241.762 39.2037C241.141 41.9955 240.52 44.7878 239.899 47.5799C239.683 48.5548 239.076 48.5382 238.238 48.5382C236.399 48.5382 234.56 48.5382 232.721 48.5382C231.91 48.5382 231.903 48.059 232.047 47.4037C232.665 44.6124 233.285 41.8207 233.902 39.0293C234.131 37.995 234.538 37.8114 235.542 37.8114ZM267.369 48.6186C269.061 48.6186 270.753 48.6186 272.445 48.6186C273.335 48.6186 273.576 48.2125 273.753 47.4142C274.388 44.564 275.023 41.7133 275.659 38.8634C275.84 38.0441 275.426 37.9102 274.709 37.9102C273.062 37.9102 271.415 37.9102 269.769 37.9102C268.969 41.4796 268.169 45.049 267.369 48.6186" fill="black"/>
<path fill-rule="evenodd" clip-rule="evenodd" d="M195.883 28.3573H217.507C220.882 28.3573 223.031 31.1187 222.284 34.4928L218.431 51.8846C217.684 55.2589 214.311 58.02 210.936 58.02H189.312C185.937 58.02 183.788 55.2592 184.535 51.8846L188.388 34.4928C189.136 31.1179 192.508 28.3573 195.883 28.3573ZM199.802 35.3397H210.494C212.281 35.3397 213.418 36.8009 213.022 38.5861L210.983 47.7916C210.588 49.5766 208.803 51.0378 207.017 51.0378H196.325C194.539 51.0378 193.401 49.5769 193.797 47.7916L195.836 38.5861C196.232 36.8002 198.016 35.3397 199.802 35.3397Z" fill="#1F1917"/>
<path fill-rule="evenodd" clip-rule="evenodd" d="M231.53 28.3573H253.155C256.53 28.3573 258.679 31.1187 257.931 34.4928L254.078 51.8846C253.331 55.2589 249.958 58.02 246.583 58.02H224.959C221.584 58.02 219.435 55.2592 220.182 51.8846L224.035 34.4928C224.783 31.1179 228.155 28.3573 231.53 28.3573ZM235.449 35.3397H246.142C247.928 35.3397 249.065 36.8009 248.669 38.5861L246.63 47.7916C246.235 49.5766 244.45 51.0378 242.664 51.0378H231.972C230.186 51.0378 229.048 49.5769 229.444 47.7916L231.483 38.5861C231.879 36.8002 233.663 35.3397 235.449 35.3397Z" fill="#1F1917"/>
<path fill-rule="evenodd" clip-rule="evenodd" d="M261.06 28.3573H287.014C290.389 28.3573 292.538 31.1194 291.791 34.4928L287.938 51.8846C287.191 55.2577 283.816 58.0218 280.443 58.02L254.489 58.0076L261.06 28.3573V28.3573ZM267.845 35.3397H280.001C281.788 35.3397 282.924 36.8012 282.529 38.5861L280.49 47.7916C280.095 49.5757 278.309 51.0378 276.524 51.0378H264.356" fill="#1F1917"/>
<path fill-rule="evenodd" clip-rule="evenodd" d="M181.397 57.7866H155.443C152.069 57.7866 149.92 55.0243 150.667 51.6508L154.52 34.2593C155.267 30.8856 158.641 28.1219 162.015 28.1238L187.969 28.136L181.397 57.7866V57.7866ZM174.613 50.804H162.456C160.67 50.804 159.533 49.3422 159.929 47.5579L161.968 38.3521C162.363 36.5678 164.149 35.1057 165.934 35.1057H178.101" fill="#1F1917"/>
<path fill-rule="evenodd" clip-rule="evenodd" d="M92.5162 28.3572H112.354C115.729 28.3572 117.878 31.1182 117.13 34.4927L114.314 47.207H105.959L107.869 38.586C108.264 36.8002 107.126 35.3396 105.341 35.3396H93.0498C91.2648 35.3396 92.865 36.8011 92.4699 38.586L90.5853 47.0919H82.2305L85.0218 34.4927C85.7692 31.1179 89.1413 28.3572 92.5162 28.3572" fill="#1F1917"/>
<path fill-rule="evenodd" clip-rule="evenodd" d="M79.8735 57.7866L85.5763 32.1185H93.9083L88.1965 57.7866" fill="#1F1917"/>
<path fill-rule="evenodd" clip-rule="evenodd" d="M147.538 57.7866H119.797C116.422 57.7866 114.273 55.0249 115.02 51.6508L116.138 46.6045H116.143L116.358 45.634C117.105 42.2603 120.479 39.4971 123.853 39.4985L143.263 39.5073L143.549 38.2188C143.854 36.5369 142.794 35.174 141.127 35.1057H118.657L120.204 28.1266L148.089 28.1345C151.394 28.1997 153.484 30.9338 152.745 34.268L152.22 36.6367H152.225L151.588 39.5109H151.594L148.322 54.2755H148.316L147.538 57.7866H147.538ZM125.974 50.804H140.753L141.714 46.4806H127.188C127.118 46.4735 127.046 46.4694 126.973 46.4694C125.783 46.4694 124.595 47.4426 124.333 48.6324C124.073 49.8084 124.811 50.7724 125.976 50.7953C125.976 50.7982 125.975 50.8013 125.974 50.804" fill="#1F1917"/>
<path fill-rule="evenodd" clip-rule="evenodd" d="M195.883 28.3573H217.507C220.882 28.3573 223.031 31.1187 222.284 34.4928L218.431 51.8846C217.684 55.2589 214.311 58.02 210.936 58.02H189.312C185.937 58.02 183.788 55.2592 184.535 51.8846L188.388 34.4928C189.136 31.1179 192.508 28.3573 195.883 28.3573ZM199.802 35.3397H210.494C212.281 35.3397 213.418 36.8009 213.022 38.5861L210.983 47.7916C210.588 49.5766 208.803 51.0378 207.017 51.0378H196.325C194.539 51.0378 193.401 49.5769 193.797 47.7916L195.836 38.5861C196.232 36.8002 198.016 35.3397 199.802 35.3397Z" fill="#979797"/>
<path fill-rule="evenodd" clip-rule="evenodd" d="M231.53 28.3573H253.155C256.53 28.3573 258.679 31.1187 257.931 34.4928L254.078 51.8846C253.331 55.2589 249.958 58.02 246.583 58.02H224.959C221.584 58.02 219.435 55.2592 220.182 51.8846L224.035 34.4928C224.783 31.1179 228.155 28.3573 231.53 28.3573ZM235.449 35.3397H246.142C247.928 35.3397 249.065 36.8009 248.669 38.5861L246.63 47.7916C246.235 49.5766 244.45 51.0378 242.664 51.0378H231.972C230.186 51.0378 229.048 49.5769 229.444 47.7916L231.483 38.5861C231.879 36.8002 233.663 35.3397 235.449 35.3397Z" fill="#979797"/>
<path fill-rule="evenodd" clip-rule="evenodd" d="M261.065 28.3511L255.646 52.7683L254.49 58.0026L252.294 67.9434H260.609L262.82 58.0026L280.448 58.0168C283.821 58.0186 287.188 55.2572 287.936 51.884L291.786 34.4982C292.534 31.1248 290.383 28.3511 287.009 28.3511H261.065V28.3511ZM267.84 35.3397H280.006C281.792 35.3397 282.925 36.8066 282.53 38.5915L280.491 47.7907C280.095 49.5749 278.311 51.0425 276.526 51.0425H264.36L267.84 35.3397Z" fill="#979797"/>
<path fill-rule="evenodd" clip-rule="evenodd" d="M181.852 18.1963L179.641 28.1372L162.013 28.1229C158.64 28.1211 155.273 30.8821 154.525 34.2557L150.66 51.6558C149.913 55.0293 152.063 57.7887 155.438 57.7887H181.396L187.97 28.1372L190.167 18.1963H181.852V18.1963ZM165.935 35.1115H178.101L174.607 50.8001H162.455C160.669 50.8001 159.535 49.3467 159.931 47.5625L161.97 38.349C162.366 36.5647 164.15 35.1115 165.935 35.1115Z" fill="#979797"/>
<path fill-rule="evenodd" clip-rule="evenodd" d="M88.6331 18.1963L85.2672 33.3715H85.3099L85.1673 33.9705C85.114 34.144 85.064 34.3209 85.0247 34.4982L82.2293 47.0919H82.2578L79.876 57.7886H88.1909L90.5728 47.0919H90.587L92.4696 38.5915C92.4728 38.5779 92.4669 38.5622 92.4696 38.5487L93.197 35.3397H105.334C107.12 35.3397 108.268 36.8057 107.873 38.5915L105.962 47.206L103.623 57.7887H111.952L114.305 47.206H114.32L117.129 34.4982C117.877 31.1237 115.726 28.3511 112.351 28.3511H94.7088L96.9622 18.1963H88.633L88.6331 18.1963Z" fill="#979797"/>
<path fill-rule="evenodd" clip-rule="evenodd" d="M147.538 57.7866H119.797C116.422 57.7866 114.273 55.0249 115.02 51.6508L116.138 46.6045H116.143L116.358 45.634C117.105 42.2603 120.479 39.4971 123.853 39.4985L143.263 39.5073L143.549 38.2188C143.854 36.5369 142.794 35.174 141.127 35.1057H118.657L120.204 28.1266L148.089 28.1345C151.394 28.1997 153.484 30.9338 152.745 34.268L152.22 36.6367H152.225L151.588 39.5109H151.594L148.322 54.2755H148.316L147.538 57.7866H147.538ZM125.974 50.804H140.753L141.714 46.4806H127.188C127.118 46.4735 127.046 46.4694 126.973 46.4694C125.783 46.4694 124.595 47.4426 124.333 48.6324C124.073 49.8084 124.811 50.7724 125.976 50.7953C125.976 50.7982 125.975 50.8013 125.974 50.804" fill="#979797"/>
<path fill-rule="evenodd" clip-rule="evenodd" d="M9.7995 39.5788C9.45829 40.5075 9.11662 41.4365 8.77541 42.3657C7.93039 43.202 7.08543 44.0397 6.24019 44.8764C5.31627 45.7917 5.11757 45.7854 5.33458 47.0801C5.58942 48.6013 6.32085 50.169 7.66734 51.519C9.08296 52.938 12.0553 54.9464 14.1941 53.9997C13.9954 54.7184 13.7315 55.4719 13.3956 56.2087C11.9613 59.3534 15.4566 59.9694 17.9028 60.631C19.9357 61.1807 24.9247 62.6455 25.6447 59.9736C25.9685 58.7714 26.0187 58.1254 25.9034 56.9775C26.5361 55.5656 26.7381 55.3405 27.2617 54.5634C27.9802 53.4978 27.9286 53.0921 27.7714 51.7697C27.741 51.5148 27.704 51.2368 27.6611 50.9447C30.082 51.3089 32.4095 51.3045 34.7819 51.0102C34.0616 51.4299 33.3393 51.7975 32.3866 52.2873C30.1255 53.4495 32.2562 56.8786 33.2308 58.3802C35.276 61.5319 37.1098 63.7003 40.5647 61.8307C41.7253 61.2025 41.8149 60.5333 42.5392 59.4518C42.9393 59.2323 45.0013 57.4787 46.2276 56.488C46.6924 57.0456 47.582 57.1483 48.9312 57.2458C49.6101 57.2951 52.2724 57.2783 52.9781 57.2828C55.0953 57.2961 56.3659 57.0764 56.5315 54.769C56.6099 53.6748 56.563 53.4421 56.0246 52.4857C55.9921 51.2787 55.96 50.0715 55.9278 48.8648C55.8909 47.5052 55.6313 46.6713 55.0979 45.4011C54.6127 44.2476 54.341 43.2631 53.7746 42.1445C53.8523 41.706 53.9139 41.2535 53.9558 40.7806C54.6756 41.4739 55.3952 42.1677 56.1151 42.8611C57.4872 44.1828 58.621 45.2623 60.7131 45.1634C62.8919 45.0608 65.3862 43.3443 66.025 41.2447C66.2379 40.5439 66.4503 39.8432 66.6632 39.1426C69.9489 39.7636 73.7889 39.6214 76.6498 38.095C80.8574 35.8494 82.8262 31.3347 83.31 26.5589C83.7015 22.6955 82.948 16.1988 81.106 12.6737C80.5644 11.6371 78.1187 10.3255 77.0465 11.412C76.2387 12.2308 75.6838 13.4781 74.8117 14.2233C74.1363 14.8005 73.2995 15.0862 72.5663 15.3883C71.9987 13.8559 71.1829 12.6648 70.1839 11.4746C69.3896 10.5288 68.6411 10.0574 67.5936 9.40142C65.5236 8.10514 63.9173 6.46873 62.0338 4.91595C56.3343 0.216501 51.4399 0.36061 44.3385 3.34955C40.9505 4.77573 39.3164 6.71113 37.2384 9.49087C35.9827 9.55636 35.1199 9.79956 33.7925 10.971C32.8127 11.8357 31.9005 12.7253 31.0175 13.6471C24.3794 14.705 20.2568 15.97 15.8954 19.8366C14.1205 21.41 12.8304 23.1537 11.824 25.1138C10.8898 26.1462 9.9609 27.2045 8.72737 27.6794C7.85897 28.0134 7.87511 28.0126 7.56915 27.1958C8.60169 26.4198 8.58538 24.9592 8.68093 23.6372C9.33233 23.6682 9.5765 24.3989 10.0194 24.958C10.2808 23.7889 10.4323 21.9734 9.20197 21.3362C9.40204 20.8014 9.62841 20.2624 9.83573 19.6726C8.02099 19.9876 1.79934 24.1812 5.11899 27.3796C5.33749 28.2677 5.50955 28.8795 5.79822 29.48C6.55778 31.0596 8.26567 31.3303 9.75392 30.7499C9.34608 32.6198 9.26341 34.6544 9.50889 37.5104C9.56777 38.1951 9.66658 38.886 9.7995 39.5788" fill="black"/>
<path d="M10.1936 39.7232C10.0566 40.0965 9.91903 40.4704 9.78189 40.8438L8.99335 40.5546C9.13049 40.1812 9.26815 39.8073 9.40507 39.4341L10.1936 39.7232ZM9.78189 40.8438C9.57782 41.399 9.37341 41.9549 9.16946 42.5102L8.38098 42.2211C8.58487 41.6658 8.78928 41.1098 8.99335 40.5546L9.78189 40.8438V40.8438ZM9.16946 42.5102L9.07082 42.6629L8.77525 42.3657L9.16946 42.5102V42.5102ZM9.07082 42.6629C8.62321 43.106 8.17509 43.5499 7.7273 43.9933L7.1361 43.3989C7.58388 42.9554 8.03195 42.5115 8.47962 42.0684L9.07082 42.6629ZM7.7273 43.9933C7.3303 44.3866 6.93278 44.7804 6.5356 45.1735L5.9444 44.5791C6.34157 44.1859 6.73904 43.7922 7.1361 43.3989L7.7273 43.9933ZM6.5356 45.1735C6.35401 45.3532 6.2924 45.4126 6.23774 45.4653L5.65624 44.8575C5.77753 44.7408 5.91142 44.6118 5.9444 44.5791L6.5356 45.1735V45.1735ZM6.23774 45.4653C5.69988 45.9831 5.59348 46.0857 5.74837 47.0109L4.92041 47.149C4.6921 45.786 4.85138 45.6323 5.65624 44.8575L6.23774 45.4653ZM5.74837 47.0109C5.87325 47.7558 6.12096 48.5159 6.50975 49.2557L5.76395 49.6467C5.33488 48.8304 5.0603 47.9843 4.92041 47.149L5.74837 47.0109V47.0109ZM6.50975 49.2557C6.87071 49.9429 7.35118 50.6083 7.9644 51.2233L7.36989 51.8145C6.6894 51.1321 6.1593 50.3992 5.76395 49.6467L6.50975 49.2557ZM7.9644 51.2233C8.749 52.0099 10.0298 52.9845 11.3628 53.491L11.0672 54.2763C9.61045 53.7228 8.21924 52.6658 7.36989 51.8145L7.9644 51.2233V51.2233ZM11.3628 53.491C12.2901 53.8434 13.2351 53.9647 14.0248 53.6152L14.3631 54.384C13.3445 54.8349 12.1827 54.7003 11.0672 54.2763L11.3628 53.491V53.491ZM14.0248 53.6152L14.8361 53.2561L14.5997 54.1114L14.194 53.9996L14.0248 53.6152V53.6152ZM14.5997 54.1114C14.4943 54.4928 14.3709 54.884 14.2291 55.2764L13.4373 54.9904C13.5719 54.618 13.6887 54.248 13.7882 53.8879L14.5997 54.1114V54.1114ZM14.2291 55.2764C14.0966 55.6423 13.9467 56.0133 13.7782 56.3828L13.0127 56.0345C13.169 55.6915 13.3105 55.3409 13.4373 54.9904L14.2291 55.2764V55.2764ZM13.7782 56.3828C13.0678 57.9405 13.8123 58.7607 14.9663 59.2871L14.618 60.0526C13.039 59.3325 12.0246 58.2013 13.0127 56.0345L13.7782 56.3828V56.3828ZM14.9663 59.2871C15.7037 59.6233 16.5961 59.8557 17.4254 60.0717L17.2151 60.8832C16.3438 60.6563 15.4063 60.412 14.618 60.0526L14.9663 59.2871ZM17.4254 60.0717C17.6445 60.1285 17.8568 60.1839 18.0093 60.2252L17.7959 61.0367C17.5712 60.9758 17.393 60.9293 17.2151 60.8832L17.4254 60.0717ZM18.0093 60.2252C19.0094 60.4955 20.7382 60.9914 22.2923 61.0899L22.2396 61.9308C20.6111 61.8276 18.8282 61.3158 17.7959 61.0367L18.0093 60.2252ZM22.2923 61.0899C23.6968 61.1788 24.949 60.9422 25.2388 59.8668L26.0503 60.0803C25.6202 61.6762 24.0172 62.0435 22.2396 61.9308L22.2923 61.0899ZM25.2388 59.8668C25.3921 59.2971 25.481 58.8571 25.5181 58.4208L26.359 58.4896C26.3189 58.9636 26.2204 59.4481 26.0503 60.0803L25.2388 59.8668ZM25.5181 58.4208C25.5553 57.9823 25.54 57.5567 25.4861 57.0169L26.3205 56.938C26.3813 57.5457 26.3989 58.0176 26.359 58.4896L25.5181 58.4208V58.4208ZM25.4861 57.0169L25.5189 56.8067L25.9033 56.9775L25.4861 57.0169V57.0169ZM25.5189 56.8067C26.0846 55.5438 26.3177 55.2028 26.7295 54.5998L27.4226 55.0729C27.0419 55.6304 26.8263 55.946 26.2877 57.1482L25.5189 56.8067V56.8067ZM26.7295 54.5998C26.7715 54.5381 26.8074 54.4857 26.9133 54.3285L27.6097 54.7982C27.583 54.8379 27.4953 54.9662 27.4226 55.0729L26.7295 54.5998ZM26.9133 54.3285C27.2343 53.8523 27.382 53.5342 27.4292 53.2053L28.2604 53.3204C28.1928 53.7913 28.0067 54.209 27.6097 54.7982L26.9133 54.3285ZM27.4292 53.2053C27.4785 52.8599 27.4289 52.4475 27.354 51.8173L28.1884 51.7218C28.2706 52.4138 28.3254 52.8663 28.2604 53.3204L27.4292 53.2053V53.2053ZM27.354 51.8173C27.3335 51.6451 27.3165 51.5089 27.3047 51.4199L28.1359 51.3148C28.1611 51.5039 28.1785 51.6373 28.1884 51.7218L27.354 51.8173ZM27.3047 51.4199C27.2953 51.3486 27.2745 51.2052 27.2454 51.0055L28.0766 50.8838C28.0895 50.9733 28.1091 51.1128 28.1359 51.3148L27.3047 51.4199ZM27.2454 51.0055L27.1634 50.4446L27.7234 50.529L27.661 50.9447L27.2454 51.0055V51.0055ZM27.7234 50.529C28.9128 50.7079 30.08 50.7964 31.2412 50.804L31.2379 51.6449C30.0375 51.6371 28.8299 51.5454 27.5986 51.3603L27.7234 50.529ZM31.2412 50.804C32.4058 50.8114 33.5642 50.7379 34.7324 50.5929L34.8311 51.4274C33.6273 51.5766 32.4349 51.6525 31.2379 51.6449L31.2412 50.804ZM34.7324 50.5929L34.992 51.3748L34.7818 51.0101L34.7324 50.5929ZM34.992 51.3748C34.3133 51.7702 33.6358 52.1186 32.7715 52.5626L32.3872 51.8136C33.2403 51.3753 33.9088 51.0315 34.5715 50.6455L34.992 51.3748V51.3748ZM32.7715 52.5626C32.7084 52.595 32.6437 52.6283 32.5786 52.6617L32.1943 51.9127C32.2595 51.8792 32.3242 51.8459 32.3872 51.8136L32.7715 52.5626V52.5626ZM32.5786 52.6617C31.6903 53.1184 31.6822 54.0772 31.9959 55.0815L31.1944 55.3312C30.7646 53.9553 30.8219 52.6183 32.1943 51.9127L32.5786 52.6617V52.6617ZM31.9959 55.0815C32.3518 56.2213 33.1077 57.4207 33.5821 58.1518L32.879 58.6085C32.3791 57.8382 31.5819 56.5718 31.1944 55.3312L31.9959 55.0815ZM33.5821 58.1518C34.5753 59.6825 35.5119 60.9712 36.5874 61.6303L36.1505 62.3464C34.9343 61.601 33.9306 60.2293 32.879 58.6085L33.5821 58.1518ZM36.5874 61.6303C37.6037 62.2532 38.7919 62.311 40.3658 61.4594L40.7633 62.2019C38.8825 63.2198 37.426 63.1283 36.1505 62.3464L36.5874 61.6303ZM40.3658 61.4594C41.1095 61.0568 41.3592 60.6197 41.6954 60.0306L42.4279 60.4446C42.0217 61.1562 41.7201 61.684 40.7633 62.2019L40.3658 61.4594ZM41.6954 60.0306C41.8291 59.7963 41.976 59.5395 42.1909 59.2185L42.8872 59.6849C42.7152 59.9418 42.5649 60.2048 42.4279 60.4446L41.6954 60.0306V60.0306ZM42.1909 59.2185L42.3371 59.0822L42.5391 59.4517L42.1909 59.2185V59.2185ZM42.3371 59.0822C42.5825 58.9474 43.6313 58.0811 44.6512 57.2383L45.1868 57.8855C44.1321 58.7571 43.0472 59.6533 42.741 59.8212L42.3371 59.0822ZM44.6512 57.2383C45.1763 56.8045 45.6943 56.3765 45.9631 56.1595L46.4919 56.8164C45.9999 57.2139 45.5952 57.5481 45.1868 57.8855L44.6512 57.2383V57.2383ZM45.9631 56.1595L46.2852 55.8993L46.5511 56.2185L46.2274 56.4879L45.9631 56.1595ZM46.5511 56.2185C46.7187 56.4197 46.984 56.5441 47.3444 56.6304L47.1507 57.4484C46.6131 57.3198 46.2006 57.1133 45.9039 56.7574L46.5511 56.2185ZM47.3444 56.6304C47.7582 56.7294 48.3019 56.7779 48.9606 56.8253L48.9014 57.6662C48.211 57.6164 47.6347 57.5642 47.1507 57.4484L47.3444 56.6304ZM48.9606 56.8253C49.4771 56.8626 51.1272 56.8618 52.1928 56.8615V57.7024C51.1041 57.7029 49.4184 57.7037 48.9014 57.6662L48.9606 56.8253V56.8253ZM52.1928 56.8615C52.5308 56.8613 52.8115 56.8613 52.9795 56.8623L52.9761 57.7032C52.8084 57.7022 52.5289 57.7024 52.1926 57.7024V56.8615H52.1928ZM52.9795 56.8623C53.9725 56.8684 54.7597 56.8243 55.2795 56.5298L55.6934 57.2624C55.0075 57.651 54.1002 57.7102 52.9763 57.7032L52.9798 56.8623H52.9795ZM55.2795 56.5298C55.7544 56.2607 56.0398 55.7306 56.1109 54.7393L56.9518 54.7985C56.8575 56.1142 56.4244 56.8482 55.6934 57.2624L55.2795 56.5298V56.5298ZM56.1109 54.7393C56.1472 54.2301 56.1558 53.9263 56.0985 53.666L56.9198 53.4852C57.0008 53.8536 56.9935 54.2139 56.9518 54.7985L56.1109 54.7393ZM56.0985 53.666C56.0413 53.4053 55.9065 53.1351 55.6566 52.691L56.3924 52.2802C56.6806 52.7923 56.8389 53.1172 56.9198 53.4852L56.0985 53.666V53.666ZM55.6566 52.691L55.604 52.4955L56.0245 52.4856L55.6566 52.691ZM55.604 52.4955C55.5878 51.8921 55.5713 51.2883 55.5555 50.685L56.3965 50.6652C56.4123 51.2686 56.4288 51.8725 56.4449 52.4758L55.604 52.4955ZM55.5555 50.685C55.5395 50.0816 55.523 49.4777 55.5072 48.8746L56.3481 48.8548C56.3639 49.458 56.3804 50.0619 56.3965 50.6652L55.5555 50.685ZM55.5072 48.8746C55.4897 48.2267 55.4196 47.7068 55.2916 47.2013L56.1063 46.9975C56.2504 47.566 56.3288 48.1434 56.3481 48.8548L55.5072 48.8746V48.8746ZM55.2916 47.2013C55.1624 46.692 54.9699 46.1826 54.7101 45.5637L55.4853 45.2384C55.7586 45.8893 55.963 46.4325 56.1063 46.9975L55.2916 47.2013V47.2013ZM54.7101 45.5637C54.526 45.1262 54.3683 44.701 54.2139 44.2842L55.0024 43.9951C55.1496 44.3923 55.2998 44.7976 55.4853 45.2384L54.7101 45.5637ZM55.0024 43.9935V43.9951L54.6082 44.1397L55.0024 43.9935V43.9935ZM54.2139 44.2859C53.9736 43.6378 53.7404 43.009 53.3982 42.3333L54.1505 41.9556C54.5097 42.6647 54.7524 43.319 55.0024 43.9935L54.2139 44.2859ZM53.3982 42.3333L53.3604 42.0721L53.7744 42.1444L53.3982 42.3333V42.3333ZM53.3604 42.0721C53.4018 41.8377 53.4365 41.62 53.4629 41.4229L54.2941 41.528C54.2598 41.7846 54.2244 42.013 54.1884 42.2167L53.3604 42.0721ZM53.4629 41.4229C53.4867 41.2438 53.5109 41.0197 53.5352 40.7461L54.3761 40.815C54.3585 41.0139 54.3307 41.2533 54.2941 41.528L53.4629 41.4229ZM53.5352 40.7461L53.6135 39.8668L54.2464 40.4767L53.9556 40.7805L53.5352 40.7461ZM54.2464 40.4767C54.6581 40.8732 55.0702 41.2704 55.4819 41.6671L54.9004 42.2748C54.4887 41.8781 54.0766 41.4809 53.6649 41.0844L54.2464 40.4767V40.4767ZM55.4819 41.6671L56.4056 42.5571L55.8241 43.1649L54.9004 42.2748L55.4819 41.6671ZM56.4056 42.5571C57.0724 43.1995 57.6814 43.7831 58.3574 44.1819L57.9304 44.908C57.1736 44.4615 56.5292 43.8442 55.8241 43.1649L56.4056 42.5571V42.5571ZM58.3574 44.1819C59.0075 44.5655 59.7407 44.7879 60.6932 44.7429L60.7327 45.5838C59.5932 45.6377 58.713 45.3697 57.9304 44.908L58.3574 44.1819ZM60.6932 44.7429C61.7211 44.6945 62.8312 44.2534 63.7541 43.5725L64.2535 44.2492C63.2024 45.0246 61.926 45.5275 60.7327 45.5838L60.6932 44.7429V44.7429ZM63.7541 43.5725C64.6348 42.9229 65.337 42.061 65.6223 41.1231L66.4273 41.3663C66.0865 42.4863 65.2704 43.499 64.2535 44.2492L63.7541 43.5725V43.5725ZM65.6223 41.1231C65.7206 40.7993 65.8191 40.4752 65.9173 40.1516L66.7222 40.3948C66.6241 40.7184 66.5256 41.0425 66.4273 41.3663L65.6223 41.1231ZM65.9173 40.1516C66.0314 39.7748 66.1462 39.3976 66.2606 39.0209L67.0656 39.2642C66.9512 39.6408 66.8365 40.0181 66.7222 40.3948L65.9173 40.1516ZM66.2606 39.0209L66.3702 38.6603L66.7402 38.7303L66.6631 39.1425L66.2606 39.0209ZM66.7402 38.7303C68.4429 39.0521 70.2971 39.1645 72.0791 38.9777L72.1612 39.8122C70.2981 40.0075 68.3621 39.8903 66.5859 39.5547L66.7402 38.7303ZM72.0791 38.9777C73.6446 38.8136 75.1546 38.4161 76.4525 37.7237L76.8467 38.4662C75.4523 39.2103 73.8353 39.6366 72.1612 39.8122L72.0791 38.9777ZM76.4525 37.7237C78.3536 36.709 79.7814 35.2104 80.8094 33.4296L81.5387 33.8469C80.4341 35.7602 78.897 37.3721 76.8467 38.4662L76.4525 37.7237ZM80.8094 33.4296V33.4279L81.1741 33.6381L80.8094 33.4295V33.4296ZM80.8094 33.4279C81.9841 31.3932 82.6421 28.9924 82.8926 26.5193L83.7271 26.5982C83.4644 29.1908 82.7733 31.71 81.5387 33.8483L80.8094 33.4279V33.4279ZM82.8926 26.5193C83.0967 24.5038 82.9837 21.7551 82.5617 19.0967L83.3898 18.9654C83.8225 21.6917 83.9377 24.5187 83.7271 26.5982L82.8926 26.5193V26.5193ZM82.5617 19.0967C82.1897 16.7518 81.5776 14.4841 80.7329 12.8674L81.4788 12.4797C82.3651 14.1762 83.0042 16.5353 83.3898 18.9654L82.5617 19.0967V19.0967ZM80.7329 12.8674C80.6668 12.7407 80.5568 12.6024 80.4156 12.463L81.0037 11.8617C81.2064 12.0621 81.3707 12.2725 81.4788 12.4797L80.7329 12.8674ZM80.4156 12.463C80.0552 12.1074 79.5196 11.7705 78.9649 11.5797L79.2375 10.7847C79.9113 11.0165 80.5633 11.4272 81.0037 11.8617L80.4156 12.463ZM78.9649 11.5797C78.4503 11.4026 77.9317 11.3538 77.5613 11.5474L77.1736 10.8015C77.7711 10.4893 78.5237 10.5392 79.2375 10.7847L78.9649 11.5797V11.5797ZM77.5613 11.5474C77.4838 11.5878 77.4113 11.6405 77.347 11.7058L76.7457 11.1178C76.8744 10.9874 77.0185 10.8824 77.1736 10.8015L77.5613 11.5474V11.5474ZM77.347 11.7058C77.0031 12.0544 76.7014 12.495 76.399 12.9368L75.7059 12.4636C76.0325 11.9862 76.3587 11.5102 76.7457 11.1178L77.347 11.7058ZM76.399 12.9368C76.0012 13.5178 75.6015 14.1015 75.0842 14.5434L74.5389 13.9028C74.9764 13.529 75.342 12.995 75.7059 12.4636L76.399 12.9368ZM75.0842 14.5434C74.451 15.0845 73.7168 15.379 73.035 15.6525L72.7229 14.8708C73.3429 14.6222 74.0104 14.3543 74.5389 13.9028L75.0842 14.5434V14.5434ZM73.035 15.6525C72.9161 15.7 72.7995 15.7469 72.7254 15.7774L72.4069 14.9989C72.5375 14.9452 72.6305 14.9078 72.7229 14.8708L73.035 15.6525ZM72.7254 15.7774L72.3239 15.9428L72.1719 15.5327L72.5662 15.3881L72.7254 15.7774ZM72.1719 15.5327C71.9 14.7985 71.5664 14.1427 71.1803 13.5262L71.8931 13.0796C72.3063 13.7391 72.665 14.4456 72.9604 15.2435L72.1719 15.5327ZM71.1803 13.5262C70.79 12.9032 70.3476 12.3228 69.8618 11.7438L70.5058 11.205C71.0184 11.8159 71.4841 12.4268 71.8931 13.0796L71.1803 13.5262ZM69.8618 11.7438C69.4864 11.2969 69.1222 10.9621 68.729 10.6626L69.2381 9.99572C69.6792 10.3317 70.0869 10.7063 70.5058 11.205L69.8618 11.7438ZM68.729 10.6626C68.3365 10.3636 67.8905 10.0834 67.3701 9.75765L67.8167 9.04482C68.3436 9.37468 68.7959 9.65884 69.2381 9.99572L68.729 10.6626ZM67.3701 9.75765C65.904 8.83961 64.6751 7.76161 63.4215 6.66175L63.9732 6.02788C65.2005 7.10457 66.4035 8.15976 67.8167 9.04482L67.3701 9.75765V9.75765ZM63.4215 6.66175C62.8936 6.19897 62.3611 5.73173 61.7658 5.24094L62.3015 4.59051C62.8524 5.0448 63.4155 5.53868 63.9732 6.02788L63.4215 6.66175ZM61.7658 5.24094C58.9889 2.95126 56.4171 1.84187 53.6853 1.66981L53.738 0.828899C56.6534 1.01243 59.3793 2.18114 62.3015 4.59051L61.7658 5.24094V5.24094ZM53.6853 1.66981C50.9332 1.49661 47.9924 2.26735 44.501 3.737L44.1756 2.96175C47.7851 1.44241 50.8428 0.646797 53.738 0.828899L53.6853 1.66981ZM44.501 3.737C42.8555 4.42947 41.6378 5.24419 40.5812 6.22128L40.0129 5.60354C41.1396 4.56159 42.4335 3.69495 44.1756 2.96175L44.501 3.737V3.737ZM40.5812 6.22128C39.5166 7.20578 38.6013 8.36884 37.5749 9.74197L36.9015 9.23936C37.9528 7.83292 38.8944 6.63802 40.0129 5.60354L40.5812 6.22128ZM37.5749 9.74197L37.4562 9.90091L37.2595 9.91112L37.2382 9.49066L37.5749 9.74197V9.74197ZM37.2595 9.91112C36.6748 9.94152 36.1851 10.0122 35.6982 10.2069L35.3861 9.42517C35.9757 9.18939 36.5457 9.10495 37.2169 9.07021L37.2595 9.91112ZM35.6982 10.2069C35.2038 10.4045 34.6943 10.7352 34.07 11.2862L33.5147 10.6555C34.2174 10.0353 34.8037 9.65805 35.3861 9.42517L35.6982 10.2069V10.2069ZM34.07 11.2862C33.5893 11.7103 33.1208 12.1449 32.6608 12.5898L32.0761 11.9853C32.5376 11.5388 33.0157 11.0957 33.5147 10.6555L34.07 11.2862V11.2862ZM32.6608 12.5898L32.6592 12.5915L32.3685 12.2876L32.6608 12.5899V12.5898ZM32.6592 12.5915C32.2037 13.032 31.7588 13.4809 31.3212 13.9378L30.7135 13.3562C31.1584 12.8918 31.6118 12.4343 32.0777 11.9838L32.6592 12.5915V12.5915ZM31.3212 13.9378L31.083 14.061L31.0174 13.647L31.3212 13.9378V13.9378ZM31.083 14.061C27.7962 14.5848 25.1325 15.1597 22.7536 16.0811L22.4514 15.2959C24.8837 14.3538 27.6008 13.767 30.9517 13.233L31.083 14.061ZM22.7536 16.0811C20.3951 16.9947 18.3136 18.254 16.1729 20.1518L15.6175 19.5212C17.8379 17.5526 19.9994 16.2456 22.4514 15.2959L22.7536 16.0811ZM16.1729 20.1518C15.3054 20.9208 14.5573 21.7302 13.9048 22.5847L13.2379 22.0756C13.9253 21.1752 14.7103 20.3253 15.6175 19.5212L16.1729 20.1518ZM13.9048 22.5847C13.252 23.4395 12.691 24.3446 12.1984 25.3043L11.4493 24.9232C11.9628 23.923 12.5506 22.9757 13.2379 22.0756L13.9048 22.5847V22.5847ZM12.1984 25.3043L12.136 25.3946L11.8239 25.1137L12.1984 25.3043ZM12.136 25.3946C11.6578 25.923 11.1806 26.4586 10.6687 26.9193L10.107 26.2919C10.6011 25.8468 11.0559 25.3366 11.5117 24.8329L12.136 25.3946V25.3946ZM10.6687 26.9193C10.1322 27.4023 9.55049 27.8131 8.87822 28.072L8.57614 27.2867C9.13711 27.0706 9.63732 26.7146 10.107 26.2919L10.6687 26.9193V26.9193ZM8.87822 28.072H8.87662L8.72721 27.6794L8.87822 28.072ZM8.87662 28.072C8.33711 28.2793 8.07337 28.3833 7.77454 28.2567L8.09989 27.4814C8.11347 27.4871 8.24902 27.413 8.57774 27.2867L8.87662 28.072ZM7.77454 28.2567L7.77289 28.255L7.93719 27.869L7.77454 28.2566V28.2567ZM7.77289 28.255C7.45775 28.1213 7.36978 27.8624 7.17472 27.3418L7.96326 27.0494C8.074 27.3453 8.07177 27.4704 8.10149 27.483L7.77289 28.255ZM7.17472 27.3418L7.06507 27.049L7.31769 26.8589L7.56899 27.1956L7.17472 27.3418ZM7.31769 26.8589C8.09037 26.2783 8.16362 25.1221 8.23396 24.0085L9.07487 24.0612C8.99272 25.3634 8.90686 26.7158 7.8203 27.5323L7.31769 26.8589V26.8589ZM8.23396 24.0085C8.24303 23.8628 8.25239 23.718 8.26032 23.6075L9.10123 23.6667C9.09022 23.8188 9.08246 23.9404 9.07487 24.0612L8.23396 24.0085ZM8.26032 23.6075L8.29021 23.1972L8.70051 23.2166L8.68077 23.6371L8.26032 23.6075ZM8.70051 23.2166C9.39412 23.2496 9.71012 23.739 10.051 24.2668L9.3446 24.7203C9.12679 24.3829 8.92466 24.07 8.66103 24.0575L8.70051 23.2166V23.2166ZM10.051 24.2668C10.1461 24.4141 10.2441 24.5658 10.3478 24.6966L9.69083 25.219C9.56019 25.054 9.45088 24.8848 9.3446 24.7203L10.051 24.2668ZM10.4299 25.0482L10.2376 25.9087L9.69083 25.219L10.0193 24.9578L10.4299 25.0482ZM9.60868 24.8674C9.75068 24.2324 9.85953 23.3997 9.70572 22.718L10.5237 22.534C10.7116 23.3665 10.5911 24.327 10.4299 25.0482L9.60868 24.8674V24.8674ZM9.70572 22.718C9.60806 22.2846 9.3988 21.912 9.00972 21.7105L9.39395 20.9615C10.0372 21.2948 10.3746 21.8725 10.5237 22.534L9.70572 22.718V22.718ZM9.00972 21.7105L8.67724 21.5383L8.80754 21.1899L9.20181 21.336L9.00972 21.7105ZM8.80754 21.1899C8.86966 21.0237 8.96009 20.7931 9.05302 20.5562L9.83477 20.8619C9.76203 21.0474 9.68907 21.2338 9.59607 21.4822L8.80754 21.1899V21.1899ZM9.05302 20.5562C9.17693 20.2399 9.30421 19.9156 9.43811 19.5345L10.2331 19.8104C10.1134 20.1508 9.97209 20.5111 9.83477 20.8619L9.05302 20.5562ZM9.76494 19.2585L10.4703 19.1361L10.2331 19.8104L9.83557 19.6725L9.76494 19.2585ZM9.90625 20.0865C9.09204 20.2278 7.29892 21.234 5.99728 22.5849L5.38953 22.0034C6.80955 20.5296 8.82648 19.4213 9.76494 19.2585L9.90625 20.0865V20.0865ZM5.99728 22.5849C5.52554 23.0746 5.12562 23.6035 4.87306 24.1424L4.11105 23.7909C4.40874 23.1556 4.86222 22.5508 5.38953 22.0034L5.99728 22.5849V22.5849ZM4.87306 24.1424C4.63209 24.6564 4.52209 25.1824 4.61075 25.6931L3.78273 25.8344C3.66259 25.1423 3.80133 24.4514 4.11105 23.7909L4.87306 24.1424V24.1424ZM4.61075 25.6931C4.69113 26.157 4.94032 26.6235 5.40961 27.0756L4.82805 27.6833C4.21973 27.0971 3.89318 26.4718 3.78273 25.8344L4.61075 25.6931V25.6931ZM5.40961 27.0756L5.52622 27.2792L5.11883 27.3795L5.40961 27.0756V27.0756ZM5.52622 27.2792C5.63296 27.7136 5.72869 28.0808 5.83281 28.4127L5.03137 28.6624C4.92287 28.3166 4.82292 27.9332 4.7115 27.4797L5.52622 27.2792V27.2792ZM5.83281 28.4127C5.93241 28.7302 6.04109 29.0156 6.17744 29.2992L5.41868 29.6605C5.26648 29.3438 5.14439 29.0224 5.03137 28.6624L5.83281 28.4127V28.4127ZM6.17744 29.2992C6.47986 29.9283 6.95834 30.3112 7.50978 30.4883L7.25362 31.2897C6.49133 31.0449 5.83201 30.5201 5.41868 29.6605L6.17744 29.2992V29.2992ZM7.50978 30.4883C8.15312 30.6948 8.90167 30.6316 9.60092 30.3589L9.9066 31.1407C9.03237 31.4815 8.08386 31.5563 7.25362 31.2897L7.50978 30.4883V30.4883ZM9.60092 30.3589L10.3311 30.0741L10.1643 30.8384L9.75376 30.7498L9.60092 30.3589V30.3589ZM10.1643 30.8384C9.96627 31.7471 9.84675 32.6994 9.80665 33.775L8.96573 33.7455C9.00761 32.6225 9.13375 31.6219 9.34318 30.6612L10.1643 30.8384V30.8384ZM9.80665 33.775C9.76671 34.8509 9.80744 36.0579 9.92924 37.4758L9.08828 37.5448C8.96477 36.1068 8.92397 34.8681 8.96573 33.7455L9.80665 33.775ZM9.92924 37.4758C9.96028 37.8368 9.99748 38.1693 10.0401 38.4733L9.20894 38.5849C9.15605 38.2076 9.11532 37.8599 9.08828 37.5448L9.92924 37.4758ZM10.0401 38.4733C10.0872 38.8083 10.1448 39.1512 10.2116 39.4997L9.38716 39.6575C9.31956 39.3052 9.25971 38.9474 9.20894 38.5849L10.0401 38.4733ZM10.2116 39.4997L10.1936 39.7232L9.79934 39.5786" fill="black"/>
<path fill-rule="evenodd" clip-rule="evenodd" d="M31.2485 14.3169L25.7125 15.2165L20.6609 17.4309L16.3704 20.1298L12.2876 25.1122L9.98103 27.555L7.7508 28.3771L7.16091 26.9354L8.1923 25.4466L8.42404 23.3471L9.11491 23.3749L9.86979 24.0634L9.66618 21.9248L8.82943 21.3635L8.85482 20.5484L6.87269 21.6698L5.0778 23.7874L4.70361 25.6801L5.4711 27.1957L6.18701 29.7706L7.64298 30.4599L9.17458 30.3848L10.6268 29.5409L9.65808 34.4542L10.6268 39.9209L9.56041 42.4451L6.06767 46.2084L6.68865 48.4567L8.3432 51.0621L11.4631 53.2577L13.118 53.4842L14.9578 53.5466L13.81 58.2589L18.0312 59.989L23.2905 60.6809L25.0896 59.5046L25.228 56.3215L27.2349 52.9998L27.3733 50.3702L32.2173 50.7162L36.7153 50.301L32.2173 52.9998L32.9785 56.2522L35.8157 60.6809L38.5838 61.8574L40.7981 60.9578L41.6978 59.1586L46.3341 55.6294L47.2337 56.3907L54.4997 56.6673L55.9529 55.491L56.0913 53.415L55.607 52.5155L55.2609 46.9103L52.8389 42.0663L53.254 39.9209L54.7074 40.6821L58.7902 44.4882L60.7969 44.6265L63.0113 43.7269L65.2258 42.0663L66.3329 38.4678L72.8378 38.8829L76.7822 37.3605L79.9654 34.385L82.2489 30.0945L82.8027 25.043L82.3181 19.1609L81.0726 13.9018L79.8269 12.241L78.097 11.6872L75.0521 15.0089L72.2842 15.9777L69.8622 11.9641L67.4402 9.74972L66.1253 8.91931L60.8662 4.55964L56.6449 2.27607L52.4236 1.93001L47.5106 2.76042L43.2201 4.35204L40.2445 6.77402L37.8918 9.61132L35.4698 10.3033L31.2485 14.3169V14.3169Z" fill="#C4C4C4" stroke="#1F1917" stroke-width="0.27" stroke-miterlimit="10"/>
<path fill-rule="evenodd" clip-rule="evenodd" d="M15.1924 26.8063C10.4503 32.3372 11.5037 39.0453 12.818 45.6172C12.1166 43.8451 11.4151 42.0732 10.7138 40.3011C10.4553 38.6767 10.1969 37.0523 9.93848 35.4279C10.0122 33.7665 10.0861 32.1052 10.1601 30.444C10.8245 28.8566 11.489 27.2692 12.1535 25.6816C13.1503 24.205 14.1471 22.7282 15.144 21.2514C16.6944 19.9593 18.245 18.6672 19.7955 17.3751C21.4937 16.6738 23.192 15.9722 24.8902 15.2709C26.8837 15.0124 28.8773 14.754 30.8709 14.4956C29.0249 16.5998 27.1791 18.7043 25.3331 20.8085C20.8868 22.2506 18.2646 23.2219 15.1924 26.8063" fill="#C4C4C4"/>
<path fill-rule="evenodd" clip-rule="evenodd" d="M37.5159 9.95423C34.2192 13.1706 32.4185 15.5963 30.3205 19.3623C28.8198 22.0564 27.1365 24.6509 25.5588 27.3072C24.7608 28.6517 24.6854 29.7792 24.4469 31.3296C23.6716 30.4066 22.8964 29.4838 22.1211 28.5609C22.4903 27.4532 22.8595 26.3457 23.2287 25.2382C24.4839 22.9862 25.7392 20.7341 26.9943 18.4823C29.6524 15.861 32.3105 13.2399 34.9686 10.6187C35.8176 10.3972 36.6667 10.1758 37.5159 9.95423" fill="#C4C4C4"/>
<path fill-rule="evenodd" clip-rule="evenodd" d="M53.7966 1.9799C51.1562 2.96988 46.7713 3.29592 46.4671 6.32644C46.2505 8.47858 46.6294 9.55995 47.9266 11.8369C44.7226 8.52143 43.9301 9.03453 37.7373 10.0648C38.6233 8.80958 39.5094 7.55438 40.3954 6.29912C41.9459 5.33938 43.4966 4.37941 45.0471 3.41961C47.0406 2.97656 49.0342 2.53356 51.0278 2.09052C51.9507 2.05361 52.8737 2.01676 53.7966 1.9799" fill="#C4C4C4"/>
<path fill-rule="evenodd" clip-rule="evenodd" d="M61.082 42.9726C61.9611 43.5152 61.9422 43.9083 61.7952 44.2803C62.4886 44.0027 63.1819 43.7254 63.8753 43.4482C64.3246 42.845 64.7737 42.242 65.2229 41.6387C65.5564 40.7793 65.8898 39.9199 66.2233 39.0604C65.7972 38.7401 65.3712 38.4197 64.9451 38.0992C63.0829 38.3369 61.2207 38.5746 59.3585 38.8124C59.2199 39.1888 59.0811 39.5653 58.9424 39.9416C58.9821 40.4766 59.0218 41.0113 59.0614 41.5463C59.2396 41.8633 59.418 42.1804 59.5962 42.4972C59.8737 42.6359 60.151 42.7747 60.4282 42.9133C60.6464 42.9332 60.8642 42.9531 61.082 42.9726Z" fill="#C4C4C4"/>
<path fill-rule="evenodd" clip-rule="evenodd" d="M60.562 33.4188C57.7617 34.2272 57.7835 34.4499 56.9565 37.228C58.0482 35.4765 58.8565 34.5926 60.562 33.4188Z" fill="#C4C4C4"/>
<path fill-rule="evenodd" clip-rule="evenodd" d="M79.1821 12.6285C78.6843 12.8584 78.1997 12.9692 77.8885 13.4246C77.2185 14.4048 76.6445 15.2293 75.5366 15.9174C74.9786 16.2641 74.4014 16.4886 73.8097 16.6729C73.3189 16.8256 73.0243 16.6893 72.6064 16.9894C72.8543 17.0327 73.1021 17.0761 73.35 17.1196C73.8964 17.1196 74.4429 17.1196 74.9893 17.1196C75.663 16.7035 76.3366 16.2875 77.0101 15.8715C77.4065 15.4554 77.8025 15.0395 78.1987 14.6234C78.5265 13.9584 78.8543 13.2933 79.1821 12.6285" fill="#C4C4C4"/>
<path fill-rule="evenodd" clip-rule="evenodd" d="M34.5752 18.8432C33.4734 21.8577 32.5109 24.442 30.8418 27.1714C32.9805 24.8673 34.2768 22.9089 35.5017 20.3038C35.9774 19.292 36.0673 18.1045 37.3926 18.5461C37.4521 19.5565 37.6657 20.5668 37.7252 21.5772C38.4413 16.4441 40.4605 14.2977 45.1543 12.3057C43.8269 12.4644 42.4995 12.6227 41.1723 12.7812C39.9242 13.0587 38.6761 13.3359 37.428 13.6132C36.8138 14.5047 36.1996 15.3963 35.5856 16.2877C35.2487 17.1395 34.912 17.9914 34.5752 18.8432" fill="#C4C4C4"/>
<path fill-rule="evenodd" clip-rule="evenodd" d="M43.6687 18.7238C44.6808 23.4881 46.1382 28.0603 46.7714 32.9001C47.1826 36.045 47.2275 37.5559 45.6452 40.269C43.9159 40.1572 42.8423 40.3523 41.1697 40.9003C34.5107 43.0832 30.6918 46.2926 26.2051 39.8259C27.6374 40.5007 29.0698 41.1757 30.502 41.8509C31.5231 41.6502 32.5441 41.4495 33.5652 41.2488C35.368 40.1988 37.1708 39.1489 38.9736 38.0989C40.3802 37.8214 41.7868 37.5442 43.1932 37.2669C43.6489 35.3651 44.1045 33.4632 44.5602 31.5615C44.2234 29.0453 43.8865 26.5294 43.5498 24.0134C43.5104 22.8248 43.4707 21.6362 43.4309 20.4474C43.5104 19.8728 43.5896 19.2984 43.6687 18.7238" fill="#C4C4C4"/>
<path fill-rule="evenodd" clip-rule="evenodd" d="M55.1393 48.2028C54.5799 52.0734 56.4272 54.1543 55.6624 55.223C55.4457 55.5257 55.1522 56.0537 54.8246 56.1985C53.6541 56.7155 52.045 56.1018 51.9299 56.4045C50.6422 56.4045 49.3546 56.4045 48.0667 56.4045C47.5518 56.1864 47.0367 55.9685 46.5215 55.7507C47.3139 54.8195 48.1064 53.8884 48.8989 52.9574C49.6714 51.2734 50.444 49.5893 51.2167 47.9056C51.7121 46.2019 52.2074 44.4983 52.7024 42.7944C52.96 42.7944 53.2176 42.7944 53.4751 42.7944C54.0299 44.5972 54.5846 46.4 55.1393 48.2028Z" fill="#C4C4C4"/>
<path fill-rule="evenodd" clip-rule="evenodd" d="M48.6462 36.9503C48.96 38.7078 49.5049 39.1254 50.3316 40.8266C49.7813 43.6019 48.8974 46.9025 47.8336 49.3513C47.385 50.384 47.0229 50.9533 46.232 51.7514C44.8967 53.0998 43.5467 54.2745 42.0322 55.4432C40.9423 56.2835 40.1814 55.862 38.8364 55.6716C38.2644 56.7085 38.1064 57.2845 37.0537 57.8109C35.4346 58.6204 33.9856 56.8759 32.7148 55.8498C33.6323 57.2827 34.5497 58.7157 35.4669 60.1486C36.101 60.7429 36.7349 61.3373 37.3689 61.9317C37.9037 62.0108 38.4386 62.09 38.9736 62.1694C39.6867 61.7335 40.3999 61.2976 41.113 60.8618C41.4895 60.1486 41.866 59.4354 42.2423 58.7223C43.0347 58.128 43.8273 57.5337 44.6195 56.9392C45.5905 56.1072 46.5612 55.2752 47.5319 54.4432C48.146 53.5713 48.7601 52.6997 49.3743 51.8281C49.9288 50.7979 50.4837 49.7677 51.0383 48.7375C51.7515 46.5981 52.4646 44.4584 53.178 42.3189C53.2373 41.5064 53.2968 40.6943 53.3562 39.8822C52.4646 39.4858 51.5732 39.0896 50.6817 38.6934C50.0279 38.0792 49.3 37.5643 48.6462 36.9503Z" fill="#C4C4C4"/>
<path fill-rule="evenodd" clip-rule="evenodd" d="M27.3246 49.332C30.3243 49.332 33.4921 49.1657 36.2395 47.9057C37.017 46.7393 37.7844 45.7867 38.7357 44.7559C37.8699 46.3911 37.5984 47.3154 37.3688 49.1539C37.0715 49.5895 36.7744 50.0255 36.4772 50.4613C34.2187 50.5208 31.9604 50.5801 29.7018 50.6396C28.9688 50.5603 28.2357 50.481 27.5028 50.4019C27.4236 50.3226 27.3444 50.2433 27.2651 50.1642C27.285 49.8867 27.3049 49.6094 27.3246 49.332" fill="#C4C4C4"/>
<path fill-rule="evenodd" clip-rule="evenodd" d="M26.9086 47.2517C26.831 46.5486 26.7534 45.8451 26.6758 45.1417C26.1633 48.2264 26.2865 50.2936 24.8668 53.0568C23.8063 54.2857 22.5006 55.4038 21.0051 56.0021C21.1313 56.7597 21.1691 57.2331 21.0958 57.7886C20.8323 59.7865 16.8354 58.9039 15.1914 58.8243C17.8293 59.5036 20.4672 60.1826 23.1049 60.8618C23.6993 60.6241 24.2935 60.3864 24.888 60.1486C25.0861 58.9997 25.2842 57.8505 25.4823 56.7015C26.037 55.6714 26.5918 54.6411 27.1464 53.6112C27.2453 52.9771 27.3445 52.3431 27.4436 51.7092C27.2652 50.2234 27.087 48.7375 26.9086 47.2517Z" fill="#C4C4C4"/>
<path fill-rule="evenodd" clip-rule="evenodd" d="M22.4512 29.8379C22.3683 31.3378 22.2714 31.9632 22.9328 33.2879C23.7737 34.9717 24.8064 36.5536 25.7201 38.2178C25.8191 37.1083 25.918 35.9989 26.0172 34.8896C24.8286 33.2056 23.6399 31.5216 22.4512 29.8379" fill="#C4C4C4"/>
<path fill-rule="evenodd" clip-rule="evenodd" d="M10.2506 41.1685C9.9933 41.7162 9.73601 42.2639 9.47872 42.8115C10.1869 45.1966 10.8162 46.7075 12.1647 48.7912C11.9298 49.6355 11.7541 50.0048 11.2138 50.693C10.0271 50.5103 8.97337 50.4576 7.771 50.4612C9.09854 51.4913 10.4259 52.5214 11.7531 53.5518C12.4067 53.4329 13.0606 53.314 13.7144 53.1951C14.368 52.5414 15.0218 51.8877 15.6757 51.2339C14.7443 49.7876 13.8133 48.3414 12.8823 46.8952C12.005 44.9863 11.1277 43.0773 10.2506 41.1685" fill="#C4C4C4"/>
<path fill-rule="evenodd" clip-rule="evenodd" d="M79.1911 11.839C79.9994 15.4761 81.042 18.832 80.9453 22.557C80.8266 27.1269 79.9359 32.8994 75.7016 35.6552C70.9599 38.7414 65.3936 37.2817 60.1909 35.9594C62.3108 36.831 64.4306 37.7025 66.5502 38.5744C68.5314 38.6734 70.5125 38.7724 72.4935 38.8716C73.8408 38.4752 75.1879 38.079 76.535 37.683C77.585 36.8112 78.635 35.9395 79.6848 35.0679C80.4772 33.4038 81.2697 31.7396 82.0622 30.0756C82.3593 28.1538 82.6565 26.2321 82.9536 24.3106C82.7159 22.4284 82.4781 20.5465 82.2404 18.6645C81.8046 16.8022 81.3687 14.9398 80.933 13.0779C80.3524 12.6648 79.7718 12.252 79.1911 11.839" fill="#C4C4C4"/>
<path fill-rule="evenodd" clip-rule="evenodd" d="M8.42707 22.6792C6.27431 24.0803 5.42883 24.6955 5.66479 27.2921C5.87924 28.0698 6.0938 28.8477 6.30842 29.6254C6.61227 29.8311 6.91628 30.0366 7.22019 30.2423C7.59569 30.3673 7.97119 30.4925 8.34669 30.6177C9.02603 30.4567 9.70543 30.2959 10.3849 30.1349C10.7336 29.0532 11.0823 27.9715 11.4309 26.8898C10.4653 27.3636 9.49988 27.8375 8.53444 28.3113C8.31092 28.3113 8.08745 28.3113 7.86393 28.3113C7.6136 27.9269 7.36327 27.5425 7.11293 27.1581C7.41695 26.7111 7.72085 26.2641 8.02487 25.8171C8.18575 24.9678 8.34669 24.1185 8.50757 23.2694C8.71311 23.3319 8.91884 23.3944 9.12438 23.4569C9.37472 23.6538 9.62505 23.8503 9.87538 24.047C9.83961 23.6 9.8039 23.153 9.76802 22.706C9.59818 22.42 9.4284 22.134 9.25845 21.8479C9.08861 21.7047 8.91884 21.5618 8.74889 21.4187C8.64163 21.839 8.53443 22.2591 8.42707 22.6792" fill="#C4C4C4"/>
<path fill-rule="evenodd" clip-rule="evenodd" d="M56.7236 2.2171C58.634 3.99111 60.979 5.53322 62.5071 7.70139C63.0985 8.54081 63.7557 8.96999 62.497 10.1554C63.8268 9.77553 64.3209 9.81678 65.3853 9.94583C67.3217 10.1801 69.1366 12.9327 69.2524 14.9053C69.2296 15.0898 68.7145 15.5085 67.2173 15.9218C67.1876 15.9794 66.3724 15.8102 66.3926 15.8654C66.5482 16.2912 66.7561 16.3564 67.0735 16.5556C67.1425 17.0291 67.1868 17.7592 67.5092 18.2769C68.4514 18.2604 69.372 18.3629 70.2946 18.5456C70.6051 19.0606 70.5582 19.5754 70.5323 20.0908C70.8889 20.0315 71.2455 19.972 71.6021 19.9126C71.5029 19.1002 71.404 18.2881 71.305 17.4759C71.6218 16.9409 71.9388 16.406 72.2559 15.8712C71.8 14.8411 71.3444 13.8109 70.8889 12.7807C70.0171 11.9487 69.1455 11.1166 68.2738 10.2844C68.1901 10.2804 68.1058 10.276 68.0221 10.272C67.0417 9.67022 66.0616 9.0688 65.0814 8.46721C63.4825 7.15913 61.8836 5.85087 60.2848 4.54273C59.0976 3.76748 57.9107 2.99223 56.7236 2.2171" fill="#C4C4C4"/>
<path fill-rule="evenodd" clip-rule="evenodd" d="M59.9419 16.8607C59.8411 17.037 59.6889 17.3187 59.4939 17.5138C60.2897 18.2665 60.6823 18.7706 60.966 19.8352C60.0664 20.2818 59.1669 20.7285 58.2673 21.1752C57.5061 21.9048 56.7449 22.6346 55.9837 23.3643C54.9819 22.825 54.7322 22.4108 54.2474 21.3826C53.6828 21.5321 53.1478 21.676 52.6816 21.5049C52.9774 21.5072 53.1592 21.4332 53.4547 21.2505C53.9391 20.7472 54.4235 20.244 54.9078 19.7407C55.7635 19.0927 56.6191 18.4448 57.4745 17.7969C58.0344 17.6144 58.5944 17.4319 59.1543 17.2495C59.3681 17.1615 59.7279 16.9489 59.9419 16.8607" fill="#C4C4C4"/>
<path fill-rule="evenodd" clip-rule="evenodd" d="M62.4251 19.5454C59.563 21.0864 56.8218 22.6363 55.3584 25.563C55.3584 21.8481 59.0884 20.2128 62.4251 19.5454Z" fill="#C4C4C4"/>
<path fill-rule="evenodd" clip-rule="evenodd" d="M54.7901 12.2379C52.665 13.6869 51.1622 16.611 51.3511 19.4609C50.6588 16.9933 50.9041 14.6615 53.0296 12.9571C53.3884 12.7827 53.7469 12.6084 54.1054 12.4341C54.3337 12.3687 54.5619 12.3034 54.7901 12.2379" fill="#C4C4C4"/>
<path fill-rule="evenodd" clip-rule="evenodd" d="M58.8522 34.2368C59.2914 33.9978 60.0888 33.669 60.528 33.43C60.0762 33.5063 59.2661 33.6724 58.8143 33.7486C57.6074 33.9523 57.4655 34.2424 57.2782 35.4307C57.1898 35.9903 57.0683 36.6845 56.98 37.2442C57.2165 36.6114 57.5012 35.8759 57.7769 35.2724C58.0686 34.6341 58.2329 34.574 58.8522 34.2368V34.2368ZM36.4591 3.63368C37.4076 2.21104 37.9537 1.74825 39.4132 0.846983C37.4314 1.32437 37.0536 1.69132 36.4591 3.63368ZM36.147 6.76786C37.8067 3.43138 39.0634 2.20282 42.5382 0.564129C38.6079 1.52747 37.4525 2.21252 36.147 6.76786ZM0.605422 24.1345C0.969625 22.4638 1.30907 21.8335 2.33916 20.4621C0.668177 21.6295 0.450361 22.109 0.605422 24.1345ZM37.807 52.0968C37.7567 51.6914 37.7062 51.2856 37.6556 50.8802C37.5646 50.1457 37.5682 49.5488 37.6267 48.8094C37.6831 48.0938 37.7393 47.3783 37.7955 46.6625C37.5871 47.3899 37.1705 48.1173 36.9622 48.8447C36.8789 49.1358 36.8099 49.3712 36.7704 49.5889C33.6605 50.2243 30.5732 50.264 27.4624 49.7091C27.264 48.5575 27.0224 47.3574 26.8198 46.4972C26.7583 47.4608 26.7979 50.1243 26.7929 51.6157C26.789 52.7713 26.7404 53.1668 26.1446 54.1497C25.5867 55.0701 25.3504 55.2788 24.5695 56.8336C24.6344 57.8145 24.6356 58.4633 24.375 59.3945C23.9414 60.9423 19.5688 59.743 18.4151 59.4272C16.9946 59.0384 14.0577 58.4604 14.7963 56.5666C15.4463 54.8999 15.8582 53.1428 16.1758 50.8105C13.5732 47.0613 11.1527 41.9231 10.6883 37.3708C10.3277 33.8359 10.5441 31.6602 11.309 29.498C12.5211 26.0723 14.2165 23.1068 16.9374 20.7189C20.6073 17.4986 24.0381 16.2051 29.4096 15.3876C28.118 16.8335 26.84 18.3627 25.447 20.0021C24.0368 21.6622 23.1988 23.3386 22.3036 25.1541C21.0666 27.6616 21.0931 28.6158 22.7329 30.817C24.146 32.7141 24.9088 33.5683 25.5257 35.4243C25.0162 36.4746 24.831 37.3621 24.6596 38.7964C26.3898 40.6874 27.6754 41.9834 29.3553 42.3827C31.003 42.7744 32.3792 42.6984 33.8532 41.9449C37.1275 40.2709 40.1569 38.1095 43.8503 38.0201C45.559 33.8192 45.3863 30.3094 44.5659 26.245C44.0057 23.4693 43.7811 20.8411 43.6068 18.0113C42.914 20.9256 42.7841 23.4884 43.2979 26.3912C43.9176 29.8896 44.3992 33.7546 42.6756 36.8291C39.336 37.0848 36.4739 39.1165 33.4637 40.6755C32.2539 41.3023 30.9943 41.3632 29.655 40.9957C28.4119 40.6543 27.5731 39.832 26.2339 38.2874C26.213 36.7368 26.5628 36.021 27.2749 34.6168C28.419 32.3616 29.6819 30.2623 31.0677 28.0431C29.3707 30.0916 27.763 31.8027 26.4274 33.8619C25.9169 32.4073 25.1871 31.6689 23.9778 30.0312C22.7966 28.4317 22.6729 27.7312 23.556 25.8802C24.444 24.02 25.1971 22.3849 26.7085 20.753C29.32 17.9328 31.7123 14.7941 34.5682 12.0168C36.1187 10.5088 36.7483 10.5609 38.8051 10.2491C40.664 9.96743 42.4793 9.61161 44.3752 9.17113C42.5415 9.34205 40.7692 9.40498 38.9842 9.44925C38.9656 9.44976 38.9473 9.45039 38.9288 9.45039C40.6851 7.20743 41.7043 5.95765 44.5567 4.71831C51.5795 1.66816 56.0417 1.33829 61.5583 5.97561C62.988 7.17747 64.2368 8.34426 65.6866 9.38119C65.161 9.42614 64.708 9.52039 64.1089 9.75572C64.838 9.6168 65.6801 9.75458 66.4367 9.89286C66.6492 10.0306 66.8674 10.165 67.0912 10.2969C68.1144 10.8998 68.6952 11.2328 69.3874 12.1973C70.119 13.2164 70.7287 14.2347 71.2662 15.3572C70.914 15.2314 70.6187 15.125 70.3554 15.0467C70.1617 14.9579 69.951 14.8992 69.7275 14.8777C69.2849 14.8352 68.8613 14.944 68.5085 15.1612C68.4943 15.1678 68.4802 15.1743 68.4658 15.1812C67.8997 15.4568 67.0228 15.771 66.4359 15.8663C66.7351 15.9696 67.3971 16.0083 67.7094 15.8847C67.7513 15.8681 67.7939 15.8554 67.8375 15.845C67.6966 16.0846 67.6046 16.3569 67.5763 16.6509C67.5388 17.0408 67.6181 17.415 67.7858 17.7399C67.7863 17.741 67.7869 17.7422 67.7875 17.7433C67.8405 17.868 67.9141 17.9831 67.9951 18.0659C67.7267 18.1646 67.4531 18.2776 67.1709 18.4002C68.4795 18.2008 69.6595 18.1665 70.9369 18.3349C71.0211 18.7375 71.106 19.1641 71.1847 19.5982C71.0263 19.6108 70.8685 19.6228 70.7103 19.6352C70.6976 19.6363 70.6846 19.6375 70.6718 19.6386C70.0675 19.1556 69.3942 19.2368 68.4743 19.4467C65.6769 20.0846 66.3343 21.6544 65.0472 24.0195C66.3835 22.386 66.2845 20.677 68.462 20.1613C68.9695 20.0412 69.3149 19.8909 69.6584 19.9425C69.0402 20.2535 68.5053 20.7689 68.2933 21.3674C67.6956 23.0552 68.0668 24.4773 67.4102 26.0537C68.2236 24.6445 68.2726 23.2691 68.9999 21.7865C69.2611 21.2539 70.2305 20.4013 70.8256 20.3882C70.989 20.3848 71.152 20.3812 71.3155 20.3777C71.4589 21.3159 71.5461 22.2473 71.4904 23.0199C71.3891 24.4298 71.0227 26.5224 70.8035 27.323C71.5402 26.376 71.8758 24.3701 72.1994 22.9582C72.5364 21.4877 72.4514 19.7234 72.1564 18.1439C71.7516 15.9766 73.9836 16.3291 75.2794 15.3078C76.2319 14.5568 76.8875 13.3578 77.7609 12.5085C78.6273 11.6662 79.9908 12.9039 80.3314 13.7273C81.809 17.3015 82.482 22.9248 82.0918 26.5279C81.6539 30.5709 79.7009 34.9846 76.1349 36.9752C71.5891 39.5123 66.2291 37.9622 61.7127 36.4407C60.7487 36.1159 60.0784 35.6426 59.231 35.1088C59.4617 36.1477 59.5665 37.2472 59.2596 38.2847C58.7723 39.9308 57.9855 42.6242 60.2205 43.121C61.0711 43.31 61.4569 43.2827 62.6579 42.663C61.6858 42.8828 61.1958 42.8289 60.5278 42.7055C59.9223 42.594 59.6013 42.2092 59.4322 41.7558C59.6437 41.9086 59.9886 41.9917 60.5781 42.1337C62.235 42.533 63.814 41.7355 64.1227 40.5864C64.3028 39.9152 64.2721 39.5626 64.6536 38.6479C64.9963 38.7535 65.3509 38.8502 65.7145 38.9381C65.5094 39.6071 65.3041 40.2769 65.0988 40.9459C64.5663 42.683 62.4916 44.0838 60.6596 44.0516C58.9661 44.0216 57.8925 42.9607 56.7234 41.9207C55.9179 41.204 55.1428 40.5183 54.3745 39.8393C52.2669 39.1743 50.5775 38.3971 48.6214 36.949C50.0134 38.585 50.9578 39.4907 52.8992 40.3047C52.6167 43.1847 51.6158 45.2845 50.7625 48.0408C50.3764 49.2874 47.3273 54.2811 46.4823 54.768C45.8798 55.1151 42.106 58.2939 41.3959 58.7131C40.8672 59.4154 40.4031 60.3855 39.6083 60.8057C37.1861 62.0864 35.6296 59.634 34.3261 57.5626C33.7324 56.619 32.0845 53.9012 33.5212 53.1399C34.8796 52.4202 35.6403 51.9063 37.0262 50.9965C37.2298 51.3676 37.5794 51.7257 37.8071 52.0965L37.807 52.0968ZM46.2277 56.488C45.0014 57.4786 42.9392 59.2323 42.5391 59.4519C41.8147 60.5333 41.7252 61.2025 40.5646 61.8307C37.1096 63.7003 35.2759 61.5321 33.2307 58.3802C32.2561 56.8784 30.1254 53.4495 32.3865 52.2871C33.3392 51.7974 34.0612 51.4304 34.7815 51.0109C32.4094 51.3052 30.0814 51.3087 27.6607 50.9445C27.7035 51.2366 27.7409 51.5146 27.7711 51.7695C27.9285 53.0921 27.9801 53.4977 27.2616 54.5634C26.7378 55.3406 26.536 55.5655 25.9033 56.9775C26.0185 58.1254 25.9685 58.7714 25.6446 59.9736C24.9246 62.6453 19.9356 61.1808 17.9027 60.631C15.4565 59.9695 11.9612 59.3536 13.3955 56.2087C13.7315 55.4719 13.9955 54.7184 14.194 53.9996C12.0552 54.9463 9.08286 52.9382 7.66723 51.519C6.32075 50.1689 5.58932 48.6013 5.33448 47.0801C5.11746 45.7854 5.31617 45.7917 6.24009 44.8764C7.08533 44.0397 7.93029 43.2019 8.77531 42.3657C9.11652 41.4368 9.45836 40.5088 9.7994 39.5805C9.66648 38.8871 9.56767 38.1954 9.50879 37.5104C9.26331 34.6543 9.3458 32.6205 9.75382 30.7507C8.26557 31.3314 6.55785 31.0594 5.79829 29.4799C5.50945 28.8795 5.33739 28.2679 5.11923 27.3799C1.79935 24.1812 8.02071 19.9878 9.83563 19.6724C9.62814 20.262 9.4008 20.8014 9.20073 21.3361C10.4316 21.9733 10.2807 23.7889 10.0193 24.9578C9.57657 24.399 9.33188 23.6684 8.68066 23.637C8.58528 24.9589 8.60176 26.4196 7.56939 27.1957C7.87501 28.0127 7.85898 28.0134 8.72756 27.6794C9.96114 27.2045 10.89 26.1465 11.8244 25.114C12.8308 23.1537 14.1208 21.4099 15.8954 19.8365C20.2564 15.9701 24.3785 14.7052 31.0159 13.6474C31.8994 12.7254 32.8124 11.8359 33.7924 10.9709C35.1201 9.79925 35.9822 9.55598 37.2379 9.49049C39.3158 6.7111 40.9508 4.77552 44.3385 3.34951C51.4396 0.360577 56.3342 0.216468 62.0337 4.91592C63.9172 6.46869 65.5235 8.10511 67.5935 9.40139C68.641 10.0573 69.3897 10.5289 70.1838 11.4746C71.1826 12.6648 71.9983 13.855 72.5661 15.387C73.2996 15.0851 74.1362 14.8006 74.8116 14.2233C75.6837 13.4781 76.2386 12.2308 77.0464 11.412C78.1186 10.3255 80.5643 11.6371 81.1059 12.6737C82.9479 16.1988 83.7014 22.6955 83.31 26.5589C82.8261 31.3347 80.8573 35.8494 76.6497 38.095C73.7888 39.6214 69.949 39.7636 66.663 39.1424C66.45 39.8432 66.2378 40.5438 66.0249 41.2446C65.3859 43.3443 62.8918 45.0606 60.713 45.1635C58.621 45.2622 57.4871 44.1826 56.1151 42.8611C55.3953 42.1676 54.675 41.4747 53.9553 40.7812C53.9134 41.2536 53.8516 41.7066 53.7738 42.145C54.3405 43.2639 54.6126 44.2476 55.0976 45.4011C55.6312 46.6714 55.891 47.5052 55.9277 48.8647C55.9599 50.0716 55.9922 51.2788 56.0245 52.4857C56.5629 53.4421 56.6099 53.6748 56.5315 54.7693C56.3658 57.076 55.0953 57.2961 52.978 57.2828C52.2726 57.2783 49.61 57.2948 48.9312 57.2458C47.582 57.1483 46.6926 57.0452 46.2277 56.488V56.488ZM53.3671 43.9046C52.9411 45.4257 52.3687 46.8616 51.846 48.5073C51.3515 50.0653 48.8148 54.5893 47.3217 55.6857C47.6123 55.9021 48.1458 55.9869 49.096 56.0688C49.7683 56.1269 52.4186 56.1392 53.0841 56.1506C54.5492 56.1762 55.1052 56.0661 55.2534 54.3978C55.3258 53.5811 55.2619 53.4285 54.8534 52.7126C54.8172 51.4357 54.781 50.1584 54.745 48.8816C54.7109 47.671 54.4786 46.9737 54.0026 45.8455C53.7177 45.1703 53.5631 44.5402 53.3671 43.9046ZM8.74085 23.0084C9.06974 22.9711 9.27318 23.1436 9.52756 23.3978C9.4805 22.7904 9.36828 22.3401 8.94183 22.0918C8.91194 22.1906 8.88382 22.2893 8.85729 22.3896C8.80566 22.5851 8.7688 22.7927 8.74085 23.0084ZM10.8074 27.3971C10.5707 28.0096 10.351 28.641 10.1442 29.2933C10.1099 29.4012 10.0771 29.5097 10.0451 29.6177C8.79402 30.1483 7.14905 30.4855 6.51934 29.1707C6.21356 28.5326 6.04098 27.9065 5.81798 27.0998C3.75775 24.9655 6.83745 22.1478 8.51493 21.1371C8.27219 21.6589 8.09978 22.054 7.98209 22.4607C7.47201 24.2234 8.21297 25.7965 6.61313 27.0745C7.36499 28.5916 7.33036 29.1966 9.07961 28.4956C9.75445 28.2252 10.3109 27.8457 10.8074 27.3971V27.3971ZM10.3253 41.7604C11.2736 45.04 12.8885 48.2625 14.6788 50.9716C14.6787 50.9873 14.6785 51.0028 14.6784 51.0188C14.5663 51.4845 14.4364 51.9385 14.1644 52.3028C12.8848 54.0147 9.62962 51.5017 8.68745 50.5398C7.65748 49.4881 6.96809 48.2426 6.80396 47.0747C6.68462 46.2226 6.80043 46.202 7.39488 45.5992C8.19603 44.7882 8.99797 43.9766 9.79878 43.1657C9.97409 42.6971 10.15 42.2289 10.3253 41.7604V41.7604ZM70.9205 15.4373C71.103 15.6177 71.2503 15.8326 71.3519 16.0704C71.4072 16.0196 71.4664 15.9715 71.5283 15.926C71.4533 15.757 71.377 15.5904 71.299 15.4263C71.1693 15.4291 71.0433 15.4327 70.9205 15.4373ZM55.2457 21.3365C55.0788 20.9865 54.999 20.6173 54.9961 20.2527C54.3819 20.7433 53.7141 21.2084 53.0212 21.4772C53.9779 20.6228 55.2774 18.6079 56.2191 17.9718C57.2877 17.2497 58.7379 17.3903 59.9838 16.8139C59.5585 17.2004 59.0134 17.5119 58.4583 17.8083C59.0698 18.0321 59.5981 18.4849 59.8996 19.1169C60.0267 19.3834 60.1027 19.6617 60.1334 19.9402C60.9705 19.6653 61.7924 19.5351 62.4867 19.5451C60.0032 20.2423 57.3616 21.8727 55.5402 24.0318C55.7448 23.4687 56.0307 22.9606 56.3751 22.5068C55.8978 22.2573 55.4948 21.8583 55.2457 21.3365V21.3365ZM43.7294 12.3524C42.358 12.8875 41.1071 13.289 39.7702 13.6249C38.5504 15.2281 37.8073 16.0587 37.5266 18.2076C37.1964 16.0936 37.1277 15.7012 38.0685 14.1233C37.7959 14.2619 37.5423 14.4524 37.1789 14.7631C35.8645 15.887 34.1511 20.3038 33.4661 21.8829C33.9009 19.9822 35.2612 15.2314 36.6621 13.8466C37.5834 12.9358 37.7923 12.9567 39.0914 12.8338C40.6386 12.6871 42.1829 12.5272 43.7294 12.3524V12.3524ZM72.3535 16.9609C73.466 17.0662 74.102 17.2379 75.0982 16.7452C76.955 15.8264 78.3212 14.3263 79.2071 12.5322C78.6652 14.6726 77.5745 16.4915 75.3123 17.2983C74.2013 17.6942 73.4849 17.2853 72.3535 16.9609V16.9609ZM51.0028 17.17C51.422 15.3139 52.1662 13.5254 55.0489 12.1418C51.2281 13.0985 50.5117 14.7032 51.0028 17.17ZM1.45848 27.1665C1.78629 23.4544 2.50819 21.852 5.14559 19.0585C1.83752 21.3895 1.01201 22.4487 1.45848 27.1665Z" fill="black"/>
<path fill-rule="evenodd" clip-rule="evenodd" d="M55.7443 21.9342C55.4889 21.4002 55.7172 20.7568 56.2525 20.502C56.7879 20.247 57.4327 20.4749 57.6881 21.0092C57.7123 21.0598 57.7316 21.1119 57.7473 21.1641C57.2361 21.5433 56.7673 21.9905 56.3744 22.5083C56.1096 22.4019 55.8754 22.2084 55.7443 21.9342Z" fill="#D8D8D8"/>
<path fill-rule="evenodd" clip-rule="evenodd" d="M67.7059 17.3068C67.7487 16.8644 68.1259 16.5382 68.5682 16.5809C69.0105 16.6237 69.337 17.0191 69.2945 17.4616C69.2854 17.5557 69.2599 17.644 69.2217 17.7253C68.8168 17.7942 68.412 17.9131 67.9948 18.0664C67.8203 17.8878 67.6814 17.5619 67.7059 17.3068Z" fill="#D8D8D8"/>
</svg>
