<svg width="303" height="150" viewBox="0 0 303 150" fill="none" xmlns="http://www.w3.org/2000/svg">
<path d="M188.253 118.287H187.688V117.971H189.209V118.287H188.648V119.864H188.253V118.287ZM191.287 118.369H191.278L190.718 119.864H190.462L189.906 118.369H189.899V119.864H189.527V117.971H190.075L190.59 119.312L191.105 117.971H191.65V119.864H191.287V118.369H191.287ZM137.665 79.5682C137.665 79.5682 133.733 81.8546 140.463 82.6283C148.616 83.5584 152.783 83.425 161.767 81.7245C161.767 81.7245 164.129 83.2057 167.428 84.4885C147.287 93.1207 121.845 83.9885 137.665 79.5682V79.5682ZM135.203 68.3037C135.203 68.3037 130.794 71.568 137.528 72.2646C146.238 73.1631 153.116 73.2366 165.017 70.9448C165.017 70.9448 166.663 72.6137 169.252 73.5263C144.9 80.6472 117.776 74.0879 135.203 68.3037" fill="black"/>
<path d="M155.952 49.1953C160.915 54.909 154.648 60.0507 154.648 60.0507C154.648 60.0507 167.249 53.5455 161.462 45.3994C156.057 37.8027 151.912 34.0282 174.351 21.0142C174.351 21.0142 139.129 29.8111 155.952 49.1953" fill="black"/>
<path d="M182.59 87.9003C182.59 87.9003 185.5 90.2976 179.386 92.1523C167.76 95.6742 130.998 96.7377 120.786 92.2926C117.115 90.6956 123.999 88.4793 126.165 88.0142C128.423 87.5245 129.714 87.6157 129.714 87.6157C125.631 84.7397 103.326 93.2629 118.384 95.7038C159.449 102.364 193.242 92.705 182.59 87.9003ZM139.556 56.6327C139.556 56.6327 120.856 61.0741 132.934 62.687C138.033 63.3697 148.199 63.2152 157.668 62.4219C165.407 61.7691 173.177 60.3811 173.177 60.3811C173.177 60.3811 170.449 61.5497 168.474 62.8977C149.485 67.8919 112.802 65.5685 123.363 60.4601C132.294 56.1429 139.556 56.6327 139.556 56.6327V56.6327ZM173.1 75.3829C192.403 65.3522 183.478 55.7128 177.249 57.0115C175.722 57.3293 175.041 57.6047 175.041 57.6047C175.041 57.6047 175.608 56.7167 176.691 56.3323C189.015 51.9996 198.493 69.1112 172.712 75.8885C172.712 75.8887 173.011 75.6217 173.1 75.3829" fill="black"/>
<path d="M161.462 0C161.462 0 172.152 10.694 151.323 27.1384C134.619 40.3296 147.514 47.8509 151.316 56.4443C141.566 47.6473 134.41 39.9034 139.211 32.696C146.256 22.1163 165.775 16.9868 161.462 0Z" fill="black"/>
<path d="M141.452 102.563C159.981 103.749 188.434 101.905 189.108 93.1377C189.108 93.1377 187.812 96.4613 173.795 99.1008C157.98 102.077 138.475 101.729 126.906 99.822C126.907 99.8218 129.275 101.782 141.452 102.563V102.563ZM138.416 136.063C136.668 137.579 134.822 138.43 133.165 138.43C130.8 138.43 129.523 137.012 129.523 134.738C129.523 132.278 130.892 130.479 136.383 130.479H138.415V136.063H138.416ZM143.239 141.505V124.66C143.239 120.357 140.785 117.518 134.867 117.518C131.413 117.518 128.387 118.371 125.927 119.459L126.637 122.44C128.574 121.729 131.08 121.068 133.541 121.068C136.949 121.068 138.416 122.44 138.416 125.278V127.407H136.714C128.432 127.407 124.696 130.622 124.696 135.447C124.696 139.611 127.158 141.979 131.794 141.979C134.774 141.979 136.998 140.748 139.077 138.948L139.455 141.505H143.239V141.505ZM159.335 141.505H153.32L146.08 117.944H151.333L155.825 132.42L156.824 136.773C159.097 130.479 160.704 124.093 161.508 117.944H166.618C165.249 125.703 162.785 134.218 159.335 141.505V141.505ZM182.411 136.063C180.66 137.579 178.81 138.43 177.154 138.43C174.793 138.43 173.512 137.012 173.512 134.738C173.512 132.278 174.885 130.479 180.376 130.479H182.411V136.063ZM187.234 141.505V124.66C187.234 120.357 184.773 117.518 178.863 117.518C175.406 117.518 172.379 118.371 169.92 119.459L170.629 122.44C172.567 121.729 175.078 121.068 177.536 121.068C180.942 121.068 182.411 122.44 182.411 125.278V127.407H180.707C172.423 127.407 168.688 130.622 168.688 135.447C168.688 139.611 171.148 141.979 175.783 141.979C178.764 141.979 180.988 140.748 183.071 138.948L183.45 141.505H187.234V141.505ZM119.408 145.506C118.033 147.513 115.812 149.101 113.381 150L111 147.198C112.851 146.248 114.438 144.715 115.175 143.286C115.813 142.016 116.077 140.378 116.077 136.463V109.565H121.201V136.095C121.201 141.329 120.782 143.444 119.408 145.506" fill="black"/>
</svg>
