<svg width="303" height="90" viewBox="0 0 303 90" fill="none" xmlns="http://www.w3.org/2000/svg">
<path d="M11.0706 88.7674C7.87127 87.6269 5.27405 85.2454 3.81242 82.1121C2.76129 79.8588 2.51075 76.088 3.24447 73.5641C4.22881 70.1781 7.44402 66.7092 10.6552 65.5687L12.2324 65.0085V62.4705V59.9325L10.5277 59.3951C7.12268 58.3218 3.56031 55.3056 1.73367 51.9495C-0.577889 47.7024 -0.577889 41.4748 1.73367 37.2277C3.56031 33.8716 7.12268 30.8554 10.5277 29.7821L12.2324 29.2447V26.7067V24.1687L10.6552 23.6085C7.44402 22.468 4.22881 18.9992 3.24447 15.6131C2.50444 13.0675 2.76101 9.32846 3.8368 6.98087C4.9041 4.65183 7.5955 1.95217 9.95016 0.848763C11.558 0.0953067 12.1316 0 15.0585 0C17.9853 0 18.5589 0.0953067 20.1668 0.848763C22.5214 1.95217 25.2128 4.65183 26.2801 6.98087C27.3559 9.32846 27.6125 13.0675 26.8725 15.6131C25.8867 19.0042 22.6727 22.4681 19.4503 23.6126L17.8616 24.1769L17.9516 26.6547L18.0415 29.1325L19.6898 29.5535C21.8933 30.1162 23.4685 30.9521 25.6053 32.6925L27.3834 34.1408L28.6785 33.4222C29.3909 33.0269 30.4455 32.4093 31.0222 32.0498L32.0708 31.396L32.1213 28.1012C32.1651 25.2392 32.2832 24.5684 33.0205 22.9951C34.1137 20.6622 36.8197 17.9562 39.1526 16.863C40.7604 16.1095 41.334 16.0142 44.2609 16.0142C47.1877 16.0142 47.7613 16.1095 49.3692 16.863C51.7021 17.9562 54.4081 20.6622 55.5013 22.9951C56.2547 24.603 56.35 25.1766 56.35 28.1034C56.35 31.0302 56.2547 31.6038 55.5013 33.2117C54.4081 35.5446 51.7021 38.2506 49.3692 39.3438C47.7613 40.0972 47.1877 40.1926 44.2609 40.1926C40.5422 40.1926 38.9955 39.6867 36.5252 37.6624L35.1766 36.5574L32.8026 37.904L30.4286 39.2505L30.6722 40.5066C30.9879 42.1353 30.9858 47.0845 30.6686 48.5778L30.4216 49.7409L32.8331 51.1525L35.2446 52.5641L36.5592 51.4869C38.9943 49.4915 40.5544 48.9847 44.2609 48.9847C47.1877 48.9847 47.7613 49.08 49.3692 49.8334C51.7021 50.9266 54.4081 53.6326 55.5013 55.9655C56.2547 57.5734 56.35 58.147 56.35 61.0738C56.35 64.0007 56.2547 64.5743 55.5013 66.1821C54.4081 68.515 51.7021 71.221 49.3692 72.3142C47.7613 73.0677 47.1877 73.163 44.2609 73.163C41.334 73.163 40.7604 73.0677 39.1526 72.3142C36.8197 71.221 34.1137 68.515 33.0205 66.1821C32.2639 64.5678 32.1717 64.0059 32.1717 61.0132V57.6554L29.9328 56.3816C28.7014 55.681 27.6043 55.1078 27.4948 55.1078C27.3853 55.1078 26.5153 55.7434 25.5614 56.5204C23.4674 58.226 21.8822 59.0638 19.6898 59.6238L18.0415 60.0447L17.9516 62.5226L17.8616 65.0004L19.4503 65.5646C22.6727 66.7091 25.8867 70.1731 26.8725 73.5641C27.6125 76.1097 27.3559 79.8488 26.2801 82.1964C25.205 84.5425 22.5181 87.2311 20.1668 88.3136C17.7437 89.4291 13.5179 89.6399 11.0706 88.7674V88.7674ZM17.3451 82.3078C21.0253 80.7332 21.8852 75.6978 18.9437 72.9475C15.31 69.55 9.40638 72.1131 9.40638 77.0881C9.40638 80.2884 11.7926 82.6986 14.99 82.7278C15.7296 82.7346 16.7893 82.5456 17.3451 82.3078V82.3078ZM46.5475 66.2936C50.2277 64.7189 51.0876 59.6836 48.1461 56.9333C44.5124 53.5358 38.6088 56.0989 38.6088 61.0738C38.6088 64.2742 40.995 66.6844 44.1924 66.7136C44.932 66.7204 45.9917 66.5314 46.5475 66.2936V66.2936ZM18.6894 53.0114C20.7644 52.3044 23.2452 49.8235 23.9522 47.7486C25.138 44.2685 24.3651 40.8231 21.83 38.288C18.2369 34.695 12.822 34.695 9.2289 38.288C6.69383 40.8231 5.92095 44.2685 7.1067 47.7486C7.7831 49.7337 10.3046 52.309 12.241 52.9925C14.1073 53.6512 16.7886 53.659 18.6894 53.0114V53.0114ZM46.5475 33.3231C50.2277 31.7485 51.0876 26.7131 48.1461 23.9628C44.5124 20.5654 38.6088 23.1284 38.6088 28.1034C38.6088 31.3038 40.995 33.7139 44.1924 33.7432C44.932 33.7499 45.9917 33.5609 46.5475 33.3231V33.3231ZM17.3451 17.3089C21.0253 15.7343 21.8852 10.6989 18.9437 7.94859C15.31 4.55115 9.40638 7.1142 9.40638 12.0892C9.40638 15.2895 11.7926 17.6997 14.99 17.729C15.7296 17.7357 16.7893 17.5467 17.3451 17.3089ZM230.097 88.8152C229.25 88.271 228.581 87.1776 228.581 86.3364C228.581 85.5189 229.665 85.8797 230.313 86.9128C230.802 87.6938 231.197 87.9425 232.064 88.0154C233.621 88.1465 234.539 87.3303 234.77 85.6098L234.953 84.2469L233.981 84.7495C230.401 86.6006 227.076 83.0592 228.714 79.1399C228.962 78.546 229.582 77.8534 230.111 77.5799C231.328 76.9506 233.267 76.9491 234.164 77.5768C234.795 78.0192 234.862 78.0192 234.862 77.5768C234.862 77.2973 235.13 77.088 235.49 77.088C236.091 77.088 236.118 77.2973 236.118 82.1071V87.1262L235.228 88.1215C234.477 88.9622 234.075 89.1352 232.638 89.2357C231.406 89.3219 230.705 89.2059 230.097 88.8151V88.8152ZM233.916 83.4343C234.386 83.0536 234.663 82.403 234.774 81.4171C234.916 80.1533 234.831 79.8554 234.129 79.153C232.373 77.3967 229.837 78.5363 229.837 81.0821C229.837 83.5179 232.159 84.8568 233.916 83.4343ZM243.968 83.2111C243.968 77.2974 243.989 77.0881 244.596 77.0881C244.955 77.0881 245.224 77.2974 245.224 77.5769C245.224 78.0193 245.29 78.0193 245.922 77.5769C246.799 76.9623 248.75 76.9468 249.907 77.5452C250.393 77.7967 251.022 78.4892 251.304 79.0842C253.061 82.7863 249.63 86.5729 246.15 84.7731L245.224 84.294V86.8141C245.224 89.1249 245.171 89.3342 244.596 89.3342C243.989 89.3342 243.968 89.1249 243.968 83.2111V83.2111ZM249.477 83.2254C250.471 82.2319 250.526 80.3527 249.597 79.1715C248.709 78.0424 247.075 78.0341 245.956 79.153C245.254 79.8554 245.169 80.1534 245.311 81.4171C245.59 83.8895 247.837 84.865 249.477 83.2254V83.2254ZM85.5799 84.2922C83.6146 82.5666 83.746 78.9578 85.8203 77.693C87.0145 76.9648 89.0805 76.9079 90.0356 77.5769L90.7335 78.0657V74.5938C90.7335 71.3313 90.7714 71.122 91.3615 71.122C91.9705 71.122 91.9895 71.3313 91.9895 78.0301C91.9895 84.7288 91.9705 84.9382 91.3615 84.9382C91.0161 84.9382 90.7335 84.7932 90.7335 84.6161C90.7335 84.4315 90.3381 84.4985 89.8071 84.7731C88.2971 85.554 86.8264 85.3866 85.5799 84.2922V84.2922ZM89.7878 83.4343C90.2579 83.0536 90.5346 82.403 90.6458 81.4171C90.7882 80.1534 90.7034 79.8554 90.0009 79.153C88.2446 77.3967 85.7094 78.5363 85.7094 81.0821C85.7094 83.5179 88.0311 84.8568 89.7878 83.4343V83.4343ZM98.983 84.872C98.1196 84.4553 97.7296 83.3879 98.3097 83.0294C98.5775 82.8639 98.9687 82.9924 99.384 83.3826C100.13 84.0835 100.802 84.1645 101.347 83.6194C102.111 82.8552 101.734 82.1573 100.075 81.2686C98.7647 80.5663 98.4058 80.2039 98.3253 79.5013C98.1611 78.0689 99.015 77.0881 100.426 77.0881C101.488 77.0881 102.666 77.7852 102.666 78.4137C102.666 78.8136 101.66 78.9374 101.125 78.6034C100.809 78.4063 100.32 78.3335 100.038 78.4417C99.0955 78.8034 99.4943 79.609 100.918 80.2195C102.778 81.0167 103.476 82.0783 103.014 83.4057C102.824 83.9503 102.421 84.5841 102.118 84.8141C101.46 85.313 99.9544 85.3409 98.983 84.872V84.872ZM122.683 84.7586C122.183 84.4872 121.82 84.4264 121.82 84.6141C121.82 84.7924 121.464 84.9382 121.029 84.9382H120.238L120.322 78.1086C120.407 71.2942 120.408 71.2788 121.113 71.1786C121.81 71.0797 121.82 71.1285 121.82 74.572V78.0657L122.518 77.5769C124.433 76.2351 127.453 77.5102 128.106 79.937C129.072 83.5235 125.788 86.443 122.683 84.7586V84.7586ZM126.073 83.2254C127.757 81.5413 126.617 78.3441 124.332 78.3441C123.72 78.3441 123.077 78.629 122.591 79.1148C120.907 80.7989 122.047 83.9962 124.332 83.9962C124.944 83.9962 125.587 83.7113 126.073 83.2254V83.2254ZM131.397 84.8896C130.154 84.2099 129.984 83.6597 129.984 80.3251C129.984 77.2974 130.025 77.0881 130.612 77.0881C131.195 77.0881 131.24 77.2974 131.24 80.0224C131.24 83.1813 131.611 83.9962 133.048 83.9962C134.372 83.9962 134.694 83.2237 134.694 80.0487C134.694 77.1 134.697 77.0881 135.479 77.0881C136.254 77.0881 136.264 77.1226 136.264 79.7102C136.264 81.1524 136.108 82.7817 135.916 83.3308C135.352 84.9487 132.993 85.7624 131.397 84.8896V84.8896ZM145.127 84.6228C143.895 83.8719 143.486 82.92 143.486 80.8043C143.486 79.425 143.622 79.0871 144.554 78.1557C145.425 77.2846 145.861 77.0881 146.924 77.0881C149.309 77.0881 150.708 78.3706 150.708 80.5569V81.4841H147.725C146.085 81.4841 144.742 81.5618 144.742 81.6567C144.742 82.1504 145.728 83.6318 146.169 83.8011C147.202 84.1975 148.246 83.9749 148.958 83.2064C149.418 82.7101 149.879 82.4892 150.199 82.612C150.798 82.8419 150.809 82.9065 150.385 83.6995C149.574 85.2143 146.875 85.6883 145.127 84.6228V84.6228ZM149.266 79.8356C148.386 78.2892 146.749 77.8515 145.63 78.8638C144.497 79.8895 144.905 80.2281 147.273 80.2281C148.956 80.2281 149.436 80.1336 149.266 79.8356ZM154.507 84.855C151.944 83.5381 151.72 79.0516 154.146 77.6189C155.271 76.9544 157.256 76.9337 158.175 77.5769L158.872 78.0657V74.572C158.872 71.1285 158.883 71.0797 159.579 71.1786C160.284 71.2788 160.286 71.2942 160.37 78.1086L160.455 84.9382H159.664C159.228 84.9382 158.872 84.7932 158.872 84.6161C158.872 84.4315 158.477 84.4985 157.946 84.7731C156.83 85.35 155.53 85.381 154.507 84.855V84.855ZM158.102 83.2254C159.095 82.2319 159.151 80.3527 158.222 79.1714C157.348 78.0602 155.7 78.0343 154.619 79.1148C152.935 80.7989 154.076 83.9962 156.36 83.9962C156.972 83.9962 157.616 83.7113 158.102 83.2254V83.2254ZM168.181 84.4822C167.221 83.5918 167.142 83.2012 167.869 82.9224C168.185 82.8012 168.619 82.972 168.98 83.3598C169.691 84.1227 170.575 84.1796 171.14 83.4988C171.67 82.8603 171.236 82.1132 169.991 81.5209C168.497 80.8108 167.979 80.1941 167.979 79.1291C167.979 77.8481 168.817 77.0881 170.231 77.0881C171.608 77.0881 172.654 78.0352 171.936 78.6311C171.582 78.9247 171.347 78.9237 170.871 78.6266C170.535 78.4167 170.029 78.3335 169.747 78.4417C168.953 78.7464 169.141 79.5736 170.098 79.984C172.104 80.8445 172.689 81.4665 172.689 82.7387C172.689 85.0285 169.925 86.0977 168.181 84.4822V84.4822ZM186.576 84.6228C185.344 83.8719 184.935 82.92 184.935 80.8043C184.935 79.425 185.071 79.0871 186.002 78.1557C186.874 77.2846 187.31 77.0881 188.373 77.0881C190.758 77.0881 192.157 78.3706 192.157 80.5569V81.4841H189.174C187.533 81.4841 186.191 81.5618 186.191 81.6567C186.191 82.1504 187.177 83.6318 187.618 83.8011C188.651 84.1975 189.695 83.9749 190.407 83.2064C190.867 82.7101 191.328 82.4892 191.648 82.612C192.247 82.8419 192.258 82.9065 191.834 83.6995C191.023 85.2143 188.323 85.6883 186.576 84.6228V84.6228ZM190.715 79.8356C189.835 78.2892 188.198 77.8515 187.079 78.8638C185.946 79.8895 186.353 80.2281 188.721 80.2281C190.404 80.2281 190.884 80.1336 190.715 79.8356ZM194.853 84.2922C192.888 82.5666 193.02 78.9578 195.094 77.6929C196.288 76.9648 198.354 76.9079 199.309 77.5769C199.941 78.0193 200.007 78.0193 200.007 77.5769C200.007 77.2974 200.276 77.0881 200.635 77.0881C201.23 77.0881 201.263 77.2974 201.263 81.0131C201.263 84.7288 201.23 84.9382 200.635 84.9382C200.29 84.9382 200.007 84.7932 200.007 84.6161C200.007 84.4315 199.612 84.4985 199.081 84.7731C197.571 85.554 196.1 85.3866 194.853 84.2922V84.2922ZM199.061 83.4343C199.531 83.0536 199.808 82.403 199.919 81.4171C200.062 80.1533 199.977 79.8554 199.274 79.153C197.518 77.3967 194.983 78.5363 194.983 81.0821C194.983 83.5179 197.305 84.8568 199.061 83.4343ZM258.337 84.7606C257.156 84.1195 256.528 82.7592 256.528 80.8403C256.528 79.42 256.658 79.0934 257.595 78.1557C258.484 77.2667 258.893 77.0881 260.038 77.0881C260.794 77.0881 261.712 77.298 262.078 77.5546C262.667 77.9672 262.765 77.9672 262.923 77.5546C263.022 77.298 263.389 77.0881 263.74 77.0881C264.347 77.0881 264.378 77.2772 264.378 81.0131V84.9382H263.593C263.161 84.9382 262.808 84.7889 262.808 84.6064C262.808 84.4204 262.501 84.4894 262.11 84.7634C261.237 85.3746 259.467 85.3734 258.337 84.7605V84.7606ZM262.044 83.2726C263.859 81.7118 262.782 78.3441 260.468 78.3441C258.424 78.3441 257.249 80.3776 258.103 82.4388C258.806 84.1364 260.599 84.5157 262.044 83.2726V83.2726ZM278.979 84.9526C276.179 83.7944 275.866 79.1698 278.483 77.6238C279.607 76.9601 281.692 76.9321 282.914 77.5644C285.523 78.9131 285.395 83.5038 282.714 84.7761C281.629 85.2906 279.984 85.3683 278.979 84.9526ZM282.614 83.0783C283.64 82.0524 283.781 80.9919 283.073 79.6226C282.55 78.6115 282.028 78.3441 280.578 78.3441C278.217 78.3441 277.095 81.6704 278.925 83.2445C280.136 84.2862 281.466 84.2263 282.614 83.0783ZM66.9215 84.6333C67.3886 83.2724 72.4056 72.074 72.5501 72.0696C72.6877 72.0655 77.286 82.467 78.1291 84.6894C78.1911 84.8528 77.856 84.9403 77.3845 84.8838C76.6788 84.7993 76.4089 84.4896 75.8587 83.1329L75.1903 81.4847L72.5005 81.4844L69.8108 81.4841L69.095 83.2111C68.4986 84.6499 68.2488 84.9382 67.598 84.9382C67.1684 84.9382 66.8639 84.801 66.9215 84.6333ZM74.4077 79.9926C74.4117 79.6015 72.6902 75.5201 72.5213 75.5201C72.3523 75.5201 70.6308 79.6015 70.6348 79.9926C70.6361 80.1221 71.485 80.2281 72.5213 80.2281C73.5575 80.2281 74.4064 80.1221 74.4077 79.9926ZM94.5016 81.0131C94.5016 77.2974 94.5351 77.0881 95.1296 77.0881C95.7241 77.0881 95.7576 77.2974 95.7576 81.0131C95.7576 84.7288 95.7241 84.9382 95.1296 84.9382C94.5351 84.9382 94.5016 84.7288 94.5016 81.0131ZM105.806 81.6411C105.806 78.9198 105.723 78.3441 105.335 78.3441C105.073 78.3441 104.864 78.065 104.864 77.7161C104.864 77.3672 105.073 77.0881 105.335 77.0881C105.684 77.0881 105.806 76.7217 105.806 75.675C105.806 74.4714 105.899 74.262 106.434 74.262C106.969 74.262 107.062 74.4714 107.062 75.675C107.062 76.9729 107.126 77.0881 107.847 77.0881C108.89 77.0881 108.96 78.2538 107.925 78.4007C107.252 78.4964 107.215 78.6523 107.129 81.7196C107.047 84.6794 106.99 84.9382 106.423 84.9382C105.849 84.9382 105.806 84.7093 105.806 81.6411ZM110.516 81.0131C110.516 77.2974 110.549 77.0881 111.144 77.0881C111.489 77.0881 111.772 77.2343 111.772 77.4131C111.772 77.6372 111.96 77.6372 112.379 77.4131C113.088 77.0336 114.495 76.9816 114.708 77.327C114.981 77.7684 114.134 78.5011 113.351 78.5011C112.234 78.5011 111.782 79.6505 111.776 82.5046C111.772 84.7273 111.717 84.9382 111.144 84.9382C110.549 84.9382 110.516 84.7288 110.516 81.0131V81.0131ZM116.482 81.0131C116.482 77.2974 116.515 77.0881 117.11 77.0881C117.704 77.0881 117.738 77.2974 117.738 81.0131C117.738 84.7288 117.704 84.9382 117.11 84.9382C116.515 84.9382 116.482 84.7288 116.482 81.0131ZM139.09 81.6411C139.09 79.6524 138.966 78.3441 138.776 78.3441C138.603 78.3441 138.462 78.0615 138.462 77.7161C138.462 77.3707 138.603 77.0881 138.776 77.0881C138.949 77.0881 139.09 76.4522 139.09 75.675C139.09 74.3772 139.154 74.262 139.875 74.262C140.596 74.262 140.66 74.3772 140.66 75.675C140.66 76.8787 140.753 77.0881 141.288 77.0881C141.707 77.0881 141.916 77.2974 141.916 77.7161C141.916 78.1347 141.707 78.3441 141.288 78.3441C140.7 78.3441 140.66 78.5534 140.66 81.6411V84.9382H139.875H139.09V81.6411ZM175.201 81.7883C175.201 79.278 175.105 78.6017 174.73 78.4576C174.471 78.3582 174.259 78.0094 174.259 77.6825C174.259 77.3555 174.471 77.0881 174.73 77.0881C175.079 77.0881 175.201 76.7217 175.201 75.675C175.201 74.4714 175.294 74.262 175.829 74.262C176.364 74.262 176.457 74.4714 176.457 75.675C176.457 76.8787 176.55 77.0881 177.085 77.0881C177.503 77.0881 177.713 77.2974 177.713 77.7161C177.713 78.1347 177.503 78.3441 177.085 78.3441C176.497 78.3441 176.457 78.5534 176.457 81.6411C176.457 84.7288 176.417 84.9382 175.829 84.9382C175.242 84.9382 175.201 84.7288 175.201 81.7883ZM179.597 81.0131V77.0881H180.382C180.814 77.0881 181.167 77.2576 181.167 77.4649C181.167 77.7579 181.251 77.7579 181.544 77.4649C181.751 77.2576 182.402 77.0881 182.99 77.0881C183.837 77.0881 184.02 77.1917 183.869 77.5848C183.765 77.8579 183.679 78.1405 183.679 78.2128C183.679 78.285 183.26 78.3441 182.748 78.3441C181.459 78.3441 181.167 79.0659 181.167 82.2485C181.167 84.9081 181.158 84.9382 180.382 84.9382H179.597V81.0131ZM203.461 81.0131V77.0881H204.246C204.678 77.0881 205.031 77.2576 205.031 77.4649C205.031 77.7579 205.115 77.7579 205.408 77.4649C205.92 76.9529 207.602 76.989 208.338 77.5277C208.854 77.9045 209.029 77.9045 209.567 77.5277C210.641 76.7754 212.427 76.9674 213.172 77.9154C213.731 78.6254 213.823 79.1821 213.823 81.8405C213.823 84.7288 213.781 84.9382 213.195 84.9382C212.62 84.9382 212.567 84.7288 212.567 82.4466C212.567 79.1943 212.246 78.3441 211.016 78.3441C209.719 78.3441 209.427 79.0603 209.427 82.2485C209.427 84.9081 209.418 84.9382 208.642 84.9382C207.863 84.9382 207.857 84.9155 207.857 82.1378C207.857 78.7175 207.731 78.3441 206.579 78.3441C205.327 78.3441 205.031 79.0909 205.031 82.2485C205.031 84.9081 205.022 84.9382 204.246 84.9382H203.461V81.0131ZM216.335 81.0131V77.0881H217.12H217.905V81.0131V84.9382H217.12H216.335V81.0131ZM220.417 81.0131C220.417 77.3543 220.458 77.0881 221.019 77.0881C221.35 77.0881 221.686 77.2647 221.765 77.4806C221.88 77.7946 221.992 77.7946 222.325 77.4806C222.957 76.8842 224.953 77.0032 225.799 77.6878C226.479 78.2378 226.549 78.5631 226.647 81.6128L226.755 84.9382H225.941H225.127V81.9936C225.127 78.7408 224.871 78.2238 223.348 78.3999C222.122 78.5417 221.683 79.619 221.678 82.5046C221.674 84.7273 221.619 84.9382 221.045 84.9382C220.451 84.9382 220.417 84.7288 220.417 81.0131ZM253.388 78.0301C253.388 71.3313 253.407 71.122 254.016 71.122C254.625 71.122 254.644 71.3313 254.644 78.0301C254.644 84.7288 254.625 84.9382 254.016 84.9382C253.407 84.9382 253.388 84.7288 253.388 78.0301ZM267.204 81.6411C267.204 79.6524 267.079 78.3441 266.89 78.3441C266.717 78.3441 266.576 78.0615 266.576 77.7161C266.576 77.3707 266.717 77.0881 266.89 77.0881C267.063 77.0881 267.204 76.4522 267.204 75.675C267.204 74.3772 267.268 74.262 267.989 74.262C268.71 74.262 268.774 74.3772 268.774 75.675C268.774 76.8787 268.867 77.0881 269.402 77.0881C269.821 77.0881 270.03 77.2974 270.03 77.7161C270.03 78.1347 269.821 78.3441 269.402 78.3441C268.814 78.3441 268.774 78.5534 268.774 81.6411V84.9382H267.989H267.204V81.6411ZM272.542 81.6411C272.542 79.6524 272.417 78.3441 272.228 78.3441C272.055 78.3441 271.914 78.0615 271.914 77.7161C271.914 77.3707 272.04 77.0881 272.195 77.0881C272.349 77.0881 272.527 75.9451 272.591 74.5481C272.721 71.6871 273.111 71.122 274.957 71.122C275.775 71.122 275.996 71.2513 275.996 71.7291C275.996 72.1581 275.743 72.3655 275.133 72.4356C274.289 72.5327 274.267 72.5876 274.177 74.8115L274.085 77.0881H275.04C275.787 77.0881 275.996 77.2256 275.996 77.7161C275.996 78.2045 275.787 78.3441 275.054 78.3441H274.112V81.6411V84.9382H273.327H272.542V81.6411ZM286.672 81.0131C286.672 77.2974 286.706 77.0881 287.3 77.0881C287.646 77.0881 287.928 77.2343 287.928 77.4131C287.928 77.6372 288.117 77.6372 288.536 77.4131C288.87 77.2343 289.516 77.0881 289.972 77.0881C291.127 77.0881 290.917 78.1496 289.735 78.2861C288.354 78.4455 287.928 79.4017 287.928 82.339C287.928 84.7288 287.878 84.9382 287.3 84.9382C286.706 84.9382 286.672 84.7288 286.672 81.0131ZM292.638 81.0131C292.638 77.2974 292.672 77.0881 293.266 77.0881C293.612 77.0881 293.894 77.2343 293.894 77.4131C293.894 77.6372 294.083 77.6372 294.502 77.4131C295.406 76.9292 296.752 77.0195 297.402 77.6077C297.937 78.0917 298.017 78.0903 298.572 77.5881C298.99 77.2102 299.577 77.0782 300.535 77.1469C302.441 77.2838 302.999 78.4265 303 82.1906C303.001 84.9121 302.993 84.9382 302.215 84.9382C301.434 84.9382 301.43 84.9251 301.43 81.9936C301.43 78.8128 301.156 78.2051 299.807 78.3985C298.751 78.5499 298.3 79.7728 298.295 82.5046C298.291 84.7273 298.236 84.9382 297.662 84.9382C297.083 84.9382 297.034 84.7288 297.034 82.2485C297.034 79.2081 296.723 78.3441 295.628 78.3441C294.363 78.3441 293.894 79.4231 293.894 82.339C293.894 84.7288 293.844 84.9382 293.266 84.9382C292.672 84.9382 292.638 84.7288 292.638 81.0131ZM94.3096 74.7551C93.9969 73.9403 94.4351 73.2669 95.2067 73.3765C95.7256 73.4502 95.9146 73.6865 95.9146 74.262C95.9146 74.8375 95.7256 75.0739 95.2067 75.1476C94.7821 75.2079 94.423 75.0508 94.3096 74.7551V74.7551ZM116.29 74.7551C115.977 73.9403 116.415 73.2669 117.187 73.3765C117.706 73.4502 117.895 73.6865 117.895 74.262C117.895 74.8375 117.706 75.0739 117.187 75.1476C116.762 75.2079 116.403 75.0508 116.29 74.7551V74.7551ZM216.333 74.7308C215.986 74.3121 215.999 74.1493 216.416 73.7323C217.09 73.059 217.978 73.4331 217.849 74.3359C217.726 75.196 216.898 75.4116 216.333 74.7308V74.7308ZM97.8722 66.6983C92.5398 65.442 88.8495 60.1235 88.8495 53.6947C88.8495 46.4913 93.2665 41.0485 99.5917 40.4578C102.112 40.2224 104.489 40.866 106.69 42.3805L108.281 43.4746L108.378 42.3046L108.475 41.1346L111.379 41.0443L114.284 40.954V53.6947V66.4355L111.379 66.3452L108.475 66.2549L108.376 65.2344C108.322 64.6731 108.215 64.2139 108.138 64.2139C108.061 64.2139 107.411 64.6392 106.694 65.159C104.378 66.8362 100.977 67.4297 97.8722 66.6983ZM103.953 61.3445C106.975 60.3328 108.741 57.5086 108.729 53.7092C108.721 51.1391 108.119 49.4657 106.653 47.9374C105.18 46.4013 104.014 45.8987 101.856 45.87C99.1454 45.834 97.23 47.038 95.9194 49.6017C94.0798 53.2002 94.9341 58.1253 97.7736 60.2911C99.5675 61.6593 101.851 62.0485 103.953 61.3445V61.3445ZM167.892 66.5941C163.355 65.3739 159.817 60.6621 159.305 55.1591C158.751 49.1933 161.528 43.7456 166.32 41.4014C167.817 40.6691 168.52 40.5247 170.634 40.5165C173.558 40.505 175.442 41.1075 177.576 42.7361L178.969 43.7995V42.3767V40.954L181.873 41.0443L184.778 41.1346V53.6947V66.2549L181.873 66.3452L178.969 66.4355V65.1645V63.8935L177.28 65.015C174.338 66.9684 171.228 67.4915 167.892 66.5941ZM174.416 61.3533C177.396 60.5346 179.566 56.651 179.169 52.8491C178.861 49.901 177.531 47.659 175.465 46.6045C172.799 45.244 170.062 45.5721 167.91 47.51C166.107 49.1348 165.397 50.8954 165.397 53.7444C165.397 59.3861 169.371 62.7391 174.416 61.3533ZM66.8692 44.6004V22.7653H69.8522H72.8353V35.8705V48.9756L76.8432 44.9766L80.8511 40.9776H84.6933C86.8065 40.9776 88.5355 41.0551 88.5355 41.1499C88.5355 41.2447 86.1315 43.6822 83.1933 46.5665L77.8512 51.8107L83.6875 59.0328L89.5239 66.2549L85.9873 66.3443C84.0422 66.3934 82.2817 66.3687 82.0749 66.2894C81.8682 66.21 79.8591 63.8081 77.6102 60.9518C74.4875 56.9855 73.4423 55.8536 73.1868 56.1615C72.9911 56.3974 72.8161 58.5755 72.7652 61.4098L72.6783 66.2549L69.7737 66.3452L66.8692 66.4355V44.6004ZM120.773 66.2026C120.658 66.0874 120.564 61.6364 120.564 56.3114V46.6296H119.622H118.68V43.8036V40.9776H119.622H120.564L120.57 36.032C120.581 27.1806 121.345 24.7196 124.608 23.0147C125.996 22.2897 126.682 22.1373 128.56 22.1373C129.81 22.1373 131.277 22.2924 131.821 22.482L132.81 22.8267V25.9076V28.9884L131.569 28.3889C130.312 27.7817 128.543 27.6079 127.912 28.0297C126.969 28.6589 126.734 29.9719 126.592 35.404L126.445 40.9776H129.628H132.81V43.8036V46.6296H129.67H126.53V56.5208V66.4119H123.756C122.231 66.4119 120.888 66.3177 120.773 66.2026ZM137.206 44.5886V22.7653H140.189H143.172V35.8705V48.9756L147.18 44.9766L151.188 40.9776H155.03C157.143 40.9776 158.872 41.0912 158.872 41.2301C158.872 41.3691 156.471 43.7816 153.536 46.5913L148.2 51.6999L154.007 58.8863C157.201 62.8387 159.814 66.1489 159.814 66.2423C159.814 66.3356 158.123 66.4119 156.057 66.4119H152.299L148.138 61.0926C144.947 57.0141 143.883 55.851 143.574 56.1069C143.278 56.3525 143.172 57.7572 143.172 61.4263V66.4119H140.189H137.206V44.5886ZM189.116 65.9523C188.072 65.4982 187.133 64.0832 187.133 62.9634C187.133 59.7743 190.873 58.108 193.197 60.2618C194.965 61.9 194.479 65.0564 192.321 65.9583C190.991 66.5139 190.404 66.5128 189.116 65.9523V65.9523ZM192.362 65.1776C193.549 64.4542 193.966 63.0382 193.398 61.6663C193.012 60.7332 191.697 59.8178 190.744 59.8178C189.791 59.8178 188.476 60.7332 188.09 61.6663C186.931 64.464 189.743 66.7749 192.362 65.1776V65.1776ZM189.645 62.8009C189.645 60.6296 189.89 60.3649 191.236 61.0849C191.954 61.4695 192.042 62.5871 191.374 62.8436C190.978 62.9956 191.005 63.1648 191.552 63.9327C192.318 65.0076 191.753 65.1786 190.883 64.1354L190.294 63.4289L190.283 64.1354C190.278 64.524 190.132 64.8419 189.959 64.8419C189.782 64.8419 189.645 63.9522 189.645 62.8009ZM191.058 62.0159C191.058 61.7856 190.881 61.5383 190.665 61.4663C190.432 61.3885 190.273 61.6111 190.273 62.0159C190.273 62.4206 190.432 62.6432 190.665 62.5654C190.881 62.4934 191.058 62.2461 191.058 62.0159ZM77.2313 30.4977C77.2313 29.9171 80.7687 23.0467 80.9557 23.264C81.4794 23.8728 84.2322 30.3133 84.0476 30.4979C83.6867 30.8588 82.8765 30.3241 82.5725 29.5245C82.3066 28.8252 82.0888 28.7314 80.7312 28.7314C79.3165 28.7314 79.1599 28.8079 78.8013 29.6734C78.5636 30.2473 78.1806 30.6154 77.8212 30.6154C77.4968 30.6154 77.2313 30.5624 77.2313 30.4977ZM81.6163 27.3969C81.5973 26.7287 80.7857 25.4889 80.5825 25.8177C80.4768 25.9888 80.2482 26.5025 80.0746 26.9591C79.7771 27.7415 79.8128 27.7894 80.6931 27.7894C81.2371 27.7894 81.6227 27.6254 81.6163 27.3969V27.3969ZM85.3954 27.0044V23.3933L86.73 23.3981C88.2575 23.4036 88.6035 23.5759 89.1428 24.5993C89.691 25.6398 89.052 27.108 87.9462 27.3486C86.3828 27.6888 86.3374 27.7407 86.3374 29.1925C86.3374 30.248 86.2158 30.6154 85.8664 30.6154C85.4751 30.6154 85.3954 30.0049 85.3954 27.0044V27.0044ZM87.8447 26.1566C88.3766 25.6246 88.3124 24.7514 87.7248 24.5259C86.6511 24.1139 86.3374 24.3193 86.3374 25.4344C86.3374 26.2833 86.466 26.5334 86.9027 26.5334C87.2135 26.5334 87.6374 26.3638 87.8447 26.1566ZM89.1581 30.3799C89.1489 29.9762 92.3893 23.0793 92.5882 23.0793C92.7542 23.0793 95.6348 29.341 95.8364 30.1401C95.8794 30.3105 95.6638 30.4981 95.3573 30.5571C94.9701 30.6317 94.6971 30.3694 94.4631 29.6979C94.1489 28.7968 94.0226 28.7314 92.5949 28.7314C91.2111 28.7314 91.0167 28.8221 90.5765 29.6734C90.1433 30.5112 89.1722 30.9949 89.1581 30.3799V30.3799ZM93.5595 27.6168C93.5595 27.5219 93.3314 27.0031 93.0526 26.4639C92.5222 25.4381 92.3209 25.5416 91.8494 27.0829C91.6578 27.709 91.7428 27.7894 92.5964 27.7894C93.1261 27.7894 93.5595 27.7117 93.5595 27.6168V27.6168ZM98.2999 30.2183C95.6509 28.8569 95.6514 24.9043 98.3005 23.5343C99.9477 22.6826 102.038 23.1429 102.038 24.3574C102.038 24.881 101.937 24.9314 101.43 24.6604C100.485 24.1545 99.0401 24.2763 98.233 24.9298C97.6794 25.3781 97.4989 25.8411 97.4989 26.8123C97.4989 28.9447 98.8982 29.8616 101.174 29.2205C101.853 29.0292 102.038 29.0828 102.038 29.4713C102.038 30.5217 99.7715 30.9746 98.2999 30.2183V30.2183ZM103.503 30.4061C103.388 30.291 103.294 28.666 103.294 26.795C103.294 23.6027 103.332 23.3933 103.922 23.3933C104.445 23.3933 104.55 23.6027 104.55 24.6493V25.9054H106.12H107.69V24.6493C107.69 23.7422 107.821 23.3933 108.161 23.3933C108.552 23.3933 108.632 24.0039 108.632 27.0044C108.632 30.0049 108.552 30.6154 108.161 30.6154C107.799 30.6154 107.69 30.2142 107.69 28.8884V27.1614H106.12H104.55V28.8884C104.55 30.1182 104.429 30.6154 104.131 30.6154C103.901 30.6154 103.618 30.5212 103.503 30.4061ZM110.411 30.4061C110.296 30.291 110.202 28.666 110.202 26.795V23.3933H112.243C113.848 23.3933 114.284 23.494 114.284 23.8643C114.284 24.2132 113.917 24.3353 112.871 24.3353C111.573 24.3353 111.458 24.3993 111.458 25.1203C111.458 25.8414 111.573 25.9054 112.871 25.9054C114.074 25.9054 114.284 25.9984 114.284 26.5334C114.284 27.0683 114.074 27.1614 112.871 27.1614C111.465 27.1614 111.458 27.1672 111.458 28.2604C111.458 29.3536 111.465 29.3594 112.871 29.3594C114.074 29.3594 114.284 29.4524 114.284 29.9874C114.284 30.5437 114.074 30.6154 112.452 30.6154C111.445 30.6154 110.526 30.5212 110.411 30.4061Z" fill="black"/>
</svg>
