<svg width="303" height="79" viewBox="0 0 303 79" fill="none" xmlns="http://www.w3.org/2000/svg">
<g clip-path="url(#clip0)">
<path d="M0 0H78.9239V78.9239H0V0Z" fill="black"/>
<path d="M29.346 60.9207V46.2685L35.2956 40.3375L50.2212 62.3937L57.0575 62.4474L58.3197 59.8708L40.9518 34.6753L56.9407 18.4197L56.0555 15.8423H49.2332L29.346 35.7241V17.3601L27.8923 15.8423H22.9545L21.5005 17.3599V60.8568L23.0317 62.413L27.7899 62.3939L29.346 60.9207V60.9207Z" fill="white"/>
<path d="M103.259 15.8423H109.153V39.2025H109.366L128.75 15.8423H135.424L120.868 33.5931L137.696 62.4205H131.093L117.176 38.2087L109.153 47.6521V62.4207H103.259V15.8423H103.259ZM140.749 45.2378C140.749 42.3976 141.187 39.8531 142.063 37.6048C142.939 35.3564 144.098 33.4511 145.542 31.8889C146.986 30.327 148.631 29.1316 150.477 28.3034C152.323 27.4751 154.24 27.0609 156.228 27.0609C158.405 27.0609 160.358 27.4396 162.086 28.1969C163.814 28.9544 165.257 30.043 166.417 31.463C167.577 32.883 168.465 34.5872 169.08 36.5753C169.695 38.5634 170.003 40.7883 170.003 43.2497C170.003 44.5277 169.932 45.5928 169.79 46.4449H146.501C146.737 50.1843 147.885 53.1429 149.944 55.3202C152.004 57.4976 154.69 58.5865 158.003 58.5865C159.66 58.5865 161.187 58.3378 162.583 57.8409C163.988 57.3397 165.333 56.6848 166.595 55.8883L168.654 59.7225C167.139 60.6692 165.459 61.4975 163.613 62.2076C161.766 62.9174 159.66 63.2726 157.293 63.2726C154.974 63.2726 152.808 62.8584 150.797 62.0301C148.785 61.2016 147.033 60.0184 145.542 58.4798C144.051 56.9414 142.88 55.0598 142.027 52.8351C141.175 50.6102 140.749 48.078 140.749 45.2378V45.2378ZM164.891 42.6106C164.891 39.0605 164.145 36.3504 162.654 34.4807C161.163 32.6107 159.068 31.676 156.37 31.676C155.14 31.676 153.968 31.9247 152.855 32.4216C151.743 32.9185 150.737 33.6286 149.838 34.5517C148.938 35.4747 148.193 36.6108 147.601 37.9598C147.01 39.309 146.619 40.8593 146.43 42.6106H164.891ZM178.523 27.9129H183.352L183.849 34.1612H184.062C185.245 31.9837 186.677 30.256 188.357 28.9778C190.038 27.6998 191.872 27.0609 193.86 27.0609C195.233 27.0609 196.464 27.2974 197.552 27.7707L196.416 32.883C195.848 32.6938 195.328 32.5519 194.854 32.4571C194.381 32.3625 193.789 32.3151 193.079 32.3151C191.612 32.3151 190.085 32.9068 188.499 34.0902C186.914 35.2735 185.529 37.3326 184.346 40.2675V62.4205H178.523V27.9132L178.523 27.9129ZM199.682 53.4742C199.682 49.6874 201.375 46.7879 204.759 44.7762C208.144 42.7645 213.528 41.3562 220.914 40.5515C220.914 39.4629 220.805 38.3978 220.593 37.3564C220.379 36.3149 220.001 35.3918 219.457 34.5872C218.912 33.7825 218.189 33.1317 217.292 32.6345C216.392 32.1376 215.232 31.8889 213.812 31.8889C211.777 31.8889 209.895 32.2677 208.167 33.0252C206.44 33.7825 204.889 34.6346 203.517 35.5812L201.174 31.534C202.783 30.4926 204.747 29.4866 207.067 28.5163C209.386 27.5461 211.942 27.0609 214.735 27.0609C218.949 27.0609 222.001 28.3508 223.894 30.9306C225.788 33.5104 226.735 36.9538 226.735 41.2616V62.4205H221.907L221.409 58.3023H221.269C219.618 59.6703 217.82 60.8492 215.907 61.8171C213.99 62.7874 211.966 63.2726 209.836 63.2726C206.901 63.2726 204.475 62.4205 202.558 60.7166C200.641 59.0124 199.682 56.5984 199.682 53.4742V53.4742ZM205.434 53.0481C205.434 55.0362 206.014 56.4564 207.173 57.3083C208.333 58.1604 209.765 58.5865 211.469 58.5865C213.126 58.5865 214.7 58.1958 216.191 57.4148C217.682 56.6339 219.257 55.4859 220.914 53.9714V44.3858C218.024 44.7645 215.587 45.214 213.599 45.7348C211.611 46.2555 210.014 46.871 208.806 47.5809C207.599 48.2908 206.736 49.1074 206.215 50.0304C205.694 50.9535 205.434 51.9595 205.434 53.0481V53.0481ZM236.818 54.6103C238.332 55.8409 239.883 56.8352 241.468 57.5924C243.053 58.3497 244.887 58.7285 246.971 58.7285C249.244 58.7285 250.947 58.2077 252.084 57.1663C253.22 56.1251 253.787 54.8468 253.787 53.332C253.787 52.4328 253.551 51.6517 253.077 50.989C252.604 50.3263 252 49.7465 251.265 49.2493C250.533 48.7524 249.692 48.3144 248.746 47.9358L245.905 46.7998C244.655 46.3656 243.423 45.8801 242.212 45.3443C240.982 44.7998 239.883 44.1371 238.911 43.3562C237.942 42.5749 237.148 41.6637 236.532 40.6225C235.918 39.581 235.61 38.3266 235.61 36.8592C235.61 35.4866 235.884 34.1967 236.426 32.9895C236.971 31.7825 237.752 30.7412 238.771 29.8656C239.789 28.9897 241.029 28.3034 242.498 27.8062C243.965 27.3093 245.622 27.0609 247.469 27.0609C249.646 27.0609 251.645 27.4396 253.467 28.1969C255.291 28.9544 256.864 29.8772 258.191 30.9661L255.419 34.6584C254.236 33.7589 253.006 33.0252 251.729 32.4571C250.449 31.8889 249.054 31.605 247.54 31.605C245.361 31.605 243.763 32.1021 242.747 33.0962C241.729 34.0902 241.219 35.2499 241.219 36.5753C241.219 37.38 241.433 38.0782 241.86 38.6699C242.284 39.2616 242.853 39.7823 243.563 40.2321C244.273 40.6816 245.089 41.0839 246.011 41.4391C246.936 41.794 247.895 42.1609 248.889 42.5396C250.138 43.0205 251.38 43.5176 252.616 44.0308C253.871 44.5513 254.995 45.2023 255.989 45.9832C256.982 46.7643 257.799 47.7229 258.437 48.8589C259.078 49.9951 259.396 51.3677 259.396 52.9771C259.396 54.3973 259.125 55.7225 258.58 56.9533C258.035 58.1842 257.232 59.2728 256.167 60.2194C255.101 61.1661 253.775 61.9119 252.19 62.456C250.605 63.0006 248.793 63.2726 246.759 63.2726C244.296 63.2726 241.953 62.8229 239.73 61.9236C237.503 61.0241 235.563 59.8881 233.906 58.5155L236.818 54.6103H236.818Z" fill="black"/>
</g>
<defs>
<clipPath id="clip0">
<rect width="303" height="78.9964" fill="white"/>
</clipPath>
</defs>
</svg>
