<svg width="351" height="100" viewBox="0 0 351 100" fill="none" xmlns="http://www.w3.org/2000/svg">
<path fill-rule="evenodd" clip-rule="evenodd" d="M327.159 41.3551C326.843 41.4183 326.526 42.1149 326.526 42.4944C326.463 45.0281 326.4 51.7413 326.4 56.301C326.4 56.4279 326.589 56.6812 326.78 56.6812C327.729 56.7443 330.009 56.8074 331.973 56.8074C334.696 56.8074 336.279 56.4279 337.166 56.0484C339.446 54.9078 340.522 52.4379 340.522 49.714C340.522 43.5718 336.216 41.2282 329.819 41.2282C329.376 41.165 328.11 41.165 327.159 41.3551V41.3551ZM343.499 69.6642C343.499 63.3944 338.876 59.9108 330.516 59.9108C330.136 59.9108 327.476 59.8477 326.843 59.9739C326.653 60.0378 326.4 60.1647 326.4 60.3548C326.4 64.8506 326.336 72.0079 326.526 74.7942C326.653 75.9972 327.54 77.7074 328.617 78.2139C329.756 78.8473 332.353 78.9736 334.126 78.9736C339.129 78.9736 343.499 76.1873 343.499 69.6642V69.6642ZM314.24 37.8723C314.873 37.8723 316.773 38.0617 321.65 38.0617C326.273 38.0617 329.946 37.9354 334.443 37.9354C339.952 37.9354 347.552 39.8982 347.552 48.1315C347.552 52.1846 344.702 55.415 340.966 56.9982C340.776 57.0614 340.776 57.1876 340.966 57.2508C346.285 58.5815 350.972 61.8742 350.972 68.0803C350.972 74.1607 347.172 78.0238 341.662 80.4306C338.306 81.8869 334.126 82.3934 329.883 82.3934C326.653 82.3934 317.977 82.0138 313.164 82.1408C312.657 81.95 313.607 79.6702 314.05 79.2907C315.19 79.2268 316.076 79.1637 317.28 78.7835C318.99 78.3409 319.18 77.8337 319.433 75.2375C319.56 73.0208 319.56 65.167 319.56 59.5944C319.56 51.9314 319.624 46.7383 319.56 44.2053C319.497 42.2425 318.8 41.6084 317.407 41.2282C316.33 41.0388 314.557 40.7848 313.1 40.5954C312.783 40.2784 313.86 38.1248 314.24 37.8723ZM277.697 77.2641C279.218 78.4665 282.195 78.9729 284.855 78.9729C288.274 78.9729 291.694 78.3409 294.988 75.3631C298.344 72.3242 300.687 67.6376 300.687 60.1647C300.687 53.0075 297.964 47.181 292.391 43.7619C289.224 41.7978 285.171 40.9756 280.484 40.9756C279.091 40.9756 277.761 41.0388 276.938 41.4183C276.748 41.5452 276.305 42.1149 276.305 42.4312C276.178 43.6981 276.178 53.4508 276.178 59.1511C276.178 65.0407 276.178 73.2741 276.305 74.2239C276.305 75.1744 276.748 76.6307 277.698 77.2641H277.697ZM263.321 37.8716C264.525 37.8716 269.148 38.0617 271.364 38.0617C275.355 38.0617 278.205 37.8723 285.741 37.8723C292.074 37.8723 297.394 39.5818 301.194 42.8114C305.816 46.8015 308.224 52.3116 308.224 59.0241C308.224 68.5874 303.854 74.0976 299.483 77.2641C295.115 80.4937 289.414 82.3934 281.308 82.3934C277.002 82.3934 269.592 82.2671 263.448 82.2033H263.385C263.069 81.6336 263.892 79.417 264.398 79.3538C266.045 79.1637 266.488 79.0999 267.312 78.7842C268.641 78.277 268.895 77.5805 269.085 75.2375C269.275 70.8673 269.212 65.611 269.212 59.6576C269.212 55.415 269.275 47.1178 269.148 44.4578C268.958 42.2418 268.009 41.6715 266.108 41.2913C265.158 41.1019 263.892 40.848 262.119 40.6586C261.865 40.2145 263.005 38.2518 263.321 37.8723V37.8716Z" fill="#373737"/>
<path fill-rule="evenodd" clip-rule="evenodd" d="M186.691 79.7334C185.108 79.5433 183.968 79.2908 182.575 78.6573C182.385 78.5304 182.068 77.8976 182.068 77.6437C181.941 75.427 181.941 69.094 181.941 64.8514C181.941 61.431 181.372 58.4546 179.915 56.3649C178.205 53.9574 175.735 52.5649 172.568 52.5649C169.782 52.5649 166.045 54.4646 162.942 57.1246C162.879 57.1877 162.372 57.6318 162.435 56.9345C162.435 56.2379 162.562 54.8448 162.625 53.8943C162.689 53.0076 162.182 52.5649 162.182 52.5649C160.155 53.5779 154.456 54.9079 152.365 55.0973C150.846 55.4151 150.466 56.8714 152.05 57.3778H152.113C153.822 57.8843 154.962 58.4546 155.848 59.0249C156.482 59.5314 156.419 60.228 156.419 60.7983C156.482 65.5473 156.482 72.8308 156.292 76.8208C156.229 78.4041 155.786 78.9737 154.645 79.2269L154.772 79.1638C153.885 79.3539 153.189 79.5433 152.112 79.6703C151.732 80.0505 151.732 82.0771 152.112 82.5204C152.809 82.5204 156.482 82.3303 159.523 82.3303C163.702 82.3303 165.856 82.5204 166.932 82.5204C167.375 82.0139 167.502 80.1136 167.249 79.6703C166.045 79.6071 165.158 79.4809 164.335 79.2269C163.196 78.973 162.879 78.4041 162.815 77.0741C162.689 73.7168 162.689 66.6241 162.689 61.8112C162.689 60.4812 163.069 59.8478 163.448 59.4676C164.905 58.2014 167.249 57.3147 169.338 57.3147C171.365 57.3147 172.694 57.9481 173.708 58.7717C175.101 59.9109 175.544 61.558 175.735 62.761C176.051 65.4842 175.925 70.8674 175.925 75.554C175.925 78.087 175.735 78.7205 174.785 79.0368C174.341 79.2269 173.202 79.4809 171.872 79.6065C171.428 80.0505 171.555 82.0139 171.872 82.4573C173.708 82.4573 175.862 82.2672 179.028 82.2672C182.954 82.2672 185.488 82.4573 186.502 82.4573C186.817 82.0771 186.944 80.2406 186.691 79.7334V79.7334ZM204.234 55.542C200.878 55.542 198.787 58.1382 198.787 62.1907C198.787 66.3077 200.624 71.0575 205.817 71.0575C206.704 71.0575 208.351 70.6773 209.11 69.7906C210.314 68.6514 211.137 66.3708 211.137 63.9641C211.137 58.7078 208.54 55.5413 204.234 55.5413V55.542ZM203.79 83.5334C202.524 83.5334 201.637 83.9136 201.067 84.2306C198.407 85.9395 197.204 87.5865 197.204 89.5507C197.204 91.3865 197.901 92.8427 199.421 94.1096C201.257 95.6929 203.79 96.4533 207.02 96.4533C213.48 96.4533 216.33 92.9697 216.33 89.5507C216.33 87.1432 215.126 85.5599 212.657 84.674C210.884 83.9136 207.654 83.5334 203.79 83.5334V83.5334ZM204.234 100C200.371 100 197.584 99.1764 195.178 97.3399C192.834 95.5666 191.821 92.9066 191.821 91.0701C191.821 90.5636 191.948 89.1698 193.088 87.9036C193.784 87.1432 195.305 85.6869 198.914 83.217C199.041 83.1538 199.104 83.0907 199.104 82.9631C199.104 82.8368 198.977 82.7098 198.851 82.6474C195.874 81.5075 194.988 79.6703 194.734 78.6573V78.5304C194.671 78.1502 194.544 77.7707 195.114 77.3905C195.558 77.0741 196.191 76.6939 196.887 76.2512C197.964 75.6171 199.104 74.9205 199.8 74.3502C199.927 74.224 199.927 74.0977 199.927 73.9707C199.927 73.8438 199.8 73.7168 199.673 73.6543C195.241 72.1974 193.025 68.9039 193.025 63.9641C193.025 60.7344 194.481 57.8212 197.077 55.9847C198.851 54.5915 203.284 52.8813 206.197 52.8813H206.387C209.364 52.9445 211.01 53.5779 213.353 54.4014C214.62 54.8448 215.824 55.0342 217.471 55.0342C219.94 55.0342 221.017 54.2745 221.903 53.3885C221.967 53.5148 222.094 53.8318 222.157 54.6547C222.22 55.4782 221.967 56.6813 221.333 57.5679C220.827 58.2645 219.687 58.7717 218.547 58.7717H218.23C217.09 58.6447 216.583 58.5177 216.583 58.5177L216.33 58.6447C216.267 58.7717 216.33 58.8979 216.393 59.088L216.457 59.215C216.583 59.7846 216.837 61.4941 216.837 61.9382C216.837 67.1313 214.747 69.4104 212.53 71.1206C210.377 72.7038 207.907 73.7168 205.12 73.9707C205.057 73.9707 204.805 73.9707 204.234 74.0339C203.917 74.0339 203.474 74.0977 203.41 74.0977H203.347C202.841 74.224 201.574 74.8574 201.574 75.9335C201.574 76.8833 202.144 78.0239 204.867 78.214C205.437 78.2771 206.006 78.2771 206.641 78.341C210.25 78.5935 214.747 78.9106 216.837 79.6071C219.75 80.6832 221.586 83.2801 221.586 86.3835C221.586 91.0708 218.23 95.4403 212.657 98.1628C209.934 99.3665 207.21 100 204.234 100V100ZM240.332 55.8584C239.003 55.8584 237.799 56.1741 236.912 56.8075C234.443 58.3276 233.176 61.3679 233.176 65.8006C233.176 74.0977 237.356 79.9242 243.309 79.9242C245.083 79.9242 246.476 79.417 247.679 78.4041C249.515 76.8833 250.466 73.8438 250.466 69.6005C250.466 61.3679 246.349 55.8577 240.333 55.8577L240.332 55.8584ZM241.473 82.9637C230.706 82.9637 226.843 75.0475 226.843 67.6377C226.843 62.4446 228.933 58.4546 233.112 55.6045C236.09 53.768 239.636 52.755 242.803 52.755C251.035 52.755 256.799 58.6447 256.799 67.1313C256.799 72.8939 254.519 77.4536 250.149 80.2406C248.059 81.6337 244.449 82.9637 241.472 82.9637H241.473V82.9637ZM128.617 55.8577C127.287 55.8577 126.084 56.1741 125.196 56.8075C122.727 58.3276 121.46 61.3679 121.46 65.8006C121.46 74.0977 125.64 79.9242 131.593 79.9242C133.366 79.9242 134.76 79.417 135.963 78.4041C137.799 76.8833 138.75 73.8438 138.75 69.6005C138.75 61.3679 134.696 55.8577 128.617 55.8577ZM129.757 82.9637C118.99 82.9637 115.127 75.0475 115.127 67.6377C115.127 62.4446 117.217 58.4546 121.396 55.6045C124.373 53.768 127.92 52.755 131.087 52.755C139.32 52.755 145.083 58.6447 145.083 67.1313C145.083 72.8939 142.803 77.4536 138.432 80.2406C136.406 81.6337 132.796 82.9637 129.757 82.9637ZM57.369 82.3303C57.2421 82.1409 57.1151 81.5706 57.1789 80.874C57.1789 80.3669 57.3059 80.0505 57.369 79.9242C58.699 79.7334 59.3956 79.5433 60.1553 79.3539C61.4222 79.0368 61.9287 78.341 61.9918 76.7577C62.1826 72.9578 62.1826 65.7374 62.1188 60.7344V60.6075C62.1188 60.0379 62.1188 59.3406 61.4222 58.8341C60.4086 58.2014 59.2055 57.6318 57.6223 57.187C57.0527 56.9983 56.6725 56.6813 56.7356 56.3017C56.7356 55.9215 57.1158 55.4782 57.9393 55.3512C60.0291 55.1611 65.4747 53.8318 67.6282 52.8813C67.7552 53.0076 67.9453 53.3885 67.9453 53.895L67.8822 54.5908C67.8183 55.2881 67.7552 56.1116 67.7552 56.9345C67.7552 57.1877 68.0091 57.3778 68.2617 57.3778C68.3886 57.3778 68.5156 57.3147 68.6419 57.2509C72.6951 54.0844 76.368 52.9445 78.2677 52.9445C81.3717 52.9445 83.7785 54.4014 85.615 57.441C85.7412 57.6318 85.8682 57.6949 86.0583 57.6949C86.1846 57.6949 86.374 57.6318 86.4378 57.5048C90.1746 54.6547 93.9114 52.9445 96.3807 52.9445C102.27 52.9445 105.754 57.3147 105.754 64.7245C105.754 66.8142 105.754 69.5373 105.691 72.008C105.691 74.224 105.628 76.2505 105.628 77.7075C105.628 78.0232 106.07 79.0368 106.767 79.2269C107.653 79.6703 108.857 79.8604 110.44 80.1136H110.504C110.631 80.557 110.377 82.2033 110.124 82.5204C109.744 82.5204 109.174 82.5204 108.541 82.4573C106.938 82.3736 105.333 82.3313 103.727 82.3303C99.8011 82.3303 97.7745 82.3934 95.8104 82.5204C95.6848 82.0139 95.6209 80.4938 95.8104 80.1136C96.951 79.9242 97.5206 79.7334 98.2178 79.544C99.4847 79.1638 99.8011 78.5935 99.8649 76.9471C99.8649 75.7441 100.117 65.4842 99.7373 63.0143C99.3577 60.4812 97.4574 57.5048 93.2773 57.5048C91.694 57.5048 89.2248 58.1382 86.818 59.974C86.6917 60.101 86.5641 60.4174 86.5641 60.6075V60.6713C86.818 62.0006 86.818 63.5214 86.818 65.8644V69.9807C86.818 72.8308 86.7542 75.4908 86.818 77.5167C86.818 78.9106 87.6416 79.2269 88.3381 79.4809C88.7183 79.5433 88.9709 79.6071 89.2879 79.6703C89.8576 79.7972 90.4279 79.9242 91.3145 80.1136C91.4415 80.3675 91.4415 81.1904 91.2514 81.887C91.1876 82.2672 91.0606 82.4566 90.9975 82.5204C88.8446 82.4573 86.6279 82.3934 83.3983 82.3934C82.4485 82.3934 80.8014 82.4573 79.4083 82.4573C78.2677 82.4573 77.1916 82.5204 76.5588 82.5204C76.495 82.3934 76.368 81.9508 76.368 81.2535C76.368 80.6839 76.495 80.2406 76.622 80.1136C76.9383 80.0505 77.1916 79.9873 77.5086 79.9873C78.2677 79.8604 78.9018 79.7334 79.5345 79.6071C80.612 79.2908 80.9915 78.7205 81.0546 77.3273C81.2447 74.1608 81.4348 65.1047 80.9915 62.8242C80.2318 59.1512 78.1421 57.3147 74.7848 57.3147C72.822 57.3147 70.3514 58.2645 68.3255 59.7853C68.0084 60.0379 67.7552 60.6706 67.7552 61.2409V64.9777C67.7552 69.5374 67.7552 75.2376 67.8183 77.7075C67.8822 78.4665 68.1347 79.3539 69.5917 79.6703C69.9088 79.7334 70.4152 79.8604 71.0487 79.9242L72.1879 80.1136C72.3155 80.4938 72.2517 82.0139 71.9985 82.5204C71.365 82.5204 70.6053 82.4573 69.718 82.4573C68.3886 82.3934 66.6784 82.3303 64.7788 82.3303C62.5621 82.3303 60.9789 82.3934 59.712 82.4573C58.8253 82.3303 58.1288 82.3303 57.369 82.3303V82.3303Z" fill="black"/>
<path fill-rule="evenodd" clip-rule="evenodd" d="M24.0561 97.53L21.4599 96.6426C21.4599 96.6426 21.777 83.407 17.0265 82.4572C13.8607 78.7835 17.5344 -73.3374 28.9335 81.95C28.9335 81.95 25.0066 83.9128 24.31 87.2701C23.5496 90.5635 24.0561 97.53 24.0561 97.53V97.53Z" fill="white"/>
<path fill-rule="evenodd" clip-rule="evenodd" d="M24.0561 97.53L21.4599 96.6426C21.4599 96.6426 21.777 83.407 17.0265 82.4572C13.8607 78.7835 17.5344 -73.3374 28.9335 81.95C28.9335 81.95 25.0066 83.9128 24.31 87.2701C23.5496 90.5635 24.0561 97.53 24.0561 97.53V97.53Z" fill="#6C6C6C"/>
<path fill-rule="evenodd" clip-rule="evenodd" d="M25.45 84.7371C25.45 84.7371 48.1865 69.7906 42.8657 38.6945C37.7365 16.0864 25.6401 8.67663 24.3101 5.8265C22.8538 3.79992 21.46 0.253906 21.46 0.253906L22.4105 63.1405C22.4105 63.2044 20.447 82.3934 25.4507 84.7378" fill="white"/>
<path fill-rule="evenodd" clip-rule="evenodd" d="M25.45 84.7371C25.45 84.7371 48.1865 69.7906 42.8657 38.6945C37.7365 16.0864 25.6401 8.67663 24.3101 5.8265C22.8538 3.79992 21.46 0.253906 21.46 0.253906L22.4105 63.1405C22.4105 63.2044 20.447 82.3934 25.4507 84.7378" fill="#231F20"/>
<path fill-rule="evenodd" clip-rule="evenodd" d="M20.1307 85.56C20.1307 85.56 -1.21263 70.9937 0.0542465 45.3453C1.2573 19.6962 16.3301 7.0934 19.2433 4.81357C21.1436 2.78699 21.2068 2.02659 21.3337 0C22.6638 2.85012 22.4105 42.6221 22.5999 47.3081C23.1695 65.3572 21.587 82.1409 20.1307 85.56Z" fill="white"/>
<path fill-rule="evenodd" clip-rule="evenodd" d="M20.1307 85.56C20.1307 85.56 -1.21263 70.9937 0.0542465 45.3453C1.2573 19.6962 16.3301 7.0934 19.2433 4.81357C21.1436 2.78699 21.2068 2.02659 21.3337 0C22.6638 2.85012 22.4105 42.6221 22.5999 47.3081C23.1695 65.3572 21.587 82.1409 20.1307 85.56Z" fill="#373737"/>
</svg>
