<svg width="303" height="100" viewBox="0 0 303 100" fill="none" xmlns="http://www.w3.org/2000/svg">
<path d="M78.6243 55.7038C79.5618 51.7975 80.0306 49.0885 80.0306 47.5781C80.0306 46.0677 79.8096 44.9479 79.3669 44.2194C78.9241 43.4896 78.2077 43.125 77.2181 43.125C75.4993 43.125 73.3379 44.2969 70.7337 46.6406L69.4837 47.8125L63.4674 74.0625H53L61.983 35H71.983L71.5924 38.75C73.5716 36.7708 75.8893 35.3646 78.5455 34.5313C79.6393 34.2188 80.9414 34.0625 82.4518 34.0625C83.9622 34.0625 85.3945 34.5313 86.7487 35.4688C88.1028 36.4063 88.9622 37.3437 89.3261 38.2812L89.8737 39.61C90.4856 39.0737 91.1108 38.5527 91.7487 38.0475C92.5299 37.4219 94.0016 36.6012 96.1631 35.5856C98.3245 34.5706 100.29 34.0632 102.061 34.0632C108.311 34.0632 111.436 37.7344 111.436 45.0781C111.436 47.4219 110.941 50.7031 109.952 54.9219L105.577 74.0625H95.1087L99.4837 55.7031C100.421 51.7969 100.89 49.1146 100.89 47.6569C100.89 46.1979 100.682 45.0781 100.265 44.2969C99.8483 43.5156 99.1585 43.125 98.195 43.125C97.2314 43.125 96.1116 43.5023 94.8356 44.2575C93.5596 45.0127 92.5045 45.7812 91.6705 46.5625L90.4212 47.6563C90.0566 50.7812 89.666 53.2031 89.2493 54.9219L84.8743 74.0625H74.4056L78.6243 55.7031V55.7038ZM118.39 35H129.015L132.062 46.9531L140.187 35.0007H150.812L135.421 55.3132L141.671 74.0632H131.047L128 62.5781L120.031 74.0632H109.172L124.484 54.5319L118.391 35.0007L118.39 35ZM174.406 34.0625C180.76 34.0625 183.937 37.735 183.937 45.0781C183.937 46.9531 183.39 50.2344 182.296 54.9219L177.921 74.0625H167.452L171.671 55.7031C172.609 51.7969 173.077 49.0752 173.077 47.5387C173.077 46.0029 172.882 44.8825 172.492 44.18C172.101 43.4762 171.385 43.125 170.343 43.125C168.52 43.125 166.307 44.2969 163.702 46.6406L162.452 47.8125L156.437 74.0625H145.968L154.952 35H164.952L164.484 38.8281C165.682 37.6302 167.257 36.5365 169.211 35.5469C171.164 34.5573 172.895 34.0625 174.406 34.0625H174.406ZM199.523 64.9219C200.591 65.7031 201.932 66.0937 203.546 66.0937C207.14 66.0937 210.812 65.8333 214.562 65.3125L216.593 65.0788L215.421 72.8125C210.577 74.2708 205.786 75 201.046 75C196.307 75 192.856 73.9323 190.695 71.7969C188.534 69.6615 187.452 66.5365 187.452 62.4219C187.452 58.3073 187.869 54.6361 188.702 51.4062C189.536 48.1771 190.773 45.2604 192.414 42.6563C194.054 40.0521 196.294 37.9821 199.132 36.445C201.971 34.9092 205.213 34.1413 208.859 34.1413C217.973 34.1413 222.531 38.0208 222.531 45.7813C222.531 50.7292 220.864 54.1413 217.531 56.0156C214.197 57.8906 208.65 58.8281 200.891 58.8281H198.156C197.999 59.4531 197.922 60.4294 197.922 61.7575C197.922 63.0863 198.456 64.1413 199.523 64.9225V64.9219ZM202.531 51.0938C206.124 51.0938 208.638 50.7031 210.07 49.9219C211.502 49.1406 212.218 47.8125 212.218 45.9375C212.218 43.6979 210.916 42.5788 208.312 42.5788C203.676 42.5788 200.682 45.4167 199.327 51.0938H202.531ZM236.281 63.9062C236.281 65.3646 237.036 66.0937 238.547 66.0937L243.859 65.7031L243 73.2031C240.24 74.401 237.388 75 234.446 75C231.503 75 229.263 74.2054 227.727 72.6169C226.19 71.0283 225.422 69.1012 225.422 66.8356C225.422 64.57 225.812 61.8229 226.594 58.5937L230.031 43.9063H225.813L228.156 35H232.141L234.406 25H244.875L242.609 35H250.812L248.625 43.9063H240.5L236.906 59.5312C236.49 61.3021 236.281 62.7604 236.281 63.9062V63.9062Z" fill="black"/>
</svg>
