<svg width="303" height="150" viewBox="0 0 303 150" fill="none" xmlns="http://www.w3.org/2000/svg">
<g clip-path="url(#clip0)">
<path d="M137.35 52.9037C131.959 49.7916 127.746 44.9877 125.364 39.2373C122.983 33.4868 122.565 27.1111 124.176 21.0989C125.787 15.0867 129.336 9.77409 134.274 5.98499C139.212 2.1959 145.263 0.14209 151.487 0.14209C157.711 0.14209 163.762 2.1959 168.7 5.98499C173.638 9.77409 177.187 15.0867 178.798 21.0989C180.409 27.1111 179.991 33.4868 177.61 39.2373C175.228 44.9877 171.015 49.7916 165.624 52.9037L157.111 38.1585C159.256 36.9204 160.932 35.0093 161.879 32.7216C162.827 30.4339 162.993 27.8974 162.352 25.5056C161.711 23.1138 160.299 21.0003 158.335 19.4929C156.37 17.9854 153.963 17.1684 151.487 17.1684C149.011 17.1684 146.604 17.9854 144.639 19.4929C142.675 21.0003 141.263 23.1138 140.622 25.5056C139.981 27.8974 140.147 30.4339 141.095 32.7216C142.042 35.0093 143.718 36.9204 145.863 38.1585L137.35 52.9037Z" fill="#373737"/>
<path d="M197.898 59.7487C203.288 62.8608 207.501 67.6646 209.883 73.4151C212.265 79.1655 212.683 85.5413 211.072 91.5535C209.461 97.5656 205.911 102.878 200.973 106.667C196.035 110.456 189.985 112.51 183.761 112.51C177.536 112.51 171.486 110.456 166.548 106.667C161.61 102.878 158.06 97.5656 156.449 91.5535C154.838 85.5413 155.256 79.1655 157.638 73.4151C160.02 67.6646 164.233 62.8608 169.623 59.7487L178.136 74.4938C175.992 75.7319 174.316 77.6431 173.368 79.9308C172.421 82.2185 172.254 84.7549 172.895 87.1467C173.536 89.5386 174.948 91.6521 176.913 93.1595C178.877 94.6669 181.284 95.484 183.761 95.484C186.237 95.484 188.644 94.6669 190.608 93.1595C192.573 91.6521 193.985 89.5386 194.626 87.1467C195.267 84.7549 195.1 82.2185 194.153 79.9308C193.205 77.6431 191.529 75.7319 189.385 74.4938L197.898 59.7487Z" fill="#231F20"/>
<path d="M148.098 84.2352C148.098 90.4595 146.044 96.5098 142.255 101.448C138.466 106.386 133.153 109.936 127.141 111.547C121.129 113.158 114.753 112.74 109.002 110.358C103.252 107.976 98.4481 103.763 95.336 98.3726C92.2238 92.9823 90.9773 86.7156 91.7897 80.5446C92.6022 74.3736 95.4281 68.6431 99.8294 64.2419C104.231 59.8406 109.961 57.0147 116.132 56.2022C122.303 55.3898 128.57 56.6363 133.96 59.7485L125.447 74.4936C123.303 73.2556 120.809 72.7597 118.354 73.0829C115.899 73.4061 113.62 74.5303 111.869 76.2813C110.118 78.0322 108.994 80.312 108.67 82.767C108.347 85.222 108.843 87.715 110.081 89.8595C111.319 92.0039 113.23 93.6799 115.518 94.6275C117.806 95.5751 120.342 95.7414 122.734 95.1005C125.126 94.4596 127.239 93.0474 128.747 91.0829C130.254 89.1184 131.071 86.7114 131.071 84.2352L148.098 84.2352Z" fill="#616161"/>
<path fill-rule="evenodd" clip-rule="evenodd" d="M99.6223 119.289C102.015 119.074 104.435 119.076 106.816 119.417C108.283 119.677 109.84 120.056 110.942 121.126C112.097 122.415 112.381 124.205 112.635 125.855C113.051 129.28 113.003 132.753 112.635 136.179C112.39 137.851 112.148 139.658 111.052 141.018C109.856 142.232 108.091 142.577 106.471 142.832C104.08 143.131 101.654 143.2 99.2529 142.96C97.627 142.794 95.9302 142.508 94.5459 141.58C93.6507 141.012 93.1697 140.009 92.8429 139.037C92.1873 137.011 92.104 134.859 92.0147 132.749C92.0046 129.96 92.0574 127.142 92.6013 124.398C92.8957 123.117 93.2529 121.709 94.3348 120.854C95.8591 119.748 97.7976 119.48 99.6223 119.289ZM100.018 123.111C102.046 122.949 104.116 122.9 106.122 123.294C106.899 123.45 107.816 123.828 107.963 124.713C108.572 127.203 108.429 129.797 108.454 132.343C108.379 134.153 108.421 136.025 107.814 137.758C107.285 138.897 105.842 138.99 104.754 139.157C102.572 139.28 100.306 139.39 98.1893 138.742C97.213 138.485 96.9045 137.437 96.7542 136.558C96.3483 133.954 96.4802 131.305 96.531 128.681C96.6386 127.209 96.6203 125.683 97.1501 124.284C97.757 123.347 99.0114 123.263 100.018 123.111Z" fill="#050505"/>
<path fill-rule="evenodd" clip-rule="evenodd" d="M121.4 127.221C122.853 126.298 124.658 126.147 126.334 126.3C127.899 126.434 129.637 126.965 130.475 128.407C131.476 130.215 131.532 132.352 131.601 134.37C131.557 136.444 131.518 138.61 130.662 140.538C130.172 141.71 129.048 142.477 127.844 142.779C126.001 143.232 123.976 143.281 122.2 142.546C121.239 142.17 120.576 141.354 120.026 140.518C120.026 143.678 120.026 146.839 120.026 149.999H115.966C115.968 142.152 115.962 134.303 115.968 126.456C117.281 126.45 118.595 126.45 119.906 126.456C119.861 127.264 119.817 128.07 119.794 128.879C120.281 128.285 120.734 127.631 121.4 127.221ZM122.721 129.34C123.858 129.253 125.059 129.229 126.123 129.697C126.797 129.988 127.152 130.7 127.272 131.39C127.625 133.17 127.58 135.009 127.455 136.812C127.329 137.9 127.154 139.308 125.957 139.731C124.572 140.183 122.993 140.212 121.625 139.682C120.352 139.146 120.204 137.605 120.078 136.41C120.003 134.575 119.912 132.687 120.43 130.905C120.704 129.894 121.755 129.415 122.721 129.34Z" fill="#050505"/>
<path fill-rule="evenodd" clip-rule="evenodd" d="M136.459 127.252C138.454 126.227 140.79 126.19 142.98 126.294C144.803 126.446 147.016 126.751 148.02 128.494C149.153 130.599 148.968 133.075 149.126 135.385C145.424 135.385 141.722 135.385 138.022 135.385C138.152 136.577 137.997 137.861 138.598 138.953C139.112 139.816 140.202 139.993 141.123 140.043C142.262 140.052 143.488 140.145 144.537 139.615C145.138 139.144 145.142 138.308 145.219 137.618C146.518 137.616 147.817 137.616 149.116 137.618C149.068 138.974 148.893 140.492 147.805 141.446C146.171 142.912 143.833 143.064 141.742 143.104C139.897 143.05 137.949 142.956 136.296 142.047C134.959 141.257 134.532 139.635 134.297 138.207C133.999 136.083 133.923 133.92 134.177 131.788C134.384 130.106 134.837 128.127 136.459 127.252ZM138.831 129.836C139.94 129.162 141.312 129.298 142.556 129.316C143.327 129.399 144.267 129.444 144.769 130.126C145.28 130.968 145.189 131.999 145.193 132.945C142.804 132.949 140.417 132.956 138.03 132.943C138.066 131.892 137.983 130.609 138.831 129.836Z" fill="#050505"/>
<path fill-rule="evenodd" clip-rule="evenodd" d="M157.771 127.242C159.176 126.268 160.99 126.132 162.642 126.322C164.049 126.471 165.539 127.006 166.369 128.22C167.106 129.227 167.311 130.51 167.321 131.73C167.315 135.452 167.323 139.173 167.319 142.895C166.032 142.897 164.747 142.897 163.464 142.895C163.458 139.374 163.469 135.854 163.458 132.335C163.42 131.565 163.45 130.676 162.872 130.084C162.255 129.416 161.287 129.286 160.424 129.292C159.381 129.286 158.252 129.464 157.448 130.185C156.663 130.855 156.364 131.935 156.36 132.933C156.354 136.254 156.362 139.575 156.356 142.893C155.071 142.897 153.787 142.897 152.504 142.895C152.502 137.415 152.502 131.935 152.504 126.454C153.766 126.45 155.031 126.452 156.293 126.454C156.287 127.416 156.192 128.372 156.163 129.335C156.577 128.557 157.012 127.737 157.771 127.242Z" fill="#050505"/>
<path fill-rule="evenodd" clip-rule="evenodd" d="M174.299 120.04C176.427 119.326 178.694 119.224 180.918 119.145C183.074 119.155 185.327 119.175 187.341 120.044C188.364 120.47 189.072 121.404 189.417 122.435C189.979 123.976 189.996 125.644 190.008 127.266C188.524 127.266 187.04 127.27 185.559 127.264C185.534 126.123 185.621 124.845 184.915 123.874C184.201 123.144 183.084 123.146 182.136 123.034C180.208 122.998 178.201 122.874 176.354 123.539C175.688 123.751 175.343 124.416 175.209 125.058C174.829 126.779 174.827 128.555 174.829 130.311C174.851 132.657 174.815 135.038 175.316 137.346C175.448 138.19 176.226 138.71 177.005 138.897C178.808 139.345 180.689 139.28 182.53 139.171C183.49 139.045 184.659 138.982 185.262 138.101C185.906 137.05 185.798 135.757 185.764 134.575C187.261 134.569 188.757 134.571 190.255 134.575C190.237 136.441 190.205 138.367 189.527 140.133C189.178 141.056 188.457 141.84 187.523 142.193C185.69 142.928 183.681 142.975 181.736 143.092C179.481 143.131 177.198 143.076 174.994 142.55C173.701 142.213 172.288 141.621 171.689 140.336C170.924 138.637 170.784 136.747 170.587 134.918C170.423 132.503 170.317 130.083 170.376 127.664C170.492 125.705 170.67 123.641 171.728 121.934C172.29 120.984 173.276 120.389 174.299 120.04Z" fill="#050505"/>
<path fill-rule="evenodd" clip-rule="evenodd" d="M190.986 119.356C192.533 119.358 194.08 119.313 195.624 119.378C197.128 124.15 198.781 128.873 200.299 133.639C200.89 135.47 201.308 137.354 201.919 139.179C202.603 137.21 203.041 135.164 203.711 133.191C205.195 128.581 206.719 123.986 208.201 119.376C209.727 119.311 211.258 119.368 212.786 119.348V119.853C210.273 127.511 207.819 135.19 205.357 142.867C203.059 142.913 200.758 142.919 198.46 142.863C196.012 135.014 193.446 127.201 190.986 119.356Z" fill="#050505"/>
</g>
<defs>
<clipPath id="clip0">
<rect width="121.786" height="150" fill="white" transform="translate(91)"/>
</clipPath>
</defs>
</svg>
