<svg width="45" height="51" viewBox="0 0 45 51" fill="none" xmlns="http://www.w3.org/2000/svg">
<path d="M22.3797 0L0.297852 12.7484V38.2451L22.3797 50.9934L44.4616 38.2451V12.7484L22.3797 0ZM41.381 36.4688L22.3797 47.4409L3.37843 36.4688V14.5312L22.3797 3.55905L41.381 14.5312V36.4688Z" fill="#FFDB3B"/>
<path d="M14.0229 19.1584L9.86088 23.3205L7.68481 25.4966L9.86088 27.6792L14.0229 31.8413L16.2056 29.6652L12.037 25.4966L16.2056 21.3345L14.0229 19.1584Z" fill="#FFDB3B"/>
<path d="M30.7366 31.8413L34.8987 27.6792L37.0813 25.4966L34.8987 23.3205L30.7366 19.1584L28.5605 21.3345L32.7226 25.4966L28.5605 29.6652L30.7366 31.8413Z" fill="#FFDB3B"/>
<path d="M25.5341 12.6428L16.3406 37.2737L19.2268 38.351L28.4203 13.72L25.5341 12.6428Z" fill="#FFDB3B"/>
</svg>
