<svg width="303" height="102" viewBox="0 0 303 102" fill="none" xmlns="http://www.w3.org/2000/svg">
<path d="M291.078 15H230.922C228.204 15 226 17.2036 226 19.9219V80.0781C226 82.7964 228.204 85 230.922 85H291.078C293.796 85 296 82.7964 296 80.0781V19.9219C296 17.2036 293.796 15 291.078 15Z" fill="black"/>
<path d="M288.923 50.1451C288.923 52.072 287.361 53.6342 285.433 53.6342C283.506 53.6342 281.944 52.072 281.944 50.1451C281.944 48.2179 283.506 46.6558 285.433 46.6558C287.361 46.6558 288.923 48.2179 288.923 50.1451Z" fill="#616161"/>
<path d="M281.728 57.2545C281.728 59.1814 280.166 60.7435 278.239 60.7435C276.312 60.7435 274.75 59.1814 274.75 57.2545C274.75 55.3273 276.312 53.7651 278.239 53.7651C280.166 53.7651 281.728 55.3273 281.728 57.2545Z" fill="#979797"/>
<path d="M274.521 64.512C274.521 66.4392 272.959 68.0014 271.032 68.0014C269.105 68.0014 267.543 66.4392 267.543 64.512C267.543 62.5851 269.105 61.0229 271.032 61.0229C272.959 61.0229 274.521 62.5851 274.521 64.512Z" fill="white"/>
<path d="M281.506 42.9825C281.506 44.7864 280.043 46.2485 278.24 46.2485C276.436 46.2485 274.974 44.7864 274.974 42.9825C274.974 41.1787 276.436 39.7163 278.24 39.7163C280.043 39.7163 281.506 41.1787 281.506 42.9825Z" fill="#616161"/>
<path d="M274.327 50.0816C274.327 51.8855 272.864 53.3479 271.061 53.3479C269.257 53.3479 267.794 51.8855 267.794 50.0816C267.794 48.2778 269.257 46.8154 271.061 46.8154C272.864 46.8154 274.327 48.2778 274.327 50.0816Z" fill="#979797"/>
<path d="M267.171 57.285C267.171 59.0888 265.709 60.5512 263.905 60.5512C262.101 60.5512 260.639 59.0888 260.639 57.285C260.639 55.4811 262.101 54.019 263.905 54.019C265.709 54.019 267.171 55.4811 267.171 57.285Z" fill="white"/>
<path d="M274.055 35.8454C274.055 37.4836 272.727 38.812 271.088 38.812C269.45 38.812 268.122 37.4836 268.122 35.8454C268.122 34.207 269.45 32.8789 271.088 32.8789C272.727 32.8789 274.055 34.207 274.055 35.8454Z" fill="#616161"/>
<path d="M266.885 42.9429C266.885 44.581 265.557 45.9094 263.918 45.9094C262.28 45.9094 260.952 44.581 260.952 42.9429C260.952 41.3044 262.28 39.9761 263.918 39.9761C265.557 39.9761 266.885 41.3044 266.885 42.9429Z" fill="#979797"/>
<path d="M259.702 50.1692C259.702 51.8076 258.374 53.1357 256.735 53.1357C255.097 53.1357 253.769 51.8076 253.769 50.1692C253.769 48.531 255.097 47.2026 256.735 47.2026C258.374 47.2026 259.702 48.531 259.702 50.1692Z" fill="white"/>
<path d="M266.637 28.6742C266.637 30.1469 265.443 31.3407 263.971 31.3407C262.498 31.3407 261.304 30.1469 261.304 28.6742C261.304 27.2012 262.498 26.0073 263.971 26.0073C265.443 26.0073 266.637 27.2012 266.637 28.6742Z" fill="#616161"/>
<path d="M259.441 35.8057C259.441 37.2785 258.247 38.4726 256.774 38.4726C255.301 38.4726 254.107 37.2785 254.107 35.8057C254.107 34.333 255.301 33.1392 256.774 33.1392C258.247 33.1392 259.441 34.333 259.441 35.8057Z" fill="#979797"/>
<path d="M252.266 43.0194C252.266 44.4921 251.072 45.6859 249.599 45.6859C248.126 45.6859 246.933 44.4921 246.933 43.0194C246.933 41.5466 248.126 40.3525 249.599 40.3525C251.072 40.3525 252.266 41.5466 252.266 43.0194Z" fill="white"/>
<path d="M251.993 57.3065C251.993 58.6154 250.931 59.6766 249.622 59.6766C248.313 59.6766 247.252 58.6154 247.252 57.3065C247.252 55.9972 248.313 54.936 249.622 54.936C250.931 54.936 251.993 55.9972 251.993 57.3065Z" fill="#616161"/>
<path d="M259.136 64.45C259.136 65.759 258.075 66.8202 256.766 66.8202C255.457 66.8202 254.396 65.759 254.396 64.45C254.396 63.1408 255.457 62.0796 256.766 62.0796C258.075 62.0796 259.136 63.1408 259.136 64.45Z" fill="#616161"/>
<path d="M266.268 71.5823C266.268 72.8916 265.207 73.9528 263.898 73.9528C262.589 73.9528 261.527 72.8916 261.527 71.5823C261.527 70.2731 262.589 69.2119 263.898 69.2119C265.207 69.2119 266.268 70.2731 266.268 71.5823Z" fill="#616161"/>
<path d="M252.027 71.5823C252.027 72.8916 250.966 73.9528 249.657 73.9528C248.347 73.9528 247.286 72.8916 247.286 71.5823C247.286 70.2731 248.347 69.2119 249.657 69.2119C250.966 69.2119 252.027 70.2731 252.027 71.5823Z" fill="#616161"/>
<path d="M237.649 71.5823C237.649 72.8916 236.587 73.9528 235.278 73.9528C233.969 73.9528 232.908 72.8916 232.908 71.5823C232.908 70.2731 233.969 69.2119 235.278 69.2119C236.587 69.2119 237.649 70.2731 237.649 71.5823Z" fill="#616161"/>
<path d="M244.792 64.4388C244.792 65.748 243.731 66.8092 242.422 66.8092C241.113 66.8092 240.051 65.748 240.051 64.4388C240.051 63.1296 241.113 62.0684 242.422 62.0684C243.731 62.0684 244.792 63.1296 244.792 64.4388Z" fill="#616161"/>
<path d="M252.023 28.681C252.023 30.049 250.914 31.158 249.546 31.158C248.178 31.158 247.069 30.049 247.069 28.681C247.069 27.3127 248.178 26.2036 249.546 26.2036C250.914 26.2036 252.023 27.3127 252.023 28.681Z" fill="#979797"/>
<path d="M244.812 35.9282C244.812 37.2965 243.703 38.4056 242.334 38.4056C240.966 38.4056 239.857 37.2965 239.857 35.9282C239.857 34.5602 240.966 33.4512 242.334 33.4512C243.703 33.4512 244.812 34.5602 244.812 35.9282Z" fill="white"/>
<path d="M237.258 28.5796C237.258 29.6835 236.363 30.5784 235.259 30.5784C234.156 30.5784 233.261 29.6835 233.261 28.5796C233.261 27.476 234.156 26.5811 235.259 26.5811C236.363 26.5811 237.258 27.476 237.258 28.5796Z" fill="white"/>
<path d="M11.69 33.81V83.79H17.64V65.17H17.78C18.4333 66.2433 19.2267 67.1533 20.16 67.9C21.14 68.6 22.1667 69.16 23.24 69.58C24.3133 70 25.3867 70.3033 26.46 70.49C27.58 70.6767 28.5833 70.77 29.47 70.77C32.2233 70.77 34.6267 70.28 36.68 69.3C38.78 68.32 40.5067 66.99 41.86 65.31C43.26 63.5833 44.2867 61.5767 44.94 59.29C45.64 57.0033 45.99 54.5767 45.99 52.01C45.99 49.4433 45.64 47.0167 44.94 44.73C44.24 42.4433 43.19 40.4367 41.79 38.71C40.4367 36.9367 38.71 35.5367 36.61 34.51C34.5567 33.4833 32.13 32.97 29.33 32.97C26.81 32.97 24.5 33.4367 22.4 34.37C20.3 35.2567 18.76 36.7033 17.78 38.71H17.64V33.81H11.69ZM39.69 51.59C39.69 53.3633 39.5033 55.09 39.13 56.77C38.7567 58.45 38.15 59.9433 37.31 61.25C36.47 62.5567 35.35 63.6067 33.95 64.4C32.5967 65.1933 30.8933 65.59 28.84 65.59C26.7867 65.59 25.0367 65.2167 23.59 64.47C22.1433 63.6767 20.9533 62.65 20.02 61.39C19.1333 60.13 18.48 58.6833 18.06 57.05C17.64 55.37 17.43 53.6433 17.43 51.87C17.43 50.19 17.6167 48.5333 17.99 46.9C18.41 45.2667 19.0633 43.82 19.95 42.56C20.8367 41.2533 21.98 40.2033 23.38 39.41C24.78 38.6167 26.4833 38.22 28.49 38.22C30.4033 38.22 32.06 38.5933 33.46 39.34C34.9067 40.0867 36.0733 41.09 36.96 42.35C37.8933 43.61 38.57 45.0567 38.99 46.69C39.4567 48.2767 39.69 49.91 39.69 51.59ZM52.7641 33.81V70H58.7141V53.9C58.7141 51.5667 58.9475 49.5133 59.4141 47.74C59.8808 45.92 60.6275 44.38 61.6541 43.12C62.6808 41.86 64.0341 40.9033 65.7141 40.25C67.3941 39.5967 69.4241 39.27 71.8041 39.27V32.97C68.5841 32.8767 65.9241 33.53 63.8241 34.93C61.7241 36.33 59.9508 38.5 58.5041 41.44H58.3641V33.81H52.7641ZM100.184 48.44H79.3942C79.4876 47.04 79.7909 45.7333 80.3042 44.52C80.8176 43.26 81.5176 42.1633 82.4042 41.23C83.2909 40.2967 84.3409 39.5733 85.5542 39.06C86.8142 38.5 88.2142 38.22 89.7542 38.22C91.2476 38.22 92.6009 38.5 93.8142 39.06C95.0742 39.5733 96.1476 40.2967 97.0342 41.23C97.9676 42.1167 98.6909 43.19 99.2042 44.45C99.7642 45.71 100.091 47.04 100.184 48.44ZM105.924 58.52H100.044C99.5309 60.9 98.4576 62.6733 96.8242 63.84C95.2376 65.0067 93.1842 65.59 90.6642 65.59C88.7042 65.59 87.0009 65.2633 85.5542 64.61C84.1076 63.9567 82.9176 63.0933 81.9842 62.02C81.0509 60.9 80.3742 59.64 79.9542 58.24C79.5342 56.7933 79.3476 55.2767 79.3942 53.69H106.484C106.578 51.4967 106.368 49.1867 105.854 46.76C105.388 44.3333 104.501 42.0933 103.194 40.04C101.934 37.9867 100.231 36.3067 98.0842 35C95.9842 33.6467 93.3242 32.97 90.1042 32.97C87.6309 32.97 85.3442 33.4367 83.2442 34.37C81.1909 35.3033 79.3942 36.61 77.8542 38.29C76.3609 39.97 75.1942 41.9533 74.3542 44.24C73.5142 46.5267 73.0942 49.0467 73.0942 51.8C73.1876 54.5533 73.5842 57.0967 74.2842 59.43C75.0309 61.7633 76.1276 63.77 77.5742 65.45C79.0209 67.13 80.7942 68.4367 82.8942 69.37C85.0409 70.3033 87.5609 70.77 90.4542 70.77C94.5609 70.77 97.9676 69.7433 100.674 67.69C103.381 65.6367 105.131 62.58 105.924 58.52ZM116.292 58.59H110.342C110.435 60.83 110.902 62.7433 111.742 64.33C112.582 65.87 113.702 67.13 115.102 68.11C116.502 69.0433 118.112 69.72 119.932 70.14C121.752 70.56 123.665 70.77 125.672 70.77C127.492 70.77 129.312 70.5833 131.132 70.21C132.999 69.8833 134.655 69.2767 136.102 68.39C137.595 67.5033 138.785 66.3367 139.672 64.89C140.605 63.4433 141.072 61.6233 141.072 59.43C141.072 57.7033 140.722 56.2567 140.022 55.09C139.369 53.9233 138.482 52.9667 137.362 52.22C136.289 51.4267 135.029 50.7967 133.582 50.33C132.182 49.8633 130.735 49.4667 129.242 49.14C127.842 48.8133 126.442 48.51 125.042 48.23C123.642 47.9033 122.382 47.53 121.262 47.11C120.142 46.6433 119.209 46.0833 118.462 45.43C117.762 44.73 117.412 43.8667 117.412 42.84C117.412 41.9067 117.645 41.16 118.112 40.6C118.579 39.9933 119.185 39.5267 119.932 39.2C120.679 38.8267 121.495 38.57 122.382 38.43C123.315 38.29 124.225 38.22 125.112 38.22C126.092 38.22 127.049 38.3367 127.982 38.57C128.962 38.7567 129.849 39.0833 130.642 39.55C131.435 40.0167 132.089 40.6467 132.602 41.44C133.115 42.1867 133.419 43.1433 133.512 44.31H139.462C139.322 42.1167 138.855 40.2967 138.062 38.85C137.269 37.3567 136.195 36.19 134.842 35.35C133.535 34.4633 132.019 33.8567 130.292 33.53C128.565 33.1567 126.675 32.97 124.622 32.97C123.035 32.97 121.425 33.18 119.792 33.6C118.205 33.9733 116.759 34.58 115.452 35.42C114.192 36.2133 113.142 37.2633 112.302 38.57C111.509 39.8767 111.112 41.44 111.112 43.26C111.112 45.5933 111.695 47.4133 112.862 48.72C114.029 50.0267 115.475 51.0533 117.202 51.8C118.975 52.5 120.889 53.06 122.942 53.48C124.995 53.8533 126.885 54.2967 128.612 54.81C130.385 55.2767 131.855 55.9067 133.022 56.7C134.189 57.4933 134.772 58.66 134.772 60.2C134.772 61.32 134.492 62.2533 133.932 63C133.372 63.7 132.649 64.2367 131.762 64.61C130.922 64.9833 129.989 65.24 128.962 65.38C127.935 65.52 126.955 65.59 126.022 65.59C124.809 65.59 123.619 65.4733 122.452 65.24C121.332 65.0067 120.305 64.6333 119.372 64.12C118.485 63.56 117.762 62.8367 117.202 61.95C116.642 61.0167 116.339 59.8967 116.292 58.59ZM155.912 33.81V22.96H149.962V33.81H143.802V39.06H149.962V62.09C149.962 63.77 150.125 65.1233 150.452 66.15C150.779 67.1767 151.269 67.97 151.922 68.53C152.622 69.09 153.509 69.4867 154.582 69.72C155.702 69.9067 157.032 70 158.572 70H163.122V64.75H160.392C159.459 64.75 158.689 64.7267 158.082 64.68C157.522 64.5867 157.079 64.4233 156.752 64.19C156.425 63.9567 156.192 63.63 156.052 63.21C155.959 62.79 155.912 62.23 155.912 61.53V39.06H163.122V33.81H155.912ZM174.072 51.94C174.072 49.7467 174.352 47.81 174.912 46.13C175.519 44.4033 176.335 42.9567 177.362 41.79C178.389 40.6233 179.579 39.7367 180.932 39.13C182.332 38.5233 183.802 38.22 185.342 38.22C186.882 38.22 188.329 38.5233 189.682 39.13C191.082 39.7367 192.295 40.6233 193.322 41.79C194.349 42.9567 195.142 44.4033 195.702 46.13C196.309 47.81 196.612 49.7467 196.612 51.94C196.612 54.1333 196.309 56.0933 195.702 57.82C195.142 59.5 194.349 60.9233 193.322 62.09C192.295 63.21 191.082 64.0733 189.682 64.68C188.329 65.2867 186.882 65.59 185.342 65.59C183.802 65.59 182.332 65.2867 180.932 64.68C179.579 64.0733 178.389 63.21 177.362 62.09C176.335 60.9233 175.519 59.5 174.912 57.82C174.352 56.0933 174.072 54.1333 174.072 51.94ZM167.772 51.94C167.772 54.6 168.145 57.0733 168.892 59.36C169.639 61.6467 170.759 63.6533 172.252 65.38C173.745 67.06 175.589 68.39 177.782 69.37C179.975 70.3033 182.495 70.77 185.342 70.77C188.235 70.77 190.755 70.3033 192.902 69.37C195.095 68.39 196.939 67.06 198.432 65.38C199.925 63.6533 201.045 61.6467 201.792 59.36C202.539 57.0733 202.912 54.6 202.912 51.94C202.912 49.28 202.539 46.8067 201.792 44.52C201.045 42.1867 199.925 40.18 198.432 38.5C196.939 36.7733 195.095 35.42 192.902 34.44C190.755 33.46 188.235 32.97 185.342 32.97C182.495 32.97 179.975 33.46 177.782 34.44C175.589 35.42 173.745 36.7733 172.252 38.5C170.759 40.18 169.639 42.1867 168.892 44.52C168.145 46.8067 167.772 49.28 167.772 51.94Z" fill="black"/>
</svg>
