<svg width="242" height="59" viewBox="0 0 242 59" fill="none" xmlns="http://www.w3.org/2000/svg">
<path d="M90.9373 29.8015C90.9373 22.4045 88.8282 18.6069 84.6095 18.3986C82.9337 18.318 81.2599 18.5931 79.698 19.2058C78.4255 19.6614 77.5691 20.112 77.1185 20.5672V38.2236C79.8168 39.9167 82.2134 40.7041 84.3027 40.5806C88.7241 40.288 90.9373 36.6982 90.9373 29.8015V29.8015ZM96.1409 30.1083C96.1409 33.8663 95.2596 36.9857 93.4873 39.4661C91.5113 42.2737 88.7733 43.7194 85.2734 43.7986C82.634 43.8824 79.9159 43.056 77.1185 41.3228V57.3695L72.593 55.7557V20.1369C73.3357 19.2256 74.2912 18.4433 75.4498 17.7799C78.1436 16.2103 81.4159 15.4031 85.2684 15.3635L85.3324 15.428C88.8526 15.3833 91.5662 16.829 93.4726 19.7605C95.25 22.4487 96.1409 25.8947 96.1409 30.1083V30.1083ZM123.798 40.6395C123.798 45.6801 123.293 49.1704 122.284 51.1113C121.269 53.0523 119.337 54.6021 116.486 55.7557C114.173 56.6665 111.673 57.1617 108.989 57.2461L108.242 54.3943C110.97 54.0225 112.891 53.6512 114.005 53.2798C116.199 52.5372 117.703 51.3988 118.531 49.8734C119.194 48.6309 119.521 46.2592 119.521 42.7486V41.5701C116.426 42.9767 113.183 43.6747 109.792 43.6747C107.564 43.6747 105.598 42.9767 103.904 41.5707C102.003 40.0406 101.052 38.0997 101.052 35.7478V16.9133L105.578 15.364V34.3214C105.578 36.3467 106.232 37.9067 107.539 39.0008C108.846 40.095 110.539 40.6197 112.614 40.5806C114.688 40.5354 116.911 39.7333 119.273 38.1642V16.0467H123.798V40.6395ZM141.464 43.5507C140.969 43.5927 140.472 43.6142 139.974 43.6152C137.414 43.6152 135.419 43.0062 133.993 41.7835C132.572 40.5603 131.859 38.8718 131.859 36.718V18.8934H128.76V16.0467H131.859V8.48664L136.38 6.87739V16.0467H141.464V18.8939H136.38V36.5941C136.38 38.2922 136.835 39.4956 137.746 40.1986C138.528 40.7777 139.771 41.1094 141.464 41.1937V43.5507ZM168.865 43.1794H164.339V25.7119C164.339 23.934 163.923 22.4045 163.096 21.1269C162.141 19.6813 160.814 18.9579 159.111 18.9579C157.036 18.9579 154.442 20.0526 151.327 22.2409V43.1794H146.802V1.42587L151.328 0V19.0178C154.219 16.9133 157.378 15.8583 160.809 15.8583C163.206 15.8583 165.146 16.666 166.632 18.2752C168.122 19.8839 168.865 21.8894 168.865 24.2855V43.1794ZM192.918 29.0883C192.918 26.2462 192.378 23.8994 191.303 22.0428C190.026 19.7803 188.041 18.5871 185.357 18.4631C180.396 18.7501 177.92 22.3054 177.92 29.1183C177.92 32.2423 178.435 34.8517 179.475 36.9461C180.802 39.6145 182.792 40.9316 185.446 40.8869C190.427 40.8473 192.918 36.9161 192.918 29.0883V29.0883ZM197.874 29.1183C197.874 33.1633 196.839 36.5301 194.774 39.2188C192.502 42.229 189.362 43.7392 185.357 43.7392C181.386 43.7392 178.292 42.229 176.059 39.2182C174.033 36.5301 173.024 33.1633 173.024 29.1183C173.024 25.3156 174.118 22.117 176.306 19.5126C178.618 16.7498 181.659 15.3635 185.416 15.3635C189.174 15.3635 192.234 16.7503 194.591 19.5126C196.78 22.117 197.874 25.3156 197.874 29.1183ZM223.818 43.1794H219.293V24.7213C219.293 22.6966 218.683 21.1168 217.466 19.9784C216.248 18.8441 214.624 18.2945 212.599 18.3392C210.45 18.3788 208.405 19.0819 206.464 20.4437V43.1794H201.939V19.8839C204.543 17.9877 206.94 16.7498 209.128 16.1707C211.192 15.6312 213.014 15.3635 214.584 15.3635C215.658 15.3635 216.669 15.4677 217.619 15.6754C219.397 16.0869 220.842 16.8488 221.957 17.9679C223.199 19.2058 223.818 20.6911 223.818 22.4289V43.1794Z" fill="black"/>
<path d="M27.8969 1.59323C25.5689 1.6039 23.3455 1.80251 21.3888 2.14895C15.6249 3.16692 14.5785 5.29835 14.5785 9.22851V14.4194H28.1987V16.1496H9.46732C5.50872 16.1496 2.04285 18.5289 0.95884 23.0549C-0.291779 28.2428 -0.347148 31.4801 0.95884 36.8971C1.92703 40.9293 4.2388 43.8024 8.1974 43.8024H12.8804V37.5798C12.8804 33.0843 16.7699 29.1185 21.3888 29.1185H34.9923C38.7797 29.1185 41.8026 26.0006 41.8026 22.1975V9.22902C41.8026 5.53761 38.6887 2.7646 34.9928 2.14895C32.6531 1.75933 30.2255 1.58256 27.8969 1.59323V1.59323ZM20.5314 5.76822C21.9385 5.76822 23.087 6.93554 23.087 8.37157C23.087 9.80201 21.9385 10.9587 20.5319 10.9587C19.1197 10.9587 17.9758 9.80201 17.9758 8.37157C17.9758 6.93554 19.1197 5.76822 20.5314 5.76822V5.76822Z" fill="url(#paint0_linear)"/>
<path d="M43.5013 16.1494V22.1973C43.5013 26.8864 39.526 30.8328 34.9929 30.8328H21.389C17.6625 30.8328 14.5786 34.0223 14.5786 37.7538V50.7233C14.5786 54.4142 17.7885 56.5853 21.389 57.6444C25.7001 58.9118 29.8344 59.1409 34.9924 57.6444C38.4217 56.6513 41.8027 54.6535 41.8027 50.7233V45.5324H28.1988V43.8022H48.6125C52.5711 43.8022 54.0463 41.0409 55.4229 36.8969C56.8447 32.6305 56.7842 28.5276 55.4229 23.0547C54.4445 19.1144 52.5762 16.1494 48.6125 16.1494H43.5013ZM35.8498 48.9927C37.262 48.9927 38.4059 50.1498 38.4059 51.5802C38.4059 53.0163 37.262 54.1836 35.8498 54.1836C34.4427 54.1836 33.2947 53.0163 33.2947 51.5802C33.2947 50.1498 34.4427 48.9927 35.8498 48.9927Z" fill="url(#paint1_linear)"/>
<path d="M232.631 12.0122H233.424V7.03618H235.304V6.44287H230.751V7.03618H232.631V12.0122ZM236.007 12.0122H236.685V7.46694L238.156 12.0112H238.911L240.444 7.48218V12.0117H241.184V6.44287H240.206L238.53 11.2142L237.101 6.44287H236.007V12.0122" fill="black"/>
<defs>
<linearGradient id="paint0_linear" x1="-0.0001397" y1="1.59295" x2="31.4057" y2="28.3552" gradientUnits="userSpaceOnUse">
<stop/>
<stop offset="1"/>
</linearGradient>
<linearGradient id="paint1_linear" x1="35.5225" y1="51.144" x2="24.2551" y2="35.3551" gradientUnits="userSpaceOnUse">
<stop/>
<stop offset="1"/>
</linearGradient>
</defs>
</svg>
