<svg width="303" height="102" viewBox="0 0 303 102" fill="none" xmlns="http://www.w3.org/2000/svg">
<path d="M71.9086 29.7791L64.5514 37.1363C76.8134 49.3983 76.8134 69.3678 64.5514 81.6298C52.2894 93.8918 32.3199 93.8918 20.0579 81.6298C7.79588 69.3678 7.79588 49.3983 20.0579 37.1363L39.6771 17.5171L42.1294 14.7144V0L12.3503 29.7791C8.43743 33.6526 5.33125 38.2633 3.21137 43.3446C1.0915 48.426 0 53.8772 0 59.3831C0 64.8889 1.0915 70.3401 3.21137 75.4215C5.33125 80.5029 8.43743 85.1136 12.3503 88.987C16.2238 92.8999 20.8345 96.0061 25.9159 98.126C30.9972 100.246 36.4484 101.337 41.9543 101.337C47.4601 101.337 52.9113 100.246 57.9927 98.126C63.0741 96.0061 67.6848 92.8999 71.5582 88.987C88.3747 72.5209 88.3747 45.8949 71.9086 29.7791Z" fill="black"/>
<path d="M57.1943 27.6773C60.2902 27.6773 62.7998 25.1676 62.7998 22.0718C62.7998 18.976 60.2902 16.4663 57.1943 16.4663C54.0985 16.4663 51.5889 18.976 51.5889 22.0718C51.5889 25.1676 54.0985 27.6773 57.1943 27.6773Z" fill="black"/>
<path d="M116.97 56.5082H111.21V71.3213H106.911V29.2721H117.422C128.572 29.2721 133.827 34.6859 133.827 42.5187C133.827 51.7567 127.296 56.3757 116.944 56.5341L116.97 56.5082ZM117.258 33.2547H111.072V52.5284L117.125 52.3701C125.09 52.2117 129.393 49.0239 129.393 42.4927C129.393 36.6009 125.252 33.2547 117.286 33.2547H117.258ZM153.288 71.16L150.74 77.8495C147.872 85.3367 144.98 87.5655 140.704 87.5655C138.314 87.5655 136.563 86.932 134.651 86.1315L135.924 82.3101C137.358 83.1078 138.947 83.5829 140.704 83.5829C143.094 83.5829 144.845 82.3101 147.074 76.3837L149.147 70.9699L137.202 40.549H141.666L151.382 66.0342L160.942 40.549H165.242L153.288 71.16ZM179.565 33.4131V71.4825H175.266V33.4131H160.453V29.2721H194.376V33.2547H179.562L179.565 33.4131ZM206.482 72.2744C197.88 72.2744 191.507 65.9046 191.507 56.0273C191.507 46.1499 198.038 39.6217 206.77 39.6217C215.371 39.6217 221.583 45.9916 221.583 55.8689C221.583 65.7462 215.052 72.2744 206.45 72.2744H206.482ZM206.64 43.4776C200.109 43.4776 195.812 48.733 195.812 55.9005C195.812 63.3877 200.276 68.4848 206.801 68.4848C213.327 68.4848 217.629 63.2293 217.629 56.0618C217.629 48.5746 213.165 43.4776 206.64 43.4776V43.4776ZM232.287 71.4796H228.146V40.5806L232.287 39.783V46.3141C234.36 42.3315 237.384 39.783 241.366 39.783C243.263 39.7986 245.125 40.2918 246.78 41.217L245.668 45.1968C244.396 44.3991 242.645 43.9239 240.888 43.9239C237.703 43.9239 234.677 46.3141 232.128 51.8892V71.4796H232.287ZM263.186 72.2744C253.948 72.2744 248.053 65.5849 248.053 56.0273C248.053 46.3112 254.423 39.6217 263.186 39.6217C267.007 39.6217 270.195 40.5778 272.902 42.3286L271.787 46.1499C269.397 44.5575 266.532 43.6014 263.186 43.6014C256.496 43.6014 252.358 48.5401 252.358 55.8689C252.358 63.3561 256.821 68.2918 263.347 68.2918C266.398 68.2778 269.382 67.3937 271.948 65.7433L272.746 69.5646C270.039 71.3155 266.693 72.2715 263.186 72.2715V72.2744ZM298.704 71.4796V51.5695C298.704 46.1557 296.475 43.7944 292.172 43.7944C288.668 43.7944 285.163 45.5452 282.612 48.2579V71.6697H278.471V26.1131L282.612 25.3154V44.7475C285.797 41.5626 289.938 39.8089 293.284 39.8089C299.337 39.8089 303 43.6302 303 50.3197V71.5027L298.704 71.4796Z" fill="#252525"/>
</svg>
