<svg width="303" height="100" viewBox="0 0 303 100" fill="none" xmlns="http://www.w3.org/2000/svg">
<path fill-rule="evenodd" clip-rule="evenodd" d="M151.43 86.6197C115.936 86.6197 87.1616 67.3489 87.1616 43.5773C87.1616 19.8054 115.936 0.534668 151.43 0.534668C186.925 0.534668 215.699 19.8054 215.699 43.5773C215.699 67.3489 186.925 86.6197 151.43 86.6197ZM161.268 17.3628C134.289 17.3628 112.418 30.5372 112.418 46.7885C112.418 63.0398 134.289 76.2142 161.268 76.2142C188.246 76.2142 208.156 67.2072 208.156 46.7885C208.156 26.3762 188.246 17.3628 161.268 17.3628Z" fill="url(#paint0_linear)"/>
<path fill-rule="evenodd" clip-rule="evenodd" d="M185.039 67.2015C185.039 67.2015 188.929 68.3753 191.189 69.5188C191.973 69.9156 193.33 70.7074 194.309 71.7469C195.267 72.7651 195.735 73.7968 195.735 73.7968L211.064 99.6435L186.287 99.6546L174.701 77.8967C174.701 77.8967 172.328 73.8202 170.868 72.6382C169.65 71.6523 169.131 71.3013 167.927 71.3013C167.089 71.3013 162.04 71.3013 162.04 71.3013L162.045 99.6389L140.12 99.6482V27.2617H184.148C184.148 27.2617 204.202 27.6234 204.202 46.7024C204.202 65.7813 185.039 67.2015 185.039 67.2015ZM175.503 42.9633L162.23 42.9548L162.223 55.2631L175.503 55.2589C175.503 55.2589 181.653 55.2398 181.653 48.9977C181.653 42.6302 175.503 42.9633 175.503 42.9633Z" fill="url(#paint1_linear)"/>
<defs>
<linearGradient id="paint0_linear" x1="87.1616" y1="0.534668" x2="166.764" y2="119.393" gradientUnits="userSpaceOnUse">
<stop stop-color="#616161"/>
<stop offset="1" stop-color="#616161"/>
</linearGradient>
<linearGradient id="paint1_linear" x1="140.12" y1="27.2617" x2="212.498" y2="98.192" gradientUnits="userSpaceOnUse">
<stop stop-color="#231F20"/>
<stop offset="1" stop-color="#231F20"/>
</linearGradient>
</defs>
</svg>
