<svg width="561" height="120" viewBox="0 0 561 120" fill="none" xmlns="http://www.w3.org/2000/svg">
<path d="M134.749 60.0137C134.749 51.0872 123.571 42.6276 106.432 37.3816C110.387 19.913 108.629 6.01511 100.883 1.56557C99.0982 0.521858 97.0107 0.0274658 94.731 0.0274658V6.15244C95.9945 6.15244 97.0107 6.39963 97.8622 6.86656C101.598 9.00893 103.218 17.1664 101.955 27.6585C101.653 30.2403 101.158 32.9595 100.554 35.7336C95.1705 34.4152 89.2927 33.3989 83.1128 32.7398C79.4049 27.6585 75.5596 23.0442 71.6869 19.0066C80.6409 10.6844 89.0455 6.12497 94.7585 6.12497V0C87.2053 0 77.3175 5.38338 67.3197 14.7219C57.322 5.43832 47.4342 0.109865 39.881 0.109865V6.23484C45.5665 6.23484 53.9986 10.7668 62.9526 19.0341C59.1073 23.0716 55.2621 27.6585 51.6091 32.7398C45.4017 33.3989 39.5239 34.4152 34.1405 35.761C33.5088 33.0144 33.0419 30.3502 32.7123 27.7958C31.4214 17.3037 33.0144 9.14626 36.7224 6.97642C37.5463 6.48203 38.6175 6.2623 39.881 6.2623V0.137331C37.5738 0.137331 35.4864 0.631723 33.6736 1.67544C25.9556 6.12497 24.2252 19.9954 28.2078 37.409C11.1238 42.6825 0 51.1147 0 60.0137C0 68.9403 11.1788 77.3999 28.3177 82.6459C24.3626 100.114 26.1204 114.012 33.8659 118.462C35.6512 119.506 37.7386 120 40.0458 120C47.599 120 57.4868 114.617 67.4845 105.278C77.4823 114.562 87.3701 119.89 94.9233 119.89C97.2305 119.89 99.3179 119.396 101.131 118.352C108.849 113.902 110.579 100.032 106.596 82.6184C123.626 77.3724 134.749 68.9128 134.749 60.0137ZM98.9883 41.6937C97.9721 45.2369 96.7086 48.8899 95.2804 52.5429C94.1543 50.3456 92.9732 48.1483 91.6823 45.951C90.4189 43.7537 89.073 41.6113 87.7272 39.5239C91.6274 40.1007 95.3902 40.8148 98.9883 41.6937ZM86.4088 70.9453C84.2664 74.6532 82.0691 78.1689 79.7894 81.4374C75.697 81.7945 71.5495 81.9867 67.3747 81.9867C63.2273 81.9867 59.0799 81.7945 55.0149 81.4649C52.7352 78.1964 50.5104 74.7082 48.368 71.0277C46.2806 67.4296 44.3854 63.7766 42.6551 60.0961C44.358 56.4156 46.2806 52.7352 48.3406 49.1371C50.4829 45.4292 52.6802 41.9135 54.9599 38.645C59.0524 38.2879 63.1998 38.0957 67.3747 38.0957C71.5221 38.0957 75.6695 38.2879 79.7345 38.6175C82.0142 41.886 84.239 45.3742 86.3813 49.0547C88.4688 52.6528 90.3639 56.3058 92.0943 59.9863C90.3639 63.6667 88.4687 67.3472 86.4088 70.9453ZM95.2804 67.3747C96.7635 71.0552 98.027 74.7356 99.0707 78.3062C95.4726 79.1852 91.6823 79.9268 87.7546 80.5035C89.1005 78.3886 90.4463 76.2188 91.7098 73.994C92.9732 71.7967 94.1543 69.572 95.2804 67.3747ZM67.4296 96.6812C64.8753 94.0444 62.3209 91.1055 59.794 87.892C62.266 88.0018 64.7929 88.0842 67.3472 88.0842C69.929 88.0842 72.4834 88.0293 74.9828 87.892C72.5109 91.1055 69.9565 94.0444 67.4296 96.6812ZM46.9947 80.5035C43.0945 79.9268 39.3316 79.2126 35.7336 78.3337C36.7498 74.7906 38.0133 71.1376 39.4415 67.4845C40.5676 69.6818 41.7487 71.8791 43.0396 74.0764C44.3305 76.2737 45.6489 78.4161 46.9947 80.5035ZM67.2923 23.3463C69.8466 25.9831 72.401 28.9219 74.9279 32.1355C72.4559 32.0256 69.929 31.9432 67.3747 31.9432C64.7929 31.9432 62.2385 31.9982 59.7391 32.1355C62.211 28.9219 64.7654 25.9831 67.2923 23.3463ZM46.9673 39.5239C45.6214 41.6388 44.2756 43.8087 43.0121 46.0334C41.7487 48.2307 40.5676 50.428 39.4415 52.6253C37.9583 48.9448 36.6949 45.2644 35.6512 41.6937C39.2493 40.8423 43.0396 40.1007 46.9673 39.5239ZM22.1103 73.9116C12.3873 69.7642 6.0975 64.3259 6.0975 60.0137C6.0975 55.7015 12.3873 50.2357 22.1103 46.1158C24.4724 45.0996 27.0542 44.1932 29.7185 43.3417C31.284 48.7251 33.344 54.3282 35.8984 60.0687C33.3715 65.7816 31.339 71.3573 29.8009 76.7132C27.0817 75.8617 24.4999 74.9279 22.1103 73.9116ZM36.8872 113.161C33.1517 111.019 31.5312 102.861 32.7947 92.369C33.0968 89.7871 33.5912 87.068 34.1955 84.2939C39.5789 85.6123 45.4566 86.6285 51.6365 87.2877C55.3445 92.369 59.1897 96.9833 63.0625 101.021C54.1085 109.343 45.7038 113.902 39.9908 113.902C38.7549 113.875 37.7111 113.628 36.8872 113.161ZM102.037 92.2316C103.328 102.724 101.735 110.881 98.027 113.051C97.203 113.545 96.1318 113.765 94.8684 113.765C89.1829 113.765 80.7507 109.233 71.7968 100.966C75.642 96.9284 79.4873 92.3415 83.1403 87.2602C89.3477 86.6011 95.2254 85.5848 100.609 84.239C101.241 87.013 101.735 89.6773 102.037 92.2316ZM112.612 73.9116C110.249 74.9279 107.668 75.8343 105.003 76.6857C103.438 71.3024 101.378 65.6992 98.8235 59.9588C101.35 54.2458 103.383 48.6702 104.921 43.3143C107.64 44.1657 110.222 45.0996 112.639 46.1158C122.362 50.2632 128.652 55.7015 128.652 60.0137C128.624 64.3259 122.335 69.7917 112.612 73.9116Z" fill="black"/>
<path d="M67.3472 72.5661C74.2795 72.5661 79.8993 66.9463 79.8993 60.014C79.8993 53.0817 74.2795 47.4619 67.3472 47.4619C60.4149 47.4619 54.7952 53.0817 54.7952 60.014C54.7952 66.9463 60.4149 72.5661 67.3472 72.5661Z" fill="black"/>
<path d="M181.345 65.8252H171.706V85H163.059V35.2344H180.559C186.301 35.2344 190.733 36.5218 193.854 39.0967C196.976 41.6715 198.537 45.3971 198.537 50.2734C198.537 53.6003 197.728 56.3916 196.11 58.6475C194.515 60.8805 192.282 62.6009 189.411 63.8086L200.588 84.5557V85H191.325L181.345 65.8252ZM171.706 58.8867H180.593C183.509 58.8867 185.788 58.1576 187.429 56.6992C189.069 55.2181 189.89 53.2015 189.89 50.6494C189.89 47.9834 189.126 45.9212 187.6 44.4629C186.096 43.0046 183.84 42.2526 180.832 42.207H171.706V58.8867ZM222.224 85.6836C216.96 85.6836 212.688 84.0316 209.406 80.7275C206.148 77.4007 204.519 72.9801 204.519 67.4658V66.4404C204.519 62.749 205.225 59.4564 206.638 56.5625C208.073 53.6458 210.078 51.3786 212.653 49.7607C215.228 48.1429 218.099 47.334 221.267 47.334C226.302 47.334 230.188 48.9404 232.922 52.1533C235.679 55.3662 237.058 59.9121 237.058 65.791V69.1406H212.893C213.143 72.194 214.157 74.6094 215.935 76.3867C217.735 78.1641 219.991 79.0527 222.702 79.0527C226.507 79.0527 229.606 77.5146 231.999 74.4385L236.477 78.7109C234.995 80.9212 233.013 82.6416 230.529 83.8721C228.068 85.0798 225.3 85.6836 222.224 85.6836ZM221.232 53.999C218.954 53.999 217.108 54.7965 215.695 56.3916C214.305 57.9867 213.417 60.2083 213.029 63.0566H228.854V62.4414C228.672 59.6615 227.932 57.5651 226.633 56.1523C225.334 54.7168 223.534 53.999 221.232 53.999ZM265.632 85C265.267 84.2936 264.948 83.1429 264.675 81.5479C262.032 84.305 258.796 85.6836 254.968 85.6836C251.254 85.6836 248.223 84.624 245.876 82.5049C243.529 80.3857 242.355 77.7653 242.355 74.6436C242.355 70.7015 243.814 67.6823 246.73 65.5859C249.67 63.4668 253.863 62.4072 259.309 62.4072H264.401V59.9805C264.401 58.0664 263.866 56.5397 262.795 55.4004C261.724 54.2383 260.095 53.6572 257.907 53.6572C256.016 53.6572 254.466 54.1357 253.259 55.0928C252.051 56.027 251.447 57.2233 251.447 58.6816H243.142C243.142 56.6536 243.814 54.7624 245.158 53.0078C246.503 51.2305 248.326 49.8405 250.627 48.8379C252.951 47.8353 255.537 47.334 258.386 47.334C262.715 47.334 266.167 48.4277 268.742 50.6152C271.317 52.7799 272.639 55.8333 272.707 59.7754V76.4551C272.707 79.7819 273.174 82.4365 274.108 84.4189V85H265.632ZM256.506 79.0186C258.146 79.0186 259.685 78.6198 261.12 77.8223C262.578 77.0247 263.672 75.9538 264.401 74.6094V67.6367H259.924C256.848 67.6367 254.535 68.1722 252.985 69.2432C251.436 70.3141 250.661 71.8294 250.661 73.7891C250.661 75.3841 251.185 76.6602 252.233 77.6172C253.304 78.5514 254.729 79.0186 256.506 79.0186ZM296.599 79.0527C298.672 79.0527 300.393 78.4489 301.76 77.2412C303.127 76.0335 303.856 74.541 303.947 72.7637H311.774C311.683 75.0651 310.965 77.2184 309.621 79.2236C308.277 81.2061 306.454 82.7783 304.152 83.9404C301.851 85.1025 299.367 85.6836 296.701 85.6836C291.529 85.6836 287.427 84.0088 284.396 80.6592C281.366 77.3096 279.851 72.6839 279.851 66.7822V65.9277C279.851 60.2995 281.354 55.7992 284.362 52.4268C287.37 49.0316 291.472 47.334 296.667 47.334C301.065 47.334 304.642 48.6214 307.399 51.1963C310.179 53.7484 311.638 57.1094 311.774 61.2793H303.947C303.856 59.1602 303.127 57.417 301.76 56.0498C300.415 54.6826 298.695 53.999 296.599 53.999C293.91 53.999 291.836 54.9788 290.378 56.9385C288.92 58.8753 288.179 61.8262 288.156 65.791V67.124C288.156 71.1344 288.874 74.1309 290.31 76.1133C291.768 78.0729 293.864 79.0527 296.599 79.0527ZM328.454 39.0283V48.0176H334.982V54.1699H328.454V74.8145C328.454 76.2272 328.728 77.2526 329.274 77.8906C329.844 78.5059 330.847 78.8135 332.282 78.8135C333.239 78.8135 334.208 78.6995 335.188 78.4717V84.8975C333.296 85.4215 331.473 85.6836 329.719 85.6836C323.339 85.6836 320.148 82.1631 320.148 75.1221V54.1699H314.064V48.0176H320.148V39.0283H328.454ZM399.069 85H390.422L368.239 49.6924V85H359.592V35.2344H368.239L390.49 70.6787V35.2344H399.069V85ZM430.583 85C430.218 84.2936 429.899 83.1429 429.626 81.5479C426.983 84.305 423.747 85.6836 419.919 85.6836C416.205 85.6836 413.174 84.624 410.827 82.5049C408.48 80.3857 407.307 77.7653 407.307 74.6436C407.307 70.7015 408.765 67.6823 411.682 65.5859C414.621 63.4668 418.814 62.4072 424.26 62.4072H429.353V59.9805C429.353 58.0664 428.817 56.5397 427.746 55.4004C426.675 54.2383 425.046 53.6572 422.858 53.6572C420.967 53.6572 419.418 54.1357 418.21 55.0928C417.002 56.027 416.398 57.2233 416.398 58.6816H408.093C408.093 56.6536 408.765 54.7624 410.109 53.0078C411.454 51.2305 413.277 49.8405 415.578 48.8379C417.902 47.8353 420.489 47.334 423.337 47.334C427.666 47.334 431.118 48.4277 433.693 50.6152C436.268 52.7799 437.59 55.8333 437.658 59.7754V76.4551C437.658 79.7819 438.125 82.4365 439.06 84.4189V85H430.583ZM421.457 79.0186C423.098 79.0186 424.636 78.6198 426.071 77.8223C427.53 77.0247 428.623 75.9538 429.353 74.6094V67.6367H424.875C421.799 67.6367 419.486 68.1722 417.937 69.2432C416.387 70.3141 415.612 71.8294 415.612 73.7891C415.612 75.3841 416.136 76.6602 417.185 77.6172C418.256 78.5514 419.68 79.0186 421.457 79.0186ZM456.765 39.0283V48.0176H463.293V54.1699H456.765V74.8145C456.765 76.2272 457.038 77.2526 457.585 77.8906C458.155 78.5059 459.157 78.8135 460.593 78.8135C461.55 78.8135 462.518 78.6995 463.498 78.4717V84.8975C461.607 85.4215 459.784 85.6836 458.029 85.6836C451.649 85.6836 448.459 82.1631 448.459 75.1221V54.1699H442.375V48.0176H448.459V39.0283H456.765ZM478.503 85H470.197V48.0176H478.503V85ZM469.685 38.4131C469.685 37.137 470.083 36.0775 470.881 35.2344C471.701 34.3913 472.863 33.9697 474.367 33.9697C475.871 33.9697 477.033 34.3913 477.854 35.2344C478.674 36.0775 479.084 37.137 479.084 38.4131C479.084 39.6663 478.674 40.7145 477.854 41.5576C477.033 42.3779 475.871 42.7881 474.367 42.7881C472.863 42.7881 471.701 42.3779 470.881 41.5576C470.083 40.7145 469.685 39.6663 469.685 38.4131ZM500.617 74.4727L508.444 48.0176H517.023L504.206 85H496.994L484.074 48.0176H492.688L500.617 74.4727ZM538.044 85.6836C532.78 85.6836 528.508 84.0316 525.227 80.7275C521.968 77.4007 520.339 72.9801 520.339 67.4658V66.4404C520.339 62.749 521.045 59.4564 522.458 56.5625C523.894 53.6458 525.899 51.3786 528.474 49.7607C531.049 48.1429 533.92 47.334 537.087 47.334C542.123 47.334 546.008 48.9404 548.742 52.1533C551.499 55.3662 552.878 59.9121 552.878 65.791V69.1406H528.713C528.964 72.194 529.978 74.6094 531.755 76.3867C533.555 78.1641 535.811 79.0527 538.522 79.0527C542.328 79.0527 545.427 77.5146 547.819 74.4385L552.297 78.7109C550.816 80.9212 548.833 82.6416 546.35 83.8721C543.889 85.0798 541.12 85.6836 538.044 85.6836ZM537.053 53.999C534.774 53.999 532.928 54.7965 531.516 56.3916C530.126 57.9867 529.237 60.2083 528.85 63.0566H544.675V62.4414C544.493 59.6615 543.752 57.5651 542.453 56.1523C541.154 54.7168 539.354 53.999 537.053 53.999Z" fill="black"/>
</svg>
