<svg width="49" height="51" viewBox="0 0 49 51" fill="none" xmlns="http://www.w3.org/2000/svg">
<path d="M27.606 29.9338H24.1452C23.2079 29.9338 22.4607 29.2063 22.4607 28.2952H19C19 31.0284 21.3399 33.3028 24.1452 33.3028V35.9442H27.606V33.3028C30.4113 33.3028 32.7512 31.0284 32.7512 28.2952C32.7512 25.562 30.4113 23.2876 27.606 23.2876H24.1452C23.2079 23.2876 22.4607 22.5601 22.4607 21.649C22.4607 20.738 23.2079 20.0104 24.1452 20.0104H27.606C28.5432 20.0104 29.2905 20.738 29.2905 21.649H32.7512C32.7512 18.9158 30.4113 16.6414 27.606 16.6414V14H24.1452V16.6414C21.3399 16.6414 19 18.9158 19 21.649C19 24.3822 21.3399 26.6566 24.1452 26.6566H27.606C28.5432 26.6566 29.2905 27.3841 29.2905 28.2952C29.2905 29.2063 28.5432 29.9338 27.606 29.9338Z" fill="#FFDB3B"/>
<path d="M26.218 0L4.13612 12.7484V24.4021H0.734375L5.67641 32.877L10.6119 24.4021H7.2167V14.5312L26.218 3.55905L45.2193 14.5312V36.4688L26.218 47.4409L5.67641 35.584V39.1365L26.218 51L48.2999 38.2516V12.7484L26.218 0Z" fill="#FFDB3B"/>
</svg>
