<svg width="303" height="100" viewBox="0 0 303 100" fill="none" xmlns="http://www.w3.org/2000/svg">
<path d="M105.319 59.635C108.148 65.194 112.674 67.9334 119.016 67.9334C125.824 67.9334 128.252 64.3311 128.252 60.8091C128.252 58.3808 127.39 56.74 125.122 55.2501C122.849 53.6847 121.208 52.9822 117.139 51.4781C112.127 49.5921 109.232 48.1776 106.102 45.6834C102.971 43.0996 101.486 39.5539 101.486 34.9615C101.432 32.9349 101.841 30.9226 102.681 29.0778C103.522 27.2329 104.772 25.6041 106.337 24.3151C109.638 21.5757 113.617 20.2461 118.389 20.2461C125.824 20.2461 131.459 23.2212 135.217 29.0914L128.252 33.8865C126.14 30.6756 122.929 29.0301 118.544 29.0301C114.24 29.0301 111.109 31.4583 111.109 34.8248C111.109 37.0927 112.052 38.1913 113.381 39.5398C114.24 40.1669 116.432 41.1052 117.45 41.6521L120.279 42.746L123.486 44.0002C128.672 46.1125 132.331 48.3851 134.599 50.8086C136.867 53.2321 138.045 56.5231 138.045 60.5922C138.045 70.2201 131.393 76.7174 118.945 76.7174C108.85 76.7174 101.415 72.0024 97.9729 64.2698L105.319 59.635Z" fill="black"/>
<path d="M177.717 41.8685L171.942 47.8942C170.672 46.5084 169.123 45.408 167.397 44.6659C165.67 43.9238 163.806 43.5569 161.927 43.5895C160.315 43.5508 158.712 43.8435 157.217 44.4493C155.722 45.0551 154.368 45.9612 153.237 47.1115C151.024 49.5256 149.796 52.6817 149.796 55.9568C149.796 59.232 151.024 62.3881 153.237 64.8021C154.368 65.9525 155.722 66.8586 157.217 67.4644C158.712 68.0702 160.315 68.3629 161.927 68.3242C163.806 68.3568 165.67 67.9899 167.397 67.2478C169.123 66.5057 170.672 65.4053 171.942 64.0195L177.736 70.0452C173.493 74.5857 168.264 76.8536 161.927 76.8536C155.897 76.8536 150.809 74.8969 146.665 70.9033C142.52 66.9097 140.479 61.9024 140.479 55.9568C140.479 50.0113 142.515 45.0747 146.665 41.0858C150.814 37.0969 155.897 35.0601 161.927 35.0601C168.245 35.0601 173.488 37.328 177.717 41.8685Z" fill="black"/>
<path d="M196.402 51.7275C203.06 51.1051 205.417 50.2423 205.417 47.1917C205.417 44.7635 203.23 42.8869 198.845 42.8869C194.62 42.8869 191.098 44.6079 188.279 48.0498L182.489 43.118C186.322 37.7193 191.721 35.0601 198.689 35.0601C208.473 35.0601 214.579 39.775 214.579 47.8141V65.2595C214.579 67.9989 215.592 68.3148 217.879 68.3148H218.115V75.59C217.172 76.1417 215.687 76.4529 213.73 76.4529C211.618 76.4529 209.958 75.8258 208.723 74.5669C208.063 73.8226 207.58 72.9395 207.308 71.9831C204.569 75.1892 200.108 76.8348 193.922 76.8348C185.237 76.8348 179.367 72.0585 179.367 64.8587C179.344 56.815 184.742 52.7459 196.402 51.7275ZM195.309 68.8806C201.57 68.8806 205.403 66.0516 205.403 61.0537V56.6688C204.861 57.2177 204.19 57.6214 203.451 57.8428C201.65 58.4699 200.476 58.6255 196.718 59.0169C191.24 59.644 188.5 61.3744 188.5 64.1043C188.5 67.1502 191.004 68.8806 195.309 68.8806Z" fill="black"/>
<path d="M220.43 21.2031H229.822V62.8458C229.822 66.6791 231.077 68.3246 234.537 68.3246C235.491 68.3551 236.443 68.2487 237.366 68.0087V76.3825C235.906 76.7391 234.404 76.8977 232.901 76.854C224.608 76.854 220.458 72.6105 220.458 64.0953L220.43 21.2031Z" fill="black"/>
<path d="M256.674 51.7275C263.327 51.1051 265.675 50.2423 265.675 47.1917C265.675 44.7635 263.487 42.8869 259.102 42.8869C254.877 42.8869 251.355 44.6079 248.536 48.0498L242.746 43.118C246.579 37.7193 251.978 35.0601 258.947 35.0601C268.73 35.0601 274.836 39.775 274.836 47.8141V65.2595C274.836 67.9989 275.85 68.3148 278.136 68.3148H278.372V75.59C277.429 76.1417 275.944 76.4529 273.987 76.4529C271.875 76.4529 270.215 75.8258 268.98 74.5669C268.319 73.8237 267.835 72.9402 267.565 71.9831C264.826 75.1892 260.366 76.8348 254.18 76.8348C245.495 76.8348 239.625 72.0585 239.625 64.8587C239.615 56.815 245.023 52.7459 256.674 51.7275ZM255.58 68.8806C261.842 68.8806 265.675 66.0516 265.675 61.0537V56.6688C265.132 57.2187 264.459 57.6225 263.718 57.8428C261.922 58.4699 260.748 58.6255 256.99 59.0169C251.511 59.644 248.772 61.3744 248.772 64.1043C248.795 67.1502 251.275 68.8806 255.58 68.8806Z" fill="black"/>
<path fill-rule="evenodd" clip-rule="evenodd" d="M25.093 37.2108C25.9653 38.4131 33.3207 40.681 44.2924 43.0432C55.2642 45.1461 66.6744 53.4491 75.548 50.8889C81.5502 49.1538 88.0615 33.6934 88.0615 31.3972V31.1614C88.0615 29.5583 86.8592 28.2712 84.8176 27.2009C76.4486 22.9244 74.8643 21.3496 71.7619 22.203C55.6555 26.6492 27.2195 24.3766 25.093 37.2108Z" fill="black"/>
<path fill-rule="evenodd" clip-rule="evenodd" d="M25.093 68.603C25.9653 69.8241 33.3207 72.0732 44.2924 74.4401C56.5513 76.675 67.2119 83.9596 76.0902 81.3947C82.0924 79.6596 88.0615 65.0903 88.0615 62.7894V62.5631C88.0615 60.9647 86.8592 59.6728 84.8176 58.6072C78.4336 55.2124 69.9985 51.4734 66.9007 52.3268C50.7661 56.7636 29.1998 57.7396 25.093 68.603Z" fill="black"/>
<path fill-rule="evenodd" clip-rule="evenodd" d="M25.0036 43.958V44.1843C24.9988 44.109 24.9988 44.0334 25.0036 43.958V43.958Z" fill="#555555"/>
<path fill-rule="evenodd" clip-rule="evenodd" d="M76.0671 6.06818C61.2337 10.3541 37.7013 12.7729 25.0227 12.7729V36.9843C25.0267 37.0676 25.0582 37.1471 25.1123 37.2106C33.7643 37.2106 60.4746 34.3816 76.5904 29.9495C79.4011 29.2342 82.1569 28.3187 84.8369 27.2101C86.8078 26.3237 88.0808 25.3902 88.0808 24.4189V0C88.062 2.30091 82.0692 4.33778 76.0671 6.06818Z" fill="#292929"/>
<path fill-rule="evenodd" clip-rule="evenodd" d="M76.0671 37.4651C67.1888 40.0254 55.208 41.9302 44.2928 43.043C36.9657 43.7926 30.1196 44.184 25.0227 44.184V68.3765C25.0267 68.4598 25.0582 68.5394 25.1123 68.6028C33.7643 68.6028 60.4746 65.7739 76.5904 61.3465C79.4004 60.629 82.1561 59.7136 84.8369 58.6071C86.8078 57.716 88.0808 56.7871 88.0808 55.8158V31.397C88.062 33.6932 82.0692 35.73 76.0671 37.4651Z" fill="#292929"/>
<path fill-rule="evenodd" clip-rule="evenodd" d="M76.0671 68.8813C67.1888 71.4415 55.208 73.3417 44.2929 74.4591C36.9564 75.2088 30.1008 75.6001 25.0039 75.6001V100C33.5663 100 60.4134 97.1947 76.5716 92.7438C82.5266 91.103 88.062 89.2359 88.062 87.2084V62.7896C88.062 65.1093 82.0693 67.1273 76.0671 68.8813Z" fill="#292929"/>
</svg>
