<svg width="303" height="100" viewBox="0 0 303 100" fill="none" xmlns="http://www.w3.org/2000/svg">
<g clip-path="url(#clip0)">
<path d="M201.226 84.9752C223.872 62.3305 227.635 29.381 209.632 11.3787C191.631 -6.62159 158.683 -2.85852 136.038 19.7847C113.393 42.4287 119.944 85.6906 127.633 93.3812C133.847 99.5948 178.582 107.618 201.226 84.9752Z" fill="#616161"/>
<path d="M108.306 52.254C95.1686 39.1167 76.0497 36.9296 65.6023 47.3763C55.1576 57.8217 57.3414 76.9433 70.4814 90.0786C83.6213 103.22 108.724 99.4187 113.182 94.9563C116.79 91.3543 121.447 65.3926 108.306 52.254Z" fill="black"/>
<path d="M153.635 79.4246C151.314 81.5609 149.278 83.1375 147.528 84.1505C145.778 85.1668 144.109 85.6743 142.521 85.6743C140.695 85.6743 139.221 84.9662 138.104 83.5494C136.984 82.1312 136.427 80.2296 136.427 77.8372C136.427 74.2527 137.204 69.9494 138.758 64.9319C140.309 59.9105 142.198 55.2836 144.416 51.0504L150.921 48.642C151.125 48.5738 151.28 48.5391 151.383 48.5391C151.877 48.5391 152.285 48.9028 152.598 49.6269C152.914 50.3544 153.073 51.3319 153.073 52.5609C153.073 56.0438 152.271 59.4157 150.665 62.6766C149.059 65.9389 146.55 69.4205 143.136 73.1254C142.999 74.9013 142.931 76.1209 142.931 76.7875C142.931 78.2739 143.203 79.45 143.75 80.3212C144.297 81.1938 145.021 81.6271 145.927 81.6271C146.85 81.6271 147.831 81.2968 148.873 80.6308C149.912 79.9635 151.5 78.5821 153.634 76.4806V79.4246H153.635ZM143.827 69.4131C145.995 67.0027 147.755 64.2994 149.103 61.3086C150.451 58.3165 151.125 55.7429 151.125 53.5866C151.125 52.958 151.032 52.4472 150.845 52.0634C150.657 51.679 150.417 51.4857 150.127 51.4857C149.498 51.4857 148.579 53.0583 147.374 56.2043C146.17 59.3495 144.988 63.7531 143.827 69.4131V69.4131Z" fill="#010101"/>
<path d="M172.792 79.4247C170.625 81.561 168.679 83.1376 166.954 84.1506C165.229 85.1669 163.327 85.6745 161.243 85.6745C158.921 85.6745 157.047 84.9316 155.62 83.4479C154.195 81.9602 153.483 80.0071 153.483 77.582C153.483 73.9633 154.737 70.689 157.25 67.7611C159.757 64.8318 162.541 63.3682 165.597 63.3682C167.185 63.3682 168.455 63.7794 169.413 64.5984C170.369 65.4189 170.847 66.4934 170.847 67.8253C170.847 71.3603 167.091 74.2268 159.579 76.4299C160.261 79.7577 162.045 81.4239 164.931 81.4239C166.058 81.4239 167.133 81.121 168.157 80.5166C169.183 79.9095 170.727 78.5629 172.793 76.4814V79.4247H172.792ZM159.373 74.6881C163.742 73.4579 165.929 71.1885 165.929 67.8761C165.929 66.2373 165.33 65.4182 164.137 65.4182C163.009 65.4182 161.935 66.2747 160.911 67.9924C159.884 69.7075 159.373 71.9381 159.373 74.6881V74.6881Z" fill="#010101"/>
<path d="M200.143 79.4248C197.411 82.0198 195.456 83.7121 194.279 84.4984C193.101 85.2834 191.975 85.6752 190.898 85.6752C188.2 85.6752 186.929 83.2942 187.082 78.5302C185.375 80.9707 183.799 82.772 182.356 83.9354C180.915 85.0961 179.426 85.6752 177.887 85.6752C176.387 85.6752 175.111 84.9724 174.059 83.5636C173.008 82.1548 172.485 80.4271 172.485 78.3764C172.485 75.8168 173.188 73.375 174.596 71.0515C176.006 68.7293 177.811 66.8531 180.013 65.4189C182.215 63.9847 184.163 63.2666 185.851 63.2666C187.986 63.2666 189.481 64.2488 190.335 66.2113L195.569 63.3188H197.005L194.744 70.8215C193.583 74.5959 193.001 77.1829 193.001 78.5823C193.001 80.05 193.521 80.7841 194.563 80.7841C195.226 80.7841 195.96 80.4304 196.763 79.721C197.566 79.0116 198.691 77.9317 200.142 76.4808V79.4248H200.143ZM181.397 80.8349C183.104 80.8349 184.713 79.38 186.226 76.4694C187.738 73.5575 188.492 70.871 188.492 68.4131C188.492 67.4583 188.277 66.7101 187.853 66.1731C187.424 65.6336 186.852 65.3661 186.137 65.3661C184.428 65.3661 182.809 66.817 181.284 69.7202C179.756 72.6234 178.99 75.2953 178.99 77.7345C178.99 78.6579 179.218 79.4047 179.67 79.9771C180.122 80.5494 180.696 80.8349 181.397 80.8349V80.8349Z" fill="#010101"/>
<path d="M219.275 79.4251C214.989 83.6248 211.685 85.7263 209.363 85.7263C208.321 85.7263 207.441 85.2863 206.726 84.4097C206.01 83.5298 205.65 82.4406 205.65 81.1421C205.65 78.735 206.94 75.5095 209.518 71.4623C208.254 72.1116 206.872 72.5622 205.369 72.819C204.259 74.8677 202.517 77.0708 200.144 79.4244H199.557V77.1223C200.887 75.7396 202.091 74.2532 203.167 72.6652C201.697 72.0159 200.964 71.0511 200.964 69.7727C200.964 68.4561 201.411 67.0527 202.309 65.5569C203.205 64.0645 204.438 63.3184 206.01 63.3184C207.342 63.3184 208.007 63.999 208.007 65.3657C208.007 66.4415 207.623 67.9774 206.853 69.9759C209.687 69.6677 212.163 67.5013 214.281 63.4708L216.611 63.3678L214.229 69.9238C213.24 72.6899 212.599 74.5741 212.309 75.5717C212.02 76.5693 211.874 77.4546 211.874 78.2215C211.874 78.9396 212.041 79.5133 212.372 79.9372C212.705 80.3672 213.155 80.5785 213.718 80.5785C214.331 80.5785 214.922 80.3685 215.485 79.9526C216.048 79.5307 217.312 78.3753 219.276 76.4804V79.4251H219.275Z" fill="#010101"/>
<path d="M244.425 79.4251C240.482 83.5934 237.099 85.6755 234.284 85.6755C233.14 85.6755 232.218 85.2743 231.517 84.4713C230.816 83.6696 230.466 82.5944 230.466 81.2458C230.466 79.4191 231.219 76.6269 232.722 72.8725C233.523 70.8573 233.926 69.5748 233.926 69.0305C233.926 68.4836 233.711 68.2101 233.286 68.2101C233.047 68.2101 232.73 68.3305 232.338 68.5678C231.978 68.8065 231.56 69.1422 231.082 69.5681C230.656 69.9599 230.176 70.438 229.647 70.9997C229.185 71.4818 228.69 72.0273 228.164 72.6398L226.727 74.3061C226.097 75.0736 225.704 75.8834 225.551 76.7379C225.293 78.1888 225.123 79.5221 225.037 80.7356C224.985 81.6383 224.96 82.8579 224.96 84.3978L219.3 85.727C219.114 83.4222 219.018 81.7058 219.018 80.5805C219.018 77.8318 219.338 75.2274 219.98 72.7695C220.619 70.309 221.647 67.5448 223.065 64.4705L229.313 63.2676C227.999 66.8026 227.137 69.5842 226.727 71.6148C229.528 68.491 231.748 66.3286 233.393 65.1231C235.036 63.9188 236.499 63.3197 237.777 63.3197C238.646 63.3197 239.372 63.6474 239.95 64.3033C240.531 64.9599 240.82 65.7843 240.82 66.7699C240.82 68.4074 240.086 71.1053 238.62 74.863C237.611 77.4399 237.107 79.1122 237.107 79.8845C237.107 80.9122 237.527 81.4257 238.365 81.4257C239.613 81.4257 241.635 79.7775 244.425 76.4825V79.4251Z" fill="#010101"/>
<path d="M162.236 44.3585C162.252 44.5374 162.297 44.6746 162.37 44.77C162.505 44.9429 162.74 45.0294 163.074 45.0294C163.273 45.0294 163.448 44.9866 163.599 44.9012C163.75 44.8137 163.825 44.6795 163.825 44.4987C163.825 44.3615 163.765 44.2571 163.643 44.1856C163.566 44.1418 163.413 44.0912 163.184 44.0335L162.758 43.9262C162.486 43.8586 162.285 43.7831 162.156 43.6996C161.925 43.5545 161.81 43.3537 161.81 43.0973C161.81 42.7951 161.918 42.5506 162.135 42.3638C162.353 42.1769 162.647 42.0835 163.014 42.0835C163.495 42.0835 163.842 42.2246 164.055 42.5069C164.188 42.6858 164.253 42.8786 164.249 43.0853H163.742C163.732 42.9641 163.689 42.8538 163.614 42.7544C163.49 42.6132 163.277 42.5427 162.973 42.5427C162.77 42.5427 162.616 42.5814 162.51 42.659C162.407 42.7365 162.355 42.8389 162.355 42.9661C162.355 43.1052 162.424 43.2165 162.561 43.3C162.641 43.3497 162.758 43.3934 162.913 43.4312L163.268 43.5177C163.653 43.6111 163.912 43.7016 164.043 43.789C164.252 43.9262 164.356 44.1418 164.356 44.436C164.356 44.7203 164.248 44.9658 164.031 45.1725C163.816 45.3792 163.488 45.4826 163.047 45.4826C162.572 45.4826 162.235 45.3753 162.036 45.1606C161.839 44.9439 161.734 44.6766 161.72 44.3585H162.236ZM166.202 42.0746C166.561 42.0746 166.854 42.162 167.078 42.3369C167.305 42.5119 167.441 42.813 167.487 43.2404H166.965C166.933 43.0436 166.861 42.8806 166.747 42.7514C166.634 42.6202 166.452 42.5546 166.202 42.5546C165.86 42.5546 165.615 42.7216 165.468 43.0555C165.373 43.2722 165.325 43.5395 165.325 43.8576C165.325 44.1776 165.393 44.447 165.528 44.6656C165.663 44.8843 165.876 44.9936 166.166 44.9936C166.389 44.9936 166.564 44.926 166.694 44.7909C166.825 44.6537 166.915 44.4668 166.965 44.2303H167.487C167.427 44.6537 167.278 44.9638 167.04 45.1606C166.801 45.3554 166.496 45.4528 166.124 45.4528C165.707 45.4528 165.374 45.3007 165.125 44.9966C164.877 44.6905 164.753 44.3088 164.753 43.8516C164.753 43.2911 164.889 42.8548 165.161 42.5427C165.433 42.2306 165.78 42.0746 166.202 42.0746ZM168.023 42.1819H168.569V45.3604H168.023V42.1819ZM168.023 40.9803H168.569V41.5885H168.023V40.9803ZM169.371 40.9803H169.887V43.5236L171.265 42.167H171.95L170.728 43.3626L172.019 45.3604H171.333L170.337 43.7503L169.887 44.1617V45.3604H169.371V40.9803ZM172.436 42.1819H172.982V45.3604H172.436V42.1819ZM172.436 40.9803H172.982V41.5885H172.436V40.9803ZM173.903 41.2755H174.446V42.167H174.956V42.6053H174.446V44.6895C174.446 44.8008 174.484 44.8753 174.559 44.9131C174.601 44.935 174.671 44.9459 174.768 44.9459C174.794 44.9459 174.822 44.9459 174.851 44.9459C174.881 44.9439 174.916 44.9409 174.956 44.937V45.3604C174.894 45.3782 174.83 45.3912 174.762 45.3991C174.696 45.4071 174.625 45.411 174.547 45.411C174.297 45.411 174.127 45.3474 174.037 45.2202C173.948 45.091 173.903 44.924 173.903 44.7193V42.6053H173.471V42.167H173.903V41.2755Z" fill="white"/>
</g>
<defs>
<clipPath id="clip0">
<rect width="185.425" height="100" fill="white" transform="translate(59)"/>
</clipPath>
</defs>
</svg>
