<svg width="303" height="100" viewBox="0 0 303 100" fill="none" xmlns="http://www.w3.org/2000/svg">
<path d="M68.7586 42.7209C63.667 42.1175 63.2899 35.2909 56.7651 35.8944C53.597 35.8944 50.6552 37.2144 50.6552 40.1185C50.6552 44.4935 57.4063 44.9084 61.4795 46.0022C68.4192 48.1142 75.1325 49.5474 75.1325 57.0905C75.1325 66.6703 67.6272 69.9892 57.708 69.9892C49.4106 69.9892 41 67.0474 41 59.4289C41 57.3168 43.0366 55.6573 44.9978 55.6573C47.4871 55.6573 48.3545 56.7134 49.222 58.4483C51.1455 61.8427 53.2953 63.653 58.6509 63.653C62.0453 63.653 65.5151 62.3707 65.5151 59.4289C65.5151 55.2425 61.2532 54.3373 56.8405 53.319C49.0334 51.1315 42.32 50 41.528 41.3254C40.6983 26.5409 71.5119 25.9752 73.2845 38.9494C73.2468 41.2877 71.0593 42.7209 68.7586 42.7209ZM105.418 29.7468C116.242 29.7468 122.39 38.7985 122.39 49.9623C122.39 61.1638 116.431 70.1778 105.418 70.1778C99.3082 70.1778 95.4989 67.5754 92.7457 63.5776V78.3621C92.7457 82.8125 91.3125 84.9623 88.069 84.9623C84.1088 84.9623 83.3922 82.4354 83.3922 78.3621V35.3664C83.3922 31.8588 84.8631 29.7091 88.069 29.7091C91.0862 29.7091 92.7457 32.0851 92.7457 35.3664V36.5733C95.8006 32.7263 99.3082 29.7468 105.418 29.7468ZM102.853 62.4838C109.19 62.4838 112.018 56.6379 112.018 49.8114C112.018 43.1358 109.152 37.139 102.853 37.139C96.2532 37.139 93.1983 42.57 93.1983 49.8114C93.1983 56.8642 96.291 62.4838 102.853 62.4838ZM129.745 40.3071C129.745 32.5377 138.683 29.7468 147.358 29.7468C159.54 29.7468 164.556 33.292 164.556 45.0593V56.3739C164.556 59.0517 166.216 64.4073 166.216 66.0291C166.216 68.4806 163.953 70.0269 161.539 70.0269C158.861 70.0269 156.862 66.8588 155.429 64.5959C151.469 67.764 147.282 70.0269 140.871 70.0269C133.78 70.0269 128.198 65.8405 128.198 58.9386C128.198 52.8287 132.573 49.3211 137.853 48.1142C137.853 48.1519 154.825 44.1164 154.825 44.0787C154.825 38.8739 152.977 36.5733 147.509 36.5733C142.681 36.5733 140.23 37.8933 138.344 40.7974C136.835 42.9849 137.024 44.305 134.12 44.305C131.781 44.2672 129.745 42.6832 129.745 40.3071ZM144.227 63.653C151.657 63.653 154.788 59.7306 154.788 51.9235V50.264C152.789 50.9429 144.718 52.9418 142.53 53.2813C140.192 53.7338 137.853 55.4687 137.853 58.222C137.929 61.2392 141.022 63.653 144.227 63.653ZM198.802 15C209.287 15 220.639 21.2608 220.639 31.2177C220.639 33.7823 218.716 35.8944 216.189 35.8944C212.756 35.8944 212.266 34.0463 210.758 31.444C208.231 26.8049 205.251 23.7123 198.764 23.7123C188.732 23.6368 184.244 32.236 184.244 42.9472C184.244 53.7338 187.977 61.5032 198.349 61.5032C205.251 61.5032 209.06 57.5054 211.022 52.3384C211.814 49.9623 213.247 47.6616 216.226 47.6616C218.565 47.6616 220.903 50.0377 220.903 52.6024C220.903 63.1627 210.116 70.4795 199.028 70.4795C186.884 70.4795 180.019 65.3502 176.248 56.8265C174.4 52.7532 173.231 48.5291 173.231 42.7209C173.155 26.3524 182.697 15 198.802 15ZM258.769 29.7468C261.447 29.7468 262.994 31.4817 262.994 34.1972C262.994 35.2909 262.126 37.4784 261.787 38.6476L248.888 72.5539C246.022 79.9084 243.872 85 234.103 85C229.464 85 225.429 84.5851 225.429 80.5496C225.429 78.2112 227.202 77.042 229.653 77.042C230.106 77.042 230.86 77.2683 231.313 77.2683C232.029 77.2683 232.519 77.4946 232.972 77.4946C237.875 77.4946 238.554 72.4784 240.289 69.0086L227.843 38.195C227.126 36.5356 226.636 35.4041 226.636 34.4235C226.636 31.708 228.748 29.7468 231.577 29.7468C234.745 29.7468 235.989 32.236 236.781 34.9515L245.003 59.3912L253.225 36.7996C254.47 33.292 254.583 29.7468 258.769 29.7468Z" fill="black"/>
</svg>
