<svg width="303" height="100" viewBox="0 0 303 100" fill="none" xmlns="http://www.w3.org/2000/svg">
<path fill-rule="evenodd" clip-rule="evenodd" d="M231.887 50.4531C231.721 50.0987 231.646 49.9199 231.556 49.7484C229.147 45.1685 226.743 40.5851 224.313 36.0165C224.068 35.5576 224.098 35.2845 224.434 34.8925C228.265 30.4164 232.077 25.9223 235.893 21.4326C236.026 21.2753 236.147 21.1069 236.198 20.827C235.083 21.1186 233.967 21.4066 232.852 21.702C228.222 22.9288 223.591 24.1518 218.966 25.3953C218.534 25.5111 218.339 25.3848 218.124 25.0275C215.496 20.6362 212.852 16.2543 210.211 11.8704C210.074 11.6425 209.928 11.4215 209.637 11.2301C209.425 12.3999 209.209 13.5691 209.001 14.7395C208.265 18.8713 207.532 23.0043 206.799 27.1367C206.719 27.5826 206.608 28.0266 206.571 28.4762C206.533 28.9029 206.315 29.0602 205.929 29.1816C200.473 30.8945 195.022 32.6241 189.571 34.3519C189.331 34.4274 189.098 34.5253 188.841 34.7587C193.3 36.5311 197.76 38.3033 202.288 40.1027C202.123 40.2336 202.016 40.3342 201.895 40.4129C199.107 42.2168 196.315 44.0134 193.534 45.8267C193.201 46.0434 192.937 46.0741 192.563 45.9058C189.233 44.4062 185.89 42.935 182.555 41.4456C181.058 40.7769 179.711 39.8887 178.662 38.6058C176.291 35.705 176.759 32.4049 179.918 30.3892C180.953 29.7296 182.126 29.2348 183.297 28.8527C188.641 27.112 194.005 25.4331 199.367 23.7487C199.816 23.6081 200.024 23.4069 200.108 22.9201C200.822 18.784 201.563 14.6522 202.308 10.5223C202.707 8.31396 202.919 6.04866 203.994 4.02487C204.406 3.24707 204.901 2.48475 205.489 1.83266C207.617 -0.529248 210.588 -0.620902 212.838 1.62953C213.598 2.38876 214.251 3.28484 214.815 4.20384C217.295 8.24583 219.733 12.3138 222.159 16.3886C222.446 16.8704 222.705 16.9677 223.235 16.8252C229.214 15.2226 235.198 13.6447 241.183 12.0636C242.417 11.7379 243.666 11.6178 244.933 11.855C247.691 12.3714 248.897 14.4714 247.963 17.1355C247.539 18.3499 246.806 19.3748 245.982 20.3433C241.806 25.2541 237.637 30.1705 233.447 35.069C233.105 35.469 233.097 35.7589 233.334 36.206C235.834 40.9172 238.311 45.6399 240.798 50.358C241.394 51.4877 241.847 52.6592 241.861 53.956C241.891 56.9056 239.734 59.3193 236.803 59.7489C235.161 59.9901 233.636 59.6394 232.098 59.1643C228.349 58.0055 224.594 56.8661 220.837 55.7362C220.489 55.632 220.356 55.4958 220.294 55.1206C219.862 52.4766 219.391 49.8384 218.935 47.198C218.922 47.1254 218.944 47.0471 218.955 46.8854C223.232 48.0655 227.472 49.2351 231.887 50.4531" fill="#373737"/>
<path fill-rule="evenodd" clip-rule="evenodd" d="M224.578 88.9629C221.198 88.9568 217.817 88.9413 214.436 88.9549C213.99 88.9561 213.737 88.826 213.488 88.4464C209.485 82.3502 205.465 76.2658 201.448 70.1791C201.32 69.9853 201.183 69.7983 200.956 69.4725C200.091 76.0467 199.246 82.474 198.399 88.9176C195.44 88.9176 192.541 88.9176 189.545 88.9176C189.649 88.055 189.74 87.2214 189.849 86.3909C190.713 79.7901 191.581 73.1893 192.449 66.5892C193.277 60.2826 194.103 53.9759 194.944 47.6704C194.969 47.4822 195.094 47.2447 195.248 47.1448C198.294 45.1585 201.351 43.1894 204.407 41.2189C204.452 41.1899 204.514 41.1865 204.672 41.1418C203.747 48.1935 202.829 55.19 201.912 62.1869C201.948 62.2115 201.984 62.2364 202.021 62.2619C206.816 56.9458 211.613 51.6297 216.512 46.1997C216.653 47.0171 216.776 47.7167 216.896 48.4167C217.24 50.4211 217.569 52.4284 217.937 54.4287C218.011 54.8318 217.904 55.0826 217.636 55.363C214.534 58.6086 211.445 61.8653 208.353 65.1189C208.218 65.2609 208.088 65.4083 207.935 65.5766C208.033 65.7346 208.117 65.8863 208.217 66.0268C213.551 73.5132 218.885 80.9984 224.223 88.4817C224.319 88.6174 224.459 88.7239 224.578 88.8441C224.578 88.8835 224.578 88.9232 224.578 88.9629" fill="black"/>
<path fill-rule="evenodd" clip-rule="evenodd" d="M119.639 69.5016C119.504 68.8116 119.407 67.7986 119.101 66.8522C117.618 62.2776 112.925 59.7691 108.066 60.8999C102.737 62.1402 98.9277 66.3302 98.3767 71.7687C97.9688 75.7913 100.135 79.6668 104.163 81.1213C107.408 82.2936 110.532 81.8033 113.433 80.0637C117.277 77.757 119.363 74.3324 119.639 69.5016V69.5016ZM96.2344 86.5047C95.9714 88.4728 95.7206 90.3275 95.4765 92.1836C95.1523 94.6508 94.829 97.1184 94.5183 99.5868C94.482 99.8749 94.3947 100.002 94.0853 100C91.6534 99.9901 89.2216 99.9925 86.79 99.9889C86.7346 99.9889 86.6792 99.9584 86.5474 99.9214C86.6944 98.7566 86.8374 97.5884 86.9903 96.4213C87.5269 92.329 88.0622 88.2362 88.6067 84.1447C89.2294 79.4663 89.7226 74.7654 90.5199 70.1169C91.9321 61.8859 98.9149 54.7926 107.109 53.0265C111.859 52.0018 116.406 52.4759 120.553 55.1489C124.689 57.8147 127.062 61.6833 127.602 66.5494C128.367 73.4295 125.835 79.1412 120.947 83.866C117.74 86.968 113.9 88.9392 109.47 89.6054C104.907 90.2936 100.618 89.5324 96.769 86.8424C96.6275 86.7439 96.4765 86.6578 96.2344 86.5047" fill="black"/>
<path fill-rule="evenodd" clip-rule="evenodd" d="M92.2715 47.3921C89.5442 49.4224 86.915 51.3794 84.2744 53.3451C83.8489 52.6736 83.4676 52.0048 83.0225 51.3823C81.8768 49.7814 80.454 48.5852 78.3845 48.4401C76.6634 48.3194 75.1914 48.8864 74.0198 50.1554C72.972 51.2902 72.835 52.9037 73.8142 54.1853C74.8921 55.5961 76.0719 56.9345 77.2766 58.2405C79.2735 60.4056 81.3609 62.4876 83.345 64.6643C85.1503 66.6443 86.5894 68.8661 87.0338 71.5735C87.5623 74.792 86.9203 77.8574 85.3978 80.6862C82.5803 85.9208 78.1436 88.9579 72.2864 89.9083C69.6997 90.3276 67.12 90.2441 64.5961 89.501C61.2464 88.515 58.9149 86.3197 57.4156 83.2197C56.8859 82.1236 56.4807 80.9673 56 79.7926C58.9326 78.2235 61.7812 76.6987 64.6717 75.1517C64.7726 75.3927 64.843 75.5932 64.9371 75.7809C65.4298 76.7674 65.8334 77.8154 66.4439 78.7232C68.2543 81.4151 71.1787 82.2344 74.1454 80.9035C74.9074 80.5616 75.6413 80.0793 76.2664 79.5251C78.1782 77.8282 78.5367 75.4657 77.1215 73.3305C76.3085 72.1038 75.2916 71.0039 74.3017 69.9047C71.9359 67.2771 69.4738 64.7337 67.1626 62.059C65.5694 60.2155 64.4869 58.0654 64.1444 55.5961C63.7702 52.9001 64.3094 50.356 65.7124 48.0861C69.2004 42.4443 74.269 39.5092 80.9731 39.7524C84.7952 39.8909 87.8386 41.6782 90.201 44.6478C90.9001 45.5261 91.5552 46.4395 92.2715 47.3921" fill="black"/>
<path fill-rule="evenodd" clip-rule="evenodd" d="M157.031 77.6814C156.586 81.0799 156.167 84.3101 155.731 87.5378C155.708 87.701 155.58 87.9233 155.441 87.9884C148.842 91.0447 140.152 90.6179 134.733 84.4637C131.821 81.1573 130.599 77.2329 130.782 72.867C131.204 62.7606 139.584 53.9379 149.604 52.7051C155.459 51.9847 160.593 53.5661 164.56 58.1139C167.261 61.2122 168.511 64.9118 168.326 68.9947C168.205 71.6917 167.782 74.3768 167.446 77.0614C166.971 80.8636 166.451 84.6611 165.949 88.4604C165.931 88.5954 165.904 88.7291 165.873 88.9007C163.26 88.9007 160.663 88.9007 157.979 88.9007C158.084 88.0276 158.18 87.173 158.291 86.3203C158.862 81.9319 159.491 77.5505 159.992 73.1544C160.304 70.4166 160.108 67.6993 158.856 65.1634C157.524 62.4683 155.29 61.0428 152.353 60.7313C146.274 60.0878 140.491 64.3119 139.194 70.294C138.338 74.243 139.688 78.0281 142.833 80.1205C145.898 82.16 149.181 82.1668 152.521 80.8441C154.215 80.174 155.658 79.113 157.031 77.6814" fill="black"/>
<path fill-rule="evenodd" clip-rule="evenodd" d="M190.272 53.4728C189.912 56.21 189.557 58.9062 189.194 61.6583C187.525 61.6583 185.889 61.6487 184.253 61.6617C182.927 61.6721 181.717 62.528 181.318 63.7661C181.162 64.2503 181.105 64.7685 181.038 65.2765C180.207 71.5614 179.383 77.8465 178.559 84.1321C178.351 85.7169 178.148 87.3028 177.94 88.9116C175.202 88.9116 172.502 88.9116 169.723 88.9116C169.877 87.7029 170.022 86.5335 170.175 85.3656C170.709 81.2919 171.243 77.2198 171.785 73.148C172.252 69.6242 172.669 66.0927 173.22 62.582C173.958 57.8757 178.64 53.6963 183.389 53.4897C185.655 53.3913 187.929 53.4728 190.272 53.4728" fill="black"/>
<path d="M234.266 88.9116V85.443H234.246L232.885 88.9116H232.451L231.089 85.443H231.069V88.9116H230.383V84.757H231.442L232.682 87.9133L233.903 84.757H234.952V88.9116H234.266V88.9116ZM228.235 85.3124V88.9116H227.55V85.3124H226.249V84.757H229.536V85.3124H228.235" fill="black"/>
<path d="M103.279 41.5582H105.316L104.836 38.4737L103.279 41.5582V41.5582ZM105.636 43.551H102.246L101.17 45.6602H98.7693L104.064 35.7685H106.378L108.181 45.6602H105.956L105.636 43.551" fill="black"/>
<path d="M117.763 37.7607H116.556L116.149 40.0443H117.356C118.084 40.0443 118.666 39.5652 118.666 38.6626C118.666 38.066 118.301 37.7607 117.763 37.7607V37.7607ZM114.839 35.7685H118.011C119.67 35.7685 120.833 36.7575 120.833 38.4589C120.833 40.5976 119.32 42.0372 117.167 42.0372H115.8L115.159 45.6602H113.094L114.839 35.7685" fill="black"/>
<path d="M127.849 41.5582H129.887L129.406 38.4737L127.849 41.5582ZM130.206 43.551H126.817L125.74 45.6602H123.34L128.634 35.7685H130.948L132.751 45.6602H130.526L130.206 43.551" fill="black"/>
<path d="M143.607 45.3104C142.909 45.6302 142.138 45.8203 141.367 45.8203C138.749 45.8203 137.104 43.8559 137.104 41.3973C137.104 38.2548 139.752 35.6073 142.894 35.6073C143.68 35.6073 144.393 35.7962 144.975 36.1164L144.684 38.4883C144.248 38.0076 143.548 37.6732 142.676 37.6732C140.873 37.6732 139.272 39.3032 139.272 41.1937C139.272 42.6335 140.174 43.7547 141.6 43.7547C142.473 43.7547 143.316 43.4199 143.883 42.9545L143.607 45.3104" fill="black"/>
<path d="M156.231 41.674H151.925L151.226 45.6602H149.161L150.906 35.7685H152.972L152.274 39.6813H156.58L157.277 35.7685H159.343L157.598 45.6602H155.533L156.231 41.674Z" fill="black"/>
<path d="M163.806 45.6602L165.551 35.7685H171.036L170.686 37.7607H167.267L166.919 39.6813H170.06L169.712 41.674H166.569L166.22 43.6671H169.639L169.29 45.6602H163.806" fill="black"/>
</svg>
