<svg width="303" height="59" viewBox="0 0 303 59" fill="none" xmlns="http://www.w3.org/2000/svg">
<path d="M23.4451 31.1636L31.26 26.6289L38.9784 31.1636L31.26 35.6016L23.4451 31.2601V31.1636Z" fill="#6C6C6C"/>
<path d="M0 17.7525L31.2598 0L54.5116 13.2179L46.7932 26.6287L31.2598 17.7525L7.81493 31.0669L0 17.7525Z" fill="#6C6C6C"/>
<path d="M23.4449 48.9155V40.0393L31.1634 35.6012L38.9783 31.1631V40.0393L31.2598 44.4775V53.3537L23.4449 57.8883V48.9155V48.9155ZM23.4449 31.1631L15.6299 26.725L7.81494 31.0666V22.1903L31.2598 8.87598V26.6285L23.4449 31.1631ZM46.6967 22.1903V17.7523L54.5117 13.2176L54.6081 22.094L46.7932 26.6285L46.6967 22.1903Z" fill="#616161"/>
<path d="M15.6299 53.1607V26.725L23.3484 22.3833L23.4449 31.1631L31.2598 35.5048V44.4775L23.4449 40.3288V57.8883L15.6299 53.1607V53.1607ZM3.85934 28.7512L0 26.4355V17.7523L7.81493 22.1903V31.0666L3.85922 28.7511L3.85934 28.7512ZM31.2598 17.7524V8.87598L46.6967 17.7523L46.7932 26.6285L31.2598 17.7523V17.7524Z" fill="black"/>
<path d="M74.9259 19.9714V53.252H69.0723V19.9714H57.7V14.2295H86.2982V19.9714H74.9259V19.9714Z" fill="black"/>
<path d="M105.668 32.0695C106.17 33.8534 106.18 36.2015 106.143 36.4989L87.2501 42.1C87.3988 43.5124 87.3555 42.9398 87.8014 43.9433C88.2473 44.9468 88.8049 45.7736 89.4738 46.4238C90.1429 47.0743 90.8858 47.5578 91.7037 47.8733C92.5216 48.1893 93.3914 48.35 94.2683 48.3472C95.4945 48.3472 96.6187 48.1427 97.6407 47.7342C98.6628 47.3254 99.657 46.749 100.623 46.0061L104.024 49.6853C102.723 50.9119 101.273 51.8597 99.6753 52.5283C98.0775 53.1974 96.1636 53.5318 93.9334 53.5318C92.2239 53.5318 90.5981 53.1974 89.0556 52.5283C87.5132 51.8593 86.1662 50.8744 85.014 49.5736C83.862 48.2729 82.9513 46.675 82.2827 44.7794C81.6136 42.8842 81.2788 40.7287 81.2788 38.3128C81.2788 35.8229 81.595 33.6301 82.2265 31.735C82.8585 29.8393 83.732 28.2505 84.8469 26.9685C85.9618 25.6862 87.3088 24.7108 88.8885 24.0417C90.468 23.3727 92.2053 23.0382 94.1008 23.0382C96.1819 23.0382 97.9938 23.4284 99.536 24.2088C101.078 24.9892 102.361 26.0487 103.382 27.3863C104.405 28.7244 105.167 30.2855 105.668 32.0694V32.0695ZM100.178 33.3924C100.104 32.3888 99.4111 31.1606 98.8391 30.3969C98.3149 29.6958 97.5629 29.1296 96.7489 28.8081C95.8941 28.4703 94.7328 28.3262 93.7106 28.3712C91.7933 28.4553 89.6607 29.1182 88.5837 30.5984C87.5072 32.0781 87.2108 34.5667 87.2501 37.2506L100.178 33.3924V33.3924ZM126.88 52.9186V36.3617C126.88 33.3886 126.35 31.3072 125.291 30.1179C124.232 28.9288 122.754 28.3341 120.859 28.3341C118.927 28.3341 117.44 28.9844 116.399 30.285C115.359 31.5857 114.838 33.4256 114.838 35.8044V52.9184H109.097V23.6515H114.838V26.4387C115.582 25.3609 116.613 24.5245 117.932 23.9303C119.252 23.3356 120.673 23.0381 122.197 23.0381C125.616 23.0381 128.208 24.1347 129.974 26.3271C131.739 28.5199 132.622 31.7905 132.622 36.1386V52.9184H126.88V52.9186ZM156.204 45.2246C156.204 46.8598 155.898 48.2254 155.285 49.322C154.671 50.4182 153.863 51.301 152.86 51.9701C151.856 52.6387 150.695 53.1219 149.375 53.4194C148.056 53.7165 146.672 53.8654 145.222 53.8654C143.216 53.8654 141.218 53.5121 139.229 52.8061C137.241 52.1001 135.504 51.2079 134.017 50.1301L136.637 45.7819C138.012 46.7485 139.434 47.4728 140.902 47.9563C142.37 48.4393 143.792 48.6807 145.167 48.6807C148.734 48.6807 150.518 47.6032 150.518 45.4474C150.518 44.3326 149.915 43.4408 148.707 42.7718C147.499 42.1027 145.836 41.3594 143.717 40.5416C142.156 39.947 140.828 39.3434 139.731 38.7301C138.635 38.1168 137.743 37.4571 137.056 36.7511C136.368 36.0447 135.876 35.255 135.578 34.3819C135.281 33.5081 135.132 32.4957 135.132 31.3437C135.132 30.0431 135.374 28.8909 135.857 27.8873C136.33 26.8958 137.038 26.0347 137.92 25.3788C138.811 24.7097 139.871 24.2081 141.097 23.8737C142.324 23.5391 143.662 23.3717 145.111 23.3717C146.969 23.3717 148.762 23.6692 150.49 24.2639C152.219 24.8584 153.733 25.6388 155.034 26.605L152.525 31.0092C151.336 30.1544 150.128 29.5224 148.902 29.1135C147.675 28.7051 146.356 28.5006 144.943 28.5006C143.531 28.5006 142.509 28.7514 141.878 29.2529C141.246 29.7549 140.93 30.3959 140.93 31.1763C140.93 31.5481 141.004 31.8917 141.153 32.2077C141.302 32.5236 141.58 32.8488 141.989 33.1832C142.398 33.5178 142.946 33.8616 143.634 34.2145C144.321 34.5676 145.222 34.9672 146.337 35.4131C147.973 36.0447 149.403 36.6486 150.63 37.225C151.856 37.801 152.888 38.4513 153.724 39.1759C154.56 39.9007 155.183 40.7461 155.592 41.7125C156 42.6786 156.205 43.8493 156.205 45.2243V45.2246H156.204ZM182.908 38.4793C182.908 40.8948 182.574 43.0595 181.905 44.9735C181.236 46.8878 180.307 48.5043 179.117 49.8236C177.928 51.143 176.534 52.1464 174.936 52.8338C173.339 53.5214 171.592 53.8653 169.696 53.8653C167.838 53.8653 166.129 53.5028 164.568 52.778C163.007 52.0534 161.65 51.0222 160.498 49.6842C159.346 48.3463 158.445 46.7483 157.794 44.8901C157.144 43.0319 156.819 40.9505 156.819 38.6464C156.819 36.2678 157.153 34.1307 157.822 32.2355C158.491 30.3402 159.411 28.7327 160.582 27.4134C161.752 26.0941 163.127 25.0906 164.707 24.4033C166.287 23.7155 168.005 23.3717 169.863 23.3717C171.722 23.3717 173.45 23.7342 175.048 24.459C176.629 25.1714 178.043 26.2062 179.201 27.4972C180.372 28.7978 181.282 30.3866 181.932 32.2635C182.583 34.1401 182.908 36.2122 182.908 38.4793V38.4793ZM177.111 38.6464C177.111 35.6362 176.451 33.2483 175.132 31.4827C173.812 29.7176 171.982 28.8347 169.641 28.8347C167.448 28.8347 165.729 29.7175 164.484 31.4828C163.239 33.2483 162.616 35.5805 162.616 38.4793C162.616 41.7125 163.285 44.1745 164.623 45.8656C165.961 47.5565 167.727 48.4022 169.919 48.4022C170.997 48.4022 171.982 48.1421 172.874 47.6218C173.766 47.1016 174.528 46.4046 175.159 45.5312C175.791 44.6577 176.274 43.6266 176.609 42.4373C176.943 41.248 177.111 39.9843 177.111 38.6464H177.111ZM201.416 30.0615C200.796 29.7316 200.142 29.4699 199.465 29.2811C198.796 29.0951 197.978 29.0022 197.012 29.0022C195.191 29.0022 193.779 29.6338 192.775 30.8975C191.772 32.1615 191.27 34.0381 191.27 36.528V53.252H185.528V23.9851H191.27V26.7725C191.939 25.8059 192.859 24.9979 194.03 24.3473C195.2 23.6969 196.51 23.3718 197.96 23.3718C199.149 23.3718 200.125 23.4742 200.887 23.6786C201.649 23.8826 202.327 24.1895 202.921 24.5984L201.416 30.0615H201.416Z" fill="black"/>
<path d="M211.06 19.9715V30.1733H222.266V35.9148H211.06V53.2521H205.207V14.2292H230.349V19.9715H211.06V19.9715ZM231.3 53.2521V15.6234L237.042 12.6128V53.2521H231.3V53.2521ZM266.364 38.4795C266.364 40.895 266.03 43.0596 265.361 44.9737C264.692 46.8879 263.763 48.5045 262.573 49.8238C261.384 51.1431 259.99 52.1466 258.392 52.8339C256.794 53.5216 255.047 53.8654 253.152 53.8654C251.294 53.8654 249.584 53.503 248.023 52.7781C246.463 52.0535 245.106 51.0224 243.954 49.6843C242.802 48.3464 241.901 46.7485 241.25 44.8902C240.6 43.032 240.275 40.9506 240.275 38.6466C240.275 36.268 240.609 34.1309 241.278 32.2357C241.947 30.3404 242.867 28.7329 244.038 27.4135C245.208 26.0942 246.583 25.0907 248.163 24.4034C249.742 23.7157 251.461 23.3718 253.319 23.3718C255.178 23.3718 256.906 23.7344 258.504 24.4591C260.085 25.1715 261.499 26.2063 262.657 27.4973C263.827 28.7979 264.738 30.3867 265.388 32.2637C266.039 34.1403 266.364 36.2123 266.364 38.4795H266.364V38.4795ZM260.566 38.6466C260.566 35.6363 259.907 33.2484 258.587 31.4828C257.268 29.7178 255.438 28.8349 253.096 28.8349C250.904 28.8349 249.185 29.7176 247.94 31.4829C246.695 33.2484 246.072 35.5807 246.072 38.4795C246.072 41.7127 246.741 44.1747 248.079 45.8657C249.417 47.5566 251.182 48.4023 253.375 48.4023C254.453 48.4023 255.438 48.1423 256.33 47.6219C257.222 47.1017 257.983 46.4048 258.616 45.5313C259.247 44.6578 259.73 43.6267 260.065 42.4374C260.399 41.2481 260.566 39.9845 260.566 38.6466V38.6466ZM294.683 53.2521H289.778L285.82 38.4795C285.517 37.3406 285.229 36.1977 284.956 35.051C284.677 33.8805 284.463 32.9417 284.315 32.2357C284.111 33.1856 283.898 34.1333 283.674 35.0787C283.403 36.2351 283.115 37.3874 282.81 38.5351L278.907 53.2524H274.002L265.974 23.9851H271.66L275.116 38.2006C275.425 39.3638 275.704 40.5348 275.952 41.7123C276.213 42.939 276.417 43.9055 276.566 44.6115L277.29 41.7127C277.583 40.5409 277.881 39.3701 278.183 38.2006L282.085 23.9851H286.712L290.67 38.2564C290.969 39.4149 291.256 40.5765 291.534 41.7403C291.812 42.9109 292.045 43.8682 292.231 44.6115C292.416 43.8682 292.63 42.8927 292.872 41.6847C293.104 40.5151 293.374 39.3531 293.68 38.2006L297.136 23.9851H302.823L294.683 53.2521Z" fill="#A6A7A9"/>
</svg>
