<svg width="304" height="70" viewBox="0 0 304 70" fill="none" xmlns="http://www.w3.org/2000/svg">
<g clip-path="url(#clip0)">
<path d="M20.5818 5.02818V18.58H38.3945V24.6736H20.5818V50.5827C20.5818 54.1055 21.25 56.5627 22.5845 57.9545C23.92 59.3464 26.25 60.0427 29.5736 60.0427H38.3945V66.3073H28.8064C22.9255 66.3073 18.7782 65.1282 16.3636 62.77C13.9482 60.4118 12.7409 56.3491 12.7409 50.5827V24.6736H0V18.58H12.7409V5.02818H20.5818ZM91.7045 36.7327V66.3064H83.8209V36.7327C83.8209 32.4436 83.0682 29.29 81.5618 27.2727C80.0564 25.2555 77.6982 24.2473 74.4882 24.2473C70.8236 24.2473 67.9964 25.5536 66.0082 28.1673C64.0482 30.7527 63.0682 34.4745 63.0682 39.3327V66.3064H55.2273V0H63.0682V25.7382C64.46 23.0109 66.3491 20.9518 68.7355 19.56C71.1218 18.1391 73.9482 17.4291 77.2155 17.4291C82.0736 17.4291 85.6955 19.0345 88.0818 22.2445C90.4964 25.4264 91.7045 30.2555 91.7045 36.7327ZM181.832 42.3155H179.233C174.659 42.3155 171.207 43.1255 168.877 44.7445C166.576 46.3355 165.425 48.7218 165.425 51.9036C165.425 54.7727 166.292 57.0027 168.025 58.5936C169.758 60.1845 172.159 60.98 175.227 60.98C179.545 60.98 182.94 59.4891 185.412 56.5055C187.883 53.4945 189.133 49.3464 189.162 44.0627V42.3155H181.832V42.3155ZM197.045 39.0764V66.3073H189.162V59.2327C187.485 62.0736 185.369 64.1764 182.812 65.54C180.284 66.8755 177.201 67.5427 173.565 67.5427C168.707 67.5427 164.829 66.1791 161.932 63.4518C159.034 60.6964 157.585 57.0173 157.585 52.4145C157.585 47.1027 159.36 43.0682 162.912 40.3127C166.491 37.5573 171.733 36.1791 178.636 36.1791H189.162V34.9436C189.133 31.1364 188.167 28.3809 186.264 26.6764C184.36 24.9436 181.321 24.0764 177.145 24.0764C174.474 24.0764 171.775 24.46 169.048 25.2273C166.321 25.9945 163.665 27.1164 161.079 28.5936V20.7527C163.977 19.6445 166.746 18.8209 169.389 18.2809C172.059 17.7127 174.645 17.4291 177.145 17.4291C181.094 17.4291 184.46 18.0118 187.244 19.1764C190.056 20.3409 192.329 22.0882 194.062 24.4173C195.142 25.8382 195.909 27.5991 196.364 29.7018C196.818 31.7755 197.045 34.9009 197.045 39.0764V39.0764ZM249.205 36.7327V66.3064H241.321V36.7327C241.321 32.4436 240.568 29.29 239.062 27.2727C237.556 25.2555 235.198 24.2473 231.988 24.2473C228.324 24.2473 225.496 25.5536 223.508 28.1673C221.548 30.7527 220.568 34.4745 220.568 39.3327V66.3064H212.727V18.5791H220.568V25.7382C221.96 23.0109 223.849 20.9518 226.235 19.56C228.622 18.1391 231.448 17.4291 234.715 17.4291C239.574 17.4291 243.195 19.0345 245.582 22.2445C247.996 25.4264 249.205 30.2555 249.205 36.7327V36.7327ZM283.167 24.0764C279.19 24.0764 276.178 25.6255 274.133 28.7218C272.087 31.8182 271.065 36.4064 271.065 42.4855C271.065 48.5373 272.087 53.1255 274.133 56.25C276.178 59.3464 279.19 60.8945 283.167 60.8945C287.173 60.8945 290.198 59.3464 292.244 56.25C294.289 53.1255 295.312 48.5373 295.312 42.4855C295.312 36.4064 294.289 31.8182 292.244 28.7218C290.198 25.6255 287.173 24.0764 283.167 24.0764V24.0764ZM283.167 17.4291C289.786 17.4291 294.844 19.5736 298.337 23.8636C301.86 28.1536 303.622 34.3609 303.622 42.4855C303.622 50.6391 301.875 56.8609 298.38 61.1509C294.886 65.4118 289.815 67.5427 283.167 67.5427C276.548 67.5427 271.491 65.4118 267.996 61.1509C264.503 56.8609 262.755 50.6391 262.755 42.4855C262.755 34.3609 264.503 28.1536 267.996 23.8636C271.491 19.5736 276.548 17.4291 283.167 17.4291V17.4291Z" fill="black" stroke="white" stroke-width="0.7" stroke-miterlimit="1.414" stroke-linejoin="round"/>
<path d="M122.08 68.8411C115.768 67.6147 112.076 65.9302 108.521 60.8366C105.94 57.1393 105.525 54.1102 105.476 48.9011C105.453 46.4129 105.524 45.8729 106.031 44.6447L106.613 43.2384L107.305 44.7402C108.103 46.4675 108.883 47.6884 109.395 48.0111C109.7 48.2038 109.78 47.802 109.944 45.2438C110.05 43.5984 110.207 41.782 110.294 41.2075C110.451 40.1657 110.454 40.1611 111.828 39.6393C114.445 38.6438 119.314 38.5166 128.082 39.2147C132.101 39.5357 140.751 39.712 141.669 38.9166C142.621 38.0911 142.736 37.7147 142.435 35.4529C142.08 32.782 142.457 32.1766 141.326 29.9475C138.394 24.1675 133.531 21.7057 127.098 21.6893C121.304 21.6747 116.656 23.7947 113.846 28.5147C111.374 32.6675 110.273 37.1184 109.621 45.5766L109.438 47.9511L108.888 47.1602C106.253 43.3757 104.619 36.7675 105.753 31.7393C106.63 27.8457 108.422 24.4629 111.33 21.2102C113.84 18.402 117.971 16.7893 122.924 15.8438C126.114 15.2356 128.297 15.2356 131.488 15.8438C136.442 16.7893 140.032 18.5947 142.542 21.4029C145.419 24.6211 147.239 28.0338 148.087 31.8029C148.66 34.3475 148.753 38.2057 148.271 39.4238C147.849 40.4911 144.738 43.9647 144.634 43.4847C144.59 43.2884 144.68 42.9493 144.833 42.7329C145.261 42.1247 144.874 41.8747 144.223 42.3393C143.717 42.7002 143.629 42.7102 143.334 42.4402C142.713 41.872 142.484 42.462 143.054 43.1629C143.714 43.9738 143.725 44.2466 143.101 44.2466C142.834 44.2466 142.554 44.3229 142.479 44.4147C141.884 45.1457 132.656 45.3184 125.331 44.7347C119.914 44.3029 115.606 44.3957 114.599 44.9638C113.77 45.432 112.672 47.0866 112.301 48.4257C111.949 49.6993 112.153 53.562 112.654 55.112C113.161 56.6757 114.955 58.9538 116.828 60.4093C122.063 64.4784 130.704 64.5248 135.968 60.5129C138.614 58.4957 140.751 55.2547 140.124 54.2084C139.965 53.9438 139.835 53.4284 139.835 53.0638C139.835 52.4002 140.594 51.0311 141.092 50.7975C141.794 50.4684 142.585 49.1557 142.585 48.322C142.585 47.3575 142.926 46.7166 143.439 46.7166C144.236 46.7166 144.142 44.2402 143.304 43.1793C142.66 42.3647 142.718 42.1966 143.461 42.7275C143.941 43.0693 144.086 43.1047 144.086 42.8784C144.086 42.7166 144.276 42.4666 144.508 42.3229C144.885 42.0902 144.905 42.1029 144.695 42.442C144.567 42.6511 144.494 43.6675 144.534 44.7011C144.601 46.4047 144.662 46.6111 145.188 46.9266C145.662 47.2093 145.793 47.5093 145.9 48.562C145.992 49.4684 146.271 50.2338 146.84 51.1447C147.498 52.1975 147.625 52.5975 147.522 53.2938C147.451 53.7747 147.174 54.3302 146.891 54.5638C146.264 55.0802 143.725 58.4193 143.469 59.0638C143.005 60.2329 141.446 62.6857 140.429 63.8484C138.856 65.6457 137.158 66.7257 134.225 67.7957C129.843 69.3947 126.435 69.6875 122.08 68.8411V68.8411Z" fill="black" stroke="white" stroke-width="0.74"/>
</g>
<defs>
<clipPath id="clip0">
<rect width="303.636" height="70" fill="white"/>
</clipPath>
</defs>
</svg>
