<svg width="285" height="65" viewBox="0 0 285 65" fill="none" xmlns="http://www.w3.org/2000/svg">
<path fill-rule="evenodd" clip-rule="evenodd" d="M114.165 50.8748L106.796 36.736L99.259 50.8748H91.1545L102.645 32.6271L92.3043 14.4917H100.521L107.23 28.27L114.501 14.4917H122.017L111.395 32.5148L122.185 50.8748H114.165ZM140.44 50.8748V46.915H140.328C138.327 50.0229 135.495 51.5769 131.831 51.5769C129.007 51.5769 126.783 50.8093 125.156 49.274C123.53 47.7201 122.716 45.6419 122.716 43.0394C122.716 37.4601 125.848 34.2867 132.111 33.519L140.496 32.3676C140.496 28.4546 138.682 26.4981 135.056 26.4981C131.597 26.4981 128.419 27.5653 125.521 29.6997V23.9706C126.605 23.3153 128.157 22.7255 130.176 22.2013C132.214 21.6771 134.065 21.415 135.729 21.4149C143.132 21.415 146.834 25.1595 146.834 32.6484V50.8748H140.44ZM134.298 37.7035C132.373 37.9469 131.017 38.4244 130.232 39.1358C129.466 39.8285 129.082 40.9051 129.082 42.3654C129.082 43.5637 129.522 44.5466 130.4 45.3142C131.279 46.0631 132.429 46.4376 133.85 46.4376C135.775 46.4376 137.364 45.7729 138.617 44.4436C139.87 43.1143 140.496 41.4574 140.496 39.4728V36.8891L134.298 37.7035ZM188.18 50.8748V34.6424C188.18 31.9651 187.76 29.9805 186.918 28.6886C186.096 27.3781 184.619 26.7228 182.487 26.7228C180.786 26.7228 179.356 27.5091 178.197 29.0818C177.038 30.6358 176.458 32.5174 176.458 34.7266V50.8748H169.98V34.0807C169.98 29.1754 168.101 26.7228 164.343 26.7228C162.586 26.7228 161.137 27.4623 159.997 28.9414C158.875 30.4205 158.314 32.3489 158.314 34.7266V50.8748H151.836V22.117H158.314V26.5543H158.426C160.502 23.1281 163.53 21.415 167.512 21.4149C169.419 21.415 171.102 21.9205 172.56 22.9315C174.037 23.9238 175.075 25.2999 175.673 27.0598C177.86 23.2966 181.076 21.415 185.32 21.4149C191.564 21.415 194.686 25.3093 194.686 33.0978V50.8748H188.18ZM216.222 50.8748V46.915H216.11C214.11 50.0229 211.277 51.5769 207.613 51.5769C204.79 51.5769 202.565 50.8093 200.939 49.274C199.312 47.7201 198.499 45.6419 198.499 43.0394C198.499 37.4601 201.63 34.2867 207.893 33.519L216.278 32.3676C216.278 28.4546 214.465 26.4981 210.838 26.4981C207.379 26.4981 204.201 27.5653 201.303 29.6997V23.9706C202.388 23.3153 203.939 22.7255 205.958 22.2013C207.996 21.6771 209.847 21.415 211.511 21.4149C218.914 21.415 222.616 25.1595 222.616 32.6484V50.8748H216.222ZM210.081 37.7035C208.155 37.9469 206.8 38.4244 206.014 39.1358C205.248 39.8285 204.865 40.9051 204.865 42.3654C204.865 43.5637 205.304 44.5466 206.183 45.3142C207.061 46.0631 208.211 46.4376 209.632 46.4376C211.558 46.4376 213.147 45.7729 214.399 44.4436C215.652 43.1143 216.278 41.4574 216.278 39.4728V36.8891L210.081 37.7035ZM244.315 28.4359C243.25 27.7806 241.997 27.453 240.558 27.453C238.688 27.453 237.164 28.258 235.986 29.8681C234.827 31.4783 234.248 33.5752 234.248 36.1589V50.8748H227.77V22.117H234.248V27.7057H234.36C235.743 23.6429 238.193 21.6116 241.707 21.6115C242.848 21.6116 243.717 21.7426 244.315 22.0047L244.315 28.4359ZM250.764 15.6859C249.661 15.6859 248.726 15.3302 247.96 14.6187C247.193 13.8885 246.81 12.9992 246.81 11.9507C246.81 10.8648 247.193 9.95679 247.96 9.2266C248.726 8.49644 249.661 8.13136 250.764 8.13131C251.886 8.13136 252.83 8.50582 253.597 9.25467C254.363 9.98488 254.746 10.8836 254.746 11.9507C254.746 12.9992 254.363 13.8885 253.597 14.6187C252.83 15.3302 251.886 15.6859 250.764 15.6859ZM247.455 50.8748V22.117H253.933V50.8748H247.455ZM278.416 50.8748V34.7266C278.416 29.3907 276.5 26.7228 272.667 26.7228C270.741 26.7228 269.124 27.4623 267.816 28.9414C266.526 30.4018 265.881 32.2647 265.881 34.53V50.8748H259.403V22.117H265.881V26.7228H265.993C268.087 23.1842 271.19 21.415 275.303 21.4149C281.697 21.415 284.894 25.3467 284.894 33.2101V50.8748H278.416ZM21.0222 0C19.0545 0.00418393 17.1283 1.12414 16.1378 2.83266L0.731351 29.6673C-0.243784 31.3804 -0.243784 33.6196 0.731351 35.3327L16.1378 62.1673C17.1284 63.8759 19.0545 64.9961 21.0222 65H51.835C53.8027 64.9958 55.7287 63.8759 56.7194 62.1673L72.1258 35.3327C73.101 33.6196 73.1009 31.3804 72.1258 29.6673L56.7194 2.83266C55.7287 1.12414 53.8027 0.00387014 51.835 0H21.0222ZM21.3019 15.6986C21.3442 15.6944 21.3886 15.6944 21.431 15.6986H26.7458C26.981 15.7035 27.2092 15.8398 27.3267 16.0446L36.3425 32.154C36.3879 32.2337 36.4171 32.3224 36.4282 32.4135C36.4393 32.3224 36.4686 32.2336 36.514 32.154L45.5082 16.0446C45.6294 15.8336 45.8683 15.6965 46.1106 15.6986H51.4253C51.896 15.7028 52.2484 16.2972 52.0279 16.7149L43.2274 32.5L52.0279 48.2635C52.2693 48.6836 51.9082 49.3056 51.4253 49.3014H46.1106C45.8641 49.2993 45.6237 49.1527 45.5082 48.9338L36.514 32.8243C36.4686 32.7447 36.4393 32.656 36.4282 32.5649C36.4171 32.656 36.3879 32.7447 36.3425 32.8243L27.3267 48.9338C27.2146 49.1465 26.9852 49.2917 26.7458 49.3014H21.431C20.9482 49.3056 20.5872 48.6836 20.8286 48.2635L29.6291 32.5L20.8286 16.7149C20.6176 16.3338 20.875 15.78 21.3019 15.6986Z" fill="black"/>
</svg>
